<svg width="220" height="317" viewBox="0 0 220 317" fill="none" xmlns="http://www.w3.org/2000/svg">
<path d="M54.6375 62.5183L109.818 6.09375L165.362 62.5183" stroke="#C9AF54" stroke-width="4"/>
<rect x="2.7085" y="63.2925" width="17.5273" height="21.4626" rx="4" fill="url(#paint0_linear_1070_7522)"/>
<rect x="2.7085" y="63.2925" width="17.5273" height="21.4626" rx="4" stroke="white" stroke-width="5"/>
<rect x="2.7085" y="63.2925" width="17.5273" height="21.4626" rx="4" stroke="#223B59" stroke-width="5"/>
<rect x="199.835" y="63.2925" width="17.5273" height="21.4626" rx="4" fill="url(#paint1_linear_1070_7522)"/>
<rect x="199.835" y="63.2925" width="17.5273" height="21.4626" rx="4" stroke="white" stroke-width="5"/>
<rect x="199.835" y="63.2925" width="17.5273" height="21.4626" rx="4" stroke="#223B59" stroke-width="5"/>
<ellipse cx="110.667" cy="280.745" rx="66.4209" ry="27.8366" fill="#727272" fill-opacity="0.5"/>
<path d="M202.671 62.8731V60.3731H200.171H182.761H123.098C121.717 60.3731 120.598 59.2538 120.598 57.8731V10.2751C120.598 6.13283 117.24 2.77493 113.097 2.77506L109.897 2.77516C105.897 2.77528 102.602 5.91436 102.407 9.90951L100.059 57.995C99.9944 59.3268 98.8957 60.3731 97.5624 60.3731H24.2358C20.0937 60.3731 16.7358 63.731 16.7358 67.8731V79.2325C16.7358 83.3746 20.0937 86.7325 24.2358 86.7325H89.6274C90.9819 86.7325 92.09 87.8112 92.1265 89.1651L97.1589 275.947C97.2683 280.009 100.593 283.245 104.656 283.245H117.347C121.412 283.245 124.738 280.006 124.845 275.942L129.76 89.1667C129.795 87.8121 130.904 86.7325 132.259 86.7325H195.171C199.313 86.7325 202.671 83.3746 202.671 79.2325V62.8731Z" fill="#77684D" stroke="white" stroke-width="5"/>
<path d="M98.5251 224.199H123.333V255.015L98.5251 246.297V224.199Z" fill="#5C4F37"/>
<g filter="url(#filter0_dd_1070_7522)">
<path d="M36.9576 217.174C34.6626 209.091 44.5185 139.97 44.0081 105.409C43.7342 90.4865 39.4141 55.8223 44.008 55.8223H178.759C184.373 55.8223 178.759 92.8542 178.759 105.409C178.759 122.201 190.109 203.062 184.737 217.174C180.529 228.226 153.441 245.906 153.441 245.906L110.363 232.03L66.9663 245.906C66.9663 245.906 41.1042 231.778 36.9576 217.174Z" fill="#F9FDFF"/>
<path d="M36.9576 217.174C34.6626 209.091 44.5185 139.97 44.0081 105.409C43.7342 90.4865 39.4141 55.8223 44.008 55.8223H178.759C184.373 55.8223 178.759 92.8542 178.759 105.409C178.759 122.201 190.109 203.062 184.737 217.174C180.529 228.226 153.441 245.906 153.441 245.906L110.363 232.03L66.9663 245.906C66.9663 245.906 41.1042 231.778 36.9576 217.174Z" stroke="#223B59" stroke-width="5"/>
</g>
<g clip-path="url(#clip0_1070_7522)">
<path d="M137.446 129.743H128.6C127.578 129.743 126.597 129.307 125.909 128.538L122.32 124.506C121.778 123.904 121.026 123.55 120.213 123.55C119.399 123.55 118.648 123.904 118.106 124.506L115.018 127.977C114.016 129.099 112.556 129.764 111.054 129.764H62.6288C61.2518 133.65 60.3547 137.786 60 142.087H105.712C106.526 142.087 107.277 141.755 107.841 141.173L112.097 136.746C112.618 136.185 113.369 135.874 114.121 135.874H114.288C115.101 135.874 115.852 136.227 116.395 136.83L119.983 140.861C120.672 141.63 121.652 142.067 122.675 142.067H159.979C159.624 137.786 158.727 133.629 157.35 129.722L137.446 129.743Z" fill="black"/>
<path d="M87.6653 168.022C88.479 168.022 89.2301 167.69 89.7934 167.108L94.0496 162.681C94.5921 162.12 95.3223 161.809 96.0943 161.809H96.2612C97.0749 161.809 97.8468 162.162 98.3684 162.744L101.957 166.775C102.645 167.544 103.626 167.981 104.648 167.981H155.222C157.121 164.074 158.498 159.897 159.332 155.512H110.782C109.76 155.512 108.779 155.075 108.091 154.307L104.502 150.317C103.96 149.714 103.209 149.381 102.395 149.381C101.581 149.381 100.809 149.735 100.288 150.317L97.2001 153.787C96.1986 154.93 94.7381 155.574 93.2151 155.574H60.6885C61.523 159.959 62.9 164.136 64.7986 168.043L87.6653 168.022Z" fill="black"/>
<path d="M123.53 116.256C124.344 116.256 125.095 115.924 125.658 115.342L129.914 110.915C130.436 110.354 131.187 110.042 131.959 110.042H132.126C132.94 110.042 133.691 110.396 134.233 110.998L137.822 115.051C138.51 115.82 139.491 116.256 140.513 116.256H150.131C140.972 104.12 126.409 96.2852 110.01 96.2852C93.6115 96.2852 79.0277 104.12 69.8685 116.256H123.53Z" fill="black"/>
<path d="M104.231 180.387H91.087C90.0646 180.387 89.084 179.951 88.3955 179.182L84.807 175.15C84.2645 174.548 83.5134 174.215 82.6997 174.215C81.886 174.215 81.1141 174.569 80.5925 175.15L77.5047 178.621C76.5032 179.764 75.0427 180.408 73.5197 180.408H73.311C82.4702 190.175 95.5101 196.306 110.01 196.306C124.511 196.306 137.53 190.175 146.71 180.408L104.231 180.387Z" fill="black"/>
</g>
<path d="M54.9822 109.624C54.9822 100.063 53.1198 71.7314 52.154 58.3315L44.9396 58.3316C41.3293 64.5835 46.5246 94.8745 46.5246 109.624C46.5246 124.373 39.0398 209.523 39.0398 216.127C39.0398 221.41 44.5923 226.391 48.9749 229.733C48.0092 227.681 46.2904 224.355 46.2904 215.374C46.2904 204.147 54.9822 121.575 54.9822 109.624Z" fill="url(#paint2_linear_1070_7522)"/>
<path d="M169.018 109.624C169.018 100.063 170.88 71.7314 171.846 58.3315L179.061 58.3316C182.671 64.5835 177.476 94.8745 177.476 109.624C177.476 124.373 185.202 195.206 183.776 212.785C183.349 218.051 175.014 226.863 170.632 230.205C171.598 228.153 178.392 221.766 178.392 212.785C178.392 201.558 169.018 121.575 169.018 109.624Z" fill="url(#paint3_linear_1070_7522)"/>
<path d="M53.8571 91.613L170.895 68.4643L169.806 101.776L53.8571 123.725L53.8571 91.613Z" fill="#91A6C0" fill-opacity="0.15"/>
<path d="M46.6354 201.926L175.254 175.405L176.114 186.244L46.6354 209.651L46.6354 201.926Z" fill="#91A6C0" fill-opacity="0.15"/>
<defs>
<filter id="filter0_dd_1070_7522" x="34.1101" y="50.8223" width="154.57" height="200.329" filterUnits="userSpaceOnUse" color-interpolation-filters="sRGB">
<feFlood flood-opacity="0" result="BackgroundImageFix"/>
<feColorMatrix in="SourceAlpha" type="matrix" values="0 0 0 0 0 0 0 0 0 0 0 0 0 0 0 0 0 0 127 0" result="hardAlpha"/>
<feOffset dy="2.5"/>
<feComposite in2="hardAlpha" operator="out"/>
<feColorMatrix type="matrix" values="0 0 0 0 1 0 0 0 0 1 0 0 0 0 1 0 0 0 1 0"/>
<feBlend mode="normal" in2="BackgroundImageFix" result="effect1_dropShadow_1070_7522"/>
<feColorMatrix in="SourceAlpha" type="matrix" values="0 0 0 0 0 0 0 0 0 0 0 0 0 0 0 0 0 0 127 0" result="hardAlpha"/>
<feOffset dy="-2.5"/>
<feComposite in2="hardAlpha" operator="out"/>
<feColorMatrix type="matrix" values="0 0 0 0 1 0 0 0 0 1 0 0 0 0 1 0 0 0 1 0"/>
<feBlend mode="normal" in2="effect1_dropShadow_1070_7522" result="effect2_dropShadow_1070_7522"/>
<feBlend mode="normal" in="SourceGraphic" in2="effect2_dropShadow_1070_7522" result="shape"/>
</filter>
<linearGradient id="paint0_linear_1070_7522" x1="16.8968" y1="63.2925" x2="16.8732" y2="85.1356" gradientUnits="userSpaceOnUse">
<stop stop-color="#6BD3FF"/>
<stop offset="0.295" stop-color="#E0FFFF"/>
<stop offset="0.34" stop-color="#72C1EE"/>
<stop offset="0.425" stop-color="#A4EFFF"/>
<stop offset="0.68" stop-color="#74C9EE"/>
<stop offset="0.76" stop-color="#BDFBFF"/>
<stop offset="1" stop-color="#91E1F3"/>
</linearGradient>
<linearGradient id="paint1_linear_1070_7522" x1="214.023" y1="63.2925" x2="214" y2="85.1356" gradientUnits="userSpaceOnUse">
<stop stop-color="#6BD3FF"/>
<stop offset="0.295" stop-color="#E0FFFF"/>
<stop offset="0.34" stop-color="#72C1EE"/>
<stop offset="0.425" stop-color="#A4EFFF"/>
<stop offset="0.68" stop-color="#74C9EE"/>
<stop offset="0.76" stop-color="#BDFBFF"/>
<stop offset="1" stop-color="#91E1F3"/>
</linearGradient>
<linearGradient id="paint2_linear_1070_7522" x1="51.9451" y1="58.3315" x2="50.2902" y2="232.757" gradientUnits="userSpaceOnUse">
<stop stop-color="#6BD3FF"/>
<stop offset="0.295" stop-color="#E0FFFF"/>
<stop offset="0.34" stop-color="#72C1EE"/>
<stop offset="0.425" stop-color="#A4EFFF"/>
<stop offset="0.68" stop-color="#74C9EE"/>
<stop offset="0.76" stop-color="#BDFBFF"/>
<stop offset="1" stop-color="#91E1F3"/>
</linearGradient>
<linearGradient id="paint3_linear_1070_7522" x1="171.863" y1="58.3315" x2="173.639" y2="233.235" gradientUnits="userSpaceOnUse">
<stop stop-color="#6BD3FF"/>
<stop offset="0.295" stop-color="#E0FFFF"/>
<stop offset="0.34" stop-color="#72C1EE"/>
<stop offset="0.425" stop-color="#A4EFFF"/>
<stop offset="0.68" stop-color="#74C9EE"/>
<stop offset="0.76" stop-color="#BDFBFF"/>
<stop offset="1" stop-color="#91E1F3"/>
</linearGradient>
<clipPath id="clip0_1070_7522">
<rect width="100" height="100" fill="white" transform="translate(60 96.2852)"/>
</clipPath>
</defs>
</svg>
