<svg width="289" height="286" viewBox="0 0 289 286" fill="none" xmlns="http://www.w3.org/2000/svg">
<g filter="url(#filter0_dd_270_1958)">
<path d="M32.972 23.7822C32.4431 28.2386 32.1787 71.7335 32.1126 92.9239C32.0771 102.073 32.972 110.619 33.567 110.619C33.8626 110.619 42.1614 97.1194 42.1614 97.1194C42.1614 97.1194 50.6542 110.619 51.0202 110.619C51.7474 110.619 51.6813 100.461 52.0119 92.9239C52.3424 85.3872 52.2102 30.9913 51.0202 23.7822C50.0682 18.0148 42.1614 20.4121 42.1614 20.4121C42.1614 20.4121 33.5009 19.3257 32.972 23.7822Z" fill="url(#paint0_linear_270_1958)"/>
<path d="M32.972 23.7822C32.4431 28.2386 32.1787 71.7335 32.1126 92.9239C32.0771 102.073 32.972 110.619 33.567 110.619C33.8626 110.619 42.1614 97.1194 42.1614 97.1194C42.1614 97.1194 50.6542 110.619 51.0202 110.619C51.7474 110.619 51.6813 100.461 52.0119 92.9239C52.3424 85.3872 52.2102 30.9913 51.0202 23.7822C50.0682 18.0148 42.1614 20.4121 42.1614 20.4121C42.1614 20.4121 33.5009 19.3257 32.972 23.7822Z" stroke="#223B59" stroke-width="5"/>
</g>
<g filter="url(#filter1_dd_270_1958)">
<path d="M237.896 23.7822C237.317 28.2386 237.027 71.7335 236.954 92.9239C236.915 102.073 237.896 110.619 238.549 110.619C238.873 110.619 247.97 97.1194 247.97 97.1194C247.97 97.1194 257.279 110.619 257.681 110.619C258.478 110.619 258.405 100.461 258.768 92.9239C259.13 85.3872 258.985 30.9913 257.681 23.7822C256.637 18.0148 247.97 20.4121 247.97 20.4121C247.97 20.4121 238.476 19.3257 237.896 23.7822Z" fill="url(#paint1_linear_270_1958)"/>
<path d="M237.896 23.7822C237.317 28.2386 237.027 71.7335 236.954 92.9239C236.915 102.073 237.896 110.619 238.549 110.619C238.873 110.619 247.97 97.1194 247.97 97.1194C247.97 97.1194 257.279 110.619 257.681 110.619C258.478 110.619 258.405 100.461 258.768 92.9239C259.13 85.3872 258.985 30.9913 257.681 23.7822C256.637 18.0148 247.97 20.4121 247.97 20.4121C247.97 20.4121 238.476 19.3257 237.896 23.7822Z" stroke="#223B59" stroke-width="5"/>
</g>
<path d="M47.7357 11.7158L53.2608 22.4209V41.4138L47.7357 53.1548L6.29663 33.4713L47.7357 11.7158Z" fill="#D9D9D9"/>
<path d="M47.7357 11.7158L53.2608 22.4209V41.4138L47.7357 53.1548L6.29663 33.4713L47.7357 11.7158Z" fill="url(#paint2_linear_270_1958)"/>
<path d="M47.7357 11.7158L53.2608 22.4209V41.4138L47.7357 53.1548L6.29663 33.4713L47.7357 11.7158Z" stroke="white" stroke-width="5"/>
<path d="M47.7357 11.7158L53.2608 22.4209V41.4138L47.7357 53.1548L6.29663 33.4713L47.7357 11.7158Z" stroke="#223B59" stroke-width="5"/>
<path d="M241.5 11.7158L235.975 22.4209V41.4138L241.5 53.1548L282.939 33.4713L241.5 11.7158Z" fill="#D9D9D9"/>
<path d="M241.5 11.7158L235.975 22.4209V41.4138L241.5 53.1548L282.939 33.4713L241.5 11.7158Z" fill="url(#paint3_linear_270_1958)"/>
<path d="M241.5 11.7158L235.975 22.4209V41.4138L241.5 53.1548L282.939 33.4713L241.5 11.7158Z" stroke="white" stroke-width="5"/>
<path d="M241.5 11.7158L235.975 22.4209V41.4138L241.5 53.1548L282.939 33.4713L241.5 11.7158Z" stroke="#223B59" stroke-width="5"/>
<ellipse cx="144.917" cy="249.745" rx="66.4209" ry="27.8366" fill="#727272" fill-opacity="0.5"/>
<path d="M236.921 20.4665V17.9665H234.421H217.011H166.639C165.258 17.9665 164.139 16.8472 164.139 15.4665V10.0938C164.139 5.95164 160.781 2.59376 156.639 2.59381L133.744 2.59411C129.602 2.59416 126.244 5.952 126.244 10.0941V15.4665C126.244 16.8472 125.125 17.9665 123.744 17.9665H58.4858C54.3437 17.9665 50.9858 21.3244 50.9858 25.4665V37.9441C50.9858 42.0863 54.3437 45.4441 58.4858 45.4441H123.871C125.227 45.4441 126.335 46.5248 126.37 47.8802L131.415 244.937C131.519 249.003 134.845 252.245 138.913 252.245H151.591C155.66 252.245 158.987 249.001 159.088 244.933L164.016 47.8816C164.05 46.5257 165.159 45.4441 166.515 45.4441H229.421C233.563 45.4441 236.921 42.0863 236.921 37.9441V20.4665Z" fill="#77684D" stroke="white" stroke-width="5"/>
<path d="M134.507 199.728H155.851V226.24L134.507 218.74V199.728Z" fill="#5C4F37"/>
<g filter="url(#filter2_dd_270_1958)">
<path d="M68.4383 165.201C64.0523 157.745 61.8594 84.9755 61.3112 49.5227C61.017 34.2157 68.4383 19.918 73.3725 19.918C75.8235 19.918 110.062 42.5034 144.643 42.5034C179.682 42.5034 215.072 19.918 218.107 19.918C224.138 19.918 223.59 36.9133 226.331 49.5227C229.072 62.1321 227.976 153.14 218.107 165.201C210.213 174.85 165.842 196.633 144.643 206.319C121.069 195.72 72.8243 172.657 68.4383 165.201Z" fill="url(#paint4_linear_270_1958)"/>
<path d="M68.4383 165.201C64.0523 157.745 61.8594 84.9755 61.3112 49.5227C61.017 34.2157 68.4383 19.918 73.3725 19.918C75.8235 19.918 110.062 42.5034 144.643 42.5034C179.682 42.5034 215.072 19.918 218.107 19.918C224.138 19.918 223.59 36.9133 226.331 49.5227C229.072 62.1321 227.976 153.14 218.107 165.201C210.213 174.85 165.842 196.633 144.643 206.319C121.069 195.72 72.8243 172.657 68.4383 165.201Z" stroke="#223B59" stroke-width="5"/>
</g>
<path opacity="0.2" d="M124.977 129.955L127.78 140.595L147.023 108.707L127.78 76.8201L124.84 87.2289L137.622 108.702L124.977 129.955Z" fill="#FF564F"/>
<path d="M171.978 140.595H161.271L138.704 108.705L161.271 76.8201H171.978L149.729 108.705L171.978 140.595Z" fill="#F08179"/>
<path d="M116.522 76.8201H127.613V140.595H116.522V76.8201Z" fill="#FF564F"/>
<path d="M171.978 139.202H160.859L137.423 108.147L160.859 77.0972H171.978L148.872 108.147L171.978 139.202Z" fill="#FF564F"/>
<path d="M171.978 139.202H160.859L137.423 108.147L160.859 77.0972H171.978L148.872 108.147L171.978 139.202Z" fill="#FF564F"/>
<path d="M171.978 139.202H160.859L137.423 108.147L160.859 77.0972H171.978L148.872 108.147L171.978 139.202Z" fill="#FF564F"/>
<path d="M171.978 139.202H160.859L137.423 108.147L160.859 77.0972H171.978L148.872 108.147L171.978 139.202Z" fill="#FF564F"/>
<path d="M144.801 198.509L69.6082 160.052C69.9943 162.884 70.4437 164.03 71.7861 165.05C83.8384 175.576 112.1 189.589 144.801 203.668C173.577 190.091 200.729 176.507 213.596 166.308C216.275 163.887 217.327 162.263 218.481 158.957L144.801 198.509Z" fill="url(#paint5_linear_270_1958)"/>
<path d="M65.1831 99.7099L224.723 54.0598L224.723 89.1201L66.5952 133.123L65.1831 99.7099Z" fill="white" fill-opacity="0.15"/>
<path d="M65.183 156.64L224.723 110.99L224.723 120.05L66.5951 164.053L65.183 156.64Z" fill="white" fill-opacity="0.15"/>
<defs>
<filter id="filter0_dd_270_1958" x="29.6116" y="14.9181" width="25.0569" height="100.701" filterUnits="userSpaceOnUse" color-interpolation-filters="sRGB">
<feFlood flood-opacity="0" result="BackgroundImageFix"/>
<feColorMatrix in="SourceAlpha" type="matrix" values="0 0 0 0 0 0 0 0 0 0 0 0 0 0 0 0 0 0 127 0" result="hardAlpha"/>
<feOffset dy="2.5"/>
<feComposite in2="hardAlpha" operator="out"/>
<feColorMatrix type="matrix" values="0 0 0 0 1 0 0 0 0 1 0 0 0 0 1 0 0 0 1 0"/>
<feBlend mode="normal" in2="BackgroundImageFix" result="effect1_dropShadow_270_1958"/>
<feColorMatrix in="SourceAlpha" type="matrix" values="0 0 0 0 0 0 0 0 0 0 0 0 0 0 0 0 0 0 127 0" result="hardAlpha"/>
<feOffset dy="-2.5"/>
<feComposite in2="hardAlpha" operator="out"/>
<feColorMatrix type="matrix" values="0 0 0 0 1 0 0 0 0 1 0 0 0 0 1 0 0 0 1 0"/>
<feBlend mode="normal" in2="effect1_dropShadow_270_1958" result="effect2_dropShadow_270_1958"/>
<feBlend mode="normal" in="SourceGraphic" in2="effect2_dropShadow_270_1958" result="shape"/>
</filter>
<filter id="filter1_dd_270_1958" x="234.453" y="14.9181" width="26.9861" height="100.701" filterUnits="userSpaceOnUse" color-interpolation-filters="sRGB">
<feFlood flood-opacity="0" result="BackgroundImageFix"/>
<feColorMatrix in="SourceAlpha" type="matrix" values="0 0 0 0 0 0 0 0 0 0 0 0 0 0 0 0 0 0 127 0" result="hardAlpha"/>
<feOffset dy="2.5"/>
<feComposite in2="hardAlpha" operator="out"/>
<feColorMatrix type="matrix" values="0 0 0 0 1 0 0 0 0 1 0 0 0 0 1 0 0 0 1 0"/>
<feBlend mode="normal" in2="BackgroundImageFix" result="effect1_dropShadow_270_1958"/>
<feColorMatrix in="SourceAlpha" type="matrix" values="0 0 0 0 0 0 0 0 0 0 0 0 0 0 0 0 0 0 127 0" result="hardAlpha"/>
<feOffset dy="-2.5"/>
<feComposite in2="hardAlpha" operator="out"/>
<feColorMatrix type="matrix" values="0 0 0 0 1 0 0 0 0 1 0 0 0 0 1 0 0 0 1 0"/>
<feBlend mode="normal" in2="effect1_dropShadow_270_1958" result="effect2_dropShadow_270_1958"/>
<feBlend mode="normal" in="SourceGraphic" in2="effect2_dropShadow_270_1958" result="shape"/>
</filter>
<filter id="filter2_dd_270_1958" x="58.8027" y="14.918" width="171.326" height="196.646" filterUnits="userSpaceOnUse" color-interpolation-filters="sRGB">
<feFlood flood-opacity="0" result="BackgroundImageFix"/>
<feColorMatrix in="SourceAlpha" type="matrix" values="0 0 0 0 0 0 0 0 0 0 0 0 0 0 0 0 0 0 127 0" result="hardAlpha"/>
<feOffset dy="2.5"/>
<feComposite in2="hardAlpha" operator="out"/>
<feColorMatrix type="matrix" values="0 0 0 0 1 0 0 0 0 1 0 0 0 0 1 0 0 0 1 0"/>
<feBlend mode="normal" in2="BackgroundImageFix" result="effect1_dropShadow_270_1958"/>
<feColorMatrix in="SourceAlpha" type="matrix" values="0 0 0 0 0 0 0 0 0 0 0 0 0 0 0 0 0 0 127 0" result="hardAlpha"/>
<feOffset dy="-2.5"/>
<feComposite in2="hardAlpha" operator="out"/>
<feColorMatrix type="matrix" values="0 0 0 0 1 0 0 0 0 1 0 0 0 0 1 0 0 0 1 0"/>
<feBlend mode="normal" in2="effect1_dropShadow_270_1958" result="effect2_dropShadow_270_1958"/>
<feBlend mode="normal" in="SourceGraphic" in2="effect2_dropShadow_270_1958" result="shape"/>
</filter>
<linearGradient id="paint0_linear_270_1958" x1="42.14" y1="110.619" x2="42.14" y2="-0.794182" gradientUnits="userSpaceOnUse">
<stop stop-color="#BA203C"/>
<stop offset="0.43" stop-color="#FF5F7C"/>
<stop offset="1" stop-color="#E05031"/>
</linearGradient>
<linearGradient id="paint1_linear_270_1958" x1="247.946" y1="110.619" x2="247.946" y2="-0.794182" gradientUnits="userSpaceOnUse">
<stop stop-color="#BA203C"/>
<stop offset="0.43" stop-color="#FF5F7C"/>
<stop offset="1" stop-color="#E05031"/>
</linearGradient>
<linearGradient id="paint2_linear_270_1958" x1="4.87611" y1="20.4342" x2="38.2852" y2="54.7199" gradientUnits="userSpaceOnUse">
<stop stop-color="#FFDE6B"/>
<stop offset="0.295" stop-color="#FFFCB1"/>
<stop offset="0.34" stop-color="#FFCF27"/>
<stop offset="0.425" stop-color="#FFEDA4"/>
<stop offset="0.68" stop-color="#FFCA42"/>
<stop offset="0.76" stop-color="#FFF9BD"/>
<stop offset="1" stop-color="#FFF967"/>
</linearGradient>
<linearGradient id="paint3_linear_270_1958" x1="284.36" y1="20.4342" x2="250.951" y2="54.7199" gradientUnits="userSpaceOnUse">
<stop stop-color="#FFDE6B"/>
<stop offset="0.295" stop-color="#FFFCB1"/>
<stop offset="0.34" stop-color="#FFCF27"/>
<stop offset="0.425" stop-color="#FFEDA4"/>
<stop offset="0.68" stop-color="#FFCA42"/>
<stop offset="0.76" stop-color="#FFF9BD"/>
<stop offset="1" stop-color="#FFF967"/>
</linearGradient>
<linearGradient id="paint4_linear_270_1958" x1="119.752" y1="198.007" x2="237.783" y2="50.6603" gradientUnits="userSpaceOnUse">
<stop offset="0.00399963" stop-color="#FE85A2"/>
<stop offset="0.264" stop-color="#F7A6A8"/>
<stop offset="0.736189" stop-color="#FFD3D4"/>
<stop offset="0.97" stop-color="#FFF2EC"/>
</linearGradient>
<linearGradient id="paint5_linear_270_1958" x1="65.1052" y1="168.364" x2="86.655" y2="233.336" gradientUnits="userSpaceOnUse">
<stop stop-color="#FFDE6B"/>
<stop offset="0.295" stop-color="#FFFCB1"/>
<stop offset="0.34" stop-color="#FFCF27"/>
<stop offset="0.425" stop-color="#FFEDA4"/>
<stop offset="0.68" stop-color="#FFCA42"/>
<stop offset="0.76" stop-color="#FFF9BD"/>
<stop offset="1" stop-color="#FFF967"/>
</linearGradient>
</defs>
</svg>
