<svg width="192" height="286" viewBox="0 0 192 286" fill="none" xmlns="http://www.w3.org/2000/svg">
<g filter="url(#filter0_dd_874_3628)">
<path d="M15.6513 44.5872C15.0122 49.9724 14.6927 102.532 14.6128 128.138C14.5699 139.194 15.6513 149.521 16.3704 149.521C16.7275 149.521 26.7558 133.208 26.7558 133.208C26.7558 133.208 37.0185 149.521 37.4607 149.521C38.3395 149.521 38.2596 137.245 38.659 128.138C39.0585 119.031 38.8987 53.2988 37.4607 44.5872C36.3103 37.618 26.7558 40.5148 26.7558 40.5148C26.7558 40.5148 16.2905 39.2021 15.6513 44.5872Z" fill="url(#paint0_linear_874_3628)"/>
<path d="M15.6513 44.5872C15.0122 49.9724 14.6927 102.532 14.6128 128.138C14.5699 139.194 15.6513 149.521 16.3704 149.521C16.7275 149.521 26.7558 133.208 26.7558 133.208C26.7558 133.208 37.0185 149.521 37.4607 149.521C38.3395 149.521 38.2596 137.245 38.659 128.138C39.0585 119.031 38.8987 53.2988 37.4607 44.5872C36.3103 37.618 26.7558 40.5148 26.7558 40.5148C26.7558 40.5148 16.2905 39.2021 15.6513 44.5872Z" stroke="#223B59" stroke-width="5"/>
</g>
<g filter="url(#filter1_dd_874_3628)">
<path d="M159.142 44.5872C158.503 49.9724 158.183 102.532 158.104 128.138C158.061 139.194 159.142 149.521 159.861 149.521C160.218 149.521 170.246 133.208 170.246 133.208C170.246 133.208 180.509 149.521 180.951 149.521C181.83 149.521 181.75 137.245 182.15 128.138C182.549 119.031 182.389 53.2988 180.951 44.5872C179.801 37.618 170.246 40.5148 170.246 40.5148C170.246 40.5148 159.781 39.2021 159.142 44.5872Z" fill="url(#paint1_linear_874_3628)"/>
<path d="M159.142 44.5872C158.503 49.9724 158.183 102.532 158.104 128.138C158.061 139.194 159.142 149.521 159.861 149.521C160.218 149.521 170.246 133.208 170.246 133.208C170.246 133.208 180.509 149.521 180.951 149.521C181.83 149.521 181.75 137.245 182.15 128.138C182.549 119.031 182.389 53.2988 180.951 44.5872C179.801 37.618 170.246 40.5148 170.246 40.5148C170.246 40.5148 159.781 39.2021 159.142 44.5872Z" stroke="#223B59" stroke-width="5"/>
</g>
<ellipse cx="97.4175" cy="249.745" rx="66.4209" ry="27.8366" fill="#727272" fill-opacity="0.5"/>
<path d="M189.421 20.4665V17.9665H186.921H169.511H119.139C117.758 17.9665 116.639 16.8472 116.639 15.4665V10.0938C116.639 5.95164 113.281 2.59376 109.139 2.59381L86.2444 2.59411C82.1023 2.59416 78.7445 5.952 78.7445 10.0941V15.4665C78.7445 16.8472 77.6252 17.9665 76.2445 17.9665H10.9858C6.84371 17.9665 3.48584 21.3244 3.48584 25.4665V37.9441C3.48584 42.0863 6.84372 45.4441 10.9858 45.4441H76.3709C77.7266 45.4441 78.8353 46.5248 78.87 47.8802L83.9151 244.937C84.0192 249.003 87.3453 252.245 91.4127 252.245H104.091C108.16 252.245 111.487 249.001 111.588 244.933L116.516 47.8816C116.55 46.5257 117.659 45.4441 119.015 45.4441H181.921C186.063 45.4441 189.421 42.0863 189.421 37.9441V20.4665Z" fill="#77684D" stroke="white" stroke-width="5"/>
<g filter="url(#filter2_dd_874_3628)">
<path d="M36.6959 27.4507C33.1929 36.1383 31.4414 120.929 31.0036 162.239C30.7687 180.075 36.6959 196.734 40.6368 196.734C42.5943 196.734 97.5597 170.418 97.5597 170.418C97.5597 170.418 153.81 196.734 156.234 196.734C161.051 196.734 160.613 176.931 162.802 162.239C164.991 147.547 164.116 41.5045 156.234 27.4507C149.929 16.2076 97.5597 20.8809 97.5597 20.8809C97.5597 20.8809 40.1989 18.763 36.6959 27.4507Z" fill="url(#paint2_linear_874_3628)"/>
<path d="M36.6959 27.4507C33.1929 36.1383 31.4414 120.929 31.0036 162.239C30.7687 180.075 36.6959 196.734 40.6368 196.734C42.5943 196.734 97.5597 170.418 97.5597 170.418C97.5597 170.418 153.81 196.734 156.234 196.734C161.051 196.734 160.613 176.931 162.802 162.239C164.991 147.547 164.116 41.5045 156.234 27.4507C149.929 16.2076 97.5597 20.8809 97.5597 20.8809C97.5597 20.8809 40.1989 18.763 36.6959 27.4507Z" stroke="#223B59" stroke-width="5"/>
</g>
<path d="M65.3472 23.7236H131.14L132.049 183.553L97.4707 167.557L65.3472 182.922V23.7236Z" fill="white" fill-opacity="0.5"/>
<circle cx="98.698" cy="97.2656" r="49.2969" stroke="white" stroke-opacity="0.75" stroke-width="8"/>
<circle cx="98.698" cy="97.2654" r="39.2375" fill="#FFE665"/>
<defs>
<filter id="filter0_dd_874_3628" x="12.1116" y="34.918" width="29.2366" height="119.603" filterUnits="userSpaceOnUse" color-interpolation-filters="sRGB">
<feFlood flood-opacity="0" result="BackgroundImageFix"/>
<feColorMatrix in="SourceAlpha" type="matrix" values="0 0 0 0 0 0 0 0 0 0 0 0 0 0 0 0 0 0 127 0" result="hardAlpha"/>
<feOffset dy="2.5"/>
<feComposite in2="hardAlpha" operator="out"/>
<feColorMatrix type="matrix" values="0 0 0 0 1 0 0 0 0 1 0 0 0 0 1 0 0 0 1 0"/>
<feBlend mode="normal" in2="BackgroundImageFix" result="effect1_dropShadow_874_3628"/>
<feColorMatrix in="SourceAlpha" type="matrix" values="0 0 0 0 0 0 0 0 0 0 0 0 0 0 0 0 0 0 127 0" result="hardAlpha"/>
<feOffset dy="-2.5"/>
<feComposite in2="hardAlpha" operator="out"/>
<feColorMatrix type="matrix" values="0 0 0 0 1 0 0 0 0 1 0 0 0 0 1 0 0 0 1 0"/>
<feBlend mode="normal" in2="effect1_dropShadow_874_3628" result="effect2_dropShadow_874_3628"/>
<feBlend mode="normal" in="SourceGraphic" in2="effect2_dropShadow_874_3628" result="shape"/>
</filter>
<filter id="filter1_dd_874_3628" x="155.602" y="34.918" width="29.2366" height="119.603" filterUnits="userSpaceOnUse" color-interpolation-filters="sRGB">
<feFlood flood-opacity="0" result="BackgroundImageFix"/>
<feColorMatrix in="SourceAlpha" type="matrix" values="0 0 0 0 0 0 0 0 0 0 0 0 0 0 0 0 0 0 127 0" result="hardAlpha"/>
<feOffset dy="2.5"/>
<feComposite in2="hardAlpha" operator="out"/>
<feColorMatrix type="matrix" values="0 0 0 0 1 0 0 0 0 1 0 0 0 0 1 0 0 0 1 0"/>
<feBlend mode="normal" in2="BackgroundImageFix" result="effect1_dropShadow_874_3628"/>
<feColorMatrix in="SourceAlpha" type="matrix" values="0 0 0 0 0 0 0 0 0 0 0 0 0 0 0 0 0 0 127 0" result="hardAlpha"/>
<feOffset dy="-2.5"/>
<feComposite in2="hardAlpha" operator="out"/>
<feColorMatrix type="matrix" values="0 0 0 0 1 0 0 0 0 1 0 0 0 0 1 0 0 0 1 0"/>
<feBlend mode="normal" in2="effect1_dropShadow_874_3628" result="effect2_dropShadow_874_3628"/>
<feBlend mode="normal" in="SourceGraphic" in2="effect2_dropShadow_874_3628" result="shape"/>
</filter>
<filter id="filter2_dd_874_3628" x="28.4968" y="14.918" width="137.842" height="186.816" filterUnits="userSpaceOnUse" color-interpolation-filters="sRGB">
<feFlood flood-opacity="0" result="BackgroundImageFix"/>
<feColorMatrix in="SourceAlpha" type="matrix" values="0 0 0 0 0 0 0 0 0 0 0 0 0 0 0 0 0 0 127 0" result="hardAlpha"/>
<feOffset dy="2.5"/>
<feComposite in2="hardAlpha" operator="out"/>
<feColorMatrix type="matrix" values="0 0 0 0 1 0 0 0 0 1 0 0 0 0 1 0 0 0 1 0"/>
<feBlend mode="normal" in2="BackgroundImageFix" result="effect1_dropShadow_874_3628"/>
<feColorMatrix in="SourceAlpha" type="matrix" values="0 0 0 0 0 0 0 0 0 0 0 0 0 0 0 0 0 0 127 0" result="hardAlpha"/>
<feOffset dy="-2.5"/>
<feComposite in2="hardAlpha" operator="out"/>
<feColorMatrix type="matrix" values="0 0 0 0 1 0 0 0 0 1 0 0 0 0 1 0 0 0 1 0"/>
<feBlend mode="normal" in2="effect1_dropShadow_874_3628" result="effect2_dropShadow_874_3628"/>
<feBlend mode="normal" in="SourceGraphic" in2="effect2_dropShadow_874_3628" result="shape"/>
</filter>
<linearGradient id="paint0_linear_874_3628" x1="26.7299" y1="149.521" x2="26.7299" y2="14.8892" gradientUnits="userSpaceOnUse">
<stop stop-color="#BA203C"/>
<stop offset="0.43" stop-color="#FF5F7C"/>
<stop offset="1" stop-color="#E05031"/>
</linearGradient>
<linearGradient id="paint1_linear_874_3628" x1="170.221" y1="149.521" x2="170.221" y2="14.8892" gradientUnits="userSpaceOnUse">
<stop stop-color="#BA203C"/>
<stop offset="0.43" stop-color="#FF5F7C"/>
<stop offset="1" stop-color="#E05031"/>
</linearGradient>
<linearGradient id="paint2_linear_874_3628" x1="97.4176" y1="196.734" x2="97.4176" y2="-20.4597" gradientUnits="userSpaceOnUse">
<stop stop-color="#BA203C"/>
<stop offset="0.43" stop-color="#FF5F7C"/>
<stop offset="1" stop-color="#E05031"/>
</linearGradient>
</defs>
</svg>
