<svg width="248" height="317" viewBox="0 0 248 317" fill="none" xmlns="http://www.w3.org/2000/svg">
<path d="M20.3062 61.6995L125.146 5.2749L230.677 61.6995" stroke="#C9AF54" stroke-width="4"/>
<circle cx="228.163" cy="74.5952" r="16.6074" fill="url(#paint0_linear_1068_4943)"/>
<circle cx="228.163" cy="74.5952" r="16.6074" stroke="white" stroke-width="5"/>
<circle cx="228.163" cy="74.5952" r="16.6074" stroke="#223B59" stroke-width="5"/>
<circle cx="19.1626" cy="74.5952" r="16.6074" fill="#D9D9D9"/>
<circle cx="19.1626" cy="74.5952" r="16.6074" fill="url(#paint1_linear_1068_4943)"/>
<circle cx="19.1626" cy="74.5952" r="16.6074" stroke="white" stroke-width="5"/>
<circle cx="19.1626" cy="74.5952" r="16.6074" stroke="#223B59" stroke-width="5"/>
<ellipse cx="123.667" cy="280.745" rx="66.4209" ry="27.8366" fill="#727272" fill-opacity="0.5"/>
<path d="M215.671 62.8731V60.3731H213.171H195.761H144.647C143.42 60.3731 142.374 59.4826 142.179 58.2713L134.244 9.08064C133.658 5.44644 130.52 2.77492 126.839 2.77504L122.296 2.77518C118.68 2.77529 115.578 5.35626 114.921 8.91261L105.792 58.3273C105.573 59.5128 104.539 60.3731 103.334 60.3731H37.2358C33.0937 60.3731 29.7358 63.731 29.7358 67.8731V79.2325C29.7358 83.3746 33.0937 86.7325 37.2358 86.7325H102.627C103.982 86.7325 105.09 87.8112 105.126 89.1651L110.159 275.947C110.268 280.009 113.593 283.245 117.656 283.245H130.347C134.412 283.245 137.738 280.006 137.845 275.942L142.76 89.1667C142.795 87.8121 143.904 86.7325 145.259 86.7325H208.171C212.313 86.7325 215.671 83.3746 215.671 79.2325V62.8731Z" fill="#77684D" stroke="white" stroke-width="5"/>
<path d="M111.525 224.199H136.333V255.015L111.525 246.297V224.199Z" fill="#5C4F37"/>
<g filter="url(#filter0_dd_1068_4943)">
<path d="M49.9576 217.174C47.6625 209.091 46.289 119.244 45.7787 84.6824C45.5048 69.7604 52.4141 55.8223 57.0079 55.8223C58.3547 55.8223 55.6542 63.4919 71.6004 69.7778C82.6722 74.1422 89.6834 55.8223 123.362 55.8223C155.084 55.8223 165.508 73.9382 177.084 69.4199C193.009 63.2047 190.122 55.8223 191.759 55.8223C197.373 55.8223 196.863 72.3902 199.415 84.6824C201.967 96.9746 197.131 203.062 191.759 217.174C187.551 228.226 166.441 245.906 166.441 245.906C152.662 236.199 123.362 220.388 123.362 220.388C123.362 220.388 94.7558 236.256 79.9663 245.906C79.9663 245.906 54.1042 231.778 49.9576 217.174Z" fill="url(#paint2_linear_1068_4943)"/>
<path d="M49.9576 217.174C47.6625 209.091 46.289 119.244 45.7787 84.6824C45.5048 69.7604 52.4141 55.8223 57.0079 55.8223C58.3547 55.8223 55.6542 63.4919 71.6004 69.7778C82.6722 74.1422 89.6834 55.8223 123.362 55.8223C155.084 55.8223 165.508 73.9382 177.084 69.4199C193.009 63.2047 190.122 55.8223 191.759 55.8223C197.373 55.8223 196.863 72.3902 199.415 84.6824C201.967 96.9746 197.131 203.062 191.759 217.174C187.551 228.226 166.441 245.906 166.441 245.906C152.662 236.199 123.362 220.388 123.362 220.388C123.362 220.388 94.7558 236.256 79.9663 245.906C79.9663 245.906 54.1042 231.778 49.9576 217.174Z" stroke="#223B59" stroke-width="5"/>
</g>
<path d="M96.0443 160.166C96.5346 159.682 97.2087 159.4 97.9237 159.4H162.762C163.947 159.4 164.539 160.81 163.702 161.635L150.893 174.26C150.403 174.743 149.729 175.025 149.014 175.025H84.1757C82.9909 175.025 82.3985 173.616 83.236 172.79L96.0443 160.166Z" fill="url(#paint3_linear_1068_4943)"/>
<path d="M96.0443 110.166C96.555 109.682 97.2291 109.4 97.9237 109.4H162.762C163.947 109.4 164.539 110.81 163.702 111.635L150.893 124.26C150.403 124.743 149.729 125.025 149.014 125.025H84.1757C82.9909 125.025 82.3985 123.616 83.236 122.79L96.0443 110.166Z" fill="url(#paint4_linear_1068_4943)"/>
<path d="M150.893 135.166C150.403 134.682 149.729 134.4 149.014 134.4H84.1757C82.9909 134.4 82.3985 135.81 83.236 136.635L96.0443 149.26C96.5346 149.743 97.2087 150.025 97.9237 150.025H162.762C163.947 150.025 164.539 148.616 163.702 147.79L150.893 135.166Z" fill="url(#paint5_linear_1068_4943)"/>
<path d="M43.9331 130.71L203.473 85.0595L203.473 120.12L45.3452 164.123L43.9331 130.71Z" fill="white" fill-opacity="0.15"/>
<path d="M43.9329 187.64L203.473 141.99L203.473 151.05L45.345 195.053L43.9329 187.64Z" fill="white" fill-opacity="0.15"/>
<defs>
<filter id="filter0_dd_1068_4943" x="43.2708" y="50.8223" width="159.346" height="200.734" filterUnits="userSpaceOnUse" color-interpolation-filters="sRGB">
<feFlood flood-opacity="0" result="BackgroundImageFix"/>
<feColorMatrix in="SourceAlpha" type="matrix" values="0 0 0 0 0 0 0 0 0 0 0 0 0 0 0 0 0 0 127 0" result="hardAlpha"/>
<feOffset dy="2.5"/>
<feComposite in2="hardAlpha" operator="out"/>
<feColorMatrix type="matrix" values="0 0 0 0 1 0 0 0 0 1 0 0 0 0 1 0 0 0 1 0"/>
<feBlend mode="normal" in2="BackgroundImageFix" result="effect1_dropShadow_1068_4943"/>
<feColorMatrix in="SourceAlpha" type="matrix" values="0 0 0 0 0 0 0 0 0 0 0 0 0 0 0 0 0 0 127 0" result="hardAlpha"/>
<feOffset dy="-2.5"/>
<feComposite in2="hardAlpha" operator="out"/>
<feColorMatrix type="matrix" values="0 0 0 0 1 0 0 0 0 1 0 0 0 0 1 0 0 0 1 0"/>
<feBlend mode="normal" in2="effect1_dropShadow_1068_4943" result="effect2_dropShadow_1068_4943"/>
<feBlend mode="normal" in="SourceGraphic" in2="effect2_dropShadow_1068_4943" result="shape"/>
</filter>
<linearGradient id="paint0_linear_1068_4943" x1="210.551" y1="64.9759" x2="237.207" y2="89.1131" gradientUnits="userSpaceOnUse">
<stop stop-color="#FFDE6B"/>
<stop offset="0.295" stop-color="#FFFCB1"/>
<stop offset="0.34" stop-color="#FFCF27"/>
<stop offset="0.425" stop-color="#FFEDA4"/>
<stop offset="0.68" stop-color="#FFCA42"/>
<stop offset="0.76" stop-color="#FFF9BD"/>
<stop offset="1" stop-color="#FFF967"/>
</linearGradient>
<linearGradient id="paint1_linear_1068_4943" x1="1.55053" y1="64.9759" x2="28.2067" y2="89.1131" gradientUnits="userSpaceOnUse">
<stop stop-color="#FFDE6B"/>
<stop offset="0.295" stop-color="#FFFCB1"/>
<stop offset="0.34" stop-color="#FFCF27"/>
<stop offset="0.425" stop-color="#FFEDA4"/>
<stop offset="0.68" stop-color="#FFCA42"/>
<stop offset="0.76" stop-color="#FFF9BD"/>
<stop offset="1" stop-color="#FFF967"/>
</linearGradient>
<linearGradient id="paint2_linear_1068_4943" x1="141.354" y1="252.674" x2="89.6295" y2="55.8223" gradientUnits="userSpaceOnUse">
<stop stop-color="#32947F"/>
<stop offset="0.285" stop-color="#286456"/>
<stop offset="0.795" stop-color="#142A4D"/>
<stop offset="1" stop-color="#9421BD"/>
</linearGradient>
<linearGradient id="paint3_linear_1068_4943" x1="156.568" y1="104.722" x2="112.704" y2="189.96" gradientUnits="userSpaceOnUse">
<stop stop-color="#00FFA3"/>
<stop offset="1" stop-color="#DC1FFF"/>
</linearGradient>
<linearGradient id="paint4_linear_1068_4943" x1="136.947" y1="91.7616" x2="93.0828" y2="177" gradientUnits="userSpaceOnUse">
<stop stop-color="#00FFA3"/>
<stop offset="1" stop-color="#DC1FFF"/>
</linearGradient>
<linearGradient id="paint5_linear_1068_4943" x1="146.695" y1="98.3606" x2="102.831" y2="183.599" gradientUnits="userSpaceOnUse">
<stop stop-color="#00FFA3"/>
<stop offset="1" stop-color="#DC1FFF"/>
</linearGradient>
</defs>
</svg>
