<svg width="197" height="279" viewBox="0 0 197 279" fill="none" xmlns="http://www.w3.org/2000/svg">
<ellipse cx="98.2758" cy="244.129" rx="64.7604" ry="27.1407" fill="#727272" fill-opacity="0.5"/>
<path d="M193.989 20.5822V18.1447H191.552H168.567H119.454C118.108 18.1447 117.017 17.0534 117.017 15.7072V10.4688C117.017 6.43019 113.743 3.15626 109.704 3.15631L87.382 3.1566C83.3435 3.15665 80.0696 6.43054 80.0696 10.4691V15.7072C80.0696 17.0534 78.9783 18.1447 77.6321 18.1447H9.875C5.83642 18.1447 2.5625 21.4186 2.5625 25.4572V37.6229C2.5625 41.6615 5.83643 44.9354 9.875 44.9354H77.7553C79.0772 44.9354 80.1582 45.989 80.192 47.3105L85.111 239.441C85.2125 243.406 88.4554 246.566 92.4211 246.566H104.782C108.75 246.566 111.993 243.403 112.092 239.437L116.897 47.312C116.93 45.9899 118.011 44.9354 119.334 44.9354H186.677C190.715 44.9354 193.989 41.6615 193.989 37.6229V20.5822Z" fill="#77684D" stroke="white" stroke-width="4.875"/>
<path d="M88.126 195.362H108.936V221.211L88.126 213.899V195.362Z" fill="#5C4F37"/>
<g filter="url(#filter0_dd_1070_11557)">
<path d="M23.7084 161.699C19.4321 154.429 17.294 83.4787 16.7595 48.9122C16.4727 33.9879 23.7084 20.0475 28.5193 20.0475C30.9089 20.0475 64.2915 15.5034 98.0084 15.5034C132.171 15.5034 166.676 20.0475 169.636 20.0475C175.516 20.0475 174.981 36.618 177.654 48.9122C180.326 61.2063 179.257 149.939 169.636 161.699C161.938 171.106 118.677 192.345 98.0084 201.788C75.0236 191.454 27.9847 168.968 23.7084 161.699Z" fill="url(#paint0_linear_1070_11557)"/>
<path d="M23.7084 161.699C19.4321 154.429 17.294 83.4787 16.7595 48.9122C16.4727 33.9879 23.7084 20.0475 28.5193 20.0475C30.9089 20.0475 64.2915 15.5034 98.0084 15.5034C132.171 15.5034 166.676 20.0475 169.636 20.0475C175.516 20.0475 174.981 36.618 177.654 48.9122C180.326 61.2063 179.257 149.939 169.636 161.699C161.938 171.106 118.677 192.345 98.0084 201.788C75.0236 191.454 27.9847 168.968 23.7084 161.699Z" stroke="#223B59" stroke-width="4.875"/>
</g>
<path fill-rule="evenodd" clip-rule="evenodd" d="M119.908 93.499L119.906 93.5029C123.778 98.3572 126.091 104.505 126.091 111.193C126.091 117.979 123.708 124.211 119.733 129.098L119.39 129.519L119.3 128.984C119.222 128.529 119.132 128.07 119.026 127.607C117.036 118.865 110.554 111.369 99.8837 105.299C92.6785 101.211 88.5542 96.2887 87.4714 90.6964C86.7721 87.0801 87.292 83.4478 88.2967 80.3366C89.3012 77.2265 90.7954 74.6206 92.0648 73.0518L96.2162 67.9755C96.9441 67.0854 98.3064 67.0854 99.0343 67.9755L119.908 93.499ZM126.473 88.428L98.6534 54.409C98.1223 53.7595 97.1278 53.7595 96.5968 54.409L68.7761 88.4265L68.6863 88.5408C63.5668 94.8935 60.5032 102.967 60.5032 111.755C60.5032 132.223 77.1229 148.816 97.6251 148.816C118.128 148.816 134.747 132.223 134.747 111.755C134.747 102.967 131.683 94.8935 126.564 88.5408L126.473 88.428ZM75.4327 93.3893L77.9223 90.3451L77.9974 90.9067C78.057 91.3518 78.1293 91.7991 78.2149 92.2482C79.825 100.696 85.5766 107.74 95.1928 113.195C103.552 117.953 108.418 123.423 109.821 129.423C110.406 131.927 110.51 134.39 110.257 136.544L110.241 136.677L110.12 136.736C106.348 138.579 102.107 139.614 97.6242 139.614C81.9028 139.614 69.1572 126.89 69.1572 111.193C69.1572 104.453 71.5068 98.2609 75.4327 93.3893Z" fill="#CFEAFF"/>
<defs>
<filter id="filter0_dd_1070_11557" x="14.3137" y="10.6284" width="167.043" height="196.273" filterUnits="userSpaceOnUse" color-interpolation-filters="sRGB">
<feFlood flood-opacity="0" result="BackgroundImageFix"/>
<feColorMatrix in="SourceAlpha" type="matrix" values="0 0 0 0 0 0 0 0 0 0 0 0 0 0 0 0 0 0 127 0" result="hardAlpha"/>
<feOffset dy="2.4375"/>
<feComposite in2="hardAlpha" operator="out"/>
<feColorMatrix type="matrix" values="0 0 0 0 1 0 0 0 0 1 0 0 0 0 1 0 0 0 1 0"/>
<feBlend mode="normal" in2="BackgroundImageFix" result="effect1_dropShadow_1070_11557"/>
<feColorMatrix in="SourceAlpha" type="matrix" values="0 0 0 0 0 0 0 0 0 0 0 0 0 0 0 0 0 0 127 0" result="hardAlpha"/>
<feOffset dy="-2.4375"/>
<feComposite in2="hardAlpha" operator="out"/>
<feColorMatrix type="matrix" values="0 0 0 0 1 0 0 0 0 1 0 0 0 0 1 0 0 0 1 0"/>
<feBlend mode="normal" in2="effect1_dropShadow_1070_11557" result="effect2_dropShadow_1070_11557"/>
<feBlend mode="normal" in="SourceGraphic" in2="effect2_dropShadow_1070_11557" result="shape"/>
</filter>
<linearGradient id="paint0_linear_1070_11557" x1="97.8351" y1="20.0475" x2="97.8351" y2="201.788" gradientUnits="userSpaceOnUse">
<stop stop-color="#6588A8"/>
<stop offset="0.184" stop-color="#244F76"/>
<stop offset="0.727751" stop-color="#1A66AD"/>
<stop offset="1" stop-color="#606382"/>
<stop offset="1" stop-color="#4557F7"/>
</linearGradient>
</defs>
</svg>
