<svg width="125" height="124" viewBox="0 0 125 124" fill="none" xmlns="http://www.w3.org/2000/svg">
<g id="Group 149" opacity="0.2">
<g id="Group 148">
<path id="Vector 89" d="M58.6455 70.4912C58.4895 69.1577 59.2357 66.3759 59.6284 65.1518C61.3317 61.619 65.3404 60.731 66.4595 60.8195C67.5787 60.9081 71.1743 60.9435 74.3942 61.1055C77.6141 61.2675 78.9567 63.1199 79.4262 64.1852C79.8957 65.2504 80.8838 68.6037 75.9949 70.9144C71.1061 73.2251 66.1857 77.4093 65.8609 77.8976C65.536 78.386 61.2852 81.9104 58.037 78.9241C55.4385 76.5351 57.36 72.3067 58.6455 70.4912Z" stroke="#BEAFA5"/>
<path id="Vector 85" d="M45.4883 73.494C42.491 69.9197 43.8019 67.0622 44.832 66.0803L45.5837 65.5623C46.5043 65.1011 49.0378 64.9038 51.8078 67.8037C55.2703 71.4285 53.4289 74.0331 52.7938 74.6191C52.1588 75.2052 49.235 77.962 45.4883 73.494Z" stroke="#BEAFA5"/>
<path id="Vector 86" d="M49.1125 61.5727C45.5347 58.5795 46.3241 55.5364 47.1661 54.389L47.8153 53.7472C48.6406 53.1317 51.1002 52.4931 54.336 54.8621C58.3806 57.8234 57.0246 60.7106 56.5022 61.399C55.9797 62.0873 53.5848 65.3142 49.1125 61.5727Z" stroke="#BEAFA5"/>
<path id="Vector 87" d="M58.1579 53.3208C56.3167 49.0348 58.3948 46.6758 59.6641 46.032L60.5331 45.7524C61.5474 45.5758 64.0304 46.1163 65.8482 49.6909C68.1204 54.1592 65.6071 56.1233 64.8302 56.5017C64.0533 56.88 60.4595 58.6783 58.1579 53.3208Z" stroke="#BEAFA5"/>
<path id="Vector 88" d="M71.9851 54.7991C69.2981 50.9859 70.844 48.2485 71.9528 47.3564L72.7453 46.9032C73.7012 46.5209 76.2424 46.5367 78.7595 49.6586C81.9058 53.5611 79.8525 56.0021 79.1706 56.5328C78.4886 57.0635 75.3439 59.5654 71.9851 54.7991Z" stroke="#BEAFA5"/>
</g>
<path id="Vector" d="M92.9742 46.4119C93.0776 46.6137 93.1771 46.8183 93.2805 47.0201C93.3554 47.1288 93.3913 47.2585 93.4501 47.3783C93.5089 47.498 93.5637 47.6206 93.6157 47.7392C93.7151 47.9438 93.8037 48.1499 93.8951 48.36C93.9173 48.3922 93.9394 48.4244 93.9616 48.4566C93.9838 48.4889 94.0282 48.5533 94.0361 48.625C94.257 49.1437 94.463 49.6667 94.6582 50.1913L94.8638 50.7739L105.362 50.6642L106.638 57.634L96.7818 61.2258C96.8014 62.0555 96.7965 62.8841 96.7563 63.7133L96.7514 63.8354L96.7076 64.5128C96.7014 64.6417 96.6872 64.7762 96.6771 64.9079C96.6669 65.0396 96.6595 65.1753 96.6425 65.3058C96.6256 65.5312 96.6019 65.7553 96.5742 65.9822L96.5638 66.0963C96.4667 66.929 96.3409 67.746 96.188 68.5579L105.334 73.6968L102.952 80.3729L92.6217 78.5557C92.2247 79.2805 91.8246 79.9837 91.3555 80.6988L91.2879 80.7988L90.9168 81.3633L90.6913 81.6908L90.4618 82.0212L90.066 82.567L89.9956 82.663C89.496 83.3338 88.9687 83.9644 88.4389 84.6085L93.7944 93.6298L88.3943 98.2178L80.3153 91.465C79.61 91.8976 78.8881 92.306 78.1467 92.6863L78.0501 92.7529L77.5656 92.9976L77.457 93.0725L77.0948 93.2449L76.7367 93.4145L76.1171 93.6871L76.0365 93.7426C75.2696 94.0771 74.4905 94.3824 73.6991 94.6586L73.8116 105.161L66.8391 106.433L63.2439 96.5374L62.6472 96.533C62.067 96.5527 61.5229 96.5299 60.9611 96.5073L60.7765 96.498L60.6829 96.4913C60.4562 96.4812 60.2296 96.4711 60.0043 96.4542L59.6092 96.4237L59.2113 96.3891L59.0768 96.3749L58.5389 96.3181L58.418 96.3064C57.5921 96.2106 56.7683 96.0835 55.9564 95.9306L50.8215 105.074L44.1482 102.696L45.9425 92.3754C45.2159 91.9816 44.5015 91.5595 43.7994 91.1092C43.7659 91.0857 43.7312 91.0641 43.6953 91.0444C43.5076 90.9184 43.3186 90.7993 43.1309 90.6733L42.8006 90.4438L42.4798 90.2195C42.2933 90.0868 42.1069 89.954 41.9244 89.8185C41.8947 89.7946 41.8635 89.7724 41.8312 89.7521C41.1631 89.2566 40.5298 88.7252 39.8897 88.1926L30.8684 93.5481L26.2764 88.1508L33.0161 80.1046C32.5863 79.4033 32.1751 78.6773 31.7908 77.9387C31.7676 77.9092 31.7463 77.8783 31.727 77.8461C31.5994 77.6609 31.5201 77.4425 31.4207 77.2379C31.3458 77.1292 31.3031 76.9983 31.2483 76.8757C31.1935 76.7532 31.1335 76.6402 31.0787 76.5176C30.9861 76.3142 30.8907 76.1069 30.8021 75.9008C30.7799 75.8685 30.7577 75.8363 30.7556 75.7903C30.4229 75.026 30.1163 74.2478 29.8356 73.4556L19.3369 73.5653L18.0609 66.5956L27.9188 62.9969C27.8989 62.1754 27.9074 61.3463 27.9443 60.5094L27.952 60.3913L27.989 59.7127L28.0196 59.3176L28.0541 58.9197C28.0738 58.6984 28.1015 58.4715 28.1252 58.2474C28.1287 58.2094 28.1294 58.1673 28.1369 58.1265C28.2327 57.3005 28.3589 56.4813 28.5155 55.6688L19.3656 50.5328L21.7474 43.8567L32.0817 45.6711C32.471 44.9436 32.8931 44.2293 33.3479 43.528L33.4075 43.4335L33.7866 42.8635L34.0081 42.5387L34.2376 42.2084L34.6333 41.6626L34.705 41.5597C35.2005 40.8917 35.7279 40.2612 36.2605 39.621L30.8947 30.6365L36.2988 26.0458L44.3382 32.7842C45.0436 32.3516 45.7655 31.9432 46.5069 31.563L46.6035 31.4964L47.092 31.2488L47.1966 31.1767L47.5588 31.0043L47.9169 30.8348L48.5378 30.5554L48.6143 30.5026L48.6344 30.4888C49.396 30.1579 50.1684 29.8572 50.9517 29.5866L50.8725 19.1323L57.8422 17.8562L61.4409 27.7141C62.2758 27.685 63.105 27.6935 63.9284 27.7396L64.0193 27.7423L64.7007 27.7834L65.0917 27.8167L65.4936 27.8485L65.6253 27.8587C65.8087 27.8748 65.9839 27.8966 66.166 27.9195L66.2869 27.9312C67.1129 28.027 67.9366 28.154 68.7486 28.307L73.8846 19.1571L80.5567 21.5417L78.7624 31.8622C79.489 32.256 80.2034 32.6781 80.9056 33.1284C80.925 33.1566 80.9713 33.1721 81.0068 33.1892L81.6068 33.5773L81.629 33.6096L81.6484 33.6377C81.7361 33.6961 81.8197 33.7572 81.9102 33.8195C82.0006 33.8818 82.1254 33.9681 82.2378 34.045C82.4215 34.1737 82.6039 34.3093 82.7863 34.4448C82.8058 34.473 82.828 34.5052 82.8824 34.5152C83.5504 35.0107 84.1837 35.5421 84.8211 36.0707L93.865 30.6877L98.4529 36.0877L91.7145 44.1272C92.1431 44.8353 92.5515 45.5572 92.9358 46.2958L92.9742 46.4119ZM57.8562 34.3938L57.2775 34.5016C57.099 34.5356 56.9218 34.5627 56.7501 34.5979L56.6149 34.6257C52.2397 35.5372 48.1429 37.4731 44.6608 40.2745L44.548 40.3521L44.0983 40.7333L43.6859 41.0828L43.5773 41.1577C40.2757 44.1406 37.7224 47.8587 36.124 52.0112L36.0718 52.1422L35.8634 52.7014L35.6854 53.2099L35.64 53.3422C34.2656 57.5759 33.9073 62.0738 34.594 66.4718L34.6179 66.6098C34.6521 66.8059 34.6863 67.002 34.7245 67.1953L34.8207 67.7227C34.8332 67.7671 34.8425 67.8122 34.8486 67.8579C35.7701 72.2206 37.7076 76.3045 40.5036 79.778C40.5254 79.8143 40.5495 79.8493 40.5757 79.8827C40.6894 80.0477 40.8326 80.1866 40.9624 80.3405C41.0923 80.4945 41.1931 80.615 41.3119 80.7528L41.384 80.8575C44.367 84.1757 48.0922 86.7415 52.2557 88.3457L52.3771 88.3927L52.8844 88.5775C53.0725 88.6438 53.2567 88.7128 53.4516 88.7803C53.4738 88.8125 53.5375 88.8102 53.5771 88.8245C57.8156 90.2093 62.321 90.5749 66.7274 89.8918L66.8585 89.8667C67.0426 89.8409 67.2183 89.8029 67.3915 89.7786C67.5647 89.7542 67.7729 89.7117 67.9594 89.6722L68.0906 89.6471C72.4523 88.7274 76.5357 86.7923 80.0094 83.9989L80.1222 83.9213L80.5478 83.5567C80.7048 83.4485 80.8424 83.3121 80.9815 83.1866L81.0942 83.1089C84.4122 80.1319 86.9803 76.4134 88.5895 72.2561L88.6377 72.1279C88.7043 71.9574 88.764 71.7856 88.825 71.607L89.0362 71.0518L89.0776 70.9224C90.4536 66.6875 90.811 62.1877 90.1207 57.7887L90.1025 57.6588C90.0753 57.4816 90.0374 57.3059 90.0062 57.1314C89.9751 56.9569 89.9378 56.7392 89.8968 56.5418C89.8746 56.5096 89.8778 56.454 89.8717 56.4107C88.9522 52.0506 87.0182 47.9687 84.2263 44.4958L84.1431 44.3751C84.0432 44.2301 83.9124 44.1006 83.7937 43.9627C83.6749 43.8249 83.5464 43.6641 83.418 43.521C83.3935 43.4806 83.3666 43.4416 83.3376 43.4042C80.3629 40.0869 76.6467 37.5191 72.4916 35.9102C72.4501 35.891 72.4073 35.8748 72.3634 35.862C72.1765 35.7889 71.9883 35.7226 71.8001 35.6564C71.612 35.5901 71.4674 35.5354 71.2984 35.4796L71.1689 35.4382C66.9319 34.0532 62.4279 33.6866 58.0226 34.3681L57.8562 34.3938Z" stroke="#BEAFA5" stroke-width="1.68" stroke-miterlimit="10"/>
</g>
</svg>
