<svg width="77" height="76" viewBox="0 0 77 76" fill="none" xmlns="http://www.w3.org/2000/svg">
<g id="social" filter="url(#filter0_d_317_2704)">
<path id="Subtract" fill-rule="evenodd" clip-rule="evenodd" d="M64.068 34C64.068 48.3594 52.4274 60 38.068 60C23.7086 60 12.068 48.3594 12.068 34C12.068 19.6406 23.7086 8 38.068 8C52.4274 8 64.068 19.6406 64.068 34ZM38.9996 27.1943C36.4708 28.2462 31.4165 30.4232 23.837 33.7255C22.6062 34.2149 21.9615 34.6938 21.9028 35.162C21.8036 35.9532 22.7945 36.2648 24.1438 36.6891C24.3273 36.7468 24.5175 36.8066 24.7124 36.87C26.04 37.3015 27.8257 37.8063 28.754 37.8264C29.5961 37.8446 30.536 37.4974 31.5736 36.7849C38.6554 32.0045 42.3111 29.5882 42.5406 29.5361C42.7025 29.4994 42.9269 29.4532 43.0789 29.5883C43.2309 29.7234 43.216 29.9793 43.1999 30.048C43.1017 30.4664 39.2122 34.0825 37.1993 35.9538C36.5718 36.5372 36.1267 36.951 36.0358 37.0455C35.8319 37.2572 35.6242 37.4575 35.4245 37.6499C34.1912 38.8388 33.2664 39.7304 35.4757 41.1863C36.5375 41.886 37.3871 42.4646 38.2347 43.0418C39.1603 43.6722 40.0835 44.3009 41.2781 45.0839C41.5824 45.2834 41.8731 45.4906 42.1562 45.6924C43.2334 46.4604 44.2012 47.1504 45.3969 47.0403C46.0916 46.9764 46.8092 46.3231 47.1737 44.3747C48.035 39.7701 49.7281 29.7933 50.1194 25.6821C50.1537 25.3219 50.1105 24.8609 50.0759 24.6585C50.0413 24.4562 49.9689 24.1679 49.7059 23.9544C49.3944 23.7017 48.9135 23.6484 48.6984 23.6522C47.7205 23.6694 46.2201 24.1911 38.9996 27.1943Z" fill="#F36D0B"/>
</g>
<defs>
<filter id="filter0_d_317_2704" x="0.0679932" y="0" width="76" height="76" filterUnits="userSpaceOnUse" color-interpolation-filters="sRGB">
<feFlood flood-opacity="0" result="BackgroundImageFix"/>
<feColorMatrix in="SourceAlpha" type="matrix" values="0 0 0 0 0 0 0 0 0 0 0 0 0 0 0 0 0 0 127 0" result="hardAlpha"/>
<feOffset dy="4"/>
<feGaussianBlur stdDeviation="6"/>
<feComposite in2="hardAlpha" operator="out"/>
<feColorMatrix type="matrix" values="0 0 0 0 0 0 0 0 0 0 0 0 0 0 0 0 0 0 0.1 0"/>
<feBlend mode="normal" in2="BackgroundImageFix" result="effect1_dropShadow_317_2704"/>
<feBlend mode="normal" in="SourceGraphic" in2="effect1_dropShadow_317_2704" result="shape"/>
</filter>
</defs>
</svg>
