<svg width="77" height="76" viewBox="0 0 77 76" fill="none" xmlns="http://www.w3.org/2000/svg">
<g id="social" filter="url(#filter0_d_317_2717)">
<path id="Subtract" fill-rule="evenodd" clip-rule="evenodd" d="M64.0681 34C64.0681 48.3594 52.4275 60 38.0681 60C23.7087 60 12.0681 48.3594 12.0681 34C12.0681 19.6406 23.7087 8 38.0681 8C52.4275 8 64.0681 19.6406 64.0681 34ZM44.5916 27.7882C45.5557 28.5548 46.7562 29.0093 48.0574 29.0093C48.0582 29.0093 48.0673 29.0093 48.0681 29.0085V30.0642V32.9097C46.7954 32.9101 45.5588 32.6472 44.3926 32.1285C43.6427 31.7947 42.944 31.3646 42.305 30.8449L42.3242 39.6034C42.3162 41.5757 41.5761 43.4287 40.2366 44.8245C39.1465 45.9606 37.7652 46.6831 36.2681 46.9169C35.9164 46.9718 35.5583 47 35.1963 47C33.5937 47 32.0721 46.4526 30.8275 45.4428C30.5933 45.2526 30.3693 45.0465 30.156 44.8245C28.7043 43.3118 27.9558 41.2616 28.0818 39.1048C28.178 37.4631 28.8014 35.8974 29.8407 34.6702C31.2158 33.0463 33.1395 32.1449 35.1963 32.1449C35.5583 32.1449 35.9164 32.1735 36.2681 32.2285V33.2806V36.2073C35.9346 36.0913 35.5784 36.0274 35.2074 36.0274C33.3283 36.0274 31.808 37.6438 31.8361 39.6264C31.8539 40.895 32.5112 42.0039 33.4806 42.6151C33.9361 42.9024 34.4602 43.0804 35.0195 43.1128C35.4577 43.1381 35.8785 43.0738 36.2681 42.9381C37.6107 42.4705 38.5792 41.141 38.5792 39.5729L38.5837 33.7078V23H42.3006C42.3041 23.3883 42.3415 23.7671 42.411 24.1343C42.6915 25.6201 43.486 26.9093 44.5916 27.7882ZM48.0681 29.0083C48.0681 29.0084 48.0681 29.0085 48.0681 29.0085V29.0083Z" fill="#F36D0B"/>
</g>
<defs>
<filter id="filter0_d_317_2717" x="0.0681152" y="0" width="76" height="76" filterUnits="userSpaceOnUse" color-interpolation-filters="sRGB">
<feFlood flood-opacity="0" result="BackgroundImageFix"/>
<feColorMatrix in="SourceAlpha" type="matrix" values="0 0 0 0 0 0 0 0 0 0 0 0 0 0 0 0 0 0 127 0" result="hardAlpha"/>
<feOffset dy="4"/>
<feGaussianBlur stdDeviation="6"/>
<feComposite in2="hardAlpha" operator="out"/>
<feColorMatrix type="matrix" values="0 0 0 0 0 0 0 0 0 0 0 0 0 0 0 0 0 0 0.1 0"/>
<feBlend mode="normal" in2="BackgroundImageFix" result="effect1_dropShadow_317_2717"/>
<feBlend mode="normal" in="SourceGraphic" in2="effect1_dropShadow_317_2717" result="shape"/>
</filter>
</defs>
</svg>
