<svg width="77" height="76" viewBox="0 0 77 76" fill="none" xmlns="http://www.w3.org/2000/svg">
<g id="social" filter="url(#filter0_d_317_2712)">
<path id="Subtract" fill-rule="evenodd" clip-rule="evenodd" d="M64.068 34C64.068 48.3594 52.4274 60 38.068 60C23.7086 60 12.068 48.3594 12.068 34C12.068 19.6406 23.7086 8 38.068 8C52.4274 8 64.068 19.6406 64.068 34ZM29.3409 24H46.9984C50.4627 24 53.2711 26.8084 53.2711 30.2728V39.0997C53.2711 42.564 50.4627 45.3724 46.9984 45.3724H29.3409C25.8765 45.3724 23.0681 42.564 23.0681 39.0997V30.2728C23.0681 26.8084 25.8765 24 29.3409 24ZM34.4971 39.0547L42.7561 35.1157C43.0046 34.9972 43.0088 34.6451 42.7633 34.5207L34.5043 30.3354C34.2838 30.2236 34.0229 30.3839 34.0229 30.6312V38.7554C34.0229 38.9992 34.2771 39.1597 34.4971 39.0547Z" fill="#F36D0B"/>
</g>
<defs>
<filter id="filter0_d_317_2712" x="0.0679932" y="0" width="76" height="76" filterUnits="userSpaceOnUse" color-interpolation-filters="sRGB">
<feFlood flood-opacity="0" result="BackgroundImageFix"/>
<feColorMatrix in="SourceAlpha" type="matrix" values="0 0 0 0 0 0 0 0 0 0 0 0 0 0 0 0 0 0 127 0" result="hardAlpha"/>
<feOffset dy="4"/>
<feGaussianBlur stdDeviation="6"/>
<feComposite in2="hardAlpha" operator="out"/>
<feColorMatrix type="matrix" values="0 0 0 0 0 0 0 0 0 0 0 0 0 0 0 0 0 0 0.1 0"/>
<feBlend mode="normal" in2="BackgroundImageFix" result="effect1_dropShadow_317_2712"/>
<feBlend mode="normal" in="SourceGraphic" in2="effect1_dropShadow_317_2712" result="shape"/>
</filter>
</defs>
</svg>
