<svg width="75" height="75" viewBox="0 0 75 75" fill="none" xmlns="http://www.w3.org/2000/svg">
<g id="social" filter="url(#filter0_d_317_2700)">
<path id="Subtract" fill-rule="evenodd" clip-rule="evenodd" d="M62.8 33.4C62.8 47.4281 51.4281 58.8 37.4 58.8C23.372 58.8 12 47.4281 12 33.4C12 19.372 23.372 8 37.4 8C51.4281 8 62.8 19.372 62.8 33.4ZM46.1714 23.7135H43.1739L38.2438 29.9988L33.9447 23.7135H27.7131L35.128 34.4508L28.1075 43.355H31.105L36.5478 36.5023L41.2807 43.355H47.3546L39.6242 32.0502L46.1714 23.7135ZM43.7655 41.3472H42.109L31.2233 25.5903H33.0376L43.7655 41.3472Z" fill="#F36D0B"/>
</g>
<defs>
<filter id="filter0_d_317_2700" x="0" y="0" width="75.068" height="75.0681" filterUnits="userSpaceOnUse" color-interpolation-filters="sRGB">
<feFlood flood-opacity="0" result="BackgroundImageFix"/>
<feColorMatrix in="SourceAlpha" type="matrix" values="0 0 0 0 0 0 0 0 0 0 0 0 0 0 0 0 0 0 127 0" result="hardAlpha"/>
<feOffset dy="4"/>
<feGaussianBlur stdDeviation="6"/>
<feComposite in2="hardAlpha" operator="out"/>
<feColorMatrix type="matrix" values="0 0 0 0 0 0 0 0 0 0 0 0 0 0 0 0 0 0 0.1 0"/>
<feBlend mode="normal" in2="BackgroundImageFix" result="effect1_dropShadow_317_2700"/>
<feBlend mode="normal" in="SourceGraphic" in2="effect1_dropShadow_317_2700" result="shape"/>
</filter>
</defs>
</svg>
