<svg width="77" height="76" viewBox="0 0 77 76" fill="none" xmlns="http://www.w3.org/2000/svg">
<g id="social" filter="url(#filter0_d_317_2708)">
<path id="Subtract" fill-rule="evenodd" clip-rule="evenodd" d="M64.068 34C64.068 48.3594 52.4274 60 38.068 60C23.7086 60 12.068 48.3594 12.068 34C12.068 19.6406 23.7086 8 38.068 8C52.4274 8 64.068 19.6406 64.068 34ZM43.0739 21.0018C45.5197 21.4242 47.8588 22.1616 50.0401 23.1624C50.059 23.1706 50.0752 23.1842 50.0845 23.2031C53.9494 28.8879 55.8582 35.3005 55.1446 42.6828C55.1419 42.7141 55.1258 42.7426 55.1001 42.7616C52.1728 44.9113 49.3371 46.2165 46.5407 47.0815C46.4962 47.0951 46.4477 47.0788 46.4207 47.0408C45.7746 46.1417 45.1877 45.1938 44.6738 44.1984C44.644 44.14 44.671 44.0694 44.7317 44.0463C45.6639 43.6946 46.5502 43.2736 47.4028 42.7752C47.4701 42.7358 47.4742 42.6394 47.4122 42.5932C47.2314 42.4588 47.052 42.3175 46.8806 42.1763C46.8483 42.1506 46.8051 42.1451 46.7687 42.1627C41.2338 44.72 35.1701 44.72 29.5691 42.1627C29.5327 42.1465 29.4895 42.1519 29.4585 42.1777C29.2871 42.3189 29.1077 42.4588 28.9283 42.5933C28.8662 42.6395 28.8716 42.7359 28.939 42.7753C29.7916 43.2641 30.6779 43.6946 31.6087 44.0477C31.6694 44.0708 31.6977 44.1401 31.668 44.1985C31.1649 45.1953 30.5781 46.1432 29.9198 47.0422C29.8915 47.0789 29.8443 47.0951 29.7998 47.0816C27.0169 46.2165 24.1812 44.9114 21.2539 42.7616C21.2296 42.7426 21.2121 42.7127 21.2094 42.6815C20.6131 36.296 21.8286 29.8304 26.2655 23.2018C26.2762 23.1842 26.2924 23.1706 26.3113 23.1624C28.494 22.1602 30.8332 21.4228 33.2775 21.0018C33.322 20.995 33.3665 21.0153 33.3895 21.0547C33.6917 21.5898 34.037 22.2756 34.2704 22.8364C36.847 22.4426 39.464 22.4426 42.0945 22.8364C42.3279 22.2878 42.6611 21.5898 42.962 21.0547C42.9849 21.014 43.0294 20.9936 43.0739 21.0018ZM29.4288 35.344C29.4288 37.2453 30.8183 38.7934 32.5046 38.7934C34.2177 38.7934 35.5803 37.2453 35.5803 35.344C35.6073 33.4563 34.2312 31.8946 32.5046 31.8946C30.7913 31.8946 29.4288 33.4427 29.4288 35.344ZM40.8009 35.344C40.8009 37.2453 42.1903 38.7934 43.8765 38.7934C45.6033 38.7934 46.9523 37.2453 46.9523 35.344C46.9792 33.4563 45.6032 31.8946 43.8765 31.8946C42.1633 31.8946 40.8009 33.4427 40.8009 35.344Z" fill="#F36D0B"/>
</g>
<defs>
<filter id="filter0_d_317_2708" x="0.0679932" y="0" width="76" height="76" filterUnits="userSpaceOnUse" color-interpolation-filters="sRGB">
<feFlood flood-opacity="0" result="BackgroundImageFix"/>
<feColorMatrix in="SourceAlpha" type="matrix" values="0 0 0 0 0 0 0 0 0 0 0 0 0 0 0 0 0 0 127 0" result="hardAlpha"/>
<feOffset dy="4"/>
<feGaussianBlur stdDeviation="6"/>
<feComposite in2="hardAlpha" operator="out"/>
<feColorMatrix type="matrix" values="0 0 0 0 0 0 0 0 0 0 0 0 0 0 0 0 0 0 0.1 0"/>
<feBlend mode="normal" in2="BackgroundImageFix" result="effect1_dropShadow_317_2708"/>
<feBlend mode="normal" in="SourceGraphic" in2="effect1_dropShadow_317_2708" result="shape"/>
</filter>
</defs>
</svg>
