<svg width="74" height="69" viewBox="0 0 74 69" fill="none" xmlns="http://www.w3.org/2000/svg">
<g filter="url(#filter0_d_402_2957)">
<mask id="mask0_402_2957" style="mask-type:luminance" maskUnits="userSpaceOnUse" x="6" y="6" width="58" height="53">
<path d="M47.3401 6.90589L22.8184 7.01119C22.0427 7.01727 21.2818 7.22337 20.6091 7.60954C19.9364 7.99572 19.3747 8.54892 18.9783 9.21565L6.62625 30.61C6.23065 31.2726 6.02529 32.0314 6.03266 32.8031C6.04004 33.5747 6.25987 34.3295 6.66806 34.9844L18.8377 56.2735C19.2372 56.9413 19.8007 57.496 20.4746 57.8851C21.1485 58.2742 21.9106 58.4847 22.6887 58.4968L47.2104 58.3915C47.9825 58.3853 48.7393 58.1753 49.4042 57.7828C50.069 57.3903 50.6185 56.8292 50.997 56.1562L63.3491 34.7618C63.7342 34.0871 63.9358 33.3233 63.9339 32.5464C63.932 31.7696 63.7266 31.0067 63.3381 30.334L51.115 9.014C50.7262 8.36218 50.1726 7.82421 49.51 7.45415C48.8474 7.0841 48.099 6.895 47.3401 6.90589Z" fill="white"/>
</mask>
<g mask="url(#mask0_402_2957)">
<path d="M22.8182 7.01128L47.3399 6.90598C48.1109 6.8996 48.8696 7.09953 49.5373 7.48504C50.205 7.87054 50.7575 8.42759 51.1374 9.09846L63.3606 30.4184C63.749 31.0912 63.9544 31.854 63.9563 32.6309C63.9582 33.4078 63.7566 34.1716 63.3715 34.8463L51.0194 56.2406C50.6409 56.9136 50.0915 57.4747 49.4266 57.8672C48.7617 58.2597 48.005 58.4697 47.2329 58.4759L22.7112 58.5813C21.9331 58.5692 21.1709 58.3586 20.497 57.9695C19.8231 57.5804 19.2597 57.0257 18.8602 56.3579L6.69051 35.0688C6.28231 34.4139 6.06246 33.6592 6.05509 32.8875C6.04771 32.1158 6.25312 31.3571 6.64872 30.6945L19.0008 9.30008C19.3847 8.62088 19.9382 8.05294 20.6073 7.65176C21.2765 7.25057 22.0383 7.02989 22.8182 7.01128Z" fill="url(#paint0_linear_402_2957)"/>
<path d="M22.8182 7.01128L47.3399 6.90598C48.1109 6.8996 48.8696 7.09953 49.5373 7.48504C50.205 7.87054 50.7575 8.42759 51.1374 9.09846L63.3606 30.4184C63.749 31.0912 63.9544 31.854 63.9563 32.6309C63.9582 33.4078 63.7566 34.1716 63.3715 34.8463L51.0194 56.2406C50.6409 56.9136 50.0915 57.4747 49.4266 57.8672C48.7617 58.2597 48.005 58.4697 47.2329 58.4759L22.7112 58.5813C21.9331 58.5692 21.1709 58.3586 20.497 57.9695C19.8231 57.5804 19.2597 57.0257 18.8602 56.3579L6.69051 35.0688C6.28231 34.4139 6.06246 33.6592 6.05509 32.8875C6.04771 32.1158 6.25312 31.3571 6.64872 30.6945L19.0008 9.30008C19.3847 8.62088 19.9382 8.05294 20.6073 7.65176C21.2765 7.25057 22.0383 7.02989 22.8182 7.01128Z" fill="#FF7B1C" fill-opacity="0.29" style="mix-blend-mode:color"/>
<path d="M55.5313 44.226C53.2123 48.267 49.7459 51.5287 45.5712 53.5976C41.3966 55.6665 36.7017 56.4496 32.0816 55.8475C27.4615 55.2454 23.1241 53.2853 19.6192 50.2156C16.1142 47.1459 13.5994 43.1047 12.3935 38.6043C11.1877 34.1039 11.345 29.3468 12.8455 24.9358C14.346 20.5249 17.1223 16.6587 20.8223 13.8272C24.5224 10.9957 28.9798 9.32646 33.6296 9.03088C38.2794 8.73529 42.9123 9.8267 46.9411 12.1669C52.3191 15.2906 56.2416 20.4165 57.8513 26.4239C59.461 32.4314 58.6269 38.8317 55.5313 44.226ZM18.0912 22.6099C16.149 25.9739 15.2479 29.8382 15.502 33.7143C15.756 37.5904 17.1538 41.304 19.5184 44.3857C21.8831 47.4674 25.1085 49.7787 28.7867 51.0273C32.4649 52.2759 36.4308 52.4057 40.1829 51.4003C43.9349 50.395 47.3045 48.2996 49.8657 45.3792C52.4268 42.4587 54.0644 38.8444 54.5715 34.9933C55.0785 31.1421 54.4321 27.2271 52.7141 23.7433C50.9961 20.2595 48.2836 17.3634 44.9196 15.4212C40.4109 12.8558 35.0703 12.1784 30.0639 13.5368C25.0575 14.8952 20.7918 18.1791 18.1981 22.6717L18.0912 22.6099Z" fill="url(#paint1_linear_402_2957)"/>
<path d="M55.2639 44.0716C52.9755 48.0598 49.5545 51.2788 45.4347 53.3207C41.3148 55.3626 36.6815 56.1354 32.122 55.5413C27.5624 54.9472 23.2818 53.0129 19.8228 49.9834C16.3637 46.954 13.8819 42.9658 12.6918 38.5244C11.5018 34.083 11.657 29.3882 13.1379 25.0351C14.6188 20.682 17.3587 16.8665 21.0103 14.0722C24.662 11.2779 29.061 9.63061 33.6498 9.33902C38.2387 9.04743 42.8108 10.1247 46.7867 12.4343C52.0938 15.5171 55.9645 20.5755 57.553 26.5039C59.1415 32.4322 58.3185 38.7483 55.2639 44.0716Z" fill="url(#paint2_linear_402_2957)"/>
<path d="M55.2639 44.0716C52.9755 48.0598 49.5545 51.2788 45.4347 53.3207C41.3148 55.3626 36.6815 56.1354 32.122 55.5413C27.5624 54.9472 23.2818 53.0129 19.8228 49.9834C16.3637 46.954 13.8819 42.9658 12.6918 38.5244C11.5018 34.083 11.657 29.3882 13.1379 25.0351C14.6188 20.682 17.3587 16.8665 21.0103 14.0722C24.662 11.2779 29.061 9.63061 33.6498 9.33902C38.2387 9.04743 42.8108 10.1247 46.7867 12.4343C52.0938 15.5171 55.9645 20.5755 57.553 26.5039C59.1415 32.4322 58.3185 38.7483 55.2639 44.0716Z" fill="#41280B" style="mix-blend-mode:color"/>
</g>
<g filter="url(#filter1_d_402_2957)">
<path fill-rule="evenodd" clip-rule="evenodd" d="M54.8679 32.0664C54.8679 43.0541 45.9606 51.9615 34.9728 51.9615C23.9851 51.9615 15.0778 43.0541 15.0778 32.0664C15.0778 21.0787 23.9851 12.1714 34.9728 12.1714C45.9606 12.1714 54.8679 21.0787 54.8679 32.0664ZM41.8432 24.4792H39.4953L35.6337 29.4023L32.2664 24.4792H27.3854L33.1932 32.8895L27.6943 39.8639H30.0421L34.3053 34.4963L38.0125 39.8639H42.77L36.715 31.0092L41.8432 24.4792ZM39.9587 38.2912H38.6612L30.1348 25.9493H31.5559L39.9587 38.2912Z" fill="#F36D0B"/>
</g>
</g>
<defs>
<filter id="filter0_d_402_2957" x="-2.99033" y="-5.32861" width="80" height="80" filterUnits="userSpaceOnUse" color-interpolation-filters="sRGB">
<feFlood flood-opacity="0" result="BackgroundImageFix"/>
<feColorMatrix in="SourceAlpha" type="matrix" values="0 0 0 0 0 0 0 0 0 0 0 0 0 0 0 0 0 0 127 0" result="hardAlpha"/>
<feOffset dx="2" dy="2"/>
<feGaussianBlur stdDeviation="4"/>
<feComposite in2="hardAlpha" operator="out"/>
<feColorMatrix type="matrix" values="0 0 0 0 0.25 0 0 0 0 0.2385 0 0 0 0 0.225 0 0 0 0.25 0"/>
<feBlend mode="normal" in2="BackgroundImageFix" result="effect1_dropShadow_402_2957"/>
<feBlend mode="normal" in="SourceGraphic" in2="effect1_dropShadow_402_2957" result="shape"/>
</filter>
<filter id="filter1_d_402_2957" x="3.07779" y="4.17139" width="64" height="64" filterUnits="userSpaceOnUse" color-interpolation-filters="sRGB">
<feFlood flood-opacity="0" result="BackgroundImageFix"/>
<feColorMatrix in="SourceAlpha" type="matrix" values="0 0 0 0 0 0 0 0 0 0 0 0 0 0 0 0 0 0 127 0" result="hardAlpha"/>
<feOffset dy="4"/>
<feGaussianBlur stdDeviation="6"/>
<feComposite in2="hardAlpha" operator="out"/>
<feColorMatrix type="matrix" values="0 0 0 0 0 0 0 0 0 0 0 0 0 0 0 0 0 0 0.1 0"/>
<feBlend mode="normal" in2="BackgroundImageFix" result="effect1_dropShadow_402_2957"/>
<feBlend mode="normal" in="SourceGraphic" in2="effect1_dropShadow_402_2957" result="shape"/>
</filter>
<linearGradient id="paint0_linear_402_2957" x1="61.3967" y1="47.1041" x2="8.46524" y2="16.5441" gradientUnits="userSpaceOnUse">
<stop stop-color="#F9F9F9"/>
<stop offset="0.07" stop-color="#E6E6E6"/>
<stop offset="0.13" stop-color="#EFEFEF"/>
<stop offset="0.18" stop-color="#FCFCFC"/>
<stop offset="0.24" stop-color="#EDEDED"/>
<stop offset="0.36" stop-color="#C6C6C6"/>
<stop offset="0.53" stop-color="#888888"/>
<stop offset="0.55" stop-color="#7F7F7F"/>
<stop offset="0.65" stop-color="#868686"/>
<stop offset="0.79" stop-color="#9A9A9A"/>
<stop offset="0.89" stop-color="#ADADAD"/>
</linearGradient>
<linearGradient id="paint1_linear_402_2957" x1="14.8285" y1="20.7262" x2="55.5313" y2="44.226" gradientUnits="userSpaceOnUse">
<stop stop-color="#E6E6E6"/>
<stop offset="0.09" stop-color="#F5F5F5"/>
<stop offset="0.12" stop-color="#FCFCFC"/>
<stop offset="0.2" stop-color="#F7F7F7"/>
<stop offset="0.23" stop-color="#E0E0E0"/>
<stop offset="0.28" stop-color="#A7A7A7"/>
<stop offset="0.31" stop-color="#7F7F7F"/>
<stop offset="0.36" stop-color="#868686"/>
<stop offset="0.42" stop-color="#9A9A9A"/>
<stop offset="0.51" stop-color="#BCBCBC"/>
<stop offset="0.59" stop-color="#E6E6E6"/>
<stop offset="0.8" stop-color="#EFEFEF"/>
<stop offset="0.92" stop-color="#F7F7F7"/>
</linearGradient>
<linearGradient id="paint2_linear_402_2957" x1="8.11905" y1="14.5835" x2="54.1108" y2="43.7234" gradientUnits="userSpaceOnUse">
<stop offset="0.1" stop-color="#7F7F7F"/>
<stop offset="0.2" stop-color="#A5A5A5"/>
<stop offset="0.31" stop-color="#C8C8C8"/>
<stop offset="0.41" stop-color="#E2E2E2"/>
<stop offset="0.5" stop-color="#F2F2F2"/>
<stop offset="0.57" stop-color="#F7F7F7"/>
<stop offset="0.69" stop-color="#F3F3F3"/>
<stop offset="0.82" stop-color="#E6E6E6"/>
<stop offset="0.95" stop-color="#D1D1D1"/>
<stop offset="1" stop-color="#C8C8C8"/>
</linearGradient>
</defs>
</svg>
