<svg width="108" height="101" viewBox="0 0 108 101" fill="none" xmlns="http://www.w3.org/2000/svg">
<g filter="url(#filter0_d_1_1588)">
<mask id="mask0_1_1588" style="mask-type:luminance" maskUnits="userSpaceOnUse" x="6" y="9" width="92" height="82">
<path d="M71.2663 9.7413L32.9511 9.90584C31.7392 9.91534 30.5502 10.2374 29.4991 10.8408C28.448 11.4442 27.5703 12.3085 26.951 13.3503L7.65092 46.779C7.0328 47.8143 6.71192 48.9999 6.72344 50.2056C6.73496 51.4114 7.07845 52.5906 7.71625 53.6139L26.7313 86.8781C27.3556 87.9216 28.2359 88.7883 29.2889 89.3963C30.342 90.0042 31.5328 90.3333 32.7485 90.3522L71.0637 90.1876C72.27 90.1778 73.4525 89.8497 74.4914 89.2364C75.5303 88.6231 76.3888 87.7464 76.9802 86.6949L96.2803 53.2662C96.8821 52.212 97.1971 51.0185 97.1941 49.8046C97.1911 48.5908 96.8702 47.3989 96.2632 46.3477L77.1646 13.0352C76.5571 12.0168 75.6922 11.1762 74.6568 10.598C73.6214 10.0197 72.4521 9.72429 71.2663 9.7413Z" fill="white"/>
</mask>
<g mask="url(#mask0_1_1588)">
<path d="M32.9509 9.90583L71.2661 9.74129C72.4707 9.73133 73.6561 10.0437 74.6994 10.6461C75.7427 11.2484 76.606 12.1188 77.1997 13.167L96.2983 46.4795C96.9053 47.5307 97.2262 48.7226 97.2292 49.9365C97.2322 51.1503 96.9171 52.3438 96.3154 53.398L77.0153 86.8267C76.4239 87.8782 75.5654 88.755 74.5265 89.3683C73.4876 89.9815 72.3052 90.3096 71.0988 90.3194L32.7836 90.4839C31.5679 90.465 30.377 90.136 29.324 89.5281C28.271 88.9201 27.3907 88.0533 26.7664 87.0099L7.75135 53.7457C7.11355 52.7224 6.77002 51.5432 6.7585 50.3374C6.74698 49.1317 7.06793 47.9461 7.68605 46.9108L26.9861 13.4821C27.586 12.4208 28.4509 11.5334 29.4964 10.9066C30.5419 10.2797 31.7322 9.9349 32.9509 9.90583Z" fill="url(#paint0_linear_1_1588)"/>
<path d="M32.9509 9.90583L71.2661 9.74129C72.4707 9.73133 73.6561 10.0437 74.6994 10.6461C75.7427 11.2484 76.606 12.1188 77.1997 13.167L96.2983 46.4795C96.9053 47.5307 97.2262 48.7226 97.2292 49.9365C97.2322 51.1503 96.9171 52.3438 96.3154 53.398L77.0153 86.8267C76.4239 87.8782 75.5654 88.755 74.5265 89.3683C73.4876 89.9815 72.3052 90.3096 71.0988 90.3194L32.7836 90.4839C31.5679 90.465 30.377 90.136 29.324 89.5281C28.271 88.9201 27.3907 88.0533 26.7664 87.0099L7.75135 53.7457C7.11355 52.7224 6.77002 51.5432 6.7585 50.3374C6.74698 49.1317 7.06793 47.9461 7.68605 46.9108L26.9861 13.4821C27.586 12.4208 28.4509 11.5334 29.4964 10.9066C30.5419 10.2797 31.7322 9.9349 32.9509 9.90583Z" fill="#FF7B1C" fill-opacity="0.29" style="mix-blend-mode:color"/>
<path d="M84.0651 68.0542C80.4417 74.3683 75.0253 79.4646 68.5025 82.6973C61.9796 85.93 54.6439 87.1535 47.425 86.2127C40.206 85.272 33.4289 82.2093 27.9524 77.4129C22.4758 72.6165 18.5465 66.3022 16.6623 59.2703C14.7781 52.2384 15.0239 44.8054 17.3685 37.9133C19.7131 31.0212 24.0509 24.9803 29.8323 20.5561C35.6137 16.1319 42.5784 13.5236 49.8437 13.0618C57.109 12.5999 64.3479 14.3053 70.6429 17.9618C79.046 22.8427 85.1749 30.8518 87.6901 40.2384C90.2052 49.6251 88.9019 59.6256 84.0651 68.0542ZM25.5649 34.279C22.5302 39.5352 21.1223 45.5733 21.5192 51.6296C21.9162 57.686 24.1002 63.4886 27.795 68.3037C31.4898 73.1188 36.5294 76.7302 42.2766 78.6811C48.0239 80.6321 54.2206 80.8349 60.0831 79.264C65.9457 77.6932 71.2107 74.4192 75.2125 69.856C79.2143 65.2928 81.7731 59.6455 82.5653 53.6281C83.3575 47.6106 82.3476 41.4934 79.6632 36.05C76.9788 30.6066 72.7405 26.0814 67.4843 23.0467C60.4394 19.0383 52.0948 17.9798 44.2723 20.1023C36.4497 22.2248 29.7846 27.3559 25.732 34.3755L25.5649 34.279Z" fill="url(#paint1_linear_1_1588)"/>
<path d="M83.6473 67.8128C80.0715 74.0443 74.7264 79.074 68.2891 82.2645C61.8518 85.4549 54.6123 86.6625 47.488 85.7342C40.3637 84.8059 33.6753 81.7835 28.2705 77.05C22.8657 72.3165 18.9879 66.085 17.1284 59.1453C15.2689 52.2055 15.5115 44.87 17.8254 38.0683C20.1393 31.2666 24.4204 25.3048 30.1261 20.9387C35.8317 16.5726 42.7052 13.9987 49.8752 13.5431C57.0453 13.0875 64.1892 14.7707 70.4017 18.3795C78.6939 23.1964 84.742 31.1002 87.224 40.3632C89.706 49.6262 88.4201 59.4951 83.6473 67.8128Z" fill="url(#paint2_linear_1_1588)"/>
<path d="M83.6473 67.8128C80.0715 74.0443 74.7264 79.074 68.2891 82.2645C61.8518 85.4549 54.6123 86.6625 47.488 85.7342C40.3637 84.8059 33.6753 81.7835 28.2705 77.05C22.8657 72.3165 18.9879 66.085 17.1284 59.1453C15.2689 52.2055 15.5115 44.87 17.8254 38.0683C20.1393 31.2666 24.4204 25.3048 30.1261 20.9387C35.8317 16.5726 42.7052 13.9987 49.8752 13.5431C57.0453 13.0875 64.1892 14.7707 70.4017 18.3795C78.6939 23.1964 84.742 31.1002 87.224 40.3632C89.706 49.6262 88.4201 59.4951 83.6473 67.8128Z" fill="#41280B" style="mix-blend-mode:color"/>
</g>
<g filter="url(#filter1_d_1_1588)">
<path fill-rule="evenodd" clip-rule="evenodd" d="M77.5834 49.534C77.5834 63.6361 66.1514 75.068 52.0494 75.068C37.9474 75.068 26.5154 63.6361 26.5154 49.534C26.5154 35.432 37.9474 24 52.0494 24C66.1514 24 77.5834 35.432 77.5834 49.534ZM43.4787 39.7132H60.8197C64.222 39.7132 66.9801 42.4713 66.9801 45.8736V54.5423C66.9801 57.9446 64.222 60.7026 60.8197 60.7026H43.4787C40.0764 60.7026 37.3183 57.9446 37.3183 54.5423V45.8736C37.3183 42.4713 40.0764 39.7132 43.4787 39.7132ZM48.5425 54.4981L56.6535 50.6297C56.8975 50.5134 56.9017 50.1675 56.6605 50.0454L48.5496 45.9351C48.333 45.8253 48.0768 45.9827 48.0768 46.2256V54.2042C48.0768 54.4436 48.3264 54.6012 48.5425 54.4981Z" fill="#F36D0B"/>
</g>
</g>
<defs>
<filter id="filter0_d_1_1588" x="-4" y="-6" width="116" height="116" filterUnits="userSpaceOnUse" color-interpolation-filters="sRGB">
<feFlood flood-opacity="0" result="BackgroundImageFix"/>
<feColorMatrix in="SourceAlpha" type="matrix" values="0 0 0 0 0 0 0 0 0 0 0 0 0 0 0 0 0 0 127 0" result="hardAlpha"/>
<feOffset dx="2" dy="2"/>
<feGaussianBlur stdDeviation="4"/>
<feComposite in2="hardAlpha" operator="out"/>
<feColorMatrix type="matrix" values="0 0 0 0 0.25 0 0 0 0 0.2385 0 0 0 0 0.225 0 0 0 0.25 0"/>
<feBlend mode="normal" in2="BackgroundImageFix" result="effect1_dropShadow_1_1588"/>
<feBlend mode="normal" in="SourceGraphic" in2="effect1_dropShadow_1_1588" result="shape"/>
</filter>
<filter id="filter1_d_1_1588" x="14.5154" y="16" width="75.0681" height="75.0679" filterUnits="userSpaceOnUse" color-interpolation-filters="sRGB">
<feFlood flood-opacity="0" result="BackgroundImageFix"/>
<feColorMatrix in="SourceAlpha" type="matrix" values="0 0 0 0 0 0 0 0 0 0 0 0 0 0 0 0 0 0 127 0" result="hardAlpha"/>
<feOffset dy="4"/>
<feGaussianBlur stdDeviation="6"/>
<feComposite in2="hardAlpha" operator="out"/>
<feColorMatrix type="matrix" values="0 0 0 0 0 0 0 0 0 0 0 0 0 0 0 0 0 0 0.1 0"/>
<feBlend mode="normal" in2="BackgroundImageFix" result="effect1_dropShadow_1_1588"/>
<feBlend mode="normal" in="SourceGraphic" in2="effect1_dropShadow_1_1588" result="shape"/>
</filter>
<linearGradient id="paint0_linear_1_1588" x1="93.2298" y1="72.5509" x2="10.5244" y2="24.8009" gradientUnits="userSpaceOnUse">
<stop stop-color="#F9F9F9"/>
<stop offset="0.07" stop-color="#E6E6E6"/>
<stop offset="0.13" stop-color="#EFEFEF"/>
<stop offset="0.18" stop-color="#FCFCFC"/>
<stop offset="0.24" stop-color="#EDEDED"/>
<stop offset="0.36" stop-color="#C6C6C6"/>
<stop offset="0.53" stop-color="#888888"/>
<stop offset="0.55" stop-color="#7F7F7F"/>
<stop offset="0.65" stop-color="#868686"/>
<stop offset="0.79" stop-color="#9A9A9A"/>
<stop offset="0.89" stop-color="#ADADAD"/>
</linearGradient>
<linearGradient id="paint1_linear_1_1588" x1="20.467" y1="31.3357" x2="84.0651" y2="68.0542" gradientUnits="userSpaceOnUse">
<stop stop-color="#E6E6E6"/>
<stop offset="0.09" stop-color="#F5F5F5"/>
<stop offset="0.12" stop-color="#FCFCFC"/>
<stop offset="0.2" stop-color="#F7F7F7"/>
<stop offset="0.23" stop-color="#E0E0E0"/>
<stop offset="0.28" stop-color="#A7A7A7"/>
<stop offset="0.31" stop-color="#7F7F7F"/>
<stop offset="0.36" stop-color="#868686"/>
<stop offset="0.42" stop-color="#9A9A9A"/>
<stop offset="0.51" stop-color="#BCBCBC"/>
<stop offset="0.59" stop-color="#E6E6E6"/>
<stop offset="0.8" stop-color="#EFEFEF"/>
<stop offset="0.92" stop-color="#F7F7F7"/>
</linearGradient>
<linearGradient id="paint2_linear_1_1588" x1="9.98342" y1="21.7376" x2="81.8456" y2="67.2687" gradientUnits="userSpaceOnUse">
<stop offset="0.1" stop-color="#7F7F7F"/>
<stop offset="0.2" stop-color="#A5A5A5"/>
<stop offset="0.31" stop-color="#C8C8C8"/>
<stop offset="0.41" stop-color="#E2E2E2"/>
<stop offset="0.5" stop-color="#F2F2F2"/>
<stop offset="0.57" stop-color="#F7F7F7"/>
<stop offset="0.69" stop-color="#F3F3F3"/>
<stop offset="0.82" stop-color="#E6E6E6"/>
<stop offset="0.95" stop-color="#D1D1D1"/>
<stop offset="1" stop-color="#C8C8C8"/>
</linearGradient>
</defs>
</svg>
