<svg width="490" height="420" viewBox="0 0 490 420" fill="none" xmlns="http://www.w3.org/2000/svg">
<path d="M478.526 44.1666C479.398 24.7577 462.663 9.19461 443.368 11.4704L428.503 13.2238C426.336 13.4794 424.149 13.5161 421.975 13.3335L270.565 0.612924C267.656 0.368541 264.727 0.529677 261.863 1.09171L181.014 16.9547C176.151 17.9089 171.134 17.7382 166.346 16.4556L114.247 2.49748C108.778 1.03227 103.016 1.06816 97.5652 2.60138L48.4059 16.4304C43.8038 17.725 38.9275 17.6758 34.3525 16.2884C19.2557 11.7103 3.9137 22.6619 3.33847 38.427L0.72644 110.012C0.57901 114.053 1.21072 118.083 2.58713 121.885L5.81473 130.799C7.3287 134.98 7.96841 139.428 7.69437 143.867L0.500458 260.369L3.79892 369.105C4.21115 382.695 13.2961 394.487 26.3313 398.351L92.2526 417.894C99.4674 420.033 107.209 419.518 114.078 416.443L139.477 405.071C144.891 402.647 150.865 401.751 156.752 402.481L268.318 416.299C272.442 416.809 276.626 416.499 280.629 415.386L309.743 407.289C312.578 406.501 315.507 406.101 318.45 406.101H422.48C424.285 406.101 426.087 405.946 427.865 405.637L455.464 400.849C469.954 398.334 480.776 386.128 481.536 371.441L489.311 221.237C489.435 218.839 489.284 216.433 488.862 214.069L475.141 137.275C474.719 134.908 474.56 132.502 474.667 130.101L478.526 44.1666Z" stroke="#FFFFE3"/>
</svg>
