<svg width="385" height="330" viewBox="0 0 385 330" fill="none" xmlns="http://www.w3.org/2000/svg">
<path d="M375.455 35.1889C376.137 19.9993 363.04 7.81954 347.94 9.60061L336.306 10.9728C334.61 11.1728 332.899 11.2016 331.197 11.0586L212.703 1.10344C210.426 0.912182 208.134 1.03829 205.892 1.47814L142.62 13.8926C138.814 14.6394 134.887 14.5058 131.14 13.5021L90.3672 2.57831C86.0871 1.43162 81.5771 1.45971 77.3117 2.65962L38.8391 13.4824C35.2375 14.4955 31.4213 14.457 27.8409 13.3712C16.026 9.78837 4.0192 18.3591 3.569 30.6971L1.52481 86.7203C1.40942 89.8823 1.90384 93.0369 2.98099 96.0119L5.50696 102.988C6.6918 106.261 7.19244 109.741 6.97797 113.215L1.34796 204.391L3.92935 289.489C4.25198 300.124 11.3619 309.353 21.5634 312.377L73.154 327.671C78.8004 329.345 84.8593 328.942 90.2344 326.536L110.112 317.636C114.349 315.739 119.025 315.038 123.632 315.609L210.944 326.423C214.172 326.822 217.446 326.58 220.579 325.708L243.364 319.372C245.583 318.755 247.875 318.442 250.178 318.442H331.593C333.006 318.442 334.416 318.321 335.807 318.079L357.406 314.331C368.746 312.364 377.216 302.811 377.811 291.316L383.895 173.766C383.992 171.889 383.875 170.006 383.544 168.156L372.806 108.056C372.475 106.204 372.351 104.321 372.435 102.442L375.455 35.1889Z" stroke="#FFFFE3" stroke-width="0.782609"/>
</svg>
