<svg xmlns="http://www.w3.org/2000/svg" width="67" height="68" viewBox="0 0 67 68" fill="none">
  <g opacity="0.2">
    <path d="M31.2003 28.3418C31.8863 28.8757 32.8302 30.4839 33.2164 31.2212C34.0718 33.6119 32.66 35.8643 32.1106 36.3402C31.5613 36.8162 29.9112 38.4584 28.3735 39.8699C26.8357 41.2813 25.3713 41.0589 24.6667 40.7914C23.962 40.5239 21.9665 39.456 23.1221 36.1513C24.2777 32.8466 24.5836 28.6761 24.5059 28.3044C24.4283 27.9327 24.7342 24.3707 27.5874 24.2295C29.87 24.1165 30.9471 26.9239 31.2003 28.3418Z" stroke="url(#paint0_linear_2846_8980)" stroke-width="2.40548"/>
    <path d="M35.7936 20.9091C38.804 21.1508 39.5263 23.0538 39.5111 23.975L39.4085 24.5571C39.2029 25.1912 38.1428 26.4493 35.5467 26.4093C32.3016 26.3592 31.937 24.3265 31.9553 23.7673C31.9735 23.2082 32.0305 20.607 35.7936 20.9091Z" stroke="url(#paint1_linear_2846_8980)" stroke-width="2.40548"/>
    <path d="M39.6451 27.9972C42.6512 27.7071 43.6961 29.4539 43.8427 30.3635L43.8438 30.9546C43.7526 31.6149 42.9296 33.0395 40.3668 33.4554C37.1632 33.9753 36.4477 32.0381 36.3676 31.4844C36.2875 30.9306 35.8874 28.3598 39.6451 27.9972Z" stroke="url(#paint2_linear_2846_8980)" stroke-width="2.40548"/>
    <path d="M39.3411 35.9186C42.1545 37.0168 42.2982 39.0472 42.0184 39.9251L41.7526 40.4529C41.3731 41.001 39.9956 41.9006 37.521 41.1148C34.4278 40.1325 34.6639 38.0809 34.8424 37.5507C35.0209 37.0204 35.8244 34.5459 39.3411 35.9186Z" stroke="url(#paint3_linear_2846_8980)" stroke-width="2.40548"/>
    <path d="M32.3766 41.6243C35.3562 42.1176 35.9163 44.0744 35.824 44.9911L35.6729 45.5625C35.4149 46.1771 34.253 47.342 31.6694 47.0844C28.4399 46.7624 28.2471 44.7063 28.3122 44.1506C28.3773 43.5949 28.6522 41.0077 32.3766 41.6243Z" stroke="url(#paint4_linear_2846_8980)" stroke-width="2.40548"/>
    <path d="M26.7082 55.1159C26.5681 55.0719 26.4285 55.0248 26.2884 54.9808C26.2043 54.9659 26.1282 54.9236 26.0462 54.8963C25.9642 54.869 25.8828 54.8385 25.8045 54.8086C25.665 54.7615 25.5297 54.7087 25.3912 54.6554C25.3663 54.651 25.3413 54.6466 25.3164 54.6422C25.2915 54.6378 25.2416 54.629 25.2049 54.6C24.8653 54.4662 24.5305 54.3236 24.1999 54.1753L23.8377 54.0054L19.1181 58.8974L15.3237 56.3191L18.1456 50.141C17.7541 49.773 17.3742 49.3943 17.01 48.999L16.9559 48.9412L16.6634 48.6133C16.6067 48.5518 16.5511 48.4842 16.495 48.4196C16.4389 48.3551 16.3797 48.29 16.3272 48.2229C16.231 48.1127 16.1384 48 16.0463 47.8841L15.9984 47.8275C15.6584 47.4043 15.3388 46.9751 15.0338 46.5356L8.50811 48.4189L6.51123 44.2869L12.0431 40.3481C11.8892 39.8357 11.7467 39.3316 11.63 38.7904L11.6146 38.7137L11.5228 38.2861L11.4742 38.0333L11.4262 37.7773L11.3542 37.3468L11.3419 37.2707C11.2596 36.7355 11.2083 36.2058 11.152 35.6687L4.55784 34.0398L4.89544 29.4646L11.6807 28.8067C11.8017 28.2848 11.9414 27.7662 12.1028 27.2515L12.116 27.1767L12.2233 26.8421L12.2381 26.7579L12.3232 26.5126L12.4077 26.2703L12.5635 25.8607L12.5745 25.7984C12.7686 25.2926 12.9818 24.7945 13.214 24.3041L8.31892 19.5839L10.9004 15.7901L17.098 18.6283L17.3712 18.3551C17.6257 18.0786 17.8835 17.838 18.1491 17.5891L18.2373 17.5082L18.283 17.4681C18.3906 17.3681 18.4982 17.2682 18.6084 17.1719L18.802 17.0036L18.9987 16.8358L19.0664 16.7802L19.337 16.558L19.3973 16.5075C19.8168 16.1701 20.2497 15.8479 20.6891 15.5429L18.8053 9.0203L22.9341 7.02288L26.8788 12.5397C27.3906 12.3835 27.9099 12.2458 28.4366 12.1266C28.4626 12.1218 28.4884 12.1157 28.5138 12.1081C28.6572 12.0787 28.798 12.0457 28.9414 12.0163L29.1973 11.9683L29.4465 11.9222C29.5925 11.8965 29.7384 11.8709 29.8838 11.8483C29.9084 11.8454 29.9327 11.8411 29.9568 11.8354C30.4889 11.7525 31.0217 11.7018 31.5582 11.6486L33.1872 5.05446L37.7629 5.38893L38.4117 12.1533C38.9304 12.2737 39.4521 12.414 39.9673 12.5723C39.9915 12.575 40.0154 12.5793 40.039 12.585C40.1824 12.6103 40.3192 12.6729 40.4588 12.7201C40.5429 12.7349 40.6227 12.7747 40.7041 12.8051C40.7855 12.8355 40.8649 12.8592 40.9463 12.8896C41.0822 12.9393 41.2212 12.9895 41.3565 13.0423C41.3815 13.0467 41.4064 13.0511 41.4286 13.0711C41.9322 13.2649 42.4305 13.4771 42.9234 13.7075L47.6431 8.81554L51.4374 11.3939L48.618 17.5756C49.006 17.9397 49.3845 18.3204 49.7537 18.7176L49.8047 18.7748L50.1009 19.1002L50.2692 19.2938L50.437 19.4906C50.5302 19.6002 50.6222 19.7161 50.7148 19.8288C50.7308 19.8477 50.7499 19.8671 50.7653 19.8891C51.1027 20.3086 51.4232 20.7391 51.7268 21.1804L58.253 19.294L60.2499 23.426L54.7175 27.3679C54.8761 27.878 55.0138 28.3972 55.1306 28.9257L55.1471 28.9961L55.2377 29.4299L55.2869 29.6796L55.335 29.9356L55.4069 30.3661L55.4218 30.4459C55.5047 30.978 55.5559 31.5077 55.6091 32.0442L62.191 33.6517L61.8529 38.23L55.0921 38.8762C54.9712 39.3981 54.8315 39.9166 54.67 40.4313L54.6568 40.5061L54.549 40.8439L54.5347 40.9249L54.4497 41.1703L54.3652 41.4125L54.212 41.8258L54.2015 41.885L54.1988 41.9006C54.0053 42.4022 53.793 42.8951 53.5619 43.3793L58.4197 48.0929L55.8413 51.8873L49.6596 49.0679C49.2937 49.4662 48.913 49.8448 48.5176 50.2036L48.4751 50.2443L48.1465 50.5399L47.9535 50.7051L47.7562 50.876L47.6916 50.9322C47.6009 51.0094 47.5112 51.0803 47.4179 51.1539L47.3576 51.2043C46.9381 51.5417 46.5052 51.8639 46.0658 52.1689L47.9522 58.6952L43.8208 60.6889L39.8761 55.1721C39.3643 55.3283 38.845 55.466 38.3183 55.5852C38.2965 55.5814 38.2683 55.5957 38.2442 55.6043L37.7926 55.7046L37.7677 55.7003L37.7459 55.6964C37.6791 55.7103 37.6129 55.7212 37.5431 55.7346C37.4732 55.748 37.3768 55.7663 37.2902 55.7832C37.1474 55.8094 37.002 55.832 36.8566 55.8546C36.8348 55.8507 36.8098 55.8463 36.7805 55.8669C36.2484 55.9498 35.7156 56.0005 35.1822 56.0542L33.5556 62.6713L28.9804 62.3337L28.3342 55.573C27.8129 55.4489 27.2944 55.3092 26.7791 55.1509L26.7082 55.1159ZM48.2076 44.3796L48.4208 44.0636C48.4863 43.9659 48.5543 43.8718 48.6161 43.7767L48.6646 43.7017C50.2322 41.2696 51.2008 38.5005 51.4909 35.6216L51.5063 35.5343L51.5349 35.1537L51.5611 34.8047L51.5759 34.7206C51.7003 31.8425 51.1456 28.9755 49.9566 26.3515L49.92 26.2679L49.7567 25.9177L49.603 25.6046L49.5627 25.5235C48.2345 22.966 46.3228 20.757 43.9824 19.0754L43.9079 19.0237C43.8019 18.9504 43.6959 18.8771 43.5894 18.8069L43.3024 18.6116C43.2763 18.5972 43.2512 18.581 43.2274 18.563C40.7965 17.0058 38.0327 16.0438 35.1602 15.7551C35.1335 15.7486 35.1065 15.7439 35.0792 15.7408C34.9514 15.7182 34.8223 15.7212 34.6923 15.7111C34.5623 15.701 34.4609 15.6928 34.3433 15.6849L34.2623 15.6706C31.3765 15.5388 28.5005 16.091 25.8689 17.2824L25.792 17.3171L25.4763 17.4671C25.3602 17.5237 25.2447 17.5773 25.125 17.6366C25.1001 17.6322 25.0722 17.6626 25.0476 17.6743C22.4831 19 20.2673 20.9118 18.5803 23.2545L18.5322 23.3264C18.4606 23.423 18.3982 23.5213 18.3308 23.6123C18.2633 23.7032 18.1883 23.8185 18.1218 23.9225L18.0737 23.9944C16.5161 26.424 15.5532 29.1865 15.2632 32.0579L15.2478 32.1452L15.2226 32.5072C15.2011 32.6287 15.2015 32.7541 15.1962 32.8753L15.1808 32.9626C15.0463 35.8456 15.5944 38.7197 16.7806 41.3508L16.8179 41.4312C16.8663 41.5394 16.9184 41.645 16.973 41.7543L17.1331 42.104L17.174 42.1819C18.502 44.7407 20.415 46.9501 22.7575 48.6305L22.8257 48.6811C22.9198 48.7491 23.0181 48.8115 23.1127 48.8764C23.2073 48.9413 23.3247 49.023 23.4343 49.0938C23.4593 49.0982 23.4835 49.125 23.5062 49.1418C25.9349 50.6988 28.6964 51.6615 31.5666 51.9518L31.6601 51.9683C31.7724 51.9881 31.8915 51.9866 32.0091 51.9945C32.1266 52.0024 32.2592 52.0161 32.3835 52.0219C32.4133 52.029 32.4435 52.0343 32.4739 52.0379C35.3555 52.1732 38.2283 51.626 40.8583 50.4406C40.8861 50.4302 40.913 50.4178 40.9388 50.4034C41.0575 50.3504 41.1735 50.2937 41.2896 50.237C41.4056 50.1804 41.4966 50.1385 41.5991 50.0859L41.677 50.045C44.241 48.7202 46.4565 46.8094 48.1438 44.468L48.2076 44.3796Z" stroke="url(#paint5_linear_2846_8980)" stroke-width="2.40548" stroke-miterlimit="10"/>
  </g>
  <defs>
    <linearGradient id="paint0_linear_2846_8980" x1="22.3132" y1="28.8865" x2="49.1432" y2="36.2809" gradientUnits="userSpaceOnUse">
      <stop stop-color="#BEAFA5" stop-opacity="0"/>
      <stop offset="1" stop-color="#BEAFA5"/>
    </linearGradient>
    <linearGradient id="paint1_linear_2846_8980" x1="22.3132" y1="28.8865" x2="49.1432" y2="36.2809" gradientUnits="userSpaceOnUse">
      <stop stop-color="#BEAFA5" stop-opacity="0"/>
      <stop offset="1" stop-color="#BEAFA5"/>
    </linearGradient>
    <linearGradient id="paint2_linear_2846_8980" x1="22.3132" y1="28.8865" x2="49.1432" y2="36.2809" gradientUnits="userSpaceOnUse">
      <stop stop-color="#BEAFA5" stop-opacity="0"/>
      <stop offset="1" stop-color="#BEAFA5"/>
    </linearGradient>
    <linearGradient id="paint3_linear_2846_8980" x1="22.3132" y1="28.8865" x2="49.1432" y2="36.2809" gradientUnits="userSpaceOnUse">
      <stop stop-color="#BEAFA5" stop-opacity="0"/>
      <stop offset="1" stop-color="#BEAFA5"/>
    </linearGradient>
    <linearGradient id="paint4_linear_2846_8980" x1="22.3132" y1="28.8865" x2="49.1432" y2="36.2809" gradientUnits="userSpaceOnUse">
      <stop stop-color="#BEAFA5" stop-opacity="0"/>
      <stop offset="1" stop-color="#BEAFA5"/>
    </linearGradient>
    <linearGradient id="paint5_linear_2846_8980" x1="61.741" y1="38.8644" x2="29.0829" y2="40.3736" gradientUnits="userSpaceOnUse">
      <stop stop-color="#BEAFA5"/>
      <stop offset="1" stop-color="#BEAFA5" stop-opacity="0"/>
    </linearGradient>
  </defs>
</svg>