<svg xmlns="http://www.w3.org/2000/svg" width="125" height="126" viewBox="0 0 125 126" fill="none">
  <g opacity="0.2">
    <path d="M70.9162 66.493C69.5788 66.6761 66.7679 65.9808 65.5296 65.6103C61.9449 63.9677 60.9733 59.9556 61.0402 58.8289C61.1072 57.7022 61.0719 54.0872 61.1713 50.8473C61.2708 47.6075 63.1064 46.2214 64.1679 45.7284C65.2295 45.2355 68.5808 44.1762 70.9998 49.045C73.4188 53.9137 77.7217 58.7773 78.219 59.0942C78.7163 59.4111 82.3428 63.6146 79.405 66.9386C77.0548 69.5977 72.7665 67.7495 70.9162 66.493Z" stroke="url(#paint0_linear_2846_8973)" stroke-width="2.40548"/>
    <path d="M74.1939 79.6595C70.66 82.7428 67.7618 81.4814 66.7545 80.4652L66.219 79.7198C65.7373 78.8036 65.489 76.2608 68.3494 73.4192C71.9249 69.8673 74.5793 71.6669 75.1809 72.2938C75.7825 72.9206 78.6113 75.8053 74.1939 79.6595Z" stroke="url(#paint1_linear_2846_8973)" stroke-width="2.40548"/>
    <path d="M62.1393 76.2514C59.201 79.9068 56.1265 79.1732 54.9566 78.3495L54.2986 77.7096C53.6637 76.8921 52.9733 74.4323 55.2909 71.133C58.1879 67.009 61.1169 68.3151 61.8191 68.8267C62.5213 69.3383 65.8122 71.6821 62.1393 76.2514Z" stroke="url(#paint2_linear_2846_8973)" stroke-width="2.40548"/>
    <path d="M53.666 67.3214C49.394 69.2567 46.9818 67.2142 46.3097 65.9511L46.0115 65.083C45.814 64.0669 46.3083 61.5603 49.8657 59.6626C54.3125 57.2905 56.3364 59.7782 56.732 60.5518C57.1277 61.3253 59.0061 64.9023 53.666 67.3214Z" stroke="url(#paint3_linear_2846_8973)" stroke-width="2.40548"/>
    <path d="M54.8795 53.3931C51.0995 56.1692 48.3173 54.6692 47.3988 53.5721L46.9277 52.7845C46.5245 51.8311 46.4903 49.2764 49.5789 46.6847C53.4396 43.4451 55.9338 45.461 56.4807 46.136C57.0276 46.8111 59.6046 49.9229 54.8795 53.3931Z" stroke="url(#paint4_linear_2846_8973)" stroke-width="2.40548"/>
    <path d="M46.0347 32.4598C46.2355 32.3519 46.4392 32.2479 46.6401 32.1399C46.7479 32.0625 46.8775 32.0239 46.9967 31.9624C47.116 31.9009 47.2381 31.8435 47.3562 31.7889C47.5599 31.6849 47.7654 31.5918 47.9748 31.4958C48.0068 31.4728 48.0387 31.4499 48.0706 31.427C48.1026 31.404 48.1664 31.3581 48.2384 31.3488C48.7555 31.1165 49.2771 30.8991 49.8005 30.6926L50.3822 30.4744L50.065 19.9233L57.046 18.5033L60.8507 28.3405C61.6843 28.3045 62.5174 28.2931 63.3517 28.3171L63.4745 28.3196L64.1563 28.3503C64.286 28.354 64.4214 28.3656 64.554 28.3733C64.6866 28.3809 64.8232 28.3857 64.9547 28.4002C65.1815 28.4127 65.4073 28.4321 65.6359 28.4555L65.7508 28.4637C66.5898 28.5449 67.4135 28.6552 68.2327 28.793L73.2181 19.4983L79.9758 21.761L78.3528 32.1808C79.0892 32.5656 79.8039 32.954 80.532 33.4114L80.6339 33.4774L81.2085 33.8393L81.5422 34.0595L81.8788 34.2837L82.4353 34.6707L82.5332 34.7396C83.2173 35.2286 83.8616 35.7462 84.5195 36.2661L93.4822 30.705L98.2005 36.0428L91.5718 44.2969C92.0205 44.9973 92.4453 45.715 92.8421 46.4527L92.9109 46.5485L93.1665 47.0307L93.2439 47.1385L93.4243 47.4991L93.6019 47.8558L93.8881 48.4732L93.9455 48.5531C94.2969 49.3174 94.6191 50.0946 94.9123 50.8846L105.467 50.5646L106.883 57.5484L97.0069 61.3572L97.0142 61.9572C97.0455 62.5399 97.0333 63.0874 97.0217 63.6525L97.0159 63.8382L97.011 63.9325C97.0053 64.1605 96.9997 64.3885 96.9871 64.6154L96.9642 65.0131L96.9373 65.4138L96.9257 65.5492L96.8791 66.091L96.8698 66.2128C96.7897 67.0449 96.6783 67.8755 96.5405 68.6947L105.832 73.6761L103.574 80.431L93.1642 78.8307C92.7826 79.5688 92.3724 80.2953 91.9336 81.0099C91.9106 81.0441 91.8895 81.0794 91.8704 81.1158C91.7475 81.307 91.6315 81.4993 91.5086 81.6905L91.2844 82.0271L91.0653 82.3539C90.9355 82.544 90.8057 82.734 90.6731 82.9201C90.6496 82.9505 90.628 82.9822 90.6082 83.0151C90.1232 83.6964 89.6016 84.3435 89.0788 84.9975L94.64 93.9602L89.3051 98.6824L81.0841 92.0662C80.3877 92.5121 79.666 92.9397 78.9311 93.3405C78.9019 93.3644 78.8713 93.3864 78.8393 93.4065C78.6557 93.5384 78.4376 93.6224 78.2339 93.7264C78.1262 93.8038 77.9954 93.8493 77.8733 93.9068C77.7512 93.9643 77.6388 94.0269 77.5166 94.0843C77.3141 94.1814 77.1075 94.2814 76.902 94.3745C76.8701 94.3975 76.8382 94.4204 76.7919 94.4234C76.0302 94.7729 75.254 95.0965 74.4632 95.3942L74.7804 105.945L67.7995 107.365L63.9879 97.5271C63.1625 97.5632 62.3288 97.571 61.4869 97.5505L61.368 97.5451L60.6852 97.5212L60.2874 97.4983L59.8868 97.4714C59.6639 97.456 59.4353 97.4326 59.2095 97.4132C59.1712 97.4105 59.1289 97.4106 59.0878 97.4038C58.2556 97.3238 57.4296 97.2131 56.6099 97.0717L51.6274 106.37L44.8696 104.108L46.4898 93.6839C45.7509 93.3069 45.0245 92.8967 44.3106 92.4533L44.2144 92.3953L43.634 92.0254L43.3032 91.8092L42.9666 91.585L42.4101 91.1979L42.3054 91.128C41.6241 90.643 40.9799 90.1253 40.3259 89.6025L31.4004 95.1733L26.6793 89.8315L33.2944 81.6175C32.8456 80.917 32.4209 80.1993 32.024 79.4616L31.9552 79.3658L31.6967 78.8797L31.6222 78.7759L31.4418 78.4152L31.2642 78.0586L30.9712 77.44L30.9167 77.3641L30.9023 77.3442C30.5548 76.5852 30.2373 75.8146 29.9498 75.0326L19.4426 75.3182L18.0226 68.3373L27.8609 64.5257C27.8152 63.687 27.8074 62.8533 27.8375 62.0247L27.8384 61.9333L27.8663 61.2476L27.8921 60.8538L27.9161 60.4492L27.9238 60.3166C27.9364 60.132 27.9548 59.9554 27.9743 59.7719L27.9837 59.6502C28.0637 58.818 28.1751 57.9875 28.3129 57.1683L19.0142 52.1858L21.2797 45.432L31.6892 47.0322C32.0708 46.2941 32.481 45.5677 32.9198 44.853C32.9478 44.8329 32.9625 44.7861 32.979 44.75L33.3573 44.1393L33.3892 44.1164L33.4172 44.0963C33.4741 44.007 33.5339 43.9217 33.5947 43.8295C33.6556 43.7374 33.7399 43.6103 33.815 43.4958C33.9407 43.3086 34.0734 43.1226 34.206 42.9365C34.234 42.9164 34.2659 42.8935 34.2749 42.8386C34.7599 42.1573 35.2815 41.5102 35.8003 40.8591L30.2111 31.8742L35.5489 27.156L43.7629 33.7711C44.4662 33.3263 45.1839 32.9015 45.9188 32.5007L46.0347 32.4598ZM34.6459 67.9974L34.7658 68.577C34.8034 68.7558 34.8342 68.9334 34.8729 69.1053L34.9036 69.2406C35.906 73.6206 37.9326 77.7006 40.8172 81.1457L40.8976 81.2575L41.2896 81.7021L41.649 82.1096L41.7264 82.2174C44.7899 85.4774 48.5776 87.9707 52.7832 89.4956L52.9159 89.5455L53.4822 89.744L53.9969 89.9129L54.1307 89.9559C58.4136 91.254 62.942 91.5256 67.3493 90.7486L67.4875 90.722C67.684 90.6837 67.8804 90.6455 68.074 90.6032L68.6023 90.4961C68.6466 90.4827 68.6918 90.4725 68.7376 90.4655C73.1049 89.4531 77.1719 87.4252 80.6083 84.5462C80.6444 84.5235 80.6791 84.4986 80.7121 84.4716C80.8758 84.354 81.0125 84.2074 81.1647 84.0738C81.3169 83.9403 81.4361 83.8365 81.5723 83.7145L81.6761 83.6399C84.9528 80.576 87.4586 76.7809 88.9891 72.5641L89.0339 72.4411L89.2097 71.9275C89.2726 71.7371 89.3383 71.5506 89.4024 71.3533C89.4343 71.3304 89.4307 71.2664 89.4443 71.2264C90.7528 66.9385 91.0316 62.4024 90.2581 57.9866L90.2303 57.8552C90.2007 57.6707 90.159 57.4949 90.1312 57.3212C90.1033 57.1476 90.0564 56.9392 90.0131 56.7524L89.9853 56.6211C88.9748 52.2548 86.9492 48.1883 84.0728 44.7515L83.9925 44.6397L83.6177 44.219C83.5058 44.0633 83.3661 43.9277 83.2371 43.7904L83.1568 43.6786C80.0989 40.402 76.3104 37.8938 72.0999 36.3581L71.97 36.3122C71.7973 36.2487 71.6234 36.192 71.4427 36.1342L70.8805 35.9329L70.7495 35.8938C66.4655 34.594 61.9352 34.3234 57.527 35.104L57.3967 35.1249C57.2191 35.1557 57.0432 35.1973 56.8685 35.232C56.6937 35.2668 56.4756 35.3085 56.278 35.3536C56.246 35.3766 56.19 35.3744 56.1466 35.3814C51.782 36.3916 47.717 38.4162 44.281 41.291L44.1612 41.377C44.0175 41.4803 43.8899 41.6143 43.7537 41.7364C43.6174 41.8585 43.4584 41.9909 43.317 42.1227C43.2769 42.1482 43.2382 42.1759 43.2013 42.2059C39.9252 45.2614 37.4173 49.0475 35.8819 53.256C35.8634 53.298 35.848 53.3414 35.836 53.3858C35.7662 53.5751 35.7033 53.7656 35.6404 53.956C35.5775 54.1465 35.5253 54.2929 35.4726 54.4639L35.4335 54.5948C34.1247 58.8812 33.845 63.4158 34.6169 67.8306L34.6459 67.9974Z" stroke="url(#paint5_linear_2846_8973)" stroke-width="2.40548" stroke-miterlimit="10"/>
  </g>
  <defs>
    <linearGradient id="paint0_linear_2846_8973" x1="79.9504" y1="56.026" x2="42.6313" y2="77.8215" gradientUnits="userSpaceOnUse">
      <stop stop-color="#BEAFA5" stop-opacity="0"/>
      <stop offset="1" stop-color="#BEAFA5"/>
    </linearGradient>
    <linearGradient id="paint1_linear_2846_8973" x1="79.9504" y1="56.026" x2="42.6313" y2="77.8215" gradientUnits="userSpaceOnUse">
      <stop stop-color="#BEAFA5" stop-opacity="0"/>
      <stop offset="1" stop-color="#BEAFA5"/>
    </linearGradient>
    <linearGradient id="paint2_linear_2846_8973" x1="79.9504" y1="56.026" x2="42.6313" y2="77.8215" gradientUnits="userSpaceOnUse">
      <stop stop-color="#BEAFA5" stop-opacity="0"/>
      <stop offset="1" stop-color="#BEAFA5"/>
    </linearGradient>
    <linearGradient id="paint3_linear_2846_8973" x1="79.9504" y1="56.026" x2="42.6313" y2="77.8215" gradientUnits="userSpaceOnUse">
      <stop stop-color="#BEAFA5" stop-opacity="0"/>
      <stop offset="1" stop-color="#BEAFA5"/>
    </linearGradient>
    <linearGradient id="paint4_linear_2846_8973" x1="79.9504" y1="56.026" x2="42.6313" y2="77.8215" gradientUnits="userSpaceOnUse">
      <stop stop-color="#BEAFA5" stop-opacity="0"/>
      <stop offset="1" stop-color="#BEAFA5"/>
    </linearGradient>
    <linearGradient id="paint5_linear_2846_8973" x1="26.0957" y1="89.0192" x2="59.8419" y2="51.0894" gradientUnits="userSpaceOnUse">
      <stop stop-color="#BEAFA5"/>
      <stop offset="1" stop-color="#BEAFA5" stop-opacity="0"/>
    </linearGradient>
  </defs>
</svg>