<svg xmlns="http://www.w3.org/2000/svg" width="43" height="39" viewBox="0 0 43 39" fill="none">
  <g opacity="0.2">
    <path d="M16.6101 27.7153C16.5459 26.2172 17.6057 23.1802 18.1436 21.849C20.3311 18.0543 24.8689 17.3946 26.1081 17.5852C27.3474 17.7758 31.3492 18.1108 34.9222 18.5559C38.4952 19.001 39.8384 21.1745 40.2738 22.3996C40.7092 23.6247 41.534 27.4407 35.899 29.6126C30.2639 31.7844 24.4397 36.0403 24.0377 36.5576C23.6358 37.0748 18.6116 40.6509 15.2392 37.0578C12.5413 34.1834 15.029 29.6318 16.6101 27.7153Z" fill="url(#paint0_linear_2846_8978)"/>
    <path d="M1.70892 29.9784C-1.33572 25.7509 0.359239 22.676 1.5873 21.667L2.46711 21.1519C3.53027 20.7139 6.36831 20.7023 9.2152 24.1598C12.7738 28.4817 10.5088 31.2314 9.75332 31.8319C8.99781 32.4324 5.51471 35.2627 1.70892 29.9784Z" fill="url(#paint1_linear_2846_8978)"/>
    <path d="M6.72528 16.9984C2.98634 13.3705 4.11568 10.046 5.14772 8.83725L5.92353 8.17576C6.89339 7.55809 9.68539 7.0489 13.0946 9.95347C17.3561 13.5842 15.6085 16.6885 14.9701 17.4122C14.3316 18.136 11.3989 21.5333 6.72528 16.9984Z" fill="url(#paint2_linear_2846_8978)"/>
    <path d="M17.4783 8.55099C15.7798 3.62594 18.2883 1.16928 19.7549 0.556576L20.7457 0.316555C21.89 0.203229 24.6112 1.00927 26.342 5.14007C28.5056 10.3036 25.5448 12.2846 24.6484 12.6422C23.752 12.9998 19.6015 14.7073 17.4783 8.55099Z" fill="url(#paint3_linear_2846_8978)"/>
    <path d="M32.7573 11.3338C30.0779 6.86598 32.0247 3.94405 33.333 3.04157L34.2529 2.60201C35.3491 2.25472 38.1781 2.48117 40.725 6.16524C43.9087 10.7703 41.4211 13.3204 40.6179 13.8554C39.8147 14.3905 36.1066 16.9187 32.7573 11.3338Z" fill="url(#paint4_linear_2846_8978)"/>
  </g>
  <defs>
    <linearGradient id="paint0_linear_2846_8978" x1="12.4966" y1="-5.50262" x2="31.1645" y2="39.2145" gradientUnits="userSpaceOnUse">
      <stop stop-color="#BEAFA5"/>
      <stop offset="1" stop-color="#BEAFA5" stop-opacity="0"/>
    </linearGradient>
    <linearGradient id="paint1_linear_2846_8978" x1="12.4966" y1="-5.50262" x2="31.1645" y2="39.2145" gradientUnits="userSpaceOnUse">
      <stop stop-color="#BEAFA5"/>
      <stop offset="1" stop-color="#BEAFA5" stop-opacity="0"/>
    </linearGradient>
    <linearGradient id="paint2_linear_2846_8978" x1="12.4966" y1="-5.50262" x2="31.1645" y2="39.2145" gradientUnits="userSpaceOnUse">
      <stop stop-color="#BEAFA5"/>
      <stop offset="1" stop-color="#BEAFA5" stop-opacity="0"/>
    </linearGradient>
    <linearGradient id="paint3_linear_2846_8978" x1="12.4966" y1="-5.50262" x2="31.1645" y2="39.2145" gradientUnits="userSpaceOnUse">
      <stop stop-color="#BEAFA5"/>
      <stop offset="1" stop-color="#BEAFA5" stop-opacity="0"/>
    </linearGradient>
    <linearGradient id="paint4_linear_2846_8978" x1="12.4966" y1="-5.50262" x2="31.1645" y2="39.2145" gradientUnits="userSpaceOnUse">
      <stop stop-color="#BEAFA5"/>
      <stop offset="1" stop-color="#BEAFA5" stop-opacity="0"/>
    </linearGradient>
  </defs>
</svg>