<svg xmlns="http://www.w3.org/2000/svg" width="46" height="39" viewBox="0 0 46 39" fill="none">
  <g opacity="0.2">
    <path d="M12.9626 22.364C13.966 21.2497 16.8495 19.8242 18.1657 19.2507C22.3848 18.0741 26.0859 20.7814 26.837 21.7853C27.588 22.7893 30.2099 25.8311 32.4486 28.6512C34.6872 31.4712 34.1237 33.9634 33.5765 35.1428C33.0293 36.3222 30.9454 39.6238 25.4021 37.2274C19.8588 34.8311 12.7208 33.7899 12.0717 33.8776C11.4226 33.9653 5.33176 32.9991 5.44101 28.0725C5.52841 24.1313 10.4918 22.6246 12.9626 22.364Z" fill="url(#paint0_linear_2846_8979)"/>
    <path d="M0.741397 13.5432C1.5289 8.39334 4.89227 7.38559 6.47551 7.52545L7.46431 7.77393C8.52992 8.2059 10.5638 10.1853 10.1744 14.6471C9.68759 20.2243 6.14513 20.6007 5.18526 20.5002C4.2254 20.3997 -0.242982 19.9805 0.741397 13.5432Z" fill="url(#paint1_linear_2846_8979)"/>
    <path d="M13.4127 7.79149C13.2847 2.58335 16.4191 1.00128 18.0023 0.861264L19.0194 0.932452C20.1443 1.17081 22.4938 2.76277 22.893 7.22369C23.392 12.7999 19.9705 13.7917 19.0079 13.8612C18.0453 13.9306 13.5726 14.3017 13.4127 7.79149Z" fill="url(#paint2_linear_2846_8979)"/>
    <path d="M27.0043 9.29279C29.2412 4.58775 32.7523 4.59106 34.2282 5.18085L35.1036 5.7035C35.9997 6.42399 37.3776 8.90515 35.72 13.0659C33.648 18.2668 30.1472 17.6073 29.2569 17.2347C28.3666 16.8621 24.2082 15.1741 27.0043 9.29279Z" fill="url(#paint3_linear_2846_8979)"/>
    <path d="M35.9613 21.9799C37.1778 16.9142 40.6139 16.1921 42.1798 16.4642L43.1443 16.7947C44.1699 17.3145 46.0307 19.4575 45.2685 23.8709C44.3157 29.3877 40.7542 29.4657 39.8061 29.2851C38.8581 29.1045 34.4406 28.312 35.9613 21.9799Z" fill="url(#paint4_linear_2846_8979)"/>
  </g>
  <defs>
    <linearGradient id="paint0_linear_2846_8979" x1="33.291" y1="-4.22752" x2="15.2979" y2="40.7654" gradientUnits="userSpaceOnUse">
      <stop stop-color="#BEAFA5"/>
      <stop offset="1" stop-color="#BEAFA5" stop-opacity="0"/>
    </linearGradient>
    <linearGradient id="paint1_linear_2846_8979" x1="33.291" y1="-4.22752" x2="15.2979" y2="40.7654" gradientUnits="userSpaceOnUse">
      <stop stop-color="#BEAFA5"/>
      <stop offset="1" stop-color="#BEAFA5" stop-opacity="0"/>
    </linearGradient>
    <linearGradient id="paint2_linear_2846_8979" x1="33.291" y1="-4.22752" x2="15.2979" y2="40.7654" gradientUnits="userSpaceOnUse">
      <stop stop-color="#BEAFA5"/>
      <stop offset="1" stop-color="#BEAFA5" stop-opacity="0"/>
    </linearGradient>
    <linearGradient id="paint3_linear_2846_8979" x1="33.291" y1="-4.22752" x2="15.2979" y2="40.7654" gradientUnits="userSpaceOnUse">
      <stop stop-color="#BEAFA5"/>
      <stop offset="1" stop-color="#BEAFA5" stop-opacity="0"/>
    </linearGradient>
    <linearGradient id="paint4_linear_2846_8979" x1="33.291" y1="-4.22752" x2="15.2979" y2="40.7654" gradientUnits="userSpaceOnUse">
      <stop stop-color="#BEAFA5"/>
      <stop offset="1" stop-color="#BEAFA5" stop-opacity="0"/>
    </linearGradient>
  </defs>
</svg>