<svg xmlns="http://www.w3.org/2000/svg" width="62" height="62" viewBox="0 0 62 62" fill="none">
  <g clip-path="url(#clip0_2846_8925)">
    <path d="M31 61.2405C47.8447 61.2405 61.5 47.5852 61.5 30.7405C61.5 13.8958 47.8447 0.240479 31 0.240479C14.1553 0.240479 0.5 13.8958 0.5 30.7405C0.5 47.5852 14.1553 61.2405 31 61.2405Z" fill="#FABE2C"/>
    <path d="M61.5 30.7405C61.5 13.9614 47.7788 0.240479 31 0.240479V61.2405C47.7788 61.2405 61.5 47.5193 61.5 30.7405Z" fill="#FF9100"/>
    <path d="M31 53.9729C43.8309 53.9729 54.2324 43.5714 54.2324 30.7405C54.2324 17.9096 43.8309 7.50806 31 7.50806C18.1691 7.50806 7.76758 17.9096 7.76758 30.7405C7.76758 43.5714 18.1691 53.9729 31 53.9729Z" fill="#FED843"/>
    <path d="M54.2324 30.7405C54.2324 17.9305 43.81 7.50806 31 7.50806V53.9729C43.81 53.9729 54.2324 43.5505 54.2324 30.7405Z" fill="#FABE2C"/>
    <path d="M46.2971 25.7701C46.0859 25.1225 45.5274 24.6513 44.8538 24.5536L36.3894 23.3233L32.6023 15.653C32.3021 15.0422 31.6512 14.7368 31.0002 14.7368C30.3492 14.7368 29.6983 15.0422 29.3981 15.653L25.611 23.3233L17.1467 24.5536C16.4731 24.6513 15.9145 25.1225 15.7034 25.7683C15.494 26.4158 15.6685 27.126 16.1554 27.6008L22.2812 33.5729L20.8361 42.0042C20.7209 42.6743 20.9967 43.3515 21.5464 43.7511C22.1016 44.1543 22.8324 44.2029 23.4278 43.8873L31.0001 39.9081L38.5727 43.8872C39.173 44.2048 39.906 44.1542 40.454 43.751C41.0038 43.3514 41.2796 42.6742 41.1644 42.0041L39.7175 33.5728L45.845 27.6007C46.332 27.1261 46.5064 26.4158 46.2971 25.7701Z" fill="#FABE2C"/>
    <path d="M40.4538 43.7511C41.0035 43.3515 41.2793 42.6743 41.1641 42.0042L39.7173 33.5729L45.8448 27.6008C46.3317 27.1261 46.5063 26.4158 46.2968 25.7701C46.0857 25.1225 45.5272 24.6513 44.8536 24.5536L36.3892 23.3233L32.6021 15.653C32.3018 15.0422 31.651 14.7368 31 14.7368V39.9081L38.5726 43.8872C39.1728 44.2049 39.9058 44.1543 40.4538 43.7511Z" fill="#FF9100"/>
  </g>
  <defs>
    <clipPath id="clip0_2846_8925">
      <rect width="61" height="61" fill="white" transform="translate(0.5 0.240479)"/>
    </clipPath>
  </defs>
</svg>