<svg width="1050" height="690" viewBox="0 0 1050 690" fill="none" xmlns="http://www.w3.org/2000/svg">
<rect x="25" y="16" width="1000" height="658.247" rx="8" fill="#0A0905"/>
<path d="M992.582 14.9295L913.288 22.0779C911.625 22.2278 909.954 22.2493 908.288 22.1423L573.66 0.654937C571.427 0.511498 569.184 0.606567 566.97 0.938533L377.946 29.2853C374.178 29.8504 370.339 29.7484 366.606 28.984L233.726 1.77396C229.455 0.899284 225.048 0.920892 220.786 1.83741L96.2294 28.6182C91.5553 29.6232 86.717 29.5846 82.0595 28.5051L46.4109 20.2425C27.263 15.8045 8.77161 29.7938 7.83435 49.427L1.4812 182.503C1.23462 187.669 2.26392 192.817 4.47815 197.491L13.6621 216.878C16.1017 222.028 17.1444 227.729 16.6855 233.409L1.10107 426.311L8.69019 617.532C9.25525 631.77 19.3077 643.855 33.2045 647.004L213.33 687.818C219.024 689.108 224.965 688.79 230.489 686.9L310.339 659.576C314.702 658.083 319.333 657.535 323.924 657.97L583.535 682.546C586.717 682.847 589.927 682.662 593.053 681.997L669.478 665.753C671.699 665.281 673.964 665.043 676.235 665.043H910.751L1003.52 652.74C1018.38 650.769 1029.79 638.598 1030.8 623.642L1048.58 361.085C1048.8 357.966 1048.54 354.832 1047.83 351.787L1017.89 223.694C1017.17 220.648 1016.91 217.514 1017.09 214.39L1026.86 48.1498C1027.99 28.9286 1011.76 13.2007 992.582 14.9295Z" stroke="#FFFFE3"/>
</svg>
