<svg width="840" height="616" viewBox="0 0 840 616" fill="none" xmlns="http://www.w3.org/2000/svg">
<rect x="20" y="14.2471" width="800" height="588.247" rx="8" fill="#0A0905"/>
<path d="M786.557 14.1007L731.424 19.6529C729.569 19.8397 727.701 19.8665 725.842 19.7331L459.999 0.66407C457.507 0.485376 455.004 0.603598 452.541 1.01625L304.142 25.8759C299.953 26.5778 295.666 26.4515 291.526 25.5043L189.001 2.05246C184.266 0.969266 179.344 0.995946 174.621 2.13041L79.191 25.0508C74.0135 26.2943 68.6097 26.2467 63.455 24.9121L45.5092 20.2657C26.1008 15.2407 6.9986 29.3851 6.14258 49.4152L1.28943 162.974C1.0896 167.649 1.93378 172.31 3.76062 176.618L10.9503 193.571C12.9614 198.314 13.8165 203.466 13.4449 208.604L0.982239 380.924L6.97955 549.726C7.47681 563.722 17.1542 575.709 30.7305 579.145L167.96 613.879C174.25 615.471 180.877 615.082 186.937 612.766L246.274 590.084C251.057 588.256 256.204 587.583 261.296 588.122L465.309 609.695C468.852 610.07 472.432 609.841 475.898 609.018L534.538 595.095C536.998 594.511 539.518 594.216 542.046 594.216H726.272C727.817 594.216 729.359 594.102 730.888 593.876L797.875 583.952C812.608 581.769 823.8 569.565 824.701 554.698L838.768 322.65C838.938 319.849 838.733 317.038 838.158 314.292L814.218 199.889C813.643 197.141 813.426 194.33 813.574 191.525L821.17 47.0966C822.184 27.814 805.769 12.1659 786.557 14.1007Z" stroke="#FFFFE3"/>
</svg>
