<svg width="402" height="1057" viewBox="0 0 402 1057" fill="none" xmlns="http://www.w3.org/2000/svg">
<rect x="10" y="23" width="382" height="1024.25" rx="8" fill="#0A0905"/>
<path d="M7.39349 347.889L7.3974 347.923L7.39673 347.957L1.17917 661.432L4.3157 983.347C4.40033 992.033 8.06729 1000.3 14.4498 1006.19L59.0168 1047.32C72.9278 1060.16 94.9407 1057.92 105.976 1042.54L106.72 1041.5C115.347 1029.47 131.01 1024.8 144.82 1030.12L207.455 1054.27C218.318 1058.46 230.605 1056.32 239.407 1048.7L248.142 1041.13C254.049 1036.02 261.601 1033.2 269.415 1033.2H340.278C345.506 1033.2 350.651 1031.9 355.25 1029.42L377.019 1017.66C387.036 1012.25 393.354 1001.85 393.543 990.467L400.823 552.585L388.565 338.99L388.564 338.972L388.565 338.954L392.658 55.113C392.93 36.2974 374.25 23.0563 356.586 29.5429C351.253 31.5012 345.448 31.7804 339.952 30.3427L231.336 1.93274C223.054 -0.233285 214.248 1.064 206.944 5.52608L162.484 32.6846C150.602 39.9427 135.417 38.8259 124.725 29.9075L107.942 15.9091C96.0363 5.97842 78.6746 6.1876 67.0115 16.4023L43.8338 36.7015C38.5345 41.3428 30.5751 41.194 25.4529 36.3581C17.4283 28.782 4.22763 34.382 4.0983 45.4171L1.1795 294.458L7.39349 347.889Z" stroke="#FFFFE3"/>
</svg>
