<svg width="404" height="227" viewBox="0 0 404 227" fill="none" xmlns="http://www.w3.org/2000/svg">
<g filter="url(#filter0_dd_1_23)">
<path d="M21.257 5.79541H371.511L388.623 145.291L367.531 192.39L197.785 186.867L189.859 211.448L177.957 186.222L27.3343 194.822L5.87793 180.624L5.87793 43.5321L21.257 5.79541Z" fill="#FFFAE7"/>
<path d="M197.191 186.676L189.75 209.752L178.522 185.956L178.342 185.574L177.921 185.598L27.506 194.186L6.50293 180.288V43.6546L21.6772 6.42041H370.958L387.981 145.194L367.132 191.752L197.806 186.243L197.335 186.227L197.191 186.676Z" stroke="#C8BCA5" stroke-width="1.25"/>
</g>
<g clip-path="url(#clip0_1_23)">
<path d="M313.711 162.642L360.887 159.373L394.169 162.642L401.758 198.77L399.564 214.592L343.532 219.806L308.094 216.884L306.077 175.8L313.711 162.642Z" fill="#353535"/>
<path d="M343.847 216.816L310.096 214.17L308.18 177.039L315.309 165.352L360.664 162.363L392.422 165.33L399.655 198.075L397.616 212.058L343.847 216.816Z" fill="#ED4650" stroke="white" stroke-width="1.25"/>
</g>
<g filter="url(#filter1_d_1_23)">
<mask id="path-5-outside-1_1_23" maskUnits="userSpaceOnUse" x="321" y="175.25" width="62" height="23" fill="black">
<rect fill="white" x="321" y="175.25" width="62" height="23"/>
<path d="M322.328 177.775L327.178 177.475L330.928 195.175L322.978 196.05L322.328 177.775ZM331.333 195.925L334.658 177.7H338.433L341.958 183.5L342.258 177.7L348.058 178.6L346.833 196.15L342.033 195.85L338.333 190.2L337.258 196.175L331.333 195.925ZM349.722 177.6L362.322 177.7L361.622 183.725L354.747 182.95L354.647 184.95L360.472 184.65L359.522 190.15L354.647 189.525L355.697 196.175H349.047L348.522 182.675L349.722 177.6ZM375.878 177.925L381.328 184.7L379.778 193.625L369.903 196.2L362.028 189.25L363.203 181.425L369.078 177.7L375.878 177.925ZM370.553 184.225L369.278 187.075L371.478 188.55L373.803 187.7L373.678 184.925L370.553 184.225Z"/>
</mask>
<path d="M322.328 177.775L327.178 177.475L330.928 195.175L322.978 196.05L322.328 177.775ZM331.333 195.925L334.658 177.7H338.433L341.958 183.5L342.258 177.7L348.058 178.6L346.833 196.15L342.033 195.85L338.333 190.2L337.258 196.175L331.333 195.925ZM349.722 177.6L362.322 177.7L361.622 183.725L354.747 182.95L354.647 184.95L360.472 184.65L359.522 190.15L354.647 189.525L355.697 196.175H349.047L348.522 182.675L349.722 177.6ZM375.878 177.925L381.328 184.7L379.778 193.625L369.903 196.2L362.028 189.25L363.203 181.425L369.078 177.7L375.878 177.925ZM370.553 184.225L369.278 187.075L371.478 188.55L373.803 187.7L373.678 184.925L370.553 184.225Z" fill="white"/>
<path d="M322.328 177.775L322.25 176.527L321.035 176.603L321.078 177.819L322.328 177.775ZM327.178 177.475L328.4 177.216L328.177 176.161L327.1 176.227L327.178 177.475ZM330.928 195.175L331.064 196.417L332.437 196.266L332.15 194.916L330.928 195.175ZM322.978 196.05L321.728 196.094L321.776 197.44L323.114 197.292L322.978 196.05ZM322.405 179.023L327.255 178.723L327.1 176.227L322.25 176.527L322.405 179.023ZM325.955 177.734L329.705 195.434L332.15 194.916L328.4 177.216L325.955 177.734ZM330.791 193.933L322.841 194.808L323.114 197.292L331.064 196.417L330.791 193.933ZM324.227 196.006L323.577 177.731L321.078 177.819L321.728 196.094L324.227 196.006ZM331.333 195.925L330.104 195.701L329.846 197.113L331.281 197.174L331.333 195.925ZM334.658 177.7V176.45H333.616L333.429 177.476L334.658 177.7ZM338.433 177.7L339.502 177.051L339.137 176.45H338.433V177.7ZM341.958 183.5L340.89 184.149L342.997 187.616L343.207 183.565L341.958 183.5ZM342.258 177.7L342.45 176.465L341.082 176.252L341.01 177.635L342.258 177.7ZM348.058 178.6L349.305 178.687L349.385 177.541L348.25 177.365L348.058 178.6ZM346.833 196.15L346.756 197.398L347.994 197.475L348.08 196.237L346.833 196.15ZM342.033 195.85L340.988 196.535L341.331 197.059L341.956 197.098L342.033 195.85ZM338.333 190.2L339.379 189.515L337.659 186.889L337.103 189.979L338.333 190.2ZM337.258 196.175L337.206 197.424L338.296 197.47L338.489 196.396L337.258 196.175ZM332.563 196.149L335.888 177.924L333.429 177.476L330.104 195.701L332.563 196.149ZM334.658 178.95H338.433V176.45H334.658V178.95ZM337.365 178.349L340.89 184.149L343.027 182.851L339.502 177.051L337.365 178.349ZM343.207 183.565L343.507 177.765L341.01 177.635L340.71 183.435L343.207 183.565ZM342.067 178.935L347.867 179.835L348.25 177.365L342.45 176.465L342.067 178.935ZM346.812 178.513L345.587 196.063L348.08 196.237L349.305 178.687L346.812 178.513ZM346.911 194.902L342.111 194.602L341.956 197.098L346.756 197.398L346.911 194.902ZM343.079 195.165L339.379 189.515L337.288 190.885L340.988 196.535L343.079 195.165ZM337.103 189.979L336.028 195.954L338.489 196.396L339.564 190.421L337.103 189.979ZM337.311 194.926L331.386 194.676L331.281 197.174L337.206 197.424L337.311 194.926ZM349.722 177.6L349.732 176.35L348.735 176.342L348.505 177.312L349.722 177.6ZM362.322 177.7L363.563 177.844L363.724 176.461L362.332 176.45L362.322 177.7ZM361.622 183.725L361.482 184.967L362.719 185.107L362.863 183.869L361.622 183.725ZM354.747 182.95L354.887 181.708L353.565 181.559L353.498 182.888L354.747 182.95ZM354.647 184.95L353.398 184.888L353.329 186.27L354.711 186.198L354.647 184.95ZM360.472 184.65L361.703 184.863L361.97 183.321L360.407 183.402L360.472 184.65ZM359.522 190.15L359.363 191.39L360.55 191.542L360.753 190.363L359.522 190.15ZM354.647 189.525L354.806 188.285L353.152 188.073L353.412 189.72L354.647 189.525ZM355.697 196.175V197.425H357.159L356.931 195.98L355.697 196.175ZM349.047 196.175L347.798 196.224L347.844 197.425H349.047V196.175ZM348.522 182.675L347.305 182.387L347.266 182.553L347.273 182.724L348.522 182.675ZM349.712 178.85L362.312 178.95L362.332 176.45L349.732 176.35L349.712 178.85ZM361.08 177.556L360.38 183.581L362.863 183.869L363.563 177.844L361.08 177.556ZM361.762 182.483L354.887 181.708L354.607 184.192L361.482 184.967L361.762 182.483ZM353.498 182.888L353.398 184.888L355.895 185.012L355.995 183.012L353.498 182.888ZM354.711 186.198L360.536 185.898L360.407 183.402L354.582 183.702L354.711 186.198ZM359.24 184.437L358.29 189.937L360.753 190.363L361.703 184.863L359.24 184.437ZM359.681 188.91L354.806 188.285L354.488 190.765L359.363 191.39L359.681 188.91ZM353.412 189.72L354.462 196.37L356.931 195.98L355.881 189.33L353.412 189.72ZM355.697 194.925H349.047V197.425H355.697V194.925ZM350.296 196.126L349.771 182.626L347.273 182.724L347.798 196.224L350.296 196.126ZM349.738 182.963L350.938 177.888L348.505 177.312L347.305 182.387L349.738 182.963ZM375.878 177.925L376.852 177.142L376.492 176.695L375.919 176.676L375.878 177.925ZM381.328 184.7L382.559 184.914L382.656 184.357L382.302 183.917L381.328 184.7ZM379.778 193.625L380.093 194.835L380.872 194.632L381.009 193.839L379.778 193.625ZM369.903 196.2L369.076 197.137L369.574 197.577L370.218 197.41L369.903 196.2ZM362.028 189.25L360.791 189.064L360.69 189.737L361.201 190.187L362.028 189.25ZM363.203 181.425L362.533 180.369L362.051 180.675L361.966 181.239L363.203 181.425ZM369.078 177.7L369.119 176.451L368.734 176.438L368.408 176.644L369.078 177.7ZM370.553 184.225L370.826 183.005L369.829 182.782L369.412 183.715L370.553 184.225ZM369.278 187.075L368.137 186.565L367.706 187.526L368.582 188.113L369.278 187.075ZM371.478 188.55L370.782 189.588L371.31 189.942L371.907 189.724L371.478 188.55ZM373.803 187.7L374.232 188.874L375.093 188.559L375.051 187.644L373.803 187.7ZM373.678 184.925L374.926 184.869L374.883 183.914L373.951 183.705L373.678 184.925ZM374.904 178.708L380.354 185.483L382.302 183.917L376.852 177.142L374.904 178.708ZM380.096 184.486L378.546 193.411L381.009 193.839L382.559 184.914L380.096 184.486ZM379.462 192.415L369.587 194.99L370.218 197.41L380.093 194.835L379.462 192.415ZM370.73 195.263L362.855 188.313L361.201 190.187L369.076 197.137L370.73 195.263ZM363.264 189.436L364.439 181.611L361.966 181.239L360.791 189.064L363.264 189.436ZM363.872 182.481L369.747 178.756L368.408 176.644L362.533 180.369L363.872 182.481ZM369.036 178.949L375.836 179.174L375.919 176.676L369.119 176.451L369.036 178.949ZM369.412 183.715L368.137 186.565L370.419 187.585L371.694 184.735L369.412 183.715ZM368.582 188.113L370.782 189.588L372.174 187.512L369.974 186.037L368.582 188.113ZM371.907 189.724L374.232 188.874L373.373 186.526L371.048 187.376L371.907 189.724ZM375.051 187.644L374.926 184.869L372.429 184.981L372.554 187.756L375.051 187.644ZM373.951 183.705L370.826 183.005L370.279 185.445L373.404 186.145L373.951 183.705Z" fill="#353535" mask="url(#path-5-outside-1_1_23)"/>
</g>
<defs>
<filter id="filter0_dd_1_23" x="0.87793" y="0.79541" width="402.745" height="225.653" filterUnits="userSpaceOnUse" color-interpolation-filters="sRGB">
<feFlood flood-opacity="0" result="BackgroundImageFix"/>
<feColorMatrix in="SourceAlpha" type="matrix" values="0 0 0 0 0 0 0 0 0 0 0 0 0 0 0 0 0 0 127 0" result="hardAlpha"/>
<feOffset dx="5" dy="5"/>
<feGaussianBlur stdDeviation="5"/>
<feComposite in2="hardAlpha" operator="out"/>
<feColorMatrix type="matrix" values="0 0 0 0 0 0 0 0 0 0 0 0 0 0 0 0 0 0 0.15 0"/>
<feBlend mode="normal" in2="BackgroundImageFix" result="effect1_dropShadow_1_23"/>
<feColorMatrix in="SourceAlpha" type="matrix" values="0 0 0 0 0 0 0 0 0 0 0 0 0 0 0 0 0 0 127 0" result="hardAlpha"/>
<feOffset dx="5" dy="5"/>
<feComposite in2="hardAlpha" operator="out"/>
<feColorMatrix type="matrix" values="0 0 0 0 0.784948 0 0 0 0 0.738688 0 0 0 0 0.64889 0 0 0 1 0"/>
<feBlend mode="normal" in2="effect1_dropShadow_1_23" result="effect2_dropShadow_1_23"/>
<feBlend mode="normal" in="SourceGraphic" in2="effect2_dropShadow_1_23" result="shape"/>
</filter>
<filter id="filter1_d_1_23" x="322.328" y="177.475" width="60.25" height="21.225" filterUnits="userSpaceOnUse" color-interpolation-filters="sRGB">
<feFlood flood-opacity="0" result="BackgroundImageFix"/>
<feColorMatrix in="SourceAlpha" type="matrix" values="0 0 0 0 0 0 0 0 0 0 0 0 0 0 0 0 0 0 127 0" result="hardAlpha"/>
<feOffset dx="1.25" dy="2.5"/>
<feComposite in2="hardAlpha" operator="out"/>
<feColorMatrix type="matrix" values="0 0 0 0 0.208281 0 0 0 0 0.208281 0 0 0 0 0.208281 0 0 0 1 0"/>
<feBlend mode="normal" in2="BackgroundImageFix" result="effect1_dropShadow_1_23"/>
<feBlend mode="normal" in="SourceGraphic" in2="effect1_dropShadow_1_23" result="shape"/>
</filter>
<clipPath id="clip0_1_23">
<rect width="95.6808" height="60.4328" fill="white" transform="translate(306.077 159.373)"/>
</clipPath>
</defs>
</svg>
