<svg width="448" height="311" viewBox="0 0 448 311" fill="none" xmlns="http://www.w3.org/2000/svg">
<g filter="url(#filter0_dd_0_24)">
<path d="M22.2188 5.90625H413.844L432.977 202.549L409.394 268.944L219.598 261.159L210.736 295.81L197.428 260.249L29.014 272.372L5.02319 252.357L5.02319 59.1027L22.2188 5.90625Z" fill="#FFFAE7"/>
<path d="M218.993 261.004L210.624 293.726L198.013 260.03L197.849 259.592L197.383 259.626L29.2207 271.73L5.64819 252.064V59.2012L22.6736 6.53125H413.277L432.342 202.471L408.959 268.301L219.624 260.534L219.118 260.513L218.993 261.004Z" stroke="#C8BCA5" stroke-width="1.25"/>
</g>
<g clip-path="url(#clip0_0_24)">
<path d="M301.711 237.753L348.887 234.484L382.169 237.753L389.758 273.881L387.564 289.702L331.532 294.916L296.094 291.995L294.077 250.91L301.711 237.753Z" fill="#353535"/>
<path d="M331.847 291.926L298.096 289.28L296.18 252.149L303.309 240.463L348.664 237.474L380.422 240.44L387.655 273.186L385.616 287.168L331.847 291.926Z" fill="#ED4650" stroke="white" stroke-width="1.25"/>
</g>
<g filter="url(#filter1_d_0_24)">
<mask id="path-5-outside-1_0_24" maskUnits="userSpaceOnUse" x="309" y="250.361" width="62" height="23" fill="black">
<rect fill="white" x="309" y="250.361" width="62" height="23"/>
<path d="M310.328 252.886L315.178 252.586L318.928 270.286L310.978 271.161L310.328 252.886ZM319.333 271.036L322.658 252.811H326.433L329.958 258.611L330.258 252.811L336.058 253.711L334.833 271.261L330.033 270.961L326.333 265.311L325.258 271.286L319.333 271.036ZM337.722 252.711L350.322 252.811L349.622 258.836L342.747 258.061L342.647 260.061L348.472 259.761L347.522 265.261L342.647 264.636L343.697 271.286H337.047L336.522 257.786L337.722 252.711ZM363.878 253.036L369.328 259.811L367.778 268.736L357.903 271.311L350.028 264.361L351.203 256.536L357.078 252.811L363.878 253.036ZM358.553 259.336L357.278 262.186L359.478 263.661L361.803 262.811L361.678 260.036L358.553 259.336Z"/>
</mask>
<path d="M310.328 252.886L315.178 252.586L318.928 270.286L310.978 271.161L310.328 252.886ZM319.333 271.036L322.658 252.811H326.433L329.958 258.611L330.258 252.811L336.058 253.711L334.833 271.261L330.033 270.961L326.333 265.311L325.258 271.286L319.333 271.036ZM337.722 252.711L350.322 252.811L349.622 258.836L342.747 258.061L342.647 260.061L348.472 259.761L347.522 265.261L342.647 264.636L343.697 271.286H337.047L336.522 257.786L337.722 252.711ZM363.878 253.036L369.328 259.811L367.778 268.736L357.903 271.311L350.028 264.361L351.203 256.536L357.078 252.811L363.878 253.036ZM358.553 259.336L357.278 262.186L359.478 263.661L361.803 262.811L361.678 260.036L358.553 259.336Z" fill="white"/>
<path d="M310.328 252.886L310.25 251.638L309.035 251.713L309.078 252.93L310.328 252.886ZM315.178 252.586L316.4 252.327L316.177 251.271L315.1 251.338L315.178 252.586ZM318.928 270.286L319.064 271.528L320.437 271.377L320.15 270.027L318.928 270.286ZM310.978 271.161L309.728 271.205L309.776 272.55L311.114 272.403L310.978 271.161ZM310.405 254.133L315.255 253.833L315.1 251.338L310.25 251.638L310.405 254.133ZM313.955 252.845L317.705 270.545L320.15 270.027L316.4 252.327L313.955 252.845ZM318.791 269.043L310.841 269.918L311.114 272.403L319.064 271.528L318.791 269.043ZM312.227 271.116L311.577 252.841L309.078 252.93L309.728 271.205L312.227 271.116ZM319.333 271.036L318.104 270.811L317.846 272.224L319.281 272.284L319.333 271.036ZM322.658 252.811V251.561H321.616L321.429 252.586L322.658 252.811ZM326.433 252.811L327.502 252.161L327.137 251.561H326.433V252.811ZM329.958 258.611L328.89 259.26L330.997 262.727L331.207 258.675L329.958 258.611ZM330.258 252.811L330.45 251.575L329.082 251.363L329.01 252.746L330.258 252.811ZM336.058 253.711L337.305 253.798L337.385 252.652L336.25 252.475L336.058 253.711ZM334.833 271.261L334.756 272.508L335.994 272.586L336.08 271.348L334.833 271.261ZM330.033 270.961L328.988 271.645L329.331 272.169L329.956 272.208L330.033 270.961ZM326.333 265.311L327.379 264.626L325.659 261.999L325.103 265.089L326.333 265.311ZM325.258 271.286L325.206 272.534L326.296 272.58L326.489 271.507L325.258 271.286ZM320.563 271.26L323.888 253.035L321.429 252.586L318.104 270.811L320.563 271.26ZM322.658 254.061H326.433V251.561H322.658V254.061ZM325.365 253.46L328.89 259.26L331.027 257.961L327.502 252.161L325.365 253.46ZM331.207 258.675L331.507 252.875L329.01 252.746L328.71 258.546L331.207 258.675ZM330.067 254.046L335.867 254.946L336.25 252.475L330.45 251.575L330.067 254.046ZM334.812 253.624L333.587 271.174L336.08 271.348L337.305 253.798L334.812 253.624ZM334.911 270.013L330.111 269.713L329.956 272.208L334.756 272.508L334.911 270.013ZM331.079 270.276L327.379 264.626L325.288 265.995L328.988 271.645L331.079 270.276ZM325.103 265.089L324.028 271.064L326.489 271.507L327.564 265.532L325.103 265.089ZM325.311 270.037L319.386 269.787L319.281 272.284L325.206 272.534L325.311 270.037ZM337.722 252.711L337.732 251.461L336.735 251.453L336.505 252.423L337.722 252.711ZM350.322 252.811L351.563 252.955L351.724 251.572L350.332 251.561L350.322 252.811ZM349.622 258.836L349.482 260.078L350.719 260.217L350.863 258.98L349.622 258.836ZM342.747 258.061L342.887 256.818L341.565 256.669L341.498 257.998L342.747 258.061ZM342.647 260.061L341.398 259.998L341.329 261.38L342.711 261.309L342.647 260.061ZM348.472 259.761L349.703 259.973L349.97 258.432L348.407 258.512L348.472 259.761ZM347.522 265.261L347.363 266.5L348.55 266.653L348.753 265.473L347.522 265.261ZM342.647 264.636L342.806 263.396L341.152 263.184L341.412 264.831L342.647 264.636ZM343.697 271.286V272.536H345.159L344.931 271.091L343.697 271.286ZM337.047 271.286L335.798 271.334L335.844 272.536H337.047V271.286ZM336.522 257.786L335.305 257.498L335.266 257.664L335.273 257.834L336.522 257.786ZM337.712 253.961L350.312 254.061L350.332 251.561L337.732 251.461L337.712 253.961ZM349.08 252.666L348.38 258.691L350.863 258.98L351.563 252.955L349.08 252.666ZM349.762 257.593L342.887 256.818L342.607 259.303L349.482 260.078L349.762 257.593ZM341.498 257.998L341.398 259.998L343.895 260.123L343.995 258.123L341.498 257.998ZM342.711 261.309L348.536 261.009L348.407 258.512L342.582 258.812L342.711 261.309ZM347.24 259.548L346.29 265.048L348.753 265.473L349.703 259.973L347.24 259.548ZM347.681 264.021L342.806 263.396L342.488 265.875L347.363 266.5L347.681 264.021ZM341.412 264.831L342.462 271.481L344.931 271.091L343.881 264.441L341.412 264.831ZM343.697 270.036H337.047V272.536H343.697V270.036ZM338.296 271.237L337.771 257.737L335.273 257.834L335.798 271.334L338.296 271.237ZM337.738 258.073L338.938 252.998L336.505 252.423L335.305 257.498L337.738 258.073ZM363.878 253.036L364.852 252.252L364.492 251.805L363.919 251.786L363.878 253.036ZM369.328 259.811L370.559 260.024L370.656 259.468L370.302 259.027L369.328 259.811ZM367.778 268.736L368.093 269.945L368.872 269.742L369.009 268.949L367.778 268.736ZM357.903 271.311L357.076 272.248L357.574 272.688L358.218 272.52L357.903 271.311ZM350.028 264.361L348.791 264.175L348.69 264.848L349.201 265.298L350.028 264.361ZM351.203 256.536L350.533 255.48L350.051 255.786L349.966 256.35L351.203 256.536ZM357.078 252.811L357.119 251.561L356.734 251.549L356.408 251.755L357.078 252.811ZM358.553 259.336L358.826 258.116L357.829 257.892L357.412 258.825L358.553 259.336ZM357.278 262.186L356.137 261.675L355.706 262.637L356.582 263.224L357.278 262.186ZM359.478 263.661L358.782 264.699L359.31 265.053L359.907 264.835L359.478 263.661ZM361.803 262.811L362.232 263.985L363.093 263.67L363.051 262.754L361.803 262.811ZM361.678 260.036L362.926 259.979L362.883 259.025L361.951 258.816L361.678 260.036ZM362.904 253.819L368.354 260.594L370.302 259.027L364.852 252.252L362.904 253.819ZM368.096 259.597L366.546 268.522L369.009 268.949L370.559 260.024L368.096 259.597ZM367.462 267.526L357.587 270.101L358.218 272.52L368.093 269.945L367.462 267.526ZM358.73 270.373L350.855 263.423L349.201 265.298L357.076 272.248L358.73 270.373ZM351.264 264.546L352.439 256.721L349.966 256.35L348.791 264.175L351.264 264.546ZM351.872 257.591L357.747 253.866L356.408 251.755L350.533 255.48L351.872 257.591ZM357.036 254.06L363.836 254.285L363.919 251.786L357.119 251.561L357.036 254.06ZM357.412 258.825L356.137 261.675L358.419 262.696L359.694 259.846L357.412 258.825ZM356.582 263.224L358.782 264.699L360.174 262.622L357.974 261.147L356.582 263.224ZM359.907 264.835L362.232 263.985L361.373 261.637L359.048 262.487L359.907 264.835ZM363.051 262.754L362.926 259.979L360.429 260.092L360.554 262.867L363.051 262.754ZM361.951 258.816L358.826 258.116L358.279 260.555L361.404 261.255L361.951 258.816Z" fill="#353535" mask="url(#path-5-outside-1_0_24)"/>
</g>
<defs>
<filter id="filter0_dd_0_24" x="0.0231934" y="0.90625" width="447.954" height="309.903" filterUnits="userSpaceOnUse" color-interpolation-filters="sRGB">
<feFlood flood-opacity="0" result="BackgroundImageFix"/>
<feColorMatrix in="SourceAlpha" type="matrix" values="0 0 0 0 0 0 0 0 0 0 0 0 0 0 0 0 0 0 127 0" result="hardAlpha"/>
<feOffset dx="5" dy="5"/>
<feGaussianBlur stdDeviation="5"/>
<feComposite in2="hardAlpha" operator="out"/>
<feColorMatrix type="matrix" values="0 0 0 0 0 0 0 0 0 0 0 0 0 0 0 0 0 0 0.15 0"/>
<feBlend mode="normal" in2="BackgroundImageFix" result="effect1_dropShadow_0_24"/>
<feColorMatrix in="SourceAlpha" type="matrix" values="0 0 0 0 0 0 0 0 0 0 0 0 0 0 0 0 0 0 127 0" result="hardAlpha"/>
<feOffset dx="5" dy="5"/>
<feComposite in2="hardAlpha" operator="out"/>
<feColorMatrix type="matrix" values="0 0 0 0 0.784948 0 0 0 0 0.738688 0 0 0 0 0.64889 0 0 0 1 0"/>
<feBlend mode="normal" in2="effect1_dropShadow_0_24" result="effect2_dropShadow_0_24"/>
<feBlend mode="normal" in="SourceGraphic" in2="effect2_dropShadow_0_24" result="shape"/>
</filter>
<filter id="filter1_d_0_24" x="310.328" y="252.586" width="60.25" height="21.225" filterUnits="userSpaceOnUse" color-interpolation-filters="sRGB">
<feFlood flood-opacity="0" result="BackgroundImageFix"/>
<feColorMatrix in="SourceAlpha" type="matrix" values="0 0 0 0 0 0 0 0 0 0 0 0 0 0 0 0 0 0 127 0" result="hardAlpha"/>
<feOffset dx="1.25" dy="2.5"/>
<feComposite in2="hardAlpha" operator="out"/>
<feColorMatrix type="matrix" values="0 0 0 0 0.208281 0 0 0 0 0.208281 0 0 0 0 0.208281 0 0 0 1 0"/>
<feBlend mode="normal" in2="BackgroundImageFix" result="effect1_dropShadow_0_24"/>
<feBlend mode="normal" in="SourceGraphic" in2="effect1_dropShadow_0_24" result="shape"/>
</filter>
<clipPath id="clip0_0_24">
<rect width="95.6808" height="60.4328" fill="white" transform="translate(294.077 234.484)"/>
</clipPath>
</defs>
</svg>
