<svg width="361" height="227" viewBox="0 0 361 227" fill="none" xmlns="http://www.w3.org/2000/svg">
<g filter="url(#filter0_dd_605_1607)">
<path d="M19.5379 5.4635H330.467L345.658 144.959L326.934 192.058L176.246 186.536L169.21 211.116L158.644 185.89L24.9328 194.49L5.8855 180.292L5.8855 43.2002L19.5379 5.4635Z" fill="#FFFAE7"/>
<path d="M175.646 186.364L169.099 209.233L159.221 185.649L159.048 185.238L158.604 185.267L25.1221 193.852L6.5105 179.978V43.3098L19.9764 6.0885H329.906L345.019 144.872L326.516 191.418L176.269 185.911L175.78 185.893L175.646 186.364Z" stroke="#C8BCA5" stroke-width="1.25"/>
</g>
<g filter="url(#filter1_d_605_1607)">
<mask id="path-3-outside-1_605_1607" maskUnits="userSpaceOnUse" x="95.7714" y="20.5259" width="154" height="23" fill="black">
<rect fill="white" x="95.7714" y="20.5259" width="154" height="23"/>
<path d="M111.858 23.2009L117.308 29.9759L115.758 38.9009L105.883 41.4759L98.0085 34.5259L99.1835 26.7009L105.058 22.9759L111.858 23.2009ZM106.533 29.5009L105.258 32.3509L107.458 33.8259L109.783 32.9759L109.658 30.2009L106.533 29.5009ZM128.828 23.0259L133.228 26.0509L133.578 33.4509L129.128 37.7509L123.603 38.1009V41.6259H117.778L118.703 23.0259H128.828ZM124.628 28.7259L124.453 31.7509L126.103 31.9759L128.203 29.5009L124.628 28.7259ZM133.672 22.9759L152.147 23.3009V30.8009L145.897 29.7759L147.622 41.5509H138.672L140.022 29.7759L133.672 29.4509V22.9759ZM153.572 23.0509L158.422 22.7509L162.172 40.4509L154.222 41.3259L153.572 23.0509ZM162.578 39.6259L171.503 23.1009H176.778L178.528 28.1009L181.628 23.0759L186.303 22.9759L191.428 40.9509L184.753 41.5009L183.478 36.9509L181.953 32.5509L177.353 36.6509L173.828 31.9759L169.603 40.9509L162.578 39.6259ZM191.609 23.0509L196.459 22.7509L200.209 40.4509L192.259 41.3259L191.609 23.0509ZM218.74 27.6259L215.515 31.6009L211.74 29.1759L210.79 30.3759L217.54 35.3259L214.265 41.5009H206.24L200.64 37.0509L203.065 32.9759L207.89 35.7009L208.615 34.5759L201.54 30.3759L208.24 22.8759H214.265L218.74 27.6259ZM218.828 39.6259L227.753 23.1009H233.028L234.778 28.1009L237.878 23.0759L242.553 22.9759L247.678 40.9509L241.003 41.5009L239.728 36.9509L238.203 32.5509L233.603 36.6509L230.078 31.9759L225.853 40.9509L218.828 39.6259Z"/>
</mask>
<path d="M111.858 23.2009L117.308 29.9759L115.758 38.9009L105.883 41.4759L98.0085 34.5259L99.1835 26.7009L105.058 22.9759L111.858 23.2009ZM106.533 29.5009L105.258 32.3509L107.458 33.8259L109.783 32.9759L109.658 30.2009L106.533 29.5009ZM128.828 23.0259L133.228 26.0509L133.578 33.4509L129.128 37.7509L123.603 38.1009V41.6259H117.778L118.703 23.0259H128.828ZM124.628 28.7259L124.453 31.7509L126.103 31.9759L128.203 29.5009L124.628 28.7259ZM133.672 22.9759L152.147 23.3009V30.8009L145.897 29.7759L147.622 41.5509H138.672L140.022 29.7759L133.672 29.4509V22.9759ZM153.572 23.0509L158.422 22.7509L162.172 40.4509L154.222 41.3259L153.572 23.0509ZM162.578 39.6259L171.503 23.1009H176.778L178.528 28.1009L181.628 23.0759L186.303 22.9759L191.428 40.9509L184.753 41.5009L183.478 36.9509L181.953 32.5509L177.353 36.6509L173.828 31.9759L169.603 40.9509L162.578 39.6259ZM191.609 23.0509L196.459 22.7509L200.209 40.4509L192.259 41.3259L191.609 23.0509ZM218.74 27.6259L215.515 31.6009L211.74 29.1759L210.79 30.3759L217.54 35.3259L214.265 41.5009H206.24L200.64 37.0509L203.065 32.9759L207.89 35.7009L208.615 34.5759L201.54 30.3759L208.24 22.8759H214.265L218.74 27.6259ZM218.828 39.6259L227.753 23.1009H233.028L234.778 28.1009L237.878 23.0759L242.553 22.9759L247.678 40.9509L241.003 41.5009L239.728 36.9509L238.203 32.5509L233.603 36.6509L230.078 31.9759L225.853 40.9509L218.828 39.6259Z" fill="white"/>
<path d="M111.858 23.2009L112.832 22.4174L112.473 21.9705L111.9 21.9516L111.858 23.2009ZM117.308 29.9759L118.54 30.1898L118.637 29.6328L118.282 29.1924L117.308 29.9759ZM115.758 38.9009L116.074 40.1104L116.852 39.9074L116.99 39.1148L115.758 38.9009ZM105.883 41.4759L105.056 42.4131L105.555 42.8533L106.199 42.6854L105.883 41.4759ZM98.0085 34.5259L96.7723 34.3403L96.6713 35.013L97.1813 35.4631L98.0085 34.5259ZM99.1835 26.7009L98.5141 25.6452L98.0321 25.9508L97.9473 26.5153L99.1835 26.7009ZM105.058 22.9759L105.1 21.7266L104.715 21.7138L104.389 21.9202L105.058 22.9759ZM106.533 29.5009L106.807 28.2811L105.81 28.0578L105.392 28.9904L106.533 29.5009ZM105.258 32.3509L104.117 31.8404L103.687 32.8023L104.562 33.3891L105.258 32.3509ZM107.458 33.8259L106.762 34.8641L107.29 35.2182L107.888 34.9999L107.458 33.8259ZM109.783 32.9759L110.213 34.1499L111.073 33.8352L111.032 32.9196L109.783 32.9759ZM109.658 30.2009L110.907 30.1446L110.864 29.19L109.932 28.9811L109.658 30.2009ZM110.884 23.9844L116.334 30.7594L118.282 29.1924L112.832 22.4174L110.884 23.9844ZM116.077 29.762L114.527 38.687L116.99 39.1148L118.54 30.1898L116.077 29.762ZM115.443 37.6913L105.568 40.2663L106.199 42.6854L116.074 40.1104L115.443 37.6913ZM106.711 40.5387L98.8356 33.5887L97.1813 35.4631L105.056 42.4131L106.711 40.5387ZM99.2446 34.7115L100.42 26.8865L97.9473 26.5153L96.7723 34.3403L99.2446 34.7115ZM99.8528 27.7566L105.728 24.0316L104.389 21.9202L98.5141 25.6452L99.8528 27.7566ZM105.017 24.2252L111.817 24.4502L111.9 21.9516L105.1 21.7266L105.017 24.2252ZM105.392 28.9904L104.117 31.8404L106.399 32.8613L107.674 30.0113L105.392 28.9904ZM104.562 33.3891L106.762 34.8641L108.155 32.7876L105.955 31.3126L104.562 33.3891ZM107.888 34.9999L110.213 34.1499L109.354 31.8019L107.029 32.6519L107.888 34.9999ZM111.032 32.9196L110.907 30.1446L108.41 30.2571L108.535 33.0321L111.032 32.9196ZM109.932 28.9811L106.807 28.2811L106.26 30.7207L109.385 31.4207L109.932 28.9811ZM128.828 23.0259L129.536 21.9958L129.216 21.7759H128.828V23.0259ZM133.228 26.0509L134.477 25.9918L134.447 25.3722L133.936 25.0208L133.228 26.0509ZM133.578 33.4509L134.447 34.3498L134.854 33.9568L134.827 33.3918L133.578 33.4509ZM129.128 37.7509L129.207 38.9984L129.666 38.9693L129.997 38.6498L129.128 37.7509ZM123.603 38.1009L123.524 36.8534L122.353 36.9276V38.1009H123.603ZM123.603 41.6259V42.8759H124.853V41.6259H123.603ZM117.778 41.6259L116.53 41.5638L116.464 42.8759H117.778V41.6259ZM118.703 23.0259V21.7759H117.514L117.455 22.9638L118.703 23.0259ZM124.628 28.7259L124.893 27.5043L123.465 27.1946L123.38 28.6537L124.628 28.7259ZM124.453 31.7509L123.205 31.6787L123.138 32.8332L124.284 32.9894L124.453 31.7509ZM126.103 31.9759L125.934 33.2144L126.613 33.307L127.056 32.7846L126.103 31.9759ZM128.203 29.5009L129.156 30.3096L130.504 28.7207L128.468 28.2793L128.203 29.5009ZM128.12 24.0559L132.52 27.0809L133.936 25.0208L129.536 21.9958L128.12 24.0559ZM131.98 26.1099L132.33 33.5099L134.827 33.3918L134.477 25.9918L131.98 26.1099ZM132.71 32.552L128.26 36.852L129.997 38.6498L134.447 34.3498L132.71 32.552ZM129.049 36.5034L123.524 36.8534L123.682 39.3484L129.207 38.9984L129.049 36.5034ZM122.353 38.1009V41.6259H124.853V38.1009H122.353ZM123.603 40.3759H117.778V42.8759H123.603V40.3759ZM119.027 41.688L119.952 23.088L117.455 22.9638L116.53 41.5638L119.027 41.688ZM118.703 24.2759H128.828V21.7759H118.703V24.2759ZM123.38 28.6537L123.205 31.6787L125.701 31.8231L125.876 28.7981L123.38 28.6537ZM124.284 32.9894L125.934 33.2144L126.272 30.7373L124.622 30.5123L124.284 32.9894ZM127.056 32.7846L129.156 30.3096L127.25 28.6922L125.15 31.1672L127.056 32.7846ZM128.468 28.2793L124.893 27.5043L124.363 29.9475L127.938 30.7225L128.468 28.2793ZM133.672 22.9759L133.694 21.7261L132.422 21.7037V22.9759H133.672ZM152.147 23.3009H153.397V22.0727L152.169 22.0511L152.147 23.3009ZM152.147 30.8009L151.944 32.0344L153.397 32.2726V30.8009H152.147ZM145.897 29.7759L146.099 28.5424L144.412 28.2657L144.66 29.9571L145.897 29.7759ZM147.622 41.5509V42.8009H149.068L148.859 41.3697L147.622 41.5509ZM138.672 41.5509L137.43 41.4085L137.27 42.8009H138.672V41.5509ZM140.022 29.7759L141.264 29.9183L141.415 28.5956L140.086 28.5275L140.022 29.7759ZM133.672 29.4509H132.422V30.6385L133.608 30.6992L133.672 29.4509ZM133.65 24.2257L152.125 24.5507L152.169 22.0511L133.694 21.7261L133.65 24.2257ZM150.897 23.3009V30.8009H153.397V23.3009H150.897ZM152.349 29.5674L146.099 28.5424L145.694 31.0094L151.944 32.0344L152.349 29.5674ZM144.66 29.9571L146.385 41.7321L148.859 41.3697L147.134 29.5947L144.66 29.9571ZM147.622 40.3009H138.672V42.8009H147.622V40.3009ZM139.914 41.6933L141.264 29.9183L138.78 29.6335L137.43 41.4085L139.914 41.6933ZM140.086 28.5275L133.736 28.2025L133.608 30.6992L139.958 31.0242L140.086 28.5275ZM134.922 29.4509V22.9759H132.422V29.4509H134.922ZM153.572 23.0509L153.495 21.8033L152.28 21.8784L152.323 23.0953L153.572 23.0509ZM158.422 22.7509L159.645 22.4918L159.421 21.4367L158.345 21.5033L158.422 22.7509ZM162.172 40.4509L162.309 41.6934L163.681 41.5423L163.395 40.1918L162.172 40.4509ZM154.222 41.3259L152.973 41.3703L153.021 42.7157L154.359 42.5684L154.222 41.3259ZM153.649 24.2985L158.499 23.9985L158.345 21.5033L153.495 21.8033L153.649 24.2985ZM157.199 23.01L160.949 40.71L163.395 40.1918L159.645 22.4918L157.199 23.01ZM162.035 39.2084L154.085 40.0834L154.359 42.5684L162.309 41.6934L162.035 39.2084ZM155.471 41.2814L154.821 23.0064L152.323 23.0953L152.973 41.3703L155.471 41.2814ZM162.578 39.6259L161.478 39.0319L160.665 40.5371L162.346 40.8542L162.578 39.6259ZM171.503 23.1009V21.8509H170.757L170.403 22.5069L171.503 23.1009ZM176.778 23.1009L177.958 22.6879L177.665 21.8509H176.778V23.1009ZM178.528 28.1009L177.348 28.5138L178.215 30.9895L179.592 28.7572L178.528 28.1009ZM181.628 23.0759L181.601 21.8262L180.921 21.8407L180.564 22.4196L181.628 23.0759ZM186.303 22.9759L187.505 22.6331L187.241 21.7055L186.276 21.7262L186.303 22.9759ZM191.428 40.9509L191.531 42.1967L193.047 42.0717L192.63 40.6081L191.428 40.9509ZM184.753 41.5009L183.549 41.8382L183.828 42.8314L184.856 42.7467L184.753 41.5009ZM183.478 36.9509L184.682 36.6136L184.671 36.5772L184.659 36.5415L183.478 36.9509ZM181.953 32.5509L183.134 32.1415L182.52 30.3708L181.121 31.6177L181.953 32.5509ZM177.353 36.6509L176.355 37.4034L177.172 38.4868L178.185 37.584L177.353 36.6509ZM173.828 31.9759L174.826 31.2233L173.579 29.5696L172.697 31.4435L173.828 31.9759ZM169.603 40.9509L169.371 42.1792L170.322 42.3585L170.734 41.4833L169.603 40.9509ZM163.678 40.2199L172.603 23.6949L170.403 22.5069L161.478 39.0319L163.678 40.2199ZM171.503 24.3509H176.778V21.8509H171.503V24.3509ZM175.598 23.5138L177.348 28.5138L179.708 27.6879L177.958 22.6879L175.598 23.5138ZM179.592 28.7572L182.692 23.7322L180.564 22.4196L177.464 27.4446L179.592 28.7572ZM181.655 24.3256L186.33 24.2256L186.276 21.7262L181.601 21.8262L181.655 24.3256ZM185.101 23.3186L190.226 41.2936L192.63 40.6081L187.505 22.6331L185.101 23.3186ZM191.325 39.7051L184.65 40.2551L184.856 42.7467L191.531 42.1967L191.325 39.7051ZM185.957 41.1636L184.682 36.6136L182.274 37.2882L183.549 41.8382L185.957 41.1636ZM184.659 36.5415L183.134 32.1415L180.772 32.9602L182.297 37.3602L184.659 36.5415ZM181.121 31.6177L176.521 35.7177L178.185 37.584L182.785 33.484L181.121 31.6177ZM178.351 35.8983L174.826 31.2233L172.83 32.7284L176.355 37.4034L178.351 35.8983ZM172.697 31.4435L168.472 40.4185L170.734 41.4833L174.959 32.5083L172.697 31.4435ZM169.835 39.7225L162.81 38.3975L162.346 40.8542L169.371 42.1792L169.835 39.7225ZM191.609 23.0509L191.532 21.8033L190.317 21.8784L190.36 23.0953L191.609 23.0509ZM196.459 22.7509L197.682 22.4918L197.459 21.4367L196.382 21.5033L196.459 22.7509ZM200.209 40.4509L200.346 41.6934L201.718 41.5423L201.432 40.1918L200.209 40.4509ZM192.259 41.3259L191.01 41.3703L191.058 42.7157L192.396 42.5684L192.259 41.3259ZM191.686 24.2985L196.536 23.9985L196.382 21.5033L191.532 21.8033L191.686 24.2985ZM195.236 23.01L198.986 40.71L201.432 40.1918L197.682 22.4918L195.236 23.01ZM200.073 39.2084L192.122 40.0834L192.396 42.5684L200.346 41.6934L200.073 39.2084ZM193.508 41.2814L192.858 23.0064L190.36 23.0953L191.01 41.3703L193.508 41.2814ZM218.74 27.6259L219.711 28.4134L220.4 27.5645L219.65 26.7687L218.74 27.6259ZM215.515 31.6009L214.84 32.6526L215.781 33.2573L216.486 32.3884L215.515 31.6009ZM211.74 29.1759L212.416 28.1242L211.463 27.5121L210.76 28.4L211.74 29.1759ZM210.79 30.3759L209.81 29.6L209.005 30.6169L210.051 31.3839L210.79 30.3759ZM217.54 35.3259L218.644 35.9116L219.151 34.9569L218.279 34.3179L217.54 35.3259ZM214.265 41.5009V42.7509H215.017L215.369 42.0866L214.265 41.5009ZM206.24 41.5009L205.462 42.4795L205.804 42.7509H206.24V41.5009ZM200.64 37.0509L199.566 36.4116L199.007 37.3501L199.862 38.0295L200.64 37.0509ZM203.065 32.9759L203.68 31.8875L202.616 31.2866L201.991 32.3366L203.065 32.9759ZM207.89 35.7009L207.275 36.7893L208.302 37.3691L208.941 36.378L207.89 35.7009ZM208.615 34.5759L209.666 35.253L210.368 34.163L209.253 33.501L208.615 34.5759ZM201.54 30.3759L200.608 29.5431L199.596 30.6756L200.902 31.4507L201.54 30.3759ZM208.24 22.8759V21.6259H207.681L207.308 22.0431L208.24 22.8759ZM214.265 22.8759L215.175 22.0187L214.805 21.6259H214.265V22.8759ZM217.769 26.8383L214.544 30.8133L216.486 32.3884L219.711 28.4134L217.769 26.8383ZM216.191 30.5492L212.416 28.1242L211.065 30.2276L214.84 32.6526L216.191 30.5492ZM210.76 28.4L209.81 29.6L211.77 31.1518L212.72 29.9518L210.76 28.4ZM210.051 31.3839L216.801 36.3339L218.279 34.3179L211.529 29.3679L210.051 31.3839ZM216.436 34.7402L213.161 40.9152L215.369 42.0866L218.644 35.9116L216.436 34.7402ZM214.265 40.2509H206.24V42.7509H214.265V40.2509ZM207.018 40.5222L201.418 36.0722L199.862 38.0295L205.462 42.4795L207.018 40.5222ZM201.714 37.6901L204.139 33.6151L201.991 32.3366L199.566 36.4116L201.714 37.6901ZM202.45 34.0643L207.275 36.7893L208.505 34.6125L203.68 31.8875L202.45 34.0643ZM208.941 36.378L209.666 35.253L207.564 33.8988L206.839 35.0238L208.941 36.378ZM209.253 33.501L202.178 29.301L200.902 31.4507L207.977 35.6507L209.253 33.501ZM202.472 31.2086L209.172 23.7086L207.308 22.0431L200.608 29.5431L202.472 31.2086ZM208.24 24.1259H214.265V21.6259H208.24V24.1259ZM213.355 23.733L217.83 28.483L219.65 26.7687L215.175 22.0187L213.355 23.733ZM218.828 39.6259L217.728 39.0319L216.915 40.5371L218.596 40.8542L218.828 39.6259ZM227.753 23.1009V21.8509H227.007L226.653 22.5069L227.753 23.1009ZM233.028 23.1009L234.208 22.6879L233.915 21.8509H233.028V23.1009ZM234.778 28.1009L233.598 28.5138L234.465 30.9895L235.842 28.7572L234.778 28.1009ZM237.878 23.0759L237.851 21.8262L237.171 21.8407L236.814 22.4196L237.878 23.0759ZM242.553 22.9759L243.755 22.6331L243.491 21.7055L242.526 21.7262L242.553 22.9759ZM247.678 40.9509L247.781 42.1967L249.297 42.0717L248.88 40.6081L247.678 40.9509ZM241.003 41.5009L239.799 41.8382L240.078 42.8314L241.106 42.7467L241.003 41.5009ZM239.728 36.9509L240.932 36.6136L240.921 36.5772L240.909 36.5415L239.728 36.9509ZM238.203 32.5509L239.384 32.1415L238.77 30.3708L237.371 31.6177L238.203 32.5509ZM233.603 36.6509L232.605 37.4034L233.422 38.4868L234.435 37.584L233.603 36.6509ZM230.078 31.9759L231.076 31.2233L229.829 29.5696L228.947 31.4435L230.078 31.9759ZM225.853 40.9509L225.621 42.1792L226.572 42.3585L226.984 41.4833L225.853 40.9509ZM219.928 40.2199L228.853 23.6949L226.653 22.5069L217.728 39.0319L219.928 40.2199ZM227.753 24.3509H233.028V21.8509H227.753V24.3509ZM231.848 23.5138L233.598 28.5138L235.958 27.6879L234.208 22.6879L231.848 23.5138ZM235.842 28.7572L238.942 23.7322L236.814 22.4196L233.714 27.4446L235.842 28.7572ZM237.905 24.3256L242.58 24.2256L242.526 21.7262L237.851 21.8262L237.905 24.3256ZM241.351 23.3186L246.476 41.2936L248.88 40.6081L243.755 22.6331L241.351 23.3186ZM247.575 39.7051L240.9 40.2551L241.106 42.7467L247.781 42.1967L247.575 39.7051ZM242.207 41.1636L240.932 36.6136L238.524 37.2882L239.799 41.8382L242.207 41.1636ZM240.909 36.5415L239.384 32.1415L237.022 32.9602L238.547 37.3602L240.909 36.5415ZM237.371 31.6177L232.771 35.7177L234.435 37.584L239.035 33.484L237.371 31.6177ZM234.601 35.8983L231.076 31.2233L229.08 32.7284L232.605 37.4034L234.601 35.8983ZM228.947 31.4435L224.722 40.4185L226.984 41.4833L231.209 32.5083L228.947 31.4435ZM226.085 39.7225L219.06 38.3975L218.596 40.8542L225.621 42.1792L226.085 39.7225Z" fill="#353535" mask="url(#path-3-outside-1_605_1607)"/>
</g>
<path d="M25.7714 72.5409L38.7039 72.7684V78.0184L34.3289 77.3009L35.5364 85.5434H29.2714L30.2164 77.3009L25.7714 77.0734V72.5409ZM39.6141 73.3109L44.0241 72.4709L44.2341 77.8084L46.8066 77.4234L46.9641 72.7159L50.5691 72.8734L51.2691 85.4384L47.2091 85.2984L47.1741 81.3609L44.7241 81.8334L44.8116 85.4384H41.0141L39.6141 73.3109ZM51.7158 72.5934L55.1108 72.3834L57.7358 84.7734L52.1708 85.3859L51.7158 72.5934ZM70.7074 75.7959L68.4499 78.5784L65.8074 76.8809L65.1424 77.7209L69.8674 81.1859L67.5749 85.5084H61.9574L58.0374 82.3934L59.7349 79.5409L63.1124 81.4484L63.6199 80.6609L58.6674 77.7209L63.3574 72.4709H67.5749L70.7074 75.7959ZM79.6064 72.5934L83.0014 72.3834L85.6264 84.7734L80.0614 85.3859L79.6064 72.5934ZM98.598 75.7959L96.3405 78.5784L93.698 76.8809L93.033 77.7209L97.758 81.1859L95.4655 85.5084H89.848L85.928 82.3934L87.6255 79.5409L91.003 81.4484L91.5105 80.6609L86.558 77.7209L91.248 72.4709H95.4655L98.598 75.7959ZM107.41 72.5409L120.342 72.7684V78.0184L115.967 77.3009L117.175 85.5434H110.91L111.855 77.3009L107.41 77.0734V72.5409ZM121.252 73.3109L125.662 72.4709L125.872 77.8084L128.445 77.4234L128.602 72.7159L132.207 72.8734L132.907 85.4384L128.847 85.2984L128.812 81.3609L126.362 81.8334L126.45 85.4384H122.652L121.252 73.3109ZM134.211 72.4884H142.786L142.069 76.1109L137.851 76.7584L137.799 77.6509L141.526 77.9309L141.351 80.7134L138.026 81.0109L138.324 81.9559L142.366 81.9909L143.854 85.4734H134.211L133.266 77.1084L134.211 72.4884ZM152.993 72.4884H161.568L160.851 76.1109L156.633 76.7584L156.581 77.6509L160.308 77.9309L160.133 80.7134L156.808 81.0109L157.106 81.9559L161.148 81.9909L162.636 85.4734H152.993L152.048 77.1084L152.993 72.4884ZM165.58 72.5934L168.327 75.3934L170.357 72.4009L173.682 75.5859L171.267 78.4384L175.257 81.5709L171.932 85.4034L169.062 81.6584L165.422 85.3159L162.08 82.0084L165.947 78.5259L163.007 75.2359L165.58 72.5934ZM183.25 72.5584L188.78 84.6159L183.495 85.4559L183.075 82.3584L178.823 82.2534L177.86 85.5609L172.768 84.6509L179.75 72.9084L183.25 72.5584ZM180.643 77.1434L179.925 78.9284L182.603 78.9984L181.99 77.1959L180.643 77.1434ZM187.971 84.1959L194.219 72.6284H197.911L199.136 76.1284L201.306 72.6109L204.579 72.5409L208.166 85.1234L203.494 85.5084L202.601 82.3234L201.534 79.2434L198.314 82.1134L195.846 78.8409L192.889 85.1234L187.971 84.1959ZM215.94 72.5759L219.02 74.6934L219.265 79.8734L216.15 82.8834L212.283 83.1284V85.5959H208.205L208.853 72.5759H215.94ZM213 76.5659L212.878 78.6834L214.033 78.8409L215.503 77.1084L213 76.5659ZM224.196 72.9784L223.688 80.8184L229.061 80.1709L229.551 84.2134L219.821 85.3684L219.331 72.4184L224.196 72.9784ZM231.384 72.4884H239.959L239.242 76.1109L235.024 76.7584L234.972 77.6509L238.699 77.9309L238.524 80.7134L235.199 81.0109L235.497 81.9559L239.539 81.9909L241.027 85.4734H231.384L230.439 77.1084L231.384 72.4884ZM38.4589 96.7959L36.2014 99.5784L33.5589 97.8809L32.8939 98.7209L37.6189 102.186L35.3264 106.508H29.7089L25.7889 103.393L27.4864 100.541L30.8639 102.448L31.3714 101.661L26.4189 98.7209L31.1089 93.4709H35.3264L38.4589 96.7959ZM39.4654 93.4884H48.0404L47.3229 97.1109L43.1054 97.7584L43.0529 98.6509L46.7804 98.9309L46.6054 101.713L43.2804 102.011L43.5779 102.956L47.6204 102.991L49.1079 106.473H39.4654L38.5204 98.1084L39.4654 93.4884ZM48.5521 106.298L50.8796 93.5409H53.5221L55.9896 97.6009L56.1996 93.5409L60.2596 94.1709L59.4021 106.456L56.0421 106.246L53.4521 102.291L52.6996 106.473L48.5521 106.298ZM60.5663 93.5409L73.4988 93.7684V99.0184L69.1238 98.3009L70.3313 106.543H64.0663L65.0113 98.3009L60.5663 98.0734V93.5409ZM75.3541 93.4884H83.9291L83.2116 97.1109L78.9941 97.7584L78.9416 98.6509L82.6691 98.9309L82.4941 101.713L79.1691 102.011L79.4666 102.956L83.5091 102.991L84.9966 106.473H75.3541L74.4091 98.1084L75.3541 93.4884ZM84.4408 106.298L86.7683 93.5409H89.4108L91.8783 97.6009L92.0883 93.5409L96.1483 94.1709L95.2908 106.456L91.9308 106.246L89.3408 102.291L88.5883 106.473L84.4408 106.298ZM101.477 93.5059L106.307 93.8209L106.115 98.4584L102.965 96.9884L100.217 98.2659L100.095 101.241L102.51 102.886L106.062 101.031L107.252 105.913L100.27 106.526L96.8575 103.533L95.8425 99.7709L97.4175 95.7284L101.477 93.5059ZM108.167 93.4884H116.742L116.024 97.1109L111.807 97.7584L111.754 98.6509L115.482 98.9309L115.307 101.713L111.982 102.011L112.279 102.956L116.322 102.991L117.809 106.473H108.167L107.222 98.1084L108.167 93.4884ZM132.443 93.5059L136.118 96.5159L136.871 103.533L133.248 106.491H126.003V94.2934L132.443 93.5059ZM130.011 98.1784V101.993L132.373 101.171V99.2634L130.011 98.1784ZM138.057 93.4884H146.632L145.914 97.1109L141.697 97.7584L141.644 98.6509L145.372 98.9309L145.197 101.713L141.872 102.011L142.169 102.956L146.212 102.991L147.699 106.473H138.057L137.112 98.1084L138.057 93.4884ZM159.831 96.7959L157.573 99.5784L154.931 97.8809L154.266 98.7209L158.991 102.186L156.698 106.508H151.081L147.161 103.393L148.858 100.541L152.236 102.448L152.743 101.661L147.791 98.7209L152.481 93.4709H156.698L159.831 96.7959ZM164.915 93.5059L169.745 93.8209L169.552 98.4584L166.402 96.9884L163.655 98.2659L163.532 101.241L165.947 102.886L169.5 101.031L170.69 105.913L163.707 106.526L160.295 103.533L159.28 99.7709L160.855 95.7284L164.915 93.5059ZM177.922 93.5934L181.159 95.9559L181.457 100.033L179.637 102.063L182.874 104.916L179.077 106.561L175.104 103.166L175.699 106.543H171.674L170.659 94.1534L177.922 93.5934ZM175.104 97.2159L174.999 99.7009L176.067 99.8409L177.134 98.3009L175.104 97.2159ZM182.59 93.5934L185.985 93.3834L188.61 105.773L183.045 106.386L182.59 93.5934ZM191.309 93.4534L197.381 94.1709L198.781 96.4109L198.676 98.8084L197.766 100.173L199.044 100.908L199.901 103.411L198.921 105.738L196.891 106.456L189.261 106.508L188.911 94.2059L191.309 93.4534ZM193.391 103.866L195.176 103.481V102.291L193.391 101.678V103.866ZM193.164 98.4409L194.931 98.0734V96.6384L193.164 96.2534V98.4409ZM199.577 93.5934L202.972 93.3834L205.597 105.773L200.032 106.386L199.577 93.5934ZM205.881 106.298L208.209 93.5409H210.851L213.319 97.6009L213.529 93.5409L217.589 94.1709L216.731 106.456L213.371 106.246L210.781 102.291L210.029 106.473L205.881 106.298ZM228.868 96.1834L225.875 97.8634L224.668 97.1984L222.883 97.7409L221.815 100.278L222.935 102.641L226.155 102.256L226.225 101.678L223.74 101.906L224.055 98.3884L229.235 98.4584V105.371L220.538 106.491L217.895 101.118L218.858 96.1834L222.568 93.4884L227.118 93.8034L228.868 96.1834ZM238.318 93.5409L251.25 93.7684V99.0184L246.875 98.3009L248.083 106.543H241.818L242.763 98.3009L238.318 98.0734V93.5409ZM252.161 94.3109L256.571 93.4709L256.781 98.8084L259.353 98.4234L259.511 93.7159L263.116 93.8734L263.816 106.438L259.756 106.298L259.721 102.361L257.271 102.833L257.358 106.438H253.561L252.161 94.3109ZM265.12 93.4884H273.695L272.977 97.1109L268.76 97.7584L268.707 98.6509L272.435 98.9309L272.26 101.713L268.935 102.011L269.232 102.956L273.275 102.991L274.762 106.473H265.12L264.175 98.1084L265.12 93.4884ZM30.6364 114.978L30.1289 122.818L35.5014 122.171L35.9914 126.213L26.2614 127.368L25.7714 114.418L30.6364 114.978ZM46.0148 114.698L49.8298 119.441L48.7448 125.688L41.8323 127.491L36.3198 122.626L37.1423 117.148L41.2548 114.541L46.0148 114.698ZM42.2873 119.108L41.3948 121.103L42.9348 122.136L44.5623 121.541L44.4748 119.598L42.2873 119.108ZM55.1811 114.506L60.0111 114.821L59.8186 119.458L56.6686 117.988L53.9211 119.266L53.7986 122.241L56.2136 123.886L59.7661 122.031L60.9561 126.913L53.9736 127.526L50.5611 124.533L49.5461 120.771L51.1211 116.728L55.1811 114.506ZM68.7827 114.558L74.3127 126.616L69.0277 127.456L68.6077 124.358L64.3552 124.253L63.3927 127.561L58.3002 126.651L65.2827 114.908L68.7827 114.558ZM66.1752 119.143L65.4577 120.928L68.1352 120.998L67.5227 119.196L66.1752 119.143ZM73.5033 114.541L86.4358 114.768V120.018L82.0608 119.301L83.2683 127.543H77.0033L77.9483 119.301L73.5033 119.073V114.541ZM87.4336 114.593L90.8286 114.383L93.4536 126.773L87.8886 127.386L87.4336 114.593ZM102.873 114.698L106.688 119.441L105.603 125.688L98.6902 127.491L93.1777 122.626L94.0002 117.148L98.1127 114.541L102.873 114.698ZM99.1452 119.108L98.2527 121.103L99.7927 122.136L101.42 121.541L101.333 119.598L99.1452 119.108ZM107.016 127.298L109.344 114.541H111.986L114.454 118.601L114.664 114.541L118.724 115.171L117.866 127.456L114.506 127.246L111.916 123.291L111.164 127.473L107.016 127.298ZM120.903 124.498H122.286L123.108 125.933L122.531 127.001L120.903 127.368L120.151 126.091L120.903 124.498Z" fill="#77684D"/>
<g clip-path="url(#clip0_605_1607)">
<path d="M272.482 152.168L319.658 148.899L352.94 152.168L360.529 188.296L358.335 204.118L302.303 209.332L266.865 206.41L264.849 165.325L272.482 152.168Z" fill="#353535"/>
<path d="M266.951 166.565L274.081 154.878L319.435 151.889L351.193 154.856L358.426 187.601L356.387 201.583L302.619 206.341L268.867 203.696L266.951 166.565Z" fill="#ED4650" stroke="white" stroke-width="1.25"/>
</g>
<g filter="url(#filter2_d_605_1607)">
<mask id="path-8-outside-2_605_1607" maskUnits="userSpaceOnUse" x="279.771" y="164.776" width="62" height="23" fill="black">
<rect fill="white" x="279.771" y="164.776" width="62" height="23"/>
<path d="M281.099 167.301L285.949 167.001L289.699 184.701L281.749 185.576L281.099 167.301ZM290.105 185.451L293.43 167.226H297.205L300.73 173.026L301.03 167.226L306.83 168.126L305.605 185.676L300.805 185.376L297.105 179.726L296.03 185.701L290.105 185.451ZM308.493 167.126L321.093 167.226L320.393 173.251L313.518 172.476L313.418 174.476L319.243 174.176L318.293 179.676L313.418 179.051L314.468 185.701H307.818L307.293 172.201L308.493 167.126ZM334.649 167.451L340.099 174.226L338.549 183.151L328.674 185.726L320.799 178.776L321.974 170.951L327.849 167.226L334.649 167.451ZM329.324 173.751L328.049 176.601L330.249 178.076L332.574 177.226L332.449 174.451L329.324 173.751Z"/>
</mask>
<path d="M281.099 167.301L285.949 167.001L289.699 184.701L281.749 185.576L281.099 167.301ZM290.105 185.451L293.43 167.226H297.205L300.73 173.026L301.03 167.226L306.83 168.126L305.605 185.676L300.805 185.376L297.105 179.726L296.03 185.701L290.105 185.451ZM308.493 167.126L321.093 167.226L320.393 173.251L313.518 172.476L313.418 174.476L319.243 174.176L318.293 179.676L313.418 179.051L314.468 185.701H307.818L307.293 172.201L308.493 167.126ZM334.649 167.451L340.099 174.226L338.549 183.151L328.674 185.726L320.799 178.776L321.974 170.951L327.849 167.226L334.649 167.451ZM329.324 173.751L328.049 176.601L330.249 178.076L332.574 177.226L332.449 174.451L329.324 173.751Z" fill="white"/>
<path d="M281.099 167.301L281.022 166.053L279.807 166.128L279.85 167.345L281.099 167.301ZM285.949 167.001L287.172 166.742L286.948 165.687L285.872 165.753L285.949 167.001ZM289.699 184.701L289.836 185.943L291.208 185.792L290.922 184.442L289.699 184.701ZM281.749 185.576L280.5 185.62L280.548 186.966L281.886 186.818L281.749 185.576ZM281.176 168.548L286.026 168.248L285.872 165.753L281.022 166.053L281.176 168.548ZM284.726 167.26L288.476 184.96L290.922 184.442L287.172 166.742L284.726 167.26ZM289.562 183.458L281.612 184.333L281.886 186.818L289.836 185.943L289.562 183.458ZM282.998 185.531L282.348 167.256L279.85 167.345L280.5 185.62L282.998 185.531ZM290.105 185.451L288.875 185.227L288.617 186.639L290.052 186.7L290.105 185.451ZM293.43 167.226V165.976H292.387L292.2 167.002L293.43 167.226ZM297.205 167.226L298.273 166.577L297.908 165.976H297.205V167.226ZM300.73 173.026L299.662 173.675L301.769 177.142L301.978 173.09L300.73 173.026ZM301.03 167.226L301.222 165.991L299.853 165.778L299.782 167.161L301.03 167.226ZM306.83 168.126L308.077 168.213L308.157 167.067L307.022 166.891L306.83 168.126ZM305.605 185.676L305.527 186.923L306.765 187.001L306.852 185.763L305.605 185.676ZM300.805 185.376L299.759 186.061L300.102 186.584L300.727 186.623L300.805 185.376ZM297.105 179.726L298.151 179.041L296.431 176.415L295.875 179.505L297.105 179.726ZM296.03 185.701L295.977 186.95L297.067 186.996L297.26 185.922L296.03 185.701ZM291.335 185.675L294.66 167.45L292.2 167.002L288.875 185.227L291.335 185.675ZM293.43 168.476H297.205V165.976H293.43V168.476ZM296.137 167.875L299.662 173.675L301.798 172.377L298.273 166.577L296.137 167.875ZM301.978 173.09L302.278 167.29L299.782 167.161L299.482 172.961L301.978 173.09ZM300.838 168.461L306.638 169.361L307.022 166.891L301.222 165.991L300.838 168.461ZM305.583 168.039L304.358 185.589L306.852 185.763L308.077 168.213L305.583 168.039ZM305.683 184.428L300.883 184.128L300.727 186.623L305.527 186.923L305.683 184.428ZM301.851 184.691L298.151 179.041L296.059 180.411L299.759 186.061L301.851 184.691ZM295.875 179.505L294.8 185.48L297.26 185.922L298.335 179.947L295.875 179.505ZM296.083 184.452L290.158 184.202L290.052 186.7L295.977 186.95L296.083 184.452ZM308.493 167.126L308.503 165.876L307.506 165.868L307.276 166.838L308.493 167.126ZM321.093 167.226L322.335 167.37L322.495 165.987L321.103 165.976L321.093 167.226ZM320.393 173.251L320.253 174.493L321.491 174.633L321.635 173.395L320.393 173.251ZM313.518 172.476L313.658 171.234L312.336 171.085L312.27 172.413L313.518 172.476ZM313.418 174.476L312.17 174.413L312.1 175.795L313.482 175.724L313.418 174.476ZM319.243 174.176L320.475 174.389L320.741 172.847L319.179 172.928L319.243 174.176ZM318.293 179.676L318.134 180.916L319.321 181.068L319.525 179.889L318.293 179.676ZM313.418 179.051L313.577 177.811L311.923 177.599L312.183 179.246L313.418 179.051ZM314.468 185.701V186.951H315.931L315.703 185.506L314.468 185.701ZM307.818 185.701L306.569 185.749L306.616 186.951H307.818V185.701ZM307.293 172.201L306.076 171.913L306.037 172.079L306.044 172.249L307.293 172.201ZM308.483 168.376L321.083 168.476L321.103 165.976L308.503 165.876L308.483 168.376ZM319.851 167.082L319.151 173.107L321.635 173.395L322.335 167.37L319.851 167.082ZM320.533 172.009L313.658 171.234L313.378 173.718L320.253 174.493L320.533 172.009ZM312.27 172.413L312.17 174.413L314.666 174.538L314.766 172.538L312.27 172.413ZM313.482 175.724L319.307 175.424L319.179 172.928L313.354 173.228L313.482 175.724ZM318.011 173.963L317.061 179.463L319.525 179.889L320.475 174.389L318.011 173.963ZM318.452 178.436L313.577 177.811L313.259 180.291L318.134 180.916L318.452 178.436ZM312.183 179.246L313.233 185.896L315.703 185.506L314.653 178.856L312.183 179.246ZM314.468 184.451H307.818V186.951H314.468V184.451ZM309.067 185.652L308.542 172.152L306.044 172.249L306.569 185.749L309.067 185.652ZM308.509 172.489L309.709 167.414L307.276 166.838L306.076 171.913L308.509 172.489ZM334.649 167.451L335.623 166.667L335.264 166.221L334.69 166.202L334.649 167.451ZM340.099 174.226L341.331 174.44L341.427 173.883L341.073 173.442L340.099 174.226ZM338.549 183.151L338.864 184.36L339.643 184.157L339.781 183.365L338.549 183.151ZM328.674 185.726L327.847 186.663L328.346 187.103L328.989 186.935L328.674 185.726ZM320.799 178.776L319.563 178.59L319.462 179.263L319.972 179.713L320.799 178.776ZM321.974 170.951L321.305 169.895L320.823 170.201L320.738 170.765L321.974 170.951ZM327.849 167.226L327.89 165.977L327.505 165.964L327.18 166.17L327.849 167.226ZM329.324 173.751L329.597 172.531L328.6 172.308L328.183 173.24L329.324 173.751ZM328.049 176.601L326.908 176.09L326.478 177.052L327.353 177.639L328.049 176.601ZM330.249 178.076L329.553 179.114L330.081 179.468L330.678 179.25L330.249 178.076ZM332.574 177.226L333.003 178.4L333.864 178.085L333.823 177.17L332.574 177.226ZM332.449 174.451L333.698 174.395L333.655 173.44L332.722 173.231L332.449 174.451ZM333.675 168.234L339.125 175.009L341.073 173.442L335.623 166.667L333.675 168.234ZM338.867 174.012L337.317 182.937L339.781 183.365L341.331 174.44L338.867 174.012ZM338.234 181.941L328.359 184.516L328.989 186.935L338.864 184.36L338.234 181.941ZM329.501 184.789L321.626 177.839L319.972 179.713L327.847 186.663L329.501 184.789ZM322.035 178.961L323.21 171.136L320.738 170.765L319.563 178.59L322.035 178.961ZM322.643 172.007L328.518 168.282L327.18 166.17L321.305 169.895L322.643 172.007ZM327.808 168.475L334.608 168.7L334.69 166.202L327.89 165.977L327.808 168.475ZM328.183 173.24L326.908 176.09L329.19 177.111L330.465 174.261L328.183 173.24ZM327.353 177.639L329.553 179.114L330.945 177.038L328.745 175.563L327.353 177.639ZM330.678 179.25L333.003 178.4L332.145 176.052L329.82 176.902L330.678 179.25ZM333.823 177.17L333.698 174.395L331.2 174.507L331.325 177.282L333.823 177.17ZM332.722 173.231L329.597 172.531L329.051 174.971L332.176 175.671L332.722 173.231Z" fill="#353535" mask="url(#path-8-outside-2_605_1607)"/>
</g>
<defs>
<filter id="filter0_dd_605_1607" x="0.885498" y="0.463501" width="359.772" height="225.653" filterUnits="userSpaceOnUse" color-interpolation-filters="sRGB">
<feFlood flood-opacity="0" result="BackgroundImageFix"/>
<feColorMatrix in="SourceAlpha" type="matrix" values="0 0 0 0 0 0 0 0 0 0 0 0 0 0 0 0 0 0 127 0" result="hardAlpha"/>
<feOffset dx="5" dy="5"/>
<feGaussianBlur stdDeviation="5"/>
<feComposite in2="hardAlpha" operator="out"/>
<feColorMatrix type="matrix" values="0 0 0 0 0 0 0 0 0 0 0 0 0 0 0 0 0 0 0.15 0"/>
<feBlend mode="normal" in2="BackgroundImageFix" result="effect1_dropShadow_605_1607"/>
<feColorMatrix in="SourceAlpha" type="matrix" values="0 0 0 0 0 0 0 0 0 0 0 0 0 0 0 0 0 0 127 0" result="hardAlpha"/>
<feOffset dx="5" dy="5"/>
<feComposite in2="hardAlpha" operator="out"/>
<feColorMatrix type="matrix" values="0 0 0 0 0.784948 0 0 0 0 0.738688 0 0 0 0 0.64889 0 0 0 1 0"/>
<feBlend mode="normal" in2="effect1_dropShadow_605_1607" result="effect2_dropShadow_605_1607"/>
<feBlend mode="normal" in="SourceGraphic" in2="effect2_dropShadow_605_1607" result="shape"/>
</filter>
<filter id="filter1_d_605_1607" x="98.0085" y="22.7509" width="150.919" height="21.375" filterUnits="userSpaceOnUse" color-interpolation-filters="sRGB">
<feFlood flood-opacity="0" result="BackgroundImageFix"/>
<feColorMatrix in="SourceAlpha" type="matrix" values="0 0 0 0 0 0 0 0 0 0 0 0 0 0 0 0 0 0 127 0" result="hardAlpha"/>
<feOffset dx="1.25" dy="2.5"/>
<feComposite in2="hardAlpha" operator="out"/>
<feColorMatrix type="matrix" values="0 0 0 0 0.208281 0 0 0 0 0.208281 0 0 0 0 0.208281 0 0 0 1 0"/>
<feBlend mode="normal" in2="BackgroundImageFix" result="effect1_dropShadow_605_1607"/>
<feBlend mode="normal" in="SourceGraphic" in2="effect1_dropShadow_605_1607" result="shape"/>
</filter>
<filter id="filter2_d_605_1607" x="281.099" y="167.001" width="60.25" height="21.225" filterUnits="userSpaceOnUse" color-interpolation-filters="sRGB">
<feFlood flood-opacity="0" result="BackgroundImageFix"/>
<feColorMatrix in="SourceAlpha" type="matrix" values="0 0 0 0 0 0 0 0 0 0 0 0 0 0 0 0 0 0 127 0" result="hardAlpha"/>
<feOffset dx="1.25" dy="2.5"/>
<feComposite in2="hardAlpha" operator="out"/>
<feColorMatrix type="matrix" values="0 0 0 0 0.208281 0 0 0 0 0.208281 0 0 0 0 0.208281 0 0 0 1 0"/>
<feBlend mode="normal" in2="BackgroundImageFix" result="effect1_dropShadow_605_1607"/>
<feBlend mode="normal" in="SourceGraphic" in2="effect1_dropShadow_605_1607" result="shape"/>
</filter>
<clipPath id="clip0_605_1607">
<rect width="95.6808" height="60.4328" fill="white" transform="translate(264.849 148.899)"/>
</clipPath>
</defs>
</svg>
