<svg width="102" height="104" viewBox="0 0 102 104" fill="none" xmlns="http://www.w3.org/2000/svg">
<g id="Group 148" opacity="0.1">
<path id="Vector 89" d="M48.9436 71.2645C47.8577 68.8086 47.6403 63.0526 47.6674 60.4815C48.8352 52.7251 55.9702 48.6601 58.161 48.1682C60.3517 47.6763 67.243 45.6199 73.4912 44.0274C79.7394 42.4349 83.3991 45.1813 84.9255 46.9394C86.4519 48.6975 90.3207 54.5212 82.3443 61.8243C74.3679 69.1275 67.4378 80.0292 67.1056 81.1542C66.7735 82.2792 60.7331 91.5246 52.7624 87.7374C46.386 84.7076 47.5597 75.4931 48.9436 71.2645Z" fill="#BEAFA5"/>
<path id="Vector 85" d="M25.5772 84.7745C17.7385 79.7154 18.5554 73.481 19.9437 70.9962L21.074 69.5624C22.5605 68.1375 27.2848 66.2638 34.2907 70.1684C43.0481 75.0493 41.0683 81.1138 40.201 82.6087C39.3337 84.1037 35.3755 91.0985 25.5772 84.7745Z" fill="#BEAFA5"/>
<path id="Vector 86" d="M25.4599 59.8551C16.8554 56.2493 16.5661 49.9683 17.497 47.2785L18.3584 45.6687C19.5718 44.0051 23.8943 41.3318 31.4765 43.9471C40.9542 47.2162 40.0688 53.534 39.4772 55.1578C38.8855 56.7817 36.2156 64.3624 25.4599 59.8551Z" fill="#BEAFA5"/>
<path id="Vector 87" d="M37.8691 38.744C31.819 31.6421 34.3963 25.9069 36.4412 23.9271L37.9365 22.8795C39.7703 21.9428 44.8341 21.5087 50.4191 27.2652C57.4003 34.4608 53.7582 39.6985 52.4972 40.8804C51.2362 42.0623 45.4317 47.6213 37.8691 38.744Z" fill="#BEAFA5"/>
<path id="Vector 88" d="M65.1626 33.4003C57.7757 27.7016 59.1125 21.5577 60.7043 19.1981L61.9509 17.8641C63.5516 16.5689 68.4165 15.0979 75.0703 19.5763C83.3875 25.1743 80.9061 31.0514 79.9165 32.4684C78.9269 33.8853 74.3961 40.5236 65.1626 33.4003Z" fill="#BEAFA5"/>
</g>
</svg>
