<svg width="121" height="118" viewBox="0 0 121 118" fill="none" xmlns="http://www.w3.org/2000/svg">
<g id="Group 147" opacity="0.1">
<path id="Vector 89" d="M38.3467 56.0893C41.2285 54.9361 47.887 54.9222 50.856 55.0594C59.7682 56.728 64.1701 65.138 64.6481 67.6891C65.1261 70.2401 67.2177 78.2857 68.8 85.5694C70.3822 92.853 67.0587 96.9676 64.9648 98.6585C62.8709 100.349 55.9839 104.579 47.8759 95.0633C39.7678 85.5479 27.4596 77.093 26.1736 76.6629C24.8877 76.2328 14.4561 68.8739 19.1597 59.8222C22.9225 52.5808 33.5189 54.3164 38.3467 56.0893Z" fill="#BEAFA5"/>
<path id="Vector 85" d="M23.7025 28.5394C29.87 19.6925 37.0383 20.8931 39.8516 22.5992L41.4614 23.9641C43.0462 25.74 45.0161 31.2749 40.2167 39.2073C34.2175 49.1228 27.2932 46.5858 25.602 45.5223L25.5648 45.499C23.7986 44.3892 16.0482 39.5192 23.7025 28.5394Z" fill="#BEAFA5"/>
<path id="Vector 86" d="M52.4947 29.4308C57.0147 19.6393 64.2825 19.5639 67.3514 20.7501L69.1757 21.8115C71.0474 23.2819 73.9576 28.3854 70.624 37.0367C66.4569 47.8508 59.195 46.5676 57.3435 45.8172L57.3028 45.8008C55.3693 45.018 46.8849 41.5829 52.4947 29.4308Z" fill="#BEAFA5"/>
<path id="Vector 87" d="M76.3713 44.6359C84.8247 37.9394 91.3439 41.153 93.5468 43.5969L94.6954 45.3675C95.7018 47.5245 95.9947 53.3922 89.1146 59.6068C80.5145 67.3752 74.6139 62.9519 73.3005 61.4465L73.2717 61.4135C71.8998 59.8422 65.8798 52.9469 76.3713 44.6359Z" fill="#BEAFA5"/>
<path id="Vector 88" d="M81.4197 76.386C88.3073 68.0874 95.3497 69.8848 98.01 71.8209L99.4997 73.3159C100.93 75.2185 102.429 80.899 96.9812 88.4011C90.1716 97.7786 83.4845 94.6699 81.8884 93.4683L81.8533 93.442C80.1864 92.188 72.8717 86.6852 81.4197 76.386Z" fill="#BEAFA5"/>
</g>
</svg>
