<svg width="361" height="226" viewBox="0 0 361 226" fill="none" xmlns="http://www.w3.org/2000/svg">
<g filter="url(#filter0_dd_292_3389)">
<path d="M19.2666 5.25049H330.196L345.386 144.746L326.662 191.845L175.975 186.323L168.939 210.903L158.373 185.677L24.6616 194.277L5.61426 180.079L5.61426 42.9872L19.2666 5.25049Z" fill="#FFFAE7"/>
<path d="M175.374 186.151L168.828 209.02L158.949 185.436L158.777 185.025L158.333 185.054L24.8508 193.639L6.23926 179.765V43.0968L19.7052 5.87549H329.635L344.748 144.659L326.245 191.205L175.998 185.698L175.509 185.68L175.374 186.151Z" stroke="#C8BCA5" stroke-width="1.25"/>
</g>
<g filter="url(#filter1_d_292_3389)">
<mask id="path-3-outside-1_292_3389" maskUnits="userSpaceOnUse" x="95.5001" y="20.3129" width="151" height="23" fill="black">
<rect fill="white" x="95.5001" y="20.3129" width="151" height="23"/>
<path d="M112.741 22.7879L120.641 40.0129L113.091 41.2129L112.491 36.7879L106.416 36.6379L105.041 41.3629L97.7657 40.0629L107.741 23.2879L112.741 22.7879ZM109.016 29.3379L107.991 31.8879L111.816 31.9879L110.941 29.4129L109.016 29.3379ZM129.859 22.8379L134.484 26.2129L134.909 32.0379L132.309 34.9379L136.934 39.0129L131.509 41.3629L125.834 36.5129L126.684 41.3379H120.934L119.484 23.6379L129.859 22.8379ZM125.834 28.0129L125.684 31.5629L127.209 31.7629L128.734 29.5629L125.834 28.0129ZM139.853 22.6379L148.528 23.6629L150.528 26.8629L150.378 30.2879L149.078 32.2379L150.903 33.2879L152.128 36.8629L150.728 40.1879L147.828 41.2129L136.928 41.2879L136.428 23.7129L139.853 22.6379ZM142.828 37.5129L145.378 36.9629V35.2629L142.828 34.3879V37.5129ZM142.503 29.7629L145.028 29.2379V27.1879L142.503 26.6379V29.7629ZM151.665 22.8379L156.515 22.5379L160.265 40.2379L152.315 41.1129L151.665 22.8379ZM160.671 22.7629L179.146 23.0879V30.5879L172.896 29.5629L174.621 41.3379H165.671L167.021 29.5629L160.671 29.2379V22.7629ZM190.821 22.8379L195.446 26.2129L195.871 32.0379L193.271 34.9379L197.896 39.0129L192.471 41.3629L186.796 36.5129L187.646 41.3379H181.896L180.446 23.6379L190.821 22.8379ZM186.796 28.0129L186.646 31.5629L188.171 31.7629L189.696 29.5629L186.796 28.0129ZM197.14 22.8379H205.215L204.84 35.4629L207.965 33.2129L207.04 24.1879H214.715V36.3379L210.24 41.3879H200.815L197.14 36.8879V22.8379ZM215.578 39.4129L224.503 22.8879H229.778L231.528 27.8879L234.628 22.8629L239.303 22.7629L244.428 40.7379L237.753 41.2879L236.478 36.7379L234.953 32.3379L230.353 36.4379L226.828 31.7629L222.603 40.7379L215.578 39.4129Z"/>
</mask>
<path d="M112.741 22.7879L120.641 40.0129L113.091 41.2129L112.491 36.7879L106.416 36.6379L105.041 41.3629L97.7657 40.0629L107.741 23.2879L112.741 22.7879ZM109.016 29.3379L107.991 31.8879L111.816 31.9879L110.941 29.4129L109.016 29.3379ZM129.859 22.8379L134.484 26.2129L134.909 32.0379L132.309 34.9379L136.934 39.0129L131.509 41.3629L125.834 36.5129L126.684 41.3379H120.934L119.484 23.6379L129.859 22.8379ZM125.834 28.0129L125.684 31.5629L127.209 31.7629L128.734 29.5629L125.834 28.0129ZM139.853 22.6379L148.528 23.6629L150.528 26.8629L150.378 30.2879L149.078 32.2379L150.903 33.2879L152.128 36.8629L150.728 40.1879L147.828 41.2129L136.928 41.2879L136.428 23.7129L139.853 22.6379ZM142.828 37.5129L145.378 36.9629V35.2629L142.828 34.3879V37.5129ZM142.503 29.7629L145.028 29.2379V27.1879L142.503 26.6379V29.7629ZM151.665 22.8379L156.515 22.5379L160.265 40.2379L152.315 41.1129L151.665 22.8379ZM160.671 22.7629L179.146 23.0879V30.5879L172.896 29.5629L174.621 41.3379H165.671L167.021 29.5629L160.671 29.2379V22.7629ZM190.821 22.8379L195.446 26.2129L195.871 32.0379L193.271 34.9379L197.896 39.0129L192.471 41.3629L186.796 36.5129L187.646 41.3379H181.896L180.446 23.6379L190.821 22.8379ZM186.796 28.0129L186.646 31.5629L188.171 31.7629L189.696 29.5629L186.796 28.0129ZM197.14 22.8379H205.215L204.84 35.4629L207.965 33.2129L207.04 24.1879H214.715V36.3379L210.24 41.3879H200.815L197.14 36.8879V22.8379ZM215.578 39.4129L224.503 22.8879H229.778L231.528 27.8879L234.628 22.8629L239.303 22.7629L244.428 40.7379L237.753 41.2879L236.478 36.7379L234.953 32.3379L230.353 36.4379L226.828 31.7629L222.603 40.7379L215.578 39.4129Z" fill="white"/>
<path d="M112.741 22.7879L113.877 22.2668L113.505 21.4552L112.616 21.5441L112.741 22.7879ZM120.641 40.0129L120.837 41.2474L122.464 40.9888L121.777 39.4918L120.641 40.0129ZM113.091 41.2129L111.852 41.3808L112.024 42.6481L113.287 42.4474L113.091 41.2129ZM112.491 36.7879L113.729 36.6199L113.586 35.5645L112.522 35.5382L112.491 36.7879ZM106.416 36.6379L106.447 35.3882L105.484 35.3645L105.216 36.2886L106.416 36.6379ZM105.041 41.3629L104.821 42.5934L105.927 42.791L106.241 41.7121L105.041 41.3629ZM97.7657 40.0629L96.6913 39.424L95.7686 40.9758L97.5459 41.2934L97.7657 40.0629ZM107.741 23.2879L107.616 22.0441L106.989 22.1068L106.666 22.649L107.741 23.2879ZM109.016 29.3379L109.064 28.0888L108.184 28.0545L107.856 28.8717L109.016 29.3379ZM107.991 31.8879L106.831 31.4217L106.16 33.0904L107.958 33.1374L107.991 31.8879ZM111.816 31.9879L111.783 33.2374L113.576 33.2843L112.999 31.5857L111.816 31.9879ZM110.941 29.4129L112.124 29.0107L111.848 28.1973L110.989 28.1638L110.941 29.4129ZM111.605 23.309L119.505 40.534L121.777 39.4918L113.877 22.2668L111.605 23.309ZM120.445 38.7784L112.895 39.9784L113.287 42.4474L120.837 41.2474L120.445 38.7784ZM114.329 41.0449L113.729 36.6199L111.252 36.9558L111.852 41.3808L114.329 41.0449ZM112.522 35.5382L106.447 35.3882L106.385 37.8875L112.46 38.0375L112.522 35.5382ZM105.216 36.2886L103.841 41.0136L106.241 41.7121L107.616 36.9871L105.216 36.2886ZM105.261 40.1324L97.9856 38.8324L97.5459 41.2934L104.821 42.5934L105.261 40.1324ZM98.8401 40.7017L108.815 23.9267L106.666 22.649L96.6913 39.424L98.8401 40.7017ZM107.865 24.5317L112.865 24.0317L112.616 21.5441L107.616 22.0441L107.865 24.5317ZM107.856 28.8717L106.831 31.4217L109.151 32.3541L110.176 29.8041L107.856 28.8717ZM107.958 33.1374L111.783 33.2374L111.848 30.7383L108.023 30.6383L107.958 33.1374ZM112.999 31.5857L112.124 29.0107L109.757 29.815L110.632 32.39L112.999 31.5857ZM110.989 28.1638L109.064 28.0888L108.967 30.5869L110.892 30.6619L110.989 28.1638ZM129.859 22.8379L130.596 21.8281L130.224 21.5561L129.763 21.5916L129.859 22.8379ZM134.484 26.2129L135.731 26.1219L135.689 25.5444L135.221 25.2031L134.484 26.2129ZM134.909 32.0379L135.84 32.8723L136.195 32.4767L136.156 31.9469L134.909 32.0379ZM132.309 34.9379L131.379 34.1034L130.537 35.0422L131.483 35.8758L132.309 34.9379ZM136.934 39.0129L137.431 40.1599L139.239 39.377L137.761 38.075L136.934 39.0129ZM131.509 41.3629L130.697 42.3131L131.29 42.82L132.006 42.5099L131.509 41.3629ZM125.834 36.5129L126.647 35.5626L123.999 33.3001L124.603 36.7297L125.834 36.5129ZM126.684 41.3379V42.5879H128.174L127.916 41.121L126.684 41.3379ZM120.934 41.3379L119.689 41.4399L119.783 42.5879H120.934V41.3379ZM119.484 23.6379L119.388 22.3916L118.136 22.4881L118.239 23.7399L119.484 23.6379ZM125.834 28.0129L126.424 26.9105L124.67 25.9729L124.586 27.9601L125.834 28.0129ZM125.684 31.5629L124.436 31.5101L124.387 32.6534L125.522 32.8023L125.684 31.5629ZM127.209 31.7629L127.047 33.0023L127.803 33.1014L128.237 32.475L127.209 31.7629ZM128.734 29.5629L129.762 30.275L130.561 29.1218L129.324 28.4605L128.734 29.5629ZM129.123 23.8476L133.748 27.2226L135.221 25.2031L130.596 21.8281L129.123 23.8476ZM133.238 26.3038L133.663 32.1288L136.156 31.9469L135.731 26.1219L133.238 26.3038ZM133.979 31.2034L131.379 34.1034L133.24 35.7723L135.84 32.8723L133.979 31.2034ZM131.483 35.8758L136.108 39.9508L137.761 38.075L133.136 34L131.483 35.8758ZM136.438 37.8659L131.013 40.2159L132.006 42.5099L137.431 40.1599L136.438 37.8659ZM132.322 40.4126L126.647 35.5626L125.022 37.4631L130.697 42.3131L132.322 40.4126ZM124.603 36.7297L125.453 41.5547L127.916 41.121L127.066 36.296L124.603 36.7297ZM126.684 40.0879H120.934V42.5879H126.684V40.0879ZM122.18 41.2358L120.73 23.5358L118.239 23.7399L119.689 41.4399L122.18 41.2358ZM119.581 24.8842L129.956 24.0842L129.763 21.5916L119.388 22.3916L119.581 24.8842ZM124.586 27.9601L124.436 31.5101L126.933 31.6156L127.083 28.0656L124.586 27.9601ZM125.522 32.8023L127.047 33.0023L127.372 30.5235L125.847 30.3235L125.522 32.8023ZM128.237 32.475L129.762 30.275L127.707 28.8507L126.182 31.0507L128.237 32.475ZM129.324 28.4605L126.424 26.9105L125.245 29.1153L128.145 30.6653L129.324 28.4605ZM139.853 22.6379L140 21.3965L139.734 21.3651L139.479 21.4452L139.853 22.6379ZM148.528 23.6629L149.588 23.0004L149.271 22.4919L148.675 22.4215L148.528 23.6629ZM150.528 26.8629L151.777 26.9176L151.794 26.5296L151.588 26.2004L150.528 26.8629ZM150.378 30.2879L151.419 30.9812L151.612 30.691L151.627 30.3426L150.378 30.2879ZM149.078 32.2379L148.038 31.5445L147.298 32.6555L148.455 33.3213L149.078 32.2379ZM150.903 33.2879L152.086 32.8827L151.934 32.4385L151.527 32.2044L150.903 33.2879ZM152.128 36.8629L153.28 37.3479L153.465 36.9086L153.311 36.4577L152.128 36.8629ZM150.728 40.1879L151.145 41.3664L151.666 41.1823L151.88 40.6729L150.728 40.1879ZM147.828 41.2129L147.837 42.4628L148.047 42.4614L148.245 42.3914L147.828 41.2129ZM136.928 41.2879L135.679 41.3234L135.714 42.5463L136.937 42.5378L136.928 41.2879ZM136.428 23.7129L136.054 22.5202L135.152 22.8034L135.179 23.7484L136.428 23.7129ZM142.828 37.5129H141.578V39.0612L143.092 38.7348L142.828 37.5129ZM145.378 36.9629L145.642 38.1848L146.628 37.972V36.9629H145.378ZM145.378 35.2629H146.628V34.3702L145.784 34.0805L145.378 35.2629ZM142.828 34.3879L143.234 33.2055L141.578 32.6374V34.3879H142.828ZM142.503 29.7629H141.253V31.2995L142.758 30.9867L142.503 29.7629ZM145.028 29.2379L145.283 30.4617L146.278 30.2547V29.2379H145.028ZM145.028 27.1879H146.278V26.1808L145.294 25.9665L145.028 27.1879ZM142.503 26.6379L142.769 25.4165L141.253 25.0863V26.6379H142.503ZM139.707 23.8792L148.382 24.9042L148.675 22.4215L140 21.3965L139.707 23.8792ZM147.468 24.3254L149.468 27.5254L151.588 26.2004L149.588 23.0004L147.468 24.3254ZM149.28 26.8082L149.13 30.2332L151.627 30.3426L151.777 26.9176L149.28 26.8082ZM149.338 29.5945L148.038 31.5445L150.119 32.9312L151.419 30.9812L149.338 29.5945ZM148.455 33.3213L150.28 34.3713L151.527 32.2044L149.702 31.1544L148.455 33.3213ZM149.721 33.6931L150.946 37.2681L153.311 36.4577L152.086 32.8827L149.721 33.6931ZM150.976 36.3778L149.576 39.7028L151.88 40.6729L153.28 37.3479L150.976 36.3778ZM150.312 39.0093L147.412 40.0343L148.245 42.3914L151.145 41.3664L150.312 39.0093ZM147.82 39.9629L136.92 40.0379L136.937 42.5378L147.837 42.4628L147.82 39.9629ZM138.178 41.2523L137.678 23.6773L135.179 23.7484L135.679 41.3234L138.178 41.2523ZM136.803 24.9055L140.228 23.8305L139.479 21.4452L136.054 22.5202L136.803 24.9055ZM143.092 38.7348L145.642 38.1848L145.115 35.741L142.565 36.291L143.092 38.7348ZM146.628 36.9629V35.2629H144.128V36.9629H146.628ZM145.784 34.0805L143.234 33.2055L142.423 35.5702L144.973 36.4452L145.784 34.0805ZM141.578 34.3879V37.5129H144.078V34.3879H141.578ZM142.758 30.9867L145.283 30.4617L144.774 28.014L142.249 28.539L142.758 30.9867ZM146.278 29.2379V27.1879H143.778V29.2379H146.278ZM145.294 25.9665L142.769 25.4165L142.237 27.8592L144.762 28.4092L145.294 25.9665ZM141.253 26.6379V29.7629H143.753V26.6379H141.253ZM151.665 22.8379L151.588 21.5903L150.373 21.6654L150.416 22.8823L151.665 22.8379ZM156.515 22.5379L157.738 22.2788L157.514 21.2237L156.438 21.2902L156.515 22.5379ZM160.265 40.2379L160.402 41.4804L161.774 41.3293L161.488 39.9788L160.265 40.2379ZM152.315 41.1129L151.066 41.1573L151.114 42.5026L152.452 42.3554L152.315 41.1129ZM151.742 24.0855L156.592 23.7855L156.438 21.2902L151.588 21.5903L151.742 24.0855ZM155.292 22.7969L159.042 40.4969L161.488 39.9788L157.738 22.2788L155.292 22.7969ZM160.128 38.9954L152.178 39.8704L152.452 42.3554L160.402 41.4804L160.128 38.9954ZM153.564 41.0684L152.914 22.7934L150.416 22.8823L151.066 41.1573L153.564 41.0684ZM160.671 22.7629L160.693 21.5131L159.421 21.4907V22.7629H160.671ZM179.146 23.0879H180.396V21.8597L179.168 21.8381L179.146 23.0879ZM179.146 30.5879L178.944 31.8214L180.396 32.0596V30.5879H179.146ZM172.896 29.5629L173.098 28.3293L171.411 28.0527L171.659 29.7441L172.896 29.5629ZM174.621 41.3379V42.5879H176.067L175.858 41.1567L174.621 41.3379ZM165.671 41.3379L164.429 41.1955L164.27 42.5879H165.671V41.3379ZM167.021 29.5629L168.263 29.7052L168.415 28.3826L167.085 28.3145L167.021 29.5629ZM160.671 29.2379H159.421V30.4255L160.607 30.4862L160.671 29.2379ZM160.649 24.0127L179.124 24.3377L179.168 21.8381L160.693 21.5131L160.649 24.0127ZM177.896 23.0879V30.5879H180.396V23.0879H177.896ZM179.348 29.3543L173.098 28.3293L172.694 30.7964L178.944 31.8214L179.348 29.3543ZM171.659 29.7441L173.384 41.5191L175.858 41.1567L174.133 29.3817L171.659 29.7441ZM174.621 40.0879H165.671V42.5879H174.621V40.0879ZM166.913 41.4802L168.263 29.7052L165.779 29.4205L164.429 41.1955L166.913 41.4802ZM167.085 28.3145L160.735 27.9895L160.607 30.4862L166.957 30.8112L167.085 28.3145ZM161.921 29.2379V22.7629H159.421V29.2379H161.921ZM190.821 22.8379L191.558 21.8281L191.185 21.5561L190.725 21.5916L190.821 22.8379ZM195.446 26.2129L196.693 26.1219L196.651 25.5444L196.183 25.2031L195.446 26.2129ZM195.871 32.0379L196.802 32.8723L197.157 32.4767L197.118 31.9469L195.871 32.0379ZM193.271 34.9379L192.341 34.1034L191.499 35.0422L192.445 35.8758L193.271 34.9379ZM197.896 39.0129L198.393 40.1599L200.201 39.377L198.723 38.075L197.896 39.0129ZM192.471 41.3629L191.659 42.3131L192.252 42.82L192.968 42.5099L192.471 41.3629ZM186.796 36.5129L187.609 35.5626L184.961 33.3001L185.565 36.7297L186.796 36.5129ZM187.646 41.3379V42.5879H189.136L188.877 41.121L187.646 41.3379ZM181.896 41.3379L180.651 41.4399L180.745 42.5879H181.896V41.3379ZM180.446 23.6379L180.35 22.3916L179.098 22.4881L179.201 23.7399L180.446 23.6379ZM186.796 28.0129L187.386 26.9105L185.631 25.9729L185.548 27.9601L186.796 28.0129ZM186.646 31.5629L185.398 31.5101L185.349 32.6534L186.484 32.8023L186.646 31.5629ZM188.171 31.7629L188.009 33.0023L188.765 33.1014L189.199 32.475L188.171 31.7629ZM189.696 29.5629L190.724 30.275L191.523 29.1218L190.286 28.4605L189.696 29.5629ZM190.085 23.8476L194.71 27.2226L196.183 25.2031L191.558 21.8281L190.085 23.8476ZM194.2 26.3038L194.625 32.1288L197.118 31.9469L196.693 26.1219L194.2 26.3038ZM194.941 31.2034L192.341 34.1034L194.202 35.7723L196.802 32.8723L194.941 31.2034ZM192.445 35.8758L197.07 39.9508L198.723 38.075L194.098 34L192.445 35.8758ZM197.4 37.8659L191.975 40.2159L192.968 42.5099L198.393 40.1599L197.4 37.8659ZM193.284 40.4126L187.609 35.5626L185.984 37.4631L191.659 42.3131L193.284 40.4126ZM185.565 36.7297L186.415 41.5547L188.877 41.121L188.027 36.296L185.565 36.7297ZM187.646 40.0879H181.896V42.5879H187.646V40.0879ZM183.142 41.2358L181.692 23.5358L179.201 23.7399L180.651 41.4399L183.142 41.2358ZM180.543 24.8842L190.918 24.0842L190.725 21.5916L180.35 22.3916L180.543 24.8842ZM185.548 27.9601L185.398 31.5101L187.895 31.6156L188.045 28.0656L185.548 27.9601ZM186.484 32.8023L188.009 33.0023L188.334 30.5235L186.809 30.3235L186.484 32.8023ZM189.199 32.475L190.724 30.275L188.669 28.8507L187.144 31.0507L189.199 32.475ZM190.286 28.4605L187.386 26.9105L186.207 29.1153L189.107 30.6653L190.286 28.4605ZM197.14 22.8379V21.5879H195.89V22.8379H197.14ZM205.215 22.8379L206.465 22.875L206.503 21.5879H205.215V22.8379ZM204.84 35.4629L203.591 35.4258L203.516 37.9569L205.571 36.4773L204.84 35.4629ZM207.965 33.2129L208.696 34.2273L209.283 33.8048L209.209 33.0854L207.965 33.2129ZM207.04 24.1879V22.9379H205.656L205.797 24.3153L207.04 24.1879ZM214.715 24.1879H215.965V22.9379H214.715V24.1879ZM214.715 36.3379L215.651 37.1669L215.965 36.812V36.3379H214.715ZM210.24 41.3879V42.6379H210.803L211.176 42.2169L210.24 41.3879ZM200.815 41.3879L199.847 42.1785L200.222 42.6379H200.815V41.3879ZM197.14 36.8879H195.89V37.3334L196.172 37.6785L197.14 36.8879ZM197.14 24.0879H205.215V21.5879H197.14V24.0879ZM203.966 22.8008L203.591 35.4258L206.09 35.5L206.465 22.875L203.966 22.8008ZM205.571 36.4773L208.696 34.2273L207.235 32.1984L204.11 34.4484L205.571 36.4773ZM209.209 33.0854L208.284 24.0604L205.797 24.3153L206.722 33.3403L209.209 33.0854ZM207.04 25.4379H214.715V22.9379H207.04V25.4379ZM213.465 24.1879V36.3379H215.965V24.1879H213.465ZM213.78 35.5088L209.305 40.5588L211.176 42.2169L215.651 37.1669L213.78 35.5088ZM210.24 40.1379H200.815V42.6379H210.24V40.1379ZM201.784 40.5972L198.109 36.0972L196.172 37.6785L199.847 42.1785L201.784 40.5972ZM198.39 36.8879V22.8379H195.89V36.8879H198.39ZM215.578 39.4129L214.478 38.8189L213.665 40.3241L215.347 40.6412L215.578 39.4129ZM224.503 22.8879V21.6379H223.758L223.403 22.2939L224.503 22.8879ZM229.778 22.8879L230.958 22.4749L230.665 21.6379H229.778V22.8879ZM231.528 27.8879L230.348 28.3008L231.215 30.7765L232.592 28.5442L231.528 27.8879ZM234.628 22.8629L234.602 21.6132L233.922 21.6277L233.564 22.2066L234.628 22.8629ZM239.303 22.7629L240.505 22.4201L240.241 21.4925L239.277 21.5132L239.303 22.7629ZM244.428 40.7379L244.531 41.9836L246.048 41.8587L245.63 40.3951L244.428 40.7379ZM237.753 41.2879L236.55 41.6251L236.828 42.6183L237.856 42.5336L237.753 41.2879ZM236.478 36.7379L237.682 36.4006L237.672 36.3642L237.659 36.3285L236.478 36.7379ZM234.953 32.3379L236.134 31.9285L235.521 30.1577L234.122 31.4047L234.953 32.3379ZM230.353 36.4379L229.355 37.1904L230.172 38.2738L231.185 37.371L230.353 36.4379ZM226.828 31.7629L227.826 31.0103L226.579 29.3566L225.697 31.2305L226.828 31.7629ZM222.603 40.7379L222.372 41.9662L223.322 42.1455L223.734 41.2703L222.603 40.7379ZM216.678 40.0069L225.603 23.4819L223.403 22.2939L214.478 38.8189L216.678 40.0069ZM224.503 24.1379H229.778V21.6379H224.503V24.1379ZM228.598 23.3008L230.348 28.3008L232.708 27.4749L230.958 22.4749L228.598 23.3008ZM232.592 28.5442L235.692 23.5192L233.564 22.2066L230.464 27.2316L232.592 28.5442ZM234.655 24.1126L239.33 24.0126L239.277 21.5132L234.602 21.6132L234.655 24.1126ZM238.101 23.1056L243.226 41.0806L245.63 40.3951L240.505 22.4201L238.101 23.1056ZM244.326 39.4921L237.651 40.0421L237.856 42.5336L244.531 41.9836L244.326 39.4921ZM238.957 40.9506L237.682 36.4006L235.275 37.0751L236.55 41.6251L238.957 40.9506ZM237.659 36.3285L236.134 31.9285L233.772 32.7472L235.297 37.1472L237.659 36.3285ZM234.122 31.4047L229.522 35.5047L231.185 37.371L235.785 33.271L234.122 31.4047ZM231.351 35.6853L227.826 31.0103L225.83 32.5154L229.355 37.1904L231.351 35.6853ZM225.697 31.2305L221.472 40.2055L223.734 41.2703L227.959 32.2953L225.697 31.2305ZM222.835 39.5095L215.81 38.1845L215.347 40.6412L222.372 41.9662L222.835 39.5095Z" fill="#353535" mask="url(#path-3-outside-1_292_3389)"/>
</g>
<path d="M25.5001 72.3279L38.4326 72.5554V77.8054L34.0576 77.0879L35.2651 85.3304H29.0001L29.9451 77.0879L25.5001 76.8604V72.3279ZM39.3429 73.0979L43.7529 72.2579L43.9629 77.5954L46.5354 77.2104L46.6929 72.5029L50.2979 72.6604L50.9979 85.2254L46.9379 85.0854L46.9029 81.1479L44.4529 81.6204L44.5404 85.2254H40.7429L39.3429 73.0979ZM51.4446 72.3804L54.8396 72.1704L57.4646 84.5604L51.8996 85.1729L51.4446 72.3804ZM70.4362 75.5829L68.1787 78.3654L65.5362 76.6679L64.8712 77.5079L69.5962 80.9729L67.3037 85.2954H61.6862L57.7662 82.1804L59.4637 79.3279L62.8412 81.2354L63.3487 80.4479L58.3962 77.5079L63.0862 72.2579H67.3037L70.4362 75.5829ZM79.3352 72.3804L82.7302 72.1704L85.3552 84.5604L79.7902 85.1729L79.3352 72.3804ZM98.3268 75.5829L96.0693 78.3654L93.4268 76.6679L92.7618 77.5079L97.4868 80.9729L95.1943 85.2954H89.5768L85.6568 82.1804L87.3543 79.3279L90.7318 81.2354L91.2393 80.4479L86.2868 77.5079L90.9768 72.2579H95.1943L98.3268 75.5829ZM107.138 72.3279L120.071 72.5554V77.8054L115.696 77.0879L116.903 85.3304H110.638L111.583 77.0879L107.138 76.8604V72.3279ZM120.981 73.0979L125.391 72.2579L125.601 77.5954L128.174 77.2104L128.331 72.5029L131.936 72.6604L132.636 85.2254L128.576 85.0854L128.541 81.1479L126.091 81.6204L126.179 85.2254H122.381L120.981 73.0979ZM133.94 72.2754H142.515L141.798 75.8979L137.58 76.5454L137.528 77.4379L141.255 77.7179L141.08 80.5004L137.755 80.7979L138.053 81.7429L142.095 81.7779L143.583 85.2604H133.94L132.995 76.8954L133.94 72.2754ZM152.722 72.2754H161.297L160.579 75.8979L156.362 76.5454L156.309 77.4379L160.037 77.7179L159.862 80.5004L156.537 80.7979L156.834 81.7429L160.877 81.7779L162.364 85.2604H152.722L151.777 76.8954L152.722 72.2754ZM165.309 72.3804L168.056 75.1804L170.086 72.1879L173.411 75.3729L170.996 78.2254L174.986 81.3579L171.661 85.1904L168.791 81.4454L165.151 85.1029L161.809 81.7954L165.676 78.3129L162.736 75.0229L165.309 72.3804ZM182.979 72.3454L188.509 84.4029L183.224 85.2429L182.804 82.1454L178.552 82.0404L177.589 85.3479L172.497 84.4379L179.479 72.6954L182.979 72.3454ZM180.372 76.9304L179.654 78.7154L182.332 78.7854L181.719 76.9829L180.372 76.9304ZM187.7 83.9829L193.947 72.4154H197.64L198.865 75.9154L201.035 72.3979L204.307 72.3279L207.895 84.9104L203.222 85.2954L202.33 82.1104L201.262 79.0304L198.042 81.9004L195.575 78.6279L192.617 84.9104L187.7 83.9829ZM215.669 72.3629L218.749 74.4804L218.994 79.6604L215.879 82.6704L212.012 82.9154V85.3829H207.934L208.582 72.3629H215.669ZM212.729 76.3529L212.607 78.4704L213.762 78.6279L215.232 76.8954L212.729 76.3529ZM223.925 72.7654L223.417 80.6054L228.79 79.9579L229.28 84.0004L219.55 85.1554L219.06 72.2054L223.925 72.7654ZM231.113 72.2754H239.688L238.971 75.8979L234.753 76.5454L234.701 77.4379L238.428 77.7179L238.253 80.5004L234.928 80.7979L235.226 81.7429L239.268 81.7779L240.756 85.2604H231.113L230.168 76.8954L231.113 72.2754ZM38.1876 96.5829L35.9301 99.3654L33.2876 97.6679L32.6226 98.5079L37.3476 101.973L35.0551 106.295H29.4376L25.5176 103.18L27.2151 100.328L30.5926 102.235L31.1001 101.448L26.1476 98.5079L30.8376 93.2579H35.0551L38.1876 96.5829ZM39.1941 93.2754H47.7691L47.0516 96.8979L42.8341 97.5454L42.7816 98.4379L46.5091 98.7179L46.3341 101.5L43.0091 101.798L43.3066 102.743L47.3491 102.778L48.8366 106.26H39.1941L38.2491 97.8954L39.1941 93.2754ZM48.2809 106.085L50.6084 93.3279H53.2509L55.7184 97.3879L55.9284 93.3279L59.9884 93.9579L59.1309 106.243L55.7709 106.033L53.1809 102.078L52.4284 106.26L48.2809 106.085ZM60.295 93.3279L73.2275 93.5554V98.8054L68.8525 98.0879L70.06 106.33H63.795L64.74 98.0879L60.295 97.8604V93.3279ZM75.0828 93.2754H83.6578L82.9403 96.8979L78.7228 97.5454L78.6703 98.4379L82.3978 98.7179L82.2228 101.5L78.8978 101.798L79.1953 102.743L83.2378 102.778L84.7253 106.26H75.0828L74.1378 97.8954L75.0828 93.2754ZM84.1696 106.085L86.4971 93.3279H89.1396L91.6071 97.3879L91.8171 93.3279L95.8771 93.9579L95.0196 106.243L91.6596 106.033L89.0696 102.078L88.3171 106.26L84.1696 106.085ZM101.206 93.2929L106.036 93.6079L105.844 98.2454L102.694 96.7754L99.9462 98.0529L99.8237 101.028L102.239 102.673L105.791 100.818L106.981 105.7L99.9987 106.313L96.5862 103.32L95.5712 99.5579L97.1462 95.5154L101.206 93.2929ZM107.895 93.2754H116.47L115.753 96.8979L111.535 97.5454L111.483 98.4379L115.21 98.7179L115.035 101.5L111.71 101.798L112.008 102.743L116.05 102.778L117.538 106.26H107.895L106.95 97.8954L107.895 93.2754ZM132.172 93.2929L135.847 96.3029L136.6 103.32L132.977 106.278H125.732V94.0804L132.172 93.2929ZM129.74 97.9654V101.78L132.102 100.958V99.0504L129.74 97.9654ZM137.785 93.2754H146.36L145.643 96.8979L141.425 97.5454L141.373 98.4379L145.1 98.7179L144.925 101.5L141.6 101.798L141.898 102.743L145.94 102.778L147.428 106.26H137.785L136.84 97.8954L137.785 93.2754ZM159.56 96.5829L157.302 99.3654L154.66 97.6679L153.995 98.5079L158.72 101.973L156.427 106.295H150.81L146.89 103.18L148.587 100.328L151.965 102.235L152.472 101.448L147.52 98.5079L152.21 93.2579H156.427L159.56 96.5829ZM164.644 93.2929L169.474 93.6079L169.281 98.2454L166.131 96.7754L163.384 98.0529L163.261 101.028L165.676 102.673L169.229 100.818L170.419 105.7L163.436 106.313L160.024 103.32L159.009 99.5579L160.584 95.5154L164.644 93.2929ZM177.65 93.3804L180.888 95.7429L181.185 99.8204L179.365 101.85L182.603 104.703L178.805 106.348L174.833 102.953L175.428 106.33H171.403L170.388 93.9404L177.65 93.3804ZM174.833 97.0029L174.728 99.4879L175.795 99.6279L176.863 98.0879L174.833 97.0029ZM182.319 93.3804L185.714 93.1704L188.339 105.56L182.774 106.173L182.319 93.3804ZM191.038 93.2404L197.11 93.9579L198.51 96.1979L198.405 98.5954L197.495 99.9604L198.773 100.695L199.63 103.198L198.65 105.525L196.62 106.243L188.99 106.295L188.64 93.9929L191.038 93.2404ZM193.12 103.653L194.905 103.268V102.078L193.12 101.465V103.653ZM192.893 98.2279L194.66 97.8604V96.4254L192.893 96.0404V98.2279ZM199.306 93.3804L202.701 93.1704L205.326 105.56L199.761 106.173L199.306 93.3804ZM205.61 106.085L207.937 93.3279H210.58L213.047 97.3879L213.257 93.3279L217.317 93.9579L216.46 106.243L213.1 106.033L210.51 102.078L209.757 106.26L205.61 106.085ZM228.597 95.9704L225.604 97.6504L224.397 96.9854L222.612 97.5279L221.544 100.065L222.664 102.428L225.884 102.043L225.954 101.465L223.469 101.693L223.784 98.1754L228.964 98.2454V105.158L220.267 106.278L217.624 100.905L218.587 95.9704L222.297 93.2754L226.847 93.5904L228.597 95.9704ZM238.047 93.3279L250.979 93.5554V98.8054L246.604 98.0879L247.812 106.33H241.547L242.492 98.0879L238.047 97.8604V93.3279ZM251.889 94.0979L256.299 93.2579L256.509 98.5954L259.082 98.2104L259.239 93.5029L262.844 93.6604L263.544 106.225L259.484 106.085L259.449 102.148L256.999 102.62L257.087 106.225H253.289L251.889 94.0979ZM264.848 93.2754H273.423L272.706 96.8979L268.488 97.5454L268.436 98.4379L272.163 98.7179L271.988 101.5L268.663 101.798L268.961 102.743L273.003 102.778L274.491 106.26H264.848L263.903 97.8954L264.848 93.2754ZM30.3651 114.765L29.8576 122.605L35.2301 121.958L35.7201 126L25.9901 127.155L25.5001 114.205L30.3651 114.765ZM45.7435 114.485L49.5585 119.228L48.4735 125.475L41.561 127.278L36.0485 122.413L36.871 116.935L40.9835 114.328L45.7435 114.485ZM42.016 118.895L41.1235 120.89L42.6635 121.923L44.291 121.328L44.2035 119.385L42.016 118.895ZM54.9098 114.293L59.7398 114.608L59.5473 119.245L56.3973 117.775L53.6498 119.053L53.5273 122.028L55.9423 123.673L59.4948 121.818L60.6848 126.7L53.7023 127.313L50.2898 124.32L49.2748 120.558L50.8498 116.515L54.9098 114.293ZM68.5114 114.345L74.0414 126.403L68.7564 127.243L68.3364 124.145L64.0839 124.04L63.1214 127.348L58.0289 126.438L65.0114 114.695L68.5114 114.345ZM65.9039 118.93L65.1864 120.715L67.8639 120.785L67.2514 118.983L65.9039 118.93ZM73.2321 114.328L86.1646 114.555V119.805L81.7896 119.088L82.9971 127.33H76.7321L77.6771 119.088L73.2321 118.86V114.328ZM87.1623 114.38L90.5573 114.17L93.1823 126.56L87.6173 127.173L87.1623 114.38ZM102.601 114.485L106.416 119.228L105.331 125.475L98.4189 127.278L92.9064 122.413L93.7289 116.935L97.8414 114.328L102.601 114.485ZM98.8739 118.895L97.9814 120.89L99.5214 121.923L101.149 121.328L101.061 119.385L98.8739 118.895ZM106.745 127.085L109.073 114.328H111.715L114.183 118.388L114.393 114.328L118.453 114.958L117.595 127.243L114.235 127.033L111.645 123.078L110.893 127.26L106.745 127.085ZM120.632 124.285H122.014L122.837 125.72L122.259 126.788L120.632 127.155L119.879 125.878L120.632 124.285Z" fill="#77684D"/>
<g clip-path="url(#clip0_292_3389)">
<path d="M272.211 151.955L319.387 148.686L352.669 151.955L360.258 188.083L358.064 203.905L302.032 209.119L266.594 206.197L264.577 165.112L272.211 151.955Z" fill="#353535"/>
<path d="M266.68 166.352L273.81 154.665L319.164 151.676L350.922 154.643L358.155 187.388L356.116 201.37L302.348 206.128L268.596 203.483L266.68 166.352Z" fill="#ED4650" stroke="white" stroke-width="1.25"/>
</g>
<g filter="url(#filter2_d_292_3389)">
<mask id="path-8-outside-2_292_3389" maskUnits="userSpaceOnUse" x="279.5" y="164.563" width="62" height="23" fill="black">
<rect fill="white" x="279.5" y="164.563" width="62" height="23"/>
<path d="M280.828 167.088L285.678 166.788L289.428 184.488L281.478 185.363L280.828 167.088ZM289.834 185.238L293.159 167.013H296.934L300.459 172.813L300.759 167.013L306.559 167.913L305.334 185.463L300.534 185.163L296.834 179.513L295.759 185.488L289.834 185.238ZM308.222 166.913L320.822 167.013L320.122 173.038L313.247 172.263L313.147 174.263L318.972 173.963L318.022 179.463L313.147 178.838L314.197 185.488H307.547L307.022 171.988L308.222 166.913ZM334.378 167.238L339.828 174.013L338.278 182.938L328.403 185.513L320.528 178.563L321.703 170.738L327.578 167.013L334.378 167.238ZM329.053 173.538L327.778 176.388L329.978 177.863L332.303 177.013L332.178 174.238L329.053 173.538Z"/>
</mask>
<path d="M280.828 167.088L285.678 166.788L289.428 184.488L281.478 185.363L280.828 167.088ZM289.834 185.238L293.159 167.013H296.934L300.459 172.813L300.759 167.013L306.559 167.913L305.334 185.463L300.534 185.163L296.834 179.513L295.759 185.488L289.834 185.238ZM308.222 166.913L320.822 167.013L320.122 173.038L313.247 172.263L313.147 174.263L318.972 173.963L318.022 179.463L313.147 178.838L314.197 185.488H307.547L307.022 171.988L308.222 166.913ZM334.378 167.238L339.828 174.013L338.278 182.938L328.403 185.513L320.528 178.563L321.703 170.738L327.578 167.013L334.378 167.238ZM329.053 173.538L327.778 176.388L329.978 177.863L332.303 177.013L332.178 174.238L329.053 173.538Z" fill="white"/>
<path d="M280.828 167.088L280.751 165.84L279.535 165.915L279.579 167.132L280.828 167.088ZM285.678 166.788L286.901 166.529L286.677 165.474L285.601 165.54L285.678 166.788ZM289.428 184.488L289.565 185.73L290.937 185.579L290.651 184.229L289.428 184.488ZM281.478 185.363L280.229 185.407L280.276 186.753L281.615 186.605L281.478 185.363ZM280.905 168.335L285.755 168.035L285.601 165.54L280.751 165.84L280.905 168.335ZM284.455 167.047L288.205 184.747L290.651 184.229L286.901 166.529L284.455 167.047ZM289.291 183.245L281.341 184.12L281.615 186.605L289.565 185.73L289.291 183.245ZM282.727 185.318L282.077 167.043L279.579 167.132L280.229 185.407L282.727 185.318ZM289.834 185.238L288.604 185.014L288.346 186.426L289.781 186.487L289.834 185.238ZM293.159 167.013V165.763H292.116L291.929 166.789L293.159 167.013ZM296.934 167.013L298.002 166.364L297.637 165.763H296.934V167.013ZM300.459 172.813L299.39 173.462L301.497 176.929L301.707 172.877L300.459 172.813ZM300.759 167.013L300.95 165.778L299.582 165.565L299.51 166.948L300.759 167.013ZM306.559 167.913L307.806 168L307.886 166.854L306.75 166.678L306.559 167.913ZM305.334 185.463L305.256 186.71L306.494 186.788L306.581 185.55L305.334 185.463ZM300.534 185.163L299.488 185.848L299.831 186.371L300.456 186.41L300.534 185.163ZM296.834 179.513L297.879 178.828L296.159 176.202L295.603 179.292L296.834 179.513ZM295.759 185.488L295.706 186.737L296.796 186.783L296.989 185.709L295.759 185.488ZM291.063 185.462L294.388 167.237L291.929 166.789L288.604 185.014L291.063 185.462ZM293.159 168.263H296.934V165.763H293.159V168.263ZM295.865 167.662L299.39 173.462L301.527 172.164L298.002 166.364L295.865 167.662ZM301.707 172.877L302.007 167.077L299.51 166.948L299.21 172.748L301.707 172.877ZM300.567 168.248L306.367 169.148L306.75 166.678L300.95 165.778L300.567 168.248ZM305.312 167.826L304.087 185.376L306.581 185.55L307.806 168L305.312 167.826ZM305.412 184.215L300.612 183.915L300.456 186.41L305.256 186.71L305.412 184.215ZM301.579 184.478L297.879 178.828L295.788 180.198L299.488 185.848L301.579 184.478ZM295.603 179.292L294.528 185.267L296.989 185.709L298.064 179.734L295.603 179.292ZM295.811 184.239L289.886 183.989L289.781 186.487L295.706 186.737L295.811 184.239ZM308.222 166.913L308.232 165.663L307.235 165.655L307.005 166.625L308.222 166.913ZM320.822 167.013L322.063 167.157L322.224 165.774L320.832 165.763L320.822 167.013ZM320.122 173.038L319.982 174.28L321.22 174.42L321.363 173.182L320.122 173.038ZM313.247 172.263L313.387 171.021L312.065 170.872L311.998 172.2L313.247 172.263ZM313.147 174.263L311.898 174.2L311.829 175.582L313.211 175.511L313.147 174.263ZM318.972 173.963L320.203 174.176L320.47 172.634L318.907 172.715L318.972 173.963ZM318.022 179.463L317.863 180.703L319.05 180.855L319.253 179.676L318.022 179.463ZM313.147 178.838L313.306 177.598L311.652 177.386L311.912 179.033L313.147 178.838ZM314.197 185.488V186.738H315.66L315.431 185.293L314.197 185.488ZM307.547 185.488L306.298 185.536L306.344 186.738H307.547V185.488ZM307.022 171.988L305.805 171.7L305.766 171.866L305.773 172.036L307.022 171.988ZM308.212 168.163L320.812 168.263L320.832 165.763L308.232 165.663L308.212 168.163ZM319.58 166.869L318.88 172.894L321.363 173.182L322.063 167.157L319.58 166.869ZM320.262 171.796L313.387 171.021L313.107 173.505L319.982 174.28L320.262 171.796ZM311.998 172.2L311.898 174.2L314.395 174.325L314.495 172.325L311.998 172.2ZM313.211 175.511L319.036 175.211L318.907 172.715L313.082 173.015L313.211 175.511ZM317.74 173.75L316.79 179.25L319.253 179.676L320.203 174.176L317.74 173.75ZM318.181 178.223L313.306 177.598L312.988 180.078L317.863 180.703L318.181 178.223ZM311.912 179.033L312.962 185.683L315.431 185.293L314.381 178.643L311.912 179.033ZM314.197 184.238H307.547V186.738H314.197V184.238ZM308.796 185.439L308.271 171.939L305.773 172.036L306.298 185.536L308.796 185.439ZM308.238 172.276L309.438 167.2L307.005 166.625L305.805 171.7L308.238 172.276ZM334.378 167.238L335.352 166.454L334.992 166.008L334.419 165.989L334.378 167.238ZM339.828 174.013L341.059 174.227L341.156 173.67L340.802 173.229L339.828 174.013ZM338.278 182.938L338.593 184.147L339.372 183.944L339.509 183.152L338.278 182.938ZM328.403 185.513L327.576 186.45L328.074 186.89L328.718 186.722L328.403 185.513ZM320.528 178.563L319.292 178.377L319.191 179.05L319.701 179.5L320.528 178.563ZM321.703 170.738L321.033 169.682L320.551 169.988L320.467 170.552L321.703 170.738ZM327.578 167.013L327.619 165.764L327.234 165.751L326.908 165.957L327.578 167.013ZM329.053 173.538L329.326 172.318L328.329 172.095L327.912 173.027L329.053 173.538ZM327.778 176.388L326.637 175.877L326.206 176.839L327.082 177.426L327.778 176.388ZM329.978 177.863L329.282 178.901L329.81 179.255L330.407 179.037L329.978 177.863ZM332.303 177.013L332.732 178.187L333.593 177.872L333.551 176.957L332.303 177.013ZM332.178 174.238L333.426 174.182L333.383 173.227L332.451 173.018L332.178 174.238ZM333.404 168.021L338.854 174.796L340.802 173.229L335.352 166.454L333.404 168.021ZM338.596 173.799L337.046 182.724L339.509 183.152L341.059 174.227L338.596 173.799ZM337.962 181.728L328.087 184.303L328.718 186.722L338.593 184.147L337.962 181.728ZM329.23 184.576L321.355 177.626L319.701 179.5L327.576 186.45L329.23 184.576ZM321.764 178.748L322.939 170.923L320.467 170.552L319.292 178.377L321.764 178.748ZM322.372 171.794L328.247 168.069L326.908 165.957L321.033 169.682L322.372 171.794ZM327.536 168.262L334.336 168.487L334.419 165.989L327.619 165.764L327.536 168.262ZM327.912 173.027L326.637 175.877L328.919 176.898L330.194 174.048L327.912 173.027ZM327.082 177.426L329.282 178.901L330.674 176.825L328.474 175.35L327.082 177.426ZM330.407 179.037L332.732 178.187L331.874 175.839L329.549 176.689L330.407 179.037ZM333.551 176.957L333.426 174.182L330.929 174.294L331.054 177.069L333.551 176.957ZM332.451 173.018L329.326 172.318L328.78 174.758L331.905 175.458L332.451 173.018Z" fill="#353535" mask="url(#path-8-outside-2_292_3389)"/>
</g>
<defs>
<filter id="filter0_dd_292_3389" x="0.614258" y="0.250488" width="359.772" height="225.653" filterUnits="userSpaceOnUse" color-interpolation-filters="sRGB">
<feFlood flood-opacity="0" result="BackgroundImageFix"/>
<feColorMatrix in="SourceAlpha" type="matrix" values="0 0 0 0 0 0 0 0 0 0 0 0 0 0 0 0 0 0 127 0" result="hardAlpha"/>
<feOffset dx="5" dy="5"/>
<feGaussianBlur stdDeviation="5"/>
<feComposite in2="hardAlpha" operator="out"/>
<feColorMatrix type="matrix" values="0 0 0 0 0 0 0 0 0 0 0 0 0 0 0 0 0 0 0.15 0"/>
<feBlend mode="normal" in2="BackgroundImageFix" result="effect1_dropShadow_292_3389"/>
<feColorMatrix in="SourceAlpha" type="matrix" values="0 0 0 0 0 0 0 0 0 0 0 0 0 0 0 0 0 0 127 0" result="hardAlpha"/>
<feOffset dx="5" dy="5"/>
<feComposite in2="hardAlpha" operator="out"/>
<feColorMatrix type="matrix" values="0 0 0 0 0.784948 0 0 0 0 0.738688 0 0 0 0 0.64889 0 0 0 1 0"/>
<feBlend mode="normal" in2="effect1_dropShadow_292_3389" result="effect2_dropShadow_292_3389"/>
<feBlend mode="normal" in="SourceGraphic" in2="effect2_dropShadow_292_3389" result="shape"/>
</filter>
<filter id="filter1_d_292_3389" x="97.7657" y="22.5379" width="147.913" height="21.35" filterUnits="userSpaceOnUse" color-interpolation-filters="sRGB">
<feFlood flood-opacity="0" result="BackgroundImageFix"/>
<feColorMatrix in="SourceAlpha" type="matrix" values="0 0 0 0 0 0 0 0 0 0 0 0 0 0 0 0 0 0 127 0" result="hardAlpha"/>
<feOffset dx="1.25" dy="2.5"/>
<feComposite in2="hardAlpha" operator="out"/>
<feColorMatrix type="matrix" values="0 0 0 0 0.208281 0 0 0 0 0.208281 0 0 0 0 0.208281 0 0 0 1 0"/>
<feBlend mode="normal" in2="BackgroundImageFix" result="effect1_dropShadow_292_3389"/>
<feBlend mode="normal" in="SourceGraphic" in2="effect1_dropShadow_292_3389" result="shape"/>
</filter>
<filter id="filter2_d_292_3389" x="280.828" y="166.788" width="60.25" height="21.225" filterUnits="userSpaceOnUse" color-interpolation-filters="sRGB">
<feFlood flood-opacity="0" result="BackgroundImageFix"/>
<feColorMatrix in="SourceAlpha" type="matrix" values="0 0 0 0 0 0 0 0 0 0 0 0 0 0 0 0 0 0 127 0" result="hardAlpha"/>
<feOffset dx="1.25" dy="2.5"/>
<feComposite in2="hardAlpha" operator="out"/>
<feColorMatrix type="matrix" values="0 0 0 0 0.208281 0 0 0 0 0.208281 0 0 0 0 0.208281 0 0 0 1 0"/>
<feBlend mode="normal" in2="BackgroundImageFix" result="effect1_dropShadow_292_3389"/>
<feBlend mode="normal" in="SourceGraphic" in2="effect1_dropShadow_292_3389" result="shape"/>
</filter>
<clipPath id="clip0_292_3389">
<rect width="95.6808" height="60.4328" fill="white" transform="translate(264.577 148.686)"/>
</clipPath>
</defs>
</svg>
