<svg width="360" height="227" viewBox="0 0 360 227" fill="none" xmlns="http://www.w3.org/2000/svg">
<g filter="url(#filter0_dd_229_3422)">
<path d="M18.7666 5.79541H329.696L344.886 145.291L326.162 192.39L175.475 186.867L168.439 211.448L157.873 186.222L24.1616 194.822L5.11426 180.624L5.11426 43.5321L18.7666 5.79541Z" fill="#FFFAE7"/>
<path d="M174.874 186.695L168.328 209.565L158.449 185.981L158.277 185.57L157.833 185.599L24.3508 194.183L5.73926 180.31V43.6417L19.2052 6.42041H329.135L344.248 145.204L325.745 191.749L175.498 186.243L175.009 186.225L174.874 186.695Z" stroke="#C8BCA5" stroke-width="1.25"/>
</g>
<g filter="url(#filter1_d_229_3422)">
<mask id="path-3-outside-1_229_3422" maskUnits="userSpaceOnUse" x="89" y="20.8578" width="164" height="23" fill="black">
<rect fill="white" x="89" y="20.8578" width="164" height="23"/>
<path d="M106.271 23.3328L114.171 40.5578L106.621 41.7578L106.021 37.3328L99.9464 37.1828L98.5714 41.9078L91.2964 40.6078L101.271 23.8328L106.271 23.3328ZM102.546 29.8828L101.521 32.4328L105.346 32.5328L104.471 29.9578L102.546 29.8828ZM113.015 23.2328L119.49 23.5828L122.065 34.7578L123.04 33.5078L125.815 23.5828L132.99 23.2328L125.94 41.7828L117.24 41.1328L113.015 23.2328ZM145.334 23.3328L153.234 40.5578L145.684 41.7578L145.084 37.3328L139.009 37.1828L137.634 41.9078L130.359 40.6078L140.334 23.8328L145.334 23.3328ZM141.609 29.8828L140.584 32.4328L144.409 32.5328L143.534 29.9578L141.609 29.8828ZM159.028 23.9328L158.303 35.1328L165.978 34.2078L166.678 39.9828L152.778 41.6328L152.078 23.1328L159.028 23.9328ZM179.172 23.3328L187.072 40.5578L179.522 41.7578L178.922 37.3328L172.847 37.1828L171.472 41.9078L164.197 40.6078L174.172 23.8328L179.172 23.3328ZM175.447 29.8828L174.422 32.4328L178.247 32.5328L177.372 29.9578L175.447 29.8828ZM185.916 41.5328L189.241 23.3078H193.016L196.541 29.1078L196.841 23.3078L202.641 24.2078L201.416 41.7578L196.616 41.4578L192.916 35.8078L191.841 41.7828L185.916 41.5328ZM210.254 23.2578L217.154 23.7078L216.879 30.3328L212.379 28.2328L208.454 30.0578L208.279 34.3078L211.729 36.6578L216.804 34.0078L218.504 40.9828L208.529 41.8578L203.654 37.5828L202.204 32.2078L204.454 26.4328L210.254 23.2578ZM218.459 24.4078L224.759 23.2078L225.059 30.8328L228.734 30.2828L228.959 23.5578L234.109 23.7828L235.109 41.7328L229.309 41.5328L229.259 35.9078L225.759 36.5828L225.884 41.7328H220.459L218.459 24.4078ZM236.973 23.2328H249.223L248.198 28.4078L242.173 29.3328L242.098 30.6078L247.423 31.0078L247.173 34.9828L242.423 35.4078L242.848 36.7578L248.623 36.8078L250.748 41.7828H236.973L235.623 29.8328L236.973 23.2328Z"/>
</mask>
<path d="M106.271 23.3328L114.171 40.5578L106.621 41.7578L106.021 37.3328L99.9464 37.1828L98.5714 41.9078L91.2964 40.6078L101.271 23.8328L106.271 23.3328ZM102.546 29.8828L101.521 32.4328L105.346 32.5328L104.471 29.9578L102.546 29.8828ZM113.015 23.2328L119.49 23.5828L122.065 34.7578L123.04 33.5078L125.815 23.5828L132.99 23.2328L125.94 41.7828L117.24 41.1328L113.015 23.2328ZM145.334 23.3328L153.234 40.5578L145.684 41.7578L145.084 37.3328L139.009 37.1828L137.634 41.9078L130.359 40.6078L140.334 23.8328L145.334 23.3328ZM141.609 29.8828L140.584 32.4328L144.409 32.5328L143.534 29.9578L141.609 29.8828ZM159.028 23.9328L158.303 35.1328L165.978 34.2078L166.678 39.9828L152.778 41.6328L152.078 23.1328L159.028 23.9328ZM179.172 23.3328L187.072 40.5578L179.522 41.7578L178.922 37.3328L172.847 37.1828L171.472 41.9078L164.197 40.6078L174.172 23.8328L179.172 23.3328ZM175.447 29.8828L174.422 32.4328L178.247 32.5328L177.372 29.9578L175.447 29.8828ZM185.916 41.5328L189.241 23.3078H193.016L196.541 29.1078L196.841 23.3078L202.641 24.2078L201.416 41.7578L196.616 41.4578L192.916 35.8078L191.841 41.7828L185.916 41.5328ZM210.254 23.2578L217.154 23.7078L216.879 30.3328L212.379 28.2328L208.454 30.0578L208.279 34.3078L211.729 36.6578L216.804 34.0078L218.504 40.9828L208.529 41.8578L203.654 37.5828L202.204 32.2078L204.454 26.4328L210.254 23.2578ZM218.459 24.4078L224.759 23.2078L225.059 30.8328L228.734 30.2828L228.959 23.5578L234.109 23.7828L235.109 41.7328L229.309 41.5328L229.259 35.9078L225.759 36.5828L225.884 41.7328H220.459L218.459 24.4078ZM236.973 23.2328H249.223L248.198 28.4078L242.173 29.3328L242.098 30.6078L247.423 31.0078L247.173 34.9828L242.423 35.4078L242.848 36.7578L248.623 36.8078L250.748 41.7828H236.973L235.623 29.8328L236.973 23.2328Z" fill="white"/>
<path d="M106.271 23.3328L107.408 22.8117L107.035 22.0002L106.147 22.089L106.271 23.3328ZM114.171 40.5578L114.368 41.7923L115.994 41.5338L115.308 40.0367L114.171 40.5578ZM106.621 41.7578L105.383 41.9257L105.555 43.193L106.818 42.9923L106.621 41.7578ZM106.021 37.3328L107.26 37.1648L107.117 36.1095L106.052 36.0832L106.021 37.3328ZM99.9464 37.1828L99.9772 35.9332L99.0151 35.9094L98.7462 36.8335L99.9464 37.1828ZM98.5714 41.9078L98.3515 43.1383L99.4576 43.336L99.7716 42.2571L98.5714 41.9078ZM91.2964 40.6078L90.222 39.9689L89.2992 41.5207L91.0765 41.8383L91.2964 40.6078ZM101.271 23.8328L101.147 22.589L100.519 22.6518L100.197 23.1939L101.271 23.8328ZM102.546 29.8828L102.595 28.6337L101.715 28.5994L101.387 29.4166L102.546 29.8828ZM101.521 32.4328L100.362 31.9666L99.6908 33.6354L101.489 33.6824L101.521 32.4328ZM105.346 32.5328L105.314 33.7824L107.107 33.8292L106.53 32.1306L105.346 32.5328ZM104.471 29.9578L105.655 29.5556L105.379 28.7422L104.52 28.7087L104.471 29.9578ZM105.135 23.8539L113.035 41.0789L115.308 40.0367L107.408 22.8117L105.135 23.8539ZM113.975 39.3233L106.425 40.5233L106.818 42.9923L114.368 41.7923L113.975 39.3233ZM107.86 41.5898L107.26 37.1648L104.783 37.5007L105.383 41.9257L107.86 41.5898ZM106.052 36.0832L99.9772 35.9332L99.9155 38.4324L105.991 38.5824L106.052 36.0832ZM98.7462 36.8335L97.3712 41.5585L99.7716 42.2571L101.147 37.5321L98.7462 36.8335ZM98.7913 40.6773L91.5163 39.3773L91.0765 41.8383L98.3515 43.1383L98.7913 40.6773ZM92.3708 41.2467L102.346 24.4717L100.197 23.1939L90.222 39.9689L92.3708 41.2467ZM101.396 25.0766L106.396 24.5766L106.147 22.089L101.147 22.589L101.396 25.0766ZM101.387 29.4166L100.362 31.9666L102.681 32.899L103.706 30.349L101.387 29.4166ZM101.489 33.6824L105.314 33.7824L105.379 31.2832L101.554 31.1832L101.489 33.6824ZM106.53 32.1306L105.655 29.5556L103.288 30.36L104.163 32.935L106.53 32.1306ZM104.52 28.7087L102.595 28.6337L102.498 31.1318L104.423 31.2068L104.52 28.7087ZM113.015 23.2328L113.083 21.9846L111.415 21.8945L111.799 23.5199L113.015 23.2328ZM119.49 23.5828L120.708 23.3021L120.497 22.3854L119.558 22.3346L119.49 23.5828ZM122.065 34.7578L120.847 35.0385L121.436 37.5962L123.051 35.5266L122.065 34.7578ZM123.04 33.5078L124.026 34.2766L124.178 34.082L124.244 33.8444L123.04 33.5078ZM125.815 23.5828L125.754 22.3343L124.854 22.3782L124.611 23.2462L125.815 23.5828ZM132.99 23.2328L134.159 23.6769L134.837 21.8912L132.929 21.9843L132.99 23.2328ZM125.94 41.7828L125.847 43.0293L126.777 43.0988L127.109 42.2269L125.94 41.7828ZM117.24 41.1328L116.024 41.4199L116.234 42.3111L117.147 42.3793L117.24 41.1328ZM112.948 24.481L119.423 24.831L119.558 22.3346L113.083 21.9846L112.948 24.481ZM118.272 23.8635L120.847 35.0385L123.283 34.4771L120.708 23.3021L118.272 23.8635ZM123.051 35.5266L124.026 34.2766L122.055 32.739L121.08 33.989L123.051 35.5266ZM124.244 33.8444L127.019 23.9194L124.611 23.2462L121.836 33.1712L124.244 33.8444ZM125.876 24.8313L133.051 24.4813L132.929 21.9843L125.754 22.3343L125.876 24.8313ZM131.822 22.7887L124.772 41.3387L127.109 42.2269L134.159 23.6769L131.822 22.7887ZM126.033 40.5363L117.333 39.8863L117.147 42.3793L125.847 43.0293L126.033 40.5363ZM118.457 40.8456L114.232 22.9456L111.799 23.5199L116.024 41.4199L118.457 40.8456ZM145.334 23.3328L146.47 22.8117L146.098 22.0002L145.21 22.089L145.334 23.3328ZM153.234 40.5578L153.43 41.7923L155.057 41.5338L154.37 40.0367L153.234 40.5578ZM145.684 41.7578L144.445 41.9257L144.617 43.193L145.88 42.9923L145.684 41.7578ZM145.084 37.3328L146.323 37.1648L146.179 36.1095L145.115 36.0832L145.084 37.3328ZM139.009 37.1828L139.04 35.9332L138.078 35.9094L137.809 36.8335L139.009 37.1828ZM137.634 41.9078L137.414 43.1383L138.52 43.336L138.834 42.2571L137.634 41.9078ZM130.359 40.6078L129.284 39.9689L128.362 41.5207L130.139 41.8383L130.359 40.6078ZM140.334 23.8328L140.21 22.589L139.582 22.6518L139.259 23.1939L140.334 23.8328ZM141.609 29.8828L141.658 28.6337L140.778 28.5994L140.449 29.4166L141.609 29.8828ZM140.584 32.4328L139.424 31.9666L138.753 33.6354L140.551 33.6824L140.584 32.4328ZM144.409 32.5328L144.376 33.7824L146.17 33.8292L145.592 32.1306L144.409 32.5328ZM143.534 29.9578L144.717 29.5556L144.441 28.7422L143.583 28.7087L143.534 29.9578ZM144.198 23.8539L152.098 41.0789L154.37 40.0367L146.47 22.8117L144.198 23.8539ZM153.038 39.3233L145.488 40.5233L145.88 42.9923L153.43 41.7923L153.038 39.3233ZM146.923 41.5898L146.323 37.1648L143.845 37.5007L144.445 41.9257L146.923 41.5898ZM145.115 36.0832L139.04 35.9332L138.978 38.4324L145.053 38.5824L145.115 36.0832ZM137.809 36.8335L136.434 41.5585L138.834 42.2571L140.209 37.5321L137.809 36.8335ZM137.854 40.6773L130.579 39.3773L130.139 41.8383L137.414 43.1383L137.854 40.6773ZM131.433 41.2467L141.408 24.4717L139.259 23.1939L129.284 39.9689L131.433 41.2467ZM140.458 25.0766L145.458 24.5766L145.21 22.089L140.21 22.589L140.458 25.0766ZM140.449 29.4166L139.424 31.9666L141.744 32.899L142.769 30.349L140.449 29.4166ZM140.551 33.6824L144.376 33.7824L144.442 31.2832L140.617 31.1832L140.551 33.6824ZM145.592 32.1306L144.717 29.5556L142.35 30.36L143.225 32.935L145.592 32.1306ZM143.583 28.7087L141.658 28.6337L141.56 31.1318L143.485 31.2068L143.583 28.7087ZM159.028 23.9328L160.275 24.0135L160.352 22.827L159.171 22.691L159.028 23.9328ZM158.303 35.1328L157.055 35.052L156.958 36.5539L158.452 36.3738L158.303 35.1328ZM165.978 34.2078L167.219 34.0574L167.068 32.8173L165.828 32.9668L165.978 34.2078ZM166.678 39.9828L166.825 41.2241L168.069 41.0764L167.919 39.8324L166.678 39.9828ZM152.778 41.6328L151.529 41.6801L151.58 43.0338L152.925 42.8741L152.778 41.6328ZM152.078 23.1328L152.221 21.891L150.773 21.7244L150.829 23.1801L152.078 23.1328ZM157.78 23.852L157.055 35.052L159.55 35.2135L160.275 24.0135L157.78 23.852ZM158.452 36.3738L166.127 35.4488L165.828 32.9668L158.153 33.8918L158.452 36.3738ZM164.737 34.3582L165.437 40.1332L167.919 39.8324L167.219 34.0574L164.737 34.3582ZM166.53 38.7415L152.63 40.3915L152.925 42.8741L166.825 41.2241L166.53 38.7415ZM154.027 41.5855L153.327 23.0855L150.829 23.1801L151.529 41.6801L154.027 41.5855ZM151.935 24.3746L158.885 25.1746L159.171 22.691L152.221 21.891L151.935 24.3746ZM179.172 23.3328L180.308 22.8117L179.936 22.0002L179.047 22.089L179.172 23.3328ZM187.072 40.5578L187.268 41.7923L188.895 41.5338L188.208 40.0367L187.072 40.5578ZM179.522 41.7578L178.283 41.9257L178.455 43.193L179.718 42.9923L179.522 41.7578ZM178.922 37.3328L180.16 37.1648L180.017 36.1095L178.953 36.0832L178.922 37.3328ZM172.847 37.1828L172.878 35.9332L171.915 35.9094L171.647 36.8335L172.847 37.1828ZM171.472 41.9078L171.252 43.1383L172.358 43.336L172.672 42.2571L171.472 41.9078ZM164.197 40.6078L163.122 39.9689L162.2 41.5207L163.977 41.8383L164.197 40.6078ZM174.172 23.8328L174.047 22.589L173.42 22.6518L173.097 23.1939L174.172 23.8328ZM175.447 29.8828L175.495 28.6337L174.615 28.5994L174.287 29.4166L175.447 29.8828ZM174.422 32.4328L173.262 31.9666L172.591 33.6354L174.389 33.6824L174.422 32.4328ZM178.247 32.5328L178.214 33.7824L180.008 33.8292L179.43 32.1306L178.247 32.5328ZM177.372 29.9578L178.555 29.5556L178.279 28.7422L177.42 28.7087L177.372 29.9578ZM178.036 23.8539L185.936 41.0789L188.208 40.0367L180.308 22.8117L178.036 23.8539ZM186.876 39.3233L179.326 40.5233L179.718 42.9923L187.268 41.7923L186.876 39.3233ZM180.76 41.5898L180.16 37.1648L177.683 37.5007L178.283 41.9257L180.76 41.5898ZM178.953 36.0832L172.878 35.9332L172.816 38.4324L178.891 38.5824L178.953 36.0832ZM171.647 36.8335L170.272 41.5585L172.672 42.2571L174.047 37.5321L171.647 36.8335ZM171.692 40.6773L164.417 39.3773L163.977 41.8383L171.252 43.1383L171.692 40.6773ZM165.271 41.2467L175.246 24.4717L173.097 23.1939L163.122 39.9689L165.271 41.2467ZM174.296 25.0766L179.296 24.5766L179.047 22.089L174.047 22.589L174.296 25.0766ZM174.287 29.4166L173.262 31.9666L175.582 32.899L176.607 30.349L174.287 29.4166ZM174.389 33.6824L178.214 33.7824L178.279 31.2832L174.454 31.1832L174.389 33.6824ZM179.43 32.1306L178.555 29.5556L176.188 30.36L177.063 32.935L179.43 32.1306ZM177.42 28.7087L175.495 28.6337L175.398 31.1318L177.323 31.2068L177.42 28.7087ZM185.916 41.5328L184.686 41.3084L184.428 42.7211L185.863 42.7817L185.916 41.5328ZM189.241 23.3078V22.0578H188.198L188.011 23.0834L189.241 23.3078ZM193.016 23.3078L194.084 22.6586L193.719 22.0578H193.016V23.3078ZM196.541 29.1078L195.472 29.757L197.579 33.2238L197.789 29.1724L196.541 29.1078ZM196.841 23.3078L197.032 22.0726L195.664 21.8602L195.592 23.2432L196.841 23.3078ZM202.641 24.2078L203.887 24.2948L203.967 23.1487L202.832 22.9726L202.641 24.2078ZM201.416 41.7578L201.338 43.0054L202.576 43.0828L202.662 41.8448L201.416 41.7578ZM196.616 41.4578L195.57 42.1426L195.913 42.6663L196.538 42.7054L196.616 41.4578ZM192.916 35.8078L193.961 35.123L192.241 32.4964L191.685 35.5864L192.916 35.8078ZM191.841 41.7828L191.788 43.0317L192.878 43.0777L193.071 42.0041L191.841 41.7828ZM187.145 41.7571L190.47 23.5321L188.011 23.0834L184.686 41.3084L187.145 41.7571ZM189.241 24.5578H193.016V22.0578H189.241V24.5578ZM191.947 23.957L195.472 29.757L197.609 28.4586L194.084 22.6586L191.947 23.957ZM197.789 29.1724L198.089 23.3724L195.592 23.2432L195.292 29.0432L197.789 29.1724ZM196.649 24.543L202.449 25.443L202.832 22.9726L197.032 22.0726L196.649 24.543ZM201.394 24.1207L200.169 41.6707L202.662 41.8448L203.887 24.2948L201.394 24.1207ZM201.493 40.5102L196.694 40.2102L196.538 42.7054L201.338 43.0054L201.493 40.5102ZM197.661 40.773L193.961 35.123L191.87 36.4926L195.57 42.1426L197.661 40.773ZM191.685 35.5864L190.61 41.5614L193.071 42.0041L194.146 36.0291L191.685 35.5864ZM191.893 40.5339L185.968 40.2839L185.863 42.7817L191.788 43.0317L191.893 40.5339ZM210.254 23.2578L210.335 22.0104L209.972 21.9868L209.653 22.1613L210.254 23.2578ZM217.154 23.7078L218.403 23.7596L218.453 22.5399L217.235 22.4604L217.154 23.7078ZM216.879 30.3328L216.35 31.4655L218.05 32.2587L218.128 30.3846L216.879 30.3328ZM212.379 28.2328L212.907 27.1001L212.38 26.8538L211.852 27.0993L212.379 28.2328ZM208.454 30.0578L207.927 28.9243L207.236 29.2454L207.205 30.0064L208.454 30.0578ZM208.279 34.3078L207.03 34.2564L207.001 34.95L207.575 35.3409L208.279 34.3078ZM211.729 36.6578L211.025 37.6909L211.644 38.1123L212.307 37.7658L211.729 36.6578ZM216.804 34.0078L218.018 33.7118L217.64 32.1609L216.225 32.8998L216.804 34.0078ZM218.504 40.9828L218.613 42.228L220.063 42.1008L219.718 40.6868L218.504 40.9828ZM208.529 41.8578L207.704 42.7976L208.106 43.1497L208.638 43.103L208.529 41.8578ZM203.654 37.5828L202.447 37.9084L202.545 38.2734L202.829 38.5226L203.654 37.5828ZM202.204 32.2078L201.039 31.754L200.89 32.1368L200.997 32.5334L202.204 32.2078ZM204.454 26.4328L203.853 25.3363L203.454 25.5549L203.289 25.979L204.454 26.4328ZM210.172 24.5051L217.072 24.9551L217.235 22.4604L210.335 22.0104L210.172 24.5051ZM215.905 23.6559L215.63 30.2809L218.128 30.3846L218.403 23.7596L215.905 23.6559ZM217.407 29.2001L212.907 27.1001L211.85 29.3655L216.35 31.4655L217.407 29.2001ZM211.852 27.0993L207.927 28.9243L208.981 31.1913L212.906 29.3663L211.852 27.0993ZM207.205 30.0064L207.03 34.2564L209.528 34.3592L209.703 30.1092L207.205 30.0064ZM207.575 35.3409L211.025 37.6909L212.432 35.6247L208.982 33.2747L207.575 35.3409ZM212.307 37.7658L217.382 35.1158L216.225 32.8998L211.15 35.5498L212.307 37.7658ZM215.589 34.3038L217.289 41.2788L219.718 40.6868L218.018 33.7118L215.589 34.3038ZM218.394 39.7376L208.419 40.6126L208.638 43.103L218.613 42.228L218.394 39.7376ZM209.353 40.918L204.478 36.643L202.829 38.5226L207.704 42.7976L209.353 40.918ZM204.86 37.2572L203.41 31.8822L200.997 32.5334L202.447 37.9084L204.86 37.2572ZM203.368 32.6616L205.618 26.8866L203.289 25.979L201.039 31.754L203.368 32.6616ZM205.054 27.5293L210.854 24.3543L209.653 22.1613L203.853 25.3363L205.054 27.5293ZM218.459 24.4078L218.226 23.1799L217.085 23.3972L217.218 24.5511L218.459 24.4078ZM224.759 23.2078L226.008 23.1586L225.951 21.7083L224.526 21.9799L224.759 23.2078ZM225.059 30.8328L223.81 30.8819L223.865 32.2754L225.244 32.069L225.059 30.8328ZM228.734 30.2828L228.919 31.519L229.949 31.3649L229.984 30.3246L228.734 30.2828ZM228.959 23.5578L229.014 22.309L227.752 22.2539L227.71 23.516L228.959 23.5578ZM234.109 23.7828L235.358 23.7133L235.295 22.5834L234.164 22.534L234.109 23.7828ZM235.109 41.7328L235.066 42.982L236.434 43.0292L236.358 41.6633L235.109 41.7328ZM229.309 41.5328L228.06 41.5439L228.07 42.7408L229.266 42.782L229.309 41.5328ZM229.259 35.9078L230.509 35.8967L230.496 34.3963L229.023 34.6804L229.259 35.9078ZM225.759 36.5828L225.523 35.3554L224.484 35.5557L224.51 36.6131L225.759 36.5828ZM225.884 41.7328V42.9828H227.165L227.134 41.7025L225.884 41.7328ZM220.459 41.7328L219.218 41.8761L219.345 42.9828H220.459V41.7328ZM218.693 25.6357L224.993 24.4357L224.526 21.9799L218.226 23.1799L218.693 25.6357ZM223.51 23.2569L223.81 30.8819L226.309 30.7836L226.008 23.1586L223.51 23.2569ZM225.244 32.069L228.919 31.519L228.549 29.0466L224.874 29.5966L225.244 32.069ZM229.984 30.3246L230.209 23.5996L227.71 23.516L227.485 30.241L229.984 30.3246ZM228.905 24.8066L234.055 25.0316L234.164 22.534L229.014 22.309L228.905 24.8066ZM232.861 23.8523L233.861 41.8023L236.358 41.6633L235.358 23.7133L232.861 23.8523ZM235.153 40.4835L229.353 40.2835L229.266 42.782L235.066 42.982L235.153 40.4835ZM230.559 41.5217L230.509 35.8967L228.01 35.9189L228.06 41.5439L230.559 41.5217ZM229.023 34.6804L225.523 35.3554L225.996 37.8102L229.496 37.1352L229.023 34.6804ZM224.51 36.6131L224.635 41.7631L227.134 41.7025L227.009 36.5525L224.51 36.6131ZM225.884 40.4828H220.459V42.9828H225.884V40.4828ZM221.701 41.5894L219.701 24.2644L217.218 24.5511L219.218 41.8761L221.701 41.5894ZM236.973 23.2328V21.9828H235.952L235.748 22.9823L236.973 23.2328ZM249.223 23.2328L250.449 23.4757L250.744 21.9828H249.223V23.2328ZM248.198 28.4078L248.387 29.6433L249.253 29.5103L249.424 28.6507L248.198 28.4078ZM242.173 29.3328L241.983 28.0973L240.984 28.2506L240.925 29.2594L242.173 29.3328ZM242.098 30.6078L240.85 30.5344L240.777 31.7621L242.004 31.8543L242.098 30.6078ZM247.423 31.0078L248.67 31.0862L248.748 29.8538L247.516 29.7613L247.423 31.0078ZM247.173 34.9828L247.284 36.2278L248.353 36.1322L248.42 35.0612L247.173 34.9828ZM242.423 35.4078L242.311 34.1628L240.764 34.3012L241.23 35.7831L242.423 35.4078ZM242.848 36.7578L241.655 37.1331L241.928 37.9999L242.837 38.0077L242.848 36.7578ZM248.623 36.8078L249.772 36.3168L249.451 35.5649L248.633 35.5578L248.623 36.8078ZM250.748 41.7828V43.0328H252.641L251.897 41.2918L250.748 41.7828ZM236.973 41.7828L235.73 41.9231L235.856 43.0328H236.973V41.7828ZM235.623 29.8328L234.398 29.5823L234.358 29.7763L234.38 29.9731L235.623 29.8328ZM236.973 24.4828H249.223V21.9828H236.973V24.4828ZM247.996 22.9899L246.971 28.1649L249.424 28.6507L250.449 23.4757L247.996 22.9899ZM248.008 27.1723L241.983 28.0973L242.362 30.5683L248.387 29.6433L248.008 27.1723ZM240.925 29.2594L240.85 30.5344L243.345 30.6812L243.42 29.4062L240.925 29.2594ZM242.004 31.8543L247.329 32.2543L247.516 29.7613L242.191 29.3613L242.004 31.8543ZM246.175 30.9293L245.925 34.9043L248.42 35.0612L248.67 31.0862L246.175 30.9293ZM247.061 33.7378L242.311 34.1628L242.534 36.6528L247.284 36.2278L247.061 33.7378ZM241.23 35.7831L241.655 37.1331L244.04 36.3824L243.615 35.0324L241.23 35.7831ZM242.837 38.0077L248.612 38.0577L248.633 35.5578L242.858 35.5078L242.837 38.0077ZM247.473 37.2988L249.598 42.2738L251.897 41.2918L249.772 36.3168L247.473 37.2988ZM250.748 40.5328H236.973V43.0328H250.748V40.5328ZM238.215 41.6425L236.865 29.6925L234.38 29.9731L235.73 41.9231L238.215 41.6425ZM236.847 30.0833L238.197 23.4833L235.748 22.9823L234.398 29.5823L236.847 30.0833Z" fill="#353535" mask="url(#path-3-outside-1_229_3422)"/>
</g>
<path d="M25 72.8728L37.9325 73.1003V78.3503L33.5575 77.6328L34.765 85.8753H28.5L29.445 77.6328L25 77.4053V72.8728ZM38.8428 73.6428L43.2528 72.8028L43.4628 78.1403L46.0353 77.7553L46.1928 73.0478L49.7978 73.2053L50.4978 85.7703L46.4378 85.6303L46.4028 81.6928L43.9528 82.1653L44.0403 85.7703H40.2428L38.8428 73.6428ZM50.9444 72.9253L54.3394 72.7153L56.9644 85.1053L51.3994 85.7178L50.9444 72.9253ZM69.936 76.1278L67.6785 78.9103L65.036 77.2128L64.371 78.0528L69.096 81.5178L66.8035 85.8403H61.186L57.266 82.7253L58.9635 79.8728L62.341 81.7803L62.8485 80.9928L57.896 78.0528L62.586 72.8028H66.8035L69.936 76.1278ZM78.8351 72.9253L82.2301 72.7153L84.8551 85.1053L79.2901 85.7178L78.8351 72.9253ZM97.8267 76.1278L95.5692 78.9103L92.9267 77.2128L92.2617 78.0528L96.9867 81.5178L94.6942 85.8403H89.0767L85.1567 82.7253L86.8542 79.8728L90.2317 81.7803L90.7392 80.9928L85.7867 78.0528L90.4767 72.8028H94.6942L97.8267 76.1278ZM106.638 72.8728L119.571 73.1003V78.3503L115.196 77.6328L116.403 85.8753H110.138L111.083 77.6328L106.638 77.4053V72.8728ZM120.481 73.6428L124.891 72.8028L125.101 78.1403L127.673 77.7553L127.831 73.0478L131.436 73.2053L132.136 85.7703L128.076 85.6303L128.041 81.6928L125.591 82.1653L125.678 85.7703H121.881L120.481 73.6428ZM133.44 72.8203H142.015L141.298 76.4428L137.08 77.0903L137.028 77.9828L140.755 78.2628L140.58 81.0453L137.255 81.3428L137.553 82.2878L141.595 82.3228L143.083 85.8053H133.44L132.495 77.4403L133.44 72.8203ZM152.222 72.8203H160.797L160.079 76.4428L155.862 77.0903L155.809 77.9828L159.537 78.2628L159.362 81.0453L156.037 81.3428L156.334 82.2878L160.377 82.3228L161.864 85.8053H152.222L151.277 77.4403L152.222 72.8203ZM164.809 72.9253L167.556 75.7253L169.586 72.7328L172.911 75.9178L170.496 78.7703L174.486 81.9028L171.161 85.7353L168.291 81.9903L164.651 85.6478L161.309 82.3403L165.176 78.8578L162.236 75.5678L164.809 72.9253ZM182.479 72.8903L188.009 84.9478L182.724 85.7878L182.304 82.6903L178.052 82.5853L177.089 85.8928L171.997 84.9828L178.979 73.2403L182.479 72.8903ZM179.872 77.4753L179.154 79.2603L181.832 79.3303L181.219 77.5278L179.872 77.4753ZM187.2 84.5278L193.447 72.9603H197.14L198.365 76.4603L200.535 72.9428L203.807 72.8728L207.395 85.4553L202.722 85.8403L201.83 82.6553L200.762 79.5753L197.542 82.4453L195.075 79.1728L192.117 85.4553L187.2 84.5278ZM215.169 72.9078L218.249 75.0253L218.494 80.2053L215.379 83.2153L211.512 83.4603V85.9278H207.434L208.082 72.9078H215.169ZM212.229 76.8978L212.107 79.0153L213.262 79.1728L214.732 77.4403L212.229 76.8978ZM223.425 73.3103L222.917 81.1503L228.29 80.5028L228.78 84.5453L219.05 85.7003L218.56 72.7503L223.425 73.3103ZM230.613 72.8203H239.188L238.47 76.4428L234.253 77.0903L234.2 77.9828L237.928 78.2628L237.753 81.0453L234.428 81.3428L234.725 82.2878L238.768 82.3228L240.255 85.8053H230.613L229.668 77.4403L230.613 72.8203ZM37.6875 97.1278L35.43 99.9103L32.7875 98.2128L32.1225 99.0528L36.8475 102.518L34.555 106.84H28.9375L25.0175 103.725L26.715 100.873L30.0925 102.78L30.6 101.993L25.6475 99.0528L30.3375 93.8028H34.555L37.6875 97.1278ZM38.694 93.8203H47.269L46.5515 97.4428L42.334 98.0903L42.2815 98.9828L46.009 99.2628L45.834 102.045L42.509 102.343L42.8065 103.288L46.849 103.323L48.3365 106.805H38.694L37.749 98.4403L38.694 93.8203ZM47.7808 106.63L50.1083 93.8728H52.7508L55.2183 97.9328L55.4283 93.8728L59.4883 94.5028L58.6308 106.788L55.2708 106.578L52.6808 102.623L51.9283 106.805L47.7808 106.63ZM59.7949 93.8728L72.7274 94.1003V99.3503L68.3524 98.6328L69.5599 106.875H63.2949L64.2399 98.6328L59.7949 98.4053V93.8728ZM74.5827 93.8203H83.1577L82.4402 97.4428L78.2227 98.0903L78.1702 98.9828L81.8977 99.2628L81.7227 102.045L78.3977 102.343L78.6952 103.288L82.7377 103.323L84.2252 106.805H74.5827L73.6377 98.4403L74.5827 93.8203ZM83.6694 106.63L85.9969 93.8728H88.6394L91.1069 97.9328L91.3169 93.8728L95.3769 94.5028L94.5194 106.788L91.1594 106.578L88.5694 102.623L87.8169 106.805L83.6694 106.63ZM100.706 93.8378L105.536 94.1528L105.344 98.7903L102.194 97.3203L99.4461 98.5978L99.3236 101.573L101.739 103.218L105.291 101.363L106.481 106.245L99.4986 106.858L96.0861 103.865L95.0711 100.103L96.6461 96.0603L100.706 93.8378ZM107.395 93.8203H115.97L115.253 97.4428L111.035 98.0903L110.983 98.9828L114.71 99.2628L114.535 102.045L111.21 102.343L111.508 103.288L115.55 103.323L117.038 106.805H107.395L106.45 98.4403L107.395 93.8203ZM131.672 93.8378L135.347 96.8478L136.099 103.865L132.477 106.823H125.232V94.6253L131.672 93.8378ZM129.239 98.5103V102.325L131.602 101.503V99.5953L129.239 98.5103ZM137.285 93.8203H145.86L145.143 97.4428L140.925 98.0903L140.873 98.9828L144.6 99.2628L144.425 102.045L141.1 102.343L141.398 103.288L145.44 103.323L146.928 106.805H137.285L136.34 98.4403L137.285 93.8203ZM159.06 97.1278L156.802 99.9103L154.16 98.2128L153.495 99.0528L158.22 102.518L155.927 106.84H150.31L146.39 103.725L148.087 100.873L151.465 102.78L151.972 101.993L147.02 99.0528L151.71 93.8028H155.927L159.06 97.1278ZM164.144 93.8378L168.974 94.1528L168.781 98.7903L165.631 97.3203L162.884 98.5978L162.761 101.573L165.176 103.218L168.729 101.363L169.919 106.245L162.936 106.858L159.524 103.865L158.509 100.103L160.084 96.0603L164.144 93.8378ZM177.15 93.9253L180.388 96.2878L180.685 100.365L178.865 102.395L182.103 105.248L178.305 106.893L174.333 103.498L174.928 106.875H170.903L169.888 94.4853L177.15 93.9253ZM174.333 97.5478L174.228 100.033L175.295 100.173L176.363 98.6328L174.333 97.5478ZM181.818 93.9253L185.213 93.7153L187.838 106.105L182.273 106.718L181.818 93.9253ZM190.538 93.7853L196.61 94.5028L198.01 96.7428L197.905 99.1403L196.995 100.505L198.273 101.24L199.13 103.743L198.15 106.07L196.12 106.788L188.49 106.84L188.14 94.5378L190.538 93.7853ZM192.62 104.198L194.405 103.813V102.623L192.62 102.01V104.198ZM192.393 98.7728L194.16 98.4053V96.9703L192.393 96.5853V98.7728ZM198.806 93.9253L202.201 93.7153L204.826 106.105L199.261 106.718L198.806 93.9253ZM205.11 106.63L207.437 93.8728H210.08L212.547 97.9328L212.757 93.8728L216.817 94.5028L215.96 106.788L212.6 106.578L210.01 102.623L209.257 106.805L205.11 106.63ZM228.097 96.5153L225.104 98.1953L223.897 97.5303L222.112 98.0728L221.044 100.61L222.164 102.973L225.384 102.588L225.454 102.01L222.969 102.238L223.284 98.7203L228.464 98.7903V105.703L219.767 106.823L217.124 101.45L218.087 96.5153L221.797 93.8203L226.347 94.1353L228.097 96.5153ZM237.546 93.8728L250.479 94.1003V99.3503L246.104 98.6328L247.311 106.875H241.046L241.991 98.6328L237.546 98.4053V93.8728ZM251.389 94.6428L255.799 93.8028L256.009 99.1403L258.582 98.7553L258.739 94.0478L262.344 94.2053L263.044 106.77L258.984 106.63L258.949 102.693L256.499 103.165L256.587 106.77H252.789L251.389 94.6428ZM264.348 93.8203H272.923L272.206 97.4428L267.988 98.0903L267.936 98.9828L271.663 99.2628L271.488 102.045L268.163 102.343L268.461 103.288L272.503 103.323L273.991 106.805H264.348L263.403 98.4403L264.348 93.8203ZM29.865 115.31L29.3575 123.15L34.73 122.503L35.22 126.545L25.49 127.7L25 114.75L29.865 115.31ZM45.2434 115.03L49.0584 119.773L47.9734 126.02L41.0609 127.823L35.5484 122.958L36.3709 117.48L40.4834 114.873L45.2434 115.03ZM41.5159 119.44L40.6234 121.435L42.1634 122.468L43.7909 121.873L43.7034 119.93L41.5159 119.44ZM54.4097 114.838L59.2397 115.153L59.0472 119.79L55.8972 118.32L53.1497 119.598L53.0272 122.573L55.4422 124.218L58.9947 122.363L60.1847 127.245L53.2022 127.858L49.7897 124.865L48.7747 121.103L50.3497 117.06L54.4097 114.838ZM68.0113 114.89L73.5413 126.948L68.2563 127.788L67.8363 124.69L63.5838 124.585L62.6213 127.893L57.5288 126.983L64.5113 115.24L68.0113 114.89ZM65.4038 119.475L64.6863 121.26L67.3638 121.33L66.7513 119.528L65.4038 119.475ZM72.7319 114.873L85.6644 115.1V120.35L81.2894 119.633L82.4969 127.875H76.2319L77.1769 119.633L72.7319 119.405V114.873ZM86.6622 114.925L90.0572 114.715L92.6822 127.105L87.1172 127.718L86.6622 114.925ZM102.101 115.03L105.916 119.773L104.831 126.02L97.9188 127.823L92.4063 122.958L93.2288 117.48L97.3413 114.873L102.101 115.03ZM98.3738 119.44L97.4813 121.435L99.0213 122.468L100.649 121.873L100.561 119.93L98.3738 119.44ZM106.245 127.63L108.573 114.873H111.215L113.683 118.933L113.893 114.873L117.953 115.503L117.095 127.788L113.735 127.578L111.145 123.623L110.393 127.805L106.245 127.63ZM120.132 124.83H121.514L122.337 126.265L121.759 127.333L120.132 127.7L119.379 126.423L120.132 124.83Z" fill="#77684D"/>
<g clip-path="url(#clip0_229_3422)">
<path d="M271.711 152.5L318.887 149.231L352.169 152.5L359.758 188.628L357.564 204.45L301.532 209.664L266.094 206.742L264.077 165.658L271.711 152.5Z" fill="#353535"/>
<path d="M266.18 166.897L273.309 155.21L318.664 152.221L350.422 155.188L357.655 187.933L355.616 201.916L301.847 206.674L268.096 204.028L266.18 166.897Z" fill="#ED4650" stroke="white" stroke-width="1.25"/>
</g>
<g filter="url(#filter2_d_229_3422)">
<mask id="path-8-outside-2_229_3422" maskUnits="userSpaceOnUse" x="279" y="165.108" width="62" height="23" fill="black">
<rect fill="white" x="279" y="165.108" width="62" height="23"/>
<path d="M280.328 167.633L285.178 167.333L288.928 185.033L280.978 185.908L280.328 167.633ZM289.333 185.783L292.658 167.558H296.433L299.958 173.358L300.258 167.558L306.058 168.458L304.833 186.008L300.033 185.708L296.333 180.058L295.258 186.033L289.333 185.783ZM307.722 167.458L320.322 167.558L319.622 173.583L312.747 172.808L312.647 174.808L318.472 174.508L317.522 180.008L312.647 179.383L313.697 186.033H307.047L306.522 172.533L307.722 167.458ZM333.878 167.783L339.328 174.558L337.778 183.483L327.903 186.058L320.028 179.108L321.203 171.283L327.078 167.558L333.878 167.783ZM328.553 174.083L327.278 176.933L329.478 178.408L331.803 177.558L331.678 174.783L328.553 174.083Z"/>
</mask>
<path d="M280.328 167.633L285.178 167.333L288.928 185.033L280.978 185.908L280.328 167.633ZM289.333 185.783L292.658 167.558H296.433L299.958 173.358L300.258 167.558L306.058 168.458L304.833 186.008L300.033 185.708L296.333 180.058L295.258 186.033L289.333 185.783ZM307.722 167.458L320.322 167.558L319.622 173.583L312.747 172.808L312.647 174.808L318.472 174.508L317.522 180.008L312.647 179.383L313.697 186.033H307.047L306.522 172.533L307.722 167.458ZM333.878 167.783L339.328 174.558L337.778 183.483L327.903 186.058L320.028 179.108L321.203 171.283L327.078 167.558L333.878 167.783ZM328.553 174.083L327.278 176.933L329.478 178.408L331.803 177.558L331.678 174.783L328.553 174.083Z" fill="white"/>
<path d="M280.328 167.633L280.25 166.385L279.035 166.46L279.078 167.677L280.328 167.633ZM285.178 167.333L286.4 167.074L286.177 166.019L285.1 166.085L285.178 167.333ZM288.928 185.033L289.064 186.275L290.437 186.124L290.15 184.774L288.928 185.033ZM280.978 185.908L279.728 185.952L279.776 187.298L281.114 187.15L280.978 185.908ZM280.405 168.88L285.255 168.58L285.1 166.085L280.25 166.385L280.405 168.88ZM283.955 167.592L287.705 185.292L290.15 184.774L286.4 167.074L283.955 167.592ZM288.791 183.79L280.841 184.665L281.114 187.15L289.064 186.275L288.791 183.79ZM282.227 185.863L281.577 167.588L279.078 167.677L279.728 185.952L282.227 185.863ZM289.333 185.783L288.104 185.558L287.846 186.971L289.281 187.032L289.333 185.783ZM292.658 167.558V166.308H291.616L291.429 167.333L292.658 167.558ZM296.433 167.558L297.502 166.909L297.137 166.308H296.433V167.558ZM299.958 173.358L298.89 174.007L300.997 177.474L301.207 173.422L299.958 173.358ZM300.258 167.558L300.45 166.323L299.082 166.11L299.01 167.493L300.258 167.558ZM306.058 168.458L307.305 168.545L307.385 167.399L306.25 167.223L306.058 168.458ZM304.833 186.008L304.756 187.255L305.994 187.333L306.08 186.095L304.833 186.008ZM300.033 185.708L298.988 186.393L299.331 186.916L299.956 186.955L300.033 185.708ZM296.333 180.058L297.379 179.373L295.659 176.746L295.103 179.836L296.333 180.058ZM295.258 186.033L295.206 187.282L296.296 187.328L296.489 186.254L295.258 186.033ZM290.563 186.007L293.888 167.782L291.429 167.333L288.104 185.558L290.563 186.007ZM292.658 168.808H296.433V166.308H292.658V168.808ZM295.365 168.207L298.89 174.007L301.027 172.709L297.502 166.909L295.365 168.207ZM301.207 173.422L301.507 167.622L299.01 167.493L298.71 173.293L301.207 173.422ZM300.067 168.793L305.867 169.693L306.25 167.223L300.45 166.323L300.067 168.793ZM304.812 168.371L303.587 185.921L306.08 186.095L307.305 168.545L304.812 168.371ZM304.911 184.76L300.111 184.46L299.956 186.955L304.756 187.255L304.911 184.76ZM301.079 185.023L297.379 179.373L295.288 180.743L298.988 186.393L301.079 185.023ZM295.103 179.836L294.028 185.811L296.489 186.254L297.564 180.279L295.103 179.836ZM295.311 184.784L289.386 184.534L289.281 187.032L295.206 187.282L295.311 184.784ZM307.722 167.458L307.732 166.208L306.735 166.2L306.505 167.17L307.722 167.458ZM320.322 167.558L321.563 167.702L321.724 166.319L320.332 166.308L320.322 167.558ZM319.622 173.583L319.482 174.825L320.719 174.964L320.863 173.727L319.622 173.583ZM312.747 172.808L312.887 171.566L311.565 171.417L311.498 172.745L312.747 172.808ZM312.647 174.808L311.398 174.745L311.329 176.127L312.711 176.056L312.647 174.808ZM318.472 174.508L319.703 174.721L319.97 173.179L318.407 173.259L318.472 174.508ZM317.522 180.008L317.363 181.248L318.55 181.4L318.753 180.221L317.522 180.008ZM312.647 179.383L312.806 178.143L311.152 177.931L311.412 179.578L312.647 179.383ZM313.697 186.033V187.283H315.159L314.931 185.838L313.697 186.033ZM307.047 186.033L305.798 186.081L305.844 187.283H307.047V186.033ZM306.522 172.533L305.305 172.245L305.266 172.411L305.273 172.581L306.522 172.533ZM307.712 168.708L320.312 168.808L320.332 166.308L307.732 166.208L307.712 168.708ZM319.08 167.414L318.38 173.439L320.863 173.727L321.563 167.702L319.08 167.414ZM319.762 172.341L312.887 171.566L312.607 174.05L319.482 174.825L319.762 172.341ZM311.498 172.745L311.398 174.745L313.895 174.87L313.995 172.87L311.498 172.745ZM312.711 176.056L318.536 175.756L318.407 173.259L312.582 173.559L312.711 176.056ZM317.24 174.295L316.29 179.795L318.753 180.221L319.703 174.721L317.24 174.295ZM317.681 178.768L312.806 178.143L312.488 180.623L317.363 181.248L317.681 178.768ZM311.412 179.578L312.462 186.228L314.931 185.838L313.881 179.188L311.412 179.578ZM313.697 184.783H307.047V187.283H313.697V184.783ZM308.296 185.984L307.771 172.484L305.273 172.581L305.798 186.081L308.296 185.984ZM307.738 172.82L308.938 167.745L306.505 167.17L305.305 172.245L307.738 172.82ZM333.878 167.783L334.852 166.999L334.492 166.552L333.919 166.533L333.878 167.783ZM339.328 174.558L340.559 174.772L340.656 174.215L340.302 173.774L339.328 174.558ZM337.778 183.483L338.093 184.692L338.872 184.489L339.009 183.697L337.778 183.483ZM327.903 186.058L327.076 186.995L327.574 187.435L328.218 187.267L327.903 186.058ZM320.028 179.108L318.791 178.922L318.69 179.595L319.201 180.045L320.028 179.108ZM321.203 171.283L320.533 170.227L320.051 170.533L319.966 171.097L321.203 171.283ZM327.078 167.558L327.119 166.308L326.734 166.296L326.408 166.502L327.078 167.558ZM328.553 174.083L328.826 172.863L327.829 172.64L327.412 173.572L328.553 174.083ZM327.278 176.933L326.137 176.422L325.706 177.384L326.582 177.971L327.278 176.933ZM329.478 178.408L328.782 179.446L329.31 179.8L329.907 179.582L329.478 178.408ZM331.803 177.558L332.232 178.732L333.093 178.417L333.051 177.502L331.803 177.558ZM331.678 174.783L332.926 174.727L332.883 173.772L331.951 173.563L331.678 174.783ZM332.904 168.566L338.354 175.341L340.302 173.774L334.852 166.999L332.904 168.566ZM338.096 174.344L336.546 183.269L339.009 183.697L340.559 174.772L338.096 174.344ZM337.462 182.273L327.587 184.848L328.218 187.267L338.093 184.692L337.462 182.273ZM328.73 185.121L320.855 178.171L319.201 180.045L327.076 186.995L328.73 185.121ZM321.264 179.293L322.439 171.468L319.966 171.097L318.791 178.922L321.264 179.293ZM321.872 172.338L327.747 168.613L326.408 166.502L320.533 170.227L321.872 172.338ZM327.036 168.807L333.836 169.032L333.919 166.533L327.119 166.308L327.036 168.807ZM327.412 173.572L326.137 176.422L328.419 177.443L329.694 174.593L327.412 173.572ZM326.582 177.971L328.782 179.446L330.174 177.37L327.974 175.895L326.582 177.971ZM329.907 179.582L332.232 178.732L331.373 176.384L329.048 177.234L329.907 179.582ZM333.051 177.502L332.926 174.727L330.429 174.839L330.554 177.614L333.051 177.502ZM331.951 173.563L328.826 172.863L328.279 175.303L331.404 176.003L331.951 173.563Z" fill="#353535" mask="url(#path-8-outside-2_229_3422)"/>
</g>
<defs>
<filter id="filter0_dd_229_3422" x="0.114258" y="0.79541" width="359.772" height="225.653" filterUnits="userSpaceOnUse" color-interpolation-filters="sRGB">
<feFlood flood-opacity="0" result="BackgroundImageFix"/>
<feColorMatrix in="SourceAlpha" type="matrix" values="0 0 0 0 0 0 0 0 0 0 0 0 0 0 0 0 0 0 127 0" result="hardAlpha"/>
<feOffset dx="5" dy="5"/>
<feGaussianBlur stdDeviation="5"/>
<feComposite in2="hardAlpha" operator="out"/>
<feColorMatrix type="matrix" values="0 0 0 0 0 0 0 0 0 0 0 0 0 0 0 0 0 0 0.15 0"/>
<feBlend mode="normal" in2="BackgroundImageFix" result="effect1_dropShadow_229_3422"/>
<feColorMatrix in="SourceAlpha" type="matrix" values="0 0 0 0 0 0 0 0 0 0 0 0 0 0 0 0 0 0 127 0" result="hardAlpha"/>
<feOffset dx="5" dy="5"/>
<feComposite in2="hardAlpha" operator="out"/>
<feColorMatrix type="matrix" values="0 0 0 0 0.784948 0 0 0 0 0.738688 0 0 0 0 0.64889 0 0 0 1 0"/>
<feBlend mode="normal" in2="effect1_dropShadow_229_3422" result="effect2_dropShadow_229_3422"/>
<feBlend mode="normal" in="SourceGraphic" in2="effect2_dropShadow_229_3422" result="shape"/>
</filter>
<filter id="filter1_d_229_3422" x="91.2964" y="23.1328" width="160.701" height="21.275" filterUnits="userSpaceOnUse" color-interpolation-filters="sRGB">
<feFlood flood-opacity="0" result="BackgroundImageFix"/>
<feColorMatrix in="SourceAlpha" type="matrix" values="0 0 0 0 0 0 0 0 0 0 0 0 0 0 0 0 0 0 127 0" result="hardAlpha"/>
<feOffset dx="1.25" dy="2.5"/>
<feComposite in2="hardAlpha" operator="out"/>
<feColorMatrix type="matrix" values="0 0 0 0 0.208281 0 0 0 0 0.208281 0 0 0 0 0.208281 0 0 0 1 0"/>
<feBlend mode="normal" in2="BackgroundImageFix" result="effect1_dropShadow_229_3422"/>
<feBlend mode="normal" in="SourceGraphic" in2="effect1_dropShadow_229_3422" result="shape"/>
</filter>
<filter id="filter2_d_229_3422" x="280.328" y="167.333" width="60.25" height="21.225" filterUnits="userSpaceOnUse" color-interpolation-filters="sRGB">
<feFlood flood-opacity="0" result="BackgroundImageFix"/>
<feColorMatrix in="SourceAlpha" type="matrix" values="0 0 0 0 0 0 0 0 0 0 0 0 0 0 0 0 0 0 127 0" result="hardAlpha"/>
<feOffset dx="1.25" dy="2.5"/>
<feComposite in2="hardAlpha" operator="out"/>
<feColorMatrix type="matrix" values="0 0 0 0 0.208281 0 0 0 0 0.208281 0 0 0 0 0.208281 0 0 0 1 0"/>
<feBlend mode="normal" in2="BackgroundImageFix" result="effect1_dropShadow_229_3422"/>
<feBlend mode="normal" in="SourceGraphic" in2="effect1_dropShadow_229_3422" result="shape"/>
</filter>
<clipPath id="clip0_229_3422">
<rect width="95.6808" height="60.4328" fill="white" transform="translate(264.077 149.231)"/>
</clipPath>
</defs>
</svg>
