<svg width="353" height="221" viewBox="0 0 353 221" fill="none" xmlns="http://www.w3.org/2000/svg">
<g filter="url(#filter0_dd_292_2986)">
<path d="M19.1725 5.47787H322.328L337.139 141.486L318.883 187.408L171.963 182.023L165.103 205.989L154.801 181.394L24.4326 189.779L5.86145 175.935L5.86145 42.2712L19.1725 5.47787Z" fill="#FFFAE7"/>
<path d="M171.378 181.855L164.995 204.154L155.363 181.159L155.195 180.758L154.762 180.786L24.6171 189.156L6.47083 175.63V42.378L19.6001 6.08725H321.782L336.517 141.401L318.476 186.783L171.986 181.414L171.509 181.397L171.378 181.855Z" stroke="#C8BCA5" stroke-width="1.21875"/>
</g>
<g filter="url(#filter1_d_292_2986)">
<mask id="path-3-outside-1_292_2986" maskUnits="userSpaceOnUse" x="135.563" y="21.1637" width="69" height="22" fill="black">
<rect fill="white" x="135.563" y="21.1637" width="69" height="22"/>
<path d="M140.422 22.9556L148.88 23.9549L150.83 27.0749L150.684 30.4143L149.417 32.3156L151.196 33.3393L152.39 36.8249L151.025 40.0668L148.198 41.0662L137.57 41.1393L137.083 24.0037L140.422 22.9556ZM143.323 37.4587L145.809 36.9224V35.2649L143.323 34.4118V37.4587ZM143.006 29.9024L145.468 29.3906V27.3918L143.006 26.8556V29.9024ZM162.761 23.1018L170.464 39.8962L163.102 41.0662L162.517 36.7518L156.594 36.6056L155.254 41.2124L148.161 39.9449L157.886 23.5893L162.761 23.1018ZM159.129 29.4881L158.13 31.9743L161.859 32.0718L161.006 29.5612L159.129 29.4881ZM187.008 27.6112L183.864 31.4868L180.183 29.1224L179.257 30.2924L185.838 35.1187L182.645 41.1393H174.821L169.361 36.8006L171.725 32.8274L176.429 35.4843L177.136 34.3874L170.238 30.2924L176.771 22.9799H182.645L187.008 27.6112ZM188.41 23.0043H200.354L199.355 28.0499L193.48 28.9518L193.407 30.1949L198.599 30.5849L198.355 34.4606L193.724 34.8749L194.138 36.1912L199.769 36.2399L201.841 41.0906H188.41L187.094 29.4393L188.41 23.0043Z"/>
</mask>
<path d="M140.422 22.9556L148.88 23.9549L150.83 27.0749L150.684 30.4143L149.417 32.3156L151.196 33.3393L152.39 36.8249L151.025 40.0668L148.198 41.0662L137.57 41.1393L137.083 24.0037L140.422 22.9556ZM143.323 37.4587L145.809 36.9224V35.2649L143.323 34.4118V37.4587ZM143.006 29.9024L145.468 29.3906V27.3918L143.006 26.8556V29.9024ZM162.761 23.1018L170.464 39.8962L163.102 41.0662L162.517 36.7518L156.594 36.6056L155.254 41.2124L148.161 39.9449L157.886 23.5893L162.761 23.1018ZM159.129 29.4881L158.13 31.9743L161.859 32.0718L161.006 29.5612L159.129 29.4881ZM187.008 27.6112L183.864 31.4868L180.183 29.1224L179.257 30.2924L185.838 35.1187L182.645 41.1393H174.821L169.361 36.8006L171.725 32.8274L176.429 35.4843L177.136 34.3874L170.238 30.2924L176.771 22.9799H182.645L187.008 27.6112ZM188.41 23.0043H200.354L199.355 28.0499L193.48 28.9518L193.407 30.1949L198.599 30.5849L198.355 34.4606L193.724 34.8749L194.138 36.1912L199.769 36.2399L201.841 41.0906H188.41L187.094 29.4393L188.41 23.0043Z" fill="white"/>
<path d="M140.422 22.9556L140.565 21.7452L140.306 21.7146L140.057 21.7928L140.422 22.9556ZM148.88 23.9549L149.914 23.309L149.604 22.8132L149.023 22.7446L148.88 23.9549ZM150.83 27.0749L152.048 27.1283L152.065 26.75L151.864 26.429L150.83 27.0749ZM150.684 30.4143L151.698 31.0904L151.887 30.8074L151.902 30.4676L150.684 30.4143ZM149.417 32.3156L148.403 31.6395L147.68 32.7227L148.809 33.372L149.417 32.3156ZM151.196 33.3393L152.349 32.9443L152.201 32.5112L151.804 32.2829L151.196 33.3393ZM152.39 36.8249L153.514 37.2979L153.694 36.8695L153.543 36.4299L152.39 36.8249ZM151.025 40.0668L151.432 41.2159L151.94 41.0364L152.149 40.5398L151.025 40.0668ZM148.198 41.0662L148.206 42.2849L148.411 42.2835L148.604 42.2153L148.198 41.0662ZM137.57 41.1393L136.352 41.174L136.386 42.3662L137.579 42.358L137.57 41.1393ZM137.083 24.0037L136.718 22.8409L135.838 23.1169L135.865 24.0384L137.083 24.0037ZM143.323 37.4587H142.104V38.9683L143.58 38.65L143.323 37.4587ZM145.809 36.9224L146.066 38.1138L147.028 37.9064V36.9224H145.809ZM145.809 35.2649H147.028V34.3946L146.205 34.1122L145.809 35.2649ZM143.323 34.4118L143.718 33.259L142.104 32.7051V34.4118H143.323ZM143.006 29.9024H141.787V31.4007L143.254 31.0957L143.006 29.9024ZM145.468 29.3906L145.716 30.5838L146.687 30.382V29.3906H145.468ZM145.468 27.3918H146.687V26.41L145.727 26.201L145.468 27.3918ZM143.006 26.8556L143.265 25.6647L141.787 25.3428V26.8556H143.006ZM140.279 24.1659L148.737 25.1653L149.023 22.7446L140.565 21.7452L140.279 24.1659ZM147.847 24.6009L149.797 27.7209L151.864 26.429L149.914 23.309L147.847 24.6009ZM149.613 27.0216L149.467 30.361L151.902 30.4676L152.048 27.1283L149.613 27.0216ZM149.67 29.7383L148.403 31.6395L150.431 32.9916L151.698 31.0904L149.67 29.7383ZM148.809 33.372L150.588 34.3957L151.804 32.2829L150.024 31.2592L148.809 33.372ZM150.043 33.7344L151.237 37.22L153.543 36.4299L152.349 32.9443L150.043 33.7344ZM151.267 36.352L149.902 39.5939L152.149 40.5398L153.514 37.2979L151.267 36.352ZM150.619 38.9177L147.792 39.9171L148.604 42.2153L151.432 41.2159L150.619 38.9177ZM148.19 39.8475L137.562 39.9206L137.579 42.358L148.206 42.2849L148.19 39.8475ZM138.789 41.1047L138.301 23.969L135.865 24.0384L136.352 41.174L138.789 41.1047ZM137.448 25.1665L140.787 24.1184L140.057 21.7928L136.718 22.8409L137.448 25.1665ZM143.58 38.65L146.066 38.1138L145.552 35.7311L143.066 36.2673L143.58 38.65ZM147.028 36.9224V35.2649H144.59V36.9224H147.028ZM146.205 34.1122L143.718 33.259L142.927 35.5646L145.414 36.4177L146.205 34.1122ZM142.104 34.4118V37.4587H144.542V34.4118H142.104ZM143.254 31.0957L145.716 30.5838L145.22 28.1973L142.758 28.7092L143.254 31.0957ZM146.687 29.3906V27.3918H144.249V29.3906H146.687ZM145.727 26.201L143.265 25.6647L142.747 28.0464L145.209 28.5826L145.727 26.201ZM141.787 26.8556V29.9024H144.225V26.8556H141.787ZM162.761 23.1018L163.869 22.5937L163.506 21.8025L162.64 21.8891L162.761 23.1018ZM170.464 39.8962L170.655 41.0998L172.241 40.8478L171.572 39.3881L170.464 39.8962ZM163.102 41.0662L161.895 41.23L162.062 42.4656L163.294 42.2698L163.102 41.0662ZM162.517 36.7518L163.725 36.5881L163.586 35.5591L162.548 35.5334L162.517 36.7518ZM156.594 36.6056L156.624 35.3872L155.686 35.364L155.424 36.265L156.594 36.6056ZM155.254 41.2124L155.039 42.4122L156.118 42.6049L156.424 41.553L155.254 41.2124ZM148.161 39.9449L147.113 39.322L146.213 40.835L147.946 41.1447L148.161 39.9449ZM157.886 23.5893L157.765 22.3766L157.153 22.4378L156.839 22.9664L157.886 23.5893ZM159.129 29.4881L159.177 28.2702L158.319 28.2368L157.999 29.0335L159.129 29.4881ZM158.13 31.9743L156.999 31.5198L156.345 33.1468L158.098 33.1927L158.13 31.9743ZM161.859 32.0718L161.827 33.2902L163.576 33.3359L163.013 31.6797L161.859 32.0718ZM161.006 29.5612L162.16 29.1691L161.891 28.376L161.054 28.3434L161.006 29.5612ZM161.653 23.6099L169.356 40.4043L171.572 39.3881L163.869 22.5937L161.653 23.6099ZM170.272 38.6926L162.911 39.8626L163.294 42.2698L170.655 41.0998L170.272 38.6926ZM164.31 40.9024L163.725 36.5881L161.31 36.9156L161.895 41.23L164.31 40.9024ZM162.548 35.5334L156.624 35.3872L156.564 37.8239L162.487 37.9702L162.548 35.5334ZM155.424 36.265L154.083 40.8719L156.424 41.553L157.765 36.9461L155.424 36.265ZM155.468 40.0127L148.375 38.7452L147.946 41.1447L155.039 42.4122L155.468 40.0127ZM149.208 40.5679L158.934 24.2122L156.839 22.9664L147.113 39.322L149.208 40.5679ZM158.007 24.802L162.882 24.3145L162.64 21.8891L157.765 22.3766L158.007 24.802ZM157.999 29.0335L156.999 31.5198L159.261 32.4289L160.26 29.9426L157.999 29.0335ZM158.098 33.1927L161.827 33.2902L161.891 30.8535L158.162 30.756L158.098 33.1927ZM163.013 31.6797L162.16 29.1691L159.852 29.9533L160.705 32.4639L163.013 31.6797ZM161.054 28.3434L159.177 28.2702L159.082 30.7059L160.959 30.779L161.054 28.3434ZM187.008 27.6112L187.955 28.3791L188.626 27.5513L187.895 26.7755L187.008 27.6112ZM183.864 31.4868L183.205 32.5122L184.123 33.1018L184.81 32.2547L183.864 31.4868ZM180.183 29.1224L180.842 28.097L179.913 27.5003L179.228 28.366L180.183 29.1224ZM179.257 30.2924L178.301 29.536L177.517 30.5274L178.536 31.2753L179.257 30.2924ZM185.838 35.1187L186.915 35.6897L187.409 34.7589L186.559 34.1359L185.838 35.1187ZM182.645 41.1393V42.3581H183.378L183.722 41.7104L182.645 41.1393ZM174.821 41.1393L174.063 42.0935L174.395 42.3581H174.821V41.1393ZM169.361 36.8006L168.313 36.1773L167.769 37.0923L168.603 37.7547L169.361 36.8006ZM171.725 32.8274L172.324 31.7662L171.287 31.1804L170.678 32.2042L171.725 32.8274ZM176.429 35.4843L175.83 36.5455L176.831 37.1109L177.454 36.1445L176.429 35.4843ZM177.136 34.3874L178.161 35.0476L178.846 33.9849L177.758 33.3394L177.136 34.3874ZM170.238 30.2924L169.329 29.4805L168.343 30.5847L169.616 31.3404L170.238 30.2924ZM176.771 22.9799V21.7612H176.225L175.862 22.168L176.771 22.9799ZM182.645 22.9799L183.532 22.1442L183.171 21.7612H182.645V22.9799ZM186.062 26.8433L182.917 30.719L184.81 32.2547L187.955 28.3791L186.062 26.8433ZM184.523 30.4614L180.842 28.097L179.525 30.1479L183.205 32.5122L184.523 30.4614ZM179.228 28.366L178.301 29.536L180.213 31.0489L181.139 29.8789L179.228 28.366ZM178.536 31.2753L185.118 36.1015L186.559 34.1359L179.978 29.3096L178.536 31.2753ZM184.762 34.5477L181.568 40.5683L183.722 41.7104L186.915 35.6897L184.762 34.5477ZM182.645 39.9206H174.821V42.3581H182.645V39.9206ZM175.579 40.1851L170.119 35.8464L168.603 37.7547L174.063 42.0935L175.579 40.1851ZM170.408 37.4238L172.772 33.4507L170.678 32.2042L168.313 36.1773L170.408 37.4238ZM171.126 33.8886L175.83 36.5455L177.029 34.4231L172.324 31.7662L171.126 33.8886ZM177.454 36.1445L178.161 35.0476L176.112 33.7272L175.405 34.8241L177.454 36.1445ZM177.758 33.3394L170.86 29.2444L169.616 31.3404L176.514 35.4354L177.758 33.3394ZM171.147 31.1044L177.68 23.7919L175.862 22.168L169.329 29.4805L171.147 31.1044ZM176.771 24.1987H182.645V21.7612H176.771V24.1987ZM181.758 23.8157L186.121 28.4469L187.895 26.7755L183.532 22.1442L181.758 23.8157ZM188.41 23.0043V21.7856H187.415L187.216 22.7601L188.41 23.0043ZM200.354 23.0043L201.549 23.2411L201.838 21.7856H200.354V23.0043ZM199.355 28.0499L199.54 29.2546L200.384 29.1249L200.55 28.2867L199.355 28.0499ZM193.48 28.9518L193.295 27.7472L192.321 27.8967L192.264 28.8803L193.48 28.9518ZM193.407 30.1949L192.19 30.1234L192.12 31.3204L193.316 31.4103L193.407 30.1949ZM198.599 30.5849L199.815 30.6614L199.891 29.4598L198.69 29.3696L198.599 30.5849ZM198.355 34.4606L198.464 35.6745L199.506 35.5812L199.572 34.5371L198.355 34.4606ZM193.724 34.8749L193.615 33.661L192.107 33.796L192.561 35.2409L193.724 34.8749ZM194.138 36.1912L192.976 36.5572L193.242 37.4022L194.128 37.4099L194.138 36.1912ZM199.769 36.2399L200.89 35.7612L200.577 35.0281L199.779 35.0212L199.769 36.2399ZM201.841 41.0906V42.3093H203.687L202.962 40.6118L201.841 41.0906ZM188.41 41.0906L187.199 41.2274L187.321 42.3093H188.41V41.0906ZM187.094 29.4393L185.9 29.1951L185.861 29.3843L185.883 29.5761L187.094 29.4393ZM188.41 24.2231H200.354V21.7856H188.41V24.2231ZM199.158 22.7675L198.159 27.8131L200.55 28.2867L201.549 23.2411L199.158 22.7675ZM199.17 26.8453L193.295 27.7472L193.665 30.1565L199.54 29.2546L199.17 26.8453ZM192.264 28.8803L192.19 30.1234L194.624 30.2665L194.697 29.0234L192.264 28.8803ZM193.316 31.4103L198.508 31.8003L198.69 29.3696L193.498 28.9796L193.316 31.4103ZM197.383 30.5084L197.139 34.3841L199.572 34.5371L199.815 30.6614L197.383 30.5084ZM198.247 33.2467L193.615 33.661L193.833 36.0888L198.464 35.6745L198.247 33.2467ZM192.561 35.2409L192.976 36.5572L195.301 35.8252L194.886 34.509L192.561 35.2409ZM194.128 37.4099L199.758 37.4587L199.779 35.0212L194.149 34.9725L194.128 37.4099ZM198.648 36.7187L200.72 41.5693L202.962 40.6118L200.89 35.7612L198.648 36.7187ZM201.841 39.8718H188.41V42.3093H201.841V39.8718ZM189.621 40.9538L188.305 29.3025L185.883 29.5761L187.199 41.2274L189.621 40.9538ZM188.288 29.6836L189.604 23.2486L187.216 22.7601L185.9 29.1951L188.288 29.6836Z" fill="#353535" mask="url(#path-3-outside-1_292_2986)"/>
</g>
<path d="M25.2501 70.0033L37.8593 70.2251V75.3439L33.5937 74.6443L34.771 82.6808H28.6626L29.584 74.6443L25.2501 74.4225V70.0033ZM38.7468 70.7541L43.0466 69.9351L43.2513 75.1391L45.7595 74.7638L45.9131 70.1739L49.428 70.3275L50.1105 82.5784L46.152 82.4419L46.1178 78.6028L43.7291 79.0635L43.8144 82.5784H40.1118L38.7468 70.7541ZM50.5459 70.0545L53.8561 69.8498L56.4154 81.93L50.9896 82.5272L50.5459 70.0545ZM69.0628 73.1769L66.8617 75.8899L64.2853 74.2348L63.6369 75.0538L68.2438 78.4322L66.0086 82.6466H60.5315L56.7095 79.6095L58.3646 76.8283L61.6576 78.6881L62.1524 77.9203L57.3238 75.0538L61.8965 69.9351H66.0086L69.0628 73.1769ZM77.7393 70.0545L81.0494 69.8498L83.6088 81.93L78.1829 82.5272L77.7393 70.0545ZM96.2561 73.1769L94.0551 75.8899L91.4786 74.2348L90.8302 75.0538L95.4371 78.4322L93.2019 82.6466H87.7249L83.9029 79.6095L85.5579 76.8283L88.851 78.6881L89.3458 77.9203L84.5171 75.0538L89.0899 69.9351H93.2019L96.2561 73.1769ZM104.847 70.0033L117.457 70.2251V75.3439L113.191 74.6443L114.368 82.6808H108.26L109.181 74.6443L104.847 74.4225V70.0033ZM118.344 70.7541L122.644 69.9351L122.849 75.1391L125.357 74.7638L125.51 70.1739L129.025 70.3275L129.708 82.5784L125.749 82.4419L125.715 78.6028L123.326 79.0635L123.412 82.5784H119.709L118.344 70.7541ZM130.979 69.9521H139.34L138.64 73.4841L134.528 74.1154L134.477 74.9856L138.111 75.2586L137.941 77.9715L134.699 78.2616L134.989 79.1829L138.93 79.2171L140.381 82.6125H130.979L130.058 74.4566L130.979 69.9521ZM149.291 69.9521H157.652L156.952 73.4841L152.84 74.1154L152.789 74.9856L156.424 75.2586L156.253 77.9715L153.011 78.2616L153.301 79.1829L157.243 79.2171L158.693 82.6125H149.291L148.37 74.4566L149.291 69.9521ZM161.564 70.0545L164.242 72.7845L166.222 69.8668L169.463 72.9722L167.109 75.7534L170.999 78.8076L167.757 82.5443L164.959 78.8929L161.41 82.4589L158.151 79.2341L161.922 75.8387L159.055 72.6309L161.564 70.0545ZM178.792 70.0204L184.184 81.7764L179.031 82.5954L178.622 79.5754L174.475 79.473L173.537 82.6978L168.572 81.8106L175.38 70.3616L178.792 70.0204ZM176.25 74.4908L175.55 76.2311L178.161 76.2994L177.564 74.5419L176.25 74.4908ZM183.395 81.3669L189.486 70.0886H193.086L194.281 73.5011L196.396 70.0716L199.587 70.0033L203.085 82.2713L198.529 82.6466L197.659 79.5413L196.618 76.5383L193.479 79.3365L191.073 76.1458L188.189 82.2713L183.395 81.3669ZM210.665 70.0374L213.668 72.102L213.907 77.1525L210.87 80.0873L207.099 80.3261V82.7319H203.123L203.755 70.0374H210.665ZM207.798 73.9277L207.679 75.9923L208.805 76.1458L210.238 74.4566L207.798 73.9277ZM218.714 70.4299L218.219 78.0739L223.457 77.4426L223.935 81.384L214.448 82.5101L213.971 69.8839L218.714 70.4299ZM225.723 69.9521H234.083L233.384 73.4841L229.272 74.1154L229.221 74.9856L232.855 75.2586L232.684 77.9715L229.442 78.2616L229.732 79.1829L233.674 79.2171L235.124 82.6125H225.723L224.801 74.4566L225.723 69.9521ZM37.6204 93.1769L35.4194 95.8899L32.8429 94.2348L32.1946 95.0538L36.8014 98.4322L34.5662 102.647H29.0892L25.2672 99.6095L26.9222 96.8283L30.2153 98.6881L30.7101 97.9203L25.8814 95.0538L30.4542 89.9351H34.5662L37.6204 93.1769ZM38.6018 89.9521H46.9624L46.2629 93.4841L42.1508 94.1154L42.0996 94.9856L45.7339 95.2586L45.5633 97.9715L42.3214 98.2616L42.6115 99.1829L46.5529 99.2171L48.0032 102.613H38.6018L37.6804 94.4566L38.6018 89.9521ZM47.4614 102.442L49.7307 90.0033H52.3071L54.7129 93.9618L54.9177 90.0033L58.8762 90.6176L58.0401 102.595L54.7641 102.391L52.2389 98.5346L51.5052 102.613L47.4614 102.442ZM59.1752 90.0033L71.7844 90.2251V95.3439L67.5187 94.6443L68.696 102.681H62.5877L63.509 94.6443L59.1752 94.4225V90.0033ZM73.5933 89.9521H81.9539L81.2543 93.4841L77.1423 94.1154L77.0911 94.9856L80.7254 95.2586L80.5548 97.9715L77.3129 98.2616L77.6029 99.1829L81.5444 99.2171L82.9947 102.613H73.5933L72.6719 94.4566L73.5933 89.9521ZM82.4528 102.442L84.7221 90.0033H87.2986L89.7044 93.9618L89.9091 90.0033L93.8676 90.6176L93.0316 102.595L89.7556 102.391L87.2303 98.5346L86.4966 102.613L82.4528 102.442ZM99.0636 89.9692L103.773 90.2763L103.585 94.7979L100.514 93.3646L97.8351 94.6102L97.7156 97.5108L100.07 99.1147L103.534 97.3061L104.694 102.067L97.8863 102.664L94.5591 99.746L93.5694 96.0776L95.1051 92.1361L99.0636 89.9692ZM105.585 89.9521H113.946L113.247 93.4841L109.134 94.1154L109.083 94.9856L112.718 95.2586L112.547 97.9715L109.305 98.2616L109.595 99.1829L113.537 99.2171L114.987 102.613H105.585L104.664 94.4566L105.585 89.9521ZM129.255 89.9692L132.838 92.9039L133.572 99.746L130.04 102.63H122.976V90.737L129.255 89.9692ZM126.884 94.5249V98.2445L129.187 97.4426V95.5828L126.884 94.5249ZM134.728 89.9521H143.089L142.389 93.4841L138.277 94.1154L138.226 94.9856L141.86 95.2586L141.69 97.9715L138.448 98.2616L138.738 99.1829L142.679 99.2171L144.13 102.613H134.728L133.807 94.4566L134.728 89.9521ZM155.958 93.1769L153.757 95.8899L151.181 94.2348L150.532 95.0538L155.139 98.4322L152.904 102.647H147.427L143.605 99.6095L145.26 96.8283L148.553 98.6881L149.048 97.9203L144.219 95.0538L148.792 89.9351H152.904L155.958 93.1769ZM160.915 89.9692L165.624 90.2763L165.437 94.7979L162.365 93.3646L159.687 94.6102L159.567 97.5108L161.922 99.1147L165.386 97.3061L166.546 102.067L159.738 102.664L156.411 99.746L155.421 96.0776L156.957 92.1361L160.915 89.9692ZM173.597 90.0545L176.753 92.3579L177.043 96.3335L175.269 98.3128L178.425 101.094L174.723 102.698L170.85 99.3877L171.43 102.681H167.505L166.516 90.6005L173.597 90.0545ZM170.85 93.5864L170.747 96.0093L171.788 96.1458L172.829 94.6443L170.85 93.5864ZM178.148 90.0545L181.458 89.8498L184.018 101.93L178.592 102.527L178.148 90.0545ZM186.649 89.918L192.57 90.6176L193.935 92.8016L193.833 95.1391L192.945 96.47L194.191 97.1866L195.027 99.6266L194.071 101.896L192.092 102.595L184.653 102.647L184.312 90.6517L186.649 89.918ZM188.68 100.07L190.42 99.6948V98.5346L188.68 97.9374V100.07ZM188.458 94.7808L190.181 94.4225V93.0234L188.458 92.648V94.7808ZM194.711 90.0545L198.021 89.8498L200.58 101.93L195.154 102.527L194.711 90.0545ZM200.857 102.442L203.127 90.0033H205.703L208.109 93.9618L208.314 90.0033L212.272 90.6176L211.436 102.595L208.16 102.391L205.635 98.5346L204.901 102.613L200.857 102.442ZM223.269 92.5798L220.352 94.2178L219.174 93.5694L217.434 94.0983L216.393 96.5724L217.485 98.8758L220.625 98.5004L220.693 97.9374L218.27 98.1592L218.577 94.7296L223.628 94.7979V101.538L215.147 102.63L212.571 97.3914L213.509 92.5798L217.127 89.9521L221.563 90.2593L223.269 92.5798ZM232.483 90.0033L245.092 90.2251V95.3439L240.826 94.6443L242.004 102.681H235.895L236.817 94.6443L232.483 94.4225V90.0033ZM245.98 90.7541L250.279 89.9351L250.484 95.1391L252.992 94.7638L253.146 90.1739L256.661 90.3275L257.343 102.578L253.385 102.442L253.351 98.6028L250.962 99.0635L251.047 102.578H247.345L245.98 90.7541ZM258.615 89.9521H266.975L266.276 93.4841L262.164 94.1154L262.113 94.9856L265.747 95.2586L265.576 97.9715L262.334 98.2616L262.624 99.1829L266.566 99.2171L268.016 102.613H258.615L257.693 94.4566L258.615 89.9521ZM29.9935 110.43L29.4987 118.074L34.7369 117.443L35.2146 121.384L25.7279 122.51L25.2501 109.884L29.9935 110.43ZM44.9874 110.157L48.7071 114.781L47.6492 120.872L40.9095 122.63L35.5348 117.886L36.3367 112.546L40.3464 110.003L44.9874 110.157ZM41.3531 114.457L40.4829 116.402L41.9844 117.408L43.5712 116.828L43.4859 114.934L41.3531 114.457ZM53.9246 109.969L58.6338 110.276L58.4461 114.798L55.3749 113.365L52.6961 114.61L52.5766 117.511L54.9313 119.115L58.395 117.306L59.5552 122.067L52.7473 122.664L49.4201 119.746L48.4305 116.078L49.9661 112.136L53.9246 109.969ZM67.1861 110.02L72.5779 121.776L67.425 122.595L67.0155 119.575L62.8693 119.473L61.9309 122.698L56.9657 121.811L63.7736 110.362L67.1861 110.02ZM64.6438 114.491L63.9443 116.231L66.5548 116.299L65.9576 114.542L64.6438 114.491ZM71.7888 110.003L84.3979 110.225V115.344L80.1323 114.644L81.3096 122.681H75.2013L76.1226 114.644L71.7888 114.423V110.003ZM85.3708 110.055L88.6809 109.85L91.2403 121.93L85.8144 122.527L85.3708 110.055ZM100.424 110.157L104.144 114.781L103.086 120.872L96.346 122.63L90.9713 117.886L91.7732 112.546L95.7829 110.003L100.424 110.157ZM96.7896 114.457L95.9194 116.402L97.4209 117.408L99.0077 116.828L98.9224 114.934L96.7896 114.457ZM104.464 122.442L106.733 110.003H109.31L111.716 113.962L111.92 110.003L115.879 110.618L115.043 122.595L111.767 122.391L109.242 118.535L108.508 122.613L104.464 122.442ZM118.004 119.712H119.352L120.153 121.111L119.59 122.152L118.004 122.51L117.27 121.265L118.004 119.712Z" fill="#77684D"/>
<g clip-path="url(#clip0_292_2986)">
<path d="M265.818 148.531L312.092 145.368L344.738 148.531L352.182 183.485L350.03 198.792L295.069 203.836L260.308 201.01L258.33 161.26L265.818 148.531Z" fill="#353535"/>
<path d="M260.389 162.462L267.381 151.158L311.874 148.265L343.029 151.136L350.122 182.813L348.123 196.335L295.378 200.939L262.268 198.379L260.389 162.462Z" fill="#ED4650" stroke="white" stroke-width="1.21875"/>
</g>
<g filter="url(#filter2_d_292_2986)">
<mask id="path-8-outside-2_292_2986" maskUnits="userSpaceOnUse" x="272.875" y="160.757" width="61" height="22" fill="black">
<rect fill="white" x="272.875" y="160.757" width="61" height="22"/>
<path d="M274.445 162.744L279.173 162.452L282.83 179.709L275.078 180.562L274.445 162.744ZM283.225 180.441L286.467 162.671H290.148L293.585 168.326L293.877 162.671L299.532 163.549L298.338 180.66L293.658 180.367L290.05 174.859L289.002 180.684L283.225 180.441ZM301.154 162.574L313.439 162.671L312.756 168.546L306.053 167.79L305.956 169.74L311.635 169.447L310.709 174.81L305.956 174.201L306.979 180.684H300.496L299.984 167.522L301.154 162.574ZM326.656 162.891L331.97 169.496L330.458 178.198L320.83 180.709L313.152 173.932L314.298 166.303L320.026 162.671L326.656 162.891ZM321.464 169.033L320.221 171.812L322.366 173.25L324.633 172.421L324.511 169.716L321.464 169.033Z"/>
</mask>
<path d="M274.445 162.744L279.173 162.452L282.83 179.709L275.078 180.562L274.445 162.744ZM283.225 180.441L286.467 162.671H290.148L293.585 168.326L293.877 162.671L299.532 163.549L298.338 180.66L293.658 180.367L290.05 174.859L289.002 180.684L283.225 180.441ZM301.154 162.574L313.439 162.671L312.756 168.546L306.053 167.79L305.956 169.74L311.635 169.447L310.709 174.81L305.956 174.201L306.979 180.684H300.496L299.984 167.522L301.154 162.574ZM326.656 162.891L331.97 169.496L330.458 178.198L320.83 180.709L313.152 173.932L314.298 166.303L320.026 162.671L326.656 162.891ZM321.464 169.033L320.221 171.812L322.366 173.25L324.633 172.421L324.511 169.716L321.464 169.033Z" fill="white"/>
<path d="M274.445 162.744L274.369 161.528L273.184 161.601L273.227 162.788L274.445 162.744ZM279.173 162.452L280.366 162.199L280.148 161.17L279.098 161.235L279.173 162.452ZM282.83 179.709L282.963 180.921L284.301 180.773L284.022 179.457L282.83 179.709ZM275.078 180.562L273.86 180.606L273.907 181.917L275.212 181.774L275.078 180.562ZM274.52 163.961L279.249 163.668L279.098 161.235L274.369 161.528L274.52 163.961ZM277.981 162.704L281.637 179.962L284.022 179.457L280.366 162.199L277.981 162.704ZM282.696 178.498L274.945 179.351L275.212 181.774L282.963 180.921L282.696 178.498ZM276.296 180.519L275.663 162.701L273.227 162.788L273.86 180.606L276.296 180.519ZM283.225 180.441L282.026 180.222L281.775 181.599L283.174 181.658L283.225 180.441ZM286.467 162.671V161.452H285.451L285.268 162.452L286.467 162.671ZM290.148 162.671L291.189 162.038L290.833 161.452H290.148V162.671ZM293.585 168.326L292.543 168.959L294.597 172.339L294.802 168.389L293.585 168.326ZM293.877 162.671L294.064 161.467L292.73 161.26L292.66 162.608L293.877 162.671ZM299.532 163.549L300.748 163.634L300.826 162.516L299.719 162.344L299.532 163.549ZM298.338 180.66L298.262 181.876L299.469 181.952L299.554 180.745L298.338 180.66ZM293.658 180.367L292.638 181.035L292.973 181.546L293.582 181.584L293.658 180.367ZM290.05 174.859L291.07 174.191L289.393 171.63L288.851 174.643L290.05 174.859ZM289.002 180.684L288.951 181.902L290.013 181.947L290.202 180.9L289.002 180.684ZM284.424 180.659L287.666 162.89L285.268 162.452L282.026 180.222L284.424 180.659ZM286.467 163.89H290.148V161.452H286.467V163.89ZM289.106 163.304L292.543 168.959L294.626 167.693L291.189 162.038L289.106 163.304ZM294.802 168.389L295.094 162.734L292.66 162.608L292.368 168.263L294.802 168.389ZM293.69 163.876L299.345 164.753L299.719 162.344L294.064 161.467L293.69 163.876ZM298.316 163.464L297.122 180.575L299.554 180.745L300.748 163.634L298.316 163.464ZM298.414 179.444L293.734 179.151L293.582 181.584L298.262 181.876L298.414 179.444ZM294.677 179.7L291.07 174.191L289.031 175.526L292.638 181.035L294.677 179.7ZM288.851 174.643L287.803 180.469L290.202 180.9L291.25 175.075L288.851 174.643ZM289.054 179.467L283.277 179.223L283.174 181.658L288.951 181.902L289.054 179.467ZM301.154 162.574L301.163 161.355L300.191 161.347L299.968 162.293L301.154 162.574ZM313.439 162.671L314.649 162.812L314.806 161.463L313.448 161.452L313.439 162.671ZM312.756 168.546L312.62 169.757L313.827 169.893L313.967 168.686L312.756 168.546ZM306.053 167.79L306.19 166.579L304.901 166.434L304.836 167.729L306.053 167.79ZM305.956 169.74L304.738 169.679L304.671 171.026L306.018 170.957L305.956 169.74ZM311.635 169.447L312.836 169.655L313.095 168.152L311.572 168.23L311.635 169.447ZM310.709 174.81L310.554 176.019L311.711 176.167L311.91 175.017L310.709 174.81ZM305.956 174.201L306.111 172.992L304.498 172.785L304.752 174.391L305.956 174.201ZM306.979 180.684V181.903H308.406L308.183 180.494L306.979 180.684ZM300.496 180.684L299.278 180.732L299.323 181.903H300.496V180.684ZM299.984 167.522L298.798 167.241L298.759 167.403L298.766 167.569L299.984 167.522ZM301.144 163.792L313.429 163.89L313.448 161.452L301.163 161.355L301.144 163.792ZM312.228 162.531L311.546 168.405L313.967 168.686L314.649 162.812L312.228 162.531ZM312.893 167.334L306.19 166.579L305.917 169.001L312.62 169.757L312.893 167.334ZM304.836 167.729L304.738 169.679L307.173 169.801L307.27 167.851L304.836 167.729ZM306.018 170.957L311.698 170.665L311.572 168.23L305.893 168.523L306.018 170.957ZM310.434 169.24L309.508 174.603L311.91 175.017L312.836 169.655L310.434 169.24ZM310.864 173.601L306.111 172.992L305.801 175.409L310.554 176.019L310.864 173.601ZM304.752 174.391L305.775 180.874L308.183 180.494L307.159 174.01L304.752 174.391ZM306.979 179.466H300.496V181.903H306.979V179.466ZM301.713 180.637L301.201 167.474L298.766 167.569L299.278 180.732L301.713 180.637ZM301.17 167.802L302.34 162.854L299.968 162.293L298.798 167.241L301.17 167.802ZM326.656 162.891L327.605 162.127L327.255 161.691L326.696 161.672L326.656 162.891ZM331.97 169.496L333.17 169.705L333.265 169.162L332.919 168.732L331.97 169.496ZM330.458 178.198L330.766 179.377L331.525 179.179L331.659 178.407L330.458 178.198ZM320.83 180.709L320.024 181.622L320.51 182.052L321.138 181.888L320.83 180.709ZM313.152 173.932L311.947 173.751L311.848 174.407L312.346 174.846L313.152 173.932ZM314.298 166.303L313.645 165.274L313.175 165.572L313.092 166.122L314.298 166.303ZM320.026 162.671L320.066 161.453L319.691 161.441L319.373 161.642L320.026 162.671ZM321.464 169.033L321.73 167.844L320.758 167.626L320.351 168.535L321.464 169.033ZM320.221 171.812L319.108 171.314L318.689 172.252L319.542 172.824L320.221 171.812ZM322.366 173.25L321.687 174.262L322.202 174.607L322.784 174.395L322.366 173.25ZM324.633 172.421L325.051 173.566L325.89 173.259L325.85 172.366L324.633 172.421ZM324.511 169.716L325.728 169.661L325.686 168.73L324.777 168.526L324.511 169.716ZM325.706 163.654L331.02 170.26L332.919 168.732L327.605 162.127L325.706 163.654ZM330.769 169.288L329.258 177.99L331.659 178.407L333.17 169.705L330.769 169.288ZM330.151 177.019L320.523 179.529L321.138 181.888L330.766 179.377L330.151 177.019ZM321.637 179.795L313.959 173.019L312.346 174.846L320.024 181.622L321.637 179.795ZM314.357 174.113L315.503 166.484L313.092 166.122L311.947 173.751L314.357 174.113ZM314.95 167.332L320.678 163.7L319.373 161.642L313.645 165.274L314.95 167.332ZM319.986 163.889L326.616 164.109L326.696 161.672L320.066 161.453L319.986 163.889ZM320.351 168.535L319.108 171.314L321.333 172.31L322.576 169.531L320.351 168.535ZM319.542 172.824L321.687 174.262L323.045 172.238L320.9 170.8L319.542 172.824ZM322.784 174.395L325.051 173.566L324.214 171.277L321.947 172.105L322.784 174.395ZM325.85 172.366L325.728 169.661L323.293 169.77L323.415 172.476L325.85 172.366ZM324.777 168.526L321.73 167.844L321.198 170.222L324.244 170.905L324.777 168.526Z" fill="#353535" mask="url(#path-8-outside-2_292_2986)"/>
</g>
<defs>
<filter id="filter0_dd_292_2986" x="0.98645" y="0.602874" width="350.778" height="220.012" filterUnits="userSpaceOnUse" color-interpolation-filters="sRGB">
<feFlood flood-opacity="0" result="BackgroundImageFix"/>
<feColorMatrix in="SourceAlpha" type="matrix" values="0 0 0 0 0 0 0 0 0 0 0 0 0 0 0 0 0 0 127 0" result="hardAlpha"/>
<feOffset dx="4.875" dy="4.875"/>
<feGaussianBlur stdDeviation="4.875"/>
<feComposite in2="hardAlpha" operator="out"/>
<feColorMatrix type="matrix" values="0 0 0 0 0 0 0 0 0 0 0 0 0 0 0 0 0 0 0.15 0"/>
<feBlend mode="normal" in2="BackgroundImageFix" result="effect1_dropShadow_292_2986"/>
<feColorMatrix in="SourceAlpha" type="matrix" values="0 0 0 0 0 0 0 0 0 0 0 0 0 0 0 0 0 0 127 0" result="hardAlpha"/>
<feOffset dx="4.875" dy="4.875"/>
<feComposite in2="hardAlpha" operator="out"/>
<feColorMatrix type="matrix" values="0 0 0 0 0.784948 0 0 0 0 0.738688 0 0 0 0 0.64889 0 0 0 1 0"/>
<feBlend mode="normal" in2="effect1_dropShadow_292_2986" result="effect2_dropShadow_292_2986"/>
<feBlend mode="normal" in="SourceGraphic" in2="effect2_dropShadow_292_2986" result="shape"/>
</filter>
<filter id="filter1_d_292_2986" x="137.083" y="22.9556" width="65.9767" height="20.6944" filterUnits="userSpaceOnUse" color-interpolation-filters="sRGB">
<feFlood flood-opacity="0" result="BackgroundImageFix"/>
<feColorMatrix in="SourceAlpha" type="matrix" values="0 0 0 0 0 0 0 0 0 0 0 0 0 0 0 0 0 0 127 0" result="hardAlpha"/>
<feOffset dx="1.21875" dy="2.4375"/>
<feComposite in2="hardAlpha" operator="out"/>
<feColorMatrix type="matrix" values="0 0 0 0 0.208281 0 0 0 0 0.208281 0 0 0 0 0.208281 0 0 0 1 0"/>
<feBlend mode="normal" in2="BackgroundImageFix" result="effect1_dropShadow_292_2986"/>
<feBlend mode="normal" in="SourceGraphic" in2="effect1_dropShadow_292_2986" result="shape"/>
</filter>
<filter id="filter2_d_292_2986" x="274.445" y="162.452" width="58.7438" height="20.6944" filterUnits="userSpaceOnUse" color-interpolation-filters="sRGB">
<feFlood flood-opacity="0" result="BackgroundImageFix"/>
<feColorMatrix in="SourceAlpha" type="matrix" values="0 0 0 0 0 0 0 0 0 0 0 0 0 0 0 0 0 0 127 0" result="hardAlpha"/>
<feOffset dx="1.21875" dy="2.4375"/>
<feComposite in2="hardAlpha" operator="out"/>
<feColorMatrix type="matrix" values="0 0 0 0 0.208281 0 0 0 0 0.208281 0 0 0 0 0.208281 0 0 0 1 0"/>
<feBlend mode="normal" in2="BackgroundImageFix" result="effect1_dropShadow_292_2986"/>
<feBlend mode="normal" in="SourceGraphic" in2="effect1_dropShadow_292_2986" result="shape"/>
</filter>
<clipPath id="clip0_292_2986">
<rect width="93.8516" height="58.4687" fill="white" transform="translate(258.33 145.368)"/>
</clipPath>
</defs>
</svg>
