<svg width="360" height="226" viewBox="0 0 360 226" fill="none" xmlns="http://www.w3.org/2000/svg">
<g filter="url(#filter0_dd_229_6938)">
<path d="M18.7666 5.25049H329.696L344.886 144.746L326.162 191.845L175.475 186.323L168.439 210.903L157.873 185.677L24.1616 194.277L5.11426 180.079L5.11426 42.9872L18.7666 5.25049Z" fill="#FFFAE7"/>
<path d="M174.874 186.151L168.328 209.02L158.449 185.436L158.277 185.025L157.833 185.054L24.3508 193.639L5.73926 179.765V43.0968L19.2052 5.87549H329.135L344.248 144.659L325.745 191.205L175.498 185.698L175.009 185.68L174.874 186.151Z" stroke="#C8BCA5" stroke-width="1.25"/>
</g>
<g filter="url(#filter1_d_229_6938)">
<mask id="path-3-outside-1_229_6938" maskUnits="userSpaceOnUse" x="147.5" y="21.3129" width="51" height="22" fill="black">
<rect fill="white" x="147.5" y="21.3129" width="51" height="22"/>
<path d="M152.232 22.6379L160.907 23.6629L162.907 26.8629L162.757 30.2879L161.457 32.2379L163.282 33.2879L164.507 36.8629L163.107 40.1879L160.207 41.2129L149.307 41.2879L148.807 23.7129L152.232 22.6379ZM155.207 37.5129L157.757 36.9629V35.2629L155.207 34.3879V37.5129ZM154.882 29.7629L157.407 29.2379V27.1879L154.882 26.6379V29.7629ZM163.918 40.9879L167.243 22.7629H171.018L174.543 28.5629L174.843 22.7629L180.643 23.6629L179.418 41.2129L174.618 40.9129L170.918 35.2629L169.843 41.2379L163.918 40.9879ZM184.532 22.6379L193.207 23.6629L195.207 26.8629L195.057 30.2879L193.757 32.2379L195.582 33.2879L196.807 36.8629L195.407 40.1879L192.507 41.2129L181.607 41.2879L181.107 23.7129L184.532 22.6379ZM187.507 37.5129L190.057 36.9629V35.2629L187.507 34.3879V37.5129ZM187.182 29.7629L189.707 29.2379V27.1879L187.182 26.6379V29.7629Z"/>
</mask>
<path d="M152.232 22.6379L160.907 23.6629L162.907 26.8629L162.757 30.2879L161.457 32.2379L163.282 33.2879L164.507 36.8629L163.107 40.1879L160.207 41.2129L149.307 41.2879L148.807 23.7129L152.232 22.6379ZM155.207 37.5129L157.757 36.9629V35.2629L155.207 34.3879V37.5129ZM154.882 29.7629L157.407 29.2379V27.1879L154.882 26.6379V29.7629ZM163.918 40.9879L167.243 22.7629H171.018L174.543 28.5629L174.843 22.7629L180.643 23.6629L179.418 41.2129L174.618 40.9129L170.918 35.2629L169.843 41.2379L163.918 40.9879ZM184.532 22.6379L193.207 23.6629L195.207 26.8629L195.057 30.2879L193.757 32.2379L195.582 33.2879L196.807 36.8629L195.407 40.1879L192.507 41.2129L181.607 41.2879L181.107 23.7129L184.532 22.6379ZM187.507 37.5129L190.057 36.9629V35.2629L187.507 34.3879V37.5129ZM187.182 29.7629L189.707 29.2379V27.1879L187.182 26.6379V29.7629Z" fill="white"/>
<path d="M152.232 22.6379L152.378 21.3965L152.113 21.3651L151.857 21.4452L152.232 22.6379ZM160.907 23.6629L161.967 23.0004L161.649 22.4919L161.053 22.4215L160.907 23.6629ZM162.907 26.8629L164.156 26.9176L164.173 26.5296L163.967 26.2004L162.907 26.8629ZM162.757 30.2879L163.797 30.9812L163.99 30.691L164.006 30.3426L162.757 30.2879ZM161.457 32.2379L160.417 31.5445L159.676 32.6555L160.833 33.3213L161.457 32.2379ZM163.282 33.2879L164.464 32.8827L164.312 32.4385L163.905 32.2044L163.282 33.2879ZM164.507 36.8629L165.659 37.3479L165.844 36.9086L165.689 36.4577L164.507 36.8629ZM163.107 40.1879L163.523 41.3664L164.044 41.1823L164.259 40.6729L163.107 40.1879ZM160.207 41.2129L160.215 42.4628L160.425 42.4614L160.623 42.3914L160.207 41.2129ZM149.307 41.2879L148.057 41.3234L148.092 42.5463L149.315 42.5378L149.307 41.2879ZM148.807 23.7129L148.432 22.5202L147.53 22.8034L147.557 23.7484L148.807 23.7129ZM155.207 37.5129H153.957V39.0612L155.47 38.7348L155.207 37.5129ZM157.757 36.9629L158.02 38.1848L159.007 37.972V36.9629H157.757ZM157.757 35.2629H159.007V34.3702L158.162 34.0805L157.757 35.2629ZM155.207 34.3879L155.612 33.2055L153.957 32.6374V34.3879H155.207ZM154.882 29.7629H153.632V31.2995L155.136 30.9867L154.882 29.7629ZM157.407 29.2379L157.661 30.4617L158.657 30.2547V29.2379H157.407ZM157.407 27.1879H158.657V26.1808L157.673 25.9665L157.407 27.1879ZM154.882 26.6379L155.148 25.4165L153.632 25.0863V26.6379H154.882ZM152.085 23.8792L160.76 24.9042L161.053 22.4215L152.378 21.3965L152.085 23.8792ZM159.847 24.3254L161.847 27.5254L163.967 26.2004L161.967 23.0004L159.847 24.3254ZM161.658 26.8082L161.508 30.2332L164.006 30.3426L164.156 26.9176L161.658 26.8082ZM161.717 29.5945L160.417 31.5445L162.497 32.9312L163.797 30.9812L161.717 29.5945ZM160.833 33.3213L162.658 34.3713L163.905 32.2044L162.08 31.1544L160.833 33.3213ZM162.099 33.6931L163.324 37.2681L165.689 36.4577L164.464 32.8827L162.099 33.6931ZM163.355 36.3778L161.955 39.7028L164.259 40.6729L165.659 37.3479L163.355 36.3778ZM162.69 39.0093L159.79 40.0343L160.623 42.3914L163.523 41.3664L162.69 39.0093ZM160.198 39.9629L149.298 40.0379L149.315 42.5378L160.215 42.4628L160.198 39.9629ZM150.556 41.2523L150.056 23.6773L147.557 23.7484L148.057 41.3234L150.556 41.2523ZM149.181 24.9055L152.606 23.8305L151.857 21.4452L148.432 22.5202L149.181 24.9055ZM155.47 38.7348L158.02 38.1848L157.493 35.741L154.943 36.291L155.47 38.7348ZM159.007 36.9629V35.2629H156.507V36.9629H159.007ZM158.162 34.0805L155.612 33.2055L154.801 35.5702L157.351 36.4452L158.162 34.0805ZM153.957 34.3879V37.5129H156.457V34.3879H153.957ZM155.136 30.9867L157.661 30.4617L157.152 28.014L154.627 28.539L155.136 30.9867ZM158.657 29.2379V27.1879H156.157V29.2379H158.657ZM157.673 25.9665L155.148 25.4165L154.616 27.8592L157.141 28.4092L157.673 25.9665ZM153.632 26.6379V29.7629H156.132V26.6379H153.632ZM163.918 40.9879L162.689 40.7635L162.431 42.1762L163.866 42.2368L163.918 40.9879ZM167.243 22.7629V21.5129H166.201L166.014 22.5385L167.243 22.7629ZM171.018 22.7629L172.087 22.1137L171.722 21.5129H171.018V22.7629ZM174.543 28.5629L173.475 29.2121L175.582 32.6789L175.792 28.6274L174.543 28.5629ZM174.843 22.7629L175.035 21.5276L173.667 21.3153L173.595 22.6983L174.843 22.7629ZM180.643 23.6629L181.89 23.7499L181.97 22.6038L180.835 22.4276L180.643 23.6629ZM179.418 41.2129L179.34 42.4604L180.579 42.5378L180.665 41.2999L179.418 41.2129ZM174.618 40.9129L173.573 41.5977L173.916 42.1214L174.54 42.1604L174.618 40.9129ZM170.918 35.2629L171.964 34.5781L170.244 31.9515L169.688 35.0415L170.918 35.2629ZM169.843 41.2379L169.791 42.4868L170.881 42.5327L171.074 41.4592L169.843 41.2379ZM165.148 41.2122L168.473 22.9872L166.014 22.5385L162.689 40.7635L165.148 41.2122ZM167.243 24.0129H171.018V21.5129H167.243V24.0129ZM169.95 23.4121L173.475 29.2121L175.612 27.9137L172.087 22.1137L169.95 23.4121ZM175.792 28.6274L176.092 22.8274L173.595 22.6983L173.295 28.4983L175.792 28.6274ZM174.652 23.9981L180.452 24.8981L180.835 22.4276L175.035 21.5276L174.652 23.9981ZM179.396 23.5758L178.171 41.1258L180.665 41.2999L181.89 23.7499L179.396 23.5758ZM179.496 39.9653L174.696 39.6653L174.54 42.1604L179.34 42.4604L179.496 39.9653ZM175.664 40.2281L171.964 34.5781L169.873 35.9477L173.573 41.5977L175.664 40.2281ZM169.688 35.0415L168.613 41.0165L171.074 41.4592L172.149 35.4842L169.688 35.0415ZM169.896 39.989L163.971 39.739L163.866 42.2368L169.791 42.4868L169.896 39.989ZM184.532 22.6379L184.678 21.3965L184.412 21.3651L184.157 21.4452L184.532 22.6379ZM193.207 23.6629L194.267 23.0004L193.949 22.4919L193.353 22.4215L193.207 23.6629ZM195.207 26.8629L196.455 26.9176L196.472 26.5296L196.267 26.2004L195.207 26.8629ZM195.057 30.2879L196.097 30.9812L196.29 30.691L196.305 30.3426L195.057 30.2879ZM193.757 32.2379L192.716 31.5445L191.976 32.6555L193.133 33.3213L193.757 32.2379ZM195.582 33.2879L196.764 32.8827L196.612 32.4385L196.205 32.2044L195.582 33.2879ZM196.807 36.8629L197.959 37.3479L198.144 36.9086L197.989 36.4577L196.807 36.8629ZM195.407 40.1879L195.823 41.3664L196.344 41.1823L196.559 40.6729L195.407 40.1879ZM192.507 41.2129L192.515 42.4628L192.725 42.4614L192.923 42.3914L192.507 41.2129ZM181.607 41.2879L180.357 41.3234L180.392 42.5463L181.615 42.5378L181.607 41.2879ZM181.107 23.7129L180.732 22.5202L179.83 22.8034L179.857 23.7484L181.107 23.7129ZM187.507 37.5129H186.257V39.0612L187.77 38.7348L187.507 37.5129ZM190.057 36.9629L190.32 38.1848L191.307 37.972V36.9629H190.057ZM190.057 35.2629H191.307V34.3702L190.462 34.0805L190.057 35.2629ZM187.507 34.3879L187.912 33.2055L186.257 32.6374V34.3879H187.507ZM187.182 29.7629H185.932V31.2995L187.436 30.9867L187.182 29.7629ZM189.707 29.2379L189.961 30.4617L190.957 30.2547V29.2379H189.707ZM189.707 27.1879H190.957V26.1808L189.973 25.9665L189.707 27.1879ZM187.182 26.6379L187.448 25.4165L185.932 25.0863V26.6379H187.182ZM184.385 23.8792L193.06 24.9042L193.353 22.4215L184.678 21.3965L184.385 23.8792ZM192.147 24.3254L194.147 27.5254L196.267 26.2004L194.267 23.0004L192.147 24.3254ZM193.958 26.8082L193.808 30.2332L196.305 30.3426L196.455 26.9176L193.958 26.8082ZM194.016 29.5945L192.716 31.5445L194.797 32.9312L196.097 30.9812L194.016 29.5945ZM193.133 33.3213L194.958 34.3713L196.205 32.2044L194.38 31.1544L193.133 33.3213ZM194.399 33.6931L195.624 37.2681L197.989 36.4577L196.764 32.8827L194.399 33.6931ZM195.654 36.3778L194.254 39.7028L196.559 40.6729L197.959 37.3479L195.654 36.3778ZM194.99 39.0093L192.09 40.0343L192.923 42.3914L195.823 41.3664L194.99 39.0093ZM192.498 39.9629L181.598 40.0379L181.615 42.5378L192.515 42.4628L192.498 39.9629ZM182.856 41.2523L182.356 23.6773L179.857 23.7484L180.357 41.3234L182.856 41.2523ZM181.481 24.9055L184.906 23.8305L184.157 21.4452L180.732 22.5202L181.481 24.9055ZM187.77 38.7348L190.32 38.1848L189.793 35.741L187.243 36.291L187.77 38.7348ZM191.307 36.9629V35.2629H188.807V36.9629H191.307ZM190.462 34.0805L187.912 33.2055L187.101 35.5702L189.651 36.4452L190.462 34.0805ZM186.257 34.3879V37.5129H188.757V34.3879H186.257ZM187.436 30.9867L189.961 30.4617L189.452 28.014L186.927 28.539L187.436 30.9867ZM190.957 29.2379V27.1879H188.457V29.2379H190.957ZM189.973 25.9665L187.448 25.4165L186.916 27.8592L189.441 28.4092L189.973 25.9665ZM185.932 26.6379V29.7629H188.432V26.6379H185.932Z" fill="#353535" mask="url(#path-3-outside-1_229_6938)"/>
</g>
<path d="M25 72.3279L37.9325 72.5554V77.8054L33.5575 77.0879L34.765 85.3304H28.5L29.445 77.0879L25 76.8604V72.3279ZM38.8428 73.0979L43.2528 72.2579L43.4628 77.5954L46.0353 77.2104L46.1928 72.5029L49.7978 72.6604L50.4978 85.2254L46.4378 85.0854L46.4028 81.1479L43.9528 81.6204L44.0403 85.2254H40.2428L38.8428 73.0979ZM50.9444 72.3804L54.3394 72.1704L56.9644 84.5604L51.3994 85.1729L50.9444 72.3804ZM69.936 75.5829L67.6785 78.3654L65.036 76.6679L64.371 77.5079L69.096 80.9729L66.8035 85.2954H61.186L57.266 82.1804L58.9635 79.3279L62.341 81.2354L62.8485 80.4479L57.896 77.5079L62.586 72.2579H66.8035L69.936 75.5829ZM78.8351 72.3804L82.2301 72.1704L84.8551 84.5604L79.2901 85.1729L78.8351 72.3804ZM97.8267 75.5829L95.5692 78.3654L92.9267 76.6679L92.2617 77.5079L96.9867 80.9729L94.6942 85.2954H89.0767L85.1567 82.1804L86.8542 79.3279L90.2317 81.2354L90.7392 80.4479L85.7867 77.5079L90.4767 72.2579H94.6942L97.8267 75.5829ZM106.638 72.3279L119.571 72.5554V77.8054L115.196 77.0879L116.403 85.3304H110.138L111.083 77.0879L106.638 76.8604V72.3279ZM120.481 73.0979L124.891 72.2579L125.101 77.5954L127.673 77.2104L127.831 72.5029L131.436 72.6604L132.136 85.2254L128.076 85.0854L128.041 81.1479L125.591 81.6204L125.678 85.2254H121.881L120.481 73.0979ZM133.44 72.2754H142.015L141.298 75.8979L137.08 76.5454L137.028 77.4379L140.755 77.7179L140.58 80.5004L137.255 80.7979L137.553 81.7429L141.595 81.7779L143.083 85.2604H133.44L132.495 76.8954L133.44 72.2754ZM152.222 72.2754H160.797L160.079 75.8979L155.862 76.5454L155.809 77.4379L159.537 77.7179L159.362 80.5004L156.037 80.7979L156.334 81.7429L160.377 81.7779L161.864 85.2604H152.222L151.277 76.8954L152.222 72.2754ZM164.809 72.3804L167.556 75.1804L169.586 72.1879L172.911 75.3729L170.496 78.2254L174.486 81.3579L171.161 85.1904L168.291 81.4454L164.651 85.1029L161.309 81.7954L165.176 78.3129L162.236 75.0229L164.809 72.3804ZM182.479 72.3454L188.009 84.4029L182.724 85.2429L182.304 82.1454L178.052 82.0404L177.089 85.3479L171.997 84.4379L178.979 72.6954L182.479 72.3454ZM179.872 76.9304L179.154 78.7154L181.832 78.7854L181.219 76.9829L179.872 76.9304ZM187.2 83.9829L193.447 72.4154H197.14L198.365 75.9154L200.535 72.3979L203.807 72.3279L207.395 84.9104L202.722 85.2954L201.83 82.1104L200.762 79.0304L197.542 81.9004L195.075 78.6279L192.117 84.9104L187.2 83.9829ZM215.169 72.3629L218.249 74.4804L218.494 79.6604L215.379 82.6704L211.512 82.9154V85.3829H207.434L208.082 72.3629H215.169ZM212.229 76.3529L212.107 78.4704L213.262 78.6279L214.732 76.8954L212.229 76.3529ZM223.425 72.7654L222.917 80.6054L228.29 79.9579L228.78 84.0004L219.05 85.1554L218.56 72.2054L223.425 72.7654ZM230.613 72.2754H239.188L238.47 75.8979L234.253 76.5454L234.2 77.4379L237.928 77.7179L237.753 80.5004L234.428 80.7979L234.725 81.7429L238.768 81.7779L240.255 85.2604H230.613L229.668 76.8954L230.613 72.2754ZM37.6875 96.5829L35.43 99.3654L32.7875 97.6679L32.1225 98.5079L36.8475 101.973L34.555 106.295H28.9375L25.0175 103.18L26.715 100.328L30.0925 102.235L30.6 101.448L25.6475 98.5079L30.3375 93.2579H34.555L37.6875 96.5829ZM38.694 93.2754H47.269L46.5515 96.8979L42.334 97.5454L42.2815 98.4379L46.009 98.7179L45.834 101.5L42.509 101.798L42.8065 102.743L46.849 102.778L48.3365 106.26H38.694L37.749 97.8954L38.694 93.2754ZM47.7808 106.085L50.1083 93.3279H52.7508L55.2183 97.3879L55.4283 93.3279L59.4883 93.9579L58.6308 106.243L55.2708 106.033L52.6808 102.078L51.9283 106.26L47.7808 106.085ZM59.7949 93.3279L72.7274 93.5554V98.8054L68.3524 98.0879L69.5599 106.33H63.2949L64.2399 98.0879L59.7949 97.8604V93.3279ZM74.5827 93.2754H83.1577L82.4402 96.8979L78.2227 97.5454L78.1702 98.4379L81.8977 98.7179L81.7227 101.5L78.3977 101.798L78.6952 102.743L82.7377 102.778L84.2252 106.26H74.5827L73.6377 97.8954L74.5827 93.2754ZM83.6694 106.085L85.9969 93.3279H88.6394L91.1069 97.3879L91.3169 93.3279L95.3769 93.9579L94.5194 106.243L91.1594 106.033L88.5694 102.078L87.8169 106.26L83.6694 106.085ZM100.706 93.2929L105.536 93.6079L105.344 98.2454L102.194 96.7754L99.4461 98.0529L99.3236 101.028L101.739 102.673L105.291 100.818L106.481 105.7L99.4986 106.313L96.0861 103.32L95.0711 99.5579L96.6461 95.5154L100.706 93.2929ZM107.395 93.2754H115.97L115.253 96.8979L111.035 97.5454L110.983 98.4379L114.71 98.7179L114.535 101.5L111.21 101.798L111.508 102.743L115.55 102.778L117.038 106.26H107.395L106.45 97.8954L107.395 93.2754ZM131.672 93.2929L135.347 96.3029L136.099 103.32L132.477 106.278H125.232V94.0804L131.672 93.2929ZM129.239 97.9654V101.78L131.602 100.958V99.0504L129.239 97.9654ZM137.285 93.2754H145.86L145.143 96.8979L140.925 97.5454L140.873 98.4379L144.6 98.7179L144.425 101.5L141.1 101.798L141.398 102.743L145.44 102.778L146.928 106.26H137.285L136.34 97.8954L137.285 93.2754ZM159.06 96.5829L156.802 99.3654L154.16 97.6679L153.495 98.5079L158.22 101.973L155.927 106.295H150.31L146.39 103.18L148.087 100.328L151.465 102.235L151.972 101.448L147.02 98.5079L151.71 93.2579H155.927L159.06 96.5829ZM164.144 93.2929L168.974 93.6079L168.781 98.2454L165.631 96.7754L162.884 98.0529L162.761 101.028L165.176 102.673L168.729 100.818L169.919 105.7L162.936 106.313L159.524 103.32L158.509 99.5579L160.084 95.5154L164.144 93.2929ZM177.15 93.3804L180.388 95.7429L180.685 99.8204L178.865 101.85L182.103 104.703L178.305 106.348L174.333 102.953L174.928 106.33H170.903L169.888 93.9404L177.15 93.3804ZM174.333 97.0029L174.228 99.4879L175.295 99.6279L176.363 98.0879L174.333 97.0029ZM181.818 93.3804L185.213 93.1704L187.838 105.56L182.273 106.173L181.818 93.3804ZM190.538 93.2404L196.61 93.9579L198.01 96.1979L197.905 98.5954L196.995 99.9604L198.273 100.695L199.13 103.198L198.15 105.525L196.12 106.243L188.49 106.295L188.14 93.9929L190.538 93.2404ZM192.62 103.653L194.405 103.268V102.078L192.62 101.465V103.653ZM192.393 98.2279L194.16 97.8604V96.4254L192.393 96.0404V98.2279ZM198.806 93.3804L202.201 93.1704L204.826 105.56L199.261 106.173L198.806 93.3804ZM205.11 106.085L207.437 93.3279H210.08L212.547 97.3879L212.757 93.3279L216.817 93.9579L215.96 106.243L212.6 106.033L210.01 102.078L209.257 106.26L205.11 106.085ZM228.097 95.9704L225.104 97.6504L223.897 96.9854L222.112 97.5279L221.044 100.065L222.164 102.428L225.384 102.043L225.454 101.465L222.969 101.693L223.284 98.1754L228.464 98.2454V105.158L219.767 106.278L217.124 100.905L218.087 95.9704L221.797 93.2754L226.347 93.5904L228.097 95.9704ZM237.546 93.3279L250.479 93.5554V98.8054L246.104 98.0879L247.311 106.33H241.046L241.991 98.0879L237.546 97.8604V93.3279ZM251.389 94.0979L255.799 93.2579L256.009 98.5954L258.582 98.2104L258.739 93.5029L262.344 93.6604L263.044 106.225L258.984 106.085L258.949 102.148L256.499 102.62L256.587 106.225H252.789L251.389 94.0979ZM264.348 93.2754H272.923L272.206 96.8979L267.988 97.5454L267.936 98.4379L271.663 98.7179L271.488 101.5L268.163 101.798L268.461 102.743L272.503 102.778L273.991 106.26H264.348L263.403 97.8954L264.348 93.2754ZM29.865 114.765L29.3575 122.605L34.73 121.958L35.22 126L25.49 127.155L25 114.205L29.865 114.765ZM45.2434 114.485L49.0584 119.228L47.9734 125.475L41.0609 127.278L35.5484 122.413L36.3709 116.935L40.4834 114.328L45.2434 114.485ZM41.5159 118.895L40.6234 120.89L42.1634 121.923L43.7909 121.328L43.7034 119.385L41.5159 118.895ZM54.4097 114.293L59.2397 114.608L59.0472 119.245L55.8972 117.775L53.1497 119.053L53.0272 122.028L55.4422 123.673L58.9947 121.818L60.1847 126.7L53.2022 127.313L49.7897 124.32L48.7747 120.558L50.3497 116.515L54.4097 114.293ZM68.0113 114.345L73.5413 126.403L68.2563 127.243L67.8363 124.145L63.5838 124.04L62.6213 127.348L57.5288 126.438L64.5113 114.695L68.0113 114.345ZM65.4038 118.93L64.6863 120.715L67.3638 120.785L66.7513 118.983L65.4038 118.93ZM72.7319 114.328L85.6644 114.555V119.805L81.2894 119.088L82.4969 127.33H76.2319L77.1769 119.088L72.7319 118.86V114.328ZM86.6622 114.38L90.0572 114.17L92.6822 126.56L87.1172 127.173L86.6622 114.38ZM102.101 114.485L105.916 119.228L104.831 125.475L97.9188 127.278L92.4063 122.413L93.2288 116.935L97.3413 114.328L102.101 114.485ZM98.3738 118.895L97.4813 120.89L99.0213 121.923L100.649 121.328L100.561 119.385L98.3738 118.895ZM106.245 127.085L108.573 114.328H111.215L113.683 118.388L113.893 114.328L117.953 114.958L117.095 127.243L113.735 127.033L111.145 123.078L110.393 127.26L106.245 127.085ZM120.132 124.285H121.514L122.337 125.72L121.759 126.788L120.132 127.155L119.379 125.878L120.132 124.285Z" fill="#77684D"/>
<g clip-path="url(#clip0_229_6938)">
<path d="M271.711 151.955L318.887 148.686L352.169 151.955L359.758 188.083L357.564 203.905L301.532 209.119L266.094 206.198L264.077 165.113L271.711 151.955Z" fill="#353535"/>
<path d="M266.18 166.352L273.309 154.665L318.664 151.676L350.422 154.643L357.655 187.389L355.616 201.371L301.847 206.129L268.096 203.483L266.18 166.352Z" fill="#ED4650" stroke="white" stroke-width="1.25"/>
</g>
<g filter="url(#filter2_d_229_6938)">
<mask id="path-8-outside-2_229_6938" maskUnits="userSpaceOnUse" x="279" y="164.563" width="62" height="23" fill="black">
<rect fill="white" x="279" y="164.563" width="62" height="23"/>
<path d="M280.328 167.088L285.178 166.788L288.928 184.488L280.978 185.363L280.328 167.088ZM289.333 185.238L292.658 167.013H296.433L299.958 172.813L300.258 167.013L306.058 167.913L304.833 185.463L300.033 185.163L296.333 179.513L295.258 185.488L289.333 185.238ZM307.722 166.913L320.322 167.013L319.622 173.038L312.747 172.263L312.647 174.263L318.472 173.963L317.522 179.463L312.647 178.838L313.697 185.488H307.047L306.522 171.988L307.722 166.913ZM333.878 167.238L339.328 174.013L337.778 182.938L327.903 185.513L320.028 178.563L321.203 170.738L327.078 167.013L333.878 167.238ZM328.553 173.538L327.278 176.388L329.478 177.863L331.803 177.013L331.678 174.238L328.553 173.538Z"/>
</mask>
<path d="M280.328 167.088L285.178 166.788L288.928 184.488L280.978 185.363L280.328 167.088ZM289.333 185.238L292.658 167.013H296.433L299.958 172.813L300.258 167.013L306.058 167.913L304.833 185.463L300.033 185.163L296.333 179.513L295.258 185.488L289.333 185.238ZM307.722 166.913L320.322 167.013L319.622 173.038L312.747 172.263L312.647 174.263L318.472 173.963L317.522 179.463L312.647 178.838L313.697 185.488H307.047L306.522 171.988L307.722 166.913ZM333.878 167.238L339.328 174.013L337.778 182.938L327.903 185.513L320.028 178.563L321.203 170.738L327.078 167.013L333.878 167.238ZM328.553 173.538L327.278 176.388L329.478 177.863L331.803 177.013L331.678 174.238L328.553 173.538Z" fill="white"/>
<path d="M280.328 167.088L280.25 165.84L279.035 165.915L279.078 167.132L280.328 167.088ZM285.178 166.788L286.4 166.529L286.177 165.474L285.1 165.54L285.178 166.788ZM288.928 184.488L289.064 185.73L290.437 185.579L290.15 184.229L288.928 184.488ZM280.978 185.363L279.728 185.407L279.776 186.753L281.114 186.605L280.978 185.363ZM280.405 168.335L285.255 168.035L285.1 165.54L280.25 165.84L280.405 168.335ZM283.955 167.047L287.705 184.747L290.15 184.229L286.4 166.529L283.955 167.047ZM288.791 183.245L280.841 184.12L281.114 186.605L289.064 185.73L288.791 183.245ZM282.227 185.318L281.577 167.043L279.078 167.132L279.728 185.407L282.227 185.318ZM289.333 185.238L288.104 185.014L287.846 186.426L289.281 186.487L289.333 185.238ZM292.658 167.013V165.763H291.616L291.429 166.789L292.658 167.013ZM296.433 167.013L297.502 166.364L297.137 165.763H296.433V167.013ZM299.958 172.813L298.89 173.462L300.997 176.929L301.207 172.877L299.958 172.813ZM300.258 167.013L300.45 165.778L299.082 165.565L299.01 166.948L300.258 167.013ZM306.058 167.913L307.305 168L307.385 166.854L306.25 166.678L306.058 167.913ZM304.833 185.463L304.756 186.71L305.994 186.788L306.08 185.55L304.833 185.463ZM300.033 185.163L298.988 185.848L299.331 186.371L299.956 186.41L300.033 185.163ZM296.333 179.513L297.379 178.828L295.659 176.202L295.103 179.292L296.333 179.513ZM295.258 185.488L295.206 186.737L296.296 186.783L296.489 185.709L295.258 185.488ZM290.563 185.462L293.888 167.237L291.429 166.789L288.104 185.014L290.563 185.462ZM292.658 168.263H296.433V165.763H292.658V168.263ZM295.365 167.662L298.89 173.462L301.027 172.164L297.502 166.364L295.365 167.662ZM301.207 172.877L301.507 167.077L299.01 166.948L298.71 172.748L301.207 172.877ZM300.067 168.248L305.867 169.148L306.25 166.678L300.45 165.778L300.067 168.248ZM304.812 167.826L303.587 185.376L306.08 185.55L307.305 168L304.812 167.826ZM304.911 184.215L300.111 183.915L299.956 186.41L304.756 186.71L304.911 184.215ZM301.079 184.478L297.379 178.828L295.288 180.198L298.988 185.848L301.079 184.478ZM295.103 179.292L294.028 185.267L296.489 185.709L297.564 179.734L295.103 179.292ZM295.311 184.239L289.386 183.989L289.281 186.487L295.206 186.737L295.311 184.239ZM307.722 166.913L307.732 165.663L306.735 165.655L306.505 166.625L307.722 166.913ZM320.322 167.013L321.563 167.157L321.724 165.774L320.332 165.763L320.322 167.013ZM319.622 173.038L319.482 174.28L320.719 174.42L320.863 173.182L319.622 173.038ZM312.747 172.263L312.887 171.021L311.565 170.872L311.498 172.2L312.747 172.263ZM312.647 174.263L311.398 174.2L311.329 175.582L312.711 175.511L312.647 174.263ZM318.472 173.963L319.703 174.176L319.97 172.634L318.407 172.715L318.472 173.963ZM317.522 179.463L317.363 180.703L318.55 180.855L318.753 179.676L317.522 179.463ZM312.647 178.838L312.806 177.598L311.152 177.386L311.412 179.033L312.647 178.838ZM313.697 185.488V186.738H315.159L314.931 185.293L313.697 185.488ZM307.047 185.488L305.798 185.536L305.844 186.738H307.047V185.488ZM306.522 171.988L305.305 171.7L305.266 171.866L305.273 172.036L306.522 171.988ZM307.712 168.163L320.312 168.263L320.332 165.763L307.732 165.663L307.712 168.163ZM319.08 166.869L318.38 172.894L320.863 173.182L321.563 167.157L319.08 166.869ZM319.762 171.796L312.887 171.021L312.607 173.505L319.482 174.28L319.762 171.796ZM311.498 172.2L311.398 174.2L313.895 174.325L313.995 172.325L311.498 172.2ZM312.711 175.511L318.536 175.211L318.407 172.715L312.582 173.015L312.711 175.511ZM317.24 173.75L316.29 179.25L318.753 179.676L319.703 174.176L317.24 173.75ZM317.681 178.223L312.806 177.598L312.488 180.078L317.363 180.703L317.681 178.223ZM311.412 179.033L312.462 185.683L314.931 185.293L313.881 178.643L311.412 179.033ZM313.697 184.238H307.047V186.738H313.697V184.238ZM308.296 185.439L307.771 171.939L305.273 172.036L305.798 185.536L308.296 185.439ZM307.738 172.276L308.938 167.2L306.505 166.625L305.305 171.7L307.738 172.276ZM333.878 167.238L334.852 166.454L334.492 166.008L333.919 165.989L333.878 167.238ZM339.328 174.013L340.559 174.227L340.656 173.67L340.302 173.229L339.328 174.013ZM337.778 182.938L338.093 184.147L338.872 183.944L339.009 183.152L337.778 182.938ZM327.903 185.513L327.076 186.45L327.574 186.89L328.218 186.722L327.903 185.513ZM320.028 178.563L318.791 178.377L318.69 179.05L319.201 179.5L320.028 178.563ZM321.203 170.738L320.533 169.682L320.051 169.988L319.966 170.552L321.203 170.738ZM327.078 167.013L327.119 165.764L326.734 165.751L326.408 165.957L327.078 167.013ZM328.553 173.538L328.826 172.318L327.829 172.095L327.412 173.027L328.553 173.538ZM327.278 176.388L326.137 175.877L325.706 176.839L326.582 177.426L327.278 176.388ZM329.478 177.863L328.782 178.901L329.31 179.255L329.907 179.037L329.478 177.863ZM331.803 177.013L332.232 178.187L333.093 177.872L333.051 176.957L331.803 177.013ZM331.678 174.238L332.926 174.182L332.883 173.227L331.951 173.018L331.678 174.238ZM332.904 168.021L338.354 174.796L340.302 173.229L334.852 166.454L332.904 168.021ZM338.096 173.799L336.546 182.724L339.009 183.152L340.559 174.227L338.096 173.799ZM337.462 181.728L327.587 184.303L328.218 186.722L338.093 184.147L337.462 181.728ZM328.73 184.576L320.855 177.626L319.201 179.5L327.076 186.45L328.73 184.576ZM321.264 178.748L322.439 170.923L319.966 170.552L318.791 178.377L321.264 178.748ZM321.872 171.794L327.747 168.069L326.408 165.957L320.533 169.682L321.872 171.794ZM327.036 168.262L333.836 168.487L333.919 165.989L327.119 165.764L327.036 168.262ZM327.412 173.027L326.137 175.877L328.419 176.898L329.694 174.048L327.412 173.027ZM326.582 177.426L328.782 178.901L330.174 176.825L327.974 175.35L326.582 177.426ZM329.907 179.037L332.232 178.187L331.373 175.839L329.048 176.689L329.907 179.037ZM333.051 176.957L332.926 174.182L330.429 174.294L330.554 177.069L333.051 176.957ZM331.951 173.018L328.826 172.318L328.279 174.758L331.404 175.458L331.951 173.018Z" fill="#353535" mask="url(#path-8-outside-2_229_6938)"/>
</g>
<defs>
<filter id="filter0_dd_229_6938" x="0.114258" y="0.250488" width="359.772" height="225.653" filterUnits="userSpaceOnUse" color-interpolation-filters="sRGB">
<feFlood flood-opacity="0" result="BackgroundImageFix"/>
<feColorMatrix in="SourceAlpha" type="matrix" values="0 0 0 0 0 0 0 0 0 0 0 0 0 0 0 0 0 0 127 0" result="hardAlpha"/>
<feOffset dx="5" dy="5"/>
<feGaussianBlur stdDeviation="5"/>
<feComposite in2="hardAlpha" operator="out"/>
<feColorMatrix type="matrix" values="0 0 0 0 0 0 0 0 0 0 0 0 0 0 0 0 0 0 0.15 0"/>
<feBlend mode="normal" in2="BackgroundImageFix" result="effect1_dropShadow_229_6938"/>
<feColorMatrix in="SourceAlpha" type="matrix" values="0 0 0 0 0 0 0 0 0 0 0 0 0 0 0 0 0 0 127 0" result="hardAlpha"/>
<feOffset dx="5" dy="5"/>
<feComposite in2="hardAlpha" operator="out"/>
<feColorMatrix type="matrix" values="0 0 0 0 0.784948 0 0 0 0 0.738688 0 0 0 0 0.64889 0 0 0 1 0"/>
<feBlend mode="normal" in2="effect1_dropShadow_229_6938" result="effect2_dropShadow_229_6938"/>
<feBlend mode="normal" in="SourceGraphic" in2="effect2_dropShadow_229_6938" result="shape"/>
</filter>
<filter id="filter1_d_229_6938" x="148.807" y="22.6379" width="49.25" height="21.15" filterUnits="userSpaceOnUse" color-interpolation-filters="sRGB">
<feFlood flood-opacity="0" result="BackgroundImageFix"/>
<feColorMatrix in="SourceAlpha" type="matrix" values="0 0 0 0 0 0 0 0 0 0 0 0 0 0 0 0 0 0 127 0" result="hardAlpha"/>
<feOffset dx="1.25" dy="2.5"/>
<feComposite in2="hardAlpha" operator="out"/>
<feColorMatrix type="matrix" values="0 0 0 0 0.208281 0 0 0 0 0.208281 0 0 0 0 0.208281 0 0 0 1 0"/>
<feBlend mode="normal" in2="BackgroundImageFix" result="effect1_dropShadow_229_6938"/>
<feBlend mode="normal" in="SourceGraphic" in2="effect1_dropShadow_229_6938" result="shape"/>
</filter>
<filter id="filter2_d_229_6938" x="280.328" y="166.788" width="60.25" height="21.225" filterUnits="userSpaceOnUse" color-interpolation-filters="sRGB">
<feFlood flood-opacity="0" result="BackgroundImageFix"/>
<feColorMatrix in="SourceAlpha" type="matrix" values="0 0 0 0 0 0 0 0 0 0 0 0 0 0 0 0 0 0 127 0" result="hardAlpha"/>
<feOffset dx="1.25" dy="2.5"/>
<feComposite in2="hardAlpha" operator="out"/>
<feColorMatrix type="matrix" values="0 0 0 0 0.208281 0 0 0 0 0.208281 0 0 0 0 0.208281 0 0 0 1 0"/>
<feBlend mode="normal" in2="BackgroundImageFix" result="effect1_dropShadow_229_6938"/>
<feBlend mode="normal" in="SourceGraphic" in2="effect1_dropShadow_229_6938" result="shape"/>
</filter>
<clipPath id="clip0_229_6938">
<rect width="95.6808" height="60.4328" fill="white" transform="translate(264.077 148.686)"/>
</clipPath>
</defs>
</svg>
