<svg width="361" height="226" viewBox="0 0 361 226" fill="none" xmlns="http://www.w3.org/2000/svg">
<g filter="url(#filter0_dd_292_3592)">
<path d="M19.2666 5.25049H330.196L345.386 144.746L326.662 191.845L175.975 186.323L168.939 210.903L158.373 185.677L24.6616 194.277L5.61426 180.079L5.61426 42.9872L19.2666 5.25049Z" fill="#FFFAE7"/>
<path d="M175.374 186.151L168.828 209.02L158.949 185.436L158.777 185.025L158.333 185.054L24.8508 193.639L6.23926 179.765V43.0968L19.7052 5.87549H329.635L344.748 144.659L326.245 191.205L175.998 185.698L175.509 185.68L175.374 186.151Z" stroke="#C8BCA5" stroke-width="1.25"/>
</g>
<g filter="url(#filter1_d_292_3592)">
<mask id="path-3-outside-1_292_3592" maskUnits="userSpaceOnUse" x="138.5" y="20.3129" width="68" height="23" fill="black">
<rect fill="white" x="138.5" y="20.3129" width="68" height="23"/>
<path d="M147.9 22.7129L154.8 23.1629L154.525 29.7879L150.025 27.6879L146.1 29.5129L145.925 33.7629L149.375 36.1129L154.45 33.4629L156.15 40.4379L146.175 41.3129L141.3 37.0379L139.85 31.6629L142.1 25.8879L147.9 22.7129ZM157.456 22.6879H169.706L168.681 27.8629L162.656 28.7879L162.581 30.0629L167.906 30.4629L167.656 34.4379L162.906 34.8629L163.331 36.2129L169.106 36.2629L171.231 41.2379H157.456L156.106 29.2879L157.456 22.6879ZM177.387 23.3879L176.662 34.5879L184.337 33.6629L185.037 39.4379L171.137 41.0879L170.437 22.5879L177.387 23.3879ZM199.356 22.9879L204.806 29.7629L203.256 38.6879L193.381 41.2629L185.506 34.3129L186.681 26.4879L192.556 22.7629L199.356 22.9879ZM194.031 29.2879L192.756 32.1379L194.956 33.6129L197.281 32.7629L197.156 29.9879L194.031 29.2879Z"/>
</mask>
<path d="M147.9 22.7129L154.8 23.1629L154.525 29.7879L150.025 27.6879L146.1 29.5129L145.925 33.7629L149.375 36.1129L154.45 33.4629L156.15 40.4379L146.175 41.3129L141.3 37.0379L139.85 31.6629L142.1 25.8879L147.9 22.7129ZM157.456 22.6879H169.706L168.681 27.8629L162.656 28.7879L162.581 30.0629L167.906 30.4629L167.656 34.4379L162.906 34.8629L163.331 36.2129L169.106 36.2629L171.231 41.2379H157.456L156.106 29.2879L157.456 22.6879ZM177.387 23.3879L176.662 34.5879L184.337 33.6629L185.037 39.4379L171.137 41.0879L170.437 22.5879L177.387 23.3879ZM199.356 22.9879L204.806 29.7629L203.256 38.6879L193.381 41.2629L185.506 34.3129L186.681 26.4879L192.556 22.7629L199.356 22.9879ZM194.031 29.2879L192.756 32.1379L194.956 33.6129L197.281 32.7629L197.156 29.9879L194.031 29.2879Z" fill="white"/>
<path d="M147.9 22.7129L147.981 21.4655L147.618 21.4419L147.3 21.6164L147.9 22.7129ZM154.8 23.1629L156.049 23.2147L156.099 21.995L154.881 21.9155L154.8 23.1629ZM154.525 29.7879L153.996 30.9206L155.696 31.7138L155.774 29.8397L154.525 29.7879ZM150.025 27.6879L150.553 26.5551L150.026 26.3089L149.498 26.5544L150.025 27.6879ZM146.1 29.5129L145.573 28.3794L144.882 28.7005L144.851 29.4614L146.1 29.5129ZM145.925 33.7629L144.676 33.7114L144.647 34.4051L145.221 34.796L145.925 33.7629ZM149.375 36.1129L148.671 37.146L149.29 37.5674L149.953 37.2209L149.375 36.1129ZM154.45 33.4629L155.664 33.1669L155.286 31.6159L153.871 32.3548L154.45 33.4629ZM156.15 40.4379L156.259 41.6831L157.709 41.5559L157.364 40.1419L156.15 40.4379ZM146.175 41.3129L145.351 42.2527L145.752 42.6047L146.284 42.5581L146.175 41.3129ZM141.3 37.0379L140.093 37.3634L140.191 37.7284L140.476 37.9777L141.3 37.0379ZM139.85 31.6629L138.685 31.2091L138.536 31.5918L138.643 31.9884L139.85 31.6629ZM142.1 25.8879L141.5 24.7914L141.1 25.01L140.935 25.4341L142.1 25.8879ZM147.818 23.9602L154.718 24.4102L154.881 21.9155L147.981 21.4655L147.818 23.9602ZM153.551 23.111L153.276 29.736L155.774 29.8397L156.049 23.2147L153.551 23.111ZM155.053 28.6551L150.553 26.5551L149.496 28.8206L153.996 30.9206L155.053 28.6551ZM149.498 26.5544L145.573 28.3794L146.627 30.6463L150.552 28.8213L149.498 26.5544ZM144.851 29.4614L144.676 33.7114L147.174 33.8143L147.349 29.5643L144.851 29.4614ZM145.221 34.796L148.671 37.146L150.078 35.0798L146.628 32.7298L145.221 34.796ZM149.953 37.2209L155.028 34.5709L153.871 32.3548L148.796 35.0048L149.953 37.2209ZM153.235 33.7589L154.935 40.7339L157.364 40.1419L155.664 33.1669L153.235 33.7589ZM156.041 39.1926L146.066 40.0676L146.284 42.5581L156.259 41.6831L156.041 39.1926ZM146.999 40.373L142.124 36.098L140.476 37.9777L145.351 42.2527L146.999 40.373ZM142.507 36.7123L141.057 31.3373L138.643 31.9884L140.093 37.3634L142.507 36.7123ZM141.014 32.1167L143.264 26.3417L140.935 25.4341L138.685 31.2091L141.014 32.1167ZM142.7 26.9843L148.5 23.8093L147.3 21.6164L141.5 24.7914L142.7 26.9843ZM157.456 22.6879V21.4379H156.435L156.231 22.4374L157.456 22.6879ZM169.706 22.6879L170.932 22.9307L171.227 21.4379H169.706V22.6879ZM168.681 27.8629L168.87 29.0984L169.736 28.9654L169.907 28.1057L168.681 27.8629ZM162.656 28.7879L162.466 27.5523L161.467 27.7057L161.408 28.7145L162.656 28.7879ZM162.581 30.0629L161.333 29.9895L161.261 31.2172L162.487 31.3094L162.581 30.0629ZM167.906 30.4629L169.153 30.5413L169.231 29.3089L167.999 29.2164L167.906 30.4629ZM167.656 34.4379L167.767 35.6829L168.836 35.5873L168.903 34.5163L167.656 34.4379ZM162.906 34.8629L162.794 33.6178L161.247 33.7563L161.713 35.2382L162.906 34.8629ZM163.331 36.2129L162.138 36.5882L162.411 37.455L163.32 37.4628L163.331 36.2129ZM169.106 36.2629L170.255 35.7719L169.934 35.02L169.116 35.0129L169.106 36.2629ZM171.231 41.2379V42.4879H173.124L172.38 40.7469L171.231 41.2379ZM157.456 41.2379L156.213 41.3782L156.339 42.4879H157.456V41.2379ZM156.106 29.2879L154.881 29.0374L154.841 29.2314L154.863 29.4282L156.106 29.2879ZM157.456 23.9379H169.706V21.4379H157.456V23.9379ZM168.479 22.445L167.454 27.62L169.907 28.1057L170.932 22.9307L168.479 22.445ZM168.491 26.6273L162.466 27.5523L162.845 30.0234L168.87 29.0984L168.491 26.6273ZM161.408 28.7145L161.333 29.9895L163.828 30.1363L163.903 28.8613L161.408 28.7145ZM162.487 31.3094L167.812 31.7094L167.999 29.2164L162.674 28.8164L162.487 31.3094ZM166.658 30.3844L166.408 34.3594L168.903 34.5163L169.153 30.5413L166.658 30.3844ZM167.544 33.1928L162.794 33.6178L163.017 36.1079L167.767 35.6829L167.544 33.1928ZM161.713 35.2382L162.138 36.5882L164.523 35.8375L164.098 34.4875L161.713 35.2382ZM163.32 37.4628L169.095 37.5128L169.116 35.0129L163.341 34.9629L163.32 37.4628ZM167.956 36.7539L170.081 41.7289L172.38 40.7469L170.255 35.7719L167.956 36.7539ZM171.231 39.9879H157.456V42.4879H171.231V39.9879ZM158.698 41.0975L157.348 29.1475L154.863 29.4282L156.213 41.3782L158.698 41.0975ZM157.33 29.5384L158.68 22.9384L156.231 22.4374L154.881 29.0374L157.33 29.5384ZM177.387 23.3879L178.634 23.4686L178.711 22.282L177.53 22.1461L177.387 23.3879ZM176.662 34.5879L175.414 34.5071L175.317 36.009L176.811 35.8289L176.662 34.5879ZM184.337 33.6629L185.578 33.5125L185.427 32.2724L184.187 32.4218L184.337 33.6629ZM185.037 39.4379L185.184 40.6792L186.428 40.5314L186.278 39.2875L185.037 39.4379ZM171.137 41.0879L169.888 41.1351L169.939 42.4888L171.284 42.3292L171.137 41.0879ZM170.437 22.5879L170.58 21.3461L169.132 21.1795L169.188 22.6351L170.437 22.5879ZM176.139 23.3071L175.414 34.5071L177.909 34.6686L178.634 23.4686L176.139 23.3071ZM176.811 35.8289L184.486 34.9039L184.187 32.4218L176.512 33.3468L176.811 35.8289ZM183.096 33.8133L183.796 39.5883L186.278 39.2875L185.578 33.5125L183.096 33.8133ZM184.889 38.1966L170.989 39.8466L171.284 42.3292L185.184 40.6792L184.889 38.1966ZM172.386 41.0406L171.686 22.5406L169.188 22.6351L169.888 41.1351L172.386 41.0406ZM170.294 23.8297L177.244 24.6297L177.53 22.1461L170.58 21.3461L170.294 23.8297ZM199.356 22.9879L200.33 22.2044L199.97 21.7575L199.397 21.7385L199.356 22.9879ZM204.806 29.7629L206.037 29.9768L206.134 29.4198L205.78 28.9794L204.806 29.7629ZM203.256 38.6879L203.571 39.8974L204.35 39.6944L204.487 38.9018L203.256 38.6879ZM193.381 41.2629L192.554 42.2001L193.052 42.6403L193.696 42.4724L193.381 41.2629ZM185.506 34.3129L184.27 34.1272L184.169 34.8L184.679 35.2501L185.506 34.3129ZM186.681 26.4879L186.011 25.4322L185.529 25.7378L185.445 26.3022L186.681 26.4879ZM192.556 22.7629L192.597 21.5135L192.212 21.5008L191.886 21.7072L192.556 22.7629ZM194.031 29.2879L194.304 28.0681L193.307 27.8448L192.89 28.7774L194.031 29.2879ZM192.756 32.1379L191.615 31.6274L191.184 32.5893L192.06 33.1761L192.756 32.1379ZM194.956 33.6129L194.26 34.6511L194.788 35.0052L195.385 34.7869L194.956 33.6129ZM197.281 32.7629L197.71 33.9369L198.571 33.6222L198.53 32.7066L197.281 32.7629ZM197.156 29.9879L198.405 29.9316L198.362 28.977L197.429 28.7681L197.156 29.9879ZM198.382 23.7714L203.832 30.5464L205.78 28.9794L200.33 22.2044L198.382 23.7714ZM203.574 29.549L202.024 38.474L204.487 38.9018L206.037 29.9768L203.574 29.549ZM202.94 37.4783L193.065 40.0533L193.696 42.4724L203.571 39.8974L202.94 37.4783ZM194.208 40.3257L186.333 33.3757L184.679 35.2501L192.554 42.2001L194.208 40.3257ZM186.742 34.4985L187.917 26.6735L185.445 26.3022L184.27 34.1272L186.742 34.4985ZM187.35 27.5436L193.225 23.8186L191.886 21.7072L186.011 25.4322L187.35 27.5436ZM192.514 24.0122L199.314 24.2372L199.397 21.7385L192.597 21.5135L192.514 24.0122ZM192.89 28.7774L191.615 31.6274L193.897 32.6483L195.172 29.7983L192.89 28.7774ZM192.06 33.1761L194.26 34.6511L195.652 32.5746L193.452 31.0996L192.06 33.1761ZM195.385 34.7869L197.71 33.9369L196.852 31.5889L194.527 32.4389L195.385 34.7869ZM198.53 32.7066L198.405 29.9316L195.907 30.0441L196.032 32.8191L198.53 32.7066ZM197.429 28.7681L194.304 28.0681L193.758 30.5076L196.883 31.2076L197.429 28.7681Z" fill="#353535" mask="url(#path-3-outside-1_292_3592)"/>
</g>
<path d="M25.5001 72.3279L38.4326 72.5554V77.8054L34.0576 77.0879L35.2651 85.3304H29.0001L29.9451 77.0879L25.5001 76.8604V72.3279ZM39.3429 73.0979L43.7529 72.2579L43.9629 77.5954L46.5354 77.2104L46.6929 72.5029L50.2979 72.6604L50.9979 85.2254L46.9379 85.0854L46.9029 81.1479L44.4529 81.6204L44.5404 85.2254H40.7429L39.3429 73.0979ZM51.4446 72.3804L54.8396 72.1704L57.4646 84.5604L51.8996 85.1729L51.4446 72.3804ZM70.4362 75.5829L68.1787 78.3654L65.5362 76.6679L64.8712 77.5079L69.5962 80.9729L67.3037 85.2954H61.6862L57.7662 82.1804L59.4637 79.3279L62.8412 81.2354L63.3487 80.4479L58.3962 77.5079L63.0862 72.2579H67.3037L70.4362 75.5829ZM79.3352 72.3804L82.7302 72.1704L85.3552 84.5604L79.7902 85.1729L79.3352 72.3804ZM98.3268 75.5829L96.0693 78.3654L93.4268 76.6679L92.7618 77.5079L97.4868 80.9729L95.1943 85.2954H89.5768L85.6568 82.1804L87.3543 79.3279L90.7318 81.2354L91.2393 80.4479L86.2868 77.5079L90.9768 72.2579H95.1943L98.3268 75.5829ZM107.138 72.3279L120.071 72.5554V77.8054L115.696 77.0879L116.903 85.3304H110.638L111.583 77.0879L107.138 76.8604V72.3279ZM120.981 73.0979L125.391 72.2579L125.601 77.5954L128.174 77.2104L128.331 72.5029L131.936 72.6604L132.636 85.2254L128.576 85.0854L128.541 81.1479L126.091 81.6204L126.179 85.2254H122.381L120.981 73.0979ZM133.94 72.2754H142.515L141.798 75.8979L137.58 76.5454L137.528 77.4379L141.255 77.7179L141.08 80.5004L137.755 80.7979L138.053 81.7429L142.095 81.7779L143.583 85.2604H133.94L132.995 76.8954L133.94 72.2754ZM152.722 72.2754H161.297L160.579 75.8979L156.362 76.5454L156.309 77.4379L160.037 77.7179L159.862 80.5004L156.537 80.7979L156.834 81.7429L160.877 81.7779L162.364 85.2604H152.722L151.777 76.8954L152.722 72.2754ZM165.309 72.3804L168.056 75.1804L170.086 72.1879L173.411 75.3729L170.996 78.2254L174.986 81.3579L171.661 85.1904L168.791 81.4454L165.151 85.1029L161.809 81.7954L165.676 78.3129L162.736 75.0229L165.309 72.3804ZM182.979 72.3454L188.509 84.4029L183.224 85.2429L182.804 82.1454L178.552 82.0404L177.589 85.3479L172.497 84.4379L179.479 72.6954L182.979 72.3454ZM180.372 76.9304L179.654 78.7154L182.332 78.7854L181.719 76.9829L180.372 76.9304ZM187.7 83.9829L193.947 72.4154H197.64L198.865 75.9154L201.035 72.3979L204.307 72.3279L207.895 84.9104L203.222 85.2954L202.33 82.1104L201.262 79.0304L198.042 81.9004L195.575 78.6279L192.617 84.9104L187.7 83.9829ZM215.669 72.3629L218.749 74.4804L218.994 79.6604L215.879 82.6704L212.012 82.9154V85.3829H207.934L208.582 72.3629H215.669ZM212.729 76.3529L212.607 78.4704L213.762 78.6279L215.232 76.8954L212.729 76.3529ZM223.925 72.7654L223.417 80.6054L228.79 79.9579L229.28 84.0004L219.55 85.1554L219.06 72.2054L223.925 72.7654ZM231.113 72.2754H239.688L238.971 75.8979L234.753 76.5454L234.701 77.4379L238.428 77.7179L238.253 80.5004L234.928 80.7979L235.226 81.7429L239.268 81.7779L240.756 85.2604H231.113L230.168 76.8954L231.113 72.2754ZM38.1876 96.5829L35.9301 99.3654L33.2876 97.6679L32.6226 98.5079L37.3476 101.973L35.0551 106.295H29.4376L25.5176 103.18L27.2151 100.328L30.5926 102.235L31.1001 101.448L26.1476 98.5079L30.8376 93.2579H35.0551L38.1876 96.5829ZM39.1941 93.2754H47.7691L47.0516 96.8979L42.8341 97.5454L42.7816 98.4379L46.5091 98.7179L46.3341 101.5L43.0091 101.798L43.3066 102.743L47.3491 102.778L48.8366 106.26H39.1941L38.2491 97.8954L39.1941 93.2754ZM48.2809 106.085L50.6084 93.3279H53.2509L55.7184 97.3879L55.9284 93.3279L59.9884 93.9579L59.1309 106.243L55.7709 106.033L53.1809 102.078L52.4284 106.26L48.2809 106.085ZM60.295 93.3279L73.2275 93.5554V98.8054L68.8525 98.0879L70.06 106.33H63.795L64.74 98.0879L60.295 97.8604V93.3279ZM75.0828 93.2754H83.6578L82.9403 96.8979L78.7228 97.5454L78.6703 98.4379L82.3978 98.7179L82.2228 101.5L78.8978 101.798L79.1953 102.743L83.2378 102.778L84.7253 106.26H75.0828L74.1378 97.8954L75.0828 93.2754ZM84.1696 106.085L86.4971 93.3279H89.1396L91.6071 97.3879L91.8171 93.3279L95.8771 93.9579L95.0196 106.243L91.6596 106.033L89.0696 102.078L88.3171 106.26L84.1696 106.085ZM101.206 93.2929L106.036 93.6079L105.844 98.2454L102.694 96.7754L99.9462 98.0529L99.8237 101.028L102.239 102.673L105.791 100.818L106.981 105.7L99.9987 106.313L96.5862 103.32L95.5712 99.5579L97.1462 95.5154L101.206 93.2929ZM107.895 93.2754H116.47L115.753 96.8979L111.535 97.5454L111.483 98.4379L115.21 98.7179L115.035 101.5L111.71 101.798L112.008 102.743L116.05 102.778L117.538 106.26H107.895L106.95 97.8954L107.895 93.2754ZM132.172 93.2929L135.847 96.3029L136.6 103.32L132.977 106.278H125.732V94.0804L132.172 93.2929ZM129.74 97.9654V101.78L132.102 100.958V99.0504L129.74 97.9654ZM137.785 93.2754H146.36L145.643 96.8979L141.425 97.5454L141.373 98.4379L145.1 98.7179L144.925 101.5L141.6 101.798L141.898 102.743L145.94 102.778L147.428 106.26H137.785L136.84 97.8954L137.785 93.2754ZM159.56 96.5829L157.302 99.3654L154.66 97.6679L153.995 98.5079L158.72 101.973L156.427 106.295H150.81L146.89 103.18L148.587 100.328L151.965 102.235L152.472 101.448L147.52 98.5079L152.21 93.2579H156.427L159.56 96.5829ZM164.644 93.2929L169.474 93.6079L169.281 98.2454L166.131 96.7754L163.384 98.0529L163.261 101.028L165.676 102.673L169.229 100.818L170.419 105.7L163.436 106.313L160.024 103.32L159.009 99.5579L160.584 95.5154L164.644 93.2929ZM177.65 93.3804L180.888 95.7429L181.185 99.8204L179.365 101.85L182.603 104.703L178.805 106.348L174.833 102.953L175.428 106.33H171.403L170.388 93.9404L177.65 93.3804ZM174.833 97.0029L174.728 99.4879L175.795 99.6279L176.863 98.0879L174.833 97.0029ZM182.319 93.3804L185.714 93.1704L188.339 105.56L182.774 106.173L182.319 93.3804ZM191.038 93.2404L197.11 93.9579L198.51 96.1979L198.405 98.5954L197.495 99.9604L198.773 100.695L199.63 103.198L198.65 105.525L196.62 106.243L188.99 106.295L188.64 93.9929L191.038 93.2404ZM193.12 103.653L194.905 103.268V102.078L193.12 101.465V103.653ZM192.893 98.2279L194.66 97.8604V96.4254L192.893 96.0404V98.2279ZM199.306 93.3804L202.701 93.1704L205.326 105.56L199.761 106.173L199.306 93.3804ZM205.61 106.085L207.937 93.3279H210.58L213.047 97.3879L213.257 93.3279L217.317 93.9579L216.46 106.243L213.1 106.033L210.51 102.078L209.757 106.26L205.61 106.085ZM228.597 95.9704L225.604 97.6504L224.397 96.9854L222.612 97.5279L221.544 100.065L222.664 102.428L225.884 102.043L225.954 101.465L223.469 101.693L223.784 98.1754L228.964 98.2454V105.158L220.267 106.278L217.624 100.905L218.587 95.9704L222.297 93.2754L226.847 93.5904L228.597 95.9704ZM238.047 93.3279L250.979 93.5554V98.8054L246.604 98.0879L247.812 106.33H241.547L242.492 98.0879L238.047 97.8604V93.3279ZM251.889 94.0979L256.299 93.2579L256.509 98.5954L259.082 98.2104L259.239 93.5029L262.844 93.6604L263.544 106.225L259.484 106.085L259.449 102.148L256.999 102.62L257.087 106.225H253.289L251.889 94.0979ZM264.848 93.2754H273.423L272.706 96.8979L268.488 97.5454L268.436 98.4379L272.163 98.7179L271.988 101.5L268.663 101.798L268.961 102.743L273.003 102.778L274.491 106.26H264.848L263.903 97.8954L264.848 93.2754ZM30.3651 114.765L29.8576 122.605L35.2301 121.958L35.7201 126L25.9901 127.155L25.5001 114.205L30.3651 114.765ZM45.7435 114.485L49.5585 119.228L48.4735 125.475L41.561 127.278L36.0485 122.413L36.871 116.935L40.9835 114.328L45.7435 114.485ZM42.016 118.895L41.1235 120.89L42.6635 121.923L44.291 121.328L44.2035 119.385L42.016 118.895ZM54.9098 114.293L59.7398 114.608L59.5473 119.245L56.3973 117.775L53.6498 119.053L53.5273 122.028L55.9423 123.673L59.4948 121.818L60.6848 126.7L53.7023 127.313L50.2898 124.32L49.2748 120.558L50.8498 116.515L54.9098 114.293ZM68.5114 114.345L74.0414 126.403L68.7564 127.243L68.3364 124.145L64.0839 124.04L63.1214 127.348L58.0289 126.438L65.0114 114.695L68.5114 114.345ZM65.9039 118.93L65.1864 120.715L67.8639 120.785L67.2514 118.983L65.9039 118.93ZM73.2321 114.328L86.1646 114.555V119.805L81.7896 119.088L82.9971 127.33H76.7321L77.6771 119.088L73.2321 118.86V114.328ZM87.1623 114.38L90.5573 114.17L93.1823 126.56L87.6173 127.173L87.1623 114.38ZM102.601 114.485L106.416 119.228L105.331 125.475L98.4189 127.278L92.9064 122.413L93.7289 116.935L97.8414 114.328L102.601 114.485ZM98.8739 118.895L97.9814 120.89L99.5214 121.923L101.149 121.328L101.061 119.385L98.8739 118.895ZM106.745 127.085L109.073 114.328H111.715L114.183 118.388L114.393 114.328L118.453 114.958L117.595 127.243L114.235 127.033L111.645 123.078L110.893 127.26L106.745 127.085ZM120.632 124.285H122.014L122.837 125.72L122.259 126.788L120.632 127.155L119.879 125.878L120.632 124.285Z" fill="#77684D"/>
<g clip-path="url(#clip0_292_3592)">
<path d="M272.211 151.955L319.387 148.686L352.669 151.955L360.258 188.083L358.064 203.905L302.032 209.119L266.594 206.197L264.577 165.112L272.211 151.955Z" fill="#353535"/>
<path d="M266.68 166.352L273.81 154.665L319.164 151.676L350.922 154.643L358.155 187.388L356.116 201.37L302.348 206.128L268.596 203.483L266.68 166.352Z" fill="#ED4650" stroke="white" stroke-width="1.25"/>
</g>
<g filter="url(#filter2_d_292_3592)">
<mask id="path-8-outside-2_292_3592" maskUnits="userSpaceOnUse" x="279.5" y="164.563" width="62" height="23" fill="black">
<rect fill="white" x="279.5" y="164.563" width="62" height="23"/>
<path d="M280.828 167.088L285.678 166.788L289.428 184.488L281.478 185.363L280.828 167.088ZM289.834 185.238L293.159 167.013H296.934L300.459 172.813L300.759 167.013L306.559 167.913L305.334 185.463L300.534 185.163L296.834 179.513L295.759 185.488L289.834 185.238ZM308.222 166.913L320.822 167.013L320.122 173.038L313.247 172.263L313.147 174.263L318.972 173.963L318.022 179.463L313.147 178.838L314.197 185.488H307.547L307.022 171.988L308.222 166.913ZM334.378 167.238L339.828 174.013L338.278 182.938L328.403 185.513L320.528 178.563L321.703 170.738L327.578 167.013L334.378 167.238ZM329.053 173.538L327.778 176.388L329.978 177.863L332.303 177.013L332.178 174.238L329.053 173.538Z"/>
</mask>
<path d="M280.828 167.088L285.678 166.788L289.428 184.488L281.478 185.363L280.828 167.088ZM289.834 185.238L293.159 167.013H296.934L300.459 172.813L300.759 167.013L306.559 167.913L305.334 185.463L300.534 185.163L296.834 179.513L295.759 185.488L289.834 185.238ZM308.222 166.913L320.822 167.013L320.122 173.038L313.247 172.263L313.147 174.263L318.972 173.963L318.022 179.463L313.147 178.838L314.197 185.488H307.547L307.022 171.988L308.222 166.913ZM334.378 167.238L339.828 174.013L338.278 182.938L328.403 185.513L320.528 178.563L321.703 170.738L327.578 167.013L334.378 167.238ZM329.053 173.538L327.778 176.388L329.978 177.863L332.303 177.013L332.178 174.238L329.053 173.538Z" fill="white"/>
<path d="M280.828 167.088L280.751 165.84L279.535 165.915L279.579 167.132L280.828 167.088ZM285.678 166.788L286.901 166.529L286.677 165.474L285.601 165.54L285.678 166.788ZM289.428 184.488L289.565 185.73L290.937 185.579L290.651 184.229L289.428 184.488ZM281.478 185.363L280.229 185.407L280.276 186.753L281.615 186.605L281.478 185.363ZM280.905 168.335L285.755 168.035L285.601 165.54L280.751 165.84L280.905 168.335ZM284.455 167.047L288.205 184.747L290.651 184.229L286.901 166.529L284.455 167.047ZM289.291 183.245L281.341 184.12L281.615 186.605L289.565 185.73L289.291 183.245ZM282.727 185.318L282.077 167.043L279.579 167.132L280.229 185.407L282.727 185.318ZM289.834 185.238L288.604 185.014L288.346 186.426L289.781 186.487L289.834 185.238ZM293.159 167.013V165.763H292.116L291.929 166.789L293.159 167.013ZM296.934 167.013L298.002 166.364L297.637 165.763H296.934V167.013ZM300.459 172.813L299.39 173.462L301.497 176.929L301.707 172.877L300.459 172.813ZM300.759 167.013L300.95 165.778L299.582 165.565L299.51 166.948L300.759 167.013ZM306.559 167.913L307.806 168L307.886 166.854L306.75 166.678L306.559 167.913ZM305.334 185.463L305.256 186.71L306.494 186.788L306.581 185.55L305.334 185.463ZM300.534 185.163L299.488 185.848L299.831 186.371L300.456 186.41L300.534 185.163ZM296.834 179.513L297.879 178.828L296.159 176.202L295.603 179.292L296.834 179.513ZM295.759 185.488L295.706 186.737L296.796 186.783L296.989 185.709L295.759 185.488ZM291.063 185.462L294.388 167.237L291.929 166.789L288.604 185.014L291.063 185.462ZM293.159 168.263H296.934V165.763H293.159V168.263ZM295.865 167.662L299.39 173.462L301.527 172.164L298.002 166.364L295.865 167.662ZM301.707 172.877L302.007 167.077L299.51 166.948L299.21 172.748L301.707 172.877ZM300.567 168.248L306.367 169.148L306.75 166.678L300.95 165.778L300.567 168.248ZM305.312 167.826L304.087 185.376L306.581 185.55L307.806 168L305.312 167.826ZM305.412 184.215L300.612 183.915L300.456 186.41L305.256 186.71L305.412 184.215ZM301.579 184.478L297.879 178.828L295.788 180.198L299.488 185.848L301.579 184.478ZM295.603 179.292L294.528 185.267L296.989 185.709L298.064 179.734L295.603 179.292ZM295.811 184.239L289.886 183.989L289.781 186.487L295.706 186.737L295.811 184.239ZM308.222 166.913L308.232 165.663L307.235 165.655L307.005 166.625L308.222 166.913ZM320.822 167.013L322.063 167.157L322.224 165.774L320.832 165.763L320.822 167.013ZM320.122 173.038L319.982 174.28L321.22 174.42L321.363 173.182L320.122 173.038ZM313.247 172.263L313.387 171.021L312.065 170.872L311.998 172.2L313.247 172.263ZM313.147 174.263L311.898 174.2L311.829 175.582L313.211 175.511L313.147 174.263ZM318.972 173.963L320.203 174.176L320.47 172.634L318.907 172.715L318.972 173.963ZM318.022 179.463L317.863 180.703L319.05 180.855L319.253 179.676L318.022 179.463ZM313.147 178.838L313.306 177.598L311.652 177.386L311.912 179.033L313.147 178.838ZM314.197 185.488V186.738H315.66L315.431 185.293L314.197 185.488ZM307.547 185.488L306.298 185.536L306.344 186.738H307.547V185.488ZM307.022 171.988L305.805 171.7L305.766 171.866L305.773 172.036L307.022 171.988ZM308.212 168.163L320.812 168.263L320.832 165.763L308.232 165.663L308.212 168.163ZM319.58 166.869L318.88 172.894L321.363 173.182L322.063 167.157L319.58 166.869ZM320.262 171.796L313.387 171.021L313.107 173.505L319.982 174.28L320.262 171.796ZM311.998 172.2L311.898 174.2L314.395 174.325L314.495 172.325L311.998 172.2ZM313.211 175.511L319.036 175.211L318.907 172.715L313.082 173.015L313.211 175.511ZM317.74 173.75L316.79 179.25L319.253 179.676L320.203 174.176L317.74 173.75ZM318.181 178.223L313.306 177.598L312.988 180.078L317.863 180.703L318.181 178.223ZM311.912 179.033L312.962 185.683L315.431 185.293L314.381 178.643L311.912 179.033ZM314.197 184.238H307.547V186.738H314.197V184.238ZM308.796 185.439L308.271 171.939L305.773 172.036L306.298 185.536L308.796 185.439ZM308.238 172.276L309.438 167.2L307.005 166.625L305.805 171.7L308.238 172.276ZM334.378 167.238L335.352 166.454L334.992 166.008L334.419 165.989L334.378 167.238ZM339.828 174.013L341.059 174.227L341.156 173.67L340.802 173.229L339.828 174.013ZM338.278 182.938L338.593 184.147L339.372 183.944L339.509 183.152L338.278 182.938ZM328.403 185.513L327.576 186.45L328.074 186.89L328.718 186.722L328.403 185.513ZM320.528 178.563L319.292 178.377L319.191 179.05L319.701 179.5L320.528 178.563ZM321.703 170.738L321.033 169.682L320.551 169.988L320.467 170.552L321.703 170.738ZM327.578 167.013L327.619 165.764L327.234 165.751L326.908 165.957L327.578 167.013ZM329.053 173.538L329.326 172.318L328.329 172.095L327.912 173.027L329.053 173.538ZM327.778 176.388L326.637 175.877L326.206 176.839L327.082 177.426L327.778 176.388ZM329.978 177.863L329.282 178.901L329.81 179.255L330.407 179.037L329.978 177.863ZM332.303 177.013L332.732 178.187L333.593 177.872L333.551 176.957L332.303 177.013ZM332.178 174.238L333.426 174.182L333.383 173.227L332.451 173.018L332.178 174.238ZM333.404 168.021L338.854 174.796L340.802 173.229L335.352 166.454L333.404 168.021ZM338.596 173.799L337.046 182.724L339.509 183.152L341.059 174.227L338.596 173.799ZM337.962 181.728L328.087 184.303L328.718 186.722L338.593 184.147L337.962 181.728ZM329.23 184.576L321.355 177.626L319.701 179.5L327.576 186.45L329.23 184.576ZM321.764 178.748L322.939 170.923L320.467 170.552L319.292 178.377L321.764 178.748ZM322.372 171.794L328.247 168.069L326.908 165.957L321.033 169.682L322.372 171.794ZM327.536 168.262L334.336 168.487L334.419 165.989L327.619 165.764L327.536 168.262ZM327.912 173.027L326.637 175.877L328.919 176.898L330.194 174.048L327.912 173.027ZM327.082 177.426L329.282 178.901L330.674 176.825L328.474 175.35L327.082 177.426ZM330.407 179.037L332.732 178.187L331.874 175.839L329.549 176.689L330.407 179.037ZM333.551 176.957L333.426 174.182L330.929 174.294L331.054 177.069L333.551 176.957ZM332.451 173.018L329.326 172.318L328.78 174.758L331.905 175.458L332.451 173.018Z" fill="#353535" mask="url(#path-8-outside-2_292_3592)"/>
</g>
<defs>
<filter id="filter0_dd_292_3592" x="0.614258" y="0.250488" width="359.772" height="225.653" filterUnits="userSpaceOnUse" color-interpolation-filters="sRGB">
<feFlood flood-opacity="0" result="BackgroundImageFix"/>
<feColorMatrix in="SourceAlpha" type="matrix" values="0 0 0 0 0 0 0 0 0 0 0 0 0 0 0 0 0 0 127 0" result="hardAlpha"/>
<feOffset dx="5" dy="5"/>
<feGaussianBlur stdDeviation="5"/>
<feComposite in2="hardAlpha" operator="out"/>
<feColorMatrix type="matrix" values="0 0 0 0 0 0 0 0 0 0 0 0 0 0 0 0 0 0 0.15 0"/>
<feBlend mode="normal" in2="BackgroundImageFix" result="effect1_dropShadow_292_3592"/>
<feColorMatrix in="SourceAlpha" type="matrix" values="0 0 0 0 0 0 0 0 0 0 0 0 0 0 0 0 0 0 127 0" result="hardAlpha"/>
<feOffset dx="5" dy="5"/>
<feComposite in2="hardAlpha" operator="out"/>
<feColorMatrix type="matrix" values="0 0 0 0 0.784948 0 0 0 0 0.738688 0 0 0 0 0.64889 0 0 0 1 0"/>
<feBlend mode="normal" in2="effect1_dropShadow_292_3592" result="effect2_dropShadow_292_3592"/>
<feBlend mode="normal" in="SourceGraphic" in2="effect2_dropShadow_292_3592" result="shape"/>
</filter>
<filter id="filter1_d_292_3592" x="139.85" y="22.5879" width="66.2061" height="21.225" filterUnits="userSpaceOnUse" color-interpolation-filters="sRGB">
<feFlood flood-opacity="0" result="BackgroundImageFix"/>
<feColorMatrix in="SourceAlpha" type="matrix" values="0 0 0 0 0 0 0 0 0 0 0 0 0 0 0 0 0 0 127 0" result="hardAlpha"/>
<feOffset dx="1.25" dy="2.5"/>
<feComposite in2="hardAlpha" operator="out"/>
<feColorMatrix type="matrix" values="0 0 0 0 0.208281 0 0 0 0 0.208281 0 0 0 0 0.208281 0 0 0 1 0"/>
<feBlend mode="normal" in2="BackgroundImageFix" result="effect1_dropShadow_292_3592"/>
<feBlend mode="normal" in="SourceGraphic" in2="effect1_dropShadow_292_3592" result="shape"/>
</filter>
<filter id="filter2_d_292_3592" x="280.828" y="166.788" width="60.25" height="21.225" filterUnits="userSpaceOnUse" color-interpolation-filters="sRGB">
<feFlood flood-opacity="0" result="BackgroundImageFix"/>
<feColorMatrix in="SourceAlpha" type="matrix" values="0 0 0 0 0 0 0 0 0 0 0 0 0 0 0 0 0 0 127 0" result="hardAlpha"/>
<feOffset dx="1.25" dy="2.5"/>
<feComposite in2="hardAlpha" operator="out"/>
<feColorMatrix type="matrix" values="0 0 0 0 0.208281 0 0 0 0 0.208281 0 0 0 0 0.208281 0 0 0 1 0"/>
<feBlend mode="normal" in2="BackgroundImageFix" result="effect1_dropShadow_292_3592"/>
<feBlend mode="normal" in="SourceGraphic" in2="effect1_dropShadow_292_3592" result="shape"/>
</filter>
<clipPath id="clip0_292_3592">
<rect width="95.6808" height="60.4328" fill="white" transform="translate(264.577 148.686)"/>
</clipPath>
</defs>
</svg>
