<svg width="361" height="226" viewBox="0 0 361 226" fill="none" xmlns="http://www.w3.org/2000/svg">
<g filter="url(#filter0_dd_303_4313)">
<path d="M19.5166 5.25049H330.446L345.636 144.746L326.912 191.845L176.225 186.323L169.189 210.903L158.623 185.677L24.9116 194.277L5.86426 180.079L5.86426 42.9872L19.5166 5.25049Z" fill="#FFFAE7"/>
<path d="M175.624 186.151L169.078 209.02L159.199 185.436L159.027 185.025L158.583 185.054L25.1008 193.639L6.48926 179.765V43.0968L19.9552 5.87549H329.885L344.998 144.659L326.495 191.205L176.248 185.698L175.759 185.68L175.624 186.151Z" stroke="#C8BCA5" stroke-width="1.25"/>
</g>
<g filter="url(#filter1_d_303_4313)">
<mask id="path-3-outside-1_303_4313" maskUnits="userSpaceOnUse" x="93.2501" y="20.3129" width="161" height="23" fill="black">
<rect fill="white" x="93.2501" y="20.3129" width="161" height="23"/>
<path d="M102.691 22.7129L109.591 23.1629L109.316 29.7879L104.816 27.6879L100.891 29.5129L100.716 33.7629L104.166 36.1129L109.241 33.4629L110.941 40.4379L100.966 41.3129L96.0907 37.0379L94.6407 31.6629L96.8907 25.8879L102.691 22.7129ZM112.247 22.6879H124.497L123.472 27.8629L117.447 28.7879L117.372 30.0629L122.697 30.4629L122.447 34.4379L117.697 34.8629L118.122 36.2129L123.897 36.2629L126.022 41.2379H112.247L110.897 29.2879L112.247 22.6879ZM125.228 40.9879L128.553 22.7629H132.328L135.853 28.5629L136.153 22.7629L141.953 23.6629L140.728 41.2129L135.928 40.9129L132.228 35.2629L131.153 41.2379L125.228 40.9879ZM142.391 22.7629L160.866 23.0879V30.5879L154.616 29.5629L156.341 41.3379H147.391L148.741 29.5629L142.391 29.2379V22.7629ZM172.541 22.8379L177.166 26.2129L177.591 32.0379L174.991 34.9379L179.616 39.0129L174.191 41.3629L168.516 36.5129L169.366 41.3379H163.616L162.166 23.6379L172.541 22.8379ZM168.516 28.0129L168.366 31.5629L169.891 31.7629L171.416 29.5629L168.516 28.0129ZM179.21 22.8379L184.06 22.5379L187.81 40.2379L179.86 41.1129L179.21 22.8379ZM189.441 22.6629L202.041 22.7629L201.341 28.7879L194.466 28.0129L194.366 30.0129L200.191 29.7129L199.241 35.2129L194.366 34.5879L195.416 41.2379H188.766L188.241 27.7379L189.441 22.6629ZM201.541 22.8379H209.616L209.241 35.4629L212.366 33.2129L211.441 24.1879H219.116V36.3379L214.641 41.3879H205.216L201.541 36.8879V22.8379ZM235.654 26.5379L231.379 28.9379L229.654 27.9879L227.104 28.7629L225.579 32.3879L227.179 35.7629L231.779 35.2129L231.879 34.3879L228.329 34.7129L228.779 29.6879L236.179 29.7879V39.6629L223.754 41.2629L219.979 33.5879L221.354 26.5379L226.654 22.6879L233.154 23.1379L235.654 26.5379ZM238.003 22.6879H250.253L249.228 27.8629L243.203 28.7879L243.128 30.0629L248.453 30.4629L248.203 34.4379L243.453 34.8629L243.878 36.2129L249.653 36.2629L251.778 41.2379H238.003L236.653 29.2879L238.003 22.6879Z"/>
</mask>
<path d="M102.691 22.7129L109.591 23.1629L109.316 29.7879L104.816 27.6879L100.891 29.5129L100.716 33.7629L104.166 36.1129L109.241 33.4629L110.941 40.4379L100.966 41.3129L96.0907 37.0379L94.6407 31.6629L96.8907 25.8879L102.691 22.7129ZM112.247 22.6879H124.497L123.472 27.8629L117.447 28.7879L117.372 30.0629L122.697 30.4629L122.447 34.4379L117.697 34.8629L118.122 36.2129L123.897 36.2629L126.022 41.2379H112.247L110.897 29.2879L112.247 22.6879ZM125.228 40.9879L128.553 22.7629H132.328L135.853 28.5629L136.153 22.7629L141.953 23.6629L140.728 41.2129L135.928 40.9129L132.228 35.2629L131.153 41.2379L125.228 40.9879ZM142.391 22.7629L160.866 23.0879V30.5879L154.616 29.5629L156.341 41.3379H147.391L148.741 29.5629L142.391 29.2379V22.7629ZM172.541 22.8379L177.166 26.2129L177.591 32.0379L174.991 34.9379L179.616 39.0129L174.191 41.3629L168.516 36.5129L169.366 41.3379H163.616L162.166 23.6379L172.541 22.8379ZM168.516 28.0129L168.366 31.5629L169.891 31.7629L171.416 29.5629L168.516 28.0129ZM179.21 22.8379L184.06 22.5379L187.81 40.2379L179.86 41.1129L179.21 22.8379ZM189.441 22.6629L202.041 22.7629L201.341 28.7879L194.466 28.0129L194.366 30.0129L200.191 29.7129L199.241 35.2129L194.366 34.5879L195.416 41.2379H188.766L188.241 27.7379L189.441 22.6629ZM201.541 22.8379H209.616L209.241 35.4629L212.366 33.2129L211.441 24.1879H219.116V36.3379L214.641 41.3879H205.216L201.541 36.8879V22.8379ZM235.654 26.5379L231.379 28.9379L229.654 27.9879L227.104 28.7629L225.579 32.3879L227.179 35.7629L231.779 35.2129L231.879 34.3879L228.329 34.7129L228.779 29.6879L236.179 29.7879V39.6629L223.754 41.2629L219.979 33.5879L221.354 26.5379L226.654 22.6879L233.154 23.1379L235.654 26.5379ZM238.003 22.6879H250.253L249.228 27.8629L243.203 28.7879L243.128 30.0629L248.453 30.4629L248.203 34.4379L243.453 34.8629L243.878 36.2129L249.653 36.2629L251.778 41.2379H238.003L236.653 29.2879L238.003 22.6879Z" fill="white"/>
<path d="M102.691 22.7129L102.772 21.4655L102.409 21.4419L102.091 21.6164L102.691 22.7129ZM109.591 23.1629L110.84 23.2147L110.89 21.995L109.672 21.9155L109.591 23.1629ZM109.316 29.7879L108.787 30.9206L110.487 31.7138L110.565 29.8397L109.316 29.7879ZM104.816 27.6879L105.344 26.5551L104.817 26.3089L104.289 26.5544L104.816 27.6879ZM100.891 29.5129L100.364 28.3794L99.6731 28.7005L99.6418 29.4614L100.891 29.5129ZM100.716 33.7629L99.4668 33.7114L99.4382 34.4051L100.012 34.796L100.716 33.7629ZM104.166 36.1129L103.462 37.146L104.081 37.5674L104.744 37.2209L104.166 36.1129ZM109.241 33.4629L110.455 33.1669L110.077 31.6159L108.662 32.3548L109.241 33.4629ZM110.941 40.4379L111.05 41.6831L112.5 41.5559L112.155 40.1419L110.941 40.4379ZM100.966 41.3129L100.142 42.2527L100.543 42.6047L101.075 42.5581L100.966 41.3129ZM96.0907 37.0379L94.8839 37.3634L94.9824 37.7284L95.2666 37.9777L96.0907 37.0379ZM94.6407 31.6629L93.476 31.2091L93.3269 31.5918L93.4339 31.9884L94.6407 31.6629ZM96.8907 25.8879L96.2905 24.7914L95.8913 25.01L95.726 25.4341L96.8907 25.8879ZM102.609 23.9602L109.509 24.4102L109.672 21.9155L102.772 21.4655L102.609 23.9602ZM108.342 23.111L108.067 29.736L110.565 29.8397L110.84 23.2147L108.342 23.111ZM109.844 28.6551L105.344 26.5551L104.287 28.8206L108.787 30.9206L109.844 28.6551ZM104.289 26.5544L100.364 28.3794L101.418 30.6463L105.343 28.8213L104.289 26.5544ZM99.6418 29.4614L99.4668 33.7114L101.965 33.8143L102.14 29.5643L99.6418 29.4614ZM100.012 34.796L103.462 37.146L104.869 35.0798L101.419 32.7298L100.012 34.796ZM104.744 37.2209L109.819 34.5709L108.662 32.3548L103.587 35.0048L104.744 37.2209ZM108.026 33.7589L109.726 40.7339L112.155 40.1419L110.455 33.1669L108.026 33.7589ZM110.832 39.1926L100.857 40.0676L101.075 42.5581L111.05 41.6831L110.832 39.1926ZM101.79 40.373L96.9149 36.098L95.2666 37.9777L100.142 42.2527L101.79 40.373ZM97.2976 36.7123L95.8476 31.3373L93.4339 31.9884L94.8839 37.3634L97.2976 36.7123ZM95.8055 32.1167L98.0555 26.3417L95.726 25.4341L93.476 31.2091L95.8055 32.1167ZM97.491 26.9843L103.291 23.8093L102.091 21.6164L96.2905 24.7914L97.491 26.9843ZM112.247 22.6879V21.4379H111.226L111.022 22.4374L112.247 22.6879ZM124.497 22.6879L125.723 22.9307L126.018 21.4379H124.497V22.6879ZM123.472 27.8629L123.661 29.0984L124.528 28.9654L124.698 28.1057L123.472 27.8629ZM117.447 28.7879L117.257 27.5523L116.258 27.7057L116.199 28.7145L117.447 28.7879ZM117.372 30.0629L116.124 29.9895L116.052 31.2172L117.278 31.3094L117.372 30.0629ZM122.697 30.4629L123.944 30.5413L124.022 29.3089L122.79 29.2164L122.697 30.4629ZM122.447 34.4379L122.558 35.6829L123.627 35.5873L123.694 34.5163L122.447 34.4379ZM117.697 34.8629L117.585 33.6178L116.038 33.7563L116.504 35.2382L117.697 34.8629ZM118.122 36.2129L116.929 36.5882L117.202 37.455L118.111 37.4628L118.122 36.2129ZM123.897 36.2629L125.046 35.7719L124.725 35.02L123.907 35.0129L123.897 36.2629ZM126.022 41.2379V42.4879H127.915L127.171 40.7469L126.022 41.2379ZM112.247 41.2379L111.005 41.3782L111.13 42.4879H112.247V41.2379ZM110.897 29.2879L109.672 29.0374L109.632 29.2314L109.655 29.4282L110.897 29.2879ZM112.247 23.9379H124.497V21.4379H112.247V23.9379ZM123.27 22.445L122.245 27.62L124.698 28.1057L125.723 22.9307L123.27 22.445ZM123.282 26.6273L117.257 27.5523L117.636 30.0234L123.661 29.0984L123.282 26.6273ZM116.199 28.7145L116.124 29.9895L118.619 30.1363L118.694 28.8613L116.199 28.7145ZM117.278 31.3094L122.603 31.7094L122.79 29.2164L117.465 28.8164L117.278 31.3094ZM121.449 30.3844L121.199 34.3594L123.694 34.5163L123.944 30.5413L121.449 30.3844ZM122.335 33.1928L117.585 33.6178L117.808 36.1079L122.558 35.6829L122.335 33.1928ZM116.504 35.2382L116.929 36.5882L119.314 35.8375L118.889 34.4875L116.504 35.2382ZM118.111 37.4628L123.886 37.5128L123.907 35.0129L118.132 34.9629L118.111 37.4628ZM122.747 36.7539L124.872 41.7289L127.171 40.7469L125.046 35.7719L122.747 36.7539ZM126.022 39.9879H112.247V42.4879H126.022V39.9879ZM113.489 41.0975L112.139 29.1475L109.655 29.4282L111.005 41.3782L113.489 41.0975ZM112.121 29.5384L113.471 22.9384L111.022 22.4374L109.672 29.0374L112.121 29.5384ZM125.228 40.9879L123.998 40.7635L123.74 42.1762L125.175 42.2368L125.228 40.9879ZM128.553 22.7629V21.5129H127.51L127.323 22.5385L128.553 22.7629ZM132.328 22.7629L133.396 22.1137L133.031 21.5129H132.328V22.7629ZM135.853 28.5629L134.784 29.2121L136.891 32.6789L137.101 28.6274L135.853 28.5629ZM136.153 22.7629L136.344 21.5276L134.976 21.3153L134.904 22.6983L136.153 22.7629ZM141.953 23.6629L143.2 23.7499L143.28 22.6038L142.144 22.4276L141.953 23.6629ZM140.728 41.2129L140.65 42.4604L141.888 42.5378L141.975 41.2999L140.728 41.2129ZM135.928 40.9129L134.882 41.5977L135.225 42.1214L135.85 42.1604L135.928 40.9129ZM132.228 35.2629L133.273 34.5781L131.553 31.9515L130.997 35.0415L132.228 35.2629ZM131.153 41.2379L131.1 42.4868L132.19 42.5327L132.383 41.4592L131.153 41.2379ZM126.457 41.2122L129.782 22.9872L127.323 22.5385L123.998 40.7635L126.457 41.2122ZM128.553 24.0129H132.328V21.5129H128.553V24.0129ZM131.259 23.4121L134.784 29.2121L136.921 27.9137L133.396 22.1137L131.259 23.4121ZM137.101 28.6274L137.401 22.8274L134.904 22.6983L134.604 28.4983L137.101 28.6274ZM135.961 23.9981L141.761 24.8981L142.144 22.4276L136.344 21.5276L135.961 23.9981ZM140.706 23.5758L139.481 41.1258L141.975 41.2999L143.2 23.7499L140.706 23.5758ZM140.806 39.9653L136.006 39.6653L135.85 42.1604L140.65 42.4604L140.806 39.9653ZM136.973 40.2281L133.273 34.5781L131.182 35.9477L134.882 41.5977L136.973 40.2281ZM130.997 35.0415L129.922 41.0165L132.383 41.4592L133.458 35.4842L130.997 35.0415ZM131.205 39.989L125.28 39.739L125.175 42.2368L131.1 42.4868L131.205 39.989ZM142.391 22.7629L142.413 21.5131L141.141 21.4907V22.7629H142.391ZM160.866 23.0879H162.116V21.8597L160.888 21.8381L160.866 23.0879ZM160.866 30.5879L160.663 31.8214L162.116 32.0596V30.5879H160.866ZM154.616 29.5629L154.818 28.3293L153.131 28.0527L153.379 29.7441L154.616 29.5629ZM156.341 41.3379V42.5879H157.787L157.578 41.1567L156.341 41.3379ZM147.391 41.3379L146.149 41.1955L145.989 42.5879H147.391V41.3379ZM148.741 29.5629L149.983 29.7052L150.134 28.3826L148.805 28.3145L148.741 29.5629ZM142.391 29.2379H141.141V30.4255L142.327 30.4862L142.391 29.2379ZM142.369 24.0127L160.844 24.3377L160.888 21.8381L142.413 21.5131L142.369 24.0127ZM159.616 23.0879V30.5879H162.116V23.0879H159.616ZM161.068 29.3543L154.818 28.3293L154.413 30.7964L160.663 31.8214L161.068 29.3543ZM153.379 29.7441L155.104 41.5191L157.578 41.1567L155.853 29.3817L153.379 29.7441ZM156.341 40.0879H147.391V42.5879H156.341V40.0879ZM148.633 41.4802L149.983 29.7052L147.499 29.4205L146.149 41.1955L148.633 41.4802ZM148.805 28.3145L142.455 27.9895L142.327 30.4862L148.677 30.8112L148.805 28.3145ZM143.641 29.2379V22.7629H141.141V29.2379H143.641ZM172.541 22.8379L173.278 21.8281L172.905 21.5561L172.445 21.5916L172.541 22.8379ZM177.166 26.2129L178.413 26.1219L178.371 25.5444L177.903 25.2031L177.166 26.2129ZM177.591 32.0379L178.522 32.8723L178.876 32.4767L178.838 31.9469L177.591 32.0379ZM174.991 34.9379L174.06 34.1034L173.219 35.0422L174.165 35.8758L174.991 34.9379ZM179.616 39.0129L180.113 40.1599L181.92 39.377L180.442 38.075L179.616 39.0129ZM174.191 41.3629L173.379 42.3131L173.972 42.82L174.688 42.5099L174.191 41.3629ZM168.516 36.5129L169.328 35.5626L166.681 33.3001L167.285 36.7297L168.516 36.5129ZM169.366 41.3379V42.5879H170.856L170.597 41.121L169.366 41.3379ZM163.616 41.3379L162.37 41.4399L162.464 42.5879H163.616V41.3379ZM162.166 23.6379L162.07 22.3916L160.818 22.4881L160.92 23.7399L162.166 23.6379ZM168.516 28.0129L169.105 26.9105L167.351 25.9729L167.267 27.9601L168.516 28.0129ZM168.366 31.5629L167.117 31.5101L167.069 32.6534L168.204 32.8023L168.366 31.5629ZM169.891 31.7629L169.729 33.0023L170.484 33.1014L170.918 32.475L169.891 31.7629ZM171.416 29.5629L172.443 30.275L173.243 29.1218L172.005 28.4605L171.416 29.5629ZM171.804 23.8476L176.429 27.2226L177.903 25.2031L173.278 21.8281L171.804 23.8476ZM175.919 26.3038L176.344 32.1288L178.838 31.9469L178.413 26.1219L175.919 26.3038ZM176.66 31.2034L174.06 34.1034L175.922 35.7723L178.522 32.8723L176.66 31.2034ZM174.165 35.8758L178.79 39.9508L180.442 38.075L175.817 34L174.165 35.8758ZM179.119 37.8659L173.694 40.2159L174.688 42.5099L180.113 40.1599L179.119 37.8659ZM175.003 40.4126L169.328 35.5626L167.704 37.4631L173.379 42.3131L175.003 40.4126ZM167.285 36.7297L168.135 41.5547L170.597 41.121L169.747 36.296L167.285 36.7297ZM169.366 40.0879H163.616V42.5879H169.366V40.0879ZM164.862 41.2358L163.412 23.5358L160.92 23.7399L162.37 41.4399L164.862 41.2358ZM162.262 24.8842L172.637 24.0842L172.445 21.5916L162.07 22.3916L162.262 24.8842ZM167.267 27.9601L167.117 31.5101L169.615 31.6156L169.765 28.0656L167.267 27.9601ZM168.204 32.8023L169.729 33.0023L170.054 30.5235L168.529 30.3235L168.204 32.8023ZM170.918 32.475L172.443 30.275L170.389 28.8507L168.864 31.0507L170.918 32.475ZM172.005 28.4605L169.105 26.9105L167.927 29.1153L170.827 30.6653L172.005 28.4605ZM179.21 22.8379L179.133 21.5903L177.918 21.6654L177.961 22.8823L179.21 22.8379ZM184.06 22.5379L185.283 22.2788L185.059 21.2237L183.983 21.2902L184.06 22.5379ZM187.81 40.2379L187.947 41.4804L189.319 41.3293L189.033 39.9788L187.81 40.2379ZM179.86 41.1129L178.611 41.1573L178.659 42.5026L179.997 42.3554L179.86 41.1129ZM179.287 24.0855L184.137 23.7855L183.983 21.2902L179.133 21.5903L179.287 24.0855ZM182.837 22.7969L186.587 40.4969L189.033 39.9788L185.283 22.2788L182.837 22.7969ZM187.673 38.9954L179.723 39.8704L179.997 42.3554L187.947 41.4804L187.673 38.9954ZM181.109 41.0684L180.459 22.7934L177.961 22.8823L178.611 41.1573L181.109 41.0684ZM189.441 22.6629L189.451 21.4129L188.454 21.405L188.224 22.3752L189.441 22.6629ZM202.041 22.7629L203.283 22.9071L203.443 21.524L202.051 21.5129L202.041 22.7629ZM201.341 28.7879L201.201 30.03L202.439 30.1695L202.583 28.9321L201.341 28.7879ZM194.466 28.0129L194.606 26.7707L193.284 26.6217L193.217 27.9504L194.466 28.0129ZM194.366 30.0129L193.118 29.9504L193.048 31.3324L194.43 31.2612L194.366 30.0129ZM200.191 29.7129L201.423 29.9256L201.689 28.3841L200.127 28.4645L200.191 29.7129ZM199.241 35.2129L199.082 36.4527L200.269 36.6049L200.473 35.4256L199.241 35.2129ZM194.366 34.5879L194.525 33.348L192.871 33.136L193.131 34.7828L194.366 34.5879ZM195.416 41.2379V42.4879H196.879L196.651 41.0429L195.416 41.2379ZM188.766 41.2379L187.517 41.2864L187.564 42.4879H188.766V41.2379ZM188.241 27.7379L187.024 27.4502L186.985 27.6161L186.992 27.7864L188.241 27.7379ZM189.431 23.9128L202.031 24.0128L202.051 21.5129L189.451 21.4129L189.431 23.9128ZM200.799 22.6186L200.099 28.6436L202.583 28.9321L203.283 22.9071L200.799 22.6186ZM201.481 27.5457L194.606 26.7707L194.326 29.255L201.201 30.03L201.481 27.5457ZM193.217 27.9504L193.118 29.9504L195.614 30.0753L195.714 28.0753L193.217 27.9504ZM194.43 31.2612L200.255 30.9612L200.127 28.4645L194.302 28.7645L194.43 31.2612ZM198.959 29.5001L198.009 35.0001L200.473 35.4256L201.423 29.9256L198.959 29.5001ZM199.4 33.973L194.525 33.348L194.207 35.8277L199.082 36.4527L199.4 33.973ZM193.131 34.7828L194.181 41.4328L196.651 41.0429L195.601 34.3929L193.131 34.7828ZM195.416 39.9879H188.766V42.4879H195.416V39.9879ZM190.015 41.1893L189.49 27.6893L186.992 27.7864L187.517 41.2864L190.015 41.1893ZM189.457 28.0255L190.657 22.9505L188.224 22.3752L187.024 27.4502L189.457 28.0255ZM201.541 22.8379V21.5879H200.291V22.8379H201.541ZM209.616 22.8379L210.865 22.875L210.903 21.5879H209.616V22.8379ZM209.241 35.4629L207.991 35.4258L207.916 37.9569L209.971 36.4773L209.241 35.4629ZM212.366 33.2129L213.096 34.2273L213.683 33.8048L213.609 33.0854L212.366 33.2129ZM211.441 24.1879V22.9379H210.056L210.197 24.3153L211.441 24.1879ZM219.116 24.1879H220.366V22.9379H219.116V24.1879ZM219.116 36.3379L220.051 37.1669L220.366 36.812V36.3379H219.116ZM214.641 41.3879V42.6379H215.203L215.576 42.2169L214.641 41.3879ZM205.216 41.3879L204.248 42.1785L204.623 42.6379H205.216V41.3879ZM201.541 36.8879H200.291V37.3334L200.573 37.6785L201.541 36.8879ZM201.541 24.0879H209.616V21.5879H201.541V24.0879ZM208.366 22.8008L207.991 35.4258L210.49 35.5L210.865 22.875L208.366 22.8008ZM209.971 36.4773L213.096 34.2273L211.635 32.1984L208.51 34.4484L209.971 36.4773ZM213.609 33.0854L212.684 24.0604L210.197 24.3153L211.122 33.3403L213.609 33.0854ZM211.441 25.4379H219.116V22.9379H211.441V25.4379ZM217.866 24.1879V36.3379H220.366V24.1879H217.866ZM218.18 35.5088L213.705 40.5588L215.576 42.2169L220.051 37.1669L218.18 35.5088ZM214.641 40.1379H205.216V42.6379H214.641V40.1379ZM206.184 40.5972L202.509 36.0972L200.573 37.6785L204.248 42.1785L206.184 40.5972ZM202.791 36.8879V22.8379H200.291V36.8879H202.791ZM235.654 26.5379L236.266 27.6278L237.498 26.936L236.661 25.7974L235.654 26.5379ZM231.379 28.9379L230.776 30.0328L231.384 30.3681L231.991 30.0278L231.379 28.9379ZM229.654 27.9879L230.257 26.8929L229.795 26.6385L229.29 26.7919L229.654 27.9879ZM227.104 28.7629L226.74 27.5669L226.179 27.7375L225.951 28.2781L227.104 28.7629ZM225.579 32.3879L224.426 31.9031L224.21 32.4183L224.449 32.9233L225.579 32.3879ZM227.179 35.7629L226.049 36.2983L226.434 37.1108L227.327 37.004L227.179 35.7629ZM231.779 35.2129L231.927 36.454L232.901 36.3375L233.02 35.3633L231.779 35.2129ZM231.879 34.3879L233.12 34.5383L233.306 33.002L231.765 33.1431L231.879 34.3879ZM228.329 34.7129L227.084 34.6014L226.95 36.0943L228.443 35.9577L228.329 34.7129ZM228.779 29.6879L228.796 28.438L227.637 28.4223L227.534 29.5764L228.779 29.6879ZM236.179 29.7879H237.429V28.5546L236.196 28.538L236.179 29.7879ZM236.179 39.6629L236.338 40.9026L237.429 40.7622V39.6629H236.179ZM223.754 41.2629L222.632 41.8146L223.027 42.6168L223.913 42.5026L223.754 41.2629ZM219.979 33.5879L218.752 33.3486L218.671 33.7618L218.857 34.1396L219.979 33.5879ZM221.354 26.5379L220.619 25.5265L220.221 25.8157L220.127 26.2986L221.354 26.5379ZM226.654 22.6879L226.74 21.4408L226.287 21.4095L225.919 21.6765L226.654 22.6879ZM233.154 23.1379L234.161 22.3974L233.818 21.9308L233.24 21.8908L233.154 23.1379ZM235.042 25.4479L230.767 27.8479L231.991 30.0278L236.266 27.6278L235.042 25.4479ZM231.982 27.8429L230.257 26.8929L229.051 29.0828L230.776 30.0328L231.982 27.8429ZM229.29 26.7919L226.74 27.5669L227.467 29.9588L230.017 29.1838L229.29 26.7919ZM225.951 28.2781L224.426 31.9031L226.731 32.8726L228.256 29.2476L225.951 28.2781ZM224.449 32.9233L226.049 36.2983L228.308 35.2274L226.708 31.8524L224.449 32.9233ZM227.327 37.004L231.927 36.454L231.63 33.9717L227.03 34.5217L227.327 37.004ZM233.02 35.3633L233.12 34.5383L230.638 34.2375L230.538 35.0625L233.02 35.3633ZM231.765 33.1431L228.215 33.4681L228.443 35.9577L231.993 35.6327L231.765 33.1431ZM229.574 34.8244L230.024 29.7994L227.534 29.5764L227.084 34.6014L229.574 34.8244ZM228.762 30.9378L236.162 31.0378L236.196 28.538L228.796 28.438L228.762 30.9378ZM234.929 29.7879V39.6629H237.429V29.7879H234.929ZM236.019 38.4231L223.594 40.0231L223.913 42.5026L236.338 40.9026L236.019 38.4231ZM224.875 40.7112L221.1 33.0362L218.857 34.1396L222.632 41.8146L224.875 40.7112ZM221.206 33.8272L222.581 26.7772L220.127 26.2986L218.752 33.3486L221.206 33.8272ZM222.088 27.5492L227.388 23.6992L225.919 21.6765L220.619 25.5265L222.088 27.5492ZM226.567 23.9349L233.067 24.3849L233.24 21.8908L226.74 21.4408L226.567 23.9349ZM232.147 23.8784L234.647 27.2784L236.661 25.7974L234.161 22.3974L232.147 23.8784ZM238.003 22.6879V21.4379H236.983L236.779 22.4374L238.003 22.6879ZM250.253 22.6879L251.48 22.9307L251.775 21.4379H250.253V22.6879ZM249.228 27.8629L249.418 29.0984L250.284 28.9654L250.455 28.1057L249.228 27.8629ZM243.203 28.7879L243.014 27.5523L242.015 27.7057L241.956 28.7145L243.203 28.7879ZM243.128 30.0629L241.881 29.9895L241.808 31.2172L243.035 31.3094L243.128 30.0629ZM248.453 30.4629L249.701 30.5413L249.778 29.3089L248.547 29.2164L248.453 30.4629ZM248.203 34.4379L248.315 35.6829L249.384 35.5873L249.451 34.5163L248.203 34.4379ZM243.453 34.8629L243.342 33.6178L241.795 33.7563L242.261 35.2382L243.453 34.8629ZM243.878 36.2129L242.686 36.5882L242.959 37.455L243.868 37.4628L243.878 36.2129ZM249.653 36.2629L250.803 35.7719L250.482 35.02L249.664 35.0129L249.653 36.2629ZM251.778 41.2379V42.4879H253.672L252.928 40.7469L251.778 41.2379ZM238.003 41.2379L236.761 41.3782L236.887 42.4879H238.003V41.2379ZM236.653 29.2879L235.429 29.0374L235.389 29.2314L235.411 29.4282L236.653 29.2879ZM238.003 23.9379H250.253V21.4379H238.003V23.9379ZM249.027 22.445L248.002 27.62L250.455 28.1057L251.48 22.9307L249.027 22.445ZM249.039 26.6273L243.014 27.5523L243.393 30.0234L249.418 29.0984L249.039 26.6273ZM241.956 28.7145L241.881 29.9895L244.376 30.1363L244.451 28.8613L241.956 28.7145ZM243.035 31.3094L248.36 31.7094L248.547 29.2164L243.222 28.8164L243.035 31.3094ZM247.206 30.3844L246.956 34.3594L249.451 34.5163L249.701 30.5413L247.206 30.3844ZM248.092 33.1928L243.342 33.6178L243.565 36.1079L248.315 35.6829L248.092 33.1928ZM242.261 35.2382L242.686 36.5882L245.071 35.8375L244.646 34.4875L242.261 35.2382ZM243.868 37.4628L249.643 37.5128L249.664 35.0129L243.889 34.9629L243.868 37.4628ZM248.504 36.7539L250.629 41.7289L252.928 40.7469L250.803 35.7719L248.504 36.7539ZM251.778 39.9879H238.003V42.4879H251.778V39.9879ZM239.246 41.0975L237.896 29.1475L235.411 29.4282L236.761 41.3782L239.246 41.0975ZM237.878 29.5384L239.228 22.9384L236.779 22.4374L235.429 29.0374L237.878 29.5384Z" fill="#353535" mask="url(#path-3-outside-1_303_4313)"/>
</g>
<path d="M25.7501 72.3279L38.6826 72.5554V77.8054L34.3076 77.0879L35.5151 85.3304H29.2501L30.1951 77.0879L25.7501 76.8604V72.3279ZM39.5929 73.0979L44.0029 72.2579L44.2129 77.5954L46.7854 77.2104L46.9429 72.5029L50.5479 72.6604L51.2479 85.2254L47.1879 85.0854L47.1529 81.1479L44.7029 81.6204L44.7904 85.2254H40.9929L39.5929 73.0979ZM51.6946 72.3804L55.0896 72.1704L57.7146 84.5604L52.1496 85.1729L51.6946 72.3804ZM70.6862 75.5829L68.4287 78.3654L65.7862 76.6679L65.1212 77.5079L69.8462 80.9729L67.5537 85.2954H61.9362L58.0162 82.1804L59.7137 79.3279L63.0912 81.2354L63.5987 80.4479L58.6462 77.5079L63.3362 72.2579H67.5537L70.6862 75.5829ZM79.5852 72.3804L82.9802 72.1704L85.6052 84.5604L80.0402 85.1729L79.5852 72.3804ZM98.5768 75.5829L96.3193 78.3654L93.6768 76.6679L93.0118 77.5079L97.7368 80.9729L95.4443 85.2954H89.8268L85.9068 82.1804L87.6043 79.3279L90.9818 81.2354L91.4893 80.4479L86.5368 77.5079L91.2268 72.2579H95.4443L98.5768 75.5829ZM107.388 72.3279L120.321 72.5554V77.8054L115.946 77.0879L117.153 85.3304H110.888L111.833 77.0879L107.388 76.8604V72.3279ZM121.231 73.0979L125.641 72.2579L125.851 77.5954L128.424 77.2104L128.581 72.5029L132.186 72.6604L132.886 85.2254L128.826 85.0854L128.791 81.1479L126.341 81.6204L126.429 85.2254H122.631L121.231 73.0979ZM134.19 72.2754H142.765L142.048 75.8979L137.83 76.5454L137.778 77.4379L141.505 77.7179L141.33 80.5004L138.005 80.7979L138.303 81.7429L142.345 81.7779L143.833 85.2604H134.19L133.245 76.8954L134.19 72.2754ZM152.972 72.2754H161.547L160.829 75.8979L156.612 76.5454L156.559 77.4379L160.287 77.7179L160.112 80.5004L156.787 80.7979L157.084 81.7429L161.127 81.7779L162.614 85.2604H152.972L152.027 76.8954L152.972 72.2754ZM165.559 72.3804L168.306 75.1804L170.336 72.1879L173.661 75.3729L171.246 78.2254L175.236 81.3579L171.911 85.1904L169.041 81.4454L165.401 85.1029L162.059 81.7954L165.926 78.3129L162.986 75.0229L165.559 72.3804ZM183.229 72.3454L188.759 84.4029L183.474 85.2429L183.054 82.1454L178.802 82.0404L177.839 85.3479L172.747 84.4379L179.729 72.6954L183.229 72.3454ZM180.622 76.9304L179.904 78.7154L182.582 78.7854L181.969 76.9829L180.622 76.9304ZM187.95 83.9829L194.197 72.4154H197.89L199.115 75.9154L201.285 72.3979L204.557 72.3279L208.145 84.9104L203.472 85.2954L202.58 82.1104L201.512 79.0304L198.292 81.9004L195.825 78.6279L192.867 84.9104L187.95 83.9829ZM215.919 72.3629L218.999 74.4804L219.244 79.6604L216.129 82.6704L212.262 82.9154V85.3829H208.184L208.832 72.3629H215.919ZM212.979 76.3529L212.857 78.4704L214.012 78.6279L215.482 76.8954L212.979 76.3529ZM224.175 72.7654L223.667 80.6054L229.04 79.9579L229.53 84.0004L219.8 85.1554L219.31 72.2054L224.175 72.7654ZM231.363 72.2754H239.938L239.221 75.8979L235.003 76.5454L234.951 77.4379L238.678 77.7179L238.503 80.5004L235.178 80.7979L235.476 81.7429L239.518 81.7779L241.006 85.2604H231.363L230.418 76.8954L231.363 72.2754ZM38.4376 96.5829L36.1801 99.3654L33.5376 97.6679L32.8726 98.5079L37.5976 101.973L35.3051 106.295H29.6876L25.7676 103.18L27.4651 100.328L30.8426 102.235L31.3501 101.448L26.3976 98.5079L31.0876 93.2579H35.3051L38.4376 96.5829ZM39.4441 93.2754H48.0191L47.3016 96.8979L43.0841 97.5454L43.0316 98.4379L46.7591 98.7179L46.5841 101.5L43.2591 101.798L43.5566 102.743L47.5991 102.778L49.0866 106.26H39.4441L38.4991 97.8954L39.4441 93.2754ZM48.5309 106.085L50.8584 93.3279H53.5009L55.9684 97.3879L56.1784 93.3279L60.2384 93.9579L59.3809 106.243L56.0209 106.033L53.4309 102.078L52.6784 106.26L48.5309 106.085ZM60.545 93.3279L73.4775 93.5554V98.8054L69.1025 98.0879L70.31 106.33H64.045L64.99 98.0879L60.545 97.8604V93.3279ZM75.3328 93.2754H83.9078L83.1903 96.8979L78.9728 97.5454L78.9203 98.4379L82.6478 98.7179L82.4728 101.5L79.1478 101.798L79.4453 102.743L83.4878 102.778L84.9753 106.26H75.3328L74.3878 97.8954L75.3328 93.2754ZM84.4196 106.085L86.7471 93.3279H89.3896L91.8571 97.3879L92.0671 93.3279L96.1271 93.9579L95.2696 106.243L91.9096 106.033L89.3196 102.078L88.5671 106.26L84.4196 106.085ZM101.456 93.2929L106.286 93.6079L106.094 98.2454L102.944 96.7754L100.196 98.0529L100.074 101.028L102.489 102.673L106.041 100.818L107.231 105.7L100.249 106.313L96.8362 103.32L95.8212 99.5579L97.3962 95.5154L101.456 93.2929ZM108.145 93.2754H116.72L116.003 96.8979L111.785 97.5454L111.733 98.4379L115.46 98.7179L115.285 101.5L111.96 101.798L112.258 102.743L116.3 102.778L117.788 106.26H108.145L107.2 97.8954L108.145 93.2754ZM132.422 93.2929L136.097 96.3029L136.85 103.32L133.227 106.278H125.982V94.0804L132.422 93.2929ZM129.99 97.9654V101.78L132.352 100.958V99.0504L129.99 97.9654ZM138.035 93.2754H146.61L145.893 96.8979L141.675 97.5454L141.623 98.4379L145.35 98.7179L145.175 101.5L141.85 101.798L142.148 102.743L146.19 102.778L147.678 106.26H138.035L137.09 97.8954L138.035 93.2754ZM159.81 96.5829L157.552 99.3654L154.91 97.6679L154.245 98.5079L158.97 101.973L156.677 106.295H151.06L147.14 103.18L148.837 100.328L152.215 102.235L152.722 101.448L147.77 98.5079L152.46 93.2579H156.677L159.81 96.5829ZM164.894 93.2929L169.724 93.6079L169.531 98.2454L166.381 96.7754L163.634 98.0529L163.511 101.028L165.926 102.673L169.479 100.818L170.669 105.7L163.686 106.313L160.274 103.32L159.259 99.5579L160.834 95.5154L164.894 93.2929ZM177.9 93.3804L181.138 95.7429L181.435 99.8204L179.615 101.85L182.853 104.703L179.055 106.348L175.083 102.953L175.678 106.33H171.653L170.638 93.9404L177.9 93.3804ZM175.083 97.0029L174.978 99.4879L176.045 99.6279L177.113 98.0879L175.083 97.0029ZM182.569 93.3804L185.964 93.1704L188.589 105.56L183.024 106.173L182.569 93.3804ZM191.288 93.2404L197.36 93.9579L198.76 96.1979L198.655 98.5954L197.745 99.9604L199.023 100.695L199.88 103.198L198.9 105.525L196.87 106.243L189.24 106.295L188.89 93.9929L191.288 93.2404ZM193.37 103.653L195.155 103.268V102.078L193.37 101.465V103.653ZM193.143 98.2279L194.91 97.8604V96.4254L193.143 96.0404V98.2279ZM199.556 93.3804L202.951 93.1704L205.576 105.56L200.011 106.173L199.556 93.3804ZM205.86 106.085L208.187 93.3279H210.83L213.297 97.3879L213.507 93.3279L217.567 93.9579L216.71 106.243L213.35 106.033L210.76 102.078L210.007 106.26L205.86 106.085ZM228.847 95.9704L225.854 97.6504L224.647 96.9854L222.862 97.5279L221.794 100.065L222.914 102.428L226.134 102.043L226.204 101.465L223.719 101.693L224.034 98.1754L229.214 98.2454V105.158L220.517 106.278L217.874 100.905L218.837 95.9704L222.547 93.2754L227.097 93.5904L228.847 95.9704ZM238.297 93.3279L251.229 93.5554V98.8054L246.854 98.0879L248.062 106.33H241.797L242.742 98.0879L238.297 97.8604V93.3279ZM252.139 94.0979L256.549 93.2579L256.759 98.5954L259.332 98.2104L259.489 93.5029L263.094 93.6604L263.794 106.225L259.734 106.085L259.699 102.148L257.249 102.62L257.337 106.225H253.539L252.139 94.0979ZM265.098 93.2754H273.673L272.956 96.8979L268.738 97.5454L268.686 98.4379L272.413 98.7179L272.238 101.5L268.913 101.798L269.211 102.743L273.253 102.778L274.741 106.26H265.098L264.153 97.8954L265.098 93.2754ZM30.6151 114.765L30.1076 122.605L35.4801 121.958L35.9701 126L26.2401 127.155L25.7501 114.205L30.6151 114.765ZM45.9935 114.485L49.8085 119.228L48.7235 125.475L41.811 127.278L36.2985 122.413L37.121 116.935L41.2335 114.328L45.9935 114.485ZM42.266 118.895L41.3735 120.89L42.9135 121.923L44.541 121.328L44.4535 119.385L42.266 118.895ZM55.1598 114.293L59.9898 114.608L59.7973 119.245L56.6473 117.775L53.8998 119.053L53.7773 122.028L56.1923 123.673L59.7448 121.818L60.9348 126.7L53.9523 127.313L50.5398 124.32L49.5248 120.558L51.0998 116.515L55.1598 114.293ZM68.7614 114.345L74.2914 126.403L69.0064 127.243L68.5864 124.145L64.3339 124.04L63.3714 127.348L58.2789 126.438L65.2614 114.695L68.7614 114.345ZM66.1539 118.93L65.4364 120.715L68.1139 120.785L67.5014 118.983L66.1539 118.93ZM73.4821 114.328L86.4146 114.555V119.805L82.0396 119.088L83.2471 127.33H76.9821L77.9271 119.088L73.4821 118.86V114.328ZM87.4123 114.38L90.8073 114.17L93.4323 126.56L87.8673 127.173L87.4123 114.38ZM102.851 114.485L106.666 119.228L105.581 125.475L98.6689 127.278L93.1564 122.413L93.9789 116.935L98.0914 114.328L102.851 114.485ZM99.1239 118.895L98.2314 120.89L99.7714 121.923L101.399 121.328L101.311 119.385L99.1239 118.895ZM106.995 127.085L109.323 114.328H111.965L114.433 118.388L114.643 114.328L118.703 114.958L117.845 127.243L114.485 127.033L111.895 123.078L111.143 127.26L106.995 127.085ZM120.882 124.285H122.264L123.087 125.72L122.509 126.788L120.882 127.155L120.129 125.878L120.882 124.285Z" fill="#77684D"/>
<g clip-path="url(#clip0_303_4313)">
<path d="M272.461 151.955L319.637 148.686L352.919 151.955L360.508 188.083L358.314 203.905L302.282 209.119L266.844 206.197L264.827 165.112L272.461 151.955Z" fill="#353535"/>
<path d="M266.93 166.352L274.06 154.665L319.414 151.676L351.172 154.643L358.405 187.388L356.366 201.37L302.598 206.128L268.846 203.483L266.93 166.352Z" fill="#ED4650" stroke="white" stroke-width="1.25"/>
</g>
<g filter="url(#filter2_d_303_4313)">
<mask id="path-8-outside-2_303_4313" maskUnits="userSpaceOnUse" x="279.75" y="164.563" width="62" height="23" fill="black">
<rect fill="white" x="279.75" y="164.563" width="62" height="23"/>
<path d="M281.078 167.088L285.928 166.788L289.678 184.488L281.728 185.363L281.078 167.088ZM290.083 185.238L293.408 167.013H297.183L300.708 172.813L301.008 167.013L306.808 167.913L305.583 185.463L300.783 185.163L297.083 179.513L296.008 185.488L290.083 185.238ZM308.472 166.913L321.072 167.013L320.372 173.038L313.497 172.263L313.397 174.263L319.222 173.963L318.272 179.463L313.397 178.838L314.447 185.488H307.797L307.272 171.988L308.472 166.913ZM334.628 167.238L340.078 174.013L338.528 182.938L328.653 185.513L320.778 178.563L321.953 170.738L327.828 167.013L334.628 167.238ZM329.303 173.538L328.028 176.388L330.228 177.863L332.553 177.013L332.428 174.238L329.303 173.538Z"/>
</mask>
<path d="M281.078 167.088L285.928 166.788L289.678 184.488L281.728 185.363L281.078 167.088ZM290.083 185.238L293.408 167.013H297.183L300.708 172.813L301.008 167.013L306.808 167.913L305.583 185.463L300.783 185.163L297.083 179.513L296.008 185.488L290.083 185.238ZM308.472 166.913L321.072 167.013L320.372 173.038L313.497 172.263L313.397 174.263L319.222 173.963L318.272 179.463L313.397 178.838L314.447 185.488H307.797L307.272 171.988L308.472 166.913ZM334.628 167.238L340.078 174.013L338.528 182.938L328.653 185.513L320.778 178.563L321.953 170.738L327.828 167.013L334.628 167.238ZM329.303 173.538L328.028 176.388L330.228 177.863L332.553 177.013L332.428 174.238L329.303 173.538Z" fill="white"/>
<path d="M281.078 167.088L281 165.84L279.785 165.915L279.828 167.132L281.078 167.088ZM285.928 166.788L287.15 166.529L286.927 165.474L285.85 165.54L285.928 166.788ZM289.678 184.488L289.814 185.73L291.187 185.579L290.9 184.229L289.678 184.488ZM281.728 185.363L280.478 185.407L280.526 186.753L281.864 186.605L281.728 185.363ZM281.155 168.335L286.005 168.035L285.85 165.54L281 165.84L281.155 168.335ZM284.705 167.047L288.455 184.747L290.9 184.229L287.15 166.529L284.705 167.047ZM289.541 183.245L281.591 184.12L281.864 186.605L289.814 185.73L289.541 183.245ZM282.977 185.318L282.327 167.043L279.828 167.132L280.478 185.407L282.977 185.318ZM290.083 185.238L288.854 185.014L288.596 186.426L290.031 186.487L290.083 185.238ZM293.408 167.013V165.763H292.366L292.179 166.789L293.408 167.013ZM297.183 167.013L298.252 166.364L297.887 165.763H297.183V167.013ZM300.708 172.813L299.64 173.462L301.747 176.929L301.957 172.877L300.708 172.813ZM301.008 167.013L301.2 165.778L299.832 165.565L299.76 166.948L301.008 167.013ZM306.808 167.913L308.055 168L308.135 166.854L307 166.678L306.808 167.913ZM305.583 185.463L305.506 186.71L306.744 186.788L306.83 185.55L305.583 185.463ZM300.783 185.163L299.738 185.848L300.081 186.371L300.706 186.41L300.783 185.163ZM297.083 179.513L298.129 178.828L296.409 176.202L295.853 179.292L297.083 179.513ZM296.008 185.488L295.956 186.737L297.046 186.783L297.239 185.709L296.008 185.488ZM291.313 185.462L294.638 167.237L292.179 166.789L288.854 185.014L291.313 185.462ZM293.408 168.263H297.183V165.763H293.408V168.263ZM296.115 167.662L299.64 173.462L301.777 172.164L298.252 166.364L296.115 167.662ZM301.957 172.877L302.257 167.077L299.76 166.948L299.46 172.748L301.957 172.877ZM300.817 168.248L306.617 169.148L307 166.678L301.2 165.778L300.817 168.248ZM305.562 167.826L304.337 185.376L306.83 185.55L308.055 168L305.562 167.826ZM305.661 184.215L300.861 183.915L300.706 186.41L305.506 186.71L305.661 184.215ZM301.829 184.478L298.129 178.828L296.038 180.198L299.738 185.848L301.829 184.478ZM295.853 179.292L294.778 185.267L297.239 185.709L298.314 179.734L295.853 179.292ZM296.061 184.239L290.136 183.989L290.031 186.487L295.956 186.737L296.061 184.239ZM308.472 166.913L308.482 165.663L307.485 165.655L307.255 166.625L308.472 166.913ZM321.072 167.013L322.313 167.157L322.474 165.774L321.082 165.763L321.072 167.013ZM320.372 173.038L320.232 174.28L321.469 174.42L321.613 173.182L320.372 173.038ZM313.497 172.263L313.637 171.021L312.315 170.872L312.248 172.2L313.497 172.263ZM313.397 174.263L312.148 174.2L312.079 175.582L313.461 175.511L313.397 174.263ZM319.222 173.963L320.453 174.176L320.72 172.634L319.157 172.715L319.222 173.963ZM318.272 179.463L318.113 180.703L319.3 180.855L319.503 179.676L318.272 179.463ZM313.397 178.838L313.556 177.598L311.902 177.386L312.162 179.033L313.397 178.838ZM314.447 185.488V186.738H315.909L315.681 185.293L314.447 185.488ZM307.797 185.488L306.548 185.536L306.594 186.738H307.797V185.488ZM307.272 171.988L306.055 171.7L306.016 171.866L306.023 172.036L307.272 171.988ZM308.462 168.163L321.062 168.263L321.082 165.763L308.482 165.663L308.462 168.163ZM319.83 166.869L319.13 172.894L321.613 173.182L322.313 167.157L319.83 166.869ZM320.512 171.796L313.637 171.021L313.357 173.505L320.232 174.28L320.512 171.796ZM312.248 172.2L312.148 174.2L314.645 174.325L314.745 172.325L312.248 172.2ZM313.461 175.511L319.286 175.211L319.157 172.715L313.332 173.015L313.461 175.511ZM317.99 173.75L317.04 179.25L319.503 179.676L320.453 174.176L317.99 173.75ZM318.431 178.223L313.556 177.598L313.238 180.078L318.113 180.703L318.431 178.223ZM312.162 179.033L313.212 185.683L315.681 185.293L314.631 178.643L312.162 179.033ZM314.447 184.238H307.797V186.738H314.447V184.238ZM309.046 185.439L308.521 171.939L306.023 172.036L306.548 185.536L309.046 185.439ZM308.488 172.276L309.688 167.2L307.255 166.625L306.055 171.7L308.488 172.276ZM334.628 167.238L335.602 166.454L335.242 166.008L334.669 165.989L334.628 167.238ZM340.078 174.013L341.309 174.227L341.406 173.67L341.052 173.229L340.078 174.013ZM338.528 182.938L338.843 184.147L339.622 183.944L339.759 183.152L338.528 182.938ZM328.653 185.513L327.826 186.45L328.324 186.89L328.968 186.722L328.653 185.513ZM320.778 178.563L319.541 178.377L319.44 179.05L319.951 179.5L320.778 178.563ZM321.953 170.738L321.283 169.682L320.801 169.988L320.716 170.552L321.953 170.738ZM327.828 167.013L327.869 165.764L327.484 165.751L327.158 165.957L327.828 167.013ZM329.303 173.538L329.576 172.318L328.579 172.095L328.162 173.027L329.303 173.538ZM328.028 176.388L326.887 175.877L326.456 176.839L327.332 177.426L328.028 176.388ZM330.228 177.863L329.532 178.901L330.06 179.255L330.657 179.037L330.228 177.863ZM332.553 177.013L332.982 178.187L333.843 177.872L333.801 176.957L332.553 177.013ZM332.428 174.238L333.676 174.182L333.633 173.227L332.701 173.018L332.428 174.238ZM333.654 168.021L339.104 174.796L341.052 173.229L335.602 166.454L333.654 168.021ZM338.846 173.799L337.296 182.724L339.759 183.152L341.309 174.227L338.846 173.799ZM338.212 181.728L328.337 184.303L328.968 186.722L338.843 184.147L338.212 181.728ZM329.48 184.576L321.605 177.626L319.951 179.5L327.826 186.45L329.48 184.576ZM322.014 178.748L323.189 170.923L320.716 170.552L319.541 178.377L322.014 178.748ZM322.622 171.794L328.497 168.069L327.158 165.957L321.283 169.682L322.622 171.794ZM327.786 168.262L334.586 168.487L334.669 165.989L327.869 165.764L327.786 168.262ZM328.162 173.027L326.887 175.877L329.169 176.898L330.444 174.048L328.162 173.027ZM327.332 177.426L329.532 178.901L330.924 176.825L328.724 175.35L327.332 177.426ZM330.657 179.037L332.982 178.187L332.123 175.839L329.798 176.689L330.657 179.037ZM333.801 176.957L333.676 174.182L331.179 174.294L331.304 177.069L333.801 176.957ZM332.701 173.018L329.576 172.318L329.029 174.758L332.154 175.458L332.701 173.018Z" fill="#353535" mask="url(#path-8-outside-2_303_4313)"/>
</g>
<defs>
<filter id="filter0_dd_303_4313" x="0.864258" y="0.250488" width="359.772" height="225.653" filterUnits="userSpaceOnUse" color-interpolation-filters="sRGB">
<feFlood flood-opacity="0" result="BackgroundImageFix"/>
<feColorMatrix in="SourceAlpha" type="matrix" values="0 0 0 0 0 0 0 0 0 0 0 0 0 0 0 0 0 0 127 0" result="hardAlpha"/>
<feOffset dx="5" dy="5"/>
<feGaussianBlur stdDeviation="5"/>
<feComposite in2="hardAlpha" operator="out"/>
<feColorMatrix type="matrix" values="0 0 0 0 0 0 0 0 0 0 0 0 0 0 0 0 0 0 0.15 0"/>
<feBlend mode="normal" in2="BackgroundImageFix" result="effect1_dropShadow_303_4313"/>
<feColorMatrix in="SourceAlpha" type="matrix" values="0 0 0 0 0 0 0 0 0 0 0 0 0 0 0 0 0 0 127 0" result="hardAlpha"/>
<feOffset dx="5" dy="5"/>
<feComposite in2="hardAlpha" operator="out"/>
<feColorMatrix type="matrix" values="0 0 0 0 0.784948 0 0 0 0 0.738688 0 0 0 0 0.64889 0 0 0 1 0"/>
<feBlend mode="normal" in2="effect1_dropShadow_303_4313" result="effect2_dropShadow_303_4313"/>
<feBlend mode="normal" in="SourceGraphic" in2="effect2_dropShadow_303_4313" result="shape"/>
</filter>
<filter id="filter1_d_303_4313" x="94.6407" y="22.5379" width="158.388" height="21.35" filterUnits="userSpaceOnUse" color-interpolation-filters="sRGB">
<feFlood flood-opacity="0" result="BackgroundImageFix"/>
<feColorMatrix in="SourceAlpha" type="matrix" values="0 0 0 0 0 0 0 0 0 0 0 0 0 0 0 0 0 0 127 0" result="hardAlpha"/>
<feOffset dx="1.25" dy="2.5"/>
<feComposite in2="hardAlpha" operator="out"/>
<feColorMatrix type="matrix" values="0 0 0 0 0.208281 0 0 0 0 0.208281 0 0 0 0 0.208281 0 0 0 1 0"/>
<feBlend mode="normal" in2="BackgroundImageFix" result="effect1_dropShadow_303_4313"/>
<feBlend mode="normal" in="SourceGraphic" in2="effect1_dropShadow_303_4313" result="shape"/>
</filter>
<filter id="filter2_d_303_4313" x="281.078" y="166.788" width="60.25" height="21.225" filterUnits="userSpaceOnUse" color-interpolation-filters="sRGB">
<feFlood flood-opacity="0" result="BackgroundImageFix"/>
<feColorMatrix in="SourceAlpha" type="matrix" values="0 0 0 0 0 0 0 0 0 0 0 0 0 0 0 0 0 0 127 0" result="hardAlpha"/>
<feOffset dx="1.25" dy="2.5"/>
<feComposite in2="hardAlpha" operator="out"/>
<feColorMatrix type="matrix" values="0 0 0 0 0.208281 0 0 0 0 0.208281 0 0 0 0 0.208281 0 0 0 1 0"/>
<feBlend mode="normal" in2="BackgroundImageFix" result="effect1_dropShadow_303_4313"/>
<feBlend mode="normal" in="SourceGraphic" in2="effect1_dropShadow_303_4313" result="shape"/>
</filter>
<clipPath id="clip0_303_4313">
<rect width="95.6808" height="60.4328" fill="white" transform="translate(264.827 148.686)"/>
</clipPath>
</defs>
</svg>
