<svg width="360" height="226" viewBox="0 0 360 226" fill="none" xmlns="http://www.w3.org/2000/svg">
<g filter="url(#filter0_dd_235_7271)">
<path d="M18.7666 5.25049H329.696L344.886 144.746L326.162 191.845L175.475 186.323L168.439 210.903L157.873 185.677L24.1616 194.277L5.11426 180.079L5.11426 42.9872L18.7666 5.25049Z" fill="#FFFAE7"/>
<path d="M174.874 186.151L168.328 209.02L158.449 185.436L158.277 185.025L157.833 185.054L24.3508 193.639L5.73926 179.765V43.0968L19.2052 5.87549H329.135L344.248 144.659L325.745 191.205L175.498 185.698L175.009 185.68L174.874 186.151Z" stroke="#C8BCA5" stroke-width="1.25"/>
</g>
<g filter="url(#filter1_d_235_7271)">
<mask id="path-3-outside-1_235_7271" maskUnits="userSpaceOnUse" x="98.5" y="20.3129" width="148" height="23" fill="black">
<rect fill="white" x="98.5" y="20.3129" width="148" height="23"/>
<path d="M101.865 22.6879H114.115L113.09 27.8629L107.065 28.7879L106.99 30.0629L112.315 30.4629L112.065 34.4379L107.315 34.8629L107.74 36.2129L113.515 36.2629L115.64 41.2379H101.865L100.515 29.2879L101.865 22.6879ZM114.846 22.7629L133.321 23.0879V30.5879L127.071 29.5629L128.796 41.3379H119.846L121.196 29.5629L114.846 29.2379V22.7629ZM134.622 23.8629L140.922 22.6629L141.222 30.2879L144.897 29.7379L145.122 23.0129L150.272 23.2379L151.272 41.1879L145.472 40.9879L145.422 35.3629L141.922 36.0379L142.047 41.1879H136.622L134.622 23.8629ZM153.135 22.6879H165.385L164.36 27.8629L158.335 28.7879L158.26 30.0629L163.585 30.4629L163.335 34.4379L158.585 34.8629L159.01 36.2129L164.785 36.2629L166.91 41.2379H153.135L151.785 29.2879L153.135 22.6879ZM176.491 22.8379L181.116 26.2129L181.541 32.0379L178.941 34.9379L183.566 39.0129L178.141 41.3629L172.466 36.5129L173.316 41.3379H167.566L166.116 23.6379L176.491 22.8379ZM172.466 28.0129L172.316 31.5629L173.841 31.7629L175.366 29.5629L172.466 28.0129ZM184.385 22.6879H196.635L195.61 27.8629L189.585 28.7879L189.51 30.0629L194.835 30.4629L194.585 34.4379L189.835 34.8629L190.26 36.2129L196.035 36.2629L198.16 41.2379H184.385L183.035 29.2879L184.385 22.6879ZM197.141 22.8379H205.216L204.841 35.4629L207.966 33.2129L207.041 24.1879H214.716V36.3379L210.241 41.3879H200.816L197.141 36.8879V22.8379ZM215.579 39.4129L224.504 22.8879H229.779L231.529 27.8879L234.629 22.8629L239.304 22.7629L244.429 40.7379L237.754 41.2879L236.479 36.7379L234.954 32.3379L230.354 36.4379L226.829 31.7629L222.604 40.7379L215.579 39.4129Z"/>
</mask>
<path d="M101.865 22.6879H114.115L113.09 27.8629L107.065 28.7879L106.99 30.0629L112.315 30.4629L112.065 34.4379L107.315 34.8629L107.74 36.2129L113.515 36.2629L115.64 41.2379H101.865L100.515 29.2879L101.865 22.6879ZM114.846 22.7629L133.321 23.0879V30.5879L127.071 29.5629L128.796 41.3379H119.846L121.196 29.5629L114.846 29.2379V22.7629ZM134.622 23.8629L140.922 22.6629L141.222 30.2879L144.897 29.7379L145.122 23.0129L150.272 23.2379L151.272 41.1879L145.472 40.9879L145.422 35.3629L141.922 36.0379L142.047 41.1879H136.622L134.622 23.8629ZM153.135 22.6879H165.385L164.36 27.8629L158.335 28.7879L158.26 30.0629L163.585 30.4629L163.335 34.4379L158.585 34.8629L159.01 36.2129L164.785 36.2629L166.91 41.2379H153.135L151.785 29.2879L153.135 22.6879ZM176.491 22.8379L181.116 26.2129L181.541 32.0379L178.941 34.9379L183.566 39.0129L178.141 41.3629L172.466 36.5129L173.316 41.3379H167.566L166.116 23.6379L176.491 22.8379ZM172.466 28.0129L172.316 31.5629L173.841 31.7629L175.366 29.5629L172.466 28.0129ZM184.385 22.6879H196.635L195.61 27.8629L189.585 28.7879L189.51 30.0629L194.835 30.4629L194.585 34.4379L189.835 34.8629L190.26 36.2129L196.035 36.2629L198.16 41.2379H184.385L183.035 29.2879L184.385 22.6879ZM197.141 22.8379H205.216L204.841 35.4629L207.966 33.2129L207.041 24.1879H214.716V36.3379L210.241 41.3879H200.816L197.141 36.8879V22.8379ZM215.579 39.4129L224.504 22.8879H229.779L231.529 27.8879L234.629 22.8629L239.304 22.7629L244.429 40.7379L237.754 41.2879L236.479 36.7379L234.954 32.3379L230.354 36.4379L226.829 31.7629L222.604 40.7379L215.579 39.4129Z" fill="white"/>
<path d="M101.865 22.6879V21.4379H100.845L100.64 22.4374L101.865 22.6879ZM114.115 22.6879L115.341 22.9307L115.637 21.4379H114.115V22.6879ZM113.09 27.8629L113.28 29.0984L114.146 28.9654L114.316 28.1057L113.09 27.8629ZM107.065 28.7879L106.875 27.5523L105.877 27.7057L105.817 28.7145L107.065 28.7879ZM106.99 30.0629L105.742 29.9895L105.67 31.2172L106.897 31.3094L106.99 30.0629ZM112.315 30.4629L113.563 30.5413L113.64 29.3089L112.409 29.2164L112.315 30.4629ZM112.065 34.4379L112.177 35.6829L113.245 35.5873L113.313 34.5163L112.065 34.4379ZM107.315 34.8629L107.204 33.6178L105.656 33.7563L106.123 35.2382L107.315 34.8629ZM107.74 36.2129L106.548 36.5882L106.821 37.455L107.729 37.4628L107.74 36.2129ZM113.515 36.2629L114.665 35.7719L114.344 35.02L113.526 35.0129L113.515 36.2629ZM115.64 41.2379V42.4879H117.533L116.79 40.7469L115.64 41.2379ZM101.865 41.2379L100.623 41.3782L100.748 42.4879H101.865V41.2379ZM100.515 29.2879L99.2905 29.0374L99.2508 29.2314L99.273 29.4282L100.515 29.2879ZM101.865 23.9379H114.115V21.4379H101.865V23.9379ZM112.889 22.445L111.864 27.62L114.316 28.1057L115.341 22.9307L112.889 22.445ZM112.9 26.6273L106.875 27.5523L107.255 30.0234L113.28 29.0984L112.9 26.6273ZM105.817 28.7145L105.742 29.9895L108.238 30.1363L108.313 28.8613L105.817 28.7145ZM106.897 31.3094L112.222 31.7094L112.409 29.2164L107.084 28.8164L106.897 31.3094ZM111.068 30.3844L110.818 34.3594L113.313 34.5163L113.563 30.5413L111.068 30.3844ZM111.954 33.1928L107.204 33.6178L107.427 36.1079L112.177 35.6829L111.954 33.1928ZM106.123 35.2382L106.548 36.5882L108.932 35.8375L108.507 34.4875L106.123 35.2382ZM107.729 37.4628L113.504 37.5128L113.526 35.0129L107.751 34.9629L107.729 37.4628ZM112.366 36.7539L114.491 41.7289L116.79 40.7469L114.665 35.7719L112.366 36.7539ZM115.64 39.9879H101.865V42.4879H115.64V39.9879ZM103.107 41.0975L101.757 29.1475L99.273 29.4282L100.623 41.3782L103.107 41.0975ZM101.74 29.5384L103.09 22.9384L100.64 22.4374L99.2905 29.0374L101.74 29.5384ZM114.846 22.7629L114.868 21.5131L113.596 21.4907V22.7629H114.846ZM133.321 23.0879H134.571V21.8597L133.343 21.8381L133.321 23.0879ZM133.321 30.5879L133.119 31.8214L134.571 32.0596V30.5879H133.321ZM127.071 29.5629L127.273 28.3293L125.587 28.0527L125.834 29.7441L127.071 29.5629ZM128.796 41.3379V42.5879H130.243L130.033 41.1567L128.796 41.3379ZM119.846 41.3379L118.604 41.1955L118.445 42.5879H119.846V41.3379ZM121.196 29.5629L122.438 29.7052L122.59 28.3826L121.26 28.3145L121.196 29.5629ZM114.846 29.2379H113.596V30.4255L114.782 30.4862L114.846 29.2379ZM114.824 24.0127L133.299 24.3377L133.343 21.8381L114.868 21.5131L114.824 24.0127ZM132.071 23.0879V30.5879H134.571V23.0879H132.071ZM133.523 29.3543L127.273 28.3293L126.869 30.7964L133.119 31.8214L133.523 29.3543ZM125.834 29.7441L127.559 41.5191L130.033 41.1567L128.308 29.3817L125.834 29.7441ZM128.796 40.0879H119.846V42.5879H128.796V40.0879ZM121.088 41.4802L122.438 29.7052L119.954 29.4205L118.604 41.1955L121.088 41.4802ZM121.26 28.3145L114.91 27.9895L114.782 30.4862L121.132 30.8112L121.26 28.3145ZM116.096 29.2379V22.7629H113.596V29.2379H116.096ZM134.622 23.8629L134.388 22.6349L133.247 22.8523L133.38 24.0062L134.622 23.8629ZM140.922 22.6629L142.171 22.6137L142.114 21.1633L140.688 21.4349L140.922 22.6629ZM141.222 30.2879L139.973 30.337L140.027 31.7305L141.407 31.5241L141.222 30.2879ZM144.897 29.7379L145.082 30.9741L146.111 30.82L146.146 29.7797L144.897 29.7379ZM145.122 23.0129L145.176 21.7641L143.915 21.7089L143.872 22.9711L145.122 23.0129ZM150.272 23.2379L151.52 23.1683L151.457 22.0384L150.326 21.9891L150.272 23.2379ZM151.272 41.1879L151.229 42.4371L152.596 42.4843L152.52 41.1183L151.272 41.1879ZM145.472 40.9879L144.222 40.999L144.232 42.1959L145.429 42.2371L145.472 40.9879ZM145.422 35.3629L146.672 35.3518L146.658 33.8513L145.185 34.1355L145.422 35.3629ZM141.922 36.0379L141.685 34.8105L140.646 35.0108L140.672 36.0682L141.922 36.0379ZM142.047 41.1879V42.4379H143.327L143.296 41.1575L142.047 41.1879ZM136.622 41.1879L135.38 41.3312L135.508 42.4379H136.622V41.1879ZM134.855 25.0908L141.155 23.8908L140.688 21.4349L134.388 22.6349L134.855 25.0908ZM139.673 22.712L139.973 30.337L142.471 30.2387L142.171 22.6137L139.673 22.712ZM141.407 31.5241L145.082 30.9741L144.712 28.5016L141.037 29.0516L141.407 31.5241ZM146.146 29.7797L146.371 23.0547L143.872 22.9711L143.647 29.6961L146.146 29.7797ZM145.067 24.2617L150.217 24.4867L150.326 21.9891L145.176 21.7641L145.067 24.2617ZM149.024 23.3074L150.024 41.2574L152.52 41.1183L151.52 23.1683L149.024 23.3074ZM151.315 39.9386L145.515 39.7386L145.429 42.2371L151.229 42.4371L151.315 39.9386ZM146.722 40.9768L146.672 35.3518L144.172 35.374L144.222 40.999L146.722 40.9768ZM145.185 34.1355L141.685 34.8105L142.158 37.2652L145.658 36.5902L145.185 34.1355ZM140.672 36.0682L140.797 41.2182L143.296 41.1575L143.171 36.0075L140.672 36.0682ZM142.047 39.9379H136.622V42.4379H142.047V39.9379ZM137.863 41.0445L135.863 23.7195L133.38 24.0062L135.38 41.3312L137.863 41.0445ZM153.135 22.6879V21.4379H152.114L151.91 22.4374L153.135 22.6879ZM165.385 22.6879L166.611 22.9307L166.907 21.4379H165.385V22.6879ZM164.36 27.8629L164.549 29.0984L165.416 28.9654L165.586 28.1057L164.36 27.8629ZM158.335 28.7879L158.145 27.5523L157.146 27.7057L157.087 28.7145L158.335 28.7879ZM158.26 30.0629L157.012 29.9895L156.94 31.2172L158.166 31.3094L158.26 30.0629ZM163.585 30.4629L164.832 30.5413L164.91 29.3089L163.678 29.2164L163.585 30.4629ZM163.335 34.4379L163.446 35.6829L164.515 35.5873L164.582 34.5163L163.335 34.4379ZM158.585 34.8629L158.473 33.6178L156.926 33.7563L157.392 35.2382L158.585 34.8629ZM159.01 36.2129L157.817 36.5882L158.09 37.455L158.999 37.4628L159.01 36.2129ZM164.785 36.2629L165.934 35.7719L165.613 35.02L164.795 35.0129L164.785 36.2629ZM166.91 41.2379V42.4879H168.803L168.059 40.7469L166.91 41.2379ZM153.135 41.2379L151.893 41.3782L152.018 42.4879H153.135V41.2379ZM151.785 29.2879L150.56 29.0374L150.52 29.2314L150.543 29.4282L151.785 29.2879ZM153.135 23.9379H165.385V21.4379H153.135V23.9379ZM164.158 22.445L163.133 27.62L165.586 28.1057L166.611 22.9307L164.158 22.445ZM164.17 26.6273L158.145 27.5523L158.524 30.0234L164.549 29.0984L164.17 26.6273ZM157.087 28.7145L157.012 29.9895L159.508 30.1363L159.583 28.8613L157.087 28.7145ZM158.166 31.3094L163.491 31.7094L163.678 29.2164L158.353 28.8164L158.166 31.3094ZM162.337 30.3844L162.087 34.3594L164.582 34.5163L164.832 30.5413L162.337 30.3844ZM163.223 33.1928L158.473 33.6178L158.696 36.1079L163.446 35.6829L163.223 33.1928ZM157.392 35.2382L157.817 36.5882L160.202 35.8375L159.777 34.4875L157.392 35.2382ZM158.999 37.4628L164.774 37.5128L164.795 35.0129L159.02 34.9629L158.999 37.4628ZM163.635 36.7539L165.76 41.7289L168.059 40.7469L165.934 35.7719L163.635 36.7539ZM166.91 39.9879H153.135V42.4879H166.91V39.9879ZM154.377 41.0975L153.027 29.1475L150.543 29.4282L151.893 41.3782L154.377 41.0975ZM153.009 29.5384L154.359 22.9384L151.91 22.4374L150.56 29.0374L153.009 29.5384ZM176.491 22.8379L177.228 21.8281L176.855 21.5561L176.395 21.5916L176.491 22.8379ZM181.116 26.2129L182.362 26.1219L182.32 25.5444L181.853 25.2031L181.116 26.2129ZM181.541 32.0379L182.471 32.8723L182.826 32.4767L182.787 31.9469L181.541 32.0379ZM178.941 34.9379L178.01 34.1034L177.168 35.0422L178.114 35.8758L178.941 34.9379ZM183.566 39.0129L184.063 40.1599L185.87 39.377L184.392 38.075L183.566 39.0129ZM178.141 41.3629L177.329 42.3131L177.922 42.82L178.638 42.5099L178.141 41.3629ZM172.466 36.5129L173.278 35.5626L170.631 33.3001L171.235 36.7297L172.466 36.5129ZM173.316 41.3379V42.5879H174.805L174.547 41.121L173.316 41.3379ZM167.566 41.3379L166.32 41.4399L166.414 42.5879H167.566V41.3379ZM166.116 23.6379L166.02 22.3916L164.767 22.4881L164.87 23.7399L166.116 23.6379ZM172.466 28.0129L173.055 26.9105L171.301 25.9729L171.217 27.9601L172.466 28.0129ZM172.316 31.5629L171.067 31.5101L171.019 32.6534L172.153 32.8023L172.316 31.5629ZM173.841 31.7629L173.678 33.0023L174.434 33.1014L174.868 32.475L173.841 31.7629ZM175.366 29.5629L176.393 30.275L177.192 29.1218L175.955 28.4605L175.366 29.5629ZM175.754 23.8476L180.379 27.2226L181.853 25.2031L177.228 21.8281L175.754 23.8476ZM179.869 26.3038L180.294 32.1288L182.787 31.9469L182.362 26.1219L179.869 26.3038ZM180.61 31.2034L178.01 34.1034L179.871 35.7723L182.471 32.8723L180.61 31.2034ZM178.114 35.8758L182.739 39.9508L184.392 38.075L179.767 34L178.114 35.8758ZM183.069 37.8659L177.644 40.2159L178.638 42.5099L184.063 40.1599L183.069 37.8659ZM178.953 40.4126L173.278 35.5626L171.654 37.4631L177.329 42.3131L178.953 40.4126ZM171.235 36.7297L172.085 41.5547L174.547 41.121L173.697 36.296L171.235 36.7297ZM173.316 40.0879H167.566V42.5879H173.316V40.0879ZM168.812 41.2358L167.362 23.5358L164.87 23.7399L166.32 41.4399L168.812 41.2358ZM166.212 24.8842L176.587 24.0842L176.395 21.5916L166.02 22.3916L166.212 24.8842ZM171.217 27.9601L171.067 31.5101L173.565 31.6156L173.715 28.0656L171.217 27.9601ZM172.153 32.8023L173.678 33.0023L174.003 30.5235L172.478 30.3235L172.153 32.8023ZM174.868 32.475L176.393 30.275L174.338 28.8507L172.813 31.0507L174.868 32.475ZM175.955 28.4605L173.055 26.9105L171.877 29.1153L174.777 30.6653L175.955 28.4605ZM184.385 22.6879V21.4379H183.364L183.16 22.4374L184.385 22.6879ZM196.635 22.6879L197.861 22.9307L198.157 21.4379H196.635V22.6879ZM195.61 27.8629L195.799 29.0984L196.666 28.9654L196.836 28.1057L195.61 27.8629ZM189.585 28.7879L189.395 27.5523L188.396 27.7057L188.337 28.7145L189.585 28.7879ZM189.51 30.0629L188.262 29.9895L188.19 31.2172L189.416 31.3094L189.51 30.0629ZM194.835 30.4629L196.082 30.5413L196.16 29.3089L194.928 29.2164L194.835 30.4629ZM194.585 34.4379L194.696 35.6829L195.765 35.5873L195.832 34.5163L194.585 34.4379ZM189.835 34.8629L189.723 33.6178L188.176 33.7563L188.642 35.2382L189.835 34.8629ZM190.26 36.2129L189.067 36.5882L189.34 37.455L190.249 37.4628L190.26 36.2129ZM196.035 36.2629L197.184 35.7719L196.863 35.02L196.045 35.0129L196.035 36.2629ZM198.16 41.2379V42.4879H200.053L199.309 40.7469L198.16 41.2379ZM184.385 41.2379L183.143 41.3782L183.268 42.4879H184.385V41.2379ZM183.035 29.2879L181.81 29.0374L181.77 29.2314L181.793 29.4282L183.035 29.2879ZM184.385 23.9379H196.635V21.4379H184.385V23.9379ZM195.408 22.445L194.383 27.62L196.836 28.1057L197.861 22.9307L195.408 22.445ZM195.42 26.6273L189.395 27.5523L189.774 30.0234L195.799 29.0984L195.42 26.6273ZM188.337 28.7145L188.262 29.9895L190.758 30.1363L190.833 28.8613L188.337 28.7145ZM189.416 31.3094L194.741 31.7094L194.928 29.2164L189.603 28.8164L189.416 31.3094ZM193.587 30.3844L193.337 34.3594L195.832 34.5163L196.082 30.5413L193.587 30.3844ZM194.473 33.1928L189.723 33.6178L189.946 36.1079L194.696 35.6829L194.473 33.1928ZM188.642 35.2382L189.067 36.5882L191.452 35.8375L191.027 34.4875L188.642 35.2382ZM190.249 37.4628L196.024 37.5128L196.045 35.0129L190.27 34.9629L190.249 37.4628ZM194.885 36.7539L197.01 41.7289L199.309 40.7469L197.184 35.7719L194.885 36.7539ZM198.16 39.9879H184.385V42.4879H198.16V39.9879ZM185.627 41.0975L184.277 29.1475L181.793 29.4282L183.143 41.3782L185.627 41.0975ZM184.259 29.5384L185.609 22.9384L183.16 22.4374L181.81 29.0374L184.259 29.5384ZM197.141 22.8379V21.5879H195.891V22.8379H197.141ZM205.216 22.8379L206.465 22.875L206.503 21.5879H205.216V22.8379ZM204.841 35.4629L203.591 35.4258L203.516 37.9569L205.571 36.4773L204.841 35.4629ZM207.966 33.2129L208.696 34.2273L209.283 33.8048L209.209 33.0854L207.966 33.2129ZM207.041 24.1879V22.9379H205.656L205.797 24.3153L207.041 24.1879ZM214.716 24.1879H215.966V22.9379H214.716V24.1879ZM214.716 36.3379L215.651 37.1669L215.966 36.812V36.3379H214.716ZM210.241 41.3879V42.6379H210.803L211.176 42.2169L210.241 41.3879ZM200.816 41.3879L199.848 42.1785L200.223 42.6379H200.816V41.3879ZM197.141 36.8879H195.891V37.3334L196.173 37.6785L197.141 36.8879ZM197.141 24.0879H205.216V21.5879H197.141V24.0879ZM203.966 22.8008L203.591 35.4258L206.09 35.5L206.465 22.875L203.966 22.8008ZM205.571 36.4773L208.696 34.2273L207.235 32.1984L204.11 34.4484L205.571 36.4773ZM209.209 33.0854L208.284 24.0604L205.797 24.3153L206.722 33.3403L209.209 33.0854ZM207.041 25.4379H214.716V22.9379H207.041V25.4379ZM213.466 24.1879V36.3379H215.966V24.1879H213.466ZM213.78 35.5088L209.305 40.5588L211.176 42.2169L215.651 37.1669L213.78 35.5088ZM210.241 40.1379H200.816V42.6379H210.241V40.1379ZM201.784 40.5972L198.109 36.0972L196.173 37.6785L199.848 42.1785L201.784 40.5972ZM198.391 36.8879V22.8379H195.891V36.8879H198.391ZM215.579 39.4129L214.479 38.8189L213.666 40.3241L215.347 40.6412L215.579 39.4129ZM224.504 22.8879V21.6379H223.758L223.404 22.2939L224.504 22.8879ZM229.779 22.8879L230.958 22.4749L230.665 21.6379H229.779V22.8879ZM231.529 27.8879L230.349 28.3008L231.215 30.7765L232.592 28.5442L231.529 27.8879ZM234.629 22.8629L234.602 21.6132L233.922 21.6277L233.565 22.2066L234.629 22.8629ZM239.304 22.7629L240.506 22.4201L240.241 21.4925L239.277 21.5132L239.304 22.7629ZM244.429 40.7379L244.531 41.9836L246.048 41.8587L245.631 40.3951L244.429 40.7379ZM237.754 41.2879L236.55 41.6251L236.828 42.6183L237.856 42.5336L237.754 41.2879ZM236.479 36.7379L237.682 36.4006L237.672 36.3642L237.66 36.3285L236.479 36.7379ZM234.954 32.3379L236.135 31.9285L235.521 30.1577L234.122 31.4047L234.954 32.3379ZM230.354 36.4379L229.356 37.1904L230.172 38.2738L231.185 37.371L230.354 36.4379ZM226.829 31.7629L227.827 31.0103L226.58 29.3566L225.698 31.2305L226.829 31.7629ZM222.604 40.7379L222.372 41.9662L223.323 42.1455L223.735 41.2703L222.604 40.7379ZM216.678 40.0069L225.603 23.4819L223.404 22.2939L214.479 38.8189L216.678 40.0069ZM224.504 24.1379H229.779V21.6379H224.504V24.1379ZM228.599 23.3008L230.349 28.3008L232.708 27.4749L230.958 22.4749L228.599 23.3008ZM232.592 28.5442L235.692 23.5192L233.565 22.2066L230.465 27.2316L232.592 28.5442ZM234.655 24.1126L239.33 24.0126L239.277 21.5132L234.602 21.6132L234.655 24.1126ZM238.102 23.1056L243.227 41.0806L245.631 40.3951L240.506 22.4201L238.102 23.1056ZM244.326 39.4921L237.651 40.0421L237.856 42.5336L244.531 41.9836L244.326 39.4921ZM238.957 40.9506L237.682 36.4006L235.275 37.0751L236.55 41.6251L238.957 40.9506ZM237.66 36.3285L236.135 31.9285L233.773 32.7472L235.298 37.1472L237.66 36.3285ZM234.122 31.4047L229.522 35.5047L231.185 37.371L235.785 33.271L234.122 31.4047ZM231.352 35.6853L227.827 31.0103L225.831 32.5154L229.356 37.1904L231.352 35.6853ZM225.698 31.2305L221.473 40.2055L223.735 41.2703L227.96 32.2953L225.698 31.2305ZM222.835 39.5095L215.81 38.1845L215.347 40.6412L222.372 41.9662L222.835 39.5095Z" fill="#353535" mask="url(#path-3-outside-1_235_7271)"/>
</g>
<path d="M25 72.3279L37.9325 72.5554V77.8054L33.5575 77.0879L34.765 85.3304H28.5L29.445 77.0879L25 76.8604V72.3279ZM38.8428 73.0979L43.2528 72.2579L43.4628 77.5954L46.0353 77.2104L46.1928 72.5029L49.7978 72.6604L50.4978 85.2254L46.4378 85.0854L46.4028 81.1479L43.9528 81.6204L44.0403 85.2254H40.2428L38.8428 73.0979ZM50.9444 72.3804L54.3394 72.1704L56.9644 84.5604L51.3994 85.1729L50.9444 72.3804ZM69.936 75.5829L67.6785 78.3654L65.036 76.6679L64.371 77.5079L69.096 80.9729L66.8035 85.2954H61.186L57.266 82.1804L58.9635 79.3279L62.341 81.2354L62.8485 80.4479L57.896 77.5079L62.586 72.2579H66.8035L69.936 75.5829ZM78.8351 72.3804L82.2301 72.1704L84.8551 84.5604L79.2901 85.1729L78.8351 72.3804ZM97.8267 75.5829L95.5692 78.3654L92.9267 76.6679L92.2617 77.5079L96.9867 80.9729L94.6942 85.2954H89.0767L85.1567 82.1804L86.8542 79.3279L90.2317 81.2354L90.7392 80.4479L85.7867 77.5079L90.4767 72.2579H94.6942L97.8267 75.5829ZM106.638 72.3279L119.571 72.5554V77.8054L115.196 77.0879L116.403 85.3304H110.138L111.083 77.0879L106.638 76.8604V72.3279ZM120.481 73.0979L124.891 72.2579L125.101 77.5954L127.673 77.2104L127.831 72.5029L131.436 72.6604L132.136 85.2254L128.076 85.0854L128.041 81.1479L125.591 81.6204L125.678 85.2254H121.881L120.481 73.0979ZM133.44 72.2754H142.015L141.298 75.8979L137.08 76.5454L137.028 77.4379L140.755 77.7179L140.58 80.5004L137.255 80.7979L137.553 81.7429L141.595 81.7779L143.083 85.2604H133.44L132.495 76.8954L133.44 72.2754ZM152.222 72.2754H160.797L160.079 75.8979L155.862 76.5454L155.809 77.4379L159.537 77.7179L159.362 80.5004L156.037 80.7979L156.334 81.7429L160.377 81.7779L161.864 85.2604H152.222L151.277 76.8954L152.222 72.2754ZM164.809 72.3804L167.556 75.1804L169.586 72.1879L172.911 75.3729L170.496 78.2254L174.486 81.3579L171.161 85.1904L168.291 81.4454L164.651 85.1029L161.309 81.7954L165.176 78.3129L162.236 75.0229L164.809 72.3804ZM182.479 72.3454L188.009 84.4029L182.724 85.2429L182.304 82.1454L178.052 82.0404L177.089 85.3479L171.997 84.4379L178.979 72.6954L182.479 72.3454ZM179.872 76.9304L179.154 78.7154L181.832 78.7854L181.219 76.9829L179.872 76.9304ZM187.2 83.9829L193.447 72.4154H197.14L198.365 75.9154L200.535 72.3979L203.807 72.3279L207.395 84.9104L202.722 85.2954L201.83 82.1104L200.762 79.0304L197.542 81.9004L195.075 78.6279L192.117 84.9104L187.2 83.9829ZM215.169 72.3629L218.249 74.4804L218.494 79.6604L215.379 82.6704L211.512 82.9154V85.3829H207.434L208.082 72.3629H215.169ZM212.229 76.3529L212.107 78.4704L213.262 78.6279L214.732 76.8954L212.229 76.3529ZM223.425 72.7654L222.917 80.6054L228.29 79.9579L228.78 84.0004L219.05 85.1554L218.56 72.2054L223.425 72.7654ZM230.613 72.2754H239.188L238.47 75.8979L234.253 76.5454L234.2 77.4379L237.928 77.7179L237.753 80.5004L234.428 80.7979L234.725 81.7429L238.768 81.7779L240.255 85.2604H230.613L229.668 76.8954L230.613 72.2754ZM37.6875 96.5829L35.43 99.3654L32.7875 97.6679L32.1225 98.5079L36.8475 101.973L34.555 106.295H28.9375L25.0175 103.18L26.715 100.328L30.0925 102.235L30.6 101.448L25.6475 98.5079L30.3375 93.2579H34.555L37.6875 96.5829ZM38.694 93.2754H47.269L46.5515 96.8979L42.334 97.5454L42.2815 98.4379L46.009 98.7179L45.834 101.5L42.509 101.798L42.8065 102.743L46.849 102.778L48.3365 106.26H38.694L37.749 97.8954L38.694 93.2754ZM47.7808 106.085L50.1083 93.3279H52.7508L55.2183 97.3879L55.4283 93.3279L59.4883 93.9579L58.6308 106.243L55.2708 106.033L52.6808 102.078L51.9283 106.26L47.7808 106.085ZM59.7949 93.3279L72.7274 93.5554V98.8054L68.3524 98.0879L69.5599 106.33H63.2949L64.2399 98.0879L59.7949 97.8604V93.3279ZM74.5827 93.2754H83.1577L82.4402 96.8979L78.2227 97.5454L78.1702 98.4379L81.8977 98.7179L81.7227 101.5L78.3977 101.798L78.6952 102.743L82.7377 102.778L84.2252 106.26H74.5827L73.6377 97.8954L74.5827 93.2754ZM83.6694 106.085L85.9969 93.3279H88.6394L91.1069 97.3879L91.3169 93.3279L95.3769 93.9579L94.5194 106.243L91.1594 106.033L88.5694 102.078L87.8169 106.26L83.6694 106.085ZM100.706 93.2929L105.536 93.6079L105.344 98.2454L102.194 96.7754L99.4461 98.0529L99.3236 101.028L101.739 102.673L105.291 100.818L106.481 105.7L99.4986 106.313L96.0861 103.32L95.0711 99.5579L96.6461 95.5154L100.706 93.2929ZM107.395 93.2754H115.97L115.253 96.8979L111.035 97.5454L110.983 98.4379L114.71 98.7179L114.535 101.5L111.21 101.798L111.508 102.743L115.55 102.778L117.038 106.26H107.395L106.45 97.8954L107.395 93.2754ZM131.672 93.2929L135.347 96.3029L136.099 103.32L132.477 106.278H125.232V94.0804L131.672 93.2929ZM129.239 97.9654V101.78L131.602 100.958V99.0504L129.239 97.9654ZM137.285 93.2754H145.86L145.143 96.8979L140.925 97.5454L140.873 98.4379L144.6 98.7179L144.425 101.5L141.1 101.798L141.398 102.743L145.44 102.778L146.928 106.26H137.285L136.34 97.8954L137.285 93.2754ZM159.06 96.5829L156.802 99.3654L154.16 97.6679L153.495 98.5079L158.22 101.973L155.927 106.295H150.31L146.39 103.18L148.087 100.328L151.465 102.235L151.972 101.448L147.02 98.5079L151.71 93.2579H155.927L159.06 96.5829ZM164.144 93.2929L168.974 93.6079L168.781 98.2454L165.631 96.7754L162.884 98.0529L162.761 101.028L165.176 102.673L168.729 100.818L169.919 105.7L162.936 106.313L159.524 103.32L158.509 99.5579L160.084 95.5154L164.144 93.2929ZM177.15 93.3804L180.388 95.7429L180.685 99.8204L178.865 101.85L182.103 104.703L178.305 106.348L174.333 102.953L174.928 106.33H170.903L169.888 93.9404L177.15 93.3804ZM174.333 97.0029L174.228 99.4879L175.295 99.6279L176.363 98.0879L174.333 97.0029ZM181.818 93.3804L185.213 93.1704L187.838 105.56L182.273 106.173L181.818 93.3804ZM190.538 93.2404L196.61 93.9579L198.01 96.1979L197.905 98.5954L196.995 99.9604L198.273 100.695L199.13 103.198L198.15 105.525L196.12 106.243L188.49 106.295L188.14 93.9929L190.538 93.2404ZM192.62 103.653L194.405 103.268V102.078L192.62 101.465V103.653ZM192.393 98.2279L194.16 97.8604V96.4254L192.393 96.0404V98.2279ZM198.806 93.3804L202.201 93.1704L204.826 105.56L199.261 106.173L198.806 93.3804ZM205.11 106.085L207.437 93.3279H210.08L212.547 97.3879L212.757 93.3279L216.817 93.9579L215.96 106.243L212.6 106.033L210.01 102.078L209.257 106.26L205.11 106.085ZM228.097 95.9704L225.104 97.6504L223.897 96.9854L222.112 97.5279L221.044 100.065L222.164 102.428L225.384 102.043L225.454 101.465L222.969 101.693L223.284 98.1754L228.464 98.2454V105.158L219.767 106.278L217.124 100.905L218.087 95.9704L221.797 93.2754L226.347 93.5904L228.097 95.9704ZM237.546 93.3279L250.479 93.5554V98.8054L246.104 98.0879L247.311 106.33H241.046L241.991 98.0879L237.546 97.8604V93.3279ZM251.389 94.0979L255.799 93.2579L256.009 98.5954L258.582 98.2104L258.739 93.5029L262.344 93.6604L263.044 106.225L258.984 106.085L258.949 102.148L256.499 102.62L256.587 106.225H252.789L251.389 94.0979ZM264.348 93.2754H272.923L272.206 96.8979L267.988 97.5454L267.936 98.4379L271.663 98.7179L271.488 101.5L268.163 101.798L268.461 102.743L272.503 102.778L273.991 106.26H264.348L263.403 97.8954L264.348 93.2754ZM29.865 114.765L29.3575 122.605L34.73 121.958L35.22 126L25.49 127.155L25 114.205L29.865 114.765ZM45.2434 114.485L49.0584 119.228L47.9734 125.475L41.0609 127.278L35.5484 122.413L36.3709 116.935L40.4834 114.328L45.2434 114.485ZM41.5159 118.895L40.6234 120.89L42.1634 121.923L43.7909 121.328L43.7034 119.385L41.5159 118.895ZM54.4097 114.293L59.2397 114.608L59.0472 119.245L55.8972 117.775L53.1497 119.053L53.0272 122.028L55.4422 123.673L58.9947 121.818L60.1847 126.7L53.2022 127.313L49.7897 124.32L48.7747 120.558L50.3497 116.515L54.4097 114.293ZM68.0113 114.345L73.5413 126.403L68.2563 127.243L67.8363 124.145L63.5838 124.04L62.6213 127.348L57.5288 126.438L64.5113 114.695L68.0113 114.345ZM65.4038 118.93L64.6863 120.715L67.3638 120.785L66.7513 118.983L65.4038 118.93ZM72.7319 114.328L85.6644 114.555V119.805L81.2894 119.088L82.4969 127.33H76.2319L77.1769 119.088L72.7319 118.86V114.328ZM86.6622 114.38L90.0572 114.17L92.6822 126.56L87.1172 127.173L86.6622 114.38ZM102.101 114.485L105.916 119.228L104.831 125.475L97.9188 127.278L92.4063 122.413L93.2288 116.935L97.3413 114.328L102.101 114.485ZM98.3738 118.895L97.4813 120.89L99.0213 121.923L100.649 121.328L100.561 119.385L98.3738 118.895ZM106.245 127.085L108.573 114.328H111.215L113.683 118.388L113.893 114.328L117.953 114.958L117.095 127.243L113.735 127.033L111.145 123.078L110.393 127.26L106.245 127.085ZM120.132 124.285H121.514L122.337 125.72L121.759 126.788L120.132 127.155L119.379 125.878L120.132 124.285Z" fill="#77684D"/>
<g clip-path="url(#clip0_235_7271)">
<path d="M271.711 151.955L318.887 148.686L352.169 151.955L359.758 188.083L357.564 203.905L301.532 209.119L266.094 206.198L264.077 165.113L271.711 151.955Z" fill="#353535"/>
<path d="M266.18 166.352L273.309 154.665L318.664 151.676L350.422 154.643L357.655 187.389L355.616 201.371L301.847 206.129L268.096 203.483L266.18 166.352Z" fill="#ED4650" stroke="white" stroke-width="1.25"/>
</g>
<g filter="url(#filter2_d_235_7271)">
<mask id="path-8-outside-2_235_7271" maskUnits="userSpaceOnUse" x="279" y="164.563" width="62" height="23" fill="black">
<rect fill="white" x="279" y="164.563" width="62" height="23"/>
<path d="M280.328 167.088L285.178 166.788L288.928 184.488L280.978 185.363L280.328 167.088ZM289.333 185.238L292.658 167.013H296.433L299.958 172.813L300.258 167.013L306.058 167.913L304.833 185.463L300.033 185.163L296.333 179.513L295.258 185.488L289.333 185.238ZM307.722 166.913L320.322 167.013L319.622 173.038L312.747 172.263L312.647 174.263L318.472 173.963L317.522 179.463L312.647 178.838L313.697 185.488H307.047L306.522 171.988L307.722 166.913ZM333.878 167.238L339.328 174.013L337.778 182.938L327.903 185.513L320.028 178.563L321.203 170.738L327.078 167.013L333.878 167.238ZM328.553 173.538L327.278 176.388L329.478 177.863L331.803 177.013L331.678 174.238L328.553 173.538Z"/>
</mask>
<path d="M280.328 167.088L285.178 166.788L288.928 184.488L280.978 185.363L280.328 167.088ZM289.333 185.238L292.658 167.013H296.433L299.958 172.813L300.258 167.013L306.058 167.913L304.833 185.463L300.033 185.163L296.333 179.513L295.258 185.488L289.333 185.238ZM307.722 166.913L320.322 167.013L319.622 173.038L312.747 172.263L312.647 174.263L318.472 173.963L317.522 179.463L312.647 178.838L313.697 185.488H307.047L306.522 171.988L307.722 166.913ZM333.878 167.238L339.328 174.013L337.778 182.938L327.903 185.513L320.028 178.563L321.203 170.738L327.078 167.013L333.878 167.238ZM328.553 173.538L327.278 176.388L329.478 177.863L331.803 177.013L331.678 174.238L328.553 173.538Z" fill="white"/>
<path d="M280.328 167.088L280.25 165.84L279.035 165.915L279.078 167.132L280.328 167.088ZM285.178 166.788L286.4 166.529L286.177 165.474L285.1 165.54L285.178 166.788ZM288.928 184.488L289.064 185.73L290.437 185.579L290.15 184.229L288.928 184.488ZM280.978 185.363L279.728 185.407L279.776 186.753L281.114 186.605L280.978 185.363ZM280.405 168.335L285.255 168.035L285.1 165.54L280.25 165.84L280.405 168.335ZM283.955 167.047L287.705 184.747L290.15 184.229L286.4 166.529L283.955 167.047ZM288.791 183.245L280.841 184.12L281.114 186.605L289.064 185.73L288.791 183.245ZM282.227 185.318L281.577 167.043L279.078 167.132L279.728 185.407L282.227 185.318ZM289.333 185.238L288.104 185.014L287.846 186.426L289.281 186.487L289.333 185.238ZM292.658 167.013V165.763H291.616L291.429 166.789L292.658 167.013ZM296.433 167.013L297.502 166.364L297.137 165.763H296.433V167.013ZM299.958 172.813L298.89 173.462L300.997 176.929L301.207 172.877L299.958 172.813ZM300.258 167.013L300.45 165.778L299.082 165.565L299.01 166.948L300.258 167.013ZM306.058 167.913L307.305 168L307.385 166.854L306.25 166.678L306.058 167.913ZM304.833 185.463L304.756 186.71L305.994 186.788L306.08 185.55L304.833 185.463ZM300.033 185.163L298.988 185.848L299.331 186.371L299.956 186.41L300.033 185.163ZM296.333 179.513L297.379 178.828L295.659 176.202L295.103 179.292L296.333 179.513ZM295.258 185.488L295.206 186.737L296.296 186.783L296.489 185.709L295.258 185.488ZM290.563 185.462L293.888 167.237L291.429 166.789L288.104 185.014L290.563 185.462ZM292.658 168.263H296.433V165.763H292.658V168.263ZM295.365 167.662L298.89 173.462L301.027 172.164L297.502 166.364L295.365 167.662ZM301.207 172.877L301.507 167.077L299.01 166.948L298.71 172.748L301.207 172.877ZM300.067 168.248L305.867 169.148L306.25 166.678L300.45 165.778L300.067 168.248ZM304.812 167.826L303.587 185.376L306.08 185.55L307.305 168L304.812 167.826ZM304.911 184.215L300.111 183.915L299.956 186.41L304.756 186.71L304.911 184.215ZM301.079 184.478L297.379 178.828L295.288 180.198L298.988 185.848L301.079 184.478ZM295.103 179.292L294.028 185.267L296.489 185.709L297.564 179.734L295.103 179.292ZM295.311 184.239L289.386 183.989L289.281 186.487L295.206 186.737L295.311 184.239ZM307.722 166.913L307.732 165.663L306.735 165.655L306.505 166.625L307.722 166.913ZM320.322 167.013L321.563 167.157L321.724 165.774L320.332 165.763L320.322 167.013ZM319.622 173.038L319.482 174.28L320.719 174.42L320.863 173.182L319.622 173.038ZM312.747 172.263L312.887 171.021L311.565 170.872L311.498 172.2L312.747 172.263ZM312.647 174.263L311.398 174.2L311.329 175.582L312.711 175.511L312.647 174.263ZM318.472 173.963L319.703 174.176L319.97 172.634L318.407 172.715L318.472 173.963ZM317.522 179.463L317.363 180.703L318.55 180.855L318.753 179.676L317.522 179.463ZM312.647 178.838L312.806 177.598L311.152 177.386L311.412 179.033L312.647 178.838ZM313.697 185.488V186.738H315.159L314.931 185.293L313.697 185.488ZM307.047 185.488L305.798 185.536L305.844 186.738H307.047V185.488ZM306.522 171.988L305.305 171.7L305.266 171.866L305.273 172.036L306.522 171.988ZM307.712 168.163L320.312 168.263L320.332 165.763L307.732 165.663L307.712 168.163ZM319.08 166.869L318.38 172.894L320.863 173.182L321.563 167.157L319.08 166.869ZM319.762 171.796L312.887 171.021L312.607 173.505L319.482 174.28L319.762 171.796ZM311.498 172.2L311.398 174.2L313.895 174.325L313.995 172.325L311.498 172.2ZM312.711 175.511L318.536 175.211L318.407 172.715L312.582 173.015L312.711 175.511ZM317.24 173.75L316.29 179.25L318.753 179.676L319.703 174.176L317.24 173.75ZM317.681 178.223L312.806 177.598L312.488 180.078L317.363 180.703L317.681 178.223ZM311.412 179.033L312.462 185.683L314.931 185.293L313.881 178.643L311.412 179.033ZM313.697 184.238H307.047V186.738H313.697V184.238ZM308.296 185.439L307.771 171.939L305.273 172.036L305.798 185.536L308.296 185.439ZM307.738 172.276L308.938 167.2L306.505 166.625L305.305 171.7L307.738 172.276ZM333.878 167.238L334.852 166.454L334.492 166.008L333.919 165.989L333.878 167.238ZM339.328 174.013L340.559 174.227L340.656 173.67L340.302 173.229L339.328 174.013ZM337.778 182.938L338.093 184.147L338.872 183.944L339.009 183.152L337.778 182.938ZM327.903 185.513L327.076 186.45L327.574 186.89L328.218 186.722L327.903 185.513ZM320.028 178.563L318.791 178.377L318.69 179.05L319.201 179.5L320.028 178.563ZM321.203 170.738L320.533 169.682L320.051 169.988L319.966 170.552L321.203 170.738ZM327.078 167.013L327.119 165.764L326.734 165.751L326.408 165.957L327.078 167.013ZM328.553 173.538L328.826 172.318L327.829 172.095L327.412 173.027L328.553 173.538ZM327.278 176.388L326.137 175.877L325.706 176.839L326.582 177.426L327.278 176.388ZM329.478 177.863L328.782 178.901L329.31 179.255L329.907 179.037L329.478 177.863ZM331.803 177.013L332.232 178.187L333.093 177.872L333.051 176.957L331.803 177.013ZM331.678 174.238L332.926 174.182L332.883 173.227L331.951 173.018L331.678 174.238ZM332.904 168.021L338.354 174.796L340.302 173.229L334.852 166.454L332.904 168.021ZM338.096 173.799L336.546 182.724L339.009 183.152L340.559 174.227L338.096 173.799ZM337.462 181.728L327.587 184.303L328.218 186.722L338.093 184.147L337.462 181.728ZM328.73 184.576L320.855 177.626L319.201 179.5L327.076 186.45L328.73 184.576ZM321.264 178.748L322.439 170.923L319.966 170.552L318.791 178.377L321.264 178.748ZM321.872 171.794L327.747 168.069L326.408 165.957L320.533 169.682L321.872 171.794ZM327.036 168.262L333.836 168.487L333.919 165.989L327.119 165.764L327.036 168.262ZM327.412 173.027L326.137 175.877L328.419 176.898L329.694 174.048L327.412 173.027ZM326.582 177.426L328.782 178.901L330.174 176.825L327.974 175.35L326.582 177.426ZM329.907 179.037L332.232 178.187L331.373 175.839L329.048 176.689L329.907 179.037ZM333.051 176.957L332.926 174.182L330.429 174.294L330.554 177.069L333.051 176.957ZM331.951 173.018L328.826 172.318L328.279 174.758L331.404 175.458L331.951 173.018Z" fill="#353535" mask="url(#path-8-outside-2_235_7271)"/>
</g>
<defs>
<filter id="filter0_dd_235_7271" x="0.114258" y="0.250488" width="359.772" height="225.653" filterUnits="userSpaceOnUse" color-interpolation-filters="sRGB">
<feFlood flood-opacity="0" result="BackgroundImageFix"/>
<feColorMatrix in="SourceAlpha" type="matrix" values="0 0 0 0 0 0 0 0 0 0 0 0 0 0 0 0 0 0 127 0" result="hardAlpha"/>
<feOffset dx="5" dy="5"/>
<feGaussianBlur stdDeviation="5"/>
<feComposite in2="hardAlpha" operator="out"/>
<feColorMatrix type="matrix" values="0 0 0 0 0 0 0 0 0 0 0 0 0 0 0 0 0 0 0.15 0"/>
<feBlend mode="normal" in2="BackgroundImageFix" result="effect1_dropShadow_235_7271"/>
<feColorMatrix in="SourceAlpha" type="matrix" values="0 0 0 0 0 0 0 0 0 0 0 0 0 0 0 0 0 0 127 0" result="hardAlpha"/>
<feOffset dx="5" dy="5"/>
<feComposite in2="hardAlpha" operator="out"/>
<feColorMatrix type="matrix" values="0 0 0 0 0.784948 0 0 0 0 0.738688 0 0 0 0 0.64889 0 0 0 1 0"/>
<feBlend mode="normal" in2="effect1_dropShadow_235_7271" result="effect2_dropShadow_235_7271"/>
<feBlend mode="normal" in="SourceGraphic" in2="effect2_dropShadow_235_7271" result="shape"/>
</filter>
<filter id="filter1_d_235_7271" x="100.515" y="22.6629" width="145.164" height="21.225" filterUnits="userSpaceOnUse" color-interpolation-filters="sRGB">
<feFlood flood-opacity="0" result="BackgroundImageFix"/>
<feColorMatrix in="SourceAlpha" type="matrix" values="0 0 0 0 0 0 0 0 0 0 0 0 0 0 0 0 0 0 127 0" result="hardAlpha"/>
<feOffset dx="1.25" dy="2.5"/>
<feComposite in2="hardAlpha" operator="out"/>
<feColorMatrix type="matrix" values="0 0 0 0 0.208281 0 0 0 0 0.208281 0 0 0 0 0.208281 0 0 0 1 0"/>
<feBlend mode="normal" in2="BackgroundImageFix" result="effect1_dropShadow_235_7271"/>
<feBlend mode="normal" in="SourceGraphic" in2="effect1_dropShadow_235_7271" result="shape"/>
</filter>
<filter id="filter2_d_235_7271" x="280.328" y="166.788" width="60.25" height="21.225" filterUnits="userSpaceOnUse" color-interpolation-filters="sRGB">
<feFlood flood-opacity="0" result="BackgroundImageFix"/>
<feColorMatrix in="SourceAlpha" type="matrix" values="0 0 0 0 0 0 0 0 0 0 0 0 0 0 0 0 0 0 127 0" result="hardAlpha"/>
<feOffset dx="1.25" dy="2.5"/>
<feComposite in2="hardAlpha" operator="out"/>
<feColorMatrix type="matrix" values="0 0 0 0 0.208281 0 0 0 0 0.208281 0 0 0 0 0.208281 0 0 0 1 0"/>
<feBlend mode="normal" in2="BackgroundImageFix" result="effect1_dropShadow_235_7271"/>
<feBlend mode="normal" in="SourceGraphic" in2="effect1_dropShadow_235_7271" result="shape"/>
</filter>
<clipPath id="clip0_235_7271">
<rect width="95.6808" height="60.4328" fill="white" transform="translate(264.077 148.686)"/>
</clipPath>
</defs>
</svg>
