<svg width="352" height="221" viewBox="0 0 352 221" fill="none" xmlns="http://www.w3.org/2000/svg">
<g filter="url(#filter0_dd_240_7536)">
<path d="M18.9224 5.47787H322.078L336.889 141.486L318.633 187.408L171.713 182.023L164.853 205.989L154.551 181.394L24.1825 189.779L5.61133 175.935L5.61133 42.2712L18.9224 5.47787Z" fill="#FFFAE7"/>
<path d="M171.127 181.855L164.744 204.154L155.113 181.159L154.945 180.758L154.512 180.786L24.367 189.156L6.2207 175.63V42.378L19.35 6.08725H321.532L336.267 141.401L318.226 186.783L171.736 181.414L171.259 181.397L171.127 181.855Z" stroke="#C8BCA5" stroke-width="1.21875"/>
</g>
<g filter="url(#filter1_d_240_7536)">
<mask id="path-3-outside-1_240_7536" maskUnits="userSpaceOnUse" x="110.312" y="21.1637" width="118" height="22" fill="black">
<rect fill="white" x="110.312" y="21.1637" width="118" height="22"/>
<path d="M112.914 22.9799L125.199 23.0774L124.516 28.9518L117.813 28.1962L117.716 30.1462L123.395 29.8537L122.469 35.2162L117.716 34.6068L118.739 41.0906H112.256L111.744 27.9281L112.914 22.9799ZM136.636 23.1018L144.339 39.8962L136.978 41.0662L136.393 36.7518L130.47 36.6056L129.129 41.2124L122.036 39.9449L131.761 23.5893L136.636 23.1018ZM133.005 29.4881L132.005 31.9743L135.735 32.0718L134.881 29.5612L133.005 29.4881ZM143.212 40.8468L146.453 23.0774H150.134L153.571 28.7324L153.863 23.0774L159.518 23.9549L158.324 41.0662L153.644 40.7737L150.037 35.2649L148.988 41.0906L143.212 40.8468ZM159.946 23.0774L177.959 23.3943V30.7068L171.865 29.7074L173.547 41.1881H164.821L166.137 29.7074L159.946 29.3906V23.0774ZM191.95 23.2968L197.264 29.9024L195.753 38.6043L186.125 41.1149L178.447 34.3387L179.592 26.7093L185.32 23.0774L191.95 23.2968ZM186.758 29.4393L185.515 32.2181L187.66 33.6562L189.927 32.8274L189.805 30.1218L186.758 29.4393ZM197.722 39.3112L206.424 23.1993H211.567L213.273 28.0743L216.296 23.1749L220.854 23.0774L225.851 40.6031L219.343 41.1393L218.1 36.7031L216.613 32.4131L212.128 36.4106L208.691 31.8524L204.571 40.6031L197.722 39.3112Z"/>
</mask>
<path d="M112.914 22.9799L125.199 23.0774L124.516 28.9518L117.813 28.1962L117.716 30.1462L123.395 29.8537L122.469 35.2162L117.716 34.6068L118.739 41.0906H112.256L111.744 27.9281L112.914 22.9799ZM136.636 23.1018L144.339 39.8962L136.978 41.0662L136.393 36.7518L130.47 36.6056L129.129 41.2124L122.036 39.9449L131.761 23.5893L136.636 23.1018ZM133.005 29.4881L132.005 31.9743L135.735 32.0718L134.881 29.5612L133.005 29.4881ZM143.212 40.8468L146.453 23.0774H150.134L153.571 28.7324L153.863 23.0774L159.518 23.9549L158.324 41.0662L153.644 40.7737L150.037 35.2649L148.988 41.0906L143.212 40.8468ZM159.946 23.0774L177.959 23.3943V30.7068L171.865 29.7074L173.547 41.1881H164.821L166.137 29.7074L159.946 29.3906V23.0774ZM191.95 23.2968L197.264 29.9024L195.753 38.6043L186.125 41.1149L178.447 34.3387L179.592 26.7093L185.32 23.0774L191.95 23.2968ZM186.758 29.4393L185.515 32.2181L187.66 33.6562L189.927 32.8274L189.805 30.1218L186.758 29.4393ZM197.722 39.3112L206.424 23.1993H211.567L213.273 28.0743L216.296 23.1749L220.854 23.0774L225.851 40.6031L219.343 41.1393L218.1 36.7031L216.613 32.4131L212.128 36.4106L208.691 31.8524L204.571 40.6031L197.722 39.3112Z" fill="white"/>
<path d="M112.914 22.9799L112.923 21.7612L111.951 21.7535L111.728 22.6995L112.914 22.9799ZM125.199 23.0774L126.409 23.2181L126.566 21.8695L125.208 21.8587L125.199 23.0774ZM124.516 28.9518L124.38 30.1629L125.587 30.299L125.727 29.0925L124.516 28.9518ZM117.813 28.1962L117.95 26.9851L116.661 26.8398L116.596 28.1353L117.813 28.1962ZM117.716 30.1462L116.498 30.0853L116.431 31.4327L117.778 31.3633L117.716 30.1462ZM123.395 29.8537L124.596 30.0611L124.856 28.5581L123.332 28.6366L123.395 29.8537ZM122.469 35.2162L122.314 36.4251L123.471 36.5734L123.67 35.4236L122.469 35.2162ZM117.716 34.6068L117.871 33.398L116.258 33.1913L116.512 34.7969L117.716 34.6068ZM118.739 41.0906V42.3093H120.166L119.943 40.9005L118.739 41.0906ZM112.256 41.0906L111.038 41.1379L111.083 42.3093H112.256V41.0906ZM111.744 27.9281L110.558 27.6476L110.519 27.8094L110.526 27.9754L111.744 27.9281ZM112.904 24.1987L125.189 24.2962L125.208 21.8587L112.923 21.7612L112.904 24.1987ZM123.988 22.9368L123.306 28.8112L125.727 29.0925L126.409 23.2181L123.988 22.9368ZM124.653 27.7407L117.95 26.9851L117.677 29.4073L124.38 30.1629L124.653 27.7407ZM116.596 28.1353L116.498 30.0853L118.933 30.2071L119.03 28.2571L116.596 28.1353ZM117.778 31.3633L123.458 31.0708L123.332 28.6366L117.653 28.9291L117.778 31.3633ZM122.194 29.6463L121.268 35.0088L123.67 35.4236L124.596 30.0611L122.194 29.6463ZM122.624 34.0073L117.871 33.398L117.561 35.8157L122.314 36.4251L122.624 34.0073ZM116.512 34.7969L117.535 41.2807L119.943 40.9005L118.919 34.4167L116.512 34.7969ZM118.739 39.8718H112.256V42.3093H118.739V39.8718ZM113.473 41.0432L112.962 27.8807L110.526 27.9754L111.038 41.1379L113.473 41.0432ZM112.93 28.2085L114.1 23.2604L111.728 22.6995L110.558 27.6476L112.93 28.2085ZM136.636 23.1018L137.744 22.5937L137.381 21.8025L136.515 21.8891L136.636 23.1018ZM144.339 39.8962L144.53 41.0998L146.116 40.8478L145.447 39.3881L144.339 39.8962ZM136.978 41.0662L135.77 41.23L135.938 42.4656L137.169 42.2698L136.978 41.0662ZM136.393 36.7518L137.6 36.5881L137.461 35.5591L136.423 35.5334L136.393 36.7518ZM130.47 36.6056L130.5 35.3872L129.562 35.364L129.299 36.265L130.47 36.6056ZM129.129 41.2124L128.915 42.4122L129.993 42.6049L130.299 41.553L129.129 41.2124ZM122.036 39.9449L120.988 39.322L120.089 40.835L121.821 41.1447L122.036 39.9449ZM131.761 23.5893L131.64 22.3766L131.028 22.4378L130.714 22.9664L131.761 23.5893ZM133.005 29.4881L133.052 28.2702L132.194 28.2368L131.874 29.0335L133.005 29.4881ZM132.005 31.9743L130.874 31.5198L130.22 33.1468L131.973 33.1927L132.005 31.9743ZM135.735 32.0718L135.703 33.2902L137.451 33.3359L136.889 31.6797L135.735 32.0718ZM134.881 29.5612L136.035 29.1691L135.766 28.376L134.929 28.3434L134.881 29.5612ZM135.529 23.6099L143.231 40.4043L145.447 39.3881L137.744 22.5937L135.529 23.6099ZM144.148 38.6926L136.786 39.8626L137.169 42.2698L144.53 41.0998L144.148 38.6926ZM138.185 40.9024L137.6 36.5881L135.185 36.9156L135.77 41.23L138.185 40.9024ZM136.423 35.5334L130.5 35.3872L130.439 37.8239L136.363 37.9702L136.423 35.5334ZM129.299 36.265L127.959 40.8719L130.299 41.553L131.64 36.9461L129.299 36.265ZM129.343 40.0127L122.25 38.7452L121.821 41.1447L128.915 42.4122L129.343 40.0127ZM123.083 40.5679L132.809 24.2122L130.714 22.9664L120.988 39.322L123.083 40.5679ZM131.883 24.802L136.758 24.3145L136.515 21.8891L131.64 22.3766L131.883 24.802ZM131.874 29.0335L130.874 31.5198L133.136 32.4289L134.135 29.9426L131.874 29.0335ZM131.973 33.1927L135.703 33.2902L135.766 30.8535L132.037 30.756L131.973 33.1927ZM136.889 31.6797L136.035 29.1691L133.728 29.9533L134.581 32.4639L136.889 31.6797ZM134.929 28.3434L133.052 28.2702L132.957 30.7059L134.834 30.779L134.929 28.3434ZM143.212 40.8468L142.013 40.6281L141.761 42.0055L143.16 42.0645L143.212 40.8468ZM146.453 23.0774V21.8587H145.437L145.255 22.8587L146.453 23.0774ZM150.134 23.0774L151.176 22.4445L150.82 21.8587H150.134V23.0774ZM153.571 28.7324L152.529 29.3654L154.584 32.7455L154.788 28.7954L153.571 28.7324ZM153.863 23.0774L154.05 21.8731L152.716 21.6661L152.646 23.0145L153.863 23.0774ZM159.518 23.9549L160.734 24.0398L160.812 22.9224L159.705 22.7506L159.518 23.9549ZM158.324 41.0662L158.248 42.2826L159.456 42.358L159.54 41.1511L158.324 41.0662ZM153.644 40.7737L152.625 41.4414L152.959 41.952L153.568 41.9901L153.644 40.7737ZM150.037 35.2649L151.056 34.5973L149.379 32.0364L148.837 35.0491L150.037 35.2649ZM148.988 41.0906L148.937 42.3082L150 42.3531L150.188 41.3064L148.988 41.0906ZM144.411 41.0656L147.652 23.2962L145.255 22.8587L142.013 40.6281L144.411 41.0656ZM146.453 24.2962H150.134V21.8587H146.453V24.2962ZM149.093 23.7104L152.529 29.3654L154.612 28.0995L151.176 22.4445L149.093 23.7104ZM154.788 28.7954L155.081 23.1404L152.646 23.0145L152.354 28.6695L154.788 28.7954ZM153.677 24.2818L159.332 25.1593L159.705 22.7506L154.05 21.8731L153.677 24.2818ZM158.303 23.8701L157.108 40.9813L159.54 41.1511L160.734 24.0398L158.303 23.8701ZM158.4 39.8498L153.72 39.5573L153.568 41.9901L158.248 42.2826L158.4 39.8498ZM154.664 40.106L151.056 34.5973L149.017 35.9326L152.625 41.4414L154.664 40.106ZM148.837 35.0491L147.789 40.8748L150.188 41.3064L151.236 35.4808L148.837 35.0491ZM149.04 39.8729L143.263 39.6292L143.16 42.0645L148.937 42.3082L149.04 39.8729ZM159.946 23.0774L159.967 21.8589L158.727 21.8371V23.0774H159.946ZM177.959 23.3943H179.177V22.1968L177.98 22.1758L177.959 23.3943ZM177.959 30.7068L177.762 31.9095L179.177 32.1417V30.7068H177.959ZM171.865 29.7074L172.062 28.5048L170.418 28.235L170.659 29.8841L171.865 29.7074ZM173.547 41.1881V42.4068H174.957L174.753 41.0114L173.547 41.1881ZM164.821 41.1881L163.61 41.0493L163.454 42.4068H164.821V41.1881ZM166.137 29.7074L167.348 29.8463L167.496 28.5566L166.199 28.4903L166.137 29.7074ZM159.946 29.3906H158.727V30.5485L159.883 30.6077L159.946 29.3906ZM159.924 24.296L177.937 24.6129L177.98 22.1758L159.967 21.8589L159.924 24.296ZM176.74 23.3943V30.7068H179.177V23.3943H176.74ZM178.156 29.5041L172.062 28.5048L171.668 30.9101L177.762 31.9095L178.156 29.5041ZM170.659 29.8841L172.341 41.3647L174.753 41.0114L173.071 29.5308L170.659 29.8841ZM173.547 39.9693H164.821V42.4068H173.547V39.9693ZM166.031 41.3269L167.348 29.8463L164.926 29.5686L163.61 41.0493L166.031 41.3269ZM166.199 28.4903L160.008 28.1734L159.883 30.6077L166.075 30.9246L166.199 28.4903ZM161.164 29.3906V23.0774H158.727V29.3906H161.164ZM191.95 23.2968L192.9 22.5329L192.55 22.0972L191.991 22.0787L191.95 23.2968ZM197.264 29.9024L198.465 30.111L198.559 29.568L198.214 29.1385L197.264 29.9024ZM195.753 38.6043L196.06 39.7836L196.819 39.5857L196.954 38.8129L195.753 38.6043ZM186.125 41.1149L185.318 42.0287L185.805 42.4579L186.432 42.2943L186.125 41.1149ZM178.447 34.3387L177.241 34.1577L177.143 34.8136L177.64 35.2525L178.447 34.3387ZM179.592 26.7093L178.94 25.68L178.47 25.978L178.387 26.5283L179.592 26.7093ZM185.32 23.0774L185.361 21.8594L184.985 21.8469L184.668 22.0482L185.32 23.0774ZM186.758 29.4393L187.025 28.25L186.053 28.0323L185.646 28.9416L186.758 29.4393ZM185.515 32.2181L184.403 31.7204L183.983 32.6582L184.837 33.2304L185.515 32.2181ZM187.66 33.6562L186.982 34.6685L187.497 35.0137L188.079 34.8008L187.66 33.6562ZM189.927 32.8274L190.346 33.9721L191.185 33.6653L191.145 32.7726L189.927 32.8274ZM189.805 30.1218L191.023 30.067L190.981 29.1362L190.072 28.9325L189.805 30.1218ZM191.001 24.0607L196.314 30.6664L198.214 29.1385L192.9 22.5329L191.001 24.0607ZM196.063 29.6939L194.552 38.3958L196.954 38.8129L198.465 30.111L196.063 29.6939ZM195.445 37.425L185.817 39.9356L186.432 42.2943L196.06 39.7836L195.445 37.425ZM186.931 40.2012L179.253 33.4249L177.64 35.2525L185.318 42.0287L186.931 40.2012ZM179.652 34.5197L180.797 26.8903L178.387 26.5283L177.241 34.1577L179.652 34.5197ZM180.245 27.7386L185.973 24.1067L184.668 22.0482L178.94 25.68L180.245 27.7386ZM185.28 24.2955L191.91 24.5149L191.991 22.0787L185.361 21.8594L185.28 24.2955ZM185.646 28.9416L184.403 31.7204L186.628 32.7158L187.871 29.937L185.646 28.9416ZM184.837 33.2304L186.982 34.6685L188.339 32.6439L186.194 31.2058L184.837 33.2304ZM188.079 34.8008L190.346 33.9721L189.509 31.6828L187.242 32.5115L188.079 34.8008ZM191.145 32.7726L191.023 30.067L188.588 30.1767L188.71 32.8823L191.145 32.7726ZM190.072 28.9325L187.025 28.25L186.492 30.6286L189.539 31.3111L190.072 28.9325ZM197.722 39.3112L196.65 38.732L195.857 40.1997L197.496 40.5088L197.722 39.3112ZM206.424 23.1993V21.9806H205.697L205.352 22.6202L206.424 23.1993ZM211.567 23.1993L212.717 22.7967L212.432 21.9806H211.567V23.1993ZM213.273 28.0743L212.123 28.4769L212.968 30.8908L214.311 28.7142L213.273 28.0743ZM216.296 23.1749L216.27 21.9565L215.607 21.9707L215.259 22.535L216.296 23.1749ZM220.854 23.0774L222.026 22.7433L221.768 21.8389L220.828 21.859L220.854 23.0774ZM225.851 40.6031L225.951 41.8177L227.43 41.6959L227.023 40.2689L225.851 40.6031ZM219.343 41.1393L218.169 41.4682L218.441 42.4365L219.443 42.354L219.343 41.1393ZM218.1 36.7031L219.273 36.3742L219.263 36.3388L219.251 36.304L218.1 36.7031ZM216.613 32.4131L217.764 32.014L217.166 30.2874L215.802 31.5033L216.613 32.4131ZM212.128 36.4106L211.155 37.1443L211.951 38.2006L212.939 37.3204L212.128 36.4106ZM208.691 31.8524L209.664 31.1187L208.448 29.5063L207.588 31.3334L208.691 31.8524ZM204.571 40.6031L204.346 41.8007L205.272 41.9755L205.674 41.1222L204.571 40.6031ZM198.794 39.8904L207.496 23.7785L205.352 22.6202L196.65 38.732L198.794 39.8904ZM206.424 24.4181H211.567V21.9806H206.424V24.4181ZM210.417 23.6019L212.123 28.4769L214.424 27.6717L212.717 22.7967L210.417 23.6019ZM214.311 28.7142L217.333 23.8148L215.259 22.535L212.236 27.4344L214.311 28.7142ZM216.322 24.3934L220.88 24.2959L220.828 21.859L216.27 21.9565L216.322 24.3934ZM219.682 23.4116L224.679 40.9372L227.023 40.2689L222.026 22.7433L219.682 23.4116ZM225.751 39.3884L219.243 39.9247L219.443 42.354L225.951 41.8177L225.751 39.3884ZM220.516 40.8105L219.273 36.3742L216.926 37.0319L218.169 41.4682L220.516 40.8105ZM219.251 36.304L217.764 32.014L215.461 32.8122L216.948 37.1022L219.251 36.304ZM215.802 31.5033L211.317 35.5008L212.939 37.3204L217.424 33.3229L215.802 31.5033ZM213.101 35.6768L209.664 31.1187L207.718 32.5862L211.155 37.1443L213.101 35.6768ZM207.588 31.3334L203.469 40.084L205.674 41.1222L209.794 32.3715L207.588 31.3334ZM204.797 39.4054L197.948 38.1136L197.496 40.5088L204.346 41.8007L204.797 39.4054Z" fill="#353535" mask="url(#path-3-outside-1_240_7536)"/>
</g>
<path d="M25 70.0033L37.6092 70.2251V75.3439L33.3436 74.6443L34.5209 82.6808H28.4125L29.3339 74.6443L25 74.4225V70.0033ZM38.4967 70.7541L42.7965 69.9351L43.0012 75.1391L45.5094 74.7638L45.663 70.1739L49.1778 70.3275L49.8603 82.5784L45.9018 82.4419L45.8677 78.6028L43.479 79.0635L43.5643 82.5784H39.8617L38.4967 70.7541ZM50.2958 70.0545L53.6059 69.8498L56.1653 81.93L50.7394 82.5272L50.2958 70.0545ZM68.8126 73.1769L66.6116 75.8899L64.0351 74.2348L63.3868 75.0538L67.9936 78.4322L65.7584 82.6466H60.2814L56.4594 79.6095L58.1144 76.8283L61.4075 78.6881L61.9023 77.9203L57.0736 75.0538L61.6464 69.9351H65.7584L68.8126 73.1769ZM77.4892 70.0545L80.7993 69.8498L83.3587 81.93L77.9328 82.5272L77.4892 70.0545ZM96.006 73.1769L93.8049 75.8899L91.2285 74.2348L90.5801 75.0538L95.187 78.4322L92.9518 82.6466H87.4747L83.6527 79.6095L85.3078 76.8283L88.6009 78.6881L89.0957 77.9203L84.267 75.0538L88.8397 69.9351H92.9518L96.006 73.1769ZM104.597 70.0033L117.206 70.2251V75.3439L112.941 74.6443L114.118 82.6808H108.01L108.931 74.6443L104.597 74.4225V70.0033ZM118.094 70.7541L122.394 69.9351L122.598 75.1391L125.107 74.7638L125.26 70.1739L128.775 70.3275L129.458 82.5784L125.499 82.4419L125.465 78.6028L123.076 79.0635L123.161 82.5784H119.459L118.094 70.7541ZM130.729 69.9521H139.09L138.39 73.4841L134.278 74.1154L134.227 74.9856L137.861 75.2586L137.691 77.9715L134.449 78.2616L134.739 79.1829L138.68 79.2171L140.131 82.6125H130.729L129.808 74.4566L130.729 69.9521ZM149.041 69.9521H157.402L156.702 73.4841L152.59 74.1154L152.539 74.9856L156.173 75.2586L156.003 77.9715L152.761 78.2616L153.051 79.1829L156.992 79.2171L158.443 82.6125H149.041L148.12 74.4566L149.041 69.9521ZM161.313 70.0545L163.992 72.7845L165.971 69.8668L169.213 72.9722L166.859 75.7534L170.749 78.8076L167.507 82.5443L164.709 78.8929L161.16 82.4589L157.901 79.2341L161.672 75.8387L158.805 72.6309L161.313 70.0545ZM178.542 70.0204L183.934 81.7764L178.781 82.5954L178.371 79.5754L174.225 79.473L173.287 82.6978L168.322 81.8106L175.13 70.3616L178.542 70.0204ZM176 74.4908L175.3 76.2311L177.911 76.2994L177.314 74.5419L176 74.4908ZM183.145 81.3669L189.236 70.0886H192.836L194.031 73.5011L196.146 70.0716L199.337 70.0033L202.835 82.2713L198.279 82.6466L197.409 79.5413L196.368 76.5383L193.229 79.3365L190.823 76.1458L187.939 82.2713L183.145 81.3669ZM210.415 70.0374L213.418 72.102L213.657 77.1525L210.62 80.0873L206.849 80.3261V82.7319H202.873L203.505 70.0374H210.415ZM207.548 73.9277L207.429 75.9923L208.555 76.1458L209.988 74.4566L207.548 73.9277ZM218.464 70.4299L217.969 78.0739L223.207 77.4426L223.685 81.384L214.198 82.5101L213.721 69.8839L218.464 70.4299ZM225.473 69.9521H233.833L233.134 73.4841L229.022 74.1154L228.97 74.9856L232.605 75.2586L232.434 77.9715L229.192 78.2616L229.482 79.1829L233.424 79.2171L234.874 82.6125H225.473L224.551 74.4566L225.473 69.9521ZM37.3703 93.1769L35.1693 95.8899L32.5928 94.2348L31.9444 95.0538L36.5513 98.4322L34.3161 102.647H28.8391L25.0171 99.6095L26.6721 96.8283L29.9652 98.6881L30.46 97.9203L25.6313 95.0538L30.2041 89.9351H34.3161L37.3703 93.1769ZM38.3517 89.9521H46.7123L46.0127 93.4841L41.9007 94.1154L41.8495 94.9856L45.4838 95.2586L45.3132 97.9715L42.0713 98.2616L42.3614 99.1829L46.3028 99.2171L47.7531 102.613H38.3517L37.4303 94.4566L38.3517 89.9521ZM47.2112 102.442L49.4806 90.0033H52.057L54.4628 93.9618L54.6676 90.0033L58.6261 90.6176L57.79 102.595L54.514 102.391L51.9887 98.5346L51.2551 102.613L47.2112 102.442ZM58.925 90.0033L71.5342 90.2251V95.3439L67.2686 94.6443L68.4459 102.681H62.3375L63.2589 94.6443L58.925 94.4225V90.0033ZM73.3431 89.9521H81.7038L81.0042 93.4841L76.8921 94.1154L76.8409 94.9856L80.4753 95.2586L80.3046 97.9715L77.0628 98.2616L77.3528 99.1829L81.2943 99.2171L82.7446 102.613H73.3431L72.4218 94.4566L73.3431 89.9521ZM82.2027 102.442L84.472 90.0033H87.0484L89.4543 93.9618L89.659 90.0033L93.6175 90.6176L92.7814 102.595L89.5054 102.391L86.9802 98.5346L86.2465 102.613L82.2027 102.442ZM98.8134 89.9692L103.523 90.2763L103.335 94.7979L100.264 93.3646L97.5849 94.6102L97.4655 97.5108L99.8201 99.1147L103.284 97.3061L104.444 102.067L97.6361 102.664L94.3089 99.746L93.3193 96.0776L94.8549 92.1361L98.8134 89.9692ZM105.335 89.9521H113.696L112.996 93.4841L108.884 94.1154L108.833 94.9856L112.467 95.2586L112.297 97.9715L109.055 98.2616L109.345 99.1829L113.286 99.2171L114.737 102.613H105.335L104.414 94.4566L105.335 89.9521ZM129.005 89.9692L132.588 92.9039L133.322 99.746L129.79 102.63H122.726V90.737L129.005 89.9692ZM126.633 94.5249V98.2445L128.937 97.4426V95.5828L126.633 94.5249ZM134.478 89.9521H142.839L142.139 93.4841L138.027 94.1154L137.976 94.9856L141.61 95.2586L141.44 97.9715L138.198 98.2616L138.488 99.1829L142.429 99.2171L143.88 102.613H134.478L133.557 94.4566L134.478 89.9521ZM155.708 93.1769L153.507 95.8899L150.931 94.2348L150.282 95.0538L154.889 98.4322L152.654 102.647H147.177L143.355 99.6095L145.01 96.8283L148.303 98.6881L148.798 97.9203L143.969 95.0538L148.542 89.9351H152.654L155.708 93.1769ZM160.665 89.9692L165.374 90.2763L165.187 94.7979L162.115 93.3646L159.437 94.6102L159.317 97.5108L161.672 99.1147L165.135 97.3061L166.296 102.067L159.488 102.664L156.161 99.746L155.171 96.0776L156.707 92.1361L160.665 89.9692ZM173.346 90.0545L176.503 92.3579L176.793 96.3335L175.019 98.3128L178.175 101.094L174.473 102.698L170.599 99.3877L171.18 102.681H167.255L166.266 90.6005L173.346 90.0545ZM170.599 93.5864L170.497 96.0093L171.538 96.1458L172.579 94.6443L170.599 93.5864ZM177.898 90.0545L181.208 89.8498L183.767 101.93L178.342 102.527L177.898 90.0545ZM186.399 89.918L192.32 90.6176L193.685 92.8016L193.582 95.1391L192.695 96.47L193.941 97.1866L194.777 99.6266L193.821 101.896L191.842 102.595L184.403 102.647L184.062 90.6517L186.399 89.918ZM188.43 100.07L190.17 99.6948V98.5346L188.43 97.9374V100.07ZM188.208 94.7808L189.931 94.4225V93.0234L188.208 92.648V94.7808ZM194.461 90.0545L197.771 89.8498L200.33 101.93L194.904 102.527L194.461 90.0545ZM200.607 102.442L202.876 90.0033H205.453L207.859 93.9618L208.063 90.0033L212.022 90.6176L211.186 102.595L207.91 102.391L205.385 98.5346L204.651 102.613L200.607 102.442ZM223.019 92.5798L220.101 94.2178L218.924 93.5694L217.184 94.0983L216.143 96.5724L217.235 98.8758L220.374 98.5004L220.443 97.9374L218.02 98.1592L218.327 94.7296L223.377 94.7979V101.538L214.897 102.63L212.321 97.3914L213.259 92.5798L216.877 89.9521L221.313 90.2593L223.019 92.5798ZM232.233 90.0033L244.842 90.2251V95.3439L240.576 94.6443L241.754 102.681H235.645L236.567 94.6443L232.233 94.4225V90.0033ZM245.729 90.7541L250.029 89.9351L250.234 95.1391L252.742 94.7638L252.896 90.1739L256.411 90.3275L257.093 102.578L253.135 102.442L253.1 98.6028L250.712 99.0635L250.797 102.578H247.094L245.729 90.7541ZM258.365 89.9521H266.725L266.026 93.4841L261.914 94.1154L261.862 94.9856L265.497 95.2586L265.326 97.9715L262.084 98.2616L262.374 99.1829L266.316 99.2171L267.766 102.613H258.365L257.443 94.4566L258.365 89.9521ZM29.7434 110.43L29.2486 118.074L34.4868 117.443L34.9645 121.384L25.4778 122.51L25 109.884L29.7434 110.43ZM44.7373 110.157L48.4569 114.781L47.3991 120.872L40.6594 122.63L35.2847 117.886L36.0866 112.546L40.0963 110.003L44.7373 110.157ZM41.103 114.457L40.2328 116.402L41.7343 117.408L43.3211 116.828L43.2358 114.934L41.103 114.457ZM53.6745 109.969L58.3837 110.276L58.196 114.798L55.1248 113.365L52.446 114.61L52.3265 117.511L54.6812 119.115L58.1448 117.306L59.3051 122.067L52.4972 122.664L49.17 119.746L48.1803 116.078L49.716 112.136L53.6745 109.969ZM66.936 110.02L72.3278 121.776L67.1749 122.595L66.7654 119.575L62.6192 119.473L61.6808 122.698L56.7156 121.811L63.5235 110.362L66.936 110.02ZM64.3937 114.491L63.6942 116.231L66.3047 116.299L65.7075 114.542L64.3937 114.491ZM71.5386 110.003L84.1478 110.225V115.344L79.8822 114.644L81.0595 122.681H74.9511L75.8725 114.644L71.5386 114.423V110.003ZM85.1207 110.055L88.4308 109.85L90.9902 121.93L85.5643 122.527L85.1207 110.055ZM100.174 110.157L103.893 114.781L102.836 120.872L96.0958 122.63L90.7212 117.886L91.5231 112.546L95.5328 110.003L100.174 110.157ZM96.5395 114.457L95.6693 116.402L97.1708 117.408L98.7576 116.828L98.6723 114.934L96.5395 114.457ZM104.214 122.442L106.483 110.003H109.06L111.466 113.962L111.67 110.003L115.629 110.618L114.793 122.595L111.517 122.391L108.991 118.535L108.258 122.613L104.214 122.442ZM117.753 119.712H119.101L119.903 121.111L119.34 122.152L117.753 122.51L117.02 121.265L117.753 119.712Z" fill="#77684D"/>
<g clip-path="url(#clip0_240_7536)">
<path d="M265.568 148.531L311.842 145.368L344.488 148.531L351.932 183.485L349.78 198.792L294.819 203.837L260.058 201.01L258.08 161.261L265.568 148.531Z" fill="#353535"/>
<path d="M260.139 162.463L267.131 151.158L311.624 148.265L342.779 151.136L349.872 182.813L347.873 196.335L295.128 200.939L262.018 198.379L260.139 162.463Z" fill="#ED4650" stroke="white" stroke-width="1.21875"/>
</g>
<g filter="url(#filter2_d_240_7536)">
<mask id="path-8-outside-2_240_7536" maskUnits="userSpaceOnUse" x="272.625" y="160.757" width="61" height="22" fill="black">
<rect fill="white" x="272.625" y="160.757" width="61" height="22"/>
<path d="M274.194 162.744L278.923 162.452L282.579 179.709L274.828 180.562L274.194 162.744ZM282.975 180.441L286.217 162.671H289.898L293.335 168.326L293.627 162.671L299.282 163.549L298.088 180.66L293.408 180.367L289.8 174.859L288.752 180.684L282.975 180.441ZM300.904 162.574L313.189 162.671L312.506 168.546L305.803 167.79L305.705 169.74L311.385 169.447L310.459 174.81L305.705 174.201L306.729 180.684H300.245L299.734 167.522L300.904 162.574ZM326.406 162.891L331.719 169.496L330.208 178.198L320.58 180.709L312.902 173.932L314.048 166.303L319.776 162.671L326.406 162.891ZM321.214 169.033L319.971 171.812L322.116 173.25L324.383 172.421L324.261 169.716L321.214 169.033Z"/>
</mask>
<path d="M274.194 162.744L278.923 162.452L282.579 179.709L274.828 180.562L274.194 162.744ZM282.975 180.441L286.217 162.671H289.898L293.335 168.326L293.627 162.671L299.282 163.549L298.088 180.66L293.408 180.367L289.8 174.859L288.752 180.684L282.975 180.441ZM300.904 162.574L313.189 162.671L312.506 168.546L305.803 167.79L305.705 169.74L311.385 169.447L310.459 174.81L305.705 174.201L306.729 180.684H300.245L299.734 167.522L300.904 162.574ZM326.406 162.891L331.719 169.496L330.208 178.198L320.58 180.709L312.902 173.932L314.048 166.303L319.776 162.671L326.406 162.891ZM321.214 169.033L319.971 171.812L322.116 173.25L324.383 172.421L324.261 169.716L321.214 169.033Z" fill="white"/>
<path d="M274.194 162.744L274.119 161.528L272.934 161.601L272.976 162.788L274.194 162.744ZM278.923 162.452L280.115 162.199L279.898 161.17L278.848 161.235L278.923 162.452ZM282.579 179.709L282.713 180.921L284.051 180.773L283.772 179.457L282.579 179.709ZM274.828 180.562L273.61 180.606L273.657 181.917L274.962 181.774L274.828 180.562ZM274.27 163.961L278.998 163.668L278.848 161.235L274.119 161.528L274.27 163.961ZM277.731 162.704L281.387 179.962L283.772 179.457L280.115 162.199L277.731 162.704ZM282.446 178.498L274.695 179.351L274.962 181.774L282.713 180.921L282.446 178.498ZM276.046 180.519L275.412 162.701L272.976 162.788L273.61 180.606L276.046 180.519ZM282.975 180.441L281.776 180.222L281.525 181.599L282.924 181.658L282.975 180.441ZM286.217 162.671V161.452H285.201L285.018 162.452L286.217 162.671ZM289.898 162.671L290.939 162.038L290.583 161.452H289.898V162.671ZM293.335 168.326L292.293 168.959L294.347 172.339L294.552 168.389L293.335 168.326ZM293.627 162.671L293.814 161.467L292.48 161.26L292.41 162.608L293.627 162.671ZM299.282 163.549L300.498 163.634L300.576 162.516L299.469 162.344L299.282 163.549ZM298.088 180.66L298.012 181.876L299.219 181.952L299.303 180.745L298.088 180.66ZM293.408 180.367L292.388 181.035L292.722 181.546L293.332 181.584L293.408 180.367ZM289.8 174.859L290.82 174.191L289.143 171.63L288.601 174.643L289.8 174.859ZM288.752 180.684L288.701 181.902L289.763 181.947L289.952 180.9L288.752 180.684ZM284.174 180.659L287.416 162.89L285.018 162.452L281.776 180.222L284.174 180.659ZM286.217 163.89H289.898V161.452H286.217V163.89ZM288.856 163.304L292.293 168.959L294.376 167.693L290.939 162.038L288.856 163.304ZM294.552 168.389L294.844 162.734L292.41 162.608L292.117 168.263L294.552 168.389ZM293.44 163.876L299.095 164.753L299.469 162.344L293.814 161.467L293.44 163.876ZM298.066 163.464L296.872 180.575L299.303 180.745L300.498 163.634L298.066 163.464ZM298.164 179.444L293.484 179.151L293.332 181.584L298.012 181.876L298.164 179.444ZM294.427 179.7L290.82 174.191L288.781 175.526L292.388 181.035L294.427 179.7ZM288.601 174.643L287.553 180.469L289.952 180.9L291 175.075L288.601 174.643ZM288.803 179.467L283.027 179.223L282.924 181.658L288.701 181.902L288.803 179.467ZM300.904 162.574L300.913 161.355L299.941 161.347L299.717 162.293L300.904 162.574ZM313.189 162.671L314.399 162.812L314.556 161.463L313.198 161.452L313.189 162.671ZM312.506 168.546L312.37 169.757L313.576 169.893L313.717 168.686L312.506 168.546ZM305.803 167.79L305.939 166.579L304.65 166.434L304.586 167.729L305.803 167.79ZM305.705 169.74L304.488 169.679L304.421 171.026L305.768 170.957L305.705 169.74ZM311.385 169.447L312.586 169.655L312.845 168.152L311.322 168.23L311.385 169.447ZM310.459 174.81L310.304 176.019L311.461 176.167L311.66 175.017L310.459 174.81ZM305.705 174.201L305.86 172.992L304.248 172.785L304.502 174.391L305.705 174.201ZM306.729 180.684V181.903H308.155L307.933 180.494L306.729 180.684ZM300.245 180.684L299.028 180.732L299.073 181.903H300.245V180.684ZM299.734 167.522L298.547 167.241L298.509 167.403L298.516 167.569L299.734 167.522ZM300.894 163.792L313.179 163.89L313.198 161.452L300.913 161.355L300.894 163.792ZM311.978 162.531L311.295 168.405L313.717 168.686L314.399 162.812L311.978 162.531ZM312.643 167.334L305.939 166.579L305.666 169.001L312.37 169.757L312.643 167.334ZM304.586 167.729L304.488 169.679L306.923 169.801L307.02 167.851L304.586 167.729ZM305.768 170.957L311.447 170.665L311.322 168.23L305.643 168.523L305.768 170.957ZM310.184 169.24L309.258 174.603L311.66 175.017L312.586 169.655L310.184 169.24ZM310.614 173.601L305.86 172.992L305.55 175.409L310.304 176.019L310.614 173.601ZM304.502 174.391L305.525 180.874L307.933 180.494L306.909 174.01L304.502 174.391ZM306.729 179.466H300.245V181.903H306.729V179.466ZM301.463 180.637L300.951 167.474L298.516 167.569L299.028 180.732L301.463 180.637ZM300.92 167.802L302.09 162.854L299.717 162.293L298.547 167.241L300.92 167.802ZM326.406 162.891L327.355 162.127L327.005 161.691L326.446 161.672L326.406 162.891ZM331.719 169.496L332.92 169.705L333.015 169.162L332.669 168.732L331.719 169.496ZM330.208 178.198L330.516 179.377L331.275 179.179L331.409 178.407L330.208 178.198ZM320.58 180.709L319.774 181.622L320.26 182.052L320.888 181.888L320.58 180.709ZM312.902 173.932L311.697 173.751L311.598 174.407L312.095 174.846L312.902 173.932ZM314.048 166.303L313.395 165.274L312.925 165.572L312.842 166.122L314.048 166.303ZM319.776 162.671L319.816 161.453L319.44 161.441L319.123 161.642L319.776 162.671ZM321.214 169.033L321.48 167.844L320.508 167.626L320.101 168.535L321.214 169.033ZM319.971 171.812L318.858 171.314L318.439 172.252L319.292 172.824L319.971 171.812ZM322.116 173.25L321.437 174.262L321.952 174.607L322.534 174.395L322.116 173.25ZM324.383 172.421L324.801 173.566L325.64 173.259L325.6 172.366L324.383 172.421ZM324.261 169.716L325.478 169.661L325.436 168.73L324.527 168.526L324.261 169.716ZM325.456 163.654L330.77 170.26L332.669 168.732L327.355 162.127L325.456 163.654ZM330.519 169.288L329.007 177.99L331.409 178.407L332.92 169.705L330.519 169.288ZM329.901 177.019L320.273 179.529L320.888 181.888L330.516 179.377L329.901 177.019ZM321.387 179.795L313.708 173.019L312.095 174.846L319.774 181.622L321.387 179.795ZM314.107 174.113L315.253 166.484L312.842 166.122L311.697 173.751L314.107 174.113ZM314.7 167.332L320.428 163.7L319.123 161.642L313.395 165.274L314.7 167.332ZM319.735 163.889L326.365 164.109L326.446 161.672L319.816 161.453L319.735 163.889ZM320.101 168.535L318.858 171.314L321.083 172.31L322.326 169.531L320.101 168.535ZM319.292 172.824L321.437 174.262L322.794 172.238L320.649 170.8L319.292 172.824ZM322.534 174.395L324.801 173.566L323.964 171.277L321.697 172.105L322.534 174.395ZM325.6 172.366L325.478 169.661L323.043 169.77L323.165 172.476L325.6 172.366ZM324.527 168.526L321.48 167.844L320.947 170.222L323.994 170.905L324.527 168.526Z" fill="#353535" mask="url(#path-8-outside-2_240_7536)"/>
</g>
<defs>
<filter id="filter0_dd_240_7536" x="0.736328" y="0.602874" width="350.778" height="220.012" filterUnits="userSpaceOnUse" color-interpolation-filters="sRGB">
<feFlood flood-opacity="0" result="BackgroundImageFix"/>
<feColorMatrix in="SourceAlpha" type="matrix" values="0 0 0 0 0 0 0 0 0 0 0 0 0 0 0 0 0 0 127 0" result="hardAlpha"/>
<feOffset dx="4.875" dy="4.875"/>
<feGaussianBlur stdDeviation="4.875"/>
<feComposite in2="hardAlpha" operator="out"/>
<feColorMatrix type="matrix" values="0 0 0 0 0 0 0 0 0 0 0 0 0 0 0 0 0 0 0.15 0"/>
<feBlend mode="normal" in2="BackgroundImageFix" result="effect1_dropShadow_240_7536"/>
<feColorMatrix in="SourceAlpha" type="matrix" values="0 0 0 0 0 0 0 0 0 0 0 0 0 0 0 0 0 0 127 0" result="hardAlpha"/>
<feOffset dx="4.875" dy="4.875"/>
<feComposite in2="hardAlpha" operator="out"/>
<feColorMatrix type="matrix" values="0 0 0 0 0.784948 0 0 0 0 0.738688 0 0 0 0 0.64889 0 0 0 1 0"/>
<feBlend mode="normal" in2="effect1_dropShadow_240_7536" result="effect2_dropShadow_240_7536"/>
<feBlend mode="normal" in="SourceGraphic" in2="effect2_dropShadow_240_7536" result="shape"/>
</filter>
<filter id="filter1_d_240_7536" x="111.744" y="22.9799" width="115.326" height="20.67" filterUnits="userSpaceOnUse" color-interpolation-filters="sRGB">
<feFlood flood-opacity="0" result="BackgroundImageFix"/>
<feColorMatrix in="SourceAlpha" type="matrix" values="0 0 0 0 0 0 0 0 0 0 0 0 0 0 0 0 0 0 127 0" result="hardAlpha"/>
<feOffset dx="1.21875" dy="2.4375"/>
<feComposite in2="hardAlpha" operator="out"/>
<feColorMatrix type="matrix" values="0 0 0 0 0.208281 0 0 0 0 0.208281 0 0 0 0 0.208281 0 0 0 1 0"/>
<feBlend mode="normal" in2="BackgroundImageFix" result="effect1_dropShadow_240_7536"/>
<feBlend mode="normal" in="SourceGraphic" in2="effect1_dropShadow_240_7536" result="shape"/>
</filter>
<filter id="filter2_d_240_7536" x="274.194" y="162.452" width="58.7439" height="20.6944" filterUnits="userSpaceOnUse" color-interpolation-filters="sRGB">
<feFlood flood-opacity="0" result="BackgroundImageFix"/>
<feColorMatrix in="SourceAlpha" type="matrix" values="0 0 0 0 0 0 0 0 0 0 0 0 0 0 0 0 0 0 127 0" result="hardAlpha"/>
<feOffset dx="1.21875" dy="2.4375"/>
<feComposite in2="hardAlpha" operator="out"/>
<feColorMatrix type="matrix" values="0 0 0 0 0.208281 0 0 0 0 0.208281 0 0 0 0 0.208281 0 0 0 1 0"/>
<feBlend mode="normal" in2="BackgroundImageFix" result="effect1_dropShadow_240_7536"/>
<feBlend mode="normal" in="SourceGraphic" in2="effect1_dropShadow_240_7536" result="shape"/>
</filter>
<clipPath id="clip0_240_7536">
<rect width="93.8516" height="58.4687" fill="white" transform="translate(258.08 145.368)"/>
</clipPath>
</defs>
</svg>
