<svg width="361" height="227" viewBox="0 0 361 227" fill="none" xmlns="http://www.w3.org/2000/svg">
<g filter="url(#filter0_dd_270_1840)">
<path d="M19.0166 5.79541H329.946L345.136 145.291L326.412 192.39L175.725 186.867L168.689 211.448L158.123 186.222L24.4116 194.822L5.36426 180.624L5.36426 43.5321L19.0166 5.79541Z" fill="#FFFAE7"/>
<path d="M175.124 186.695L168.578 209.565L158.699 185.981L158.527 185.57L158.083 185.599L24.6008 194.183L5.98926 180.31V43.6417L19.4552 6.42041H329.385L344.498 145.204L325.995 191.749L175.748 186.243L175.259 186.225L175.124 186.695Z" stroke="#C8BCA5" stroke-width="1.25"/>
</g>
<g filter="url(#filter1_d_270_1840)">
<mask id="path-3-outside-1_270_1840" maskUnits="userSpaceOnUse" x="114.25" y="20.8578" width="117" height="23" fill="black">
<rect fill="white" x="114.25" y="20.8578" width="117" height="23"/>
<path d="M116.822 23.2078L129.422 23.3078L128.722 29.3328L121.847 28.5578L121.747 30.5578L127.572 30.2578L126.622 35.7578L121.747 35.1328L122.797 41.7828H116.147L115.622 28.2828L116.822 23.2078ZM130.053 23.3828L134.903 23.0828L138.653 40.7828L130.703 41.6578L130.053 23.3828ZM146.009 23.9328L145.284 35.1328L152.959 34.2078L153.659 39.9828L139.759 41.6328L139.059 23.1328L146.009 23.9328ZM156.278 23.2328H168.528L167.503 28.4078L161.478 29.3328L161.403 30.6078L166.728 31.0078L166.478 34.9828L161.728 35.4078L162.153 36.7578L167.928 36.8078L170.053 41.7828H156.278L154.928 29.8328L156.278 23.2328ZM176.434 23.2578L183.334 23.7078L183.059 30.3328L178.559 28.2328L174.634 30.0578L174.459 34.3078L177.909 36.6578L182.984 34.0078L184.684 40.9828L174.709 41.8578L169.834 37.5828L168.384 32.2078L170.634 26.4328L176.434 23.2578ZM197.69 23.5328L203.14 30.3078L201.59 39.2328L191.715 41.8078L183.84 34.8578L185.015 27.0328L190.89 23.3078L197.69 23.5328ZM192.365 29.8328L191.09 32.6828L193.29 34.1578L195.615 33.3078L195.49 30.5328L192.365 29.8328ZM203.734 23.3828L208.584 23.0828L212.334 40.7828L204.384 41.6578L203.734 23.3828ZM212.74 41.5328L216.065 23.3078H219.84L223.365 29.1078L223.665 23.3078L229.465 24.2078L228.24 41.7578L223.44 41.4578L219.74 35.8078L218.665 41.7828L212.74 41.5328Z"/>
</mask>
<path d="M116.822 23.2078L129.422 23.3078L128.722 29.3328L121.847 28.5578L121.747 30.5578L127.572 30.2578L126.622 35.7578L121.747 35.1328L122.797 41.7828H116.147L115.622 28.2828L116.822 23.2078ZM130.053 23.3828L134.903 23.0828L138.653 40.7828L130.703 41.6578L130.053 23.3828ZM146.009 23.9328L145.284 35.1328L152.959 34.2078L153.659 39.9828L139.759 41.6328L139.059 23.1328L146.009 23.9328ZM156.278 23.2328H168.528L167.503 28.4078L161.478 29.3328L161.403 30.6078L166.728 31.0078L166.478 34.9828L161.728 35.4078L162.153 36.7578L167.928 36.8078L170.053 41.7828H156.278L154.928 29.8328L156.278 23.2328ZM176.434 23.2578L183.334 23.7078L183.059 30.3328L178.559 28.2328L174.634 30.0578L174.459 34.3078L177.909 36.6578L182.984 34.0078L184.684 40.9828L174.709 41.8578L169.834 37.5828L168.384 32.2078L170.634 26.4328L176.434 23.2578ZM197.69 23.5328L203.14 30.3078L201.59 39.2328L191.715 41.8078L183.84 34.8578L185.015 27.0328L190.89 23.3078L197.69 23.5328ZM192.365 29.8328L191.09 32.6828L193.29 34.1578L195.615 33.3078L195.49 30.5328L192.365 29.8328ZM203.734 23.3828L208.584 23.0828L212.334 40.7828L204.384 41.6578L203.734 23.3828ZM212.74 41.5328L216.065 23.3078H219.84L223.365 29.1078L223.665 23.3078L229.465 24.2078L228.24 41.7578L223.44 41.4578L219.74 35.8078L218.665 41.7828L212.74 41.5328Z" fill="white"/>
<path d="M116.822 23.2078L116.832 21.9578L115.835 21.9499L115.605 22.9202L116.822 23.2078ZM129.422 23.3078L130.663 23.452L130.824 22.0689L129.432 22.0578L129.422 23.3078ZM128.722 29.3328L128.582 30.5749L129.82 30.7145L129.963 29.477L128.722 29.3328ZM121.847 28.5578L121.987 27.3157L120.665 27.1666L120.598 28.4954L121.847 28.5578ZM121.747 30.5578L120.498 30.4954L120.429 31.8773L121.811 31.8061L121.747 30.5578ZM127.572 30.2578L128.803 30.4705L129.07 28.929L127.507 29.0094L127.572 30.2578ZM126.622 35.7578L126.463 36.9976L127.65 37.1498L127.853 35.9705L126.622 35.7578ZM121.747 35.1328L121.906 33.8929L120.252 33.6809L120.512 35.3277L121.747 35.1328ZM122.797 41.7828V43.0328H124.26L124.031 41.5878L122.797 41.7828ZM116.147 41.7828L114.898 41.8314L114.944 43.0328H116.147V41.7828ZM115.622 28.2828L114.405 27.9952L114.366 28.161L114.373 28.3314L115.622 28.2828ZM116.812 24.4577L129.412 24.5577L129.432 22.0578L116.832 21.9578L116.812 24.4577ZM128.18 23.1635L127.48 29.1885L129.963 29.477L130.663 23.452L128.18 23.1635ZM128.862 28.0907L121.987 27.3157L121.707 29.7999L128.582 30.5749L128.862 28.0907ZM120.598 28.4954L120.498 30.4954L122.995 30.6202L123.095 28.6202L120.598 28.4954ZM121.811 31.8061L127.636 31.5061L127.507 29.0094L121.682 29.3094L121.811 31.8061ZM126.34 30.045L125.39 35.545L127.853 35.9705L128.803 30.4705L126.34 30.045ZM126.781 34.5179L121.906 33.8929L121.588 36.3726L126.463 36.9976L126.781 34.5179ZM120.512 35.3277L121.562 41.9777L124.031 41.5878L122.981 34.9378L120.512 35.3277ZM122.797 40.5328H116.147V43.0328H122.797V40.5328ZM117.396 41.7342L116.871 28.2342L114.373 28.3314L114.898 41.8314L117.396 41.7342ZM116.838 28.5704L118.038 23.4954L115.605 22.9202L114.405 27.9952L116.838 28.5704ZM130.053 23.3828L129.976 22.1352L128.76 22.2103L128.804 23.4272L130.053 23.3828ZM134.903 23.0828L136.126 22.8237L135.902 21.7686L134.826 21.8352L134.903 23.0828ZM138.653 40.7828L138.789 42.0253L140.162 41.8743L139.876 40.5237L138.653 40.7828ZM130.703 41.6578L129.454 41.7022L129.501 43.0476L130.839 42.9003L130.703 41.6578ZM130.13 24.6304L134.98 24.3304L134.826 21.8352L129.976 22.1352L130.13 24.6304ZM133.68 23.3419L137.43 41.0419L139.876 40.5237L136.126 22.8237L133.68 23.3419ZM138.516 39.5403L130.566 40.4153L130.839 42.9003L138.789 42.0253L138.516 39.5403ZM131.952 41.6134L131.302 23.3384L128.804 23.4272L129.454 41.7022L131.952 41.6134ZM146.009 23.9328L147.256 24.0135L147.333 22.827L146.152 22.691L146.009 23.9328ZM145.284 35.1328L144.036 35.052L143.939 36.5539L145.433 36.3738L145.284 35.1328ZM152.959 34.2078L154.2 34.0574L154.049 32.8173L152.809 32.9668L152.959 34.2078ZM153.659 39.9828L153.806 41.2241L155.05 41.0764L154.9 39.8324L153.659 39.9828ZM139.759 41.6328L138.509 41.6801L138.561 43.0338L139.906 42.8741L139.759 41.6328ZM139.059 23.1328L139.202 21.891L137.754 21.7244L137.809 23.1801L139.059 23.1328ZM144.761 23.852L144.036 35.052L146.531 35.2135L147.256 24.0135L144.761 23.852ZM145.433 36.3738L153.108 35.4488L152.809 32.9668L145.134 33.8918L145.433 36.3738ZM151.718 34.3582L152.418 40.1332L154.9 39.8324L154.2 34.0574L151.718 34.3582ZM153.511 38.7415L139.611 40.3915L139.906 42.8741L153.806 41.2241L153.511 38.7415ZM141.008 41.5855L140.308 23.0855L137.809 23.1801L138.509 41.6801L141.008 41.5855ZM138.916 24.3746L145.866 25.1746L146.152 22.691L139.202 21.891L138.916 24.3746ZM156.278 23.2328V21.9828H155.258L155.053 22.9823L156.278 23.2328ZM168.528 23.2328L169.754 23.4757L170.05 21.9828H168.528V23.2328ZM167.503 28.4078L167.692 29.6433L168.559 29.5103L168.729 28.6507L167.503 28.4078ZM161.478 29.3328L161.288 28.0973L160.289 28.2506L160.23 29.2594L161.478 29.3328ZM161.403 30.6078L160.155 30.5344L160.083 31.7621L161.309 31.8543L161.403 30.6078ZM166.728 31.0078L167.975 31.0862L168.053 29.8538L166.821 29.7613L166.728 31.0078ZM166.478 34.9828L166.589 36.2278L167.658 36.1322L167.725 35.0612L166.478 34.9828ZM161.728 35.4078L161.616 34.1628L160.069 34.3012L160.535 35.7831L161.728 35.4078ZM162.153 36.7578L160.96 37.1331L161.233 37.9999L162.142 38.0077L162.153 36.7578ZM167.928 36.8078L169.077 36.3168L168.756 35.5649L167.939 35.5578L167.928 36.8078ZM170.053 41.7828V43.0328H171.946L171.202 41.2918L170.053 41.7828ZM156.278 41.7828L155.036 41.9231L155.161 43.0328H156.278V41.7828ZM154.928 29.8328L153.703 29.5823L153.663 29.7763L153.686 29.9731L154.928 29.8328ZM156.278 24.4828H168.528V21.9828H156.278V24.4828ZM167.302 22.9899L166.277 28.1649L168.729 28.6507L169.754 23.4757L167.302 22.9899ZM167.313 27.1723L161.288 28.0973L161.667 30.5683L167.692 29.6433L167.313 27.1723ZM160.23 29.2594L160.155 30.5344L162.651 30.6812L162.726 29.4062L160.23 29.2594ZM161.309 31.8543L166.634 32.2543L166.821 29.7613L161.496 29.3613L161.309 31.8543ZM165.48 30.9293L165.23 34.9043L167.725 35.0612L167.975 31.0862L165.48 30.9293ZM166.366 33.7378L161.616 34.1628L161.839 36.6528L166.589 36.2278L166.366 33.7378ZM160.535 35.7831L160.96 37.1331L163.345 36.3824L162.92 35.0324L160.535 35.7831ZM162.142 38.0077L167.917 38.0577L167.939 35.5578L162.164 35.5078L162.142 38.0077ZM166.778 37.2988L168.903 42.2738L171.202 41.2918L169.077 36.3168L166.778 37.2988ZM170.053 40.5328H156.278V43.0328H170.053V40.5328ZM157.52 41.6425L156.17 29.6925L153.686 29.9731L155.036 41.9231L157.52 41.6425ZM156.152 30.0833L157.502 23.4833L155.053 22.9823L153.703 29.5823L156.152 30.0833ZM176.434 23.2578L176.515 22.0104L176.152 21.9868L175.834 22.1613L176.434 23.2578ZM183.334 23.7078L184.583 23.7596L184.633 22.5399L183.415 22.4604L183.334 23.7078ZM183.059 30.3328L182.53 31.4655L184.23 32.2587L184.308 30.3846L183.059 30.3328ZM178.559 28.2328L179.087 27.1001L178.56 26.8538L178.032 27.0993L178.559 28.2328ZM174.634 30.0578L174.107 28.9243L173.416 29.2454L173.385 30.0064L174.634 30.0578ZM174.459 34.3078L173.21 34.2564L173.181 34.95L173.755 35.3409L174.459 34.3078ZM177.909 36.6578L177.205 37.6909L177.824 38.1123L178.487 37.7658L177.909 36.6578ZM182.984 34.0078L184.198 33.7118L183.82 32.1609L182.405 32.8998L182.984 34.0078ZM184.684 40.9828L184.793 42.228L186.243 42.1008L185.898 40.6868L184.684 40.9828ZM174.709 41.8578L173.885 42.7976L174.286 43.1497L174.818 43.103L174.709 41.8578ZM169.834 37.5828L168.627 37.9084L168.725 38.2734L169.01 38.5226L169.834 37.5828ZM168.384 32.2078L167.219 31.754L167.07 32.1368L167.177 32.5334L168.384 32.2078ZM170.634 26.4328L170.034 25.3363L169.634 25.5549L169.469 25.979L170.634 26.4328ZM176.352 24.5051L183.252 24.9551L183.415 22.4604L176.515 22.0104L176.352 24.5051ZM182.085 23.6559L181.81 30.2809L184.308 30.3846L184.583 23.7596L182.085 23.6559ZM183.587 29.2001L179.087 27.1001L178.03 29.3655L182.53 31.4655L183.587 29.2001ZM178.032 27.0993L174.107 28.9243L175.161 31.1913L179.086 29.3663L178.032 27.0993ZM173.385 30.0064L173.21 34.2564L175.708 34.3592L175.883 30.1092L173.385 30.0064ZM173.755 35.3409L177.205 37.6909L178.612 35.6247L175.162 33.2747L173.755 35.3409ZM178.487 37.7658L183.562 35.1158L182.405 32.8998L177.33 35.5498L178.487 37.7658ZM181.769 34.3038L183.469 41.2788L185.898 40.6868L184.198 33.7118L181.769 34.3038ZM184.575 39.7376L174.6 40.6126L174.818 43.103L184.793 42.228L184.575 39.7376ZM175.533 40.918L170.658 36.643L169.01 38.5226L173.885 42.7976L175.533 40.918ZM171.041 37.2572L169.591 31.8822L167.177 32.5334L168.627 37.9084L171.041 37.2572ZM169.549 32.6616L171.799 26.8866L169.469 25.979L167.219 31.754L169.549 32.6616ZM171.234 27.5293L177.034 24.3543L175.834 22.1613L170.034 25.3363L171.234 27.5293ZM197.69 23.5328L198.664 22.7493L198.304 22.3024L197.731 22.2835L197.69 23.5328ZM203.14 30.3078L204.371 30.5217L204.468 29.9647L204.114 29.5243L203.14 30.3078ZM201.59 39.2328L201.905 40.4423L202.684 40.2393L202.821 39.4467L201.59 39.2328ZM191.715 41.8078L190.888 42.745L191.386 43.1852L192.03 43.0173L191.715 41.8078ZM183.84 34.8578L182.604 34.6722L182.502 35.3449L183.013 35.795L183.84 34.8578ZM185.015 27.0328L184.345 25.9771L183.863 26.2827L183.779 26.8472L185.015 27.0328ZM190.89 23.3078L190.931 22.0585L190.546 22.0457L190.22 22.2521L190.89 23.3078ZM192.365 29.8328L192.638 28.613L191.641 28.3897L191.224 29.3223L192.365 29.8328ZM191.09 32.6828L189.949 32.1723L189.518 33.1342L190.394 33.721L191.09 32.6828ZM193.29 34.1578L192.594 35.196L193.122 35.5501L193.719 35.3318L193.29 34.1578ZM195.615 33.3078L196.044 34.4818L196.905 34.1671L196.863 33.2515L195.615 33.3078ZM195.49 30.5328L196.738 30.4765L196.695 29.5219L195.763 29.313L195.49 30.5328ZM196.716 24.3163L202.166 31.0913L204.114 29.5243L198.664 22.7493L196.716 24.3163ZM201.908 30.0939L200.358 39.0189L202.821 39.4467L204.371 30.5217L201.908 30.0939ZM201.274 38.0232L191.399 40.5982L192.03 43.0173L201.905 40.4423L201.274 38.0232ZM192.542 40.8706L184.667 33.9206L183.013 35.795L190.888 42.745L192.542 40.8706ZM185.076 35.0434L186.251 27.2184L183.779 26.8472L182.604 34.6722L185.076 35.0434ZM185.684 28.0885L191.559 24.3635L190.22 22.2521L184.345 25.9771L185.684 28.0885ZM190.848 24.5571L197.648 24.7821L197.731 22.2835L190.931 22.0585L190.848 24.5571ZM191.224 29.3223L189.949 32.1723L192.231 33.1932L193.506 30.3432L191.224 29.3223ZM190.394 33.721L192.594 35.196L193.986 33.1195L191.786 31.6445L190.394 33.721ZM193.719 35.3318L196.044 34.4818L195.185 32.1338L192.86 32.9838L193.719 35.3318ZM196.863 33.2515L196.738 30.4765L194.241 30.589L194.366 33.364L196.863 33.2515ZM195.763 29.313L192.638 28.613L192.091 31.0526L195.216 31.7526L195.763 29.313ZM203.734 23.3828L203.657 22.1352L202.442 22.2103L202.485 23.4272L203.734 23.3828ZM208.584 23.0828L209.807 22.8237L209.584 21.7686L208.507 21.8352L208.584 23.0828ZM212.334 40.7828L212.471 42.0253L213.843 41.8743L213.557 40.5237L212.334 40.7828ZM204.384 41.6578L203.135 41.7022L203.183 43.0476L204.521 42.9003L204.384 41.6578ZM203.812 24.6304L208.662 24.3304L208.507 21.8352L203.657 22.1352L203.812 24.6304ZM207.362 23.3419L211.112 41.0419L213.557 40.5237L209.807 22.8237L207.362 23.3419ZM212.198 39.5403L204.248 40.4153L204.521 42.9003L212.471 42.0253L212.198 39.5403ZM205.634 41.6134L204.984 23.3384L202.485 23.4272L203.135 41.7022L205.634 41.6134ZM212.74 41.5328L211.511 41.3084L211.253 42.7211L212.688 42.7817L212.74 41.5328ZM216.065 23.3078V22.0578H215.023L214.836 23.0834L216.065 23.3078ZM219.84 23.3078L220.908 22.6586L220.543 22.0578H219.84V23.3078ZM223.365 29.1078L222.297 29.757L224.404 33.2238L224.614 29.1724L223.365 29.1078ZM223.665 23.3078L223.857 22.0726L222.488 21.8602L222.417 23.2432L223.665 23.3078ZM229.465 24.2078L230.712 24.2948L230.792 23.1487L229.657 22.9726L229.465 24.2078ZM228.24 41.7578L228.162 43.0054L229.401 43.0828L229.487 41.8448L228.24 41.7578ZM223.44 41.4578L222.395 42.1426L222.737 42.6663L223.362 42.7054L223.44 41.4578ZM219.74 35.8078L220.786 35.123L219.066 32.4964L218.51 35.5864L219.74 35.8078ZM218.665 41.7828L218.613 43.0317L219.702 43.0777L219.895 42.0041L218.665 41.7828ZM213.97 41.7571L217.295 23.5321L214.836 23.0834L211.511 41.3084L213.97 41.7571ZM216.065 24.5578H219.84V22.0578H216.065V24.5578ZM218.772 23.957L222.297 29.757L224.433 28.4586L220.908 22.6586L218.772 23.957ZM224.614 29.1724L224.914 23.3724L222.417 23.2432L222.117 29.0432L224.614 29.1724ZM223.474 24.543L229.274 25.443L229.657 22.9726L223.857 22.0726L223.474 24.543ZM228.218 24.1207L226.993 41.6707L229.487 41.8448L230.712 24.2948L228.218 24.1207ZM228.318 40.5102L223.518 40.2102L223.362 42.7054L228.162 43.0054L228.318 40.5102ZM224.486 40.773L220.786 35.123L218.695 36.4926L222.395 42.1426L224.486 40.773ZM218.51 35.5864L217.435 41.5614L219.895 42.0041L220.97 36.0291L218.51 35.5864ZM218.718 40.5339L212.793 40.2839L212.688 42.7817L218.613 43.0317L218.718 40.5339Z" fill="#353535" mask="url(#path-3-outside-1_270_1840)"/>
</g>
<path d="M25.25 72.8728L38.1825 73.1003V78.3503L33.8075 77.6328L35.015 85.8753H28.75L29.695 77.6328L25.25 77.4053V72.8728ZM39.0928 73.6428L43.5028 72.8028L43.7128 78.1403L46.2853 77.7553L46.4428 73.0478L50.0478 73.2053L50.7478 85.7703L46.6878 85.6303L46.6528 81.6928L44.2028 82.1653L44.2903 85.7703H40.4928L39.0928 73.6428ZM51.1944 72.9253L54.5894 72.7153L57.2144 85.1053L51.6494 85.7178L51.1944 72.9253ZM70.186 76.1278L67.9285 78.9103L65.286 77.2128L64.621 78.0528L69.346 81.5178L67.0535 85.8403H61.436L57.516 82.7253L59.2135 79.8728L62.591 81.7803L63.0985 80.9928L58.146 78.0528L62.836 72.8028H67.0535L70.186 76.1278ZM79.0851 72.9253L82.4801 72.7153L85.1051 85.1053L79.5401 85.7178L79.0851 72.9253ZM98.0767 76.1278L95.8192 78.9103L93.1767 77.2128L92.5117 78.0528L97.2367 81.5178L94.9442 85.8403H89.3267L85.4067 82.7253L87.1042 79.8728L90.4817 81.7803L90.9892 80.9928L86.0367 78.0528L90.7267 72.8028H94.9442L98.0767 76.1278ZM106.888 72.8728L119.821 73.1003V78.3503L115.446 77.6328L116.653 85.8753H110.388L111.333 77.6328L106.888 77.4053V72.8728ZM120.731 73.6428L125.141 72.8028L125.351 78.1403L127.923 77.7553L128.081 73.0478L131.686 73.2053L132.386 85.7703L128.326 85.6303L128.291 81.6928L125.841 82.1653L125.928 85.7703H122.131L120.731 73.6428ZM133.69 72.8203H142.265L141.548 76.4428L137.33 77.0903L137.278 77.9828L141.005 78.2628L140.83 81.0453L137.505 81.3428L137.803 82.2878L141.845 82.3228L143.333 85.8053H133.69L132.745 77.4403L133.69 72.8203ZM152.472 72.8203H161.047L160.329 76.4428L156.112 77.0903L156.059 77.9828L159.787 78.2628L159.612 81.0453L156.287 81.3428L156.584 82.2878L160.627 82.3228L162.114 85.8053H152.472L151.527 77.4403L152.472 72.8203ZM165.059 72.9253L167.806 75.7253L169.836 72.7328L173.161 75.9178L170.746 78.7703L174.736 81.9028L171.411 85.7353L168.541 81.9903L164.901 85.6478L161.559 82.3403L165.426 78.8578L162.486 75.5678L165.059 72.9253ZM182.729 72.8903L188.259 84.9478L182.974 85.7878L182.554 82.6903L178.302 82.5853L177.339 85.8928L172.247 84.9828L179.229 73.2403L182.729 72.8903ZM180.122 77.4753L179.404 79.2603L182.082 79.3303L181.469 77.5278L180.122 77.4753ZM187.45 84.5278L193.697 72.9603H197.39L198.615 76.4603L200.785 72.9428L204.057 72.8728L207.645 85.4553L202.972 85.8403L202.08 82.6553L201.012 79.5753L197.792 82.4453L195.325 79.1728L192.367 85.4553L187.45 84.5278ZM215.419 72.9078L218.499 75.0253L218.744 80.2053L215.629 83.2153L211.762 83.4603V85.9278H207.684L208.332 72.9078H215.419ZM212.479 76.8978L212.357 79.0153L213.512 79.1728L214.982 77.4403L212.479 76.8978ZM223.675 73.3103L223.167 81.1503L228.54 80.5028L229.03 84.5453L219.3 85.7003L218.81 72.7503L223.675 73.3103ZM230.863 72.8203H239.438L238.72 76.4428L234.503 77.0903L234.45 77.9828L238.178 78.2628L238.003 81.0453L234.678 81.3428L234.975 82.2878L239.018 82.3228L240.505 85.8053H230.863L229.918 77.4403L230.863 72.8203ZM37.9375 97.1278L35.68 99.9103L33.0375 98.2128L32.3725 99.0528L37.0975 102.518L34.805 106.84H29.1875L25.2675 103.725L26.965 100.873L30.3425 102.78L30.85 101.993L25.8975 99.0528L30.5875 93.8028H34.805L37.9375 97.1278ZM38.944 93.8203H47.519L46.8015 97.4428L42.584 98.0903L42.5315 98.9828L46.259 99.2628L46.084 102.045L42.759 102.343L43.0565 103.288L47.099 103.323L48.5865 106.805H38.944L37.999 98.4403L38.944 93.8203ZM48.0308 106.63L50.3583 93.8728H53.0008L55.4683 97.9328L55.6783 93.8728L59.7383 94.5028L58.8808 106.788L55.5208 106.578L52.9308 102.623L52.1783 106.805L48.0308 106.63ZM60.0449 93.8728L72.9774 94.1003V99.3503L68.6024 98.6328L69.8099 106.875H63.5449L64.4899 98.6328L60.0449 98.4053V93.8728ZM74.8327 93.8203H83.4077L82.6902 97.4428L78.4727 98.0903L78.4202 98.9828L82.1477 99.2628L81.9727 102.045L78.6477 102.343L78.9452 103.288L82.9877 103.323L84.4752 106.805H74.8327L73.8877 98.4403L74.8327 93.8203ZM83.9194 106.63L86.2469 93.8728H88.8894L91.3569 97.9328L91.5669 93.8728L95.6269 94.5028L94.7694 106.788L91.4094 106.578L88.8194 102.623L88.0669 106.805L83.9194 106.63ZM100.956 93.8378L105.786 94.1528L105.594 98.7903L102.444 97.3203L99.6961 98.5978L99.5736 101.573L101.989 103.218L105.541 101.363L106.731 106.245L99.7486 106.858L96.3361 103.865L95.3211 100.103L96.8961 96.0603L100.956 93.8378ZM107.645 93.8203H116.22L115.503 97.4428L111.285 98.0903L111.233 98.9828L114.96 99.2628L114.785 102.045L111.46 102.343L111.758 103.288L115.8 103.323L117.288 106.805H107.645L106.7 98.4403L107.645 93.8203ZM131.922 93.8378L135.597 96.8478L136.349 103.865L132.727 106.823H125.482V94.6253L131.922 93.8378ZM129.489 98.5103V102.325L131.852 101.503V99.5953L129.489 98.5103ZM137.535 93.8203H146.11L145.393 97.4428L141.175 98.0903L141.123 98.9828L144.85 99.2628L144.675 102.045L141.35 102.343L141.648 103.288L145.69 103.323L147.178 106.805H137.535L136.59 98.4403L137.535 93.8203ZM159.31 97.1278L157.052 99.9103L154.41 98.2128L153.745 99.0528L158.47 102.518L156.177 106.84H150.56L146.64 103.725L148.337 100.873L151.715 102.78L152.222 101.993L147.27 99.0528L151.96 93.8028H156.177L159.31 97.1278ZM164.394 93.8378L169.224 94.1528L169.031 98.7903L165.881 97.3203L163.134 98.5978L163.011 101.573L165.426 103.218L168.979 101.363L170.169 106.245L163.186 106.858L159.774 103.865L158.759 100.103L160.334 96.0603L164.394 93.8378ZM177.4 93.9253L180.638 96.2878L180.935 100.365L179.115 102.395L182.353 105.248L178.555 106.893L174.583 103.498L175.178 106.875H171.153L170.138 94.4853L177.4 93.9253ZM174.583 97.5478L174.478 100.033L175.545 100.173L176.613 98.6328L174.583 97.5478ZM182.068 93.9253L185.463 93.7153L188.088 106.105L182.523 106.718L182.068 93.9253ZM190.788 93.7853L196.86 94.5028L198.26 96.7428L198.155 99.1403L197.245 100.505L198.523 101.24L199.38 103.743L198.4 106.07L196.37 106.788L188.74 106.84L188.39 94.5378L190.788 93.7853ZM192.87 104.198L194.655 103.813V102.623L192.87 102.01V104.198ZM192.643 98.7728L194.41 98.4053V96.9703L192.643 96.5853V98.7728ZM199.056 93.9253L202.451 93.7153L205.076 106.105L199.511 106.718L199.056 93.9253ZM205.36 106.63L207.687 93.8728H210.33L212.797 97.9328L213.007 93.8728L217.067 94.5028L216.21 106.788L212.85 106.578L210.26 102.623L209.507 106.805L205.36 106.63ZM228.347 96.5153L225.354 98.1953L224.147 97.5303L222.362 98.0728L221.294 100.61L222.414 102.973L225.634 102.588L225.704 102.01L223.219 102.238L223.534 98.7203L228.714 98.7903V105.703L220.017 106.823L217.374 101.45L218.337 96.5153L222.047 93.8203L226.597 94.1353L228.347 96.5153ZM237.796 93.8728L250.729 94.1003V99.3503L246.354 98.6328L247.561 106.875H241.296L242.241 98.6328L237.796 98.4053V93.8728ZM251.639 94.6428L256.049 93.8028L256.259 99.1403L258.832 98.7553L258.989 94.0478L262.594 94.2053L263.294 106.77L259.234 106.63L259.199 102.693L256.749 103.165L256.837 106.77H253.039L251.639 94.6428ZM264.598 93.8203H273.173L272.456 97.4428L268.238 98.0903L268.186 98.9828L271.913 99.2628L271.738 102.045L268.413 102.343L268.711 103.288L272.753 103.323L274.241 106.805H264.598L263.653 98.4403L264.598 93.8203ZM30.115 115.31L29.6075 123.15L34.98 122.503L35.47 126.545L25.74 127.7L25.25 114.75L30.115 115.31ZM45.4934 115.03L49.3084 119.773L48.2234 126.02L41.3109 127.823L35.7984 122.958L36.6209 117.48L40.7334 114.873L45.4934 115.03ZM41.7659 119.44L40.8734 121.435L42.4134 122.468L44.0409 121.873L43.9534 119.93L41.7659 119.44ZM54.6597 114.838L59.4897 115.153L59.2972 119.79L56.1472 118.32L53.3997 119.598L53.2772 122.573L55.6922 124.218L59.2447 122.363L60.4347 127.245L53.4522 127.858L50.0397 124.865L49.0247 121.103L50.5997 117.06L54.6597 114.838ZM68.2613 114.89L73.7913 126.948L68.5063 127.788L68.0863 124.69L63.8338 124.585L62.8713 127.893L57.7788 126.983L64.7613 115.24L68.2613 114.89ZM65.6538 119.475L64.9363 121.26L67.6138 121.33L67.0013 119.528L65.6538 119.475ZM72.9819 114.873L85.9144 115.1V120.35L81.5394 119.633L82.7469 127.875H76.4819L77.4269 119.633L72.9819 119.405V114.873ZM86.9122 114.925L90.3072 114.715L92.9322 127.105L87.3672 127.718L86.9122 114.925ZM102.351 115.03L106.166 119.773L105.081 126.02L98.1688 127.823L92.6563 122.958L93.4788 117.48L97.5913 114.873L102.351 115.03ZM98.6238 119.44L97.7313 121.435L99.2713 122.468L100.899 121.873L100.811 119.93L98.6238 119.44ZM106.495 127.63L108.823 114.873H111.465L113.933 118.933L114.143 114.873L118.203 115.503L117.345 127.788L113.985 127.578L111.395 123.623L110.643 127.805L106.495 127.63ZM120.382 124.83H121.764L122.587 126.265L122.009 127.333L120.382 127.7L119.629 126.423L120.382 124.83Z" fill="#77684D"/>
<g clip-path="url(#clip0_270_1840)">
<path d="M271.961 152.5L319.137 149.231L352.419 152.5L360.008 188.628L357.814 204.45L301.782 209.664L266.344 206.742L264.327 165.657L271.961 152.5Z" fill="#353535"/>
<path d="M266.43 166.897L273.559 155.21L318.914 152.221L350.672 155.188L357.905 187.933L355.866 201.915L302.097 206.673L268.346 204.028L266.43 166.897Z" fill="#ED4650" stroke="white" stroke-width="1.25"/>
</g>
<g filter="url(#filter2_d_270_1840)">
<mask id="path-8-outside-2_270_1840" maskUnits="userSpaceOnUse" x="279.25" y="165.108" width="62" height="23" fill="black">
<rect fill="white" x="279.25" y="165.108" width="62" height="23"/>
<path d="M280.578 167.633L285.428 167.333L289.178 185.033L281.228 185.908L280.578 167.633ZM289.583 185.783L292.908 167.558H296.683L300.208 173.358L300.508 167.558L306.308 168.458L305.083 186.008L300.283 185.708L296.583 180.058L295.508 186.033L289.583 185.783ZM307.972 167.458L320.572 167.558L319.872 173.583L312.997 172.808L312.897 174.808L318.722 174.508L317.772 180.008L312.897 179.383L313.947 186.033H307.297L306.772 172.533L307.972 167.458ZM334.128 167.783L339.578 174.558L338.028 183.483L328.153 186.058L320.278 179.108L321.453 171.283L327.328 167.558L334.128 167.783ZM328.803 174.083L327.528 176.933L329.728 178.408L332.053 177.558L331.928 174.783L328.803 174.083Z"/>
</mask>
<path d="M280.578 167.633L285.428 167.333L289.178 185.033L281.228 185.908L280.578 167.633ZM289.583 185.783L292.908 167.558H296.683L300.208 173.358L300.508 167.558L306.308 168.458L305.083 186.008L300.283 185.708L296.583 180.058L295.508 186.033L289.583 185.783ZM307.972 167.458L320.572 167.558L319.872 173.583L312.997 172.808L312.897 174.808L318.722 174.508L317.772 180.008L312.897 179.383L313.947 186.033H307.297L306.772 172.533L307.972 167.458ZM334.128 167.783L339.578 174.558L338.028 183.483L328.153 186.058L320.278 179.108L321.453 171.283L327.328 167.558L334.128 167.783ZM328.803 174.083L327.528 176.933L329.728 178.408L332.053 177.558L331.928 174.783L328.803 174.083Z" fill="white"/>
<path d="M280.578 167.633L280.5 166.385L279.285 166.46L279.328 167.677L280.578 167.633ZM285.428 167.333L286.65 167.074L286.427 166.019L285.35 166.085L285.428 167.333ZM289.178 185.033L289.314 186.275L290.687 186.124L290.4 184.774L289.178 185.033ZM281.228 185.908L279.978 185.952L280.026 187.298L281.364 187.15L281.228 185.908ZM280.655 168.88L285.505 168.58L285.35 166.085L280.5 166.385L280.655 168.88ZM284.205 167.592L287.955 185.292L290.4 184.774L286.65 167.074L284.205 167.592ZM289.041 183.79L281.091 184.665L281.364 187.15L289.314 186.275L289.041 183.79ZM282.477 185.863L281.827 167.588L279.328 167.677L279.978 185.952L282.477 185.863ZM289.583 185.783L288.354 185.558L288.096 186.971L289.531 187.032L289.583 185.783ZM292.908 167.558V166.308H291.866L291.679 167.333L292.908 167.558ZM296.683 167.558L297.752 166.909L297.387 166.308H296.683V167.558ZM300.208 173.358L299.14 174.007L301.247 177.474L301.457 173.422L300.208 173.358ZM300.508 167.558L300.7 166.323L299.332 166.11L299.26 167.493L300.508 167.558ZM306.308 168.458L307.555 168.545L307.635 167.399L306.5 167.223L306.308 168.458ZM305.083 186.008L305.006 187.255L306.244 187.333L306.33 186.095L305.083 186.008ZM300.283 185.708L299.238 186.393L299.581 186.916L300.206 186.955L300.283 185.708ZM296.583 180.058L297.629 179.373L295.909 176.746L295.353 179.836L296.583 180.058ZM295.508 186.033L295.456 187.282L296.546 187.328L296.739 186.254L295.508 186.033ZM290.813 186.007L294.138 167.782L291.679 167.333L288.354 185.558L290.813 186.007ZM292.908 168.808H296.683V166.308H292.908V168.808ZM295.615 168.207L299.14 174.007L301.277 172.709L297.752 166.909L295.615 168.207ZM301.457 173.422L301.757 167.622L299.26 167.493L298.96 173.293L301.457 173.422ZM300.317 168.793L306.117 169.693L306.5 167.223L300.7 166.323L300.317 168.793ZM305.062 168.371L303.837 185.921L306.33 186.095L307.555 168.545L305.062 168.371ZM305.161 184.76L300.361 184.46L300.206 186.955L305.006 187.255L305.161 184.76ZM301.329 185.023L297.629 179.373L295.538 180.743L299.238 186.393L301.329 185.023ZM295.353 179.836L294.278 185.811L296.739 186.254L297.814 180.279L295.353 179.836ZM295.561 184.784L289.636 184.534L289.531 187.032L295.456 187.282L295.561 184.784ZM307.972 167.458L307.982 166.208L306.985 166.2L306.755 167.17L307.972 167.458ZM320.572 167.558L321.813 167.702L321.974 166.319L320.582 166.308L320.572 167.558ZM319.872 173.583L319.732 174.825L320.969 174.964L321.113 173.727L319.872 173.583ZM312.997 172.808L313.137 171.566L311.815 171.417L311.748 172.745L312.997 172.808ZM312.897 174.808L311.648 174.745L311.579 176.127L312.961 176.056L312.897 174.808ZM318.722 174.508L319.953 174.721L320.22 173.179L318.657 173.259L318.722 174.508ZM317.772 180.008L317.613 181.248L318.8 181.4L319.003 180.221L317.772 180.008ZM312.897 179.383L313.056 178.143L311.402 177.931L311.662 179.578L312.897 179.383ZM313.947 186.033V187.283H315.409L315.181 185.838L313.947 186.033ZM307.297 186.033L306.048 186.081L306.094 187.283H307.297V186.033ZM306.772 172.533L305.555 172.245L305.516 172.411L305.523 172.581L306.772 172.533ZM307.962 168.708L320.562 168.808L320.582 166.308L307.982 166.208L307.962 168.708ZM319.33 167.414L318.63 173.439L321.113 173.727L321.813 167.702L319.33 167.414ZM320.012 172.341L313.137 171.566L312.857 174.05L319.732 174.825L320.012 172.341ZM311.748 172.745L311.648 174.745L314.145 174.87L314.245 172.87L311.748 172.745ZM312.961 176.056L318.786 175.756L318.657 173.259L312.832 173.559L312.961 176.056ZM317.49 174.295L316.54 179.795L319.003 180.221L319.953 174.721L317.49 174.295ZM317.931 178.768L313.056 178.143L312.738 180.623L317.613 181.248L317.931 178.768ZM311.662 179.578L312.712 186.228L315.181 185.838L314.131 179.188L311.662 179.578ZM313.947 184.783H307.297V187.283H313.947V184.783ZM308.546 185.984L308.021 172.484L305.523 172.581L306.048 186.081L308.546 185.984ZM307.988 172.82L309.188 167.745L306.755 167.17L305.555 172.245L307.988 172.82ZM334.128 167.783L335.102 166.999L334.742 166.552L334.169 166.533L334.128 167.783ZM339.578 174.558L340.809 174.772L340.906 174.215L340.552 173.774L339.578 174.558ZM338.028 183.483L338.343 184.692L339.122 184.489L339.259 183.697L338.028 183.483ZM328.153 186.058L327.326 186.995L327.824 187.435L328.468 187.267L328.153 186.058ZM320.278 179.108L319.041 178.922L318.94 179.595L319.451 180.045L320.278 179.108ZM321.453 171.283L320.783 170.227L320.301 170.533L320.216 171.097L321.453 171.283ZM327.328 167.558L327.369 166.308L326.984 166.296L326.658 166.502L327.328 167.558ZM328.803 174.083L329.076 172.863L328.079 172.64L327.662 173.572L328.803 174.083ZM327.528 176.933L326.387 176.422L325.956 177.384L326.832 177.971L327.528 176.933ZM329.728 178.408L329.032 179.446L329.56 179.8L330.157 179.582L329.728 178.408ZM332.053 177.558L332.482 178.732L333.343 178.417L333.301 177.502L332.053 177.558ZM331.928 174.783L333.176 174.727L333.133 173.772L332.201 173.563L331.928 174.783ZM333.154 168.566L338.604 175.341L340.552 173.774L335.102 166.999L333.154 168.566ZM338.346 174.344L336.796 183.269L339.259 183.697L340.809 174.772L338.346 174.344ZM337.712 182.273L327.837 184.848L328.468 187.267L338.343 184.692L337.712 182.273ZM328.98 185.121L321.105 178.171L319.451 180.045L327.326 186.995L328.98 185.121ZM321.514 179.293L322.689 171.468L320.216 171.097L319.041 178.922L321.514 179.293ZM322.122 172.338L327.997 168.613L326.658 166.502L320.783 170.227L322.122 172.338ZM327.286 168.807L334.086 169.032L334.169 166.533L327.369 166.308L327.286 168.807ZM327.662 173.572L326.387 176.422L328.669 177.443L329.944 174.593L327.662 173.572ZM326.832 177.971L329.032 179.446L330.424 177.37L328.224 175.895L326.832 177.971ZM330.157 179.582L332.482 178.732L331.623 176.384L329.298 177.234L330.157 179.582ZM333.301 177.502L333.176 174.727L330.679 174.839L330.804 177.614L333.301 177.502ZM332.201 173.563L329.076 172.863L328.529 175.303L331.654 176.003L332.201 173.563Z" fill="#353535" mask="url(#path-8-outside-2_270_1840)"/>
</g>
<defs>
<filter id="filter0_dd_270_1840" x="0.364258" y="0.79541" width="359.772" height="225.653" filterUnits="userSpaceOnUse" color-interpolation-filters="sRGB">
<feFlood flood-opacity="0" result="BackgroundImageFix"/>
<feColorMatrix in="SourceAlpha" type="matrix" values="0 0 0 0 0 0 0 0 0 0 0 0 0 0 0 0 0 0 127 0" result="hardAlpha"/>
<feOffset dx="5" dy="5"/>
<feGaussianBlur stdDeviation="5"/>
<feComposite in2="hardAlpha" operator="out"/>
<feColorMatrix type="matrix" values="0 0 0 0 0 0 0 0 0 0 0 0 0 0 0 0 0 0 0.15 0"/>
<feBlend mode="normal" in2="BackgroundImageFix" result="effect1_dropShadow_270_1840"/>
<feColorMatrix in="SourceAlpha" type="matrix" values="0 0 0 0 0 0 0 0 0 0 0 0 0 0 0 0 0 0 127 0" result="hardAlpha"/>
<feOffset dx="5" dy="5"/>
<feComposite in2="hardAlpha" operator="out"/>
<feColorMatrix type="matrix" values="0 0 0 0 0.784948 0 0 0 0 0.738688 0 0 0 0 0.64889 0 0 0 1 0"/>
<feBlend mode="normal" in2="effect1_dropShadow_270_1840" result="effect2_dropShadow_270_1840"/>
<feBlend mode="normal" in="SourceGraphic" in2="effect2_dropShadow_270_1840" result="shape"/>
</filter>
<filter id="filter1_d_270_1840" x="115.622" y="23.0828" width="115.094" height="21.275" filterUnits="userSpaceOnUse" color-interpolation-filters="sRGB">
<feFlood flood-opacity="0" result="BackgroundImageFix"/>
<feColorMatrix in="SourceAlpha" type="matrix" values="0 0 0 0 0 0 0 0 0 0 0 0 0 0 0 0 0 0 127 0" result="hardAlpha"/>
<feOffset dx="1.25" dy="2.5"/>
<feComposite in2="hardAlpha" operator="out"/>
<feColorMatrix type="matrix" values="0 0 0 0 0.208281 0 0 0 0 0.208281 0 0 0 0 0.208281 0 0 0 1 0"/>
<feBlend mode="normal" in2="BackgroundImageFix" result="effect1_dropShadow_270_1840"/>
<feBlend mode="normal" in="SourceGraphic" in2="effect1_dropShadow_270_1840" result="shape"/>
</filter>
<filter id="filter2_d_270_1840" x="280.578" y="167.333" width="60.25" height="21.225" filterUnits="userSpaceOnUse" color-interpolation-filters="sRGB">
<feFlood flood-opacity="0" result="BackgroundImageFix"/>
<feColorMatrix in="SourceAlpha" type="matrix" values="0 0 0 0 0 0 0 0 0 0 0 0 0 0 0 0 0 0 127 0" result="hardAlpha"/>
<feOffset dx="1.25" dy="2.5"/>
<feComposite in2="hardAlpha" operator="out"/>
<feColorMatrix type="matrix" values="0 0 0 0 0.208281 0 0 0 0 0.208281 0 0 0 0 0.208281 0 0 0 1 0"/>
<feBlend mode="normal" in2="BackgroundImageFix" result="effect1_dropShadow_270_1840"/>
<feBlend mode="normal" in="SourceGraphic" in2="effect1_dropShadow_270_1840" result="shape"/>
</filter>
<clipPath id="clip0_270_1840">
<rect width="95.6808" height="60.4328" fill="white" transform="translate(264.327 149.231)"/>
</clipPath>
</defs>
</svg>
