<svg width="361" height="227" viewBox="0 0 361 227" fill="none" xmlns="http://www.w3.org/2000/svg">
<g filter="url(#filter0_dd_303_4164)">
<path d="M19.5166 5.79541H330.446L345.636 145.291L326.912 192.39L176.225 186.867L169.189 211.448L158.623 186.222L24.9116 194.822L5.86426 180.624L5.86426 43.5321L19.5166 5.79541Z" fill="#FFFAE7"/>
<path d="M175.624 186.695L169.078 209.565L159.199 185.981L159.027 185.57L158.583 185.599L25.1008 194.183L6.48926 180.31V43.6417L19.9552 6.42041H329.885L344.998 145.204L326.495 191.749L176.248 186.243L175.759 186.225L175.624 186.695Z" stroke="#C8BCA5" stroke-width="1.25"/>
</g>
<g filter="url(#filter1_d_303_4164)">
<mask id="path-3-outside-1_303_4164" maskUnits="userSpaceOnUse" x="87.7501" y="20.8578" width="173" height="23" fill="black">
<rect fill="white" x="87.7501" y="20.8578" width="173" height="23"/>
<path d="M89.2565 23.3828L94.1065 23.0828L97.8565 40.7828L89.9065 41.6578L89.2565 23.3828ZM98.2623 39.9578L107.187 23.4328H112.462L114.212 28.4328L117.312 23.4078L121.987 23.3078L127.112 41.2828L120.437 41.8328L119.162 37.2828L117.637 32.8828L113.037 36.9828L109.512 32.3078L105.287 41.2828L98.2623 39.9578ZM127.169 39.9578L136.094 23.4328H141.369L143.119 28.4328L146.219 23.4078L150.894 23.3078L156.019 41.2828L149.344 41.8328L148.069 37.2828L146.544 32.8828L141.944 36.9828L138.419 32.3078L134.194 41.2828L127.169 39.9578ZM155.85 23.3828H163.925L163.55 36.0078L166.675 33.7578L165.75 24.7328H173.425V36.8828L168.95 41.9328H159.525L155.85 37.4328V23.3828ZM174.288 23.3078L192.763 23.6328V31.1328L186.513 30.1078L188.238 41.8828H179.288L180.638 30.1078L174.288 29.7828V23.3078ZM205.288 23.3328L213.188 40.5578L205.638 41.7578L205.038 37.3328L198.963 37.1828L197.588 41.9078L190.313 40.6078L200.288 23.8328L205.288 23.3328ZM201.563 29.8828L200.538 32.4328L204.363 32.5328L203.488 29.9578L201.563 29.8828ZM215.482 23.1828L224.157 24.2078L226.157 27.4078L226.007 30.8328L224.707 32.7828L226.532 33.8328L227.757 37.4078L226.357 40.7328L223.457 41.7578L212.557 41.8328L212.057 24.2578L215.482 23.1828ZM218.457 38.0578L221.007 37.5078V35.8078L218.457 34.9328V38.0578ZM218.132 30.3078L220.657 29.7828V27.7328L218.132 27.1828V30.3078ZM234.119 23.9328L233.394 35.1328L241.069 34.2078L241.769 39.9828L227.869 41.6328L227.169 23.1328L234.119 23.9328ZM244.388 23.2328H256.638L255.613 28.4078L249.588 29.3328L249.513 30.6078L254.838 31.0078L254.588 34.9828L249.838 35.4078L250.263 36.7578L256.038 36.8078L258.163 41.7828H244.388L243.038 29.8328L244.388 23.2328Z"/>
</mask>
<path d="M89.2565 23.3828L94.1065 23.0828L97.8565 40.7828L89.9065 41.6578L89.2565 23.3828ZM98.2623 39.9578L107.187 23.4328H112.462L114.212 28.4328L117.312 23.4078L121.987 23.3078L127.112 41.2828L120.437 41.8328L119.162 37.2828L117.637 32.8828L113.037 36.9828L109.512 32.3078L105.287 41.2828L98.2623 39.9578ZM127.169 39.9578L136.094 23.4328H141.369L143.119 28.4328L146.219 23.4078L150.894 23.3078L156.019 41.2828L149.344 41.8328L148.069 37.2828L146.544 32.8828L141.944 36.9828L138.419 32.3078L134.194 41.2828L127.169 39.9578ZM155.85 23.3828H163.925L163.55 36.0078L166.675 33.7578L165.75 24.7328H173.425V36.8828L168.95 41.9328H159.525L155.85 37.4328V23.3828ZM174.288 23.3078L192.763 23.6328V31.1328L186.513 30.1078L188.238 41.8828H179.288L180.638 30.1078L174.288 29.7828V23.3078ZM205.288 23.3328L213.188 40.5578L205.638 41.7578L205.038 37.3328L198.963 37.1828L197.588 41.9078L190.313 40.6078L200.288 23.8328L205.288 23.3328ZM201.563 29.8828L200.538 32.4328L204.363 32.5328L203.488 29.9578L201.563 29.8828ZM215.482 23.1828L224.157 24.2078L226.157 27.4078L226.007 30.8328L224.707 32.7828L226.532 33.8328L227.757 37.4078L226.357 40.7328L223.457 41.7578L212.557 41.8328L212.057 24.2578L215.482 23.1828ZM218.457 38.0578L221.007 37.5078V35.8078L218.457 34.9328V38.0578ZM218.132 30.3078L220.657 29.7828V27.7328L218.132 27.1828V30.3078ZM234.119 23.9328L233.394 35.1328L241.069 34.2078L241.769 39.9828L227.869 41.6328L227.169 23.1328L234.119 23.9328ZM244.388 23.2328H256.638L255.613 28.4078L249.588 29.3328L249.513 30.6078L254.838 31.0078L254.588 34.9828L249.838 35.4078L250.263 36.7578L256.038 36.8078L258.163 41.7828H244.388L243.038 29.8328L244.388 23.2328Z" fill="white"/>
<path d="M89.2565 23.3828L89.1793 22.1352L87.964 22.2103L88.0073 23.4272L89.2565 23.3828ZM94.1065 23.0828L95.3293 22.8237L95.1058 21.7686L94.0293 21.8352L94.1065 23.0828ZM97.8565 40.7828L97.9932 42.0253L99.3655 41.8743L99.0793 40.5237L97.8565 40.7828ZM89.9065 41.6578L88.6573 41.7022L88.7051 43.0476L90.0432 42.9003L89.9065 41.6578ZM89.3336 24.6304L94.1836 24.3304L94.0293 21.8352L89.1793 22.1352L89.3336 24.6304ZM92.8836 23.3419L96.6336 41.0419L99.0793 40.5237L95.3293 22.8237L92.8836 23.3419ZM97.7197 39.5403L89.7697 40.4153L90.0432 42.9003L97.9932 42.0253L97.7197 39.5403ZM91.1557 41.6134L90.5057 23.3384L88.0073 23.4272L88.6573 41.7022L91.1557 41.6134ZM98.2623 39.9578L97.1625 39.3638L96.3495 40.869L98.0306 41.1861L98.2623 39.9578ZM107.187 23.4328V22.1828H106.442L106.087 22.8388L107.187 23.4328ZM112.462 23.4328L113.642 23.0198L113.349 22.1828H112.462V23.4328ZM114.212 28.4328L113.033 28.8457L113.899 31.3214L115.276 29.0891L114.212 28.4328ZM117.312 23.4078L117.286 22.1581L116.606 22.1726L116.248 22.7515L117.312 23.4078ZM121.987 23.3078L123.189 22.965L122.925 22.0374L121.961 22.0581L121.987 23.3078ZM127.112 41.2828L127.215 42.5286L128.732 42.4036L128.314 40.9401L127.112 41.2828ZM120.437 41.8328L119.234 42.1701L119.512 43.1633L120.54 43.0786L120.437 41.8328ZM119.162 37.2828L120.366 36.9455L120.356 36.9091L120.343 36.8734L119.162 37.2828ZM117.637 32.8828L118.818 32.4734L118.205 30.7027L116.806 31.9496L117.637 32.8828ZM113.037 36.9828L112.039 37.7353L112.856 38.8187L113.869 37.9159L113.037 36.9828ZM109.512 32.3078L110.51 31.5552L109.264 29.9015L108.381 31.7754L109.512 32.3078ZM105.287 41.2828L105.056 42.5111L106.006 42.6904L106.418 41.8152L105.287 41.2828ZM99.3622 40.5518L108.287 24.0268L106.087 22.8388L97.1625 39.3638L99.3622 40.5518ZM107.187 24.6828H112.462V22.1828H107.187V24.6828ZM111.283 23.8457L113.033 28.8457L115.392 28.0199L113.642 23.0198L111.283 23.8457ZM115.276 29.0891L118.376 24.0641L116.248 22.7515L113.148 27.7765L115.276 29.0891ZM117.339 24.6575L122.014 24.5575L121.961 22.0581L117.286 22.1581L117.339 24.6575ZM120.785 23.6505L125.91 41.6255L128.314 40.9401L123.189 22.965L120.785 23.6505ZM127.01 40.037L120.335 40.587L120.54 43.0786L127.215 42.5286L127.01 40.037ZM121.641 41.4955L120.366 36.9455L117.959 37.6201L119.234 42.1701L121.641 41.4955ZM120.343 36.8734L118.818 32.4734L116.456 33.2921L117.981 37.6921L120.343 36.8734ZM116.806 31.9496L112.206 36.0496L113.869 37.9159L118.469 33.8159L116.806 31.9496ZM114.035 36.2302L110.51 31.5552L108.514 33.0603L112.039 37.7353L114.035 36.2302ZM108.381 31.7754L104.156 40.7504L106.418 41.8152L110.643 32.8402L108.381 31.7754ZM105.519 40.0544L98.494 38.7294L98.0306 41.1861L105.056 42.5111L105.519 40.0544ZM127.169 39.9578L126.069 39.3638L125.256 40.869L126.937 41.1861L127.169 39.9578ZM136.094 23.4328V22.1828H135.348L134.994 22.8388L136.094 23.4328ZM141.369 23.4328L142.548 23.0198L142.255 22.1828H141.369V23.4328ZM143.119 28.4328L141.939 28.8457L142.805 31.3214L144.182 29.0891L143.119 28.4328ZM146.219 23.4078L146.192 22.1581L145.512 22.1726L145.155 22.7515L146.219 23.4078ZM150.894 23.3078L152.096 22.965L151.831 22.0374L150.867 22.0581L150.894 23.3078ZM156.019 41.2828L156.121 42.5286L157.638 42.4036L157.221 40.9401L156.019 41.2828ZM149.344 41.8328L148.14 42.1701L148.418 43.1633L149.446 43.0786L149.344 41.8328ZM148.069 37.2828L149.272 36.9455L149.262 36.9091L149.25 36.8734L148.069 37.2828ZM146.544 32.8828L147.725 32.4734L147.111 30.7027L145.712 31.9496L146.544 32.8828ZM141.944 36.9828L140.946 37.7353L141.762 38.8187L142.775 37.9159L141.944 36.9828ZM138.419 32.3078L139.417 31.5552L138.17 29.9015L137.288 31.7754L138.419 32.3078ZM134.194 41.2828L133.962 42.5111L134.913 42.6904L135.325 41.8152L134.194 41.2828ZM128.268 40.5518L137.193 24.0268L134.994 22.8388L126.069 39.3638L128.268 40.5518ZM136.094 24.6828H141.369V22.1828H136.094V24.6828ZM140.189 23.8457L141.939 28.8457L144.298 28.0199L142.548 23.0198L140.189 23.8457ZM144.182 29.0891L147.282 24.0641L145.155 22.7515L142.055 27.7765L144.182 29.0891ZM146.245 24.6575L150.92 24.5575L150.867 22.0581L146.192 22.1581L146.245 24.6575ZM149.691 23.6505L154.816 41.6255L157.221 40.9401L152.096 22.965L149.691 23.6505ZM155.916 40.037L149.241 40.587L149.446 43.0786L156.121 42.5286L155.916 40.037ZM150.547 41.4955L149.272 36.9455L146.865 37.6201L148.14 42.1701L150.547 41.4955ZM149.25 36.8734L147.725 32.4734L145.363 33.2921L146.888 37.6921L149.25 36.8734ZM145.712 31.9496L141.112 36.0496L142.775 37.9159L147.375 33.8159L145.712 31.9496ZM142.942 36.2302L139.417 31.5552L137.421 33.0603L140.946 37.7353L142.942 36.2302ZM137.288 31.7754L133.063 40.7504L135.325 41.8152L139.55 32.8402L137.288 31.7754ZM134.425 40.0544L127.4 38.7294L126.937 41.1861L133.962 42.5111L134.425 40.0544ZM155.85 23.3828V22.1328H154.6V23.3828H155.85ZM163.925 23.3828L165.174 23.4199L165.213 22.1328H163.925V23.3828ZM163.55 36.0078L162.3 35.9707L162.225 38.5018L164.28 37.0222L163.55 36.0078ZM166.675 33.7578L167.405 34.7722L167.992 34.3497L167.918 33.6303L166.675 33.7578ZM165.75 24.7328V23.4828H164.365L164.506 24.8602L165.75 24.7328ZM173.425 24.7328H174.675V23.4828H173.425V24.7328ZM173.425 36.8828L174.36 37.7118L174.675 37.3569V36.8828H173.425ZM168.95 41.9328V43.1828H169.512L169.885 42.7618L168.95 41.9328ZM159.525 41.9328L158.557 42.7235L158.932 43.1828H159.525V41.9328ZM155.85 37.4328H154.6V37.8784L154.882 38.2235L155.85 37.4328ZM155.85 24.6328H163.925V22.1328H155.85V24.6328ZM162.675 23.3457L162.3 35.9707L164.799 36.0449L165.174 23.4199L162.675 23.3457ZM164.28 37.0222L167.405 34.7722L165.944 32.7434L162.819 34.9934L164.28 37.0222ZM167.918 33.6303L166.993 24.6053L164.506 24.8602L165.431 33.8852L167.918 33.6303ZM165.75 25.9828H173.425V23.4828H165.75V25.9828ZM172.175 24.7328V36.8828H174.675V24.7328H172.175ZM172.489 36.0538L168.014 41.1038L169.885 42.7618L174.36 37.7118L172.489 36.0538ZM168.95 40.6828H159.525V43.1828H168.95V40.6828ZM160.493 41.1421L156.818 36.6421L154.882 38.2235L158.557 42.7235L160.493 41.1421ZM157.1 37.4328V23.3828H154.6V37.4328H157.1ZM174.288 23.3078L174.31 22.058L173.038 22.0356V23.3078H174.288ZM192.763 23.6328H194.013V22.4046L192.785 22.383L192.763 23.6328ZM192.763 31.1328L192.56 32.3663L194.013 32.6045V31.1328H192.763ZM186.513 30.1078L186.715 28.8743L185.028 28.5976L185.276 30.289L186.513 30.1078ZM188.238 41.8828V43.1328H189.684L189.475 41.7016L188.238 41.8828ZM179.288 41.8828L178.046 41.7404L177.886 43.1328H179.288V41.8828ZM180.638 30.1078L181.88 30.2502L182.031 28.9275L180.702 28.8594L180.638 30.1078ZM174.288 29.7828H173.038V30.9704L174.224 31.0312L174.288 29.7828ZM174.266 24.5576L192.741 24.8826L192.785 22.383L174.31 22.058L174.266 24.5576ZM191.513 23.6328V31.1328H194.013V23.6328H191.513ZM192.965 29.8993L186.715 28.8743L186.31 31.3413L192.56 32.3663L192.965 29.8993ZM185.276 30.289L187.001 42.064L189.475 41.7016L187.75 29.9266L185.276 30.289ZM188.238 40.6328H179.288V43.1328H188.238V40.6328ZM180.53 42.0252L181.88 30.2502L179.396 29.9654L178.046 41.7404L180.53 42.0252ZM180.702 28.8594L174.352 28.5344L174.224 31.0312L180.574 31.3562L180.702 28.8594ZM175.538 29.7828V23.3078H173.038V29.7828H175.538ZM205.288 23.3328L206.424 22.8117L206.052 22.0002L205.164 22.089L205.288 23.3328ZM213.188 40.5578L213.384 41.7923L215.011 41.5338L214.324 40.0367L213.188 40.5578ZM205.638 41.7578L204.399 41.9257L204.571 43.193L205.834 42.9923L205.638 41.7578ZM205.038 37.3328L206.277 37.1648L206.134 36.1095L205.069 36.0832L205.038 37.3328ZM198.963 37.1828L198.994 35.9332L198.032 35.9094L197.763 36.8335L198.963 37.1828ZM197.588 41.9078L197.368 43.1383L198.474 43.336L198.788 42.2571L197.588 41.9078ZM190.313 40.6078L189.239 39.9689L188.316 41.5207L190.093 41.8383L190.313 40.6078ZM200.288 23.8328L200.164 22.589L199.536 22.6518L199.214 23.1939L200.288 23.8328ZM201.563 29.8828L201.612 28.6337L200.732 28.5994L200.403 29.4166L201.563 29.8828ZM200.538 32.4328L199.378 31.9666L198.708 33.6354L200.505 33.6824L200.538 32.4328ZM204.363 32.5328L204.33 33.7824L206.124 33.8292L205.547 32.1306L204.363 32.5328ZM203.488 29.9578L204.672 29.5556L204.395 28.7422L203.537 28.7087L203.488 29.9578ZM204.152 23.8539L212.052 41.0789L214.324 40.0367L206.424 22.8117L204.152 23.8539ZM212.992 39.3233L205.442 40.5233L205.834 42.9923L213.384 41.7923L212.992 39.3233ZM206.877 41.5898L206.277 37.1648L203.799 37.5007L204.399 41.9257L206.877 41.5898ZM205.069 36.0832L198.994 35.9332L198.932 38.4324L205.007 38.5824L205.069 36.0832ZM197.763 36.8335L196.388 41.5585L198.788 42.2571L200.163 37.5321L197.763 36.8335ZM197.808 40.6773L190.533 39.3773L190.093 41.8383L197.368 43.1383L197.808 40.6773ZM191.388 41.2467L201.363 24.4717L199.214 23.1939L189.239 39.9689L191.388 41.2467ZM200.412 25.0766L205.412 24.5766L205.164 22.089L200.164 22.589L200.412 25.0766ZM200.403 29.4166L199.378 31.9666L201.698 32.899L202.723 30.349L200.403 29.4166ZM200.505 33.6824L204.33 33.7824L204.396 31.2832L200.571 31.1832L200.505 33.6824ZM205.547 32.1306L204.672 29.5556L202.305 30.36L203.18 32.935L205.547 32.1306ZM203.537 28.7087L201.612 28.6337L201.514 31.1318L203.439 31.2068L203.537 28.7087ZM215.482 23.1828L215.629 21.9414L215.363 21.91L215.108 21.9902L215.482 23.1828ZM224.157 24.2078L225.217 23.5453L224.899 23.0368L224.304 22.9664L224.157 24.2078ZM226.157 27.4078L227.406 27.4625L227.423 27.0746L227.217 26.7453L226.157 27.4078ZM226.007 30.8328L227.047 31.5262L227.24 31.2359L227.256 30.8875L226.007 30.8328ZM224.707 32.7828L223.667 32.0894L222.926 33.2004L224.083 33.8663L224.707 32.7828ZM226.532 33.8328L227.714 33.4276L227.562 32.9834L227.155 32.7493L226.532 33.8328ZM227.757 37.4078L228.909 37.8929L229.094 37.4535L228.939 37.0026L227.757 37.4078ZM226.357 40.7328L226.773 41.9113L227.294 41.7272L227.509 41.2179L226.357 40.7328ZM223.457 41.7578L223.465 43.0078L223.675 43.0063L223.873 42.9363L223.457 41.7578ZM212.557 41.8328L211.307 41.8683L211.342 43.0912L212.565 43.0828L212.557 41.8328ZM212.057 24.2578L211.683 23.0652L210.78 23.3483L210.807 24.2933L212.057 24.2578ZM218.457 38.0578H217.207V39.6061L218.72 39.2797L218.457 38.0578ZM221.007 37.5078L221.27 38.7297L222.257 38.5169V37.5078H221.007ZM221.007 35.8078H222.257V34.9152L221.413 34.6255L221.007 35.8078ZM218.457 34.9328L218.863 33.7505L217.207 33.1823V34.9328H218.457ZM218.132 30.3078H216.882V31.8444L218.386 31.5316L218.132 30.3078ZM220.657 29.7828L220.911 31.0066L221.907 30.7996V29.7828H220.657ZM220.657 27.7328H221.907V26.7258L220.923 26.5114L220.657 27.7328ZM218.132 27.1828L218.398 25.9614L216.882 25.6312V27.1828H218.132ZM215.335 24.4242L224.01 25.4492L224.304 22.9664L215.629 21.9414L215.335 24.4242ZM223.097 24.8703L225.097 28.0703L227.217 26.7453L225.217 23.5453L223.097 24.8703ZM224.908 27.3531L224.758 30.7781L227.256 30.8875L227.406 27.4625L224.908 27.3531ZM224.967 30.1394L223.667 32.0894L225.747 33.4762L227.047 31.5262L224.967 30.1394ZM224.083 33.8663L225.908 34.9163L227.155 32.7493L225.33 31.6993L224.083 33.8663ZM225.349 34.238L226.574 37.813L228.939 37.0026L227.714 33.4276L225.349 34.238ZM226.605 36.9227L225.205 40.2477L227.509 41.2179L228.909 37.8929L226.605 36.9227ZM225.94 39.5542L223.04 40.5792L223.873 42.9363L226.773 41.9113L225.94 39.5542ZM223.448 40.5078L212.548 40.5828L212.565 43.0828L223.465 43.0078L223.448 40.5078ZM213.806 41.7972L213.306 24.2222L210.807 24.2933L211.307 41.8683L213.806 41.7972ZM212.431 25.4504L215.856 24.3754L215.108 21.9902L211.683 23.0652L212.431 25.4504ZM218.72 39.2797L221.27 38.7297L220.743 36.2859L218.193 36.8359L218.72 39.2797ZM222.257 37.5078V35.8078H219.757V37.5078H222.257ZM221.413 34.6255L218.863 33.7505L218.051 36.1151L220.601 36.9901L221.413 34.6255ZM217.207 34.9328V38.0578H219.707V34.9328H217.207ZM218.386 31.5316L220.911 31.0066L220.402 28.559L217.877 29.084L218.386 31.5316ZM221.907 29.7828V27.7328H219.407V29.7828H221.907ZM220.923 26.5114L218.398 25.9614L217.866 28.4041L220.391 28.9541L220.923 26.5114ZM216.882 27.1828V30.3078H219.382V27.1828H216.882ZM234.119 23.9328L235.366 24.0135L235.443 22.827L234.262 22.691L234.119 23.9328ZM233.394 35.1328L232.146 35.052L232.049 36.5539L233.543 36.3738L233.394 35.1328ZM241.069 34.2078L242.309 34.0574L242.159 32.8173L240.919 32.9668L241.069 34.2078ZM241.769 39.9828L241.916 41.2241L243.16 41.0764L243.009 39.8324L241.769 39.9828ZM227.869 41.6328L226.619 41.6801L226.671 43.0338L228.016 42.8741L227.869 41.6328ZM227.169 23.1328L227.312 21.891L225.864 21.7244L225.919 23.1801L227.169 23.1328ZM232.871 23.852L232.146 35.052L234.641 35.2135L235.366 24.0135L232.871 23.852ZM233.543 36.3738L241.218 35.4488L240.919 32.9668L233.244 33.8918L233.543 36.3738ZM239.828 34.3582L240.528 40.1332L243.009 39.8324L242.309 34.0574L239.828 34.3582ZM241.621 38.7415L227.721 40.3915L228.016 42.8741L241.916 41.2241L241.621 38.7415ZM229.118 41.5855L228.418 23.0855L225.919 23.1801L226.619 41.6801L229.118 41.5855ZM227.026 24.3746L233.976 25.1746L234.262 22.691L227.312 21.891L227.026 24.3746ZM244.388 23.2328V21.9828H243.368L243.163 22.9823L244.388 23.2328ZM256.638 23.2328L257.864 23.4757L258.16 21.9828H256.638V23.2328ZM255.613 28.4078L255.802 29.6433L256.669 29.5103L256.839 28.6507L255.613 28.4078ZM249.588 29.3328L249.398 28.0973L248.399 28.2506L248.34 29.2594L249.588 29.3328ZM249.513 30.6078L248.265 30.5344L248.193 31.7621L249.419 31.8543L249.513 30.6078ZM254.838 31.0078L256.085 31.0862L256.163 29.8538L254.931 29.7613L254.838 31.0078ZM254.588 34.9828L254.699 36.2278L255.768 36.1322L255.835 35.0612L254.588 34.9828ZM249.838 35.4078L249.726 34.1628L248.179 34.3012L248.645 35.7831L249.838 35.4078ZM250.263 36.7578L249.07 37.1331L249.343 37.9999L250.252 38.0077L250.263 36.7578ZM256.038 36.8078L257.187 36.3168L256.866 35.5649L256.049 35.5578L256.038 36.8078ZM258.163 41.7828V43.0328H260.056L259.312 41.2918L258.163 41.7828ZM244.388 41.7828L243.146 41.9231L243.271 43.0328H244.388V41.7828ZM243.038 29.8328L241.813 29.5823L241.773 29.7763L241.796 29.9731L243.038 29.8328ZM244.388 24.4828H256.638V21.9828H244.388V24.4828ZM255.412 22.9899L254.387 28.1649L256.839 28.6507L257.864 23.4757L255.412 22.9899ZM255.423 27.1723L249.398 28.0973L249.777 30.5683L255.802 29.6433L255.423 27.1723ZM248.34 29.2594L248.265 30.5344L250.761 30.6812L250.836 29.4062L248.34 29.2594ZM249.419 31.8543L254.744 32.2543L254.931 29.7613L249.606 29.3613L249.419 31.8543ZM253.59 30.9293L253.34 34.9043L255.835 35.0612L256.085 31.0862L253.59 30.9293ZM254.476 33.7378L249.726 34.1628L249.949 36.6528L254.699 36.2278L254.476 33.7378ZM248.645 35.7831L249.07 37.1331L251.455 36.3824L251.03 35.0324L248.645 35.7831ZM250.252 38.0077L256.027 38.0577L256.049 35.5578L250.274 35.5078L250.252 38.0077ZM254.888 37.2988L257.013 42.2738L259.312 41.2918L257.187 36.3168L254.888 37.2988ZM258.163 40.5328H244.388V43.0328H258.163V40.5328ZM245.63 41.6425L244.28 29.6925L241.796 29.9731L243.146 41.9231L245.63 41.6425ZM244.262 30.0833L245.612 23.4833L243.163 22.9823L241.813 29.5823L244.262 30.0833Z" fill="#353535" mask="url(#path-3-outside-1_303_4164)"/>
</g>
<path d="M25.7501 72.8728L38.6826 73.1003V78.3503L34.3076 77.6328L35.5151 85.8753H29.2501L30.1951 77.6328L25.7501 77.4053V72.8728ZM39.5929 73.6428L44.0029 72.8028L44.2129 78.1403L46.7854 77.7553L46.9429 73.0478L50.5479 73.2053L51.2479 85.7703L47.1879 85.6303L47.1529 81.6928L44.7029 82.1653L44.7904 85.7703H40.9929L39.5929 73.6428ZM51.6946 72.9253L55.0896 72.7153L57.7146 85.1053L52.1496 85.7178L51.6946 72.9253ZM70.6862 76.1278L68.4287 78.9103L65.7862 77.2128L65.1212 78.0528L69.8462 81.5178L67.5537 85.8403H61.9362L58.0162 82.7253L59.7137 79.8728L63.0912 81.7803L63.5987 80.9928L58.6462 78.0528L63.3362 72.8028H67.5537L70.6862 76.1278ZM79.5852 72.9253L82.9802 72.7153L85.6052 85.1053L80.0402 85.7178L79.5852 72.9253ZM98.5768 76.1278L96.3193 78.9103L93.6768 77.2128L93.0118 78.0528L97.7368 81.5178L95.4443 85.8403H89.8268L85.9068 82.7253L87.6043 79.8728L90.9818 81.7803L91.4893 80.9928L86.5368 78.0528L91.2268 72.8028H95.4443L98.5768 76.1278ZM107.388 72.8728L120.321 73.1003V78.3503L115.946 77.6328L117.153 85.8753H110.888L111.833 77.6328L107.388 77.4053V72.8728ZM121.231 73.6428L125.641 72.8028L125.851 78.1403L128.424 77.7553L128.581 73.0478L132.186 73.2053L132.886 85.7703L128.826 85.6303L128.791 81.6928L126.341 82.1653L126.429 85.7703H122.631L121.231 73.6428ZM134.19 72.8203H142.765L142.048 76.4428L137.83 77.0903L137.778 77.9828L141.505 78.2628L141.33 81.0453L138.005 81.3428L138.303 82.2878L142.345 82.3228L143.833 85.8053H134.19L133.245 77.4403L134.19 72.8203ZM152.972 72.8203H161.547L160.829 76.4428L156.612 77.0903L156.559 77.9828L160.287 78.2628L160.112 81.0453L156.787 81.3428L157.084 82.2878L161.127 82.3228L162.614 85.8053H152.972L152.027 77.4403L152.972 72.8203ZM165.559 72.9253L168.306 75.7253L170.336 72.7328L173.661 75.9178L171.246 78.7703L175.236 81.9028L171.911 85.7353L169.041 81.9903L165.401 85.6478L162.059 82.3403L165.926 78.8578L162.986 75.5678L165.559 72.9253ZM183.229 72.8903L188.759 84.9478L183.474 85.7878L183.054 82.6903L178.802 82.5853L177.839 85.8928L172.747 84.9828L179.729 73.2403L183.229 72.8903ZM180.622 77.4753L179.904 79.2603L182.582 79.3303L181.969 77.5278L180.622 77.4753ZM187.95 84.5278L194.197 72.9603H197.89L199.115 76.4603L201.285 72.9428L204.557 72.8728L208.145 85.4553L203.472 85.8403L202.58 82.6553L201.512 79.5753L198.292 82.4453L195.825 79.1728L192.867 85.4553L187.95 84.5278ZM215.919 72.9078L218.999 75.0253L219.244 80.2053L216.129 83.2153L212.262 83.4603V85.9278H208.184L208.832 72.9078H215.919ZM212.979 76.8978L212.857 79.0153L214.012 79.1728L215.482 77.4403L212.979 76.8978ZM224.175 73.3103L223.667 81.1503L229.04 80.5028L229.53 84.5453L219.8 85.7003L219.31 72.7503L224.175 73.3103ZM231.363 72.8203H239.938L239.221 76.4428L235.003 77.0903L234.951 77.9828L238.678 78.2628L238.503 81.0453L235.178 81.3428L235.476 82.2878L239.518 82.3228L241.006 85.8053H231.363L230.418 77.4403L231.363 72.8203ZM38.4376 97.1278L36.1801 99.9103L33.5376 98.2128L32.8726 99.0528L37.5976 102.518L35.3051 106.84H29.6876L25.7676 103.725L27.4651 100.873L30.8426 102.78L31.3501 101.993L26.3976 99.0528L31.0876 93.8028H35.3051L38.4376 97.1278ZM39.4441 93.8203H48.0191L47.3016 97.4428L43.0841 98.0903L43.0316 98.9828L46.7591 99.2628L46.5841 102.045L43.2591 102.343L43.5566 103.288L47.5991 103.323L49.0866 106.805H39.4441L38.4991 98.4403L39.4441 93.8203ZM48.5309 106.63L50.8584 93.8728H53.5009L55.9684 97.9328L56.1784 93.8728L60.2384 94.5028L59.3809 106.788L56.0209 106.578L53.4309 102.623L52.6784 106.805L48.5309 106.63ZM60.545 93.8728L73.4775 94.1003V99.3503L69.1025 98.6328L70.31 106.875H64.045L64.99 98.6328L60.545 98.4053V93.8728ZM75.3328 93.8203H83.9078L83.1903 97.4428L78.9728 98.0903L78.9203 98.9828L82.6478 99.2628L82.4728 102.045L79.1478 102.343L79.4453 103.288L83.4878 103.323L84.9753 106.805H75.3328L74.3878 98.4403L75.3328 93.8203ZM84.4196 106.63L86.7471 93.8728H89.3896L91.8571 97.9328L92.0671 93.8728L96.1271 94.5028L95.2696 106.788L91.9096 106.578L89.3196 102.623L88.5671 106.805L84.4196 106.63ZM101.456 93.8378L106.286 94.1528L106.094 98.7903L102.944 97.3203L100.196 98.5978L100.074 101.573L102.489 103.218L106.041 101.363L107.231 106.245L100.249 106.858L96.8362 103.865L95.8212 100.103L97.3962 96.0603L101.456 93.8378ZM108.145 93.8203H116.72L116.003 97.4428L111.785 98.0903L111.733 98.9828L115.46 99.2628L115.285 102.045L111.96 102.343L112.258 103.288L116.3 103.323L117.788 106.805H108.145L107.2 98.4403L108.145 93.8203ZM132.422 93.8378L136.097 96.8478L136.85 103.865L133.227 106.823H125.982V94.6253L132.422 93.8378ZM129.99 98.5103V102.325L132.352 101.503V99.5953L129.99 98.5103ZM138.035 93.8203H146.61L145.893 97.4428L141.675 98.0903L141.623 98.9828L145.35 99.2628L145.175 102.045L141.85 102.343L142.148 103.288L146.19 103.323L147.678 106.805H138.035L137.09 98.4403L138.035 93.8203ZM159.81 97.1278L157.552 99.9103L154.91 98.2128L154.245 99.0528L158.97 102.518L156.677 106.84H151.06L147.14 103.725L148.837 100.873L152.215 102.78L152.722 101.993L147.77 99.0528L152.46 93.8028H156.677L159.81 97.1278ZM164.894 93.8378L169.724 94.1528L169.531 98.7903L166.381 97.3203L163.634 98.5978L163.511 101.573L165.926 103.218L169.479 101.363L170.669 106.245L163.686 106.858L160.274 103.865L159.259 100.103L160.834 96.0603L164.894 93.8378ZM177.9 93.9253L181.138 96.2878L181.435 100.365L179.615 102.395L182.853 105.248L179.055 106.893L175.083 103.498L175.678 106.875H171.653L170.638 94.4853L177.9 93.9253ZM175.083 97.5478L174.978 100.033L176.045 100.173L177.113 98.6328L175.083 97.5478ZM182.569 93.9253L185.964 93.7153L188.589 106.105L183.024 106.718L182.569 93.9253ZM191.288 93.7853L197.36 94.5028L198.76 96.7428L198.655 99.1403L197.745 100.505L199.023 101.24L199.88 103.743L198.9 106.07L196.87 106.788L189.24 106.84L188.89 94.5378L191.288 93.7853ZM193.37 104.198L195.155 103.813V102.623L193.37 102.01V104.198ZM193.143 98.7728L194.91 98.4053V96.9703L193.143 96.5853V98.7728ZM199.556 93.9253L202.951 93.7153L205.576 106.105L200.011 106.718L199.556 93.9253ZM205.86 106.63L208.187 93.8728H210.83L213.297 97.9328L213.507 93.8728L217.567 94.5028L216.71 106.788L213.35 106.578L210.76 102.623L210.007 106.805L205.86 106.63ZM228.847 96.5153L225.854 98.1953L224.647 97.5303L222.862 98.0728L221.794 100.61L222.914 102.973L226.134 102.588L226.204 102.01L223.719 102.238L224.034 98.7203L229.214 98.7903V105.703L220.517 106.823L217.874 101.45L218.837 96.5153L222.547 93.8203L227.097 94.1353L228.847 96.5153ZM238.297 93.8728L251.229 94.1003V99.3503L246.854 98.6328L248.062 106.875H241.797L242.742 98.6328L238.297 98.4053V93.8728ZM252.139 94.6428L256.549 93.8028L256.759 99.1403L259.332 98.7553L259.489 94.0478L263.094 94.2053L263.794 106.77L259.734 106.63L259.699 102.693L257.249 103.165L257.337 106.77H253.539L252.139 94.6428ZM265.098 93.8203H273.673L272.956 97.4428L268.738 98.0903L268.686 98.9828L272.413 99.2628L272.238 102.045L268.913 102.343L269.211 103.288L273.253 103.323L274.741 106.805H265.098L264.153 98.4403L265.098 93.8203ZM30.6151 115.31L30.1076 123.15L35.4801 122.503L35.9701 126.545L26.2401 127.7L25.7501 114.75L30.6151 115.31ZM45.9935 115.03L49.8085 119.773L48.7235 126.02L41.811 127.823L36.2985 122.958L37.121 117.48L41.2335 114.873L45.9935 115.03ZM42.266 119.44L41.3735 121.435L42.9135 122.468L44.541 121.873L44.4535 119.93L42.266 119.44ZM55.1598 114.838L59.9898 115.153L59.7973 119.79L56.6473 118.32L53.8998 119.598L53.7773 122.573L56.1923 124.218L59.7448 122.363L60.9348 127.245L53.9523 127.858L50.5398 124.865L49.5248 121.103L51.0998 117.06L55.1598 114.838ZM68.7614 114.89L74.2914 126.948L69.0064 127.788L68.5864 124.69L64.3339 124.585L63.3714 127.893L58.2789 126.983L65.2614 115.24L68.7614 114.89ZM66.1539 119.475L65.4364 121.26L68.1139 121.33L67.5014 119.528L66.1539 119.475ZM73.4821 114.873L86.4146 115.1V120.35L82.0396 119.633L83.2471 127.875H76.9821L77.9271 119.633L73.4821 119.405V114.873ZM87.4123 114.925L90.8073 114.715L93.4323 127.105L87.8673 127.718L87.4123 114.925ZM102.851 115.03L106.666 119.773L105.581 126.02L98.6689 127.823L93.1564 122.958L93.9789 117.48L98.0914 114.873L102.851 115.03ZM99.1239 119.44L98.2314 121.435L99.7714 122.468L101.399 121.873L101.311 119.93L99.1239 119.44ZM106.995 127.63L109.323 114.873H111.965L114.433 118.933L114.643 114.873L118.703 115.503L117.845 127.788L114.485 127.578L111.895 123.623L111.143 127.805L106.995 127.63ZM120.882 124.83H122.264L123.087 126.265L122.509 127.333L120.882 127.7L120.129 126.423L120.882 124.83Z" fill="#77684D"/>
<g clip-path="url(#clip0_303_4164)">
<path d="M272.461 152.5L319.637 149.231L352.919 152.5L360.508 188.628L358.314 204.45L302.282 209.664L266.844 206.742L264.827 165.657L272.461 152.5Z" fill="#353535"/>
<path d="M266.93 166.897L274.06 155.21L319.414 152.221L351.172 155.188L358.405 187.933L356.366 201.915L302.597 206.673L268.846 204.028L266.93 166.897Z" fill="#ED4650" stroke="white" stroke-width="1.25"/>
</g>
<g filter="url(#filter2_d_303_4164)">
<mask id="path-8-outside-2_303_4164" maskUnits="userSpaceOnUse" x="279.75" y="165.108" width="62" height="23" fill="black">
<rect fill="white" x="279.75" y="165.108" width="62" height="23"/>
<path d="M281.078 167.633L285.928 167.333L289.678 185.033L281.728 185.908L281.078 167.633ZM290.084 185.783L293.409 167.558H297.184L300.709 173.358L301.009 167.558L306.809 168.458L305.584 186.008L300.784 185.708L297.084 180.058L296.009 186.033L290.084 185.783ZM308.472 167.458L321.072 167.558L320.372 173.583L313.497 172.808L313.397 174.808L319.222 174.508L318.272 180.008L313.397 179.383L314.447 186.033H307.797L307.272 172.533L308.472 167.458ZM334.628 167.783L340.078 174.558L338.528 183.483L328.653 186.058L320.778 179.108L321.953 171.283L327.828 167.558L334.628 167.783ZM329.303 174.083L328.028 176.933L330.228 178.408L332.553 177.558L332.428 174.783L329.303 174.083Z"/>
</mask>
<path d="M281.078 167.633L285.928 167.333L289.678 185.033L281.728 185.908L281.078 167.633ZM290.084 185.783L293.409 167.558H297.184L300.709 173.358L301.009 167.558L306.809 168.458L305.584 186.008L300.784 185.708L297.084 180.058L296.009 186.033L290.084 185.783ZM308.472 167.458L321.072 167.558L320.372 173.583L313.497 172.808L313.397 174.808L319.222 174.508L318.272 180.008L313.397 179.383L314.447 186.033H307.797L307.272 172.533L308.472 167.458ZM334.628 167.783L340.078 174.558L338.528 183.483L328.653 186.058L320.778 179.108L321.953 171.283L327.828 167.558L334.628 167.783ZM329.303 174.083L328.028 176.933L330.228 178.408L332.553 177.558L332.428 174.783L329.303 174.083Z" fill="white"/>
<path d="M281.078 167.633L281.001 166.385L279.785 166.46L279.829 167.677L281.078 167.633ZM285.928 167.333L287.151 167.074L286.927 166.019L285.851 166.085L285.928 167.333ZM289.678 185.033L289.815 186.275L291.187 186.124L290.901 184.774L289.678 185.033ZM281.728 185.908L280.479 185.952L280.526 187.298L281.865 187.15L281.728 185.908ZM281.155 168.88L286.005 168.58L285.851 166.085L281.001 166.385L281.155 168.88ZM284.705 167.592L288.455 185.292L290.901 184.774L287.151 167.074L284.705 167.592ZM289.541 183.79L281.591 184.665L281.865 187.15L289.815 186.275L289.541 183.79ZM282.977 185.863L282.327 167.588L279.829 167.677L280.479 185.952L282.977 185.863ZM290.084 185.783L288.854 185.558L288.596 186.971L290.031 187.032L290.084 185.783ZM293.409 167.558V166.308H292.366L292.179 167.333L293.409 167.558ZM297.184 167.558L298.252 166.909L297.887 166.308H297.184V167.558ZM300.709 173.358L299.64 174.007L301.747 177.474L301.957 173.422L300.709 173.358ZM301.009 167.558L301.2 166.323L299.832 166.11L299.76 167.493L301.009 167.558ZM306.809 168.458L308.056 168.545L308.136 167.399L307 167.223L306.809 168.458ZM305.584 186.008L305.506 187.255L306.744 187.333L306.831 186.095L305.584 186.008ZM300.784 185.708L299.738 186.393L300.081 186.916L300.706 186.955L300.784 185.708ZM297.084 180.058L298.129 179.373L296.409 176.746L295.853 179.836L297.084 180.058ZM296.009 186.033L295.956 187.282L297.046 187.328L297.239 186.254L296.009 186.033ZM291.313 186.007L294.638 167.782L292.179 167.333L288.854 185.558L291.313 186.007ZM293.409 168.808H297.184V166.308H293.409V168.808ZM296.115 168.207L299.64 174.007L301.777 172.709L298.252 166.909L296.115 168.207ZM301.957 173.422L302.257 167.622L299.76 167.493L299.46 173.293L301.957 173.422ZM300.817 168.793L306.617 169.693L307 167.223L301.2 166.323L300.817 168.793ZM305.562 168.371L304.337 185.921L306.831 186.095L308.056 168.545L305.562 168.371ZM305.662 184.76L300.862 184.46L300.706 186.955L305.506 187.255L305.662 184.76ZM301.829 185.023L298.129 179.373L296.038 180.743L299.738 186.393L301.829 185.023ZM295.853 179.836L294.778 185.811L297.239 186.254L298.314 180.279L295.853 179.836ZM296.061 184.784L290.136 184.534L290.031 187.032L295.956 187.282L296.061 184.784ZM308.472 167.458L308.482 166.208L307.485 166.2L307.255 167.17L308.472 167.458ZM321.072 167.558L322.313 167.702L322.474 166.319L321.082 166.308L321.072 167.558ZM320.372 173.583L320.232 174.825L321.47 174.964L321.613 173.727L320.372 173.583ZM313.497 172.808L313.637 171.566L312.315 171.417L312.248 172.745L313.497 172.808ZM313.397 174.808L312.148 174.745L312.079 176.127L313.461 176.056L313.397 174.808ZM319.222 174.508L320.453 174.721L320.72 173.179L319.157 173.259L319.222 174.508ZM318.272 180.008L318.113 181.248L319.3 181.4L319.503 180.221L318.272 180.008ZM313.397 179.383L313.556 178.143L311.902 177.931L312.162 179.578L313.397 179.383ZM314.447 186.033V187.283H315.91L315.681 185.838L314.447 186.033ZM307.797 186.033L306.548 186.081L306.594 187.283H307.797V186.033ZM307.272 172.533L306.055 172.245L306.016 172.411L306.023 172.581L307.272 172.533ZM308.462 168.708L321.062 168.808L321.082 166.308L308.482 166.208L308.462 168.708ZM319.83 167.414L319.13 173.439L321.613 173.727L322.313 167.702L319.83 167.414ZM320.512 172.341L313.637 171.566L313.357 174.05L320.232 174.825L320.512 172.341ZM312.248 172.745L312.148 174.745L314.645 174.87L314.745 172.87L312.248 172.745ZM313.461 176.056L319.286 175.756L319.157 173.259L313.332 173.559L313.461 176.056ZM317.99 174.295L317.04 179.795L319.503 180.221L320.453 174.721L317.99 174.295ZM318.431 178.768L313.556 178.143L313.238 180.623L318.113 181.248L318.431 178.768ZM312.162 179.578L313.212 186.228L315.681 185.838L314.631 179.188L312.162 179.578ZM314.447 184.783H307.797V187.283H314.447V184.783ZM309.046 185.984L308.521 172.484L306.023 172.581L306.548 186.081L309.046 185.984ZM308.488 172.82L309.688 167.745L307.255 167.17L306.055 172.245L308.488 172.82ZM334.628 167.783L335.602 166.999L335.242 166.552L334.669 166.533L334.628 167.783ZM340.078 174.558L341.309 174.772L341.406 174.215L341.052 173.774L340.078 174.558ZM338.528 183.483L338.843 184.692L339.622 184.489L339.759 183.697L338.528 183.483ZM328.653 186.058L327.826 186.995L328.324 187.435L328.968 187.267L328.653 186.058ZM320.778 179.108L319.542 178.922L319.441 179.595L319.951 180.045L320.778 179.108ZM321.953 171.283L321.283 170.227L320.801 170.533L320.717 171.097L321.953 171.283ZM327.828 167.558L327.869 166.308L327.484 166.296L327.158 166.502L327.828 167.558ZM329.303 174.083L329.576 172.863L328.579 172.64L328.162 173.572L329.303 174.083ZM328.028 176.933L326.887 176.422L326.456 177.384L327.332 177.971L328.028 176.933ZM330.228 178.408L329.532 179.446L330.06 179.8L330.657 179.582L330.228 178.408ZM332.553 177.558L332.982 178.732L333.843 178.417L333.801 177.502L332.553 177.558ZM332.428 174.783L333.676 174.727L333.633 173.772L332.701 173.563L332.428 174.783ZM333.654 168.566L339.104 175.341L341.052 173.774L335.602 166.999L333.654 168.566ZM338.846 174.344L337.296 183.269L339.759 183.697L341.309 174.772L338.846 174.344ZM338.212 182.273L328.337 184.848L328.968 187.267L338.843 184.692L338.212 182.273ZM329.48 185.121L321.605 178.171L319.951 180.045L327.826 186.995L329.48 185.121ZM322.014 179.293L323.189 171.468L320.717 171.097L319.542 178.922L322.014 179.293ZM322.622 172.338L328.497 168.613L327.158 166.502L321.283 170.227L322.622 172.338ZM327.786 168.807L334.586 169.032L334.669 166.533L327.869 166.308L327.786 168.807ZM328.162 173.572L326.887 176.422L329.169 177.443L330.444 174.593L328.162 173.572ZM327.332 177.971L329.532 179.446L330.924 177.37L328.724 175.895L327.332 177.971ZM330.657 179.582L332.982 178.732L332.124 176.384L329.799 177.234L330.657 179.582ZM333.801 177.502L333.676 174.727L331.179 174.839L331.304 177.614L333.801 177.502ZM332.701 173.563L329.576 172.863L329.03 175.303L332.155 176.003L332.701 173.563Z" fill="#353535" mask="url(#path-8-outside-2_303_4164)"/>
</g>
<defs>
<filter id="filter0_dd_303_4164" x="0.864258" y="0.79541" width="359.772" height="225.653" filterUnits="userSpaceOnUse" color-interpolation-filters="sRGB">
<feFlood flood-opacity="0" result="BackgroundImageFix"/>
<feColorMatrix in="SourceAlpha" type="matrix" values="0 0 0 0 0 0 0 0 0 0 0 0 0 0 0 0 0 0 127 0" result="hardAlpha"/>
<feOffset dx="5" dy="5"/>
<feGaussianBlur stdDeviation="5"/>
<feComposite in2="hardAlpha" operator="out"/>
<feColorMatrix type="matrix" values="0 0 0 0 0 0 0 0 0 0 0 0 0 0 0 0 0 0 0.15 0"/>
<feBlend mode="normal" in2="BackgroundImageFix" result="effect1_dropShadow_303_4164"/>
<feColorMatrix in="SourceAlpha" type="matrix" values="0 0 0 0 0 0 0 0 0 0 0 0 0 0 0 0 0 0 127 0" result="hardAlpha"/>
<feOffset dx="5" dy="5"/>
<feComposite in2="hardAlpha" operator="out"/>
<feColorMatrix type="matrix" values="0 0 0 0 0.784948 0 0 0 0 0.738688 0 0 0 0 0.64889 0 0 0 1 0"/>
<feBlend mode="normal" in2="effect1_dropShadow_303_4164" result="effect2_dropShadow_303_4164"/>
<feBlend mode="normal" in="SourceGraphic" in2="effect2_dropShadow_303_4164" result="shape"/>
</filter>
<filter id="filter1_d_303_4164" x="89.2565" y="23.0828" width="170.156" height="21.35" filterUnits="userSpaceOnUse" color-interpolation-filters="sRGB">
<feFlood flood-opacity="0" result="BackgroundImageFix"/>
<feColorMatrix in="SourceAlpha" type="matrix" values="0 0 0 0 0 0 0 0 0 0 0 0 0 0 0 0 0 0 127 0" result="hardAlpha"/>
<feOffset dx="1.25" dy="2.5"/>
<feComposite in2="hardAlpha" operator="out"/>
<feColorMatrix type="matrix" values="0 0 0 0 0.208281 0 0 0 0 0.208281 0 0 0 0 0.208281 0 0 0 1 0"/>
<feBlend mode="normal" in2="BackgroundImageFix" result="effect1_dropShadow_303_4164"/>
<feBlend mode="normal" in="SourceGraphic" in2="effect1_dropShadow_303_4164" result="shape"/>
</filter>
<filter id="filter2_d_303_4164" x="281.078" y="167.333" width="60.25" height="21.225" filterUnits="userSpaceOnUse" color-interpolation-filters="sRGB">
<feFlood flood-opacity="0" result="BackgroundImageFix"/>
<feColorMatrix in="SourceAlpha" type="matrix" values="0 0 0 0 0 0 0 0 0 0 0 0 0 0 0 0 0 0 127 0" result="hardAlpha"/>
<feOffset dx="1.25" dy="2.5"/>
<feComposite in2="hardAlpha" operator="out"/>
<feColorMatrix type="matrix" values="0 0 0 0 0.208281 0 0 0 0 0.208281 0 0 0 0 0.208281 0 0 0 1 0"/>
<feBlend mode="normal" in2="BackgroundImageFix" result="effect1_dropShadow_303_4164"/>
<feBlend mode="normal" in="SourceGraphic" in2="effect1_dropShadow_303_4164" result="shape"/>
</filter>
<clipPath id="clip0_303_4164">
<rect width="95.6808" height="60.4328" fill="white" transform="translate(264.827 149.231)"/>
</clipPath>
</defs>
</svg>
