<svg width="361" height="226" viewBox="0 0 361 226" fill="none" xmlns="http://www.w3.org/2000/svg">
<g filter="url(#filter0_dd_270_1986)">
<path d="M19.0166 5.25049H329.946L345.136 144.746L326.412 191.845L175.725 186.323L168.689 210.903L158.123 185.677L24.4116 194.277L5.36426 180.079L5.36426 42.9872L19.0166 5.25049Z" fill="#FFFAE7"/>
<path d="M175.124 186.151L168.578 209.02L158.699 185.436L158.527 185.025L158.083 185.054L24.6008 193.639L5.98926 179.765V43.0968L19.4552 5.87549H329.385L344.498 144.659L325.995 191.205L175.748 185.698L175.259 185.68L175.124 186.151Z" stroke="#C8BCA5" stroke-width="1.25"/>
</g>
<g filter="url(#filter1_d_270_1986)">
<mask id="path-3-outside-1_270_1986" maskUnits="userSpaceOnUse" x="135.25" y="21.3129" width="77" height="22" fill="black">
<rect fill="white" x="135.25" y="21.3129" width="77" height="22"/>
<path d="M137.016 22.7879H142.241L142.116 27.8379L146.041 23.3629L149.616 27.1629L145.091 32.0879L151.791 36.8629L147.666 41.3129L142.066 35.2379L143.091 41.3629H136.666L137.016 22.7879ZM163.028 22.7879L170.928 40.0129L163.378 41.2129L162.778 36.7879L156.703 36.6379L155.328 41.3629L148.053 40.0629L158.028 23.2879L163.028 22.7879ZM159.303 29.3379L158.278 31.8879L162.103 31.9879L161.228 29.4129L159.303 29.3379ZM169.771 22.6879L176.246 23.0379L178.821 34.2129L179.796 32.9629L182.571 23.0379L189.746 22.6879L182.696 41.2379L173.996 40.5879L169.771 22.6879ZM202.09 22.7879L209.99 40.0129L202.44 41.2129L201.84 36.7879L195.765 36.6379L194.39 41.3629L187.115 40.0629L197.09 23.2879L202.09 22.7879ZM198.365 29.3379L197.34 31.8879L201.165 31.9879L200.29 29.4129L198.365 29.3379Z"/>
</mask>
<path d="M137.016 22.7879H142.241L142.116 27.8379L146.041 23.3629L149.616 27.1629L145.091 32.0879L151.791 36.8629L147.666 41.3129L142.066 35.2379L143.091 41.3629H136.666L137.016 22.7879ZM163.028 22.7879L170.928 40.0129L163.378 41.2129L162.778 36.7879L156.703 36.6379L155.328 41.3629L148.053 40.0629L158.028 23.2879L163.028 22.7879ZM159.303 29.3379L158.278 31.8879L162.103 31.9879L161.228 29.4129L159.303 29.3379ZM169.771 22.6879L176.246 23.0379L178.821 34.2129L179.796 32.9629L182.571 23.0379L189.746 22.6879L182.696 41.2379L173.996 40.5879L169.771 22.6879ZM202.09 22.7879L209.99 40.0129L202.44 41.2129L201.84 36.7879L195.765 36.6379L194.39 41.3629L187.115 40.0629L197.09 23.2879L202.09 22.7879ZM198.365 29.3379L197.34 31.8879L201.165 31.9879L200.29 29.4129L198.365 29.3379Z" fill="white"/>
<path d="M137.016 22.7879V21.5379H135.789L135.766 22.7643L137.016 22.7879ZM142.241 22.7879L143.491 22.8188L143.522 21.5379H142.241V22.7879ZM142.116 27.8379L140.866 27.8069L140.781 31.2556L143.056 28.6621L142.116 27.8379ZM146.041 23.3629L146.951 22.5063L146.009 21.5042L145.101 22.5386L146.041 23.3629ZM149.616 27.1629L150.536 28.0086L151.323 27.1528L150.526 26.3063L149.616 27.1629ZM145.091 32.0879L144.171 31.2422L143.213 32.2844L144.366 33.1058L145.091 32.0879ZM151.791 36.8629L152.708 37.7126L153.674 36.67L152.516 35.8449L151.791 36.8629ZM147.666 41.3129L146.747 42.1601L147.663 43.1544L148.583 42.1626L147.666 41.3129ZM142.066 35.2379L142.985 34.3906L140.14 31.3047L140.833 35.4442L142.066 35.2379ZM143.091 41.3629V42.6129H144.568L144.324 41.1566L143.091 41.3629ZM136.666 41.3629L135.416 41.3393L135.392 42.6129H136.666V41.3629ZM137.016 24.0379H142.241V21.5379H137.016V24.0379ZM140.991 22.7569L140.866 27.8069L143.366 27.8688L143.491 22.8188L140.991 22.7569ZM143.056 28.6621L146.981 24.1871L145.101 22.5386L141.176 27.0136L143.056 28.6621ZM145.131 24.2194L148.706 28.0194L150.526 26.3063L146.951 22.5063L145.131 24.2194ZM148.696 26.3172L144.171 31.2422L146.011 32.9336L150.536 28.0086L148.696 26.3172ZM144.366 33.1058L151.066 37.8808L152.516 35.8449L145.816 31.0699L144.366 33.1058ZM150.874 36.0131L146.749 40.4631L148.583 42.1626L152.708 37.7126L150.874 36.0131ZM148.585 40.4656L142.985 34.3906L141.147 36.0851L146.747 42.1601L148.585 40.4656ZM140.833 35.4442L141.858 41.5692L144.324 41.1566L143.299 35.0316L140.833 35.4442ZM143.091 40.1129H136.666V42.6129H143.091V40.1129ZM137.916 41.3864L138.266 22.8114L135.766 22.7643L135.416 41.3393L137.916 41.3864ZM163.028 22.7879L164.164 22.2668L163.792 21.4552L162.903 21.5441L163.028 22.7879ZM170.928 40.0129L171.124 41.2474L172.751 40.9888L172.064 39.4918L170.928 40.0129ZM163.378 41.2129L162.139 41.3808L162.311 42.6481L163.574 42.4474L163.378 41.2129ZM162.778 36.7879L164.016 36.6199L163.873 35.5645L162.809 35.5382L162.778 36.7879ZM156.703 36.6379L156.734 35.3882L155.771 35.3645L155.503 36.2886L156.703 36.6379ZM155.328 41.3629L155.108 42.5934L156.214 42.791L156.528 41.7121L155.328 41.3629ZM148.053 40.0629L146.978 39.424L146.056 40.9758L147.833 41.2934L148.053 40.0629ZM158.028 23.2879L157.903 22.0441L157.276 22.1068L156.953 22.649L158.028 23.2879ZM159.303 29.3379L159.351 28.0888L158.471 28.0545L158.143 28.8717L159.303 29.3379ZM158.278 31.8879L157.118 31.4217L156.447 33.0904L158.245 33.1374L158.278 31.8879ZM162.103 31.9879L162.07 33.2374L163.863 33.2843L163.286 31.5857L162.103 31.9879ZM161.228 29.4129L162.411 29.0107L162.135 28.1973L161.276 28.1638L161.228 29.4129ZM161.892 23.309L169.792 40.534L172.064 39.4918L164.164 22.2668L161.892 23.309ZM170.732 38.7784L163.182 39.9784L163.574 42.4474L171.124 41.2474L170.732 38.7784ZM164.616 41.0449L164.016 36.6199L161.539 36.9558L162.139 41.3808L164.616 41.0449ZM162.809 35.5382L156.734 35.3882L156.672 37.8875L162.747 38.0375L162.809 35.5382ZM155.503 36.2886L154.128 41.0136L156.528 41.7121L157.903 36.9871L155.503 36.2886ZM155.548 40.1324L148.273 38.8324L147.833 41.2934L155.108 42.5934L155.548 40.1324ZM149.127 40.7017L159.102 23.9267L156.953 22.649L146.978 39.424L149.127 40.7017ZM158.152 24.5317L163.152 24.0317L162.903 21.5441L157.903 22.0441L158.152 24.5317ZM158.143 28.8717L157.118 31.4217L159.438 32.3541L160.463 29.8041L158.143 28.8717ZM158.245 33.1374L162.07 33.2374L162.135 30.7383L158.31 30.6383L158.245 33.1374ZM163.286 31.5857L162.411 29.0107L160.044 29.815L160.919 32.39L163.286 31.5857ZM161.276 28.1638L159.351 28.0888L159.254 30.5869L161.179 30.6619L161.276 28.1638ZM169.771 22.6879L169.839 21.4397L168.171 21.3495L168.555 22.975L169.771 22.6879ZM176.246 23.0379L177.465 22.7572L177.253 21.8405L176.314 21.7897L176.246 23.0379ZM178.821 34.2129L177.603 34.4935L178.193 37.0513L179.807 34.9817L178.821 34.2129ZM179.796 32.9629L180.782 33.7317L180.934 33.5371L181 33.2995L179.796 32.9629ZM182.571 23.0379L182.511 21.7894L181.61 21.8333L181.368 22.7013L182.571 23.0379ZM189.746 22.6879L190.915 23.1319L191.594 21.3463L189.686 21.4393L189.746 22.6879ZM182.696 41.2379L182.603 42.4844L183.534 42.5539L183.865 41.6819L182.696 41.2379ZM173.996 40.5879L172.78 40.875L172.99 41.7662L173.903 41.8344L173.996 40.5879ZM169.704 23.936L176.179 24.286L176.314 21.7897L169.839 21.4397L169.704 23.936ZM175.028 23.3185L177.603 34.4935L180.04 33.9322L177.465 22.7572L175.028 23.3185ZM179.807 34.9817L180.782 33.7317L178.811 32.1941L177.836 33.4441L179.807 34.9817ZM181 33.2995L183.775 23.3745L181.368 22.7013L178.593 32.6263L181 33.2995ZM182.632 24.2864L189.807 23.9364L189.686 21.4393L182.511 21.7894L182.632 24.2864ZM188.578 22.2438L181.528 40.7938L183.865 41.6819L190.915 23.1319L188.578 22.2438ZM182.79 39.9913L174.09 39.3413L173.903 41.8344L182.603 42.4844L182.79 39.9913ZM175.213 40.3007L170.988 22.4007L168.555 22.975L172.78 40.875L175.213 40.3007ZM202.09 22.7879L203.226 22.2668L202.854 21.4552L201.966 21.5441L202.09 22.7879ZM209.99 40.0129L210.186 41.2474L211.813 40.9888L211.126 39.4918L209.99 40.0129ZM202.44 41.2129L201.202 41.3808L201.373 42.6481L202.636 42.4474L202.44 41.2129ZM201.84 36.7879L203.079 36.6199L202.936 35.5645L201.871 35.5382L201.84 36.7879ZM195.765 36.6379L195.796 35.3882L194.834 35.3645L194.565 36.2886L195.765 36.6379ZM194.39 41.3629L194.17 42.5934L195.276 42.791L195.59 41.7121L194.39 41.3629ZM187.115 40.0629L186.041 39.424L185.118 40.9758L186.895 41.2934L187.115 40.0629ZM197.09 23.2879L196.966 22.0441L196.338 22.1068L196.016 22.649L197.09 23.2879ZM198.365 29.3379L198.414 28.0888L197.534 28.0545L197.205 28.8717L198.365 29.3379ZM197.34 31.8879L196.18 31.4217L195.51 33.0904L197.308 33.1374L197.34 31.8879ZM201.165 31.9879L201.133 33.2374L202.926 33.2843L202.349 31.5857L201.165 31.9879ZM200.29 29.4129L201.474 29.0107L201.197 28.1973L200.339 28.1638L200.29 29.4129ZM200.954 23.309L208.854 40.534L211.126 39.4918L203.226 22.2668L200.954 23.309ZM209.794 38.7784L202.244 39.9784L202.636 42.4474L210.186 41.2474L209.794 38.7784ZM203.679 41.0449L203.079 36.6199L200.602 36.9558L201.202 41.3808L203.679 41.0449ZM201.871 35.5382L195.796 35.3882L195.734 37.8875L201.809 38.0375L201.871 35.5382ZM194.565 36.2886L193.19 41.0136L195.59 41.7121L196.965 36.9871L194.565 36.2886ZM194.61 40.1324L187.335 38.8324L186.895 41.2934L194.17 42.5934L194.61 40.1324ZM188.19 40.7017L198.165 23.9267L196.016 22.649L186.041 39.424L188.19 40.7017ZM197.215 24.5317L202.215 24.0317L201.966 21.5441L196.966 22.0441L197.215 24.5317ZM197.205 28.8717L196.18 31.4217L198.5 32.3541L199.525 29.8041L197.205 28.8717ZM197.308 33.1374L201.133 33.2374L201.198 30.7383L197.373 30.6383L197.308 33.1374ZM202.349 31.5857L201.474 29.0107L199.107 29.815L199.982 32.39L202.349 31.5857ZM200.339 28.1638L198.414 28.0888L198.317 30.5869L200.242 30.6619L200.339 28.1638Z" fill="#353535" mask="url(#path-3-outside-1_270_1986)"/>
</g>
<path d="M25.25 72.3279L38.1825 72.5554V77.8054L33.8075 77.0879L35.015 85.3304H28.75L29.695 77.0879L25.25 76.8604V72.3279ZM39.0928 73.0979L43.5028 72.2579L43.7128 77.5954L46.2853 77.2104L46.4428 72.5029L50.0478 72.6604L50.7478 85.2254L46.6878 85.0854L46.6528 81.1479L44.2028 81.6204L44.2903 85.2254H40.4928L39.0928 73.0979ZM51.1944 72.3804L54.5894 72.1704L57.2144 84.5604L51.6494 85.1729L51.1944 72.3804ZM70.186 75.5829L67.9285 78.3654L65.286 76.6679L64.621 77.5079L69.346 80.9729L67.0535 85.2954H61.436L57.516 82.1804L59.2135 79.3279L62.591 81.2354L63.0985 80.4479L58.146 77.5079L62.836 72.2579H67.0535L70.186 75.5829ZM79.0851 72.3804L82.4801 72.1704L85.1051 84.5604L79.5401 85.1729L79.0851 72.3804ZM98.0767 75.5829L95.8192 78.3654L93.1767 76.6679L92.5117 77.5079L97.2367 80.9729L94.9442 85.2954H89.3267L85.4067 82.1804L87.1042 79.3279L90.4817 81.2354L90.9892 80.4479L86.0367 77.5079L90.7267 72.2579H94.9442L98.0767 75.5829ZM106.888 72.3279L119.821 72.5554V77.8054L115.446 77.0879L116.653 85.3304H110.388L111.333 77.0879L106.888 76.8604V72.3279ZM120.731 73.0979L125.141 72.2579L125.351 77.5954L127.923 77.2104L128.081 72.5029L131.686 72.6604L132.386 85.2254L128.326 85.0854L128.291 81.1479L125.841 81.6204L125.928 85.2254H122.131L120.731 73.0979ZM133.69 72.2754H142.265L141.548 75.8979L137.33 76.5454L137.278 77.4379L141.005 77.7179L140.83 80.5004L137.505 80.7979L137.803 81.7429L141.845 81.7779L143.333 85.2604H133.69L132.745 76.8954L133.69 72.2754ZM152.472 72.2754H161.047L160.329 75.8979L156.112 76.5454L156.059 77.4379L159.787 77.7179L159.612 80.5004L156.287 80.7979L156.584 81.7429L160.627 81.7779L162.114 85.2604H152.472L151.527 76.8954L152.472 72.2754ZM165.059 72.3804L167.806 75.1804L169.836 72.1879L173.161 75.3729L170.746 78.2254L174.736 81.3579L171.411 85.1904L168.541 81.4454L164.901 85.1029L161.559 81.7954L165.426 78.3129L162.486 75.0229L165.059 72.3804ZM182.729 72.3454L188.259 84.4029L182.974 85.2429L182.554 82.1454L178.302 82.0404L177.339 85.3479L172.247 84.4379L179.229 72.6954L182.729 72.3454ZM180.122 76.9304L179.404 78.7154L182.082 78.7854L181.469 76.9829L180.122 76.9304ZM187.45 83.9829L193.697 72.4154H197.39L198.615 75.9154L200.785 72.3979L204.057 72.3279L207.645 84.9104L202.972 85.2954L202.08 82.1104L201.012 79.0304L197.792 81.9004L195.325 78.6279L192.367 84.9104L187.45 83.9829ZM215.419 72.3629L218.499 74.4804L218.744 79.6604L215.629 82.6704L211.762 82.9154V85.3829H207.684L208.332 72.3629H215.419ZM212.479 76.3529L212.357 78.4704L213.512 78.6279L214.982 76.8954L212.479 76.3529ZM223.675 72.7654L223.167 80.6054L228.54 79.9579L229.03 84.0004L219.3 85.1554L218.81 72.2054L223.675 72.7654ZM230.863 72.2754H239.438L238.72 75.8979L234.503 76.5454L234.45 77.4379L238.178 77.7179L238.003 80.5004L234.678 80.7979L234.975 81.7429L239.018 81.7779L240.505 85.2604H230.863L229.918 76.8954L230.863 72.2754ZM37.9375 96.5829L35.68 99.3654L33.0375 97.6679L32.3725 98.5079L37.0975 101.973L34.805 106.295H29.1875L25.2675 103.18L26.965 100.328L30.3425 102.235L30.85 101.448L25.8975 98.5079L30.5875 93.2579H34.805L37.9375 96.5829ZM38.944 93.2754H47.519L46.8015 96.8979L42.584 97.5454L42.5315 98.4379L46.259 98.7179L46.084 101.5L42.759 101.798L43.0565 102.743L47.099 102.778L48.5865 106.26H38.944L37.999 97.8954L38.944 93.2754ZM48.0308 106.085L50.3583 93.3279H53.0008L55.4683 97.3879L55.6783 93.3279L59.7383 93.9579L58.8808 106.243L55.5208 106.033L52.9308 102.078L52.1783 106.26L48.0308 106.085ZM60.0449 93.3279L72.9774 93.5554V98.8054L68.6024 98.0879L69.8099 106.33H63.5449L64.4899 98.0879L60.0449 97.8604V93.3279ZM74.8327 93.2754H83.4077L82.6902 96.8979L78.4727 97.5454L78.4202 98.4379L82.1477 98.7179L81.9727 101.5L78.6477 101.798L78.9452 102.743L82.9877 102.778L84.4752 106.26H74.8327L73.8877 97.8954L74.8327 93.2754ZM83.9194 106.085L86.2469 93.3279H88.8894L91.3569 97.3879L91.5669 93.3279L95.6269 93.9579L94.7694 106.243L91.4094 106.033L88.8194 102.078L88.0669 106.26L83.9194 106.085ZM100.956 93.2929L105.786 93.6079L105.594 98.2454L102.444 96.7754L99.6961 98.0529L99.5736 101.028L101.989 102.673L105.541 100.818L106.731 105.7L99.7486 106.313L96.3361 103.32L95.3211 99.5579L96.8961 95.5154L100.956 93.2929ZM107.645 93.2754H116.22L115.503 96.8979L111.285 97.5454L111.233 98.4379L114.96 98.7179L114.785 101.5L111.46 101.798L111.758 102.743L115.8 102.778L117.288 106.26H107.645L106.7 97.8954L107.645 93.2754ZM131.922 93.2929L135.597 96.3029L136.349 103.32L132.727 106.278H125.482V94.0804L131.922 93.2929ZM129.489 97.9654V101.78L131.852 100.958V99.0504L129.489 97.9654ZM137.535 93.2754H146.11L145.393 96.8979L141.175 97.5454L141.123 98.4379L144.85 98.7179L144.675 101.5L141.35 101.798L141.648 102.743L145.69 102.778L147.178 106.26H137.535L136.59 97.8954L137.535 93.2754ZM159.31 96.5829L157.052 99.3654L154.41 97.6679L153.745 98.5079L158.47 101.973L156.177 106.295H150.56L146.64 103.18L148.337 100.328L151.715 102.235L152.222 101.448L147.27 98.5079L151.96 93.2579H156.177L159.31 96.5829ZM164.394 93.2929L169.224 93.6079L169.031 98.2454L165.881 96.7754L163.134 98.0529L163.011 101.028L165.426 102.673L168.979 100.818L170.169 105.7L163.186 106.313L159.774 103.32L158.759 99.5579L160.334 95.5154L164.394 93.2929ZM177.4 93.3804L180.638 95.7429L180.935 99.8204L179.115 101.85L182.353 104.703L178.555 106.348L174.583 102.953L175.178 106.33H171.153L170.138 93.9404L177.4 93.3804ZM174.583 97.0029L174.478 99.4879L175.545 99.6279L176.613 98.0879L174.583 97.0029ZM182.068 93.3804L185.463 93.1704L188.088 105.56L182.523 106.173L182.068 93.3804ZM190.788 93.2404L196.86 93.9579L198.26 96.1979L198.155 98.5954L197.245 99.9604L198.523 100.695L199.38 103.198L198.4 105.525L196.37 106.243L188.74 106.295L188.39 93.9929L190.788 93.2404ZM192.87 103.653L194.655 103.268V102.078L192.87 101.465V103.653ZM192.643 98.2279L194.41 97.8604V96.4254L192.643 96.0404V98.2279ZM199.056 93.3804L202.451 93.1704L205.076 105.56L199.511 106.173L199.056 93.3804ZM205.36 106.085L207.687 93.3279H210.33L212.797 97.3879L213.007 93.3279L217.067 93.9579L216.21 106.243L212.85 106.033L210.26 102.078L209.507 106.26L205.36 106.085ZM228.347 95.9704L225.354 97.6504L224.147 96.9854L222.362 97.5279L221.294 100.065L222.414 102.428L225.634 102.043L225.704 101.465L223.219 101.693L223.534 98.1754L228.714 98.2454V105.158L220.017 106.278L217.374 100.905L218.337 95.9704L222.047 93.2754L226.597 93.5904L228.347 95.9704ZM237.796 93.3279L250.729 93.5554V98.8054L246.354 98.0879L247.561 106.33H241.296L242.241 98.0879L237.796 97.8604V93.3279ZM251.639 94.0979L256.049 93.2579L256.259 98.5954L258.832 98.2104L258.989 93.5029L262.594 93.6604L263.294 106.225L259.234 106.085L259.199 102.148L256.749 102.62L256.837 106.225H253.039L251.639 94.0979ZM264.598 93.2754H273.173L272.456 96.8979L268.238 97.5454L268.186 98.4379L271.913 98.7179L271.738 101.5L268.413 101.798L268.711 102.743L272.753 102.778L274.241 106.26H264.598L263.653 97.8954L264.598 93.2754ZM30.115 114.765L29.6075 122.605L34.98 121.958L35.47 126L25.74 127.155L25.25 114.205L30.115 114.765ZM45.4934 114.485L49.3084 119.228L48.2234 125.475L41.3109 127.278L35.7984 122.413L36.6209 116.935L40.7334 114.328L45.4934 114.485ZM41.7659 118.895L40.8734 120.89L42.4134 121.923L44.0409 121.328L43.9534 119.385L41.7659 118.895ZM54.6597 114.293L59.4897 114.608L59.2972 119.245L56.1472 117.775L53.3997 119.053L53.2772 122.028L55.6922 123.673L59.2447 121.818L60.4347 126.7L53.4522 127.313L50.0397 124.32L49.0247 120.558L50.5997 116.515L54.6597 114.293ZM68.2613 114.345L73.7913 126.403L68.5063 127.243L68.0863 124.145L63.8338 124.04L62.8713 127.348L57.7788 126.438L64.7613 114.695L68.2613 114.345ZM65.6538 118.93L64.9363 120.715L67.6138 120.785L67.0013 118.983L65.6538 118.93ZM72.9819 114.328L85.9144 114.555V119.805L81.5394 119.088L82.7469 127.33H76.4819L77.4269 119.088L72.9819 118.86V114.328ZM86.9122 114.38L90.3072 114.17L92.9322 126.56L87.3672 127.173L86.9122 114.38ZM102.351 114.485L106.166 119.228L105.081 125.475L98.1688 127.278L92.6563 122.413L93.4788 116.935L97.5913 114.328L102.351 114.485ZM98.6238 118.895L97.7313 120.89L99.2713 121.923L100.899 121.328L100.811 119.385L98.6238 118.895ZM106.495 127.085L108.823 114.328H111.465L113.933 118.388L114.143 114.328L118.203 114.958L117.345 127.243L113.985 127.033L111.395 123.078L110.643 127.26L106.495 127.085ZM120.382 124.285H121.764L122.587 125.72L122.009 126.788L120.382 127.155L119.629 125.878L120.382 124.285Z" fill="#77684D"/>
<g clip-path="url(#clip0_270_1986)">
<path d="M271.961 151.955L319.137 148.686L352.419 151.955L360.008 188.083L357.814 203.905L301.782 209.119L266.344 206.197L264.327 165.112L271.961 151.955Z" fill="#353535"/>
<path d="M266.43 166.352L273.559 154.665L318.914 151.676L350.672 154.643L357.905 187.388L355.866 201.37L302.097 206.128L268.346 203.483L266.43 166.352Z" fill="#ED4650" stroke="white" stroke-width="1.25"/>
</g>
<g filter="url(#filter2_d_270_1986)">
<mask id="path-8-outside-2_270_1986" maskUnits="userSpaceOnUse" x="279.25" y="164.563" width="62" height="23" fill="black">
<rect fill="white" x="279.25" y="164.563" width="62" height="23"/>
<path d="M280.578 167.088L285.428 166.788L289.178 184.488L281.228 185.363L280.578 167.088ZM289.583 185.238L292.908 167.013H296.683L300.208 172.813L300.508 167.013L306.308 167.913L305.083 185.463L300.283 185.163L296.583 179.513L295.508 185.488L289.583 185.238ZM307.972 166.913L320.572 167.013L319.872 173.038L312.997 172.263L312.897 174.263L318.722 173.963L317.772 179.463L312.897 178.838L313.947 185.488H307.297L306.772 171.988L307.972 166.913ZM334.128 167.238L339.578 174.013L338.028 182.938L328.153 185.513L320.278 178.563L321.453 170.738L327.328 167.013L334.128 167.238ZM328.803 173.538L327.528 176.388L329.728 177.863L332.053 177.013L331.928 174.238L328.803 173.538Z"/>
</mask>
<path d="M280.578 167.088L285.428 166.788L289.178 184.488L281.228 185.363L280.578 167.088ZM289.583 185.238L292.908 167.013H296.683L300.208 172.813L300.508 167.013L306.308 167.913L305.083 185.463L300.283 185.163L296.583 179.513L295.508 185.488L289.583 185.238ZM307.972 166.913L320.572 167.013L319.872 173.038L312.997 172.263L312.897 174.263L318.722 173.963L317.772 179.463L312.897 178.838L313.947 185.488H307.297L306.772 171.988L307.972 166.913ZM334.128 167.238L339.578 174.013L338.028 182.938L328.153 185.513L320.278 178.563L321.453 170.738L327.328 167.013L334.128 167.238ZM328.803 173.538L327.528 176.388L329.728 177.863L332.053 177.013L331.928 174.238L328.803 173.538Z" fill="white"/>
<path d="M280.578 167.088L280.5 165.84L279.285 165.915L279.328 167.132L280.578 167.088ZM285.428 166.788L286.65 166.529L286.427 165.474L285.35 165.54L285.428 166.788ZM289.178 184.488L289.314 185.73L290.687 185.579L290.4 184.229L289.178 184.488ZM281.228 185.363L279.978 185.407L280.026 186.753L281.364 186.605L281.228 185.363ZM280.655 168.335L285.505 168.035L285.35 165.54L280.5 165.84L280.655 168.335ZM284.205 167.047L287.955 184.747L290.4 184.229L286.65 166.529L284.205 167.047ZM289.041 183.245L281.091 184.12L281.364 186.605L289.314 185.73L289.041 183.245ZM282.477 185.318L281.827 167.043L279.328 167.132L279.978 185.407L282.477 185.318ZM289.583 185.238L288.354 185.014L288.096 186.426L289.531 186.487L289.583 185.238ZM292.908 167.013V165.763H291.866L291.679 166.789L292.908 167.013ZM296.683 167.013L297.752 166.364L297.387 165.763H296.683V167.013ZM300.208 172.813L299.14 173.462L301.247 176.929L301.457 172.877L300.208 172.813ZM300.508 167.013L300.7 165.778L299.332 165.565L299.26 166.948L300.508 167.013ZM306.308 167.913L307.555 168L307.635 166.854L306.5 166.678L306.308 167.913ZM305.083 185.463L305.006 186.71L306.244 186.788L306.33 185.55L305.083 185.463ZM300.283 185.163L299.238 185.848L299.581 186.371L300.206 186.41L300.283 185.163ZM296.583 179.513L297.629 178.828L295.909 176.202L295.353 179.292L296.583 179.513ZM295.508 185.488L295.456 186.737L296.546 186.783L296.739 185.709L295.508 185.488ZM290.813 185.462L294.138 167.237L291.679 166.789L288.354 185.014L290.813 185.462ZM292.908 168.263H296.683V165.763H292.908V168.263ZM295.615 167.662L299.14 173.462L301.277 172.164L297.752 166.364L295.615 167.662ZM301.457 172.877L301.757 167.077L299.26 166.948L298.96 172.748L301.457 172.877ZM300.317 168.248L306.117 169.148L306.5 166.678L300.7 165.778L300.317 168.248ZM305.062 167.826L303.837 185.376L306.33 185.55L307.555 168L305.062 167.826ZM305.161 184.215L300.361 183.915L300.206 186.41L305.006 186.71L305.161 184.215ZM301.329 184.478L297.629 178.828L295.538 180.198L299.238 185.848L301.329 184.478ZM295.353 179.292L294.278 185.267L296.739 185.709L297.814 179.734L295.353 179.292ZM295.561 184.239L289.636 183.989L289.531 186.487L295.456 186.737L295.561 184.239ZM307.972 166.913L307.982 165.663L306.985 165.655L306.755 166.625L307.972 166.913ZM320.572 167.013L321.813 167.157L321.974 165.774L320.582 165.763L320.572 167.013ZM319.872 173.038L319.732 174.28L320.969 174.42L321.113 173.182L319.872 173.038ZM312.997 172.263L313.137 171.021L311.815 170.872L311.748 172.2L312.997 172.263ZM312.897 174.263L311.648 174.2L311.579 175.582L312.961 175.511L312.897 174.263ZM318.722 173.963L319.953 174.176L320.22 172.634L318.657 172.715L318.722 173.963ZM317.772 179.463L317.613 180.703L318.8 180.855L319.003 179.676L317.772 179.463ZM312.897 178.838L313.056 177.598L311.402 177.386L311.662 179.033L312.897 178.838ZM313.947 185.488V186.738H315.409L315.181 185.293L313.947 185.488ZM307.297 185.488L306.048 185.536L306.094 186.738H307.297V185.488ZM306.772 171.988L305.555 171.7L305.516 171.866L305.523 172.036L306.772 171.988ZM307.962 168.163L320.562 168.263L320.582 165.763L307.982 165.663L307.962 168.163ZM319.33 166.869L318.63 172.894L321.113 173.182L321.813 167.157L319.33 166.869ZM320.012 171.796L313.137 171.021L312.857 173.505L319.732 174.28L320.012 171.796ZM311.748 172.2L311.648 174.2L314.145 174.325L314.245 172.325L311.748 172.2ZM312.961 175.511L318.786 175.211L318.657 172.715L312.832 173.015L312.961 175.511ZM317.49 173.75L316.54 179.25L319.003 179.676L319.953 174.176L317.49 173.75ZM317.931 178.223L313.056 177.598L312.738 180.078L317.613 180.703L317.931 178.223ZM311.662 179.033L312.712 185.683L315.181 185.293L314.131 178.643L311.662 179.033ZM313.947 184.238H307.297V186.738H313.947V184.238ZM308.546 185.439L308.021 171.939L305.523 172.036L306.048 185.536L308.546 185.439ZM307.988 172.276L309.188 167.2L306.755 166.625L305.555 171.7L307.988 172.276ZM334.128 167.238L335.102 166.454L334.742 166.008L334.169 165.989L334.128 167.238ZM339.578 174.013L340.809 174.227L340.906 173.67L340.552 173.229L339.578 174.013ZM338.028 182.938L338.343 184.147L339.122 183.944L339.259 183.152L338.028 182.938ZM328.153 185.513L327.326 186.45L327.824 186.89L328.468 186.722L328.153 185.513ZM320.278 178.563L319.041 178.377L318.94 179.05L319.451 179.5L320.278 178.563ZM321.453 170.738L320.783 169.682L320.301 169.988L320.216 170.552L321.453 170.738ZM327.328 167.013L327.369 165.764L326.984 165.751L326.658 165.957L327.328 167.013ZM328.803 173.538L329.076 172.318L328.079 172.095L327.662 173.027L328.803 173.538ZM327.528 176.388L326.387 175.877L325.956 176.839L326.832 177.426L327.528 176.388ZM329.728 177.863L329.032 178.901L329.56 179.255L330.157 179.037L329.728 177.863ZM332.053 177.013L332.482 178.187L333.343 177.872L333.301 176.957L332.053 177.013ZM331.928 174.238L333.176 174.182L333.133 173.227L332.201 173.018L331.928 174.238ZM333.154 168.021L338.604 174.796L340.552 173.229L335.102 166.454L333.154 168.021ZM338.346 173.799L336.796 182.724L339.259 183.152L340.809 174.227L338.346 173.799ZM337.712 181.728L327.837 184.303L328.468 186.722L338.343 184.147L337.712 181.728ZM328.98 184.576L321.105 177.626L319.451 179.5L327.326 186.45L328.98 184.576ZM321.514 178.748L322.689 170.923L320.216 170.552L319.041 178.377L321.514 178.748ZM322.122 171.794L327.997 168.069L326.658 165.957L320.783 169.682L322.122 171.794ZM327.286 168.262L334.086 168.487L334.169 165.989L327.369 165.764L327.286 168.262ZM327.662 173.027L326.387 175.877L328.669 176.898L329.944 174.048L327.662 173.027ZM326.832 177.426L329.032 178.901L330.424 176.825L328.224 175.35L326.832 177.426ZM330.157 179.037L332.482 178.187L331.623 175.839L329.298 176.689L330.157 179.037ZM333.301 176.957L333.176 174.182L330.679 174.294L330.804 177.069L333.301 176.957ZM332.201 173.018L329.076 172.318L328.529 174.758L331.654 175.458L332.201 173.018Z" fill="#353535" mask="url(#path-8-outside-2_270_1986)"/>
</g>
<defs>
<filter id="filter0_dd_270_1986" x="0.364258" y="0.250488" width="359.772" height="225.653" filterUnits="userSpaceOnUse" color-interpolation-filters="sRGB">
<feFlood flood-opacity="0" result="BackgroundImageFix"/>
<feColorMatrix in="SourceAlpha" type="matrix" values="0 0 0 0 0 0 0 0 0 0 0 0 0 0 0 0 0 0 127 0" result="hardAlpha"/>
<feOffset dx="5" dy="5"/>
<feGaussianBlur stdDeviation="5"/>
<feComposite in2="hardAlpha" operator="out"/>
<feColorMatrix type="matrix" values="0 0 0 0 0 0 0 0 0 0 0 0 0 0 0 0 0 0 0.15 0"/>
<feBlend mode="normal" in2="BackgroundImageFix" result="effect1_dropShadow_270_1986"/>
<feColorMatrix in="SourceAlpha" type="matrix" values="0 0 0 0 0 0 0 0 0 0 0 0 0 0 0 0 0 0 127 0" result="hardAlpha"/>
<feOffset dx="5" dy="5"/>
<feComposite in2="hardAlpha" operator="out"/>
<feColorMatrix type="matrix" values="0 0 0 0 0.784948 0 0 0 0 0.738688 0 0 0 0 0.64889 0 0 0 1 0"/>
<feBlend mode="normal" in2="effect1_dropShadow_270_1986" result="effect2_dropShadow_270_1986"/>
<feBlend mode="normal" in="SourceGraphic" in2="effect2_dropShadow_270_1986" result="shape"/>
</filter>
<filter id="filter1_d_270_1986" x="136.666" y="22.6879" width="74.5742" height="21.175" filterUnits="userSpaceOnUse" color-interpolation-filters="sRGB">
<feFlood flood-opacity="0" result="BackgroundImageFix"/>
<feColorMatrix in="SourceAlpha" type="matrix" values="0 0 0 0 0 0 0 0 0 0 0 0 0 0 0 0 0 0 127 0" result="hardAlpha"/>
<feOffset dx="1.25" dy="2.5"/>
<feComposite in2="hardAlpha" operator="out"/>
<feColorMatrix type="matrix" values="0 0 0 0 0.208281 0 0 0 0 0.208281 0 0 0 0 0.208281 0 0 0 1 0"/>
<feBlend mode="normal" in2="BackgroundImageFix" result="effect1_dropShadow_270_1986"/>
<feBlend mode="normal" in="SourceGraphic" in2="effect1_dropShadow_270_1986" result="shape"/>
</filter>
<filter id="filter2_d_270_1986" x="280.578" y="166.788" width="60.25" height="21.225" filterUnits="userSpaceOnUse" color-interpolation-filters="sRGB">
<feFlood flood-opacity="0" result="BackgroundImageFix"/>
<feColorMatrix in="SourceAlpha" type="matrix" values="0 0 0 0 0 0 0 0 0 0 0 0 0 0 0 0 0 0 127 0" result="hardAlpha"/>
<feOffset dx="1.25" dy="2.5"/>
<feComposite in2="hardAlpha" operator="out"/>
<feColorMatrix type="matrix" values="0 0 0 0 0.208281 0 0 0 0 0.208281 0 0 0 0 0.208281 0 0 0 1 0"/>
<feBlend mode="normal" in2="BackgroundImageFix" result="effect1_dropShadow_270_1986"/>
<feBlend mode="normal" in="SourceGraphic" in2="effect1_dropShadow_270_1986" result="shape"/>
</filter>
<clipPath id="clip0_270_1986">
<rect width="95.6808" height="60.4328" fill="white" transform="translate(264.327 148.686)"/>
</clipPath>
</defs>
</svg>
