<svg width="352" height="221" viewBox="0 0 352 221" fill="none" xmlns="http://www.w3.org/2000/svg">
<g filter="url(#filter0_dd_292_3717)">
<path d="M18.4225 5.47787H321.578L336.389 141.486L318.133 187.408L171.213 182.023L164.353 205.989L154.051 181.394L23.6826 189.779L5.11139 175.935L5.11139 42.2712L18.4225 5.47787Z" fill="#FFFAE7"/>
<path d="M170.628 181.855L164.245 204.154L154.613 181.159L154.445 180.758L154.012 180.786L23.8671 189.156L5.72076 175.63V42.378L18.85 6.08725H321.032L335.767 141.401L317.726 186.783L171.236 181.414L170.759 181.397L170.628 181.855Z" stroke="#C8BCA5" stroke-width="1.21875"/>
</g>
<g filter="url(#filter1_d_292_3717)">
<mask id="path-3-outside-1_292_3717" maskUnits="userSpaceOnUse" x="129.813" y="21.1637" width="78" height="22" fill="black">
<rect fill="white" x="129.813" y="21.1637" width="78" height="22"/>
<path d="M138.788 23.6868L138.081 34.6068L145.564 33.7049L146.247 39.3356L132.694 40.9443L132.012 22.9068L138.788 23.6868ZM147.606 23.1506L152.335 22.8581L155.991 40.1156L148.24 40.9687L147.606 23.1506ZM156.387 40.8468L159.629 23.0774H163.309L166.746 28.7324L167.039 23.0774L172.694 23.9549L171.499 41.0662L166.819 40.7737L163.212 35.2649L162.164 41.0906L156.387 40.8468ZM174.437 23.0043H186.381L185.382 28.0499L179.507 28.9518L179.434 30.1949L184.626 30.5849L184.382 34.4606L179.751 34.8749L180.165 36.1912L185.796 36.2399L187.868 41.0906H174.437L173.121 29.4393L174.437 23.0043ZM198.038 23.1018L205.741 39.8962L198.379 41.0662L197.794 36.7518L191.871 36.6056L190.531 41.2124L183.437 39.9449L193.163 23.5893L198.038 23.1018ZM194.406 29.4881L193.407 31.9743L197.136 32.0718L196.283 29.5612L194.406 29.4881Z"/>
</mask>
<path d="M138.788 23.6868L138.081 34.6068L145.564 33.7049L146.247 39.3356L132.694 40.9443L132.012 22.9068L138.788 23.6868ZM147.606 23.1506L152.335 22.8581L155.991 40.1156L148.24 40.9687L147.606 23.1506ZM156.387 40.8468L159.629 23.0774H163.309L166.746 28.7324L167.039 23.0774L172.694 23.9549L171.499 41.0662L166.819 40.7737L163.212 35.2649L162.164 41.0906L156.387 40.8468ZM174.437 23.0043H186.381L185.382 28.0499L179.507 28.9518L179.434 30.1949L184.626 30.5849L184.382 34.4606L179.751 34.8749L180.165 36.1912L185.796 36.2399L187.868 41.0906H174.437L173.121 29.4393L174.437 23.0043ZM198.038 23.1018L205.741 39.8962L198.379 41.0662L197.794 36.7518L191.871 36.6056L190.531 41.2124L183.437 39.9449L193.163 23.5893L198.038 23.1018ZM194.406 29.4881L193.407 31.9743L197.136 32.0718L196.283 29.5612L194.406 29.4881Z" fill="white"/>
<path d="M138.788 23.6868L140.004 23.7655L140.079 22.6086L138.928 22.4761L138.788 23.6868ZM138.081 34.6068L136.865 34.5281L136.77 35.9924L138.227 35.8168L138.081 34.6068ZM145.564 33.7049L146.774 33.5583L146.628 32.3492L145.419 32.495L145.564 33.7049ZM146.247 39.3356L146.391 40.5458L147.604 40.4018L147.457 39.1889L146.247 39.3356ZM132.694 40.9443L131.477 40.9904L131.527 42.3103L132.838 42.1546L132.694 40.9443ZM132.012 22.9068L132.151 21.6961L130.74 21.5337L130.794 22.9529L132.012 22.9068ZM137.572 23.6081L136.865 34.5281L139.298 34.6855L140.004 23.7655L137.572 23.6081ZM138.227 35.8168L145.71 34.9149L145.419 32.495L137.936 33.3968L138.227 35.8168ZM144.355 33.8516L145.037 39.4822L147.457 39.1889L146.774 33.5583L144.355 33.8516ZM146.103 38.1253L132.551 39.7341L132.838 42.1546L146.391 40.5458L146.103 38.1253ZM133.912 40.8982L133.23 22.8607L130.794 22.9529L131.477 40.9904L133.912 40.8982ZM131.873 24.1176L138.649 24.8976L138.928 22.4761L132.151 21.6961L131.873 24.1176ZM147.606 23.1506L147.531 21.9341L146.346 22.0074L146.388 23.1939L147.606 23.1506ZM152.335 22.8581L153.527 22.6055L153.309 21.5767L152.26 21.6416L152.335 22.8581ZM155.991 40.1156L156.125 41.327L157.463 41.1797L157.184 39.863L155.991 40.1156ZM148.24 40.9687L147.022 41.012L147.069 42.3237L148.373 42.1801L148.24 40.9687ZM147.681 24.367L152.41 24.0745L152.26 21.6416L147.531 21.9341L147.681 24.367ZM151.143 23.1107L154.799 40.3682L157.184 39.863L153.527 22.6055L151.143 23.1107ZM155.858 38.9041L148.107 39.7573L148.373 42.1801L156.125 41.327L155.858 38.9041ZM149.458 40.9254L148.824 23.1072L146.388 23.1939L147.022 41.012L149.458 40.9254ZM156.387 40.8468L155.188 40.6281L154.937 42.0055L156.336 42.0645L156.387 40.8468ZM159.629 23.0774V21.8587H158.612L158.43 22.8587L159.629 23.0774ZM163.309 23.0774L164.351 22.4445L163.995 21.8587H163.309V23.0774ZM166.746 28.7324L165.705 29.3654L167.759 32.7455L167.963 28.7954L166.746 28.7324ZM167.039 23.0774L167.226 21.8731L165.891 21.6661L165.822 23.0145L167.039 23.0774ZM172.694 23.9549L173.91 24.0398L173.988 22.9224L172.881 22.7506L172.694 23.9549ZM171.499 41.0662L171.423 42.2826L172.631 42.358L172.715 41.1511L171.499 41.0662ZM166.819 40.7737L165.8 41.4414L166.134 41.952L166.743 41.9901L166.819 40.7737ZM163.212 35.2649L164.232 34.5973L162.555 32.0364L162.012 35.0491L163.212 35.2649ZM162.164 41.0906L162.112 42.3082L163.175 42.3531L163.363 41.3064L162.164 41.0906ZM157.586 41.0656L160.828 23.2962L158.43 22.8587L155.188 40.6281L157.586 41.0656ZM159.629 24.2962H163.309V21.8587H159.629V24.2962ZM162.268 23.7104L165.705 29.3654L167.788 28.0995L164.351 22.4445L162.268 23.7104ZM167.963 28.7954L168.256 23.1404L165.822 23.0145L165.529 28.6695L167.963 28.7954ZM166.852 24.2818L172.507 25.1593L172.881 22.7506L167.226 21.8731L166.852 24.2818ZM171.478 23.8701L170.284 40.9813L172.715 41.1511L173.91 24.0398L171.478 23.8701ZM171.575 39.8498L166.895 39.5573L166.743 41.9901L171.423 42.2826L171.575 39.8498ZM167.839 40.106L164.232 34.5973L162.192 35.9326L165.8 41.4414L167.839 40.106ZM162.012 35.0491L160.964 40.8748L163.363 41.3064L164.411 35.4808L162.012 35.0491ZM162.215 39.8729L156.438 39.6292L156.336 42.0645L162.112 42.3082L162.215 39.8729ZM174.437 23.0043V21.7856H173.443L173.243 22.7601L174.437 23.0043ZM186.381 23.0043L187.576 23.2411L187.865 21.7856H186.381V23.0043ZM185.382 28.0499L185.567 29.2546L186.411 29.1249L186.577 28.2867L185.382 28.0499ZM179.507 28.9518L179.322 27.7472L178.348 27.8967L178.291 28.8803L179.507 28.9518ZM179.434 30.1949L178.217 30.1234L178.147 31.3204L179.343 31.4103L179.434 30.1949ZM184.626 30.5849L185.842 30.6614L185.918 29.4598L184.717 29.3696L184.626 30.5849ZM184.382 34.4606L184.491 35.6745L185.533 35.5812L185.599 34.5371L184.382 34.4606ZM179.751 34.8749L179.642 33.661L178.134 33.796L178.588 35.2409L179.751 34.8749ZM180.165 36.1912L179.003 36.5572L179.269 37.4022L180.155 37.4099L180.165 36.1912ZM185.796 36.2399L186.917 35.7612L186.604 35.0281L185.807 35.0212L185.796 36.2399ZM187.868 41.0906V42.3093H189.714L188.989 40.6118L187.868 41.0906ZM174.437 41.0906L173.226 41.2274L173.348 42.3093H174.437V41.0906ZM173.121 29.4393L171.927 29.1951L171.888 29.3843L171.91 29.5761L173.121 29.4393ZM174.437 24.2231H186.381V21.7856H174.437V24.2231ZM185.185 22.7675L184.186 27.8131L186.577 28.2867L187.576 23.2411L185.185 22.7675ZM185.197 26.8453L179.322 27.7472L179.692 30.1565L185.567 29.2546L185.197 26.8453ZM178.291 28.8803L178.217 30.1234L180.651 30.2665L180.724 29.0234L178.291 28.8803ZM179.343 31.4103L184.535 31.8003L184.717 29.3696L179.525 28.9796L179.343 31.4103ZM183.41 30.5084L183.166 34.3841L185.599 34.5371L185.842 30.6614L183.41 30.5084ZM184.274 33.2467L179.642 33.661L179.86 36.0888L184.491 35.6745L184.274 33.2467ZM178.588 35.2409L179.003 36.5572L181.328 35.8252L180.913 34.509L178.588 35.2409ZM180.155 37.4099L185.785 37.4587L185.807 35.0212L180.176 34.9725L180.155 37.4099ZM184.675 36.7187L186.747 41.5693L188.989 40.6118L186.917 35.7612L184.675 36.7187ZM187.868 39.8718H174.437V42.3093H187.868V39.8718ZM175.648 40.9538L174.332 29.3025L171.91 29.5761L173.226 41.2274L175.648 40.9538ZM174.315 29.6836L175.631 23.2486L173.243 22.7601L171.927 29.1951L174.315 29.6836ZM198.038 23.1018L199.146 22.5937L198.783 21.8025L197.917 21.8891L198.038 23.1018ZM205.741 39.8962L205.932 41.0998L207.518 40.8478L206.848 39.3881L205.741 39.8962ZM198.379 41.0662L197.172 41.23L197.339 42.4656L198.571 42.2698L198.379 41.0662ZM197.794 36.7518L199.002 36.5881L198.863 35.5591L197.824 35.5334L197.794 36.7518ZM191.871 36.6056L191.901 35.3872L190.963 35.364L190.701 36.265L191.871 36.6056ZM190.531 41.2124L190.316 42.4122L191.395 42.6049L191.701 41.553L190.531 41.2124ZM183.438 39.9449L182.39 39.322L181.49 40.835L183.223 41.1447L183.438 39.9449ZM193.163 23.5893L193.042 22.3766L192.43 22.4378L192.116 22.9664L193.163 23.5893ZM194.406 29.4881L194.454 28.2702L193.596 28.2368L193.275 29.0335L194.406 29.4881ZM193.407 31.9743L192.276 31.5198L191.622 33.1468L193.375 33.1927L193.407 31.9743ZM197.136 32.0718L197.104 33.2902L198.853 33.3359L198.29 31.6797L197.136 32.0718ZM196.283 29.5612L197.437 29.1691L197.168 28.376L196.331 28.3434L196.283 29.5612ZM196.93 23.6099L204.633 40.4043L206.848 39.3881L199.146 22.5937L196.93 23.6099ZM205.549 38.6926L198.188 39.8626L198.571 42.2698L205.932 41.0998L205.549 38.6926ZM199.587 40.9024L199.002 36.5881L196.587 36.9156L197.172 41.23L199.587 40.9024ZM197.824 35.5334L191.901 35.3872L191.841 37.8239L197.764 37.9702L197.824 35.5334ZM190.701 36.265L189.36 40.8719L191.701 41.553L193.041 36.9461L190.701 36.265ZM190.745 40.0127L183.652 38.7452L183.223 41.1447L190.316 42.4122L190.745 40.0127ZM184.485 40.5679L194.211 24.2122L192.116 22.9664L182.39 39.322L184.485 40.5679ZM193.284 24.802L198.159 24.3145L197.917 21.8891L193.042 22.3766L193.284 24.802ZM193.275 29.0335L192.276 31.5198L194.538 32.4289L195.537 29.9426L193.275 29.0335ZM193.375 33.1927L197.104 33.2902L197.168 30.8535L193.439 30.756L193.375 33.1927ZM198.29 31.6797L197.437 29.1691L195.129 29.9533L195.982 32.4639L198.29 31.6797ZM196.331 28.3434L194.454 28.2702L194.359 30.7059L196.236 30.779L196.331 28.3434Z" fill="#353535" mask="url(#path-3-outside-1_292_3717)"/>
</g>
<path d="M24.5001 70.0033L37.1093 70.2251V75.3439L32.8437 74.6443L34.021 82.6808H27.9126L28.834 74.6443L24.5001 74.4225V70.0033ZM37.9968 70.7541L42.2966 69.9351L42.5013 75.1391L45.0095 74.7638L45.1631 70.1739L48.678 70.3275L49.3605 82.5784L45.402 82.4419L45.3678 78.6028L42.9791 79.0635L43.0644 82.5784H39.3618L37.9968 70.7541ZM49.7959 70.0545L53.1061 69.8498L55.6654 81.93L50.2396 82.5272L49.7959 70.0545ZM68.3128 73.1769L66.1117 75.8899L63.5353 74.2348L62.8869 75.0538L67.4938 78.4322L65.2586 82.6466H59.7815L55.9595 79.6095L57.6146 76.8283L60.9076 78.6881L61.4024 77.9203L56.5738 75.0538L61.1465 69.9351H65.2586L68.3128 73.1769ZM76.9893 70.0545L80.2994 69.8498L82.8588 81.93L77.4329 82.5272L76.9893 70.0545ZM95.5061 73.1769L93.3051 75.8899L90.7286 74.2348L90.0802 75.0538L94.6871 78.4322L92.4519 82.6466H86.9749L83.1529 79.6095L84.8079 76.8283L88.101 78.6881L88.5958 77.9203L83.7671 75.0538L88.3399 69.9351H92.4519L95.5061 73.1769ZM104.097 70.0033L116.707 70.2251V75.3439L112.441 74.6443L113.618 82.6808H107.51L108.431 74.6443L104.097 74.4225V70.0033ZM117.594 70.7541L121.894 69.9351L122.099 75.1391L124.607 74.7638L124.76 70.1739L128.275 70.3275L128.958 82.5784L124.999 82.4419L124.965 78.6028L122.576 79.0635L122.662 82.5784H118.959L117.594 70.7541ZM130.229 69.9521H138.59L137.89 73.4841L133.778 74.1154L133.727 74.9856L137.361 75.2586L137.191 77.9715L133.949 78.2616L134.239 79.1829L138.18 79.2171L139.631 82.6125H130.229L129.308 74.4566L130.229 69.9521ZM148.541 69.9521H156.902L156.202 73.4841L152.09 74.1154L152.039 74.9856L155.674 75.2586L155.503 77.9715L152.261 78.2616L152.551 79.1829L156.493 79.2171L157.943 82.6125H148.541L147.62 74.4566L148.541 69.9521ZM160.814 70.0545L163.492 72.7845L165.472 69.8668L168.713 72.9722L166.359 75.7534L170.249 78.8076L167.007 82.5443L164.209 78.8929L160.66 82.4589L157.401 79.2341L161.172 75.8387L158.305 72.6309L160.814 70.0545ZM178.042 70.0204L183.434 81.7764L178.281 82.5954L177.872 79.5754L173.725 79.473L172.787 82.6978L167.822 81.8106L174.63 70.3616L178.042 70.0204ZM175.5 74.4908L174.8 76.2311L177.411 76.2994L176.814 74.5419L175.5 74.4908ZM182.645 81.3669L188.736 70.0886H192.336L193.531 73.5011L195.646 70.0716L198.837 70.0033L202.335 82.2713L197.779 82.6466L196.909 79.5413L195.868 76.5383L192.729 79.3365L190.323 76.1458L187.439 82.2713L182.645 81.3669ZM209.915 70.0374L212.918 72.102L213.157 77.1525L210.12 80.0873L206.349 80.3261V82.7319H202.373L203.005 70.0374H209.915ZM207.048 73.9277L206.929 75.9923L208.055 76.1458L209.488 74.4566L207.048 73.9277ZM217.964 70.4299L217.469 78.0739L222.707 77.4426L223.185 81.384L213.698 82.5101L213.221 69.8839L217.964 70.4299ZM224.973 69.9521H233.333L232.634 73.4841L228.522 74.1154L228.471 74.9856L232.105 75.2586L231.934 77.9715L228.692 78.2616L228.982 79.1829L232.924 79.2171L234.374 82.6125H224.973L224.051 74.4566L224.973 69.9521ZM36.8704 93.1769L34.6694 95.8899L32.0929 94.2348L31.4446 95.0538L36.0514 98.4322L33.8162 102.647H28.3392L24.5172 99.6095L26.1722 96.8283L29.4653 98.6881L29.9601 97.9203L25.1314 95.0538L29.7042 89.9351H33.8162L36.8704 93.1769ZM37.8518 89.9521H46.2124L45.5129 93.4841L41.4008 94.1154L41.3496 94.9856L44.9839 95.2586L44.8133 97.9715L41.5714 98.2616L41.8615 99.1829L45.8029 99.2171L47.2532 102.613H37.8518L36.9304 94.4566L37.8518 89.9521ZM46.7114 102.442L48.9807 90.0033H51.5571L53.9629 93.9618L54.1677 90.0033L58.1262 90.6176L57.2901 102.595L54.0141 102.391L51.4889 98.5346L50.7552 102.613L46.7114 102.442ZM58.4252 90.0033L71.0344 90.2251V95.3439L66.7687 94.6443L67.946 102.681H61.8377L62.759 94.6443L58.4252 94.4225V90.0033ZM72.8433 89.9521H81.2039L80.5043 93.4841L76.3923 94.1154L76.3411 94.9856L79.9754 95.2586L79.8048 97.9715L76.5629 98.2616L76.8529 99.1829L80.7944 99.2171L82.2447 102.613H72.8433L71.9219 94.4566L72.8433 89.9521ZM81.7028 102.442L83.9721 90.0033H86.5486L88.9544 93.9618L89.1591 90.0033L93.1176 90.6176L92.2816 102.595L89.0056 102.391L86.4803 98.5346L85.7466 102.613L81.7028 102.442ZM98.3136 89.9692L103.023 90.2763L102.835 94.7979L99.7639 93.3646L97.0851 94.6102L96.9656 97.5108L99.3203 99.1147L102.784 97.3061L103.944 102.067L97.1363 102.664L93.8091 99.746L92.8194 96.0776L94.3551 92.1361L98.3136 89.9692ZM104.835 89.9521H113.196L112.497 93.4841L108.384 94.1154L108.333 94.9856L111.968 95.2586L111.797 97.9715L108.555 98.2616L108.845 99.1829L112.787 99.2171L114.237 102.613H104.835L103.914 94.4566L104.835 89.9521ZM128.505 89.9692L132.088 92.9039L132.822 99.746L129.29 102.63H122.226V90.737L128.505 89.9692ZM126.134 94.5249V98.2445L128.437 97.4426V95.5828L126.134 94.5249ZM133.978 89.9521H142.339L141.639 93.4841L137.527 94.1154L137.476 94.9856L141.11 95.2586L140.94 97.9715L137.698 98.2616L137.988 99.1829L141.929 99.2171L143.38 102.613H133.978L133.057 94.4566L133.978 89.9521ZM155.208 93.1769L153.007 95.8899L150.431 94.2348L149.782 95.0538L154.389 98.4322L152.154 102.647H146.677L142.855 99.6095L144.51 96.8283L147.803 98.6881L148.298 97.9203L143.469 95.0538L148.042 89.9351H152.154L155.208 93.1769ZM160.165 89.9692L164.874 90.2763L164.687 94.7979L161.615 93.3646L158.937 94.6102L158.817 97.5108L161.172 99.1147L164.636 97.3061L165.796 102.067L158.988 102.664L155.661 99.746L154.671 96.0776L156.207 92.1361L160.165 89.9692ZM172.847 90.0545L176.003 92.3579L176.293 96.3335L174.519 98.3128L177.675 101.094L173.973 102.698L170.1 99.3877L170.68 102.681H166.755L165.766 90.6005L172.847 90.0545ZM170.1 93.5864L169.997 96.0093L171.038 96.1458L172.079 94.6443L170.1 93.5864ZM177.398 90.0545L180.708 89.8498L183.268 101.93L177.842 102.527L177.398 90.0545ZM185.899 89.918L191.82 90.6176L193.185 92.8016L193.083 95.1391L192.195 96.47L193.441 97.1866L194.277 99.6266L193.321 101.896L191.342 102.595L183.903 102.647L183.562 90.6517L185.899 89.918ZM187.93 100.07L189.67 99.6948V98.5346L187.93 97.9374V100.07ZM187.708 94.7808L189.431 94.4225V93.0234L187.708 92.648V94.7808ZM193.961 90.0545L197.271 89.8498L199.83 101.93L194.404 102.527L193.961 90.0545ZM200.107 102.442L202.377 90.0033H204.953L207.359 93.9618L207.564 90.0033L211.522 90.6176L210.686 102.595L207.41 102.391L204.885 98.5346L204.151 102.613L200.107 102.442ZM222.519 92.5798L219.602 94.2178L218.424 93.5694L216.684 94.0983L215.643 96.5724L216.735 98.8758L219.875 98.5004L219.943 97.9374L217.52 98.1592L217.827 94.7296L222.878 94.7979V101.538L214.397 102.63L211.821 97.3914L212.759 92.5798L216.377 89.9521L220.813 90.2593L222.519 92.5798ZM231.733 90.0033L244.342 90.2251V95.3439L240.076 94.6443L241.254 102.681H235.145L236.067 94.6443L231.733 94.4225V90.0033ZM245.23 90.7541L249.529 89.9351L249.734 95.1391L252.242 94.7638L252.396 90.1739L255.911 90.3275L256.593 102.578L252.635 102.442L252.601 98.6028L250.212 99.0635L250.297 102.578H246.595L245.23 90.7541ZM257.865 89.9521H266.225L265.526 93.4841L261.414 94.1154L261.363 94.9856L264.997 95.2586L264.826 97.9715L261.584 98.2616L261.874 99.1829L265.816 99.2171L267.266 102.613H257.865L256.943 94.4566L257.865 89.9521ZM29.2435 110.43L28.7487 118.074L33.9869 117.443L34.4646 121.384L24.9779 122.51L24.5001 109.884L29.2435 110.43ZM44.2374 110.157L47.9571 114.781L46.8992 120.872L40.1595 122.63L34.7848 117.886L35.5867 112.546L39.5964 110.003L44.2374 110.157ZM40.6031 114.457L39.7329 116.402L41.2344 117.408L42.8212 116.828L42.7359 114.934L40.6031 114.457ZM53.1746 109.969L57.8838 110.276L57.6961 114.798L54.6249 113.365L51.9461 114.61L51.8266 117.511L54.1813 119.115L57.645 117.306L58.8052 122.067L51.9973 122.664L48.6701 119.746L47.6805 116.078L49.2161 112.136L53.1746 109.969ZM66.4361 110.02L71.8279 121.776L66.675 122.595L66.2655 119.575L62.1193 119.473L61.1809 122.698L56.2157 121.811L63.0236 110.362L66.4361 110.02ZM63.8938 114.491L63.1943 116.231L65.8048 116.299L65.2076 114.542L63.8938 114.491ZM71.0388 110.003L83.6479 110.225V115.344L79.3823 114.644L80.5596 122.681H74.4513L75.3726 114.644L71.0388 114.423V110.003ZM84.6208 110.055L87.9309 109.85L90.4903 121.93L85.0644 122.527L84.6208 110.055ZM99.6739 110.157L103.394 114.781L102.336 120.872L95.596 122.63L90.2213 117.886L91.0232 112.546L95.0329 110.003L99.6739 110.157ZM96.0396 114.457L95.1694 116.402L96.6709 117.408L98.2577 116.828L98.1724 114.934L96.0396 114.457ZM103.714 122.442L105.983 110.003H108.56L110.966 113.962L111.17 110.003L115.129 110.618L114.293 122.595L111.017 122.391L108.492 118.535L107.758 122.613L103.714 122.442ZM117.254 119.712H118.602L119.403 121.111L118.84 122.152L117.254 122.51L116.52 121.265L117.254 119.712Z" fill="#77684D"/>
<g clip-path="url(#clip0_292_3717)">
<path d="M265.068 148.531L311.342 145.368L343.988 148.531L351.432 183.485L349.28 198.792L294.319 203.836L259.558 201.01L257.58 161.26L265.068 148.531Z" fill="#353535"/>
<path d="M259.639 162.462L266.631 151.158L311.124 148.265L342.279 151.136L349.372 182.813L347.373 196.335L294.628 200.939L261.518 198.379L259.639 162.462Z" fill="#ED4650" stroke="white" stroke-width="1.21875"/>
</g>
<g filter="url(#filter2_d_292_3717)">
<mask id="path-8-outside-2_292_3717" maskUnits="userSpaceOnUse" x="272.125" y="160.757" width="61" height="22" fill="black">
<rect fill="white" x="272.125" y="160.757" width="61" height="22"/>
<path d="M273.695 162.744L278.423 162.452L282.08 179.709L274.328 180.562L273.695 162.744ZM282.475 180.441L285.717 162.671H289.398L292.835 168.326L293.127 162.671L298.782 163.549L297.588 180.66L292.908 180.367L289.3 174.859L288.252 180.684L282.475 180.441ZM300.404 162.574L312.689 162.671L312.006 168.546L305.303 167.79L305.206 169.74L310.885 169.447L309.959 174.81L305.206 174.201L306.229 180.684H299.746L299.234 167.522L300.404 162.574ZM325.906 162.891L331.22 169.496L329.708 178.198L320.08 180.709L312.402 173.932L313.548 166.303L319.276 162.671L325.906 162.891ZM320.714 169.033L319.471 171.812L321.616 173.25L323.883 172.421L323.761 169.716L320.714 169.033Z"/>
</mask>
<path d="M273.695 162.744L278.423 162.452L282.08 179.709L274.328 180.562L273.695 162.744ZM282.475 180.441L285.717 162.671H289.398L292.835 168.326L293.127 162.671L298.782 163.549L297.588 180.66L292.908 180.367L289.3 174.859L288.252 180.684L282.475 180.441ZM300.404 162.574L312.689 162.671L312.006 168.546L305.303 167.79L305.206 169.74L310.885 169.447L309.959 174.81L305.206 174.201L306.229 180.684H299.746L299.234 167.522L300.404 162.574ZM325.906 162.891L331.22 169.496L329.708 178.198L320.08 180.709L312.402 173.932L313.548 166.303L319.276 162.671L325.906 162.891ZM320.714 169.033L319.471 171.812L321.616 173.25L323.883 172.421L323.761 169.716L320.714 169.033Z" fill="white"/>
<path d="M273.695 162.744L273.619 161.528L272.434 161.601L272.477 162.788L273.695 162.744ZM278.423 162.452L279.616 162.199L279.398 161.17L278.348 161.235L278.423 162.452ZM282.08 179.709L282.213 180.921L283.551 180.773L283.272 179.457L282.08 179.709ZM274.328 180.562L273.11 180.606L273.157 181.917L274.462 181.774L274.328 180.562ZM273.77 163.961L278.499 163.668L278.348 161.235L273.619 161.528L273.77 163.961ZM277.231 162.704L280.887 179.962L283.272 179.457L279.616 162.199L277.231 162.704ZM281.946 178.498L274.195 179.351L274.462 181.774L282.213 180.921L281.946 178.498ZM275.546 180.519L274.913 162.701L272.477 162.788L273.11 180.606L275.546 180.519ZM282.475 180.441L281.276 180.222L281.025 181.599L282.424 181.658L282.475 180.441ZM285.717 162.671V161.452H284.701L284.518 162.452L285.717 162.671ZM289.398 162.671L290.439 162.038L290.083 161.452H289.398V162.671ZM292.835 168.326L291.793 168.959L293.847 172.339L294.052 168.389L292.835 168.326ZM293.127 162.671L293.314 161.467L291.98 161.26L291.91 162.608L293.127 162.671ZM298.782 163.549L299.998 163.634L300.076 162.516L298.969 162.344L298.782 163.549ZM297.588 180.66L297.512 181.876L298.719 181.952L298.804 180.745L297.588 180.66ZM292.908 180.367L291.888 181.035L292.223 181.546L292.832 181.584L292.908 180.367ZM289.3 174.859L290.32 174.191L288.643 171.63L288.101 174.643L289.3 174.859ZM288.252 180.684L288.201 181.902L289.263 181.947L289.452 180.9L288.252 180.684ZM283.674 180.659L286.916 162.89L284.518 162.452L281.276 180.222L283.674 180.659ZM285.717 163.89H289.398V161.452H285.717V163.89ZM288.356 163.304L291.793 168.959L293.876 167.693L290.439 162.038L288.356 163.304ZM294.052 168.389L294.344 162.734L291.91 162.608L291.618 168.263L294.052 168.389ZM292.94 163.876L298.595 164.753L298.969 162.344L293.314 161.467L292.94 163.876ZM297.566 163.464L296.372 180.575L298.804 180.745L299.998 163.634L297.566 163.464ZM297.664 179.444L292.984 179.151L292.832 181.584L297.512 181.876L297.664 179.444ZM293.927 179.7L290.32 174.191L288.281 175.526L291.888 181.035L293.927 179.7ZM288.101 174.643L287.053 180.469L289.452 180.9L290.5 175.075L288.101 174.643ZM288.304 179.467L282.527 179.223L282.424 181.658L288.201 181.902L288.304 179.467ZM300.404 162.574L300.413 161.355L299.441 161.347L299.218 162.293L300.404 162.574ZM312.689 162.671L313.899 162.812L314.056 161.463L312.698 161.452L312.689 162.671ZM312.006 168.546L311.87 169.757L313.077 169.893L313.217 168.686L312.006 168.546ZM305.303 167.79L305.44 166.579L304.151 166.434L304.086 167.729L305.303 167.79ZM305.206 169.74L303.988 169.679L303.921 171.026L305.268 170.957L305.206 169.74ZM310.885 169.447L312.086 169.655L312.345 168.152L310.822 168.23L310.885 169.447ZM309.959 174.81L309.804 176.019L310.961 176.167L311.16 175.017L309.959 174.81ZM305.206 174.201L305.361 172.992L303.748 172.785L304.002 174.391L305.206 174.201ZM306.229 180.684V181.903H307.656L307.433 180.494L306.229 180.684ZM299.746 180.684L298.528 180.732L298.573 181.903H299.746V180.684ZM299.234 167.522L298.048 167.241L298.009 167.403L298.016 167.569L299.234 167.522ZM300.394 163.792L312.679 163.89L312.698 161.452L300.413 161.355L300.394 163.792ZM311.478 162.531L310.796 168.405L313.217 168.686L313.899 162.812L311.478 162.531ZM312.143 167.334L305.44 166.579L305.167 169.001L311.87 169.757L312.143 167.334ZM304.086 167.729L303.988 169.679L306.423 169.801L306.52 167.851L304.086 167.729ZM305.268 170.957L310.948 170.665L310.822 168.23L305.143 168.523L305.268 170.957ZM309.684 169.24L308.758 174.603L311.16 175.017L312.086 169.655L309.684 169.24ZM310.114 173.601L305.361 172.992L305.051 175.409L309.804 176.019L310.114 173.601ZM304.002 174.391L305.025 180.874L307.433 180.494L306.409 174.01L304.002 174.391ZM306.229 179.466H299.746V181.903H306.229V179.466ZM300.963 180.637L300.451 167.474L298.016 167.569L298.528 180.732L300.963 180.637ZM300.42 167.802L301.59 162.854L299.218 162.293L298.048 167.241L300.42 167.802ZM325.906 162.891L326.855 162.127L326.505 161.691L325.946 161.672L325.906 162.891ZM331.22 169.496L332.42 169.705L332.515 169.162L332.169 168.732L331.22 169.496ZM329.708 178.198L330.016 179.377L330.775 179.179L330.909 178.407L329.708 178.198ZM320.08 180.709L319.274 181.622L319.76 182.052L320.388 181.888L320.08 180.709ZM312.402 173.932L311.197 173.751L311.098 174.407L311.596 174.846L312.402 173.932ZM313.548 166.303L312.895 165.274L312.425 165.572L312.342 166.122L313.548 166.303ZM319.276 162.671L319.316 161.453L318.941 161.441L318.623 161.642L319.276 162.671ZM320.714 169.033L320.98 167.844L320.008 167.626L319.601 168.535L320.714 169.033ZM319.471 171.812L318.358 171.314L317.939 172.252L318.792 172.824L319.471 171.812ZM321.616 173.25L320.937 174.262L321.452 174.607L322.034 174.395L321.616 173.25ZM323.883 172.421L324.301 173.566L325.14 173.259L325.1 172.366L323.883 172.421ZM323.761 169.716L324.978 169.661L324.936 168.73L324.027 168.526L323.761 169.716ZM324.956 163.654L330.27 170.26L332.169 168.732L326.855 162.127L324.956 163.654ZM330.019 169.288L328.508 177.99L330.909 178.407L332.42 169.705L330.019 169.288ZM329.401 177.019L319.773 179.529L320.388 181.888L330.016 179.377L329.401 177.019ZM320.887 179.795L313.209 173.019L311.596 174.846L319.274 181.622L320.887 179.795ZM313.607 174.113L314.753 166.484L312.342 166.122L311.197 173.751L313.607 174.113ZM314.2 167.332L319.928 163.7L318.623 161.642L312.895 165.274L314.2 167.332ZM319.236 163.889L325.866 164.109L325.946 161.672L319.316 161.453L319.236 163.889ZM319.601 168.535L318.358 171.314L320.583 172.31L321.826 169.531L319.601 168.535ZM318.792 172.824L320.937 174.262L322.295 172.238L320.15 170.8L318.792 172.824ZM322.034 174.395L324.301 173.566L323.464 171.277L321.197 172.105L322.034 174.395ZM325.1 172.366L324.978 169.661L322.543 169.77L322.665 172.476L325.1 172.366ZM324.027 168.526L320.98 167.844L320.448 170.222L323.494 170.905L324.027 168.526Z" fill="#353535" mask="url(#path-8-outside-2_292_3717)"/>
</g>
<defs>
<filter id="filter0_dd_292_3717" x="0.236389" y="0.602874" width="350.778" height="220.012" filterUnits="userSpaceOnUse" color-interpolation-filters="sRGB">
<feFlood flood-opacity="0" result="BackgroundImageFix"/>
<feColorMatrix in="SourceAlpha" type="matrix" values="0 0 0 0 0 0 0 0 0 0 0 0 0 0 0 0 0 0 127 0" result="hardAlpha"/>
<feOffset dx="4.875" dy="4.875"/>
<feGaussianBlur stdDeviation="4.875"/>
<feComposite in2="hardAlpha" operator="out"/>
<feColorMatrix type="matrix" values="0 0 0 0 0 0 0 0 0 0 0 0 0 0 0 0 0 0 0.15 0"/>
<feBlend mode="normal" in2="BackgroundImageFix" result="effect1_dropShadow_292_3717"/>
<feColorMatrix in="SourceAlpha" type="matrix" values="0 0 0 0 0 0 0 0 0 0 0 0 0 0 0 0 0 0 127 0" result="hardAlpha"/>
<feOffset dx="4.875" dy="4.875"/>
<feComposite in2="hardAlpha" operator="out"/>
<feColorMatrix type="matrix" values="0 0 0 0 0.784948 0 0 0 0 0.738688 0 0 0 0 0.64889 0 0 0 1 0"/>
<feBlend mode="normal" in2="effect1_dropShadow_292_3717" result="effect2_dropShadow_292_3717"/>
<feBlend mode="normal" in="SourceGraphic" in2="effect2_dropShadow_292_3717" result="shape"/>
</filter>
<filter id="filter1_d_292_3717" x="132.012" y="22.8581" width="74.9474" height="20.7919" filterUnits="userSpaceOnUse" color-interpolation-filters="sRGB">
<feFlood flood-opacity="0" result="BackgroundImageFix"/>
<feColorMatrix in="SourceAlpha" type="matrix" values="0 0 0 0 0 0 0 0 0 0 0 0 0 0 0 0 0 0 127 0" result="hardAlpha"/>
<feOffset dx="1.21875" dy="2.4375"/>
<feComposite in2="hardAlpha" operator="out"/>
<feColorMatrix type="matrix" values="0 0 0 0 0.208281 0 0 0 0 0.208281 0 0 0 0 0.208281 0 0 0 1 0"/>
<feBlend mode="normal" in2="BackgroundImageFix" result="effect1_dropShadow_292_3717"/>
<feBlend mode="normal" in="SourceGraphic" in2="effect1_dropShadow_292_3717" result="shape"/>
</filter>
<filter id="filter2_d_292_3717" x="273.695" y="162.452" width="58.7438" height="20.6944" filterUnits="userSpaceOnUse" color-interpolation-filters="sRGB">
<feFlood flood-opacity="0" result="BackgroundImageFix"/>
<feColorMatrix in="SourceAlpha" type="matrix" values="0 0 0 0 0 0 0 0 0 0 0 0 0 0 0 0 0 0 127 0" result="hardAlpha"/>
<feOffset dx="1.21875" dy="2.4375"/>
<feComposite in2="hardAlpha" operator="out"/>
<feColorMatrix type="matrix" values="0 0 0 0 0.208281 0 0 0 0 0.208281 0 0 0 0 0.208281 0 0 0 1 0"/>
<feBlend mode="normal" in2="BackgroundImageFix" result="effect1_dropShadow_292_3717"/>
<feBlend mode="normal" in="SourceGraphic" in2="effect1_dropShadow_292_3717" result="shape"/>
</filter>
<clipPath id="clip0_292_3717">
<rect width="93.8516" height="58.4687" fill="white" transform="translate(257.58 145.368)"/>
</clipPath>
</defs>
</svg>
