<svg width="361" height="226" viewBox="0 0 361 226" fill="none" xmlns="http://www.w3.org/2000/svg">
<g filter="url(#filter0_dd_270_2112)">
<path d="M19.0166 5.25049H329.946L345.136 144.746L326.412 191.845L175.725 186.323L168.689 210.903L158.123 185.677L24.4116 194.277L5.36426 180.079L5.36426 42.9872L19.0166 5.25049Z" fill="#FFFAE7"/>
<path d="M175.124 186.151L168.578 209.02L158.699 185.436L158.527 185.025L158.083 185.054L24.6008 193.639L5.98926 179.765V43.0968L19.4552 5.87549H329.385L344.498 144.659L325.995 191.205L175.748 185.698L175.259 185.68L175.124 186.151Z" stroke="#C8BCA5" stroke-width="1.25"/>
</g>
<g filter="url(#filter1_d_270_2112)">
<mask id="path-3-outside-1_270_2112" maskUnits="userSpaceOnUse" x="113.25" y="20.3129" width="120" height="23" fill="black">
<rect fill="white" x="113.25" y="20.3129" width="120" height="23"/>
<path d="M115.743 39.4129L124.668 22.8879H129.943L131.693 27.8879L134.793 22.8629L139.468 22.7629L144.593 40.7379L137.918 41.2879L136.643 36.7379L135.118 32.3379L130.518 36.4379L126.993 31.7629L122.768 40.7379L115.743 39.4129ZM155.874 22.7879L163.774 40.0129L156.224 41.2129L155.624 36.7879L149.549 36.6379L148.174 41.3629L140.899 40.0629L150.874 23.2879L155.874 22.7879ZM152.149 29.3379L151.124 31.8879L154.949 31.9879L154.074 29.4129L152.149 29.3379ZM162.618 40.9879L165.943 22.7629H169.718L173.243 28.5629L173.543 22.7629L179.343 23.6629L178.118 41.2129L173.318 40.9129L169.618 35.2629L168.543 41.2379L162.618 40.9879ZM179.781 22.7629L198.256 23.0879V30.5879L192.006 29.5629L193.731 41.3379H184.781L186.131 29.5629L179.781 29.2379V22.7629ZM206.507 23.3879L205.782 34.5879L213.457 33.6629L214.157 39.4379L200.257 41.0879L199.557 22.5879L206.507 23.3879ZM216.776 22.6879H229.026L228.001 27.8629L221.976 28.7879L221.901 30.0629L227.226 30.4629L226.976 34.4379L222.226 34.8629L222.651 36.2129L228.426 36.2629L230.551 41.2379H216.776L215.426 29.2879L216.776 22.6879Z"/>
</mask>
<path d="M115.743 39.4129L124.668 22.8879H129.943L131.693 27.8879L134.793 22.8629L139.468 22.7629L144.593 40.7379L137.918 41.2879L136.643 36.7379L135.118 32.3379L130.518 36.4379L126.993 31.7629L122.768 40.7379L115.743 39.4129ZM155.874 22.7879L163.774 40.0129L156.224 41.2129L155.624 36.7879L149.549 36.6379L148.174 41.3629L140.899 40.0629L150.874 23.2879L155.874 22.7879ZM152.149 29.3379L151.124 31.8879L154.949 31.9879L154.074 29.4129L152.149 29.3379ZM162.618 40.9879L165.943 22.7629H169.718L173.243 28.5629L173.543 22.7629L179.343 23.6629L178.118 41.2129L173.318 40.9129L169.618 35.2629L168.543 41.2379L162.618 40.9879ZM179.781 22.7629L198.256 23.0879V30.5879L192.006 29.5629L193.731 41.3379H184.781L186.131 29.5629L179.781 29.2379V22.7629ZM206.507 23.3879L205.782 34.5879L213.457 33.6629L214.157 39.4379L200.257 41.0879L199.557 22.5879L206.507 23.3879ZM216.776 22.6879H229.026L228.001 27.8629L221.976 28.7879L221.901 30.0629L227.226 30.4629L226.976 34.4379L222.226 34.8629L222.651 36.2129L228.426 36.2629L230.551 41.2379H216.776L215.426 29.2879L216.776 22.6879Z" fill="white"/>
<path d="M115.743 39.4129L114.643 38.8189L113.83 40.3241L115.511 40.6412L115.743 39.4129ZM124.668 22.8879V21.6379H123.923L123.568 22.2939L124.668 22.8879ZM129.943 22.8879L131.123 22.4749L130.83 21.6379H129.943V22.8879ZM131.693 27.8879L130.513 28.3008L131.38 30.7765L132.757 28.5442L131.693 27.8879ZM134.793 22.8629L134.766 21.6132L134.086 21.6277L133.729 22.2066L134.793 22.8629ZM139.468 22.7629L140.67 22.4201L140.406 21.4925L139.441 21.5132L139.468 22.7629ZM144.593 40.7379L144.696 41.9836L146.213 41.8587L145.795 40.3951L144.593 40.7379ZM137.918 41.2879L136.715 41.6251L136.993 42.6183L138.021 42.5336L137.918 41.2879ZM136.643 36.7379L137.847 36.4006L137.837 36.3642L137.824 36.3285L136.643 36.7379ZM135.118 32.3379L136.299 31.9285L135.686 30.1577L134.286 31.4047L135.118 32.3379ZM130.518 36.4379L129.52 37.1904L130.337 38.2738L131.35 37.371L130.518 36.4379ZM126.993 31.7629L127.991 31.0103L126.744 29.3566L125.862 31.2305L126.993 31.7629ZM122.768 40.7379L122.536 41.9662L123.487 42.1455L123.899 41.2703L122.768 40.7379ZM116.843 40.0069L125.768 23.4819L123.568 22.2939L114.643 38.8189L116.843 40.0069ZM124.668 24.1379H129.943V21.6379H124.668V24.1379ZM128.763 23.3008L130.513 28.3008L132.873 27.4749L131.123 22.4749L128.763 23.3008ZM132.757 28.5442L135.857 23.5192L133.729 22.2066L130.629 27.2316L132.757 28.5442ZM134.82 24.1126L139.495 24.0126L139.441 21.5132L134.766 21.6132L134.82 24.1126ZM138.266 23.1056L143.391 41.0806L145.795 40.3951L140.67 22.4201L138.266 23.1056ZM144.491 39.4921L137.816 40.0421L138.021 42.5336L144.696 41.9836L144.491 39.4921ZM139.122 40.9506L137.847 36.4006L135.44 37.0751L136.715 41.6251L139.122 40.9506ZM137.824 36.3285L136.299 31.9285L133.937 32.7472L135.462 37.1472L137.824 36.3285ZM134.286 31.4047L129.686 35.5047L131.35 37.371L135.95 33.271L134.286 31.4047ZM131.516 35.6853L127.991 31.0103L125.995 32.5154L129.52 37.1904L131.516 35.6853ZM125.862 31.2305L121.637 40.2055L123.899 41.2703L128.124 32.2953L125.862 31.2305ZM123 39.5095L115.975 38.1845L115.511 40.6412L122.536 41.9662L123 39.5095ZM155.874 22.7879L157.011 22.2668L156.638 21.4552L155.75 21.5441L155.874 22.7879ZM163.774 40.0129L163.971 41.2474L165.597 40.9888L164.911 39.4918L163.774 40.0129ZM156.224 41.2129L154.986 41.3808L155.158 42.6481L156.421 42.4474L156.224 41.2129ZM155.624 36.7879L156.863 36.6199L156.72 35.5645L155.655 35.5382L155.624 36.7879ZM149.549 36.6379L149.58 35.3882L148.618 35.3645L148.349 36.2886L149.549 36.6379ZM148.174 41.3629L147.955 42.5934L149.061 42.791L149.375 41.7121L148.174 41.3629ZM140.899 40.0629L139.825 39.424L138.902 40.9758L140.68 41.2934L140.899 40.0629ZM150.874 23.2879L150.75 22.0441L150.122 22.1068L149.8 22.649L150.874 23.2879ZM152.149 29.3379L152.198 28.0888L151.318 28.0545L150.99 28.8717L152.149 29.3379ZM151.124 31.8879L149.965 31.4217L149.294 33.0904L151.092 33.1374L151.124 31.8879ZM154.949 31.9879L154.917 33.2374L156.71 33.2843L156.133 31.5857L154.949 31.9879ZM154.074 29.4129L155.258 29.0107L154.982 28.1973L154.123 28.1638L154.074 29.4129ZM154.738 23.309L162.638 40.534L164.911 39.4918L157.011 22.2668L154.738 23.309ZM163.578 38.7784L156.028 39.9784L156.421 42.4474L163.971 41.2474L163.578 38.7784ZM157.463 41.0449L156.863 36.6199L154.386 36.9558L154.986 41.3808L157.463 41.0449ZM155.655 35.5382L149.58 35.3882L149.519 37.8875L155.594 38.0375L155.655 35.5382ZM148.349 36.2886L146.974 41.0136L149.375 41.7121L150.75 36.9871L148.349 36.2886ZM148.394 40.1324L141.119 38.8324L140.68 41.2934L147.955 42.5934L148.394 40.1324ZM141.974 40.7017L151.949 23.9267L149.8 22.649L139.825 39.424L141.974 40.7017ZM150.999 24.5317L155.999 24.0317L155.75 21.5441L150.75 22.0441L150.999 24.5317ZM150.99 28.8717L149.965 31.4217L152.284 32.3541L153.309 29.8041L150.99 28.8717ZM151.092 33.1374L154.917 33.2374L154.982 30.7383L151.157 30.6383L151.092 33.1374ZM156.133 31.5857L155.258 29.0107L152.891 29.815L153.766 32.39L156.133 31.5857ZM154.123 28.1638L152.198 28.0888L152.101 30.5869L154.026 30.6619L154.123 28.1638ZM162.618 40.9879L161.388 40.7635L161.131 42.1762L162.565 42.2368L162.618 40.9879ZM165.943 22.7629V21.5129H164.901L164.713 22.5385L165.943 22.7629ZM169.718 22.7629L170.786 22.1137L170.421 21.5129H169.718V22.7629ZM173.243 28.5629L172.175 29.2121L174.282 32.6789L174.491 28.6274L173.243 28.5629ZM173.543 22.7629L173.735 21.5276L172.366 21.3153L172.295 22.6983L173.543 22.7629ZM179.343 23.6629L180.59 23.7499L180.67 22.6038L179.535 22.4276L179.343 23.6629ZM178.118 41.2129L178.04 42.4604L179.279 42.5378L179.365 41.2999L178.118 41.2129ZM173.318 40.9129L172.272 41.5977L172.615 42.1214L173.24 42.1604L173.318 40.9129ZM169.618 35.2629L170.664 34.5781L168.944 31.9515L168.388 35.0415L169.618 35.2629ZM168.543 41.2379L168.49 42.4868L169.58 42.5327L169.773 41.4592L168.543 41.2379ZM163.848 41.2122L167.173 22.9872L164.713 22.5385L161.388 40.7635L163.848 41.2122ZM165.943 24.0129H169.718V21.5129H165.943V24.0129ZM168.65 23.4121L172.175 29.2121L174.311 27.9137L170.786 22.1137L168.65 23.4121ZM174.491 28.6274L174.791 22.8274L172.295 22.6983L171.995 28.4983L174.491 28.6274ZM173.351 23.9981L179.151 24.8981L179.535 22.4276L173.735 21.5276L173.351 23.9981ZM178.096 23.5758L176.871 41.1258L179.365 41.2999L180.59 23.7499L178.096 23.5758ZM178.196 39.9653L173.396 39.6653L173.24 42.1604L178.04 42.4604L178.196 39.9653ZM174.364 40.2281L170.664 34.5781L168.572 35.9477L172.272 41.5977L174.364 40.2281ZM168.388 35.0415L167.313 41.0165L169.773 41.4592L170.848 35.4842L168.388 35.0415ZM168.596 39.989L162.671 39.739L162.565 42.2368L168.49 42.4868L168.596 39.989ZM179.781 22.7629L179.803 21.5131L178.531 21.4907V22.7629H179.781ZM198.256 23.0879H199.506V21.8597L198.278 21.8381L198.256 23.0879ZM198.256 30.5879L198.054 31.8214L199.506 32.0596V30.5879H198.256ZM192.006 29.5629L192.209 28.3293L190.522 28.0527L190.769 29.7441L192.006 29.5629ZM193.731 41.3379V42.5879H195.178L194.968 41.1567L193.731 41.3379ZM184.781 41.3379L183.539 41.1955L183.38 42.5879H184.781V41.3379ZM186.131 29.5629L187.373 29.7052L187.525 28.3826L186.195 28.3145L186.131 29.5629ZM179.781 29.2379H178.531V30.4255L179.717 30.4862L179.781 29.2379ZM179.759 24.0127L198.234 24.3377L198.278 21.8381L179.803 21.5131L179.759 24.0127ZM197.006 23.0879V30.5879H199.506V23.0879H197.006ZM198.459 29.3543L192.209 28.3293L191.804 30.7964L198.054 31.8214L198.459 29.3543ZM190.769 29.7441L192.494 41.5191L194.968 41.1567L193.243 29.3817L190.769 29.7441ZM193.731 40.0879H184.781V42.5879H193.731V40.0879ZM186.023 41.4802L187.373 29.7052L184.889 29.4205L183.539 41.1955L186.023 41.4802ZM186.195 28.3145L179.845 27.9895L179.717 30.4862L186.067 30.8112L186.195 28.3145ZM181.031 29.2379V22.7629H178.531V29.2379H181.031ZM206.507 23.3879L207.754 23.4686L207.831 22.282L206.65 22.1461L206.507 23.3879ZM205.782 34.5879L204.534 34.5071L204.437 36.009L205.931 35.8289L205.782 34.5879ZM213.457 33.6629L214.698 33.5125L214.547 32.2724L213.307 32.4218L213.457 33.6629ZM214.157 39.4379L214.304 40.6792L215.548 40.5314L215.398 39.2875L214.157 39.4379ZM200.257 41.0879L199.008 41.1351L199.059 42.4888L200.404 42.3292L200.257 41.0879ZM199.557 22.5879L199.7 21.3461L198.252 21.1795L198.308 22.6351L199.557 22.5879ZM205.259 23.3071L204.534 34.5071L207.029 34.6686L207.754 23.4686L205.259 23.3071ZM205.931 35.8289L213.606 34.9039L213.307 32.4218L205.632 33.3468L205.931 35.8289ZM212.216 33.8133L212.916 39.5883L215.398 39.2875L214.698 33.5125L212.216 33.8133ZM214.009 38.1966L200.109 39.8466L200.404 42.3292L214.304 40.6792L214.009 38.1966ZM201.506 41.0406L200.806 22.5406L198.308 22.6351L199.008 41.1351L201.506 41.0406ZM199.414 23.8297L206.364 24.6297L206.65 22.1461L199.7 21.3461L199.414 23.8297ZM216.776 22.6879V21.4379H215.756L215.551 22.4374L216.776 22.6879ZM229.026 22.6879L230.252 22.9307L230.548 21.4379H229.026V22.6879ZM228.001 27.8629L228.19 29.0984L229.057 28.9654L229.227 28.1057L228.001 27.8629ZM221.976 28.7879L221.786 27.5523L220.787 27.7057L220.728 28.7145L221.976 28.7879ZM221.901 30.0629L220.653 29.9895L220.581 31.2172L221.807 31.3094L221.901 30.0629ZM227.226 30.4629L228.473 30.5413L228.551 29.3089L227.319 29.2164L227.226 30.4629ZM226.976 34.4379L227.087 35.6829L228.156 35.5873L228.223 34.5163L226.976 34.4379ZM222.226 34.8629L222.114 33.6178L220.567 33.7563L221.033 35.2382L222.226 34.8629ZM222.651 36.2129L221.458 36.5882L221.731 37.455L222.64 37.4628L222.651 36.2129ZM228.426 36.2629L229.575 35.7719L229.254 35.02L228.437 35.0129L228.426 36.2629ZM230.551 41.2379V42.4879H232.444L231.7 40.7469L230.551 41.2379ZM216.776 41.2379L215.534 41.3782L215.659 42.4879H216.776V41.2379ZM215.426 29.2879L214.201 29.0374L214.161 29.2314L214.184 29.4282L215.426 29.2879ZM216.776 23.9379H229.026V21.4379H216.776V23.9379ZM227.8 22.445L226.775 27.62L229.227 28.1057L230.252 22.9307L227.8 22.445ZM227.811 26.6273L221.786 27.5523L222.165 30.0234L228.19 29.0984L227.811 26.6273ZM220.728 28.7145L220.653 29.9895L223.149 30.1363L223.224 28.8613L220.728 28.7145ZM221.807 31.3094L227.132 31.7094L227.319 29.2164L221.994 28.8164L221.807 31.3094ZM225.978 30.3844L225.728 34.3594L228.223 34.5163L228.473 30.5413L225.978 30.3844ZM226.864 33.1928L222.114 33.6178L222.337 36.1079L227.087 35.6829L226.864 33.1928ZM221.033 35.2382L221.458 36.5882L223.843 35.8375L223.418 34.4875L221.033 35.2382ZM222.64 37.4628L228.415 37.5128L228.437 35.0129L222.662 34.9629L222.64 37.4628ZM227.276 36.7539L229.401 41.7289L231.7 40.7469L229.575 35.7719L227.276 36.7539ZM230.551 39.9879H216.776V42.4879H230.551V39.9879ZM218.018 41.0975L216.668 29.1475L214.184 29.4282L215.534 41.3782L218.018 41.0975ZM216.65 29.5384L218 22.9384L215.551 22.4374L214.201 29.0374L216.65 29.5384Z" fill="#353535" mask="url(#path-3-outside-1_270_2112)"/>
</g>
<path d="M25.25 72.3279L38.1825 72.5554V77.8054L33.8075 77.0879L35.015 85.3304H28.75L29.695 77.0879L25.25 76.8604V72.3279ZM39.0928 73.0979L43.5028 72.2579L43.7128 77.5954L46.2853 77.2104L46.4428 72.5029L50.0478 72.6604L50.7478 85.2254L46.6878 85.0854L46.6528 81.1479L44.2028 81.6204L44.2903 85.2254H40.4928L39.0928 73.0979ZM51.1944 72.3804L54.5894 72.1704L57.2144 84.5604L51.6494 85.1729L51.1944 72.3804ZM70.186 75.5829L67.9285 78.3654L65.286 76.6679L64.621 77.5079L69.346 80.9729L67.0535 85.2954H61.436L57.516 82.1804L59.2135 79.3279L62.591 81.2354L63.0985 80.4479L58.146 77.5079L62.836 72.2579H67.0535L70.186 75.5829ZM79.0851 72.3804L82.4801 72.1704L85.1051 84.5604L79.5401 85.1729L79.0851 72.3804ZM98.0767 75.5829L95.8192 78.3654L93.1767 76.6679L92.5117 77.5079L97.2367 80.9729L94.9442 85.2954H89.3267L85.4067 82.1804L87.1042 79.3279L90.4817 81.2354L90.9892 80.4479L86.0367 77.5079L90.7267 72.2579H94.9442L98.0767 75.5829ZM106.888 72.3279L119.821 72.5554V77.8054L115.446 77.0879L116.653 85.3304H110.388L111.333 77.0879L106.888 76.8604V72.3279ZM120.731 73.0979L125.141 72.2579L125.351 77.5954L127.923 77.2104L128.081 72.5029L131.686 72.6604L132.386 85.2254L128.326 85.0854L128.291 81.1479L125.841 81.6204L125.928 85.2254H122.131L120.731 73.0979ZM133.69 72.2754H142.265L141.548 75.8979L137.33 76.5454L137.278 77.4379L141.005 77.7179L140.83 80.5004L137.505 80.7979L137.803 81.7429L141.845 81.7779L143.333 85.2604H133.69L132.745 76.8954L133.69 72.2754ZM152.472 72.2754H161.047L160.329 75.8979L156.112 76.5454L156.059 77.4379L159.787 77.7179L159.612 80.5004L156.287 80.7979L156.584 81.7429L160.627 81.7779L162.114 85.2604H152.472L151.527 76.8954L152.472 72.2754ZM165.059 72.3804L167.806 75.1804L169.836 72.1879L173.161 75.3729L170.746 78.2254L174.736 81.3579L171.411 85.1904L168.541 81.4454L164.901 85.1029L161.559 81.7954L165.426 78.3129L162.486 75.0229L165.059 72.3804ZM182.729 72.3454L188.259 84.4029L182.974 85.2429L182.554 82.1454L178.302 82.0404L177.339 85.3479L172.247 84.4379L179.229 72.6954L182.729 72.3454ZM180.122 76.9304L179.404 78.7154L182.082 78.7854L181.469 76.9829L180.122 76.9304ZM187.45 83.9829L193.697 72.4154H197.39L198.615 75.9154L200.785 72.3979L204.057 72.3279L207.645 84.9104L202.972 85.2954L202.08 82.1104L201.012 79.0304L197.792 81.9004L195.325 78.6279L192.367 84.9104L187.45 83.9829ZM215.419 72.3629L218.499 74.4804L218.744 79.6604L215.629 82.6704L211.762 82.9154V85.3829H207.684L208.332 72.3629H215.419ZM212.479 76.3529L212.357 78.4704L213.512 78.6279L214.982 76.8954L212.479 76.3529ZM223.675 72.7654L223.167 80.6054L228.54 79.9579L229.03 84.0004L219.3 85.1554L218.81 72.2054L223.675 72.7654ZM230.863 72.2754H239.438L238.72 75.8979L234.503 76.5454L234.45 77.4379L238.178 77.7179L238.003 80.5004L234.678 80.7979L234.975 81.7429L239.018 81.7779L240.505 85.2604H230.863L229.918 76.8954L230.863 72.2754ZM37.9375 96.5829L35.68 99.3654L33.0375 97.6679L32.3725 98.5079L37.0975 101.973L34.805 106.295H29.1875L25.2675 103.18L26.965 100.328L30.3425 102.235L30.85 101.448L25.8975 98.5079L30.5875 93.2579H34.805L37.9375 96.5829ZM38.944 93.2754H47.519L46.8015 96.8979L42.584 97.5454L42.5315 98.4379L46.259 98.7179L46.084 101.5L42.759 101.798L43.0565 102.743L47.099 102.778L48.5865 106.26H38.944L37.999 97.8954L38.944 93.2754ZM48.0308 106.085L50.3583 93.3279H53.0008L55.4683 97.3879L55.6783 93.3279L59.7383 93.9579L58.8808 106.243L55.5208 106.033L52.9308 102.078L52.1783 106.26L48.0308 106.085ZM60.0449 93.3279L72.9774 93.5554V98.8054L68.6024 98.0879L69.8099 106.33H63.5449L64.4899 98.0879L60.0449 97.8604V93.3279ZM74.8327 93.2754H83.4077L82.6902 96.8979L78.4727 97.5454L78.4202 98.4379L82.1477 98.7179L81.9727 101.5L78.6477 101.798L78.9452 102.743L82.9877 102.778L84.4752 106.26H74.8327L73.8877 97.8954L74.8327 93.2754ZM83.9194 106.085L86.2469 93.3279H88.8894L91.3569 97.3879L91.5669 93.3279L95.6269 93.9579L94.7694 106.243L91.4094 106.033L88.8194 102.078L88.0669 106.26L83.9194 106.085ZM100.956 93.2929L105.786 93.6079L105.594 98.2454L102.444 96.7754L99.6961 98.0529L99.5736 101.028L101.989 102.673L105.541 100.818L106.731 105.7L99.7486 106.313L96.3361 103.32L95.3211 99.5579L96.8961 95.5154L100.956 93.2929ZM107.645 93.2754H116.22L115.503 96.8979L111.285 97.5454L111.233 98.4379L114.96 98.7179L114.785 101.5L111.46 101.798L111.758 102.743L115.8 102.778L117.288 106.26H107.645L106.7 97.8954L107.645 93.2754ZM131.922 93.2929L135.597 96.3029L136.349 103.32L132.727 106.278H125.482V94.0804L131.922 93.2929ZM129.489 97.9654V101.78L131.852 100.958V99.0504L129.489 97.9654ZM137.535 93.2754H146.11L145.393 96.8979L141.175 97.5454L141.123 98.4379L144.85 98.7179L144.675 101.5L141.35 101.798L141.648 102.743L145.69 102.778L147.178 106.26H137.535L136.59 97.8954L137.535 93.2754ZM159.31 96.5829L157.052 99.3654L154.41 97.6679L153.745 98.5079L158.47 101.973L156.177 106.295H150.56L146.64 103.18L148.337 100.328L151.715 102.235L152.222 101.448L147.27 98.5079L151.96 93.2579H156.177L159.31 96.5829ZM164.394 93.2929L169.224 93.6079L169.031 98.2454L165.881 96.7754L163.134 98.0529L163.011 101.028L165.426 102.673L168.979 100.818L170.169 105.7L163.186 106.313L159.774 103.32L158.759 99.5579L160.334 95.5154L164.394 93.2929ZM177.4 93.3804L180.638 95.7429L180.935 99.8204L179.115 101.85L182.353 104.703L178.555 106.348L174.583 102.953L175.178 106.33H171.153L170.138 93.9404L177.4 93.3804ZM174.583 97.0029L174.478 99.4879L175.545 99.6279L176.613 98.0879L174.583 97.0029ZM182.068 93.3804L185.463 93.1704L188.088 105.56L182.523 106.173L182.068 93.3804ZM190.788 93.2404L196.86 93.9579L198.26 96.1979L198.155 98.5954L197.245 99.9604L198.523 100.695L199.38 103.198L198.4 105.525L196.37 106.243L188.74 106.295L188.39 93.9929L190.788 93.2404ZM192.87 103.653L194.655 103.268V102.078L192.87 101.465V103.653ZM192.643 98.2279L194.41 97.8604V96.4254L192.643 96.0404V98.2279ZM199.056 93.3804L202.451 93.1704L205.076 105.56L199.511 106.173L199.056 93.3804ZM205.36 106.085L207.687 93.3279H210.33L212.797 97.3879L213.007 93.3279L217.067 93.9579L216.21 106.243L212.85 106.033L210.26 102.078L209.507 106.26L205.36 106.085ZM228.347 95.9704L225.354 97.6504L224.147 96.9854L222.362 97.5279L221.294 100.065L222.414 102.428L225.634 102.043L225.704 101.465L223.219 101.693L223.534 98.1754L228.714 98.2454V105.158L220.017 106.278L217.374 100.905L218.337 95.9704L222.047 93.2754L226.597 93.5904L228.347 95.9704ZM237.796 93.3279L250.729 93.5554V98.8054L246.354 98.0879L247.561 106.33H241.296L242.241 98.0879L237.796 97.8604V93.3279ZM251.639 94.0979L256.049 93.2579L256.259 98.5954L258.832 98.2104L258.989 93.5029L262.594 93.6604L263.294 106.225L259.234 106.085L259.199 102.148L256.749 102.62L256.837 106.225H253.039L251.639 94.0979ZM264.598 93.2754H273.173L272.456 96.8979L268.238 97.5454L268.186 98.4379L271.913 98.7179L271.738 101.5L268.413 101.798L268.711 102.743L272.753 102.778L274.241 106.26H264.598L263.653 97.8954L264.598 93.2754ZM30.115 114.765L29.6075 122.605L34.98 121.958L35.47 126L25.74 127.155L25.25 114.205L30.115 114.765ZM45.4934 114.485L49.3084 119.228L48.2234 125.475L41.3109 127.278L35.7984 122.413L36.6209 116.935L40.7334 114.328L45.4934 114.485ZM41.7659 118.895L40.8734 120.89L42.4134 121.923L44.0409 121.328L43.9534 119.385L41.7659 118.895ZM54.6597 114.293L59.4897 114.608L59.2972 119.245L56.1472 117.775L53.3997 119.053L53.2772 122.028L55.6922 123.673L59.2447 121.818L60.4347 126.7L53.4522 127.313L50.0397 124.32L49.0247 120.558L50.5997 116.515L54.6597 114.293ZM68.2613 114.345L73.7913 126.403L68.5063 127.243L68.0863 124.145L63.8338 124.04L62.8713 127.348L57.7788 126.438L64.7613 114.695L68.2613 114.345ZM65.6538 118.93L64.9363 120.715L67.6138 120.785L67.0013 118.983L65.6538 118.93ZM72.9819 114.328L85.9144 114.555V119.805L81.5394 119.088L82.7469 127.33H76.4819L77.4269 119.088L72.9819 118.86V114.328ZM86.9122 114.38L90.3072 114.17L92.9322 126.56L87.3672 127.173L86.9122 114.38ZM102.351 114.485L106.166 119.228L105.081 125.475L98.1688 127.278L92.6563 122.413L93.4788 116.935L97.5913 114.328L102.351 114.485ZM98.6238 118.895L97.7313 120.89L99.2713 121.923L100.899 121.328L100.811 119.385L98.6238 118.895ZM106.495 127.085L108.823 114.328H111.465L113.933 118.388L114.143 114.328L118.203 114.958L117.345 127.243L113.985 127.033L111.395 123.078L110.643 127.26L106.495 127.085ZM120.382 124.285H121.764L122.587 125.72L122.009 126.788L120.382 127.155L119.629 125.878L120.382 124.285Z" fill="#77684D"/>
<g clip-path="url(#clip0_270_2112)">
<path d="M271.961 151.955L319.137 148.686L352.419 151.955L360.008 188.083L357.814 203.905L301.782 209.119L266.344 206.197L264.327 165.113L271.961 151.955Z" fill="#353535"/>
<path d="M266.43 166.352L273.559 154.665L318.914 151.676L350.672 154.643L357.905 187.388L355.866 201.37L302.097 206.128L268.346 203.483L266.43 166.352Z" fill="#ED4650" stroke="white" stroke-width="1.25"/>
</g>
<g filter="url(#filter2_d_270_2112)">
<mask id="path-8-outside-2_270_2112" maskUnits="userSpaceOnUse" x="279.25" y="164.563" width="62" height="23" fill="black">
<rect fill="white" x="279.25" y="164.563" width="62" height="23"/>
<path d="M280.578 167.088L285.428 166.788L289.178 184.488L281.228 185.363L280.578 167.088ZM289.583 185.238L292.908 167.013H296.683L300.208 172.813L300.508 167.013L306.308 167.913L305.083 185.463L300.283 185.163L296.583 179.513L295.508 185.488L289.583 185.238ZM307.972 166.913L320.572 167.013L319.872 173.038L312.997 172.263L312.897 174.263L318.722 173.963L317.772 179.463L312.897 178.838L313.947 185.488H307.297L306.772 171.988L307.972 166.913ZM334.128 167.238L339.578 174.013L338.028 182.938L328.153 185.513L320.278 178.563L321.453 170.738L327.328 167.013L334.128 167.238ZM328.803 173.538L327.528 176.388L329.728 177.863L332.053 177.013L331.928 174.238L328.803 173.538Z"/>
</mask>
<path d="M280.578 167.088L285.428 166.788L289.178 184.488L281.228 185.363L280.578 167.088ZM289.583 185.238L292.908 167.013H296.683L300.208 172.813L300.508 167.013L306.308 167.913L305.083 185.463L300.283 185.163L296.583 179.513L295.508 185.488L289.583 185.238ZM307.972 166.913L320.572 167.013L319.872 173.038L312.997 172.263L312.897 174.263L318.722 173.963L317.772 179.463L312.897 178.838L313.947 185.488H307.297L306.772 171.988L307.972 166.913ZM334.128 167.238L339.578 174.013L338.028 182.938L328.153 185.513L320.278 178.563L321.453 170.738L327.328 167.013L334.128 167.238ZM328.803 173.538L327.528 176.388L329.728 177.863L332.053 177.013L331.928 174.238L328.803 173.538Z" fill="white"/>
<path d="M280.578 167.088L280.5 165.84L279.285 165.915L279.328 167.132L280.578 167.088ZM285.428 166.788L286.65 166.529L286.427 165.474L285.35 165.54L285.428 166.788ZM289.178 184.488L289.314 185.73L290.687 185.579L290.4 184.229L289.178 184.488ZM281.228 185.363L279.978 185.407L280.026 186.753L281.364 186.605L281.228 185.363ZM280.655 168.335L285.505 168.035L285.35 165.54L280.5 165.84L280.655 168.335ZM284.205 167.047L287.955 184.747L290.4 184.229L286.65 166.529L284.205 167.047ZM289.041 183.245L281.091 184.12L281.364 186.605L289.314 185.73L289.041 183.245ZM282.477 185.318L281.827 167.043L279.328 167.132L279.978 185.407L282.477 185.318ZM289.583 185.238L288.354 185.014L288.096 186.426L289.531 186.487L289.583 185.238ZM292.908 167.013V165.763H291.866L291.679 166.789L292.908 167.013ZM296.683 167.013L297.752 166.364L297.387 165.763H296.683V167.013ZM300.208 172.813L299.14 173.462L301.247 176.929L301.457 172.877L300.208 172.813ZM300.508 167.013L300.7 165.778L299.332 165.565L299.26 166.948L300.508 167.013ZM306.308 167.913L307.555 168L307.635 166.854L306.5 166.678L306.308 167.913ZM305.083 185.463L305.006 186.71L306.244 186.788L306.33 185.55L305.083 185.463ZM300.283 185.163L299.238 185.848L299.581 186.371L300.206 186.41L300.283 185.163ZM296.583 179.513L297.629 178.828L295.909 176.202L295.353 179.292L296.583 179.513ZM295.508 185.488L295.456 186.737L296.546 186.783L296.739 185.709L295.508 185.488ZM290.813 185.462L294.138 167.237L291.679 166.789L288.354 185.014L290.813 185.462ZM292.908 168.263H296.683V165.763H292.908V168.263ZM295.615 167.662L299.14 173.462L301.277 172.164L297.752 166.364L295.615 167.662ZM301.457 172.877L301.757 167.077L299.26 166.948L298.96 172.748L301.457 172.877ZM300.317 168.248L306.117 169.148L306.5 166.678L300.7 165.778L300.317 168.248ZM305.062 167.826L303.837 185.376L306.33 185.55L307.555 168L305.062 167.826ZM305.161 184.215L300.361 183.915L300.206 186.41L305.006 186.71L305.161 184.215ZM301.329 184.478L297.629 178.828L295.538 180.198L299.238 185.848L301.329 184.478ZM295.353 179.292L294.278 185.267L296.739 185.709L297.814 179.734L295.353 179.292ZM295.561 184.239L289.636 183.989L289.531 186.487L295.456 186.737L295.561 184.239ZM307.972 166.913L307.982 165.663L306.985 165.655L306.755 166.625L307.972 166.913ZM320.572 167.013L321.813 167.157L321.974 165.774L320.582 165.763L320.572 167.013ZM319.872 173.038L319.732 174.28L320.969 174.42L321.113 173.182L319.872 173.038ZM312.997 172.263L313.137 171.021L311.815 170.872L311.748 172.2L312.997 172.263ZM312.897 174.263L311.648 174.2L311.579 175.582L312.961 175.511L312.897 174.263ZM318.722 173.963L319.953 174.176L320.22 172.634L318.657 172.715L318.722 173.963ZM317.772 179.463L317.613 180.703L318.8 180.855L319.003 179.676L317.772 179.463ZM312.897 178.838L313.056 177.598L311.402 177.386L311.662 179.033L312.897 178.838ZM313.947 185.488V186.738H315.409L315.181 185.293L313.947 185.488ZM307.297 185.488L306.048 185.536L306.094 186.738H307.297V185.488ZM306.772 171.988L305.555 171.7L305.516 171.866L305.523 172.036L306.772 171.988ZM307.962 168.163L320.562 168.263L320.582 165.763L307.982 165.663L307.962 168.163ZM319.33 166.869L318.63 172.894L321.113 173.182L321.813 167.157L319.33 166.869ZM320.012 171.796L313.137 171.021L312.857 173.505L319.732 174.28L320.012 171.796ZM311.748 172.2L311.648 174.2L314.145 174.325L314.245 172.325L311.748 172.2ZM312.961 175.511L318.786 175.211L318.657 172.715L312.832 173.015L312.961 175.511ZM317.49 173.75L316.54 179.25L319.003 179.676L319.953 174.176L317.49 173.75ZM317.931 178.223L313.056 177.598L312.738 180.078L317.613 180.703L317.931 178.223ZM311.662 179.033L312.712 185.683L315.181 185.293L314.131 178.643L311.662 179.033ZM313.947 184.238H307.297V186.738H313.947V184.238ZM308.546 185.439L308.021 171.939L305.523 172.036L306.048 185.536L308.546 185.439ZM307.988 172.276L309.188 167.2L306.755 166.625L305.555 171.7L307.988 172.276ZM334.128 167.238L335.102 166.454L334.742 166.008L334.169 165.989L334.128 167.238ZM339.578 174.013L340.809 174.227L340.906 173.67L340.552 173.229L339.578 174.013ZM338.028 182.938L338.343 184.147L339.122 183.944L339.259 183.152L338.028 182.938ZM328.153 185.513L327.326 186.45L327.824 186.89L328.468 186.722L328.153 185.513ZM320.278 178.563L319.041 178.377L318.94 179.05L319.451 179.5L320.278 178.563ZM321.453 170.738L320.783 169.682L320.301 169.988L320.216 170.552L321.453 170.738ZM327.328 167.013L327.369 165.764L326.984 165.751L326.658 165.957L327.328 167.013ZM328.803 173.538L329.076 172.318L328.079 172.095L327.662 173.027L328.803 173.538ZM327.528 176.388L326.387 175.877L325.956 176.839L326.832 177.426L327.528 176.388ZM329.728 177.863L329.032 178.901L329.56 179.255L330.157 179.037L329.728 177.863ZM332.053 177.013L332.482 178.187L333.343 177.872L333.301 176.957L332.053 177.013ZM331.928 174.238L333.176 174.182L333.133 173.227L332.201 173.018L331.928 174.238ZM333.154 168.021L338.604 174.796L340.552 173.229L335.102 166.454L333.154 168.021ZM338.346 173.799L336.796 182.724L339.259 183.152L340.809 174.227L338.346 173.799ZM337.712 181.728L327.837 184.303L328.468 186.722L338.343 184.147L337.712 181.728ZM328.98 184.576L321.105 177.626L319.451 179.5L327.326 186.45L328.98 184.576ZM321.514 178.748L322.689 170.923L320.216 170.552L319.041 178.377L321.514 178.748ZM322.122 171.794L327.997 168.069L326.658 165.957L320.783 169.682L322.122 171.794ZM327.286 168.262L334.086 168.487L334.169 165.989L327.369 165.764L327.286 168.262ZM327.662 173.027L326.387 175.877L328.669 176.898L329.944 174.048L327.662 173.027ZM326.832 177.426L329.032 178.901L330.424 176.825L328.224 175.35L326.832 177.426ZM330.157 179.037L332.482 178.187L331.623 175.839L329.298 176.689L330.157 179.037ZM333.301 176.957L333.176 174.182L330.679 174.294L330.804 177.069L333.301 176.957ZM332.201 173.018L329.076 172.318L328.529 174.758L331.654 175.458L332.201 173.018Z" fill="#353535" mask="url(#path-8-outside-2_270_2112)"/>
</g>
<defs>
<filter id="filter0_dd_270_2112" x="0.364258" y="0.250488" width="359.772" height="225.653" filterUnits="userSpaceOnUse" color-interpolation-filters="sRGB">
<feFlood flood-opacity="0" result="BackgroundImageFix"/>
<feColorMatrix in="SourceAlpha" type="matrix" values="0 0 0 0 0 0 0 0 0 0 0 0 0 0 0 0 0 0 127 0" result="hardAlpha"/>
<feOffset dx="5" dy="5"/>
<feGaussianBlur stdDeviation="5"/>
<feComposite in2="hardAlpha" operator="out"/>
<feColorMatrix type="matrix" values="0 0 0 0 0 0 0 0 0 0 0 0 0 0 0 0 0 0 0.15 0"/>
<feBlend mode="normal" in2="BackgroundImageFix" result="effect1_dropShadow_270_2112"/>
<feColorMatrix in="SourceAlpha" type="matrix" values="0 0 0 0 0 0 0 0 0 0 0 0 0 0 0 0 0 0 127 0" result="hardAlpha"/>
<feOffset dx="5" dy="5"/>
<feComposite in2="hardAlpha" operator="out"/>
<feColorMatrix type="matrix" values="0 0 0 0 0.784948 0 0 0 0 0.738688 0 0 0 0 0.64889 0 0 0 1 0"/>
<feBlend mode="normal" in2="effect1_dropShadow_270_2112" result="effect2_dropShadow_270_2112"/>
<feBlend mode="normal" in="SourceGraphic" in2="effect2_dropShadow_270_2112" result="shape"/>
</filter>
<filter id="filter1_d_270_2112" x="115.743" y="22.5879" width="116.058" height="21.275" filterUnits="userSpaceOnUse" color-interpolation-filters="sRGB">
<feFlood flood-opacity="0" result="BackgroundImageFix"/>
<feColorMatrix in="SourceAlpha" type="matrix" values="0 0 0 0 0 0 0 0 0 0 0 0 0 0 0 0 0 0 127 0" result="hardAlpha"/>
<feOffset dx="1.25" dy="2.5"/>
<feComposite in2="hardAlpha" operator="out"/>
<feColorMatrix type="matrix" values="0 0 0 0 0.208281 0 0 0 0 0.208281 0 0 0 0 0.208281 0 0 0 1 0"/>
<feBlend mode="normal" in2="BackgroundImageFix" result="effect1_dropShadow_270_2112"/>
<feBlend mode="normal" in="SourceGraphic" in2="effect1_dropShadow_270_2112" result="shape"/>
</filter>
<filter id="filter2_d_270_2112" x="280.578" y="166.788" width="60.25" height="21.225" filterUnits="userSpaceOnUse" color-interpolation-filters="sRGB">
<feFlood flood-opacity="0" result="BackgroundImageFix"/>
<feColorMatrix in="SourceAlpha" type="matrix" values="0 0 0 0 0 0 0 0 0 0 0 0 0 0 0 0 0 0 127 0" result="hardAlpha"/>
<feOffset dx="1.25" dy="2.5"/>
<feComposite in2="hardAlpha" operator="out"/>
<feColorMatrix type="matrix" values="0 0 0 0 0.208281 0 0 0 0 0.208281 0 0 0 0 0.208281 0 0 0 1 0"/>
<feBlend mode="normal" in2="BackgroundImageFix" result="effect1_dropShadow_270_2112"/>
<feBlend mode="normal" in="SourceGraphic" in2="effect1_dropShadow_270_2112" result="shape"/>
</filter>
<clipPath id="clip0_270_2112">
<rect width="95.6808" height="60.4328" fill="white" transform="translate(264.327 148.686)"/>
</clipPath>
</defs>
</svg>
