<svg width="361" height="226" viewBox="0 0 361 226" fill="none" xmlns="http://www.w3.org/2000/svg">
<g filter="url(#filter0_dd_292_2868)">
<path d="M19.0166 5.25049H329.946L345.136 144.746L326.412 191.845L175.725 186.323L168.689 210.903L158.123 185.677L24.4116 194.277L5.36426 180.079L5.36426 42.9872L19.0166 5.25049Z" fill="#FFFAE7"/>
<path d="M175.124 186.151L168.578 209.02L158.699 185.436L158.527 185.025L158.083 185.054L24.6008 193.639L5.98926 179.765V43.0968L19.4552 5.87549H329.385L344.498 144.659L325.995 191.205L175.748 185.698L175.259 185.68L175.124 186.151Z" stroke="#C8BCA5" stroke-width="1.25"/>
</g>
<g filter="url(#filter1_d_292_2868)">
<mask id="path-3-outside-1_292_2868" maskUnits="userSpaceOnUse" x="90.25" y="21.3129" width="165" height="22" fill="black">
<rect fill="white" x="90.25" y="21.3129" width="165" height="22"/>
<path d="M92.5742 39.4129L101.499 22.8879H106.774L108.524 27.8879L111.624 22.8629L116.299 22.7629L121.424 40.7379L114.749 41.2879L113.474 36.7379L111.949 32.3379L107.349 36.4379L103.824 31.7629L99.5992 40.7379L92.5742 39.4129ZM134.53 22.9879L139.98 29.7629L138.43 38.6879L128.555 41.2629L120.68 34.3129L121.855 26.4879L127.73 22.7629L134.53 22.9879ZM129.205 29.2879L127.93 32.1379L130.13 33.6129L132.455 32.7629L132.33 29.9879L129.205 29.2879ZM153.5 22.9879L158.95 29.7629L157.4 38.6879L147.525 41.2629L139.65 34.3129L140.825 26.4879L146.7 22.7629L153.5 22.9879ZM148.175 29.2879L146.9 32.1379L149.1 33.6129L151.425 32.7629L151.3 29.9879L148.175 29.2879ZM159.42 40.9879L162.745 22.7629H166.52L170.045 28.5629L170.345 22.7629L176.145 23.6629L174.92 41.2129L170.12 40.9129L166.42 35.2629L165.345 41.2379L159.42 40.9879ZM180.033 22.6379L188.708 23.6629L190.708 26.8629L190.558 30.2879L189.258 32.2379L191.083 33.2879L192.308 36.8629L190.908 40.1879L188.008 41.2129L177.108 41.2879L176.608 23.7129L180.033 22.6379ZM183.008 37.5129L185.558 36.9629V35.2629L183.008 34.3879V37.5129ZM182.683 29.7629L185.208 29.2379V27.1879L182.683 26.6379V29.7629ZM193.07 22.6879H205.32L204.295 27.8629L198.27 28.7879L198.195 30.0629L203.52 30.4629L203.27 34.4379L198.52 34.8629L198.945 36.2129L204.72 36.2629L206.845 41.2379H193.07L191.72 29.2879L193.07 22.6879ZM217.276 22.7879L225.176 40.0129L217.626 41.2129L217.026 36.7879L210.951 36.6379L209.576 41.3629L202.301 40.0629L212.276 23.2879L217.276 22.7879ZM213.551 29.3379L212.526 31.8879L216.351 31.9879L215.476 29.4129L213.551 29.3379ZM224.02 39.4129L232.945 22.8879H238.22L239.97 27.8879L243.07 22.8629L247.745 22.7629L252.87 40.7379L246.195 41.2879L244.92 36.7379L243.395 32.3379L238.795 36.4379L235.27 31.7629L231.045 40.7379L224.02 39.4129Z"/>
</mask>
<path d="M92.5742 39.4129L101.499 22.8879H106.774L108.524 27.8879L111.624 22.8629L116.299 22.7629L121.424 40.7379L114.749 41.2879L113.474 36.7379L111.949 32.3379L107.349 36.4379L103.824 31.7629L99.5992 40.7379L92.5742 39.4129ZM134.53 22.9879L139.98 29.7629L138.43 38.6879L128.555 41.2629L120.68 34.3129L121.855 26.4879L127.73 22.7629L134.53 22.9879ZM129.205 29.2879L127.93 32.1379L130.13 33.6129L132.455 32.7629L132.33 29.9879L129.205 29.2879ZM153.5 22.9879L158.95 29.7629L157.4 38.6879L147.525 41.2629L139.65 34.3129L140.825 26.4879L146.7 22.7629L153.5 22.9879ZM148.175 29.2879L146.9 32.1379L149.1 33.6129L151.425 32.7629L151.3 29.9879L148.175 29.2879ZM159.42 40.9879L162.745 22.7629H166.52L170.045 28.5629L170.345 22.7629L176.145 23.6629L174.92 41.2129L170.12 40.9129L166.42 35.2629L165.345 41.2379L159.42 40.9879ZM180.033 22.6379L188.708 23.6629L190.708 26.8629L190.558 30.2879L189.258 32.2379L191.083 33.2879L192.308 36.8629L190.908 40.1879L188.008 41.2129L177.108 41.2879L176.608 23.7129L180.033 22.6379ZM183.008 37.5129L185.558 36.9629V35.2629L183.008 34.3879V37.5129ZM182.683 29.7629L185.208 29.2379V27.1879L182.683 26.6379V29.7629ZM193.07 22.6879H205.32L204.295 27.8629L198.27 28.7879L198.195 30.0629L203.52 30.4629L203.27 34.4379L198.52 34.8629L198.945 36.2129L204.72 36.2629L206.845 41.2379H193.07L191.72 29.2879L193.07 22.6879ZM217.276 22.7879L225.176 40.0129L217.626 41.2129L217.026 36.7879L210.951 36.6379L209.576 41.3629L202.301 40.0629L212.276 23.2879L217.276 22.7879ZM213.551 29.3379L212.526 31.8879L216.351 31.9879L215.476 29.4129L213.551 29.3379ZM224.02 39.4129L232.945 22.8879H238.22L239.97 27.8879L243.07 22.8629L247.745 22.7629L252.87 40.7379L246.195 41.2879L244.92 36.7379L243.395 32.3379L238.795 36.4379L235.27 31.7629L231.045 40.7379L224.02 39.4129Z" fill="white"/>
<path d="M92.5742 39.4129L91.4744 38.8189L90.6614 40.3241L92.3425 40.6412L92.5742 39.4129ZM101.499 22.8879V21.6379H100.754L100.399 22.2939L101.499 22.8879ZM106.774 22.8879L107.954 22.4749L107.661 21.6379H106.774V22.8879ZM108.524 27.8879L107.344 28.3008L108.211 30.7765L109.588 28.5442L108.524 27.8879ZM111.624 22.8629L111.597 21.6132L110.917 21.6277L110.56 22.2066L111.624 22.8629ZM116.299 22.7629L117.501 22.4201L117.237 21.4925L116.272 21.5132L116.299 22.7629ZM121.424 40.7379L121.527 41.9836L123.044 41.8587L122.626 40.3951L121.424 40.7379ZM114.749 41.2879L113.546 41.6251L113.824 42.6183L114.852 42.5336L114.749 41.2879ZM113.474 36.7379L114.678 36.4006L114.668 36.3642L114.655 36.3285L113.474 36.7379ZM111.949 32.3379L113.13 31.9285L112.517 30.1577L111.118 31.4047L111.949 32.3379ZM107.349 36.4379L106.351 37.1904L107.168 38.2738L108.181 37.371L107.349 36.4379ZM103.824 31.7629L104.822 31.0103L103.575 29.3566L102.693 31.2305L103.824 31.7629ZM99.5992 40.7379L99.3675 41.9662L100.318 42.1455L100.73 41.2703L99.5992 40.7379ZM93.6741 40.0069L102.599 23.4819L100.399 22.2939L91.4744 38.8189L93.6741 40.0069ZM101.499 24.1379H106.774V21.6379H101.499V24.1379ZM105.594 23.3008L107.344 28.3008L109.704 27.4749L107.954 22.4749L105.594 23.3008ZM109.588 28.5442L112.688 23.5192L110.56 22.2066L107.46 27.2316L109.588 28.5442ZM111.651 24.1126L116.326 24.0126L116.272 21.5132L111.597 21.6132L111.651 24.1126ZM115.097 23.1056L120.222 41.0806L122.626 40.3951L117.501 22.4201L115.097 23.1056ZM121.322 39.4921L114.647 40.0421L114.852 42.5336L121.527 41.9836L121.322 39.4921ZM115.953 40.9506L114.678 36.4006L112.271 37.0751L113.546 41.6251L115.953 40.9506ZM114.655 36.3285L113.13 31.9285L110.768 32.7472L112.293 37.1472L114.655 36.3285ZM111.118 31.4047L106.518 35.5047L108.181 37.371L112.781 33.271L111.118 31.4047ZM108.347 35.6853L104.822 31.0103L102.826 32.5154L106.351 37.1904L108.347 35.6853ZM102.693 31.2305L98.4683 40.2055L100.73 41.2703L104.955 32.2953L102.693 31.2305ZM99.8309 39.5095L92.8059 38.1845L92.3425 40.6412L99.3675 41.9662L99.8309 39.5095ZM134.53 22.9879L135.504 22.2044L135.145 21.7575L134.572 21.7385L134.53 22.9879ZM139.98 29.7629L141.212 29.9768L141.309 29.4198L140.954 28.9794L139.98 29.7629ZM138.43 38.6879L138.746 39.8974L139.524 39.6944L139.662 38.9018L138.43 38.6879ZM128.555 41.2629L127.728 42.2001L128.227 42.6403L128.871 42.4724L128.555 41.2629ZM120.68 34.3129L119.444 34.1272L119.343 34.8L119.853 35.2501L120.68 34.3129ZM121.855 26.4879L121.186 25.4322L120.704 25.7378L120.619 26.3022L121.855 26.4879ZM127.73 22.7629L127.772 21.5135L127.387 21.5008L127.061 21.7072L127.73 22.7629ZM129.205 29.2879L129.479 28.0681L128.482 27.8448L128.064 28.7774L129.205 29.2879ZM127.93 32.1379L126.789 31.6274L126.359 32.5893L127.234 33.1761L127.93 32.1379ZM130.13 33.6129L129.434 34.6511L129.962 35.0052L130.56 34.7869L130.13 33.6129ZM132.455 32.7629L132.885 33.9369L133.745 33.6222L133.704 32.7066L132.455 32.7629ZM132.33 29.9879L133.579 29.9316L133.536 28.977L132.604 28.7681L132.33 29.9879ZM133.556 23.7714L139.006 30.5464L140.954 28.9794L135.504 22.2044L133.556 23.7714ZM138.749 29.549L137.199 38.474L139.662 38.9018L141.212 29.9768L138.749 29.549ZM138.115 37.4783L128.24 40.0533L128.871 42.4724L138.746 39.8974L138.115 37.4783ZM129.383 40.3257L121.508 33.3757L119.853 35.2501L127.728 42.2001L129.383 40.3257ZM121.917 34.4985L123.092 26.6735L120.619 26.3022L119.444 34.1272L121.917 34.4985ZM122.525 27.5436L128.4 23.8186L127.061 21.7072L121.186 25.4322L122.525 27.5436ZM127.689 24.0122L134.489 24.2372L134.572 21.7385L127.772 21.5135L127.689 24.0122ZM128.064 28.7774L126.789 31.6274L129.071 32.6483L130.346 29.7983L128.064 28.7774ZM127.234 33.1761L129.434 34.6511L130.827 32.5746L128.627 31.0996L127.234 33.1761ZM130.56 34.7869L132.885 33.9369L132.026 31.5889L129.701 32.4389L130.56 34.7869ZM133.704 32.7066L133.579 29.9316L131.082 30.0441L131.207 32.8191L133.704 32.7066ZM132.604 28.7681L129.479 28.0681L128.932 30.5076L132.057 31.2076L132.604 28.7681ZM153.5 22.9879L154.474 22.2044L154.115 21.7575L153.542 21.7385L153.5 22.9879ZM158.95 29.7629L160.182 29.9768L160.278 29.4198L159.924 28.9794L158.95 29.7629ZM157.4 38.6879L157.716 39.8974L158.494 39.6944L158.632 38.9018L157.4 38.6879ZM147.525 41.2629L146.698 42.2001L147.197 42.6403L147.841 42.4724L147.525 41.2629ZM139.65 34.3129L138.414 34.1272L138.313 34.8L138.823 35.2501L139.65 34.3129ZM140.825 26.4879L140.156 25.4322L139.674 25.7378L139.589 26.3022L140.825 26.4879ZM146.7 22.7629L146.742 21.5135L146.356 21.5008L146.031 21.7072L146.7 22.7629ZM148.175 29.2879L148.448 28.0681L147.451 27.8448L147.034 28.7774L148.175 29.2879ZM146.9 32.1379L145.759 31.6274L145.329 32.5893L146.204 33.1761L146.9 32.1379ZM149.1 33.6129L148.404 34.6511L148.932 35.0052L149.529 34.7869L149.1 33.6129ZM151.425 32.7629L151.854 33.9369L152.715 33.6222L152.674 32.7066L151.425 32.7629ZM151.3 29.9879L152.549 29.9316L152.506 28.977L151.573 28.7681L151.3 29.9879ZM152.526 23.7714L157.976 30.5464L159.924 28.9794L154.474 22.2044L152.526 23.7714ZM157.719 29.549L156.169 38.474L158.632 38.9018L160.182 29.9768L157.719 29.549ZM157.085 37.4783L147.21 40.0533L147.841 42.4724L157.716 39.8974L157.085 37.4783ZM148.352 40.3257L140.477 33.3757L138.823 35.2501L146.698 42.2001L148.352 40.3257ZM140.886 34.4985L142.061 26.6735L139.589 26.3022L138.414 34.1272L140.886 34.4985ZM141.495 27.5436L147.37 23.8186L146.031 21.7072L140.156 25.4322L141.495 27.5436ZM146.659 24.0122L153.459 24.2372L153.542 21.7385L146.742 21.5135L146.659 24.0122ZM147.034 28.7774L145.759 31.6274L148.041 32.6483L149.316 29.7983L147.034 28.7774ZM146.204 33.1761L148.404 34.6511L149.796 32.5746L147.596 31.0996L146.204 33.1761ZM149.529 34.7869L151.854 33.9369L150.996 31.5889L148.671 32.4389L149.529 34.7869ZM152.674 32.7066L152.549 29.9316L150.051 30.0441L150.176 32.8191L152.674 32.7066ZM151.573 28.7681L148.448 28.0681L147.902 30.5076L151.027 31.2076L151.573 28.7681ZM159.42 40.9879L158.19 40.7635L157.932 42.1762L159.367 42.2368L159.42 40.9879ZM162.745 22.7629V21.5129H161.702L161.515 22.5385L162.745 22.7629ZM166.52 22.7629L167.588 22.1137L167.223 21.5129H166.52V22.7629ZM170.045 28.5629L168.977 29.2121L171.084 32.6789L171.293 28.6274L170.045 28.5629ZM170.345 22.7629L170.537 21.5276L169.168 21.3153L169.097 22.6983L170.345 22.7629ZM176.145 23.6629L177.392 23.7499L177.472 22.6038L176.337 22.4276L176.145 23.6629ZM174.92 41.2129L174.842 42.4604L176.08 42.5378L176.167 41.2999L174.92 41.2129ZM170.12 40.9129L169.074 41.5977L169.417 42.1214L170.042 42.1604L170.12 40.9129ZM166.42 35.2629L167.466 34.5781L165.746 31.9515L165.19 35.0415L166.42 35.2629ZM165.345 41.2379L165.292 42.4868L166.382 42.5327L166.575 41.4592L165.345 41.2379ZM160.65 41.2122L163.975 22.9872L161.515 22.5385L158.19 40.7635L160.65 41.2122ZM162.745 24.0129H166.52V21.5129H162.745V24.0129ZM165.452 23.4121L168.977 29.2121L171.113 27.9137L167.588 22.1137L165.452 23.4121ZM171.293 28.6274L171.593 22.8274L169.097 22.6983L168.797 28.4983L171.293 28.6274ZM170.153 23.9981L175.953 24.8981L176.337 22.4276L170.537 21.5276L170.153 23.9981ZM174.898 23.5758L173.673 41.1258L176.167 41.2999L177.392 23.7499L174.898 23.5758ZM174.998 39.9653L170.198 39.6653L170.042 42.1604L174.842 42.4604L174.998 39.9653ZM171.166 40.2281L167.466 34.5781L165.374 35.9477L169.074 41.5977L171.166 40.2281ZM165.19 35.0415L164.115 41.0165L166.575 41.4592L167.65 35.4842L165.19 35.0415ZM165.398 39.989L159.473 39.739L159.367 42.2368L165.292 42.4868L165.398 39.989ZM180.033 22.6379L180.18 21.3965L179.914 21.3651L179.659 21.4452L180.033 22.6379ZM188.708 23.6629L189.768 23.0004L189.45 22.4919L188.855 22.4215L188.708 23.6629ZM190.708 26.8629L191.957 26.9176L191.974 26.5296L191.768 26.2004L190.708 26.8629ZM190.558 30.2879L191.598 30.9812L191.792 30.691L191.807 30.3426L190.558 30.2879ZM189.258 32.2379L188.218 31.5445L187.477 32.6555L188.635 33.3213L189.258 32.2379ZM191.083 33.2879L192.266 32.8827L192.113 32.4385L191.706 32.2044L191.083 33.2879ZM192.308 36.8629L193.46 37.3479L193.645 36.9086L193.491 36.4577L192.308 36.8629ZM190.908 40.1879L191.325 41.3664L191.846 41.1823L192.06 40.6729L190.908 40.1879ZM188.008 41.2129L188.017 42.4628L188.227 42.4614L188.425 42.3914L188.008 41.2129ZM177.108 41.2879L175.859 41.3234L175.893 42.5463L177.117 42.5378L177.108 41.2879ZM176.608 23.7129L176.234 22.5202L175.332 22.8034L175.359 23.7484L176.608 23.7129ZM183.008 37.5129H181.758V39.0612L183.272 38.7348L183.008 37.5129ZM185.558 36.9629L185.822 38.1848L186.808 37.972V36.9629H185.558ZM185.558 35.2629H186.808V34.3702L185.964 34.0805L185.558 35.2629ZM183.008 34.3879L183.414 33.2055L181.758 32.6374V34.3879H183.008ZM182.683 29.7629H181.433V31.2995L182.937 30.9867L182.683 29.7629ZM185.208 29.2379L185.462 30.4617L186.458 30.2547V29.2379H185.208ZM185.208 27.1879H186.458V26.1808L185.474 25.9665L185.208 27.1879ZM182.683 26.6379L182.949 25.4165L181.433 25.0863V26.6379H182.683ZM179.886 23.8792L188.561 24.9042L188.855 22.4215L180.18 21.3965L179.886 23.8792ZM187.648 24.3254L189.648 27.5254L191.768 26.2004L189.768 23.0004L187.648 24.3254ZM189.459 26.8082L189.309 30.2332L191.807 30.3426L191.957 26.9176L189.459 26.8082ZM189.518 29.5945L188.218 31.5445L190.298 32.9312L191.598 30.9812L189.518 29.5945ZM188.635 33.3213L190.46 34.3713L191.706 32.2044L189.881 31.1544L188.635 33.3213ZM189.901 33.6931L191.126 37.2681L193.491 36.4577L192.266 32.8827L189.901 33.6931ZM191.156 36.3778L189.756 39.7028L192.06 40.6729L193.46 37.3479L191.156 36.3778ZM190.491 39.0093L187.591 40.0343L188.425 42.3914L191.325 41.3664L190.491 39.0093ZM187.999 39.9629L177.099 40.0379L177.117 42.5378L188.017 42.4628L187.999 39.9629ZM178.358 41.2523L177.858 23.6773L175.359 23.7484L175.859 41.3234L178.358 41.2523ZM176.982 24.9055L180.407 23.8305L179.659 21.4452L176.234 22.5202L176.982 24.9055ZM183.272 38.7348L185.822 38.1848L185.294 35.741L182.744 36.291L183.272 38.7348ZM186.808 36.9629V35.2629H184.308V36.9629H186.808ZM185.964 34.0805L183.414 33.2055L182.602 35.5702L185.152 36.4452L185.964 34.0805ZM181.758 34.3879V37.5129H184.258V34.3879H181.758ZM182.937 30.9867L185.462 30.4617L184.954 28.014L182.429 28.539L182.937 30.9867ZM186.458 29.2379V27.1879H183.958V29.2379H186.458ZM185.474 25.9665L182.949 25.4165L182.417 27.8592L184.942 28.4092L185.474 25.9665ZM181.433 26.6379V29.7629H183.933V26.6379H181.433ZM193.07 22.6879V21.4379H192.05L191.845 22.4374L193.07 22.6879ZM205.32 22.6879L206.546 22.9307L206.842 21.4379H205.32V22.6879ZM204.295 27.8629L204.484 29.0984L205.351 28.9654L205.521 28.1057L204.295 27.8629ZM198.27 28.7879L198.08 27.5523L197.081 27.7057L197.022 28.7145L198.27 28.7879ZM198.195 30.0629L196.947 29.9895L196.875 31.2172L198.101 31.3094L198.195 30.0629ZM203.52 30.4629L204.767 30.5413L204.845 29.3089L203.613 29.2164L203.52 30.4629ZM203.27 34.4379L203.381 35.6829L204.45 35.5873L204.517 34.5163L203.27 34.4379ZM198.52 34.8629L198.408 33.6178L196.861 33.7563L197.327 35.2382L198.52 34.8629ZM198.945 36.2129L197.752 36.5882L198.025 37.455L198.934 37.4628L198.945 36.2129ZM204.72 36.2629L205.869 35.7719L205.548 35.02L204.731 35.0129L204.72 36.2629ZM206.845 41.2379V42.4879H208.738L207.994 40.7469L206.845 41.2379ZM193.07 41.2379L191.828 41.3782L191.953 42.4879H193.07V41.2379ZM191.72 29.2879L190.495 29.0374L190.455 29.2314L190.478 29.4282L191.72 29.2879ZM193.07 23.9379H205.32V21.4379H193.07V23.9379ZM204.094 22.445L203.069 27.62L205.521 28.1057L206.546 22.9307L204.094 22.445ZM204.105 26.6273L198.08 27.5523L198.459 30.0234L204.484 29.0984L204.105 26.6273ZM197.022 28.7145L196.947 29.9895L199.443 30.1363L199.518 28.8613L197.022 28.7145ZM198.101 31.3094L203.426 31.7094L203.613 29.2164L198.288 28.8164L198.101 31.3094ZM202.272 30.3844L202.022 34.3594L204.517 34.5163L204.767 30.5413L202.272 30.3844ZM203.158 33.1928L198.408 33.6178L198.631 36.1079L203.381 35.6829L203.158 33.1928ZM197.327 35.2382L197.752 36.5882L200.137 35.8375L199.712 34.4875L197.327 35.2382ZM198.934 37.4628L204.709 37.5128L204.731 35.0129L198.956 34.9629L198.934 37.4628ZM203.57 36.7539L205.695 41.7289L207.994 40.7469L205.869 35.7719L203.57 36.7539ZM206.845 39.9879H193.07V42.4879H206.845V39.9879ZM194.312 41.0975L192.962 29.1475L190.478 29.4282L191.828 41.3782L194.312 41.0975ZM192.944 29.5384L194.294 22.9384L191.845 22.4374L190.495 29.0374L192.944 29.5384ZM217.276 22.7879L218.412 22.2668L218.04 21.4552L217.151 21.5441L217.276 22.7879ZM225.176 40.0129L225.372 41.2474L226.999 40.9888L226.312 39.4918L225.176 40.0129ZM217.626 41.2129L216.387 41.3808L216.559 42.6481L217.822 42.4474L217.626 41.2129ZM217.026 36.7879L218.264 36.6199L218.121 35.5645L217.057 35.5382L217.026 36.7879ZM210.951 36.6379L210.982 35.3882L210.019 35.3645L209.751 36.2886L210.951 36.6379ZM209.576 41.3629L209.356 42.5934L210.462 42.791L210.776 41.7121L209.576 41.3629ZM202.301 40.0629L201.226 39.424L200.304 40.9758L202.081 41.2934L202.301 40.0629ZM212.276 23.2879L212.151 22.0441L211.524 22.1068L211.201 22.649L212.276 23.2879ZM213.551 29.3379L213.599 28.0888L212.719 28.0545L212.391 28.8717L213.551 29.3379ZM212.526 31.8879L211.366 31.4217L210.695 33.0904L212.493 33.1374L212.526 31.8879ZM216.351 31.9879L216.318 33.2374L218.112 33.2843L217.534 31.5857L216.351 31.9879ZM215.476 29.4129L216.659 29.0107L216.383 28.1973L215.524 28.1638L215.476 29.4129ZM216.14 23.309L224.04 40.534L226.312 39.4918L218.412 22.2668L216.14 23.309ZM224.98 38.7784L217.43 39.9784L217.822 42.4474L225.372 41.2474L224.98 38.7784ZM218.864 41.0449L218.264 36.6199L215.787 36.9558L216.387 41.3808L218.864 41.0449ZM217.057 35.5382L210.982 35.3882L210.92 37.8875L216.995 38.0375L217.057 35.5382ZM209.751 36.2886L208.376 41.0136L210.776 41.7121L212.151 36.9871L209.751 36.2886ZM209.796 40.1324L202.521 38.8324L202.081 41.2934L209.356 42.5934L209.796 40.1324ZM203.375 40.7017L213.35 23.9267L211.201 22.649L201.226 39.424L203.375 40.7017ZM212.4 24.5317L217.4 24.0317L217.151 21.5441L212.151 22.0441L212.4 24.5317ZM212.391 28.8717L211.366 31.4217L213.686 32.3541L214.711 29.8041L212.391 28.8717ZM212.493 33.1374L216.318 33.2374L216.383 30.7383L212.558 30.6383L212.493 33.1374ZM217.534 31.5857L216.659 29.0107L214.292 29.815L215.167 32.39L217.534 31.5857ZM215.524 28.1638L213.599 28.0888L213.502 30.5869L215.427 30.6619L215.524 28.1638ZM224.02 39.4129L222.92 38.8189L222.107 40.3241L223.788 40.6412L224.02 39.4129ZM232.945 22.8879V21.6379H232.199L231.845 22.2939L232.945 22.8879ZM238.22 22.8879L239.399 22.4749L239.106 21.6379H238.22V22.8879ZM239.97 27.8879L238.79 28.3008L239.656 30.7765L241.033 28.5442L239.97 27.8879ZM243.07 22.8629L243.043 21.6132L242.363 21.6277L242.006 22.2066L243.07 22.8629ZM247.745 22.7629L248.947 22.4201L248.682 21.4925L247.718 21.5132L247.745 22.7629ZM252.87 40.7379L252.972 41.9836L254.489 41.8587L254.072 40.3951L252.87 40.7379ZM246.195 41.2879L244.991 41.6251L245.269 42.6183L246.297 42.5336L246.195 41.2879ZM244.92 36.7379L246.123 36.4006L246.113 36.3642L246.101 36.3285L244.92 36.7379ZM243.395 32.3379L244.576 31.9285L243.962 30.1577L242.563 31.4047L243.395 32.3379ZM238.795 36.4379L237.796 37.1904L238.613 38.2738L239.626 37.371L238.795 36.4379ZM235.27 31.7629L236.268 31.0103L235.021 29.3566L234.139 31.2305L235.27 31.7629ZM231.045 40.7379L230.813 41.9662L231.763 42.1455L232.175 41.2703L231.045 40.7379ZM225.119 40.0069L234.044 23.4819L231.845 22.2939L222.92 38.8189L225.119 40.0069ZM232.945 24.1379H238.22V21.6379H232.945V24.1379ZM237.04 23.3008L238.79 28.3008L241.149 27.4749L239.399 22.4749L237.04 23.3008ZM241.033 28.5442L244.133 23.5192L242.006 22.2066L238.906 27.2316L241.033 28.5442ZM243.096 24.1126L247.771 24.0126L247.718 21.5132L243.043 21.6132L243.096 24.1126ZM246.542 23.1056L251.667 41.0806L254.072 40.3951L248.947 22.4201L246.542 23.1056ZM252.767 39.4921L246.092 40.0421L246.297 42.5336L252.972 41.9836L252.767 39.4921ZM247.398 40.9506L246.123 36.4006L243.716 37.0751L244.991 41.6251L247.398 40.9506ZM246.101 36.3285L244.576 31.9285L242.213 32.7472L243.738 37.1472L246.101 36.3285ZM242.563 31.4047L237.963 35.5047L239.626 37.371L244.226 33.271L242.563 31.4047ZM239.793 35.6853L236.268 31.0103L234.271 32.5154L237.796 37.1904L239.793 35.6853ZM234.139 31.2305L229.914 40.2055L232.175 41.2703L236.4 32.2953L234.139 31.2305ZM231.276 39.5095L224.251 38.1845L223.788 40.6412L230.813 41.9662L231.276 39.5095Z" fill="#353535" mask="url(#path-3-outside-1_292_2868)"/>
</g>
<path d="M25.25 72.3279L38.1825 72.5554V77.8054L33.8075 77.0879L35.015 85.3304H28.75L29.695 77.0879L25.25 76.8604V72.3279ZM39.0928 73.0979L43.5028 72.2579L43.7128 77.5954L46.2853 77.2104L46.4428 72.5029L50.0478 72.6604L50.7478 85.2254L46.6878 85.0854L46.6528 81.1479L44.2028 81.6204L44.2903 85.2254H40.4928L39.0928 73.0979ZM51.1944 72.3804L54.5894 72.1704L57.2144 84.5604L51.6494 85.1729L51.1944 72.3804ZM70.186 75.5829L67.9285 78.3654L65.286 76.6679L64.621 77.5079L69.346 80.9729L67.0535 85.2954H61.436L57.516 82.1804L59.2135 79.3279L62.591 81.2354L63.0985 80.4479L58.146 77.5079L62.836 72.2579H67.0535L70.186 75.5829ZM79.0851 72.3804L82.4801 72.1704L85.1051 84.5604L79.5401 85.1729L79.0851 72.3804ZM98.0767 75.5829L95.8192 78.3654L93.1767 76.6679L92.5117 77.5079L97.2367 80.9729L94.9442 85.2954H89.3267L85.4067 82.1804L87.1042 79.3279L90.4817 81.2354L90.9892 80.4479L86.0367 77.5079L90.7267 72.2579H94.9442L98.0767 75.5829ZM106.888 72.3279L119.821 72.5554V77.8054L115.446 77.0879L116.653 85.3304H110.388L111.333 77.0879L106.888 76.8604V72.3279ZM120.731 73.0979L125.141 72.2579L125.351 77.5954L127.923 77.2104L128.081 72.5029L131.686 72.6604L132.386 85.2254L128.326 85.0854L128.291 81.1479L125.841 81.6204L125.928 85.2254H122.131L120.731 73.0979ZM133.69 72.2754H142.265L141.548 75.8979L137.33 76.5454L137.278 77.4379L141.005 77.7179L140.83 80.5004L137.505 80.7979L137.803 81.7429L141.845 81.7779L143.333 85.2604H133.69L132.745 76.8954L133.69 72.2754ZM152.472 72.2754H161.047L160.329 75.8979L156.112 76.5454L156.059 77.4379L159.787 77.7179L159.612 80.5004L156.287 80.7979L156.584 81.7429L160.627 81.7779L162.114 85.2604H152.472L151.527 76.8954L152.472 72.2754ZM165.059 72.3804L167.806 75.1804L169.836 72.1879L173.161 75.3729L170.746 78.2254L174.736 81.3579L171.411 85.1904L168.541 81.4454L164.901 85.1029L161.559 81.7954L165.426 78.3129L162.486 75.0229L165.059 72.3804ZM182.729 72.3454L188.259 84.4029L182.974 85.2429L182.554 82.1454L178.302 82.0404L177.339 85.3479L172.247 84.4379L179.229 72.6954L182.729 72.3454ZM180.122 76.9304L179.404 78.7154L182.082 78.7854L181.469 76.9829L180.122 76.9304ZM187.45 83.9829L193.697 72.4154H197.39L198.615 75.9154L200.785 72.3979L204.057 72.3279L207.645 84.9104L202.972 85.2954L202.08 82.1104L201.012 79.0304L197.792 81.9004L195.325 78.6279L192.367 84.9104L187.45 83.9829ZM215.419 72.3629L218.499 74.4804L218.744 79.6604L215.629 82.6704L211.762 82.9154V85.3829H207.684L208.332 72.3629H215.419ZM212.479 76.3529L212.357 78.4704L213.512 78.6279L214.982 76.8954L212.479 76.3529ZM223.675 72.7654L223.167 80.6054L228.54 79.9579L229.03 84.0004L219.3 85.1554L218.81 72.2054L223.675 72.7654ZM230.863 72.2754H239.438L238.72 75.8979L234.503 76.5454L234.45 77.4379L238.178 77.7179L238.003 80.5004L234.678 80.7979L234.975 81.7429L239.018 81.7779L240.505 85.2604H230.863L229.918 76.8954L230.863 72.2754ZM37.9375 96.5829L35.68 99.3654L33.0375 97.6679L32.3725 98.5079L37.0975 101.973L34.805 106.295H29.1875L25.2675 103.18L26.965 100.328L30.3425 102.235L30.85 101.448L25.8975 98.5079L30.5875 93.2579H34.805L37.9375 96.5829ZM38.944 93.2754H47.519L46.8015 96.8979L42.584 97.5454L42.5315 98.4379L46.259 98.7179L46.084 101.5L42.759 101.798L43.0565 102.743L47.099 102.778L48.5865 106.26H38.944L37.999 97.8954L38.944 93.2754ZM48.0308 106.085L50.3583 93.3279H53.0008L55.4683 97.3879L55.6783 93.3279L59.7383 93.9579L58.8808 106.243L55.5208 106.033L52.9308 102.078L52.1783 106.26L48.0308 106.085ZM60.0449 93.3279L72.9774 93.5554V98.8054L68.6024 98.0879L69.8099 106.33H63.5449L64.4899 98.0879L60.0449 97.8604V93.3279ZM74.8327 93.2754H83.4077L82.6902 96.8979L78.4727 97.5454L78.4202 98.4379L82.1477 98.7179L81.9727 101.5L78.6477 101.798L78.9452 102.743L82.9877 102.778L84.4752 106.26H74.8327L73.8877 97.8954L74.8327 93.2754ZM83.9194 106.085L86.2469 93.3279H88.8894L91.3569 97.3879L91.5669 93.3279L95.6269 93.9579L94.7694 106.243L91.4094 106.033L88.8194 102.078L88.0669 106.26L83.9194 106.085ZM100.956 93.2929L105.786 93.6079L105.594 98.2454L102.444 96.7754L99.6961 98.0529L99.5736 101.028L101.989 102.673L105.541 100.818L106.731 105.7L99.7486 106.313L96.3361 103.32L95.3211 99.5579L96.8961 95.5154L100.956 93.2929ZM107.645 93.2754H116.22L115.503 96.8979L111.285 97.5454L111.233 98.4379L114.96 98.7179L114.785 101.5L111.46 101.798L111.758 102.743L115.8 102.778L117.288 106.26H107.645L106.7 97.8954L107.645 93.2754ZM131.922 93.2929L135.597 96.3029L136.349 103.32L132.727 106.278H125.482V94.0804L131.922 93.2929ZM129.489 97.9654V101.78L131.852 100.958V99.0504L129.489 97.9654ZM137.535 93.2754H146.11L145.393 96.8979L141.175 97.5454L141.123 98.4379L144.85 98.7179L144.675 101.5L141.35 101.798L141.648 102.743L145.69 102.778L147.178 106.26H137.535L136.59 97.8954L137.535 93.2754ZM159.31 96.5829L157.052 99.3654L154.41 97.6679L153.745 98.5079L158.47 101.973L156.177 106.295H150.56L146.64 103.18L148.337 100.328L151.715 102.235L152.222 101.448L147.27 98.5079L151.96 93.2579H156.177L159.31 96.5829ZM164.394 93.2929L169.224 93.6079L169.031 98.2454L165.881 96.7754L163.134 98.0529L163.011 101.028L165.426 102.673L168.979 100.818L170.169 105.7L163.186 106.313L159.774 103.32L158.759 99.5579L160.334 95.5154L164.394 93.2929ZM177.4 93.3804L180.638 95.7429L180.935 99.8204L179.115 101.85L182.353 104.703L178.555 106.348L174.583 102.953L175.178 106.33H171.153L170.138 93.9404L177.4 93.3804ZM174.583 97.0029L174.478 99.4879L175.545 99.6279L176.613 98.0879L174.583 97.0029ZM182.068 93.3804L185.463 93.1704L188.088 105.56L182.523 106.173L182.068 93.3804ZM190.788 93.2404L196.86 93.9579L198.26 96.1979L198.155 98.5954L197.245 99.9604L198.523 100.695L199.38 103.198L198.4 105.525L196.37 106.243L188.74 106.295L188.39 93.9929L190.788 93.2404ZM192.87 103.653L194.655 103.268V102.078L192.87 101.465V103.653ZM192.643 98.2279L194.41 97.8604V96.4254L192.643 96.0404V98.2279ZM199.056 93.3804L202.451 93.1704L205.076 105.56L199.511 106.173L199.056 93.3804ZM205.36 106.085L207.687 93.3279H210.33L212.797 97.3879L213.007 93.3279L217.067 93.9579L216.21 106.243L212.85 106.033L210.26 102.078L209.507 106.26L205.36 106.085ZM228.347 95.9704L225.354 97.6504L224.147 96.9854L222.362 97.5279L221.294 100.065L222.414 102.428L225.634 102.043L225.704 101.465L223.219 101.693L223.534 98.1754L228.714 98.2454V105.158L220.017 106.278L217.374 100.905L218.337 95.9704L222.047 93.2754L226.597 93.5904L228.347 95.9704ZM237.796 93.3279L250.729 93.5554V98.8054L246.354 98.0879L247.561 106.33H241.296L242.241 98.0879L237.796 97.8604V93.3279ZM251.639 94.0979L256.049 93.2579L256.259 98.5954L258.832 98.2104L258.989 93.5029L262.594 93.6604L263.294 106.225L259.234 106.085L259.199 102.148L256.749 102.62L256.837 106.225H253.039L251.639 94.0979ZM264.598 93.2754H273.173L272.456 96.8979L268.238 97.5454L268.186 98.4379L271.913 98.7179L271.738 101.5L268.413 101.798L268.711 102.743L272.753 102.778L274.241 106.26H264.598L263.653 97.8954L264.598 93.2754ZM30.115 114.765L29.6075 122.605L34.98 121.958L35.47 126L25.74 127.155L25.25 114.205L30.115 114.765ZM45.4934 114.485L49.3084 119.228L48.2234 125.475L41.3109 127.278L35.7984 122.413L36.6209 116.935L40.7334 114.328L45.4934 114.485ZM41.7659 118.895L40.8734 120.89L42.4134 121.923L44.0409 121.328L43.9534 119.385L41.7659 118.895ZM54.6597 114.293L59.4897 114.608L59.2972 119.245L56.1472 117.775L53.3997 119.053L53.2772 122.028L55.6922 123.673L59.2447 121.818L60.4347 126.7L53.4522 127.313L50.0397 124.32L49.0247 120.558L50.5997 116.515L54.6597 114.293ZM68.2613 114.345L73.7913 126.403L68.5063 127.243L68.0863 124.145L63.8338 124.04L62.8713 127.348L57.7788 126.438L64.7613 114.695L68.2613 114.345ZM65.6538 118.93L64.9363 120.715L67.6138 120.785L67.0013 118.983L65.6538 118.93ZM72.9819 114.328L85.9144 114.555V119.805L81.5394 119.088L82.7469 127.33H76.4819L77.4269 119.088L72.9819 118.86V114.328ZM86.9122 114.38L90.3072 114.17L92.9322 126.56L87.3672 127.173L86.9122 114.38ZM102.351 114.485L106.166 119.228L105.081 125.475L98.1688 127.278L92.6563 122.413L93.4788 116.935L97.5913 114.328L102.351 114.485ZM98.6238 118.895L97.7313 120.89L99.2713 121.923L100.899 121.328L100.811 119.385L98.6238 118.895ZM106.495 127.085L108.823 114.328H111.465L113.933 118.388L114.143 114.328L118.203 114.958L117.345 127.243L113.985 127.033L111.395 123.078L110.643 127.26L106.495 127.085ZM120.382 124.285H121.764L122.587 125.72L122.009 126.788L120.382 127.155L119.629 125.878L120.382 124.285Z" fill="#77684D"/>
<g clip-path="url(#clip0_292_2868)">
<path d="M271.961 151.955L319.137 148.686L352.419 151.955L360.008 188.083L357.814 203.905L301.782 209.119L266.344 206.197L264.327 165.113L271.961 151.955Z" fill="#353535"/>
<path d="M266.43 166.352L273.56 154.665L318.914 151.676L350.672 154.643L357.905 187.388L355.866 201.37L302.097 206.128L268.346 203.483L266.43 166.352Z" fill="#ED4650" stroke="white" stroke-width="1.25"/>
</g>
<g filter="url(#filter2_d_292_2868)">
<mask id="path-8-outside-2_292_2868" maskUnits="userSpaceOnUse" x="279.25" y="164.563" width="62" height="23" fill="black">
<rect fill="white" x="279.25" y="164.563" width="62" height="23"/>
<path d="M280.578 167.088L285.428 166.788L289.178 184.488L281.228 185.363L280.578 167.088ZM289.583 185.238L292.908 167.013H296.683L300.208 172.813L300.508 167.013L306.308 167.913L305.083 185.463L300.283 185.163L296.583 179.513L295.508 185.488L289.583 185.238ZM307.972 166.913L320.572 167.013L319.872 173.038L312.997 172.263L312.897 174.263L318.722 173.963L317.772 179.463L312.897 178.838L313.947 185.488H307.297L306.772 171.988L307.972 166.913ZM334.128 167.238L339.578 174.013L338.028 182.938L328.153 185.513L320.278 178.563L321.453 170.738L327.328 167.013L334.128 167.238ZM328.803 173.538L327.528 176.388L329.728 177.863L332.053 177.013L331.928 174.238L328.803 173.538Z"/>
</mask>
<path d="M280.578 167.088L285.428 166.788L289.178 184.488L281.228 185.363L280.578 167.088ZM289.583 185.238L292.908 167.013H296.683L300.208 172.813L300.508 167.013L306.308 167.913L305.083 185.463L300.283 185.163L296.583 179.513L295.508 185.488L289.583 185.238ZM307.972 166.913L320.572 167.013L319.872 173.038L312.997 172.263L312.897 174.263L318.722 173.963L317.772 179.463L312.897 178.838L313.947 185.488H307.297L306.772 171.988L307.972 166.913ZM334.128 167.238L339.578 174.013L338.028 182.938L328.153 185.513L320.278 178.563L321.453 170.738L327.328 167.013L334.128 167.238ZM328.803 173.538L327.528 176.388L329.728 177.863L332.053 177.013L331.928 174.238L328.803 173.538Z" fill="white"/>
<path d="M280.578 167.088L280.5 165.84L279.285 165.915L279.328 167.132L280.578 167.088ZM285.428 166.788L286.65 166.529L286.427 165.474L285.35 165.54L285.428 166.788ZM289.178 184.488L289.314 185.73L290.687 185.579L290.4 184.229L289.178 184.488ZM281.228 185.363L279.978 185.407L280.026 186.753L281.364 186.605L281.228 185.363ZM280.655 168.335L285.505 168.035L285.35 165.54L280.5 165.84L280.655 168.335ZM284.205 167.047L287.955 184.747L290.4 184.229L286.65 166.529L284.205 167.047ZM289.041 183.245L281.091 184.12L281.364 186.605L289.314 185.73L289.041 183.245ZM282.477 185.318L281.827 167.043L279.328 167.132L279.978 185.407L282.477 185.318ZM289.583 185.238L288.354 185.014L288.096 186.426L289.531 186.487L289.583 185.238ZM292.908 167.013V165.763H291.866L291.679 166.789L292.908 167.013ZM296.683 167.013L297.752 166.364L297.387 165.763H296.683V167.013ZM300.208 172.813L299.14 173.462L301.247 176.929L301.457 172.877L300.208 172.813ZM300.508 167.013L300.7 165.778L299.332 165.565L299.26 166.948L300.508 167.013ZM306.308 167.913L307.555 168L307.635 166.854L306.5 166.678L306.308 167.913ZM305.083 185.463L305.006 186.71L306.244 186.788L306.33 185.55L305.083 185.463ZM300.283 185.163L299.238 185.848L299.581 186.371L300.206 186.41L300.283 185.163ZM296.583 179.513L297.629 178.828L295.909 176.202L295.353 179.292L296.583 179.513ZM295.508 185.488L295.456 186.737L296.546 186.783L296.739 185.709L295.508 185.488ZM290.813 185.462L294.138 167.237L291.679 166.789L288.354 185.014L290.813 185.462ZM292.908 168.263H296.683V165.763H292.908V168.263ZM295.615 167.662L299.14 173.462L301.277 172.164L297.752 166.364L295.615 167.662ZM301.457 172.877L301.757 167.077L299.26 166.948L298.96 172.748L301.457 172.877ZM300.317 168.248L306.117 169.148L306.5 166.678L300.7 165.778L300.317 168.248ZM305.062 167.826L303.837 185.376L306.33 185.55L307.555 168L305.062 167.826ZM305.161 184.215L300.361 183.915L300.206 186.41L305.006 186.71L305.161 184.215ZM301.329 184.478L297.629 178.828L295.538 180.198L299.238 185.848L301.329 184.478ZM295.353 179.292L294.278 185.267L296.739 185.709L297.814 179.734L295.353 179.292ZM295.561 184.239L289.636 183.989L289.531 186.487L295.456 186.737L295.561 184.239ZM307.972 166.913L307.982 165.663L306.985 165.655L306.755 166.625L307.972 166.913ZM320.572 167.013L321.813 167.157L321.974 165.774L320.582 165.763L320.572 167.013ZM319.872 173.038L319.732 174.28L320.969 174.42L321.113 173.182L319.872 173.038ZM312.997 172.263L313.137 171.021L311.815 170.872L311.748 172.2L312.997 172.263ZM312.897 174.263L311.648 174.2L311.579 175.582L312.961 175.511L312.897 174.263ZM318.722 173.963L319.953 174.176L320.22 172.634L318.657 172.715L318.722 173.963ZM317.772 179.463L317.613 180.703L318.8 180.855L319.003 179.676L317.772 179.463ZM312.897 178.838L313.056 177.598L311.402 177.386L311.662 179.033L312.897 178.838ZM313.947 185.488V186.738H315.409L315.181 185.293L313.947 185.488ZM307.297 185.488L306.048 185.536L306.094 186.738H307.297V185.488ZM306.772 171.988L305.555 171.7L305.516 171.866L305.523 172.036L306.772 171.988ZM307.962 168.163L320.562 168.263L320.582 165.763L307.982 165.663L307.962 168.163ZM319.33 166.869L318.63 172.894L321.113 173.182L321.813 167.157L319.33 166.869ZM320.012 171.796L313.137 171.021L312.857 173.505L319.732 174.28L320.012 171.796ZM311.748 172.2L311.648 174.2L314.145 174.325L314.245 172.325L311.748 172.2ZM312.961 175.511L318.786 175.211L318.657 172.715L312.832 173.015L312.961 175.511ZM317.49 173.75L316.54 179.25L319.003 179.676L319.953 174.176L317.49 173.75ZM317.931 178.223L313.056 177.598L312.738 180.078L317.613 180.703L317.931 178.223ZM311.662 179.033L312.712 185.683L315.181 185.293L314.131 178.643L311.662 179.033ZM313.947 184.238H307.297V186.738H313.947V184.238ZM308.546 185.439L308.021 171.939L305.523 172.036L306.048 185.536L308.546 185.439ZM307.988 172.276L309.188 167.2L306.755 166.625L305.555 171.7L307.988 172.276ZM334.128 167.238L335.102 166.454L334.742 166.008L334.169 165.989L334.128 167.238ZM339.578 174.013L340.809 174.227L340.906 173.67L340.552 173.229L339.578 174.013ZM338.028 182.938L338.343 184.147L339.122 183.944L339.259 183.152L338.028 182.938ZM328.153 185.513L327.326 186.45L327.824 186.89L328.468 186.722L328.153 185.513ZM320.278 178.563L319.041 178.377L318.94 179.05L319.451 179.5L320.278 178.563ZM321.453 170.738L320.783 169.682L320.301 169.988L320.216 170.552L321.453 170.738ZM327.328 167.013L327.369 165.764L326.984 165.751L326.658 165.957L327.328 167.013ZM328.803 173.538L329.076 172.318L328.079 172.095L327.662 173.027L328.803 173.538ZM327.528 176.388L326.387 175.877L325.956 176.839L326.832 177.426L327.528 176.388ZM329.728 177.863L329.032 178.901L329.56 179.255L330.157 179.037L329.728 177.863ZM332.053 177.013L332.482 178.187L333.343 177.872L333.301 176.957L332.053 177.013ZM331.928 174.238L333.176 174.182L333.133 173.227L332.201 173.018L331.928 174.238ZM333.154 168.021L338.604 174.796L340.552 173.229L335.102 166.454L333.154 168.021ZM338.346 173.799L336.796 182.724L339.259 183.152L340.809 174.227L338.346 173.799ZM337.712 181.728L327.837 184.303L328.468 186.722L338.343 184.147L337.712 181.728ZM328.98 184.576L321.105 177.626L319.451 179.5L327.326 186.45L328.98 184.576ZM321.514 178.748L322.689 170.923L320.216 170.552L319.041 178.377L321.514 178.748ZM322.122 171.794L327.997 168.069L326.658 165.957L320.783 169.682L322.122 171.794ZM327.286 168.262L334.086 168.487L334.169 165.989L327.369 165.764L327.286 168.262ZM327.662 173.027L326.387 175.877L328.669 176.898L329.944 174.048L327.662 173.027ZM326.832 177.426L329.032 178.901L330.424 176.825L328.224 175.35L326.832 177.426ZM330.157 179.037L332.482 178.187L331.623 175.839L329.298 176.689L330.157 179.037ZM333.301 176.957L333.176 174.182L330.679 174.294L330.804 177.069L333.301 176.957ZM332.201 173.018L329.076 172.318L328.529 174.758L331.654 175.458L332.201 173.018Z" fill="#353535" mask="url(#path-8-outside-2_292_2868)"/>
</g>
<defs>
<filter id="filter0_dd_292_2868" x="0.364258" y="0.250488" width="359.772" height="225.653" filterUnits="userSpaceOnUse" color-interpolation-filters="sRGB">
<feFlood flood-opacity="0" result="BackgroundImageFix"/>
<feColorMatrix in="SourceAlpha" type="matrix" values="0 0 0 0 0 0 0 0 0 0 0 0 0 0 0 0 0 0 127 0" result="hardAlpha"/>
<feOffset dx="5" dy="5"/>
<feGaussianBlur stdDeviation="5"/>
<feComposite in2="hardAlpha" operator="out"/>
<feColorMatrix type="matrix" values="0 0 0 0 0 0 0 0 0 0 0 0 0 0 0 0 0 0 0.15 0"/>
<feBlend mode="normal" in2="BackgroundImageFix" result="effect1_dropShadow_292_2868"/>
<feColorMatrix in="SourceAlpha" type="matrix" values="0 0 0 0 0 0 0 0 0 0 0 0 0 0 0 0 0 0 127 0" result="hardAlpha"/>
<feOffset dx="5" dy="5"/>
<feComposite in2="hardAlpha" operator="out"/>
<feColorMatrix type="matrix" values="0 0 0 0 0.784948 0 0 0 0 0.738688 0 0 0 0 0.64889 0 0 0 1 0"/>
<feBlend mode="normal" in2="effect1_dropShadow_292_2868" result="effect2_dropShadow_292_2868"/>
<feBlend mode="normal" in="SourceGraphic" in2="effect2_dropShadow_292_2868" result="shape"/>
</filter>
<filter id="filter1_d_292_2868" x="92.5742" y="22.6379" width="161.545" height="21.225" filterUnits="userSpaceOnUse" color-interpolation-filters="sRGB">
<feFlood flood-opacity="0" result="BackgroundImageFix"/>
<feColorMatrix in="SourceAlpha" type="matrix" values="0 0 0 0 0 0 0 0 0 0 0 0 0 0 0 0 0 0 127 0" result="hardAlpha"/>
<feOffset dx="1.25" dy="2.5"/>
<feComposite in2="hardAlpha" operator="out"/>
<feColorMatrix type="matrix" values="0 0 0 0 0.208281 0 0 0 0 0.208281 0 0 0 0 0.208281 0 0 0 1 0"/>
<feBlend mode="normal" in2="BackgroundImageFix" result="effect1_dropShadow_292_2868"/>
<feBlend mode="normal" in="SourceGraphic" in2="effect1_dropShadow_292_2868" result="shape"/>
</filter>
<filter id="filter2_d_292_2868" x="280.578" y="166.788" width="60.25" height="21.225" filterUnits="userSpaceOnUse" color-interpolation-filters="sRGB">
<feFlood flood-opacity="0" result="BackgroundImageFix"/>
<feColorMatrix in="SourceAlpha" type="matrix" values="0 0 0 0 0 0 0 0 0 0 0 0 0 0 0 0 0 0 127 0" result="hardAlpha"/>
<feOffset dx="1.25" dy="2.5"/>
<feComposite in2="hardAlpha" operator="out"/>
<feColorMatrix type="matrix" values="0 0 0 0 0.208281 0 0 0 0 0.208281 0 0 0 0 0.208281 0 0 0 1 0"/>
<feBlend mode="normal" in2="BackgroundImageFix" result="effect1_dropShadow_292_2868"/>
<feBlend mode="normal" in="SourceGraphic" in2="effect1_dropShadow_292_2868" result="shape"/>
</filter>
<clipPath id="clip0_292_2868">
<rect width="95.6808" height="60.4328" fill="white" transform="translate(264.327 148.686)"/>
</clipPath>
</defs>
</svg>
