<svg width="361" height="227" viewBox="0 0 361 227" fill="none" xmlns="http://www.w3.org/2000/svg">
<g filter="url(#filter0_dd_292_3119)">
<path d="M19.2666 5.79541H330.196L345.386 145.291L326.662 192.39L175.975 186.867L168.939 211.448L158.373 186.222L24.6616 194.822L5.61426 180.624L5.61426 43.5321L19.2666 5.79541Z" fill="#FFFAE7"/>
<path d="M175.374 186.695L168.828 209.565L158.949 185.981L158.777 185.57L158.333 185.599L24.8508 194.183L6.23926 180.31V43.6417L19.7052 6.42041H329.635L344.748 145.204L326.245 191.749L175.998 186.243L175.509 186.225L175.374 186.695Z" stroke="#C8BCA5" stroke-width="1.25"/>
</g>
<g filter="url(#filter1_d_292_3119)">
<mask id="path-3-outside-1_292_3119" maskUnits="userSpaceOnUse" x="95.5001" y="20.8578" width="154" height="23" fill="black">
<rect fill="white" x="95.5001" y="20.8578" width="154" height="23"/>
<path d="M111.587 23.5328L117.037 30.3078L115.487 39.2328L105.612 41.8078L97.7372 34.8578L98.9122 27.0328L104.787 23.3078L111.587 23.5328ZM106.262 29.8328L104.987 32.6828L107.187 34.1578L109.512 33.3078L109.387 30.5328L106.262 29.8328ZM128.557 23.3578L132.957 26.3828L133.307 33.7828L128.857 38.0828L123.332 38.4328V41.9578H117.507L118.432 23.3578H128.557ZM124.357 29.0578L124.182 32.0828L125.832 32.3078L127.932 29.8328L124.357 29.0578ZM133.401 23.3078L151.876 23.6328V31.1328L145.626 30.1078L147.351 41.8828H138.401L139.751 30.1078L133.401 29.7828V23.3078ZM153.301 23.3828L158.151 23.0828L161.901 40.7828L153.951 41.6578L153.301 23.3828ZM162.307 39.9578L171.232 23.4328H176.507L178.257 28.4328L181.357 23.4078L186.032 23.3078L191.157 41.2828L184.482 41.8328L183.207 37.2828L181.682 32.8828L177.082 36.9828L173.557 32.3078L169.332 41.2828L162.307 39.9578ZM191.338 23.3828L196.188 23.0828L199.938 40.7828L191.988 41.6578L191.338 23.3828ZM218.469 27.9578L215.244 31.9328L211.469 29.5078L210.519 30.7078L217.269 35.6578L213.994 41.8328H205.969L200.369 37.3828L202.794 33.3078L207.619 36.0328L208.344 34.9078L201.269 30.7078L207.969 23.2078H213.994L218.469 27.9578ZM218.557 39.9578L227.482 23.4328H232.757L234.507 28.4328L237.607 23.4078L242.282 23.3078L247.407 41.2828L240.732 41.8328L239.457 37.2828L237.932 32.8828L233.332 36.9828L229.807 32.3078L225.582 41.2828L218.557 39.9578Z"/>
</mask>
<path d="M111.587 23.5328L117.037 30.3078L115.487 39.2328L105.612 41.8078L97.7372 34.8578L98.9122 27.0328L104.787 23.3078L111.587 23.5328ZM106.262 29.8328L104.987 32.6828L107.187 34.1578L109.512 33.3078L109.387 30.5328L106.262 29.8328ZM128.557 23.3578L132.957 26.3828L133.307 33.7828L128.857 38.0828L123.332 38.4328V41.9578H117.507L118.432 23.3578H128.557ZM124.357 29.0578L124.182 32.0828L125.832 32.3078L127.932 29.8328L124.357 29.0578ZM133.401 23.3078L151.876 23.6328V31.1328L145.626 30.1078L147.351 41.8828H138.401L139.751 30.1078L133.401 29.7828V23.3078ZM153.301 23.3828L158.151 23.0828L161.901 40.7828L153.951 41.6578L153.301 23.3828ZM162.307 39.9578L171.232 23.4328H176.507L178.257 28.4328L181.357 23.4078L186.032 23.3078L191.157 41.2828L184.482 41.8328L183.207 37.2828L181.682 32.8828L177.082 36.9828L173.557 32.3078L169.332 41.2828L162.307 39.9578ZM191.338 23.3828L196.188 23.0828L199.938 40.7828L191.988 41.6578L191.338 23.3828ZM218.469 27.9578L215.244 31.9328L211.469 29.5078L210.519 30.7078L217.269 35.6578L213.994 41.8328H205.969L200.369 37.3828L202.794 33.3078L207.619 36.0328L208.344 34.9078L201.269 30.7078L207.969 23.2078H213.994L218.469 27.9578ZM218.557 39.9578L227.482 23.4328H232.757L234.507 28.4328L237.607 23.4078L242.282 23.3078L247.407 41.2828L240.732 41.8328L239.457 37.2828L237.932 32.8828L233.332 36.9828L229.807 32.3078L225.582 41.2828L218.557 39.9578Z" fill="white"/>
<path d="M111.587 23.5328L112.561 22.7493L112.202 22.3024L111.629 22.2835L111.587 23.5328ZM117.037 30.3078L118.269 30.5217L118.366 29.9647L118.011 29.5243L117.037 30.3078ZM115.487 39.2328L115.803 40.4423L116.581 40.2393L116.719 39.4467L115.487 39.2328ZM105.612 41.8078L104.785 42.745L105.284 43.1852L105.928 43.0173L105.612 41.8078ZM97.7372 34.8578L96.5011 34.6722L96.4001 35.3449L96.9101 35.795L97.7372 34.8578ZM98.9122 27.0328L98.2429 25.9771L97.7608 26.2827L97.6761 26.8472L98.9122 27.0328ZM104.787 23.3078L104.829 22.0585L104.443 22.0457L104.118 22.2521L104.787 23.3078ZM106.262 29.8328L106.535 28.613L105.538 28.3897L105.121 29.3223L106.262 29.8328ZM104.987 32.6828L103.846 32.1723L103.416 33.1342L104.291 33.721L104.987 32.6828ZM107.187 34.1578L106.491 35.196L107.019 35.5501L107.616 35.3318L107.187 34.1578ZM109.512 33.3078L109.941 34.4818L110.802 34.1671L110.761 33.2515L109.512 33.3078ZM109.387 30.5328L110.636 30.4765L110.593 29.5219L109.66 29.313L109.387 30.5328ZM110.613 24.3163L116.063 31.0913L118.011 29.5243L112.561 22.7493L110.613 24.3163ZM115.806 30.0939L114.256 39.0189L116.719 39.4467L118.269 30.5217L115.806 30.0939ZM115.172 38.0232L105.297 40.5982L105.928 43.0173L115.803 40.4423L115.172 38.0232ZM106.439 40.8706L98.5644 33.9206L96.9101 35.795L104.785 42.745L106.439 40.8706ZM98.9734 35.0434L100.148 27.2184L97.6761 26.8472L96.5011 34.6722L98.9734 35.0434ZM99.5816 28.0885L105.457 24.3635L104.118 22.2521L98.2429 25.9771L99.5816 28.0885ZM104.746 24.5571L111.546 24.7821L111.629 22.2835L104.829 22.0585L104.746 24.5571ZM105.121 29.3223L103.846 32.1723L106.128 33.1932L107.403 30.3432L105.121 29.3223ZM104.291 33.721L106.491 35.196L107.883 33.1195L105.683 31.6445L104.291 33.721ZM107.616 35.3318L109.941 34.4818L109.083 32.1338L106.758 32.9838L107.616 35.3318ZM110.761 33.2515L110.636 30.4765L108.138 30.589L108.263 33.364L110.761 33.2515ZM109.66 29.313L106.535 28.613L105.989 31.0526L109.114 31.7526L109.66 29.313ZM128.557 23.3578L129.265 22.3277L128.945 22.1078H128.557V23.3578ZM132.957 26.3828L134.206 26.3237L134.176 25.7041L133.665 25.3527L132.957 26.3828ZM133.307 33.7828L134.176 34.6817L134.582 34.2887L134.556 33.7237L133.307 33.7828ZM128.857 38.0828L128.936 39.3303L129.395 39.3012L129.726 38.9817L128.857 38.0828ZM123.332 38.4328L123.253 37.1853L122.082 37.2595V38.4328H123.332ZM123.332 41.9578V43.2078H124.582V41.9578H123.332ZM117.507 41.9578L116.259 41.8957L116.193 43.2078H117.507V41.9578ZM118.432 23.3578V22.1078H117.243L117.184 23.2957L118.432 23.3578ZM124.357 29.0578L124.622 27.8362L123.193 27.5265L123.109 28.9856L124.357 29.0578ZM124.182 32.0828L122.934 32.0106L122.867 33.1651L124.013 33.3213L124.182 32.0828ZM125.832 32.3078L125.663 33.5463L126.342 33.6389L126.785 33.1165L125.832 32.3078ZM127.932 29.8328L128.885 30.6415L130.233 29.0526L128.197 28.6112L127.932 29.8328ZM127.849 24.3878L132.249 27.4128L133.665 25.3527L129.265 22.3277L127.849 24.3878ZM131.708 26.4418L132.058 33.8418L134.556 33.7237L134.206 26.3237L131.708 26.4418ZM132.438 32.8839L127.988 37.1839L129.726 38.9817L134.176 34.6817L132.438 32.8839ZM128.778 36.8353L123.253 37.1853L123.411 39.6803L128.936 39.3303L128.778 36.8353ZM122.082 38.4328V41.9578H124.582V38.4328H122.082ZM123.332 40.7078H117.507V43.2078H123.332V40.7078ZM118.755 42.0199L119.68 23.4199L117.184 23.2957L116.259 41.8957L118.755 42.0199ZM118.432 24.6078H128.557V22.1078H118.432V24.6078ZM123.109 28.9856L122.934 32.0106L125.43 32.155L125.605 29.13L123.109 28.9856ZM124.013 33.3213L125.663 33.5463L126.001 31.0693L124.351 30.8442L124.013 33.3213ZM126.785 33.1165L128.885 30.6415L126.979 29.0241L124.879 31.4991L126.785 33.1165ZM128.197 28.6112L124.622 27.8362L124.092 30.2794L127.667 31.0544L128.197 28.6112ZM133.401 23.3078L133.422 22.058L132.151 22.0356V23.3078H133.401ZM151.876 23.6328H153.126V22.4046L151.897 22.383L151.876 23.6328ZM151.876 31.1328L151.673 32.3663L153.126 32.6045V31.1328H151.876ZM145.626 30.1078L145.828 28.8743L144.141 28.5976L144.389 30.289L145.626 30.1078ZM147.351 41.8828V43.1328H148.797L148.587 41.7016L147.351 41.8828ZM138.401 41.8828L137.159 41.7404L136.999 43.1328H138.401V41.8828ZM139.751 30.1078L140.992 30.2502L141.144 28.9275L139.814 28.8594L139.751 30.1078ZM133.401 29.7828H132.151V30.9704L133.337 31.0312L133.401 29.7828ZM133.379 24.5576L151.854 24.8826L151.897 22.383L133.422 22.058L133.379 24.5576ZM150.626 23.6328V31.1328H153.126V23.6328H150.626ZM152.078 29.8993L145.828 28.8743L145.423 31.3413L151.673 32.3663L152.078 29.8993ZM144.389 30.289L146.114 42.064L148.587 41.7016L146.862 29.9266L144.389 30.289ZM147.351 40.6328H138.401V43.1328H147.351V40.6328ZM139.642 42.0252L140.992 30.2502L138.509 29.9654L137.159 41.7404L139.642 42.0252ZM139.814 28.8594L133.464 28.5344L133.337 31.0312L139.687 31.3562L139.814 28.8594ZM134.651 29.7828V23.3078H132.151V29.7828H134.651ZM153.301 23.3828L153.224 22.1352L152.008 22.2103L152.052 23.4272L153.301 23.3828ZM158.151 23.0828L159.374 22.8237L159.15 21.7686L158.074 21.8352L158.151 23.0828ZM161.901 40.7828L162.038 42.0253L163.41 41.8743L163.124 40.5237L161.901 40.7828ZM153.951 41.6578L152.702 41.7022L152.75 43.0476L154.088 42.9003L153.951 41.6578ZM153.378 24.6304L158.228 24.3304L158.074 21.8352L153.224 22.1352L153.378 24.6304ZM156.928 23.3419L160.678 41.0419L163.124 40.5237L159.374 22.8237L156.928 23.3419ZM161.764 39.5403L153.814 40.4153L154.088 42.9003L162.038 42.0253L161.764 39.5403ZM155.2 41.6134L154.55 23.3384L152.052 23.4272L152.702 41.7022L155.2 41.6134ZM162.307 39.9578L161.207 39.3638L160.394 40.869L162.075 41.1861L162.307 39.9578ZM171.232 23.4328V22.1828H170.486L170.132 22.8388L171.232 23.4328ZM176.507 23.4328L177.687 23.0198L177.394 22.1828H176.507V23.4328ZM178.257 28.4328L177.077 28.8457L177.943 31.3214L179.321 29.0891L178.257 28.4328ZM181.357 23.4078L181.33 22.1581L180.65 22.1726L180.293 22.7515L181.357 23.4078ZM186.032 23.3078L187.234 22.965L186.969 22.0374L186.005 22.0581L186.032 23.3078ZM191.157 41.2828L191.259 42.5286L192.776 42.4036L192.359 40.9401L191.157 41.2828ZM184.482 41.8328L183.278 42.1701L183.556 43.1633L184.584 43.0786L184.482 41.8328ZM183.207 37.2828L184.41 36.9455L184.4 36.9091L184.388 36.8734L183.207 37.2828ZM181.682 32.8828L182.863 32.4734L182.249 30.7027L180.85 31.9496L181.682 32.8828ZM177.082 36.9828L176.084 37.7353L176.901 38.8187L177.913 37.9159L177.082 36.9828ZM173.557 32.3078L174.555 31.5552L173.308 29.9015L172.426 31.7754L173.557 32.3078ZM169.332 41.2828L169.1 42.5111L170.051 42.6904L170.463 41.8152L169.332 41.2828ZM163.407 40.5518L172.332 24.0268L170.132 22.8388L161.207 39.3638L163.407 40.5518ZM171.232 24.6828H176.507V22.1828H171.232V24.6828ZM175.327 23.8457L177.077 28.8457L179.437 28.0199L177.687 23.0198L175.327 23.8457ZM179.321 29.0891L182.421 24.0641L180.293 22.7515L177.193 27.7765L179.321 29.0891ZM181.383 24.6575L186.058 24.5575L186.005 22.0581L181.33 22.1581L181.383 24.6575ZM184.83 23.6505L189.955 41.6255L192.359 40.9401L187.234 22.965L184.83 23.6505ZM191.054 40.037L184.379 40.587L184.584 43.0786L191.259 42.5286L191.054 40.037ZM185.685 41.4955L184.41 36.9455L182.003 37.6201L183.278 42.1701L185.685 41.4955ZM184.388 36.8734L182.863 32.4734L180.501 33.2921L182.026 37.6921L184.388 36.8734ZM180.85 31.9496L176.25 36.0496L177.913 37.9159L182.513 33.8159L180.85 31.9496ZM178.08 36.2302L174.555 31.5552L172.559 33.0603L176.084 37.7353L178.08 36.2302ZM172.426 31.7754L168.201 40.7504L170.463 41.8152L174.688 32.8402L172.426 31.7754ZM169.563 40.0544L162.538 38.7294L162.075 41.1861L169.1 42.5111L169.563 40.0544ZM191.338 23.3828L191.261 22.1352L190.046 22.2103L190.089 23.4272L191.338 23.3828ZM196.188 23.0828L197.411 22.8237L197.187 21.7686L196.111 21.8352L196.188 23.0828ZM199.938 40.7828L200.075 42.0253L201.447 41.8743L201.161 40.5237L199.938 40.7828ZM191.988 41.6578L190.739 41.7022L190.787 43.0476L192.125 42.9003L191.988 41.6578ZM191.415 24.6304L196.265 24.3304L196.111 21.8352L191.261 22.1352L191.415 24.6304ZM194.965 23.3419L198.715 41.0419L201.161 40.5237L197.411 22.8237L194.965 23.3419ZM199.801 39.5403L191.851 40.4153L192.125 42.9003L200.075 42.0253L199.801 39.5403ZM193.237 41.6134L192.587 23.3384L190.089 23.4272L190.739 41.7022L193.237 41.6134ZM218.469 27.9578L219.44 28.7453L220.128 27.8964L219.379 27.1006L218.469 27.9578ZM215.244 31.9328L214.568 32.9845L215.51 33.5892L216.215 32.7203L215.244 31.9328ZM211.469 29.5078L212.144 28.4561L211.192 27.844L210.489 28.7319L211.469 29.5078ZM210.519 30.7078L209.539 29.9319L208.734 30.9488L209.78 31.7158L210.519 30.7078ZM217.269 35.6578L218.373 36.2435L218.879 35.2888L218.008 34.6498L217.269 35.6578ZM213.994 41.8328V43.0828H214.746L215.098 42.4185L213.994 41.8328ZM205.969 41.8328L205.191 42.8114L205.533 43.0828H205.969V41.8328ZM200.369 37.3828L199.295 36.7435L198.736 37.682L199.591 38.3614L200.369 37.3828ZM202.794 33.3078L203.409 32.2194L202.345 31.6185L201.72 32.6685L202.794 33.3078ZM207.619 36.0328L207.004 37.1212L208.031 37.701L208.67 36.7099L207.619 36.0328ZM208.344 34.9078L209.395 35.5849L210.097 34.4949L208.982 33.8329L208.344 34.9078ZM201.269 30.7078L200.337 29.875L199.325 31.0075L200.631 31.7827L201.269 30.7078ZM207.969 23.2078V21.9578H207.409L207.037 22.375L207.969 23.2078ZM213.994 23.2078L214.904 22.3506L214.534 21.9578H213.994V23.2078ZM217.498 27.1702L214.273 31.1452L216.215 32.7203L219.44 28.7453L217.498 27.1702ZM215.919 30.8811L212.144 28.4561L210.793 30.5595L214.568 32.9845L215.919 30.8811ZM210.489 28.7319L209.539 29.9319L211.499 31.4837L212.449 30.2837L210.489 28.7319ZM209.78 31.7158L216.53 36.6658L218.008 34.6498L211.258 29.6998L209.78 31.7158ZM216.165 35.0721L212.89 41.2471L215.098 42.4185L218.373 36.2435L216.165 35.0721ZM213.994 40.5828H205.969V43.0828H213.994V40.5828ZM206.747 40.8542L201.147 36.4042L199.591 38.3614L205.191 42.8114L206.747 40.8542ZM201.443 38.022L203.868 33.947L201.72 32.6685L199.295 36.7435L201.443 38.022ZM202.179 34.3962L207.004 37.1212L208.234 34.9444L203.409 32.2194L202.179 34.3962ZM208.67 36.7099L209.395 35.5849L207.293 34.2307L206.568 35.3557L208.67 36.7099ZM208.982 33.8329L201.907 29.6329L200.631 31.7827L207.706 35.9827L208.982 33.8329ZM202.201 31.5406L208.901 24.0406L207.037 22.375L200.337 29.875L202.201 31.5406ZM207.969 24.4578H213.994V21.9578H207.969V24.4578ZM213.084 24.0649L217.559 28.8149L219.379 27.1006L214.904 22.3506L213.084 24.0649ZM218.557 39.9578L217.457 39.3638L216.644 40.869L218.325 41.1861L218.557 39.9578ZM227.482 23.4328V22.1828H226.736L226.382 22.8388L227.482 23.4328ZM232.757 23.4328L233.937 23.0198L233.644 22.1828H232.757V23.4328ZM234.507 28.4328L233.327 28.8457L234.193 31.3214L235.571 29.0891L234.507 28.4328ZM237.607 23.4078L237.58 22.1581L236.9 22.1726L236.543 22.7515L237.607 23.4078ZM242.282 23.3078L243.484 22.965L243.219 22.0374L242.255 22.0581L242.282 23.3078ZM247.407 41.2828L247.509 42.5286L249.026 42.4036L248.609 40.9401L247.407 41.2828ZM240.732 41.8328L239.528 42.1701L239.806 43.1633L240.834 43.0786L240.732 41.8328ZM239.457 37.2828L240.66 36.9455L240.65 36.9091L240.638 36.8734L239.457 37.2828ZM237.932 32.8828L239.113 32.4734L238.499 30.7027L237.1 31.9496L237.932 32.8828ZM233.332 36.9828L232.334 37.7353L233.151 38.8187L234.163 37.9159L233.332 36.9828ZM229.807 32.3078L230.805 31.5552L229.558 29.9015L228.676 31.7754L229.807 32.3078ZM225.582 41.2828L225.35 42.5111L226.301 42.6904L226.713 41.8152L225.582 41.2828ZM219.657 40.5518L228.582 24.0268L226.382 22.8388L217.457 39.3638L219.657 40.5518ZM227.482 24.6828H232.757V22.1828H227.482V24.6828ZM231.577 23.8457L233.327 28.8457L235.687 28.0199L233.937 23.0198L231.577 23.8457ZM235.571 29.0891L238.671 24.0641L236.543 22.7515L233.443 27.7765L235.571 29.0891ZM237.633 24.6575L242.309 24.5575L242.255 22.0581L237.58 22.1581L237.633 24.6575ZM241.08 23.6505L246.205 41.6255L248.609 40.9401L243.484 22.965L241.08 23.6505ZM247.304 40.037L240.629 40.587L240.834 43.0786L247.509 42.5286L247.304 40.037ZM241.935 41.4955L240.66 36.9455L238.253 37.6201L239.528 42.1701L241.935 41.4955ZM240.638 36.8734L239.113 32.4734L236.751 33.2921L238.276 37.6921L240.638 36.8734ZM237.1 31.9496L232.5 36.0496L234.163 37.9159L238.763 33.8159L237.1 31.9496ZM234.33 36.2302L230.805 31.5552L228.809 33.0603L232.334 37.7353L234.33 36.2302ZM228.676 31.7754L224.451 40.7504L226.713 41.8152L230.938 32.8402L228.676 31.7754ZM225.813 40.0544L218.788 38.7294L218.325 41.1861L225.35 42.5111L225.813 40.0544Z" fill="#353535" mask="url(#path-3-outside-1_292_3119)"/>
</g>
<path d="M25.5001 72.8728L38.4326 73.1003V78.3503L34.0576 77.6328L35.2651 85.8753H29.0001L29.9451 77.6328L25.5001 77.4053V72.8728ZM39.3429 73.6428L43.7529 72.8028L43.9629 78.1403L46.5354 77.7553L46.6929 73.0478L50.2979 73.2053L50.9979 85.7703L46.9379 85.6303L46.9029 81.6928L44.4529 82.1653L44.5404 85.7703H40.7429L39.3429 73.6428ZM51.4446 72.9253L54.8396 72.7153L57.4646 85.1053L51.8996 85.7178L51.4446 72.9253ZM70.4362 76.1278L68.1787 78.9103L65.5362 77.2128L64.8712 78.0528L69.5962 81.5178L67.3037 85.8403H61.6862L57.7662 82.7253L59.4637 79.8728L62.8412 81.7803L63.3487 80.9928L58.3962 78.0528L63.0862 72.8028H67.3037L70.4362 76.1278ZM79.3352 72.9253L82.7302 72.7153L85.3552 85.1053L79.7902 85.7178L79.3352 72.9253ZM98.3268 76.1278L96.0693 78.9103L93.4268 77.2128L92.7618 78.0528L97.4868 81.5178L95.1943 85.8403H89.5768L85.6568 82.7253L87.3543 79.8728L90.7318 81.7803L91.2393 80.9928L86.2868 78.0528L90.9768 72.8028H95.1943L98.3268 76.1278ZM107.138 72.8728L120.071 73.1003V78.3503L115.696 77.6328L116.903 85.8753H110.638L111.583 77.6328L107.138 77.4053V72.8728ZM120.981 73.6428L125.391 72.8028L125.601 78.1403L128.174 77.7553L128.331 73.0478L131.936 73.2053L132.636 85.7703L128.576 85.6303L128.541 81.6928L126.091 82.1653L126.179 85.7703H122.381L120.981 73.6428ZM133.94 72.8203H142.515L141.798 76.4428L137.58 77.0903L137.528 77.9828L141.255 78.2628L141.08 81.0453L137.755 81.3428L138.053 82.2878L142.095 82.3228L143.583 85.8053H133.94L132.995 77.4403L133.94 72.8203ZM152.722 72.8203H161.297L160.579 76.4428L156.362 77.0903L156.309 77.9828L160.037 78.2628L159.862 81.0453L156.537 81.3428L156.834 82.2878L160.877 82.3228L162.364 85.8053H152.722L151.777 77.4403L152.722 72.8203ZM165.309 72.9253L168.056 75.7253L170.086 72.7328L173.411 75.9178L170.996 78.7703L174.986 81.9028L171.661 85.7353L168.791 81.9903L165.151 85.6478L161.809 82.3403L165.676 78.8578L162.736 75.5678L165.309 72.9253ZM182.979 72.8903L188.509 84.9478L183.224 85.7878L182.804 82.6903L178.552 82.5853L177.589 85.8928L172.497 84.9828L179.479 73.2403L182.979 72.8903ZM180.372 77.4753L179.654 79.2603L182.332 79.3303L181.719 77.5278L180.372 77.4753ZM187.7 84.5278L193.947 72.9603H197.64L198.865 76.4603L201.035 72.9428L204.307 72.8728L207.895 85.4553L203.222 85.8403L202.33 82.6553L201.262 79.5753L198.042 82.4453L195.575 79.1728L192.617 85.4553L187.7 84.5278ZM215.669 72.9078L218.749 75.0253L218.994 80.2053L215.879 83.2153L212.012 83.4603V85.9278H207.934L208.582 72.9078H215.669ZM212.729 76.8978L212.607 79.0153L213.762 79.1728L215.232 77.4403L212.729 76.8978ZM223.925 73.3103L223.417 81.1503L228.79 80.5028L229.28 84.5453L219.55 85.7003L219.06 72.7503L223.925 73.3103ZM231.113 72.8203H239.688L238.971 76.4428L234.753 77.0903L234.701 77.9828L238.428 78.2628L238.253 81.0453L234.928 81.3428L235.226 82.2878L239.268 82.3228L240.756 85.8053H231.113L230.168 77.4403L231.113 72.8203ZM38.1876 97.1278L35.9301 99.9103L33.2876 98.2128L32.6226 99.0528L37.3476 102.518L35.0551 106.84H29.4376L25.5176 103.725L27.2151 100.873L30.5926 102.78L31.1001 101.993L26.1476 99.0528L30.8376 93.8028H35.0551L38.1876 97.1278ZM39.1941 93.8203H47.7691L47.0516 97.4428L42.8341 98.0903L42.7816 98.9828L46.5091 99.2628L46.3341 102.045L43.0091 102.343L43.3066 103.288L47.3491 103.323L48.8366 106.805H39.1941L38.2491 98.4403L39.1941 93.8203ZM48.2809 106.63L50.6084 93.8728H53.2509L55.7184 97.9328L55.9284 93.8728L59.9884 94.5028L59.1309 106.788L55.7709 106.578L53.1809 102.623L52.4284 106.805L48.2809 106.63ZM60.295 93.8728L73.2275 94.1003V99.3503L68.8525 98.6328L70.06 106.875H63.795L64.74 98.6328L60.295 98.4053V93.8728ZM75.0828 93.8203H83.6578L82.9403 97.4428L78.7228 98.0903L78.6703 98.9828L82.3978 99.2628L82.2228 102.045L78.8978 102.343L79.1953 103.288L83.2378 103.323L84.7253 106.805H75.0828L74.1378 98.4403L75.0828 93.8203ZM84.1696 106.63L86.4971 93.8728H89.1396L91.6071 97.9328L91.8171 93.8728L95.8771 94.5028L95.0196 106.788L91.6596 106.578L89.0696 102.623L88.3171 106.805L84.1696 106.63ZM101.206 93.8378L106.036 94.1528L105.844 98.7903L102.694 97.3203L99.9462 98.5978L99.8237 101.573L102.239 103.218L105.791 101.363L106.981 106.245L99.9987 106.858L96.5862 103.865L95.5712 100.103L97.1462 96.0603L101.206 93.8378ZM107.895 93.8203H116.47L115.753 97.4428L111.535 98.0903L111.483 98.9828L115.21 99.2628L115.035 102.045L111.71 102.343L112.008 103.288L116.05 103.323L117.538 106.805H107.895L106.95 98.4403L107.895 93.8203ZM132.172 93.8378L135.847 96.8478L136.6 103.865L132.977 106.823H125.732V94.6253L132.172 93.8378ZM129.74 98.5103V102.325L132.102 101.503V99.5953L129.74 98.5103ZM137.785 93.8203H146.36L145.643 97.4428L141.425 98.0903L141.373 98.9828L145.1 99.2628L144.925 102.045L141.6 102.343L141.898 103.288L145.94 103.323L147.428 106.805H137.785L136.84 98.4403L137.785 93.8203ZM159.56 97.1278L157.302 99.9103L154.66 98.2128L153.995 99.0528L158.72 102.518L156.427 106.84H150.81L146.89 103.725L148.587 100.873L151.965 102.78L152.472 101.993L147.52 99.0528L152.21 93.8028H156.427L159.56 97.1278ZM164.644 93.8378L169.474 94.1528L169.281 98.7903L166.131 97.3203L163.384 98.5978L163.261 101.573L165.676 103.218L169.229 101.363L170.419 106.245L163.436 106.858L160.024 103.865L159.009 100.103L160.584 96.0603L164.644 93.8378ZM177.65 93.9253L180.888 96.2878L181.185 100.365L179.365 102.395L182.603 105.248L178.805 106.893L174.833 103.498L175.428 106.875H171.403L170.388 94.4853L177.65 93.9253ZM174.833 97.5478L174.728 100.033L175.795 100.173L176.863 98.6328L174.833 97.5478ZM182.319 93.9253L185.714 93.7153L188.339 106.105L182.774 106.718L182.319 93.9253ZM191.038 93.7853L197.11 94.5028L198.51 96.7428L198.405 99.1403L197.495 100.505L198.773 101.24L199.63 103.743L198.65 106.07L196.62 106.788L188.99 106.84L188.64 94.5378L191.038 93.7853ZM193.12 104.198L194.905 103.813V102.623L193.12 102.01V104.198ZM192.893 98.7728L194.66 98.4053V96.9703L192.893 96.5853V98.7728ZM199.306 93.9253L202.701 93.7153L205.326 106.105L199.761 106.718L199.306 93.9253ZM205.61 106.63L207.937 93.8728H210.58L213.047 97.9328L213.257 93.8728L217.317 94.5028L216.46 106.788L213.1 106.578L210.51 102.623L209.757 106.805L205.61 106.63ZM228.597 96.5153L225.604 98.1953L224.397 97.5303L222.612 98.0728L221.544 100.61L222.664 102.973L225.884 102.588L225.954 102.01L223.469 102.238L223.784 98.7203L228.964 98.7903V105.703L220.267 106.823L217.624 101.45L218.587 96.5153L222.297 93.8203L226.847 94.1353L228.597 96.5153ZM238.047 93.8728L250.979 94.1003V99.3503L246.604 98.6328L247.812 106.875H241.547L242.492 98.6328L238.047 98.4053V93.8728ZM251.889 94.6428L256.299 93.8028L256.509 99.1403L259.082 98.7553L259.239 94.0478L262.844 94.2053L263.544 106.77L259.484 106.63L259.449 102.693L256.999 103.165L257.087 106.77H253.289L251.889 94.6428ZM264.848 93.8203H273.423L272.706 97.4428L268.488 98.0903L268.436 98.9828L272.163 99.2628L271.988 102.045L268.663 102.343L268.961 103.288L273.003 103.323L274.491 106.805H264.848L263.903 98.4403L264.848 93.8203ZM30.3651 115.31L29.8576 123.15L35.2301 122.503L35.7201 126.545L25.9901 127.7L25.5001 114.75L30.3651 115.31ZM45.7435 115.03L49.5585 119.773L48.4735 126.02L41.561 127.823L36.0485 122.958L36.871 117.48L40.9835 114.873L45.7435 115.03ZM42.016 119.44L41.1235 121.435L42.6635 122.468L44.291 121.873L44.2035 119.93L42.016 119.44ZM54.9098 114.838L59.7398 115.153L59.5473 119.79L56.3973 118.32L53.6498 119.598L53.5273 122.573L55.9423 124.218L59.4948 122.363L60.6848 127.245L53.7023 127.858L50.2898 124.865L49.2748 121.103L50.8498 117.06L54.9098 114.838ZM68.5114 114.89L74.0414 126.948L68.7564 127.788L68.3364 124.69L64.0839 124.585L63.1214 127.893L58.0289 126.983L65.0114 115.24L68.5114 114.89ZM65.9039 119.475L65.1864 121.26L67.8639 121.33L67.2514 119.528L65.9039 119.475ZM73.2321 114.873L86.1646 115.1V120.35L81.7896 119.633L82.9971 127.875H76.7321L77.6771 119.633L73.2321 119.405V114.873ZM87.1623 114.925L90.5573 114.715L93.1823 127.105L87.6173 127.718L87.1623 114.925ZM102.601 115.03L106.416 119.773L105.331 126.02L98.4189 127.823L92.9064 122.958L93.7289 117.48L97.8414 114.873L102.601 115.03ZM98.8739 119.44L97.9814 121.435L99.5214 122.468L101.149 121.873L101.061 119.93L98.8739 119.44ZM106.745 127.63L109.073 114.873H111.715L114.183 118.933L114.393 114.873L118.453 115.503L117.595 127.788L114.235 127.578L111.645 123.623L110.893 127.805L106.745 127.63ZM120.632 124.83H122.014L122.837 126.265L122.259 127.333L120.632 127.7L119.879 126.423L120.632 124.83Z" fill="#77684D"/>
<g clip-path="url(#clip0_292_3119)">
<path d="M272.211 152.5L319.387 149.231L352.669 152.5L360.258 188.628L358.064 204.45L302.032 209.664L266.594 206.742L264.577 165.657L272.211 152.5Z" fill="#353535"/>
<path d="M266.68 166.897L273.81 155.21L319.164 152.221L350.922 155.188L358.155 187.933L356.116 201.915L302.348 206.673L268.596 204.028L266.68 166.897Z" fill="#ED4650" stroke="white" stroke-width="1.25"/>
</g>
<g filter="url(#filter2_d_292_3119)">
<mask id="path-8-outside-2_292_3119" maskUnits="userSpaceOnUse" x="279.5" y="165.108" width="62" height="23" fill="black">
<rect fill="white" x="279.5" y="165.108" width="62" height="23"/>
<path d="M280.828 167.633L285.678 167.333L289.428 185.033L281.478 185.908L280.828 167.633ZM289.834 185.783L293.159 167.558H296.934L300.459 173.358L300.759 167.558L306.559 168.458L305.334 186.008L300.534 185.708L296.834 180.058L295.759 186.033L289.834 185.783ZM308.222 167.458L320.822 167.558L320.122 173.583L313.247 172.808L313.147 174.808L318.972 174.508L318.022 180.008L313.147 179.383L314.197 186.033H307.547L307.022 172.533L308.222 167.458ZM334.378 167.783L339.828 174.558L338.278 183.483L328.403 186.058L320.528 179.108L321.703 171.283L327.578 167.558L334.378 167.783ZM329.053 174.083L327.778 176.933L329.978 178.408L332.303 177.558L332.178 174.783L329.053 174.083Z"/>
</mask>
<path d="M280.828 167.633L285.678 167.333L289.428 185.033L281.478 185.908L280.828 167.633ZM289.834 185.783L293.159 167.558H296.934L300.459 173.358L300.759 167.558L306.559 168.458L305.334 186.008L300.534 185.708L296.834 180.058L295.759 186.033L289.834 185.783ZM308.222 167.458L320.822 167.558L320.122 173.583L313.247 172.808L313.147 174.808L318.972 174.508L318.022 180.008L313.147 179.383L314.197 186.033H307.547L307.022 172.533L308.222 167.458ZM334.378 167.783L339.828 174.558L338.278 183.483L328.403 186.058L320.528 179.108L321.703 171.283L327.578 167.558L334.378 167.783ZM329.053 174.083L327.778 176.933L329.978 178.408L332.303 177.558L332.178 174.783L329.053 174.083Z" fill="white"/>
<path d="M280.828 167.633L280.751 166.385L279.535 166.46L279.579 167.677L280.828 167.633ZM285.678 167.333L286.901 167.074L286.677 166.019L285.601 166.085L285.678 167.333ZM289.428 185.033L289.565 186.275L290.937 186.124L290.651 184.774L289.428 185.033ZM281.478 185.908L280.229 185.952L280.276 187.298L281.615 187.15L281.478 185.908ZM280.905 168.88L285.755 168.58L285.601 166.085L280.751 166.385L280.905 168.88ZM284.455 167.592L288.205 185.292L290.651 184.774L286.901 167.074L284.455 167.592ZM289.291 183.79L281.341 184.665L281.615 187.15L289.565 186.275L289.291 183.79ZM282.727 185.863L282.077 167.588L279.579 167.677L280.229 185.952L282.727 185.863ZM289.834 185.783L288.604 185.558L288.346 186.971L289.781 187.032L289.834 185.783ZM293.159 167.558V166.308H292.116L291.929 167.333L293.159 167.558ZM296.934 167.558L298.002 166.909L297.637 166.308H296.934V167.558ZM300.459 173.358L299.39 174.007L301.497 177.474L301.707 173.422L300.459 173.358ZM300.759 167.558L300.95 166.323L299.582 166.11L299.51 167.493L300.759 167.558ZM306.559 168.458L307.806 168.545L307.886 167.399L306.75 167.223L306.559 168.458ZM305.334 186.008L305.256 187.255L306.494 187.333L306.581 186.095L305.334 186.008ZM300.534 185.708L299.488 186.393L299.831 186.916L300.456 186.955L300.534 185.708ZM296.834 180.058L297.879 179.373L296.159 176.746L295.603 179.836L296.834 180.058ZM295.759 186.033L295.706 187.282L296.796 187.328L296.989 186.254L295.759 186.033ZM291.063 186.007L294.388 167.782L291.929 167.333L288.604 185.558L291.063 186.007ZM293.159 168.808H296.934V166.308H293.159V168.808ZM295.865 168.207L299.39 174.007L301.527 172.709L298.002 166.909L295.865 168.207ZM301.707 173.422L302.007 167.622L299.51 167.493L299.21 173.293L301.707 173.422ZM300.567 168.793L306.367 169.693L306.75 167.223L300.95 166.323L300.567 168.793ZM305.312 168.371L304.087 185.921L306.581 186.095L307.806 168.545L305.312 168.371ZM305.412 184.76L300.612 184.46L300.456 186.955L305.256 187.255L305.412 184.76ZM301.579 185.023L297.879 179.373L295.788 180.743L299.488 186.393L301.579 185.023ZM295.603 179.836L294.528 185.811L296.989 186.254L298.064 180.279L295.603 179.836ZM295.811 184.784L289.886 184.534L289.781 187.032L295.706 187.282L295.811 184.784ZM308.222 167.458L308.232 166.208L307.235 166.2L307.005 167.17L308.222 167.458ZM320.822 167.558L322.063 167.702L322.224 166.319L320.832 166.308L320.822 167.558ZM320.122 173.583L319.982 174.825L321.22 174.964L321.363 173.727L320.122 173.583ZM313.247 172.808L313.387 171.566L312.065 171.417L311.998 172.745L313.247 172.808ZM313.147 174.808L311.898 174.745L311.829 176.127L313.211 176.056L313.147 174.808ZM318.972 174.508L320.203 174.721L320.47 173.179L318.907 173.259L318.972 174.508ZM318.022 180.008L317.863 181.248L319.05 181.4L319.253 180.221L318.022 180.008ZM313.147 179.383L313.306 178.143L311.652 177.931L311.912 179.578L313.147 179.383ZM314.197 186.033V187.283H315.66L315.431 185.838L314.197 186.033ZM307.547 186.033L306.298 186.081L306.344 187.283H307.547V186.033ZM307.022 172.533L305.805 172.245L305.766 172.411L305.773 172.581L307.022 172.533ZM308.212 168.708L320.812 168.808L320.832 166.308L308.232 166.208L308.212 168.708ZM319.58 167.414L318.88 173.439L321.363 173.727L322.063 167.702L319.58 167.414ZM320.262 172.341L313.387 171.566L313.107 174.05L319.982 174.825L320.262 172.341ZM311.998 172.745L311.898 174.745L314.395 174.87L314.495 172.87L311.998 172.745ZM313.211 176.056L319.036 175.756L318.907 173.259L313.082 173.559L313.211 176.056ZM317.74 174.295L316.79 179.795L319.253 180.221L320.203 174.721L317.74 174.295ZM318.181 178.768L313.306 178.143L312.988 180.623L317.863 181.248L318.181 178.768ZM311.912 179.578L312.962 186.228L315.431 185.838L314.381 179.188L311.912 179.578ZM314.197 184.783H307.547V187.283H314.197V184.783ZM308.796 185.984L308.271 172.484L305.773 172.581L306.298 186.081L308.796 185.984ZM308.238 172.82L309.438 167.745L307.005 167.17L305.805 172.245L308.238 172.82ZM334.378 167.783L335.352 166.999L334.992 166.552L334.419 166.533L334.378 167.783ZM339.828 174.558L341.059 174.772L341.156 174.215L340.802 173.774L339.828 174.558ZM338.278 183.483L338.593 184.692L339.372 184.489L339.509 183.697L338.278 183.483ZM328.403 186.058L327.576 186.995L328.074 187.435L328.718 187.267L328.403 186.058ZM320.528 179.108L319.292 178.922L319.191 179.595L319.701 180.045L320.528 179.108ZM321.703 171.283L321.033 170.227L320.551 170.533L320.467 171.097L321.703 171.283ZM327.578 167.558L327.619 166.308L327.234 166.296L326.908 166.502L327.578 167.558ZM329.053 174.083L329.326 172.863L328.329 172.64L327.912 173.572L329.053 174.083ZM327.778 176.933L326.637 176.422L326.206 177.384L327.082 177.971L327.778 176.933ZM329.978 178.408L329.282 179.446L329.81 179.8L330.407 179.582L329.978 178.408ZM332.303 177.558L332.732 178.732L333.593 178.417L333.551 177.502L332.303 177.558ZM332.178 174.783L333.426 174.727L333.383 173.772L332.451 173.563L332.178 174.783ZM333.404 168.566L338.854 175.341L340.802 173.774L335.352 166.999L333.404 168.566ZM338.596 174.344L337.046 183.269L339.509 183.697L341.059 174.772L338.596 174.344ZM337.962 182.273L328.087 184.848L328.718 187.267L338.593 184.692L337.962 182.273ZM329.23 185.121L321.355 178.171L319.701 180.045L327.576 186.995L329.23 185.121ZM321.764 179.293L322.939 171.468L320.467 171.097L319.292 178.922L321.764 179.293ZM322.372 172.338L328.247 168.613L326.908 166.502L321.033 170.227L322.372 172.338ZM327.536 168.807L334.336 169.032L334.419 166.533L327.619 166.308L327.536 168.807ZM327.912 173.572L326.637 176.422L328.919 177.443L330.194 174.593L327.912 173.572ZM327.082 177.971L329.282 179.446L330.674 177.37L328.474 175.895L327.082 177.971ZM330.407 179.582L332.732 178.732L331.874 176.384L329.549 177.234L330.407 179.582ZM333.551 177.502L333.426 174.727L330.929 174.839L331.054 177.614L333.551 177.502ZM332.451 173.563L329.326 172.863L328.78 175.303L331.905 176.003L332.451 173.563Z" fill="#353535" mask="url(#path-8-outside-2_292_3119)"/>
</g>
<defs>
<filter id="filter0_dd_292_3119" x="0.614258" y="0.79541" width="359.772" height="225.653" filterUnits="userSpaceOnUse" color-interpolation-filters="sRGB">
<feFlood flood-opacity="0" result="BackgroundImageFix"/>
<feColorMatrix in="SourceAlpha" type="matrix" values="0 0 0 0 0 0 0 0 0 0 0 0 0 0 0 0 0 0 127 0" result="hardAlpha"/>
<feOffset dx="5" dy="5"/>
<feGaussianBlur stdDeviation="5"/>
<feComposite in2="hardAlpha" operator="out"/>
<feColorMatrix type="matrix" values="0 0 0 0 0 0 0 0 0 0 0 0 0 0 0 0 0 0 0.15 0"/>
<feBlend mode="normal" in2="BackgroundImageFix" result="effect1_dropShadow_292_3119"/>
<feColorMatrix in="SourceAlpha" type="matrix" values="0 0 0 0 0 0 0 0 0 0 0 0 0 0 0 0 0 0 127 0" result="hardAlpha"/>
<feOffset dx="5" dy="5"/>
<feComposite in2="hardAlpha" operator="out"/>
<feColorMatrix type="matrix" values="0 0 0 0 0.784948 0 0 0 0 0.738688 0 0 0 0 0.64889 0 0 0 1 0"/>
<feBlend mode="normal" in2="effect1_dropShadow_292_3119" result="effect2_dropShadow_292_3119"/>
<feBlend mode="normal" in="SourceGraphic" in2="effect2_dropShadow_292_3119" result="shape"/>
</filter>
<filter id="filter1_d_292_3119" x="97.7372" y="23.0828" width="150.92" height="21.375" filterUnits="userSpaceOnUse" color-interpolation-filters="sRGB">
<feFlood flood-opacity="0" result="BackgroundImageFix"/>
<feColorMatrix in="SourceAlpha" type="matrix" values="0 0 0 0 0 0 0 0 0 0 0 0 0 0 0 0 0 0 127 0" result="hardAlpha"/>
<feOffset dx="1.25" dy="2.5"/>
<feComposite in2="hardAlpha" operator="out"/>
<feColorMatrix type="matrix" values="0 0 0 0 0.208281 0 0 0 0 0.208281 0 0 0 0 0.208281 0 0 0 1 0"/>
<feBlend mode="normal" in2="BackgroundImageFix" result="effect1_dropShadow_292_3119"/>
<feBlend mode="normal" in="SourceGraphic" in2="effect1_dropShadow_292_3119" result="shape"/>
</filter>
<filter id="filter2_d_292_3119" x="280.828" y="167.333" width="60.25" height="21.225" filterUnits="userSpaceOnUse" color-interpolation-filters="sRGB">
<feFlood flood-opacity="0" result="BackgroundImageFix"/>
<feColorMatrix in="SourceAlpha" type="matrix" values="0 0 0 0 0 0 0 0 0 0 0 0 0 0 0 0 0 0 127 0" result="hardAlpha"/>
<feOffset dx="1.25" dy="2.5"/>
<feComposite in2="hardAlpha" operator="out"/>
<feColorMatrix type="matrix" values="0 0 0 0 0.208281 0 0 0 0 0.208281 0 0 0 0 0.208281 0 0 0 1 0"/>
<feBlend mode="normal" in2="BackgroundImageFix" result="effect1_dropShadow_292_3119"/>
<feBlend mode="normal" in="SourceGraphic" in2="effect1_dropShadow_292_3119" result="shape"/>
</filter>
<clipPath id="clip0_292_3119">
<rect width="95.6808" height="60.4328" fill="white" transform="translate(264.577 149.231)"/>
</clipPath>
</defs>
</svg>
