<svg width="361" height="226" viewBox="0 0 361 226" fill="none" xmlns="http://www.w3.org/2000/svg">
<g filter="url(#filter0_dd_874_3656)">
<path d="M19.5166 5.25049H330.446L345.636 144.746L326.912 191.845L176.225 186.323L169.189 210.903L158.623 185.677L24.9116 194.277L5.86426 180.079L5.86426 42.9872L19.5166 5.25049Z" fill="#FFFAE7"/>
<path d="M175.624 186.151L169.078 209.02L159.199 185.436L159.027 185.025L158.583 185.054L25.1008 193.639L6.48926 179.765V43.0968L19.9552 5.87549H329.885L344.998 144.659L326.495 191.205L176.248 185.698L175.759 185.68L175.624 186.151Z" stroke="#C8BCA5" stroke-width="1.25"/>
</g>
<g filter="url(#filter1_d_874_3656)">
<mask id="path-3-outside-1_874_3656" maskUnits="userSpaceOnUse" x="118.25" y="20.3129" width="110" height="23" fill="black">
<rect fill="white" x="118.25" y="20.3129" width="110" height="23"/>
<path d="M133.614 22.9879L139.064 29.7629L137.514 38.6879L127.639 41.2629L119.764 34.3129L120.939 26.4879L126.814 22.7629L133.614 22.9879ZM128.289 29.2879L127.014 32.1379L129.214 33.6129L131.539 32.7629L131.414 29.9879L128.289 29.2879ZM139.534 22.7629L158.009 23.0879V30.5879L151.759 29.5629L153.484 41.3379H144.534L145.884 29.5629L139.534 29.2379V22.7629ZM159.31 23.8629L165.61 22.6629L165.91 30.2879L169.585 29.7379L169.81 23.0129L174.96 23.2379L175.96 41.1879L170.16 40.9879L170.11 35.3629L166.61 36.0379L166.735 41.1879H161.31L159.31 23.8629ZM177.823 22.6879H190.073L189.048 27.8629L183.023 28.7879L182.948 30.0629L188.273 30.4629L188.023 34.4379L183.273 34.8629L183.698 36.2129L189.473 36.2629L191.598 41.2379H177.823L176.473 29.2879L177.823 22.6879ZM201.179 22.8379L205.804 26.2129L206.229 32.0379L203.629 34.9379L208.254 39.0129L202.829 41.3629L197.154 36.5129L198.004 41.3379H192.254L190.804 23.6379L201.179 22.8379ZM197.154 28.0129L197.004 31.5629L198.529 31.7629L200.054 29.5629L197.154 28.0129ZM225.848 27.4129L222.623 31.3879L218.848 28.9629L217.898 30.1629L224.648 35.1129L221.373 41.2879H213.348L207.748 36.8379L210.173 32.7629L214.998 35.4879L215.723 34.3629L208.648 30.1629L215.348 22.6629H221.373L225.848 27.4129Z"/>
</mask>
<path d="M133.614 22.9879L139.064 29.7629L137.514 38.6879L127.639 41.2629L119.764 34.3129L120.939 26.4879L126.814 22.7629L133.614 22.9879ZM128.289 29.2879L127.014 32.1379L129.214 33.6129L131.539 32.7629L131.414 29.9879L128.289 29.2879ZM139.534 22.7629L158.009 23.0879V30.5879L151.759 29.5629L153.484 41.3379H144.534L145.884 29.5629L139.534 29.2379V22.7629ZM159.31 23.8629L165.61 22.6629L165.91 30.2879L169.585 29.7379L169.81 23.0129L174.96 23.2379L175.96 41.1879L170.16 40.9879L170.11 35.3629L166.61 36.0379L166.735 41.1879H161.31L159.31 23.8629ZM177.823 22.6879H190.073L189.048 27.8629L183.023 28.7879L182.948 30.0629L188.273 30.4629L188.023 34.4379L183.273 34.8629L183.698 36.2129L189.473 36.2629L191.598 41.2379H177.823L176.473 29.2879L177.823 22.6879ZM201.179 22.8379L205.804 26.2129L206.229 32.0379L203.629 34.9379L208.254 39.0129L202.829 41.3629L197.154 36.5129L198.004 41.3379H192.254L190.804 23.6379L201.179 22.8379ZM197.154 28.0129L197.004 31.5629L198.529 31.7629L200.054 29.5629L197.154 28.0129ZM225.848 27.4129L222.623 31.3879L218.848 28.9629L217.898 30.1629L224.648 35.1129L221.373 41.2879H213.348L207.748 36.8379L210.173 32.7629L214.998 35.4879L215.723 34.3629L208.648 30.1629L215.348 22.6629H221.373L225.848 27.4129Z" fill="white"/>
<path d="M133.614 22.9879L134.588 22.2044L134.229 21.7575L133.656 21.7385L133.614 22.9879ZM139.064 29.7629L140.296 29.9768L140.393 29.4198L140.038 28.9794L139.064 29.7629ZM137.514 38.6879L137.83 39.8974L138.608 39.6944L138.746 38.9018L137.514 38.6879ZM127.639 41.2629L126.812 42.2001L127.311 42.6403L127.955 42.4724L127.639 41.2629ZM119.764 34.3129L118.528 34.1272L118.427 34.8L118.937 35.2501L119.764 34.3129ZM120.939 26.4879L120.27 25.4322L119.788 25.7378L119.703 26.3022L120.939 26.4879ZM126.814 22.7629L126.856 21.5135L126.471 21.5008L126.145 21.7072L126.814 22.7629ZM128.289 29.2879L128.563 28.0681L127.566 27.8448L127.148 28.7774L128.289 29.2879ZM127.014 32.1379L125.873 31.6274L125.443 32.5893L126.318 33.1761L127.014 32.1379ZM129.214 33.6129L128.518 34.6511L129.046 35.0052L129.644 34.7869L129.214 33.6129ZM131.539 32.7629L131.969 33.9369L132.829 33.6222L132.788 32.7066L131.539 32.7629ZM131.414 29.9879L132.663 29.9316L132.62 28.977L131.688 28.7681L131.414 29.9879ZM132.64 23.7714L138.09 30.5464L140.038 28.9794L134.588 22.2044L132.64 23.7714ZM137.833 29.549L136.283 38.474L138.746 38.9018L140.296 29.9768L137.833 29.549ZM137.199 37.4783L127.324 40.0533L127.955 42.4724L137.83 39.8974L137.199 37.4783ZM128.467 40.3257L120.592 33.3757L118.937 35.2501L126.812 42.2001L128.467 40.3257ZM121.001 34.4985L122.176 26.6735L119.703 26.3022L118.528 34.1272L121.001 34.4985ZM121.609 27.5436L127.484 23.8186L126.145 21.7072L120.27 25.4322L121.609 27.5436ZM126.773 24.0122L133.573 24.2372L133.656 21.7385L126.856 21.5135L126.773 24.0122ZM127.148 28.7774L125.873 31.6274L128.155 32.6483L129.43 29.7983L127.148 28.7774ZM126.318 33.1761L128.518 34.6511L129.911 32.5746L127.711 31.0996L126.318 33.1761ZM129.644 34.7869L131.969 33.9369L131.11 31.5889L128.785 32.4389L129.644 34.7869ZM132.788 32.7066L132.663 29.9316L130.166 30.0441L130.291 32.8191L132.788 32.7066ZM131.688 28.7681L128.563 28.0681L128.016 30.5076L131.141 31.2076L131.688 28.7681ZM139.534 22.7629L139.556 21.5131L138.284 21.4907V22.7629H139.534ZM158.009 23.0879H159.259V21.8597L158.031 21.8381L158.009 23.0879ZM158.009 30.5879L157.807 31.8214L159.259 32.0596V30.5879H158.009ZM151.759 29.5629L151.961 28.3293L150.275 28.0527L150.522 29.7441L151.759 29.5629ZM153.484 41.3379V42.5879H154.931L154.721 41.1567L153.484 41.3379ZM144.534 41.3379L143.292 41.1955L143.133 42.5879H144.534V41.3379ZM145.884 29.5629L147.126 29.7052L147.278 28.3826L145.948 28.3145L145.884 29.5629ZM139.534 29.2379H138.284V30.4255L139.47 30.4862L139.534 29.2379ZM139.512 24.0127L157.987 24.3377L158.031 21.8381L139.556 21.5131L139.512 24.0127ZM156.759 23.0879V30.5879H159.259V23.0879H156.759ZM158.211 29.3543L151.961 28.3293L151.557 30.7964L157.807 31.8214L158.211 29.3543ZM150.522 29.7441L152.247 41.5191L154.721 41.1567L152.996 29.3817L150.522 29.7441ZM153.484 40.0879H144.534V42.5879H153.484V40.0879ZM145.776 41.4802L147.126 29.7052L144.642 29.4205L143.292 41.1955L145.776 41.4802ZM145.948 28.3145L139.598 27.9895L139.47 30.4862L145.82 30.8112L145.948 28.3145ZM140.784 29.2379V22.7629H138.284V29.2379H140.784ZM159.31 23.8629L159.076 22.6349L157.935 22.8523L158.068 24.0062L159.31 23.8629ZM165.61 22.6629L166.859 22.6137L166.802 21.1633L165.376 21.4349L165.61 22.6629ZM165.91 30.2879L164.661 30.337L164.715 31.7305L166.095 31.5241L165.91 30.2879ZM169.585 29.7379L169.77 30.9741L170.799 30.82L170.834 29.7797L169.585 29.7379ZM169.81 23.0129L169.864 21.7641L168.602 21.7089L168.56 22.9711L169.81 23.0129ZM174.96 23.2379L176.208 23.1683L176.145 22.0384L175.014 21.9891L174.96 23.2379ZM175.96 41.1879L175.916 42.4371L177.284 42.4843L177.208 41.1183L175.96 41.1879ZM170.16 40.9879L168.91 40.999L168.92 42.1959L170.116 42.2371L170.16 40.9879ZM170.11 35.3629L171.36 35.3518L171.346 33.8513L169.873 34.1355L170.11 35.3629ZM166.61 36.0379L166.373 34.8105L165.334 35.0108L165.36 36.0682L166.61 36.0379ZM166.735 41.1879V42.4379H168.015L167.984 41.1575L166.735 41.1879ZM161.31 41.1879L160.068 41.3312L160.196 42.4379H161.31V41.1879ZM159.543 25.0908L165.843 23.8908L165.376 21.4349L159.076 22.6349L159.543 25.0908ZM164.361 22.712L164.661 30.337L167.159 30.2387L166.859 22.6137L164.361 22.712ZM166.095 31.5241L169.77 30.9741L169.4 28.5016L165.725 29.0516L166.095 31.5241ZM170.834 29.7797L171.059 23.0547L168.56 22.9711L168.335 29.6961L170.834 29.7797ZM169.755 24.2617L174.905 24.4867L175.014 21.9891L169.864 21.7641L169.755 24.2617ZM173.712 23.3074L174.712 41.2574L177.208 41.1183L176.208 23.1683L173.712 23.3074ZM176.003 39.9386L170.203 39.7386L170.116 42.2371L175.916 42.4371L176.003 39.9386ZM171.41 40.9768L171.36 35.3518L168.86 35.374L168.91 40.999L171.41 40.9768ZM169.873 34.1355L166.373 34.8105L166.846 37.2652L170.346 36.5902L169.873 34.1355ZM165.36 36.0682L165.485 41.2182L167.984 41.1575L167.859 36.0075L165.36 36.0682ZM166.735 39.9379H161.31V42.4379H166.735V39.9379ZM162.551 41.0445L160.551 23.7195L158.068 24.0062L160.068 41.3312L162.551 41.0445ZM177.823 22.6879V21.4379H176.802L176.598 22.4374L177.823 22.6879ZM190.073 22.6879L191.299 22.9307L191.595 21.4379H190.073V22.6879ZM189.048 27.8629L189.237 29.0984L190.104 28.9654L190.274 28.1057L189.048 27.8629ZM183.023 28.7879L182.833 27.5523L181.834 27.7057L181.775 28.7145L183.023 28.7879ZM182.948 30.0629L181.7 29.9895L181.628 31.2172L182.854 31.3094L182.948 30.0629ZM188.273 30.4629L189.52 30.5413L189.598 29.3089L188.366 29.2164L188.273 30.4629ZM188.023 34.4379L188.134 35.6829L189.203 35.5873L189.27 34.5163L188.023 34.4379ZM183.273 34.8629L183.161 33.6178L181.614 33.7563L182.08 35.2382L183.273 34.8629ZM183.698 36.2129L182.505 36.5882L182.778 37.455L183.687 37.4628L183.698 36.2129ZM189.473 36.2629L190.622 35.7719L190.301 35.02L189.483 35.0129L189.473 36.2629ZM191.598 41.2379V42.4879H193.491L192.747 40.7469L191.598 41.2379ZM177.823 41.2379L176.581 41.3782L176.706 42.4879H177.823V41.2379ZM176.473 29.2879L175.248 29.0374L175.208 29.2314L175.231 29.4282L176.473 29.2879ZM177.823 23.9379H190.073V21.4379H177.823V23.9379ZM188.846 22.445L187.821 27.62L190.274 28.1057L191.299 22.9307L188.846 22.445ZM188.858 26.6273L182.833 27.5523L183.212 30.0234L189.237 29.0984L188.858 26.6273ZM181.775 28.7145L181.7 29.9895L184.195 30.1363L184.271 28.8613L181.775 28.7145ZM182.854 31.3094L188.179 31.7094L188.366 29.2164L183.041 28.8164L182.854 31.3094ZM187.025 30.3844L186.775 34.3594L189.27 34.5163L189.52 30.5413L187.025 30.3844ZM187.911 33.1928L183.161 33.6178L183.384 36.1079L188.134 35.6829L187.911 33.1928ZM182.08 35.2382L182.505 36.5882L184.89 35.8375L184.465 34.4875L182.08 35.2382ZM183.687 37.4628L189.462 37.5128L189.483 35.0129L183.708 34.9629L183.687 37.4628ZM188.323 36.7539L190.448 41.7289L192.747 40.7469L190.622 35.7719L188.323 36.7539ZM191.598 39.9879H177.823V42.4879H191.598V39.9879ZM179.065 41.0975L177.715 29.1475L175.231 29.4282L176.581 41.3782L179.065 41.0975ZM177.697 29.5384L179.047 22.9384L176.598 22.4374L175.248 29.0374L177.697 29.5384ZM201.179 22.8379L201.916 21.8281L201.543 21.5561L201.083 21.5916L201.179 22.8379ZM205.804 26.2129L207.05 26.1219L207.008 25.5444L206.541 25.2031L205.804 26.2129ZM206.229 32.0379L207.159 32.8723L207.514 32.4767L207.475 31.9469L206.229 32.0379ZM203.629 34.9379L202.698 34.1034L201.856 35.0422L202.802 35.8758L203.629 34.9379ZM208.254 39.0129L208.751 40.1599L210.558 39.377L209.08 38.075L208.254 39.0129ZM202.829 41.3629L202.017 42.3131L202.61 42.82L203.326 42.5099L202.829 41.3629ZM197.154 36.5129L197.966 35.5626L195.318 33.3001L195.923 36.7297L197.154 36.5129ZM198.004 41.3379V42.5879H199.493L199.235 41.121L198.004 41.3379ZM192.254 41.3379L191.008 41.4399L191.102 42.5879H192.254V41.3379ZM190.804 23.6379L190.708 22.3916L189.455 22.4881L189.558 23.7399L190.804 23.6379ZM197.154 28.0129L197.743 26.9105L195.989 25.9729L195.905 27.9601L197.154 28.0129ZM197.004 31.5629L195.755 31.5101L195.707 32.6534L196.841 32.8023L197.004 31.5629ZM198.529 31.7629L198.366 33.0023L199.122 33.1014L199.556 32.475L198.529 31.7629ZM200.054 29.5629L201.081 30.275L201.88 29.1218L200.643 28.4605L200.054 29.5629ZM200.442 23.8476L205.067 27.2226L206.541 25.2031L201.916 21.8281L200.442 23.8476ZM204.557 26.3038L204.982 32.1288L207.475 31.9469L207.05 26.1219L204.557 26.3038ZM205.298 31.2034L202.698 34.1034L204.559 35.7723L207.159 32.8723L205.298 31.2034ZM202.802 35.8758L207.427 39.9508L209.08 38.075L204.455 34L202.802 35.8758ZM207.757 37.8659L202.332 40.2159L203.326 42.5099L208.751 40.1599L207.757 37.8659ZM203.641 40.4126L197.966 35.5626L196.342 37.4631L202.017 42.3131L203.641 40.4126ZM195.923 36.7297L196.773 41.5547L199.235 41.121L198.385 36.296L195.923 36.7297ZM198.004 40.0879H192.254V42.5879H198.004V40.0879ZM193.5 41.2358L192.05 23.5358L189.558 23.7399L191.008 41.4399L193.5 41.2358ZM190.9 24.8842L201.275 24.0842L201.083 21.5916L190.708 22.3916L190.9 24.8842ZM195.905 27.9601L195.755 31.5101L198.253 31.6156L198.403 28.0656L195.905 27.9601ZM196.841 32.8023L198.366 33.0023L198.691 30.5235L197.166 30.3235L196.841 32.8023ZM199.556 32.475L201.081 30.275L199.026 28.8507L197.501 31.0507L199.556 32.475ZM200.643 28.4605L197.743 26.9105L196.564 29.1153L199.464 30.6653L200.643 28.4605ZM225.848 27.4129L226.818 28.2004L227.507 27.3514L226.757 26.5557L225.848 27.4129ZM222.623 31.3879L221.947 32.4396L222.888 33.0443L223.593 32.1754L222.623 31.3879ZM218.848 28.9629L219.523 27.9112L218.57 27.2991L217.868 28.187L218.848 28.9629ZM217.898 30.1629L216.918 29.387L216.113 30.4039L217.158 31.1709L217.898 30.1629ZM224.648 35.1129L225.752 35.6985L226.258 34.7439L225.387 34.1049L224.648 35.1129ZM221.373 41.2879V42.5379H222.125L222.477 41.8735L221.373 41.2879ZM213.348 41.2879L212.57 42.2665L212.911 42.5379H213.348V41.2879ZM207.748 36.8379L206.673 36.1986L206.115 37.1371L206.97 37.8165L207.748 36.8379ZM210.173 32.7629L210.787 31.6745L209.723 31.0735L209.098 32.1236L210.173 32.7629ZM214.998 35.4879L214.383 36.5763L215.41 37.1561L216.048 36.165L214.998 35.4879ZM215.723 34.3629L216.773 35.04L217.476 33.95L216.361 33.288L215.723 34.3629ZM208.648 30.1629L207.715 29.3301L206.704 30.4626L208.01 31.2377L208.648 30.1629ZM215.348 22.6629V21.4129H214.788L214.415 21.8301L215.348 22.6629ZM221.373 22.6629L222.282 21.8057L221.912 21.4129H221.373V22.6629ZM224.877 26.6253L221.652 30.6003L223.593 32.1754L226.818 28.2004L224.877 26.6253ZM223.298 30.3362L219.523 27.9112L218.172 30.0146L221.947 32.4396L223.298 30.3362ZM217.868 28.187L216.918 29.387L218.878 30.9387L219.828 29.7387L217.868 28.187ZM217.158 31.1709L223.908 36.1209L225.387 34.1049L218.637 29.1549L217.158 31.1709ZM223.543 34.5272L220.268 40.7022L222.477 41.8735L225.752 35.6985L223.543 34.5272ZM221.373 40.0379H213.348V42.5379H221.373V40.0379ZM214.125 40.3092L208.525 35.8592L206.97 37.8165L212.57 42.2665L214.125 40.3092ZM208.822 37.4771L211.247 33.4021L209.098 32.1236L206.673 36.1986L208.822 37.4771ZM209.558 33.8513L214.383 36.5763L215.612 34.3995L210.787 31.6745L209.558 33.8513ZM216.048 36.165L216.773 35.04L214.672 33.6857L213.947 34.8107L216.048 36.165ZM216.361 33.288L209.286 29.088L208.01 31.2377L215.085 35.4377L216.361 33.288ZM209.58 30.9956L216.28 23.4956L214.415 21.8301L207.715 29.3301L209.58 30.9956ZM215.348 23.9129H221.373V21.4129H215.348V23.9129ZM220.463 23.52L224.938 28.27L226.757 26.5557L222.282 21.8057L220.463 23.52Z" fill="#353535" mask="url(#path-3-outside-1_874_3656)"/>
</g>
<path d="M25.75 72.3279L38.6825 72.5554V77.8054L34.3075 77.0879L35.515 85.3304H29.25L30.195 77.0879L25.75 76.8604V72.3279ZM39.5928 73.0979L44.0028 72.2579L44.2128 77.5954L46.7853 77.2104L46.9428 72.5029L50.5478 72.6604L51.2478 85.2254L47.1878 85.0854L47.1528 81.1479L44.7028 81.6204L44.7903 85.2254H40.9928L39.5928 73.0979ZM51.6944 72.3804L55.0894 72.1704L57.7144 84.5604L52.1494 85.1729L51.6944 72.3804ZM70.686 75.5829L68.4285 78.3654L65.786 76.6679L65.121 77.5079L69.846 80.9729L67.5535 85.2954H61.936L58.016 82.1804L59.7135 79.3279L63.091 81.2354L63.5985 80.4479L58.646 77.5079L63.336 72.2579H67.5535L70.686 75.5829ZM79.5851 72.3804L82.9801 72.1704L85.6051 84.5604L80.0401 85.1729L79.5851 72.3804ZM98.5767 75.5829L96.3192 78.3654L93.6767 76.6679L93.0117 77.5079L97.7367 80.9729L95.4442 85.2954H89.8267L85.9067 82.1804L87.6042 79.3279L90.9817 81.2354L91.4892 80.4479L86.5367 77.5079L91.2267 72.2579H95.4442L98.5767 75.5829ZM107.388 72.3279L120.321 72.5554V77.8054L115.946 77.0879L117.153 85.3304H110.888L111.833 77.0879L107.388 76.8604V72.3279ZM121.231 73.0979L125.641 72.2579L125.851 77.5954L128.423 77.2104L128.581 72.5029L132.186 72.6604L132.886 85.2254L128.826 85.0854L128.791 81.1479L126.341 81.6204L126.428 85.2254H122.631L121.231 73.0979ZM134.19 72.2754H142.765L142.048 75.8979L137.83 76.5454L137.778 77.4379L141.505 77.7179L141.33 80.5004L138.005 80.7979L138.303 81.7429L142.345 81.7779L143.833 85.2604H134.19L133.245 76.8954L134.19 72.2754ZM152.972 72.2754H161.547L160.829 75.8979L156.612 76.5454L156.559 77.4379L160.287 77.7179L160.112 80.5004L156.787 80.7979L157.084 81.7429L161.127 81.7779L162.614 85.2604H152.972L152.027 76.8954L152.972 72.2754ZM165.559 72.3804L168.306 75.1804L170.336 72.1879L173.661 75.3729L171.246 78.2254L175.236 81.3579L171.911 85.1904L169.041 81.4454L165.401 85.1029L162.059 81.7954L165.926 78.3129L162.986 75.0229L165.559 72.3804ZM183.229 72.3454L188.759 84.4029L183.474 85.2429L183.054 82.1454L178.802 82.0404L177.839 85.3479L172.747 84.4379L179.729 72.6954L183.229 72.3454ZM180.622 76.9304L179.904 78.7154L182.582 78.7854L181.969 76.9829L180.622 76.9304ZM187.95 83.9829L194.197 72.4154H197.89L199.115 75.9154L201.285 72.3979L204.557 72.3279L208.145 84.9104L203.472 85.2954L202.58 82.1104L201.512 79.0304L198.292 81.9004L195.825 78.6279L192.867 84.9104L187.95 83.9829ZM215.919 72.3629L218.999 74.4804L219.244 79.6604L216.129 82.6704L212.262 82.9154V85.3829H208.184L208.832 72.3629H215.919ZM212.979 76.3529L212.857 78.4704L214.012 78.6279L215.482 76.8954L212.979 76.3529ZM224.175 72.7654L223.667 80.6054L229.04 79.9579L229.53 84.0004L219.8 85.1554L219.31 72.2054L224.175 72.7654ZM231.363 72.2754H239.938L239.22 75.8979L235.003 76.5454L234.95 77.4379L238.678 77.7179L238.503 80.5004L235.178 80.7979L235.475 81.7429L239.518 81.7779L241.005 85.2604H231.363L230.418 76.8954L231.363 72.2754ZM38.4375 96.5829L36.18 99.3654L33.5375 97.6679L32.8725 98.5079L37.5975 101.973L35.305 106.295H29.6875L25.7675 103.18L27.465 100.328L30.8425 102.235L31.35 101.448L26.3975 98.5079L31.0875 93.2579H35.305L38.4375 96.5829ZM39.444 93.2754H48.019L47.3015 96.8979L43.084 97.5454L43.0315 98.4379L46.759 98.7179L46.584 101.5L43.259 101.798L43.5565 102.743L47.599 102.778L49.0865 106.26H39.444L38.499 97.8954L39.444 93.2754ZM48.5308 106.085L50.8583 93.3279H53.5008L55.9683 97.3879L56.1783 93.3279L60.2383 93.9579L59.3808 106.243L56.0208 106.033L53.4308 102.078L52.6783 106.26L48.5308 106.085ZM60.5449 93.3279L73.4774 93.5554V98.8054L69.1024 98.0879L70.3099 106.33H64.0449L64.9899 98.0879L60.5449 97.8604V93.3279ZM75.3327 93.2754H83.9077L83.1902 96.8979L78.9727 97.5454L78.9202 98.4379L82.6477 98.7179L82.4727 101.5L79.1477 101.798L79.4452 102.743L83.4877 102.778L84.9752 106.26H75.3327L74.3877 97.8954L75.3327 93.2754ZM84.4194 106.085L86.7469 93.3279H89.3894L91.8569 97.3879L92.0669 93.3279L96.1269 93.9579L95.2694 106.243L91.9094 106.033L89.3194 102.078L88.5669 106.26L84.4194 106.085ZM101.456 93.2929L106.286 93.6079L106.094 98.2454L102.944 96.7754L100.196 98.0529L100.074 101.028L102.489 102.673L106.041 100.818L107.231 105.7L100.249 106.313L96.8361 103.32L95.8211 99.5579L97.3961 95.5154L101.456 93.2929ZM108.145 93.2754H116.72L116.003 96.8979L111.785 97.5454L111.733 98.4379L115.46 98.7179L115.285 101.5L111.96 101.798L112.258 102.743L116.3 102.778L117.788 106.26H108.145L107.2 97.8954L108.145 93.2754ZM132.422 93.2929L136.097 96.3029L136.849 103.32L133.227 106.278H125.982V94.0804L132.422 93.2929ZM129.989 97.9654V101.78L132.352 100.958V99.0504L129.989 97.9654ZM138.035 93.2754H146.61L145.893 96.8979L141.675 97.5454L141.623 98.4379L145.35 98.7179L145.175 101.5L141.85 101.798L142.148 102.743L146.19 102.778L147.678 106.26H138.035L137.09 97.8954L138.035 93.2754ZM159.81 96.5829L157.552 99.3654L154.91 97.6679L154.245 98.5079L158.97 101.973L156.677 106.295H151.06L147.14 103.18L148.837 100.328L152.215 102.235L152.722 101.448L147.77 98.5079L152.46 93.2579H156.677L159.81 96.5829ZM164.894 93.2929L169.724 93.6079L169.531 98.2454L166.381 96.7754L163.634 98.0529L163.511 101.028L165.926 102.673L169.479 100.818L170.669 105.7L163.686 106.313L160.274 103.32L159.259 99.5579L160.834 95.5154L164.894 93.2929ZM177.9 93.3804L181.138 95.7429L181.435 99.8204L179.615 101.85L182.853 104.703L179.055 106.348L175.083 102.953L175.678 106.33H171.653L170.638 93.9404L177.9 93.3804ZM175.083 97.0029L174.978 99.4879L176.045 99.6279L177.113 98.0879L175.083 97.0029ZM182.568 93.3804L185.963 93.1704L188.588 105.56L183.023 106.173L182.568 93.3804ZM191.288 93.2404L197.36 93.9579L198.76 96.1979L198.655 98.5954L197.745 99.9604L199.023 100.695L199.88 103.198L198.9 105.525L196.87 106.243L189.24 106.295L188.89 93.9929L191.288 93.2404ZM193.37 103.653L195.155 103.268V102.078L193.37 101.465V103.653ZM193.143 98.2279L194.91 97.8604V96.4254L193.143 96.0404V98.2279ZM199.556 93.3804L202.951 93.1704L205.576 105.56L200.011 106.173L199.556 93.3804ZM205.86 106.085L208.187 93.3279H210.83L213.297 97.3879L213.507 93.3279L217.567 93.9579L216.71 106.243L213.35 106.033L210.76 102.078L210.007 106.26L205.86 106.085ZM228.847 95.9704L225.854 97.6504L224.647 96.9854L222.862 97.5279L221.794 100.065L222.914 102.428L226.134 102.043L226.204 101.465L223.719 101.693L224.034 98.1754L229.214 98.2454V105.158L220.517 106.278L217.874 100.905L218.837 95.9704L222.547 93.2754L227.097 93.5904L228.847 95.9704ZM238.296 93.3279L251.229 93.5554V98.8054L246.854 98.0879L248.061 106.33H241.796L242.741 98.0879L238.296 97.8604V93.3279ZM252.139 94.0979L256.549 93.2579L256.759 98.5954L259.332 98.2104L259.489 93.5029L263.094 93.6604L263.794 106.225L259.734 106.085L259.699 102.148L257.249 102.62L257.337 106.225H253.539L252.139 94.0979ZM265.098 93.2754H273.673L272.956 96.8979L268.738 97.5454L268.686 98.4379L272.413 98.7179L272.238 101.5L268.913 101.798L269.211 102.743L273.253 102.778L274.741 106.26H265.098L264.153 97.8954L265.098 93.2754ZM30.615 114.765L30.1075 122.605L35.48 121.958L35.97 126L26.24 127.155L25.75 114.205L30.615 114.765ZM45.9934 114.485L49.8084 119.228L48.7234 125.475L41.8109 127.278L36.2984 122.413L37.1209 116.935L41.2334 114.328L45.9934 114.485ZM42.2659 118.895L41.3734 120.89L42.9134 121.923L44.5409 121.328L44.4534 119.385L42.2659 118.895ZM55.1597 114.293L59.9897 114.608L59.7972 119.245L56.6472 117.775L53.8997 119.053L53.7772 122.028L56.1922 123.673L59.7447 121.818L60.9347 126.7L53.9522 127.313L50.5397 124.32L49.5247 120.558L51.0997 116.515L55.1597 114.293ZM68.7613 114.345L74.2913 126.403L69.0063 127.243L68.5863 124.145L64.3338 124.04L63.3713 127.348L58.2788 126.438L65.2613 114.695L68.7613 114.345ZM66.1538 118.93L65.4363 120.715L68.1138 120.785L67.5013 118.983L66.1538 118.93ZM73.4819 114.328L86.4144 114.555V119.805L82.0394 119.088L83.2469 127.33H76.9819L77.9269 119.088L73.4819 118.86V114.328ZM87.4122 114.38L90.8072 114.17L93.4322 126.56L87.8672 127.173L87.4122 114.38ZM102.851 114.485L106.666 119.228L105.581 125.475L98.6688 127.278L93.1563 122.413L93.9788 116.935L98.0913 114.328L102.851 114.485ZM99.1238 118.895L98.2313 120.89L99.7713 121.923L101.399 121.328L101.311 119.385L99.1238 118.895ZM106.995 127.085L109.323 114.328H111.965L114.433 118.388L114.643 114.328L118.703 114.958L117.845 127.243L114.485 127.033L111.895 123.078L111.143 127.26L106.995 127.085ZM120.882 124.285H122.264L123.087 125.72L122.509 126.788L120.882 127.155L120.129 125.878L120.882 124.285Z" fill="#77684D"/>
<g clip-path="url(#clip0_874_3656)">
<path d="M272.461 151.955L319.637 148.686L352.919 151.955L360.508 188.083L358.314 203.905L302.282 209.119L266.844 206.197L264.827 165.112L272.461 151.955Z" fill="#353535"/>
<path d="M266.93 166.352L274.06 154.665L319.414 151.676L351.172 154.643L358.405 187.388L356.366 201.37L302.598 206.128L268.846 203.483L266.93 166.352Z" fill="#ED4650" stroke="white" stroke-width="1.25"/>
</g>
<g filter="url(#filter2_d_874_3656)">
<mask id="path-8-outside-2_874_3656" maskUnits="userSpaceOnUse" x="279.75" y="164.563" width="62" height="23" fill="black">
<rect fill="white" x="279.75" y="164.563" width="62" height="23"/>
<path d="M281.078 167.088L285.928 166.788L289.678 184.488L281.728 185.363L281.078 167.088ZM290.083 185.238L293.408 167.013H297.183L300.708 172.813L301.008 167.013L306.808 167.913L305.583 185.463L300.783 185.163L297.083 179.513L296.008 185.488L290.083 185.238ZM308.472 166.913L321.072 167.013L320.372 173.038L313.497 172.263L313.397 174.263L319.222 173.963L318.272 179.463L313.397 178.838L314.447 185.488H307.797L307.272 171.988L308.472 166.913ZM334.628 167.238L340.078 174.013L338.528 182.938L328.653 185.513L320.778 178.563L321.953 170.738L327.828 167.013L334.628 167.238ZM329.303 173.538L328.028 176.388L330.228 177.863L332.553 177.013L332.428 174.238L329.303 173.538Z"/>
</mask>
<path d="M281.078 167.088L285.928 166.788L289.678 184.488L281.728 185.363L281.078 167.088ZM290.083 185.238L293.408 167.013H297.183L300.708 172.813L301.008 167.013L306.808 167.913L305.583 185.463L300.783 185.163L297.083 179.513L296.008 185.488L290.083 185.238ZM308.472 166.913L321.072 167.013L320.372 173.038L313.497 172.263L313.397 174.263L319.222 173.963L318.272 179.463L313.397 178.838L314.447 185.488H307.797L307.272 171.988L308.472 166.913ZM334.628 167.238L340.078 174.013L338.528 182.938L328.653 185.513L320.778 178.563L321.953 170.738L327.828 167.013L334.628 167.238ZM329.303 173.538L328.028 176.388L330.228 177.863L332.553 177.013L332.428 174.238L329.303 173.538Z" fill="white"/>
<path d="M281.078 167.088L281 165.84L279.785 165.915L279.828 167.132L281.078 167.088ZM285.928 166.788L287.15 166.529L286.927 165.474L285.85 165.54L285.928 166.788ZM289.678 184.488L289.814 185.73L291.187 185.579L290.9 184.229L289.678 184.488ZM281.728 185.363L280.478 185.407L280.526 186.753L281.864 186.605L281.728 185.363ZM281.155 168.335L286.005 168.035L285.85 165.54L281 165.84L281.155 168.335ZM284.705 167.047L288.455 184.747L290.9 184.229L287.15 166.529L284.705 167.047ZM289.541 183.245L281.591 184.12L281.864 186.605L289.814 185.73L289.541 183.245ZM282.977 185.318L282.327 167.043L279.828 167.132L280.478 185.407L282.977 185.318ZM290.083 185.238L288.854 185.014L288.596 186.426L290.031 186.487L290.083 185.238ZM293.408 167.013V165.763H292.366L292.179 166.789L293.408 167.013ZM297.183 167.013L298.252 166.364L297.887 165.763H297.183V167.013ZM300.708 172.813L299.64 173.462L301.747 176.929L301.957 172.877L300.708 172.813ZM301.008 167.013L301.2 165.778L299.832 165.565L299.76 166.948L301.008 167.013ZM306.808 167.913L308.055 168L308.135 166.854L307 166.678L306.808 167.913ZM305.583 185.463L305.506 186.71L306.744 186.788L306.83 185.55L305.583 185.463ZM300.783 185.163L299.738 185.848L300.081 186.371L300.706 186.41L300.783 185.163ZM297.083 179.513L298.129 178.828L296.409 176.202L295.853 179.292L297.083 179.513ZM296.008 185.488L295.956 186.737L297.046 186.783L297.239 185.709L296.008 185.488ZM291.313 185.462L294.638 167.237L292.179 166.789L288.854 185.014L291.313 185.462ZM293.408 168.263H297.183V165.763H293.408V168.263ZM296.115 167.662L299.64 173.462L301.777 172.164L298.252 166.364L296.115 167.662ZM301.957 172.877L302.257 167.077L299.76 166.948L299.46 172.748L301.957 172.877ZM300.817 168.248L306.617 169.148L307 166.678L301.2 165.778L300.817 168.248ZM305.562 167.826L304.337 185.376L306.83 185.55L308.055 168L305.562 167.826ZM305.661 184.215L300.861 183.915L300.706 186.41L305.506 186.71L305.661 184.215ZM301.829 184.478L298.129 178.828L296.038 180.198L299.738 185.848L301.829 184.478ZM295.853 179.292L294.778 185.267L297.239 185.709L298.314 179.734L295.853 179.292ZM296.061 184.239L290.136 183.989L290.031 186.487L295.956 186.737L296.061 184.239ZM308.472 166.913L308.482 165.663L307.485 165.655L307.255 166.625L308.472 166.913ZM321.072 167.013L322.313 167.157L322.474 165.774L321.082 165.763L321.072 167.013ZM320.372 173.038L320.232 174.28L321.469 174.42L321.613 173.182L320.372 173.038ZM313.497 172.263L313.637 171.021L312.315 170.872L312.248 172.2L313.497 172.263ZM313.397 174.263L312.148 174.2L312.079 175.582L313.461 175.511L313.397 174.263ZM319.222 173.963L320.453 174.176L320.72 172.634L319.157 172.715L319.222 173.963ZM318.272 179.463L318.113 180.703L319.3 180.855L319.503 179.676L318.272 179.463ZM313.397 178.838L313.556 177.598L311.902 177.386L312.162 179.033L313.397 178.838ZM314.447 185.488V186.738H315.909L315.681 185.293L314.447 185.488ZM307.797 185.488L306.548 185.536L306.594 186.738H307.797V185.488ZM307.272 171.988L306.055 171.7L306.016 171.866L306.023 172.036L307.272 171.988ZM308.462 168.163L321.062 168.263L321.082 165.763L308.482 165.663L308.462 168.163ZM319.83 166.869L319.13 172.894L321.613 173.182L322.313 167.157L319.83 166.869ZM320.512 171.796L313.637 171.021L313.357 173.505L320.232 174.28L320.512 171.796ZM312.248 172.2L312.148 174.2L314.645 174.325L314.745 172.325L312.248 172.2ZM313.461 175.511L319.286 175.211L319.157 172.715L313.332 173.015L313.461 175.511ZM317.99 173.75L317.04 179.25L319.503 179.676L320.453 174.176L317.99 173.75ZM318.431 178.223L313.556 177.598L313.238 180.078L318.113 180.703L318.431 178.223ZM312.162 179.033L313.212 185.683L315.681 185.293L314.631 178.643L312.162 179.033ZM314.447 184.238H307.797V186.738H314.447V184.238ZM309.046 185.439L308.521 171.939L306.023 172.036L306.548 185.536L309.046 185.439ZM308.488 172.276L309.688 167.2L307.255 166.625L306.055 171.7L308.488 172.276ZM334.628 167.238L335.602 166.454L335.242 166.008L334.669 165.989L334.628 167.238ZM340.078 174.013L341.309 174.227L341.406 173.67L341.052 173.229L340.078 174.013ZM338.528 182.938L338.843 184.147L339.622 183.944L339.759 183.152L338.528 182.938ZM328.653 185.513L327.826 186.45L328.324 186.89L328.968 186.722L328.653 185.513ZM320.778 178.563L319.541 178.377L319.44 179.05L319.951 179.5L320.778 178.563ZM321.953 170.738L321.283 169.682L320.801 169.988L320.716 170.552L321.953 170.738ZM327.828 167.013L327.869 165.764L327.484 165.751L327.158 165.957L327.828 167.013ZM329.303 173.538L329.576 172.318L328.579 172.095L328.162 173.027L329.303 173.538ZM328.028 176.388L326.887 175.877L326.456 176.839L327.332 177.426L328.028 176.388ZM330.228 177.863L329.532 178.901L330.06 179.255L330.657 179.037L330.228 177.863ZM332.553 177.013L332.982 178.187L333.843 177.872L333.801 176.957L332.553 177.013ZM332.428 174.238L333.676 174.182L333.633 173.227L332.701 173.018L332.428 174.238ZM333.654 168.021L339.104 174.796L341.052 173.229L335.602 166.454L333.654 168.021ZM338.846 173.799L337.296 182.724L339.759 183.152L341.309 174.227L338.846 173.799ZM338.212 181.728L328.337 184.303L328.968 186.722L338.843 184.147L338.212 181.728ZM329.48 184.576L321.605 177.626L319.951 179.5L327.826 186.45L329.48 184.576ZM322.014 178.748L323.189 170.923L320.716 170.552L319.541 178.377L322.014 178.748ZM322.622 171.794L328.497 168.069L327.158 165.957L321.283 169.682L322.622 171.794ZM327.786 168.262L334.586 168.487L334.669 165.989L327.869 165.764L327.786 168.262ZM328.162 173.027L326.887 175.877L329.169 176.898L330.444 174.048L328.162 173.027ZM327.332 177.426L329.532 178.901L330.924 176.825L328.724 175.35L327.332 177.426ZM330.657 179.037L332.982 178.187L332.123 175.839L329.798 176.689L330.657 179.037ZM333.801 176.957L333.676 174.182L331.179 174.294L331.304 177.069L333.801 176.957ZM332.701 173.018L329.576 172.318L329.029 174.758L332.154 175.458L332.701 173.018Z" fill="#353535" mask="url(#path-8-outside-2_874_3656)"/>
</g>
<defs>
<filter id="filter0_dd_874_3656" x="0.864258" y="0.250488" width="359.772" height="225.653" filterUnits="userSpaceOnUse" color-interpolation-filters="sRGB">
<feFlood flood-opacity="0" result="BackgroundImageFix"/>
<feColorMatrix in="SourceAlpha" type="matrix" values="0 0 0 0 0 0 0 0 0 0 0 0 0 0 0 0 0 0 127 0" result="hardAlpha"/>
<feOffset dx="5" dy="5"/>
<feGaussianBlur stdDeviation="5"/>
<feComposite in2="hardAlpha" operator="out"/>
<feColorMatrix type="matrix" values="0 0 0 0 0 0 0 0 0 0 0 0 0 0 0 0 0 0 0.15 0"/>
<feBlend mode="normal" in2="BackgroundImageFix" result="effect1_dropShadow_874_3656"/>
<feColorMatrix in="SourceAlpha" type="matrix" values="0 0 0 0 0 0 0 0 0 0 0 0 0 0 0 0 0 0 127 0" result="hardAlpha"/>
<feOffset dx="5" dy="5"/>
<feComposite in2="hardAlpha" operator="out"/>
<feColorMatrix type="matrix" values="0 0 0 0 0.784948 0 0 0 0 0.738688 0 0 0 0 0.64889 0 0 0 1 0"/>
<feBlend mode="normal" in2="effect1_dropShadow_874_3656" result="effect2_dropShadow_874_3656"/>
<feBlend mode="normal" in="SourceGraphic" in2="effect2_dropShadow_874_3656" result="shape"/>
</filter>
<filter id="filter1_d_874_3656" x="119.764" y="22.6629" width="107.333" height="21.2" filterUnits="userSpaceOnUse" color-interpolation-filters="sRGB">
<feFlood flood-opacity="0" result="BackgroundImageFix"/>
<feColorMatrix in="SourceAlpha" type="matrix" values="0 0 0 0 0 0 0 0 0 0 0 0 0 0 0 0 0 0 127 0" result="hardAlpha"/>
<feOffset dx="1.25" dy="2.5"/>
<feComposite in2="hardAlpha" operator="out"/>
<feColorMatrix type="matrix" values="0 0 0 0 0.208281 0 0 0 0 0.208281 0 0 0 0 0.208281 0 0 0 1 0"/>
<feBlend mode="normal" in2="BackgroundImageFix" result="effect1_dropShadow_874_3656"/>
<feBlend mode="normal" in="SourceGraphic" in2="effect1_dropShadow_874_3656" result="shape"/>
</filter>
<filter id="filter2_d_874_3656" x="281.078" y="166.788" width="60.25" height="21.225" filterUnits="userSpaceOnUse" color-interpolation-filters="sRGB">
<feFlood flood-opacity="0" result="BackgroundImageFix"/>
<feColorMatrix in="SourceAlpha" type="matrix" values="0 0 0 0 0 0 0 0 0 0 0 0 0 0 0 0 0 0 127 0" result="hardAlpha"/>
<feOffset dx="1.25" dy="2.5"/>
<feComposite in2="hardAlpha" operator="out"/>
<feColorMatrix type="matrix" values="0 0 0 0 0.208281 0 0 0 0 0.208281 0 0 0 0 0.208281 0 0 0 1 0"/>
<feBlend mode="normal" in2="BackgroundImageFix" result="effect1_dropShadow_874_3656"/>
<feBlend mode="normal" in="SourceGraphic" in2="effect1_dropShadow_874_3656" result="shape"/>
</filter>
<clipPath id="clip0_874_3656">
<rect width="95.6808" height="60.4328" fill="white" transform="translate(264.827 148.686)"/>
</clipPath>
</defs>
</svg>
