<svg width="361" height="226" viewBox="0 0 361 226" fill="none" xmlns="http://www.w3.org/2000/svg">
<g filter="url(#filter0_dd_292_3265)">
<path d="M19.2666 5.25049H330.196L345.386 144.746L326.662 191.845L175.975 186.323L168.939 210.903L158.373 185.677L24.6616 194.277L5.61426 180.079L5.61426 42.9872L19.2666 5.25049Z" fill="#FFFAE7"/>
<path d="M175.374 186.151L168.828 209.02L158.949 185.436L158.777 185.025L158.333 185.054L24.8508 193.639L6.23926 179.765V43.0968L19.7052 5.87549H329.635L344.748 144.659L326.245 191.205L175.998 185.698L175.509 185.68L175.374 186.151Z" stroke="#C8BCA5" stroke-width="1.25"/>
</g>
<g filter="url(#filter1_d_292_3265)">
<mask id="path-3-outside-1_292_3265" maskUnits="userSpaceOnUse" x="112" y="20.3129" width="122" height="23" fill="black">
<rect fill="white" x="112" y="20.3129" width="122" height="23"/>
<path d="M124.468 22.8129L128.868 25.8379L129.218 33.2379L124.768 37.5379L119.243 37.8879V41.4129H113.418L114.343 22.8129H124.468ZM120.268 28.5129L120.093 31.5379L121.743 31.7629L123.843 29.2879L120.268 28.5129ZM142.361 22.9879L147.811 29.7629L146.261 38.6879L136.386 41.2629L128.511 34.3129L129.686 26.4879L135.561 22.7629L142.361 22.9879ZM137.036 29.2879L135.761 32.1379L137.961 33.6129L140.286 32.7629L140.161 29.9879L137.036 29.2879ZM155.231 23.3879L154.506 34.5879L162.181 33.6629L162.881 39.4379L148.981 41.0879L148.281 22.5879L155.231 23.3879ZM165.925 22.9879L170.05 27.3879L173.925 22.4879L179.4 26.6129L173.425 31.8129L177.85 40.9879L168.05 40.5379V32.5629L161.825 26.6129L165.925 22.9879ZM195.45 26.5379L191.175 28.9379L189.45 27.9879L186.9 28.7629L185.375 32.3879L186.975 35.7629L191.575 35.2129L191.675 34.3879L188.125 34.7129L188.575 29.6879L195.975 29.7879V39.6629L183.55 41.2629L179.775 33.5879L181.15 26.5379L186.45 22.6879L192.95 23.1379L195.45 26.5379ZM209.5 22.9879L214.95 29.7629L213.4 38.6879L203.525 41.2629L195.65 34.3129L196.825 26.4879L202.7 22.7629L209.5 22.9879ZM204.175 29.2879L202.9 32.1379L205.1 33.6129L207.425 32.7629L207.3 29.9879L204.175 29.2879ZM215.42 40.9879L218.745 22.7629H222.52L226.045 28.5629L226.345 22.7629L232.145 23.6629L230.92 41.2129L226.12 40.9129L222.42 35.2629L221.345 41.2379L215.42 40.9879Z"/>
</mask>
<path d="M124.468 22.8129L128.868 25.8379L129.218 33.2379L124.768 37.5379L119.243 37.8879V41.4129H113.418L114.343 22.8129H124.468ZM120.268 28.5129L120.093 31.5379L121.743 31.7629L123.843 29.2879L120.268 28.5129ZM142.361 22.9879L147.811 29.7629L146.261 38.6879L136.386 41.2629L128.511 34.3129L129.686 26.4879L135.561 22.7629L142.361 22.9879ZM137.036 29.2879L135.761 32.1379L137.961 33.6129L140.286 32.7629L140.161 29.9879L137.036 29.2879ZM155.231 23.3879L154.506 34.5879L162.181 33.6629L162.881 39.4379L148.981 41.0879L148.281 22.5879L155.231 23.3879ZM165.925 22.9879L170.05 27.3879L173.925 22.4879L179.4 26.6129L173.425 31.8129L177.85 40.9879L168.05 40.5379V32.5629L161.825 26.6129L165.925 22.9879ZM195.45 26.5379L191.175 28.9379L189.45 27.9879L186.9 28.7629L185.375 32.3879L186.975 35.7629L191.575 35.2129L191.675 34.3879L188.125 34.7129L188.575 29.6879L195.975 29.7879V39.6629L183.55 41.2629L179.775 33.5879L181.15 26.5379L186.45 22.6879L192.95 23.1379L195.45 26.5379ZM209.5 22.9879L214.95 29.7629L213.4 38.6879L203.525 41.2629L195.65 34.3129L196.825 26.4879L202.7 22.7629L209.5 22.9879ZM204.175 29.2879L202.9 32.1379L205.1 33.6129L207.425 32.7629L207.3 29.9879L204.175 29.2879ZM215.42 40.9879L218.745 22.7629H222.52L226.045 28.5629L226.345 22.7629L232.145 23.6629L230.92 41.2129L226.12 40.9129L222.42 35.2629L221.345 41.2379L215.42 40.9879Z" fill="white"/>
<path d="M124.468 22.8129L125.176 21.7828L124.856 21.5629H124.468V22.8129ZM128.868 25.8379L130.116 25.7788L130.087 25.1592L129.576 24.8078L128.868 25.8379ZM129.218 33.2379L130.086 34.1368L130.493 33.7438L130.466 33.1788L129.218 33.2379ZM124.768 37.5379L124.847 38.7854L125.306 38.7563L125.636 38.4368L124.768 37.5379ZM119.243 37.8879L119.164 36.6404L117.993 36.7145V37.8879H119.243ZM119.243 41.4129V42.6629H120.493V41.4129H119.243ZM113.418 41.4129L112.169 41.3508L112.104 42.6629H113.418V41.4129ZM114.343 22.8129V21.5629H113.153L113.094 22.7508L114.343 22.8129ZM120.268 28.5129L120.532 27.2912L119.104 26.9816L119.02 28.4407L120.268 28.5129ZM120.093 31.5379L118.845 31.4657L118.778 32.6202L119.924 32.7764L120.093 31.5379ZM121.743 31.7629L121.574 33.0014L122.253 33.094L122.696 32.5716L121.743 31.7629ZM123.843 29.2879L124.796 30.0966L126.144 28.5077L124.107 28.0662L123.843 29.2879ZM123.759 23.8429L128.159 26.8679L129.576 24.8078L125.176 21.7828L123.759 23.8429ZM127.619 25.8969L127.969 33.2969L130.466 33.1788L130.116 25.7788L127.619 25.8969ZM128.349 32.339L123.899 36.639L125.636 38.4368L130.086 34.1368L128.349 32.339ZM124.689 36.2904L119.164 36.6404L119.322 39.1354L124.847 38.7854L124.689 36.2904ZM117.993 37.8879V41.4129H120.493V37.8879H117.993ZM119.243 40.1629H113.418V42.6629H119.243V40.1629ZM114.666 41.475L115.591 22.875L113.094 22.7508L112.169 41.3508L114.666 41.475ZM114.343 24.0629H124.468V21.5629H114.343V24.0629ZM119.02 28.4407L118.845 31.4657L121.341 31.6101L121.516 28.5851L119.02 28.4407ZM119.924 32.7764L121.574 33.0014L121.911 30.5243L120.261 30.2993L119.924 32.7764ZM122.696 32.5716L124.796 30.0966L122.889 28.4791L120.789 30.9541L122.696 32.5716ZM124.107 28.0662L120.532 27.2912L120.003 29.7345L123.578 30.5095L124.107 28.0662ZM142.361 22.9879L143.335 22.2044L142.976 21.7575L142.402 21.7385L142.361 22.9879ZM147.811 29.7629L149.043 29.9768L149.139 29.4198L148.785 28.9794L147.811 29.7629ZM146.261 38.6879L146.577 39.8974L147.355 39.6944L147.493 38.9018L146.261 38.6879ZM136.386 41.2629L135.559 42.2001L136.058 42.6403L136.702 42.4724L136.386 41.2629ZM128.511 34.3129L127.275 34.1272L127.174 34.8L127.684 35.2501L128.511 34.3129ZM129.686 26.4879L129.017 25.4322L128.535 25.7378L128.45 26.3022L129.686 26.4879ZM135.561 22.7629L135.602 21.5135L135.217 21.5008L134.892 21.7072L135.561 22.7629ZM137.036 29.2879L137.309 28.0681L136.312 27.8448L135.895 28.7774L137.036 29.2879ZM135.761 32.1379L134.62 31.6274L134.19 32.5893L135.065 33.1761L135.761 32.1379ZM137.961 33.6129L137.265 34.6511L137.793 35.0052L138.39 34.7869L137.961 33.6129ZM140.286 32.7629L140.715 33.9369L141.576 33.6222L141.535 32.7066L140.286 32.7629ZM140.161 29.9879L141.41 29.9316L141.367 28.977L140.434 28.7681L140.161 29.9879ZM141.387 23.7714L146.837 30.5464L148.785 28.9794L143.335 22.2044L141.387 23.7714ZM146.58 29.549L145.03 38.474L147.493 38.9018L149.043 29.9768L146.58 29.549ZM145.946 37.4783L136.071 40.0533L136.702 42.4724L146.577 39.8974L145.946 37.4783ZM137.213 40.3257L129.338 33.3757L127.684 35.2501L135.559 42.2001L137.213 40.3257ZM129.747 34.4985L130.922 26.6735L128.45 26.3022L127.275 34.1272L129.747 34.4985ZM130.356 27.5436L136.231 23.8186L134.892 21.7072L129.017 25.4322L130.356 27.5436ZM135.52 24.0122L142.32 24.2372L142.402 21.7385L135.602 21.5135L135.52 24.0122ZM135.895 28.7774L134.62 31.6274L136.902 32.6483L138.177 29.7983L135.895 28.7774ZM135.065 33.1761L137.265 34.6511L138.657 32.5746L136.457 31.0996L135.065 33.1761ZM138.39 34.7869L140.715 33.9369L139.857 31.5889L137.532 32.4389L138.39 34.7869ZM141.535 32.7066L141.41 29.9316L138.912 30.0441L139.037 32.8191L141.535 32.7066ZM140.434 28.7681L137.309 28.0681L136.763 30.5076L139.888 31.2076L140.434 28.7681ZM155.231 23.3879L156.478 23.4686L156.555 22.282L155.374 22.1461L155.231 23.3879ZM154.506 34.5879L153.258 34.5071L153.161 36.009L154.655 35.8289L154.506 34.5879ZM162.181 33.6629L163.422 33.5125L163.271 32.2724L162.031 32.4218L162.181 33.6629ZM162.881 39.4379L163.028 40.6792L164.273 40.5314L164.122 39.2875L162.881 39.4379ZM148.981 41.0879L147.732 41.1351L147.783 42.4888L149.128 42.3292L148.981 41.0879ZM148.281 22.5879L148.424 21.3461L146.977 21.1795L147.032 22.6351L148.281 22.5879ZM153.983 23.3071L153.258 34.5071L155.753 34.6686L156.478 23.4686L153.983 23.3071ZM154.655 35.8289L162.33 34.9039L162.031 32.4218L154.356 33.3468L154.655 35.8289ZM160.94 33.8133L161.64 39.5883L164.122 39.2875L163.422 33.5125L160.94 33.8133ZM162.734 38.1966L148.834 39.8466L149.128 42.3292L163.028 40.6792L162.734 38.1966ZM150.23 41.0406L149.53 22.5406L147.032 22.6351L147.732 41.1351L150.23 41.0406ZM148.138 23.8297L155.088 24.6297L155.374 22.1461L148.424 21.3461L148.138 23.8297ZM165.925 22.9879L166.837 22.1329L166.007 21.2472L165.097 22.0514L165.925 22.9879ZM170.05 27.3879L169.138 28.2428L170.13 29.3013L171.03 28.1632L170.05 27.3879ZM173.925 22.4879L174.677 21.4895L173.702 20.7547L172.945 21.7125L173.925 22.4879ZM179.4 26.6129L180.221 27.5558L181.384 26.5429L180.152 25.6145L179.4 26.6129ZM173.425 31.8129L172.604 30.8699L171.885 31.4964L172.299 32.3559L173.425 31.8129ZM177.85 40.9879L177.793 42.2366L179.886 42.3327L178.976 40.4449L177.85 40.9879ZM168.05 40.5379H166.8V41.7318L167.993 41.7866L168.05 40.5379ZM168.05 32.5629H169.3V32.0285L168.914 31.6592L168.05 32.5629ZM161.825 26.6129L160.997 25.6764L159.978 26.577L160.961 27.5165L161.825 26.6129ZM165.013 23.8428L169.138 28.2428L170.962 26.5329L166.837 22.1329L165.013 23.8428ZM171.03 28.1632L174.905 23.2632L172.945 21.7125L169.07 26.6125L171.03 28.1632ZM173.173 23.4862L178.648 27.6112L180.152 25.6145L174.677 21.4895L173.173 23.4862ZM178.579 25.6699L172.604 30.8699L174.246 32.7558L180.221 27.5558L178.579 25.6699ZM172.299 32.3559L176.724 41.5309L178.976 40.4449L174.551 31.2699L172.299 32.3559ZM177.907 39.7392L168.107 39.2892L167.993 41.7866L177.793 42.2366L177.907 39.7392ZM169.3 40.5379V32.5629H166.8V40.5379H169.3ZM168.914 31.6592L162.689 25.7092L160.961 27.5165L167.186 33.4665L168.914 31.6592ZM162.653 27.5493L166.753 23.9243L165.097 22.0514L160.997 25.6764L162.653 27.5493ZM195.45 26.5379L196.062 27.6278L197.294 26.936L196.457 25.7974L195.45 26.5379ZM191.175 28.9379L190.572 30.0328L191.181 30.3681L191.787 30.0278L191.175 28.9379ZM189.45 27.9879L190.053 26.8929L189.591 26.6385L189.087 26.7919L189.45 27.9879ZM186.9 28.7629L186.537 27.5669L185.975 27.7375L185.748 28.2781L186.9 28.7629ZM185.375 32.3879L184.223 31.9031L184.006 32.4183L184.246 32.9233L185.375 32.3879ZM186.975 35.7629L185.846 36.2983L186.231 37.1108L187.123 37.004L186.975 35.7629ZM191.575 35.2129L191.723 36.454L192.698 36.3375L192.816 35.3633L191.575 35.2129ZM191.675 34.3879L192.916 34.5383L193.102 33.002L191.561 33.1431L191.675 34.3879ZM188.125 34.7129L186.88 34.6014L186.746 36.0943L188.239 35.9577L188.125 34.7129ZM188.575 29.6879L188.592 28.438L187.433 28.4223L187.33 29.5764L188.575 29.6879ZM195.975 29.7879H197.225V28.5546L195.992 28.538L195.975 29.7879ZM195.975 39.6629L196.135 40.9026L197.225 40.7622V39.6629H195.975ZM183.55 41.2629L182.428 41.8146L182.823 42.6168L183.71 42.5026L183.55 41.2629ZM179.775 33.5879L178.548 33.3486L178.468 33.7618L178.653 34.1396L179.775 33.5879ZM181.15 26.5379L180.415 25.5265L180.017 25.8157L179.923 26.2986L181.15 26.5379ZM186.45 22.6879L186.536 21.4408L186.083 21.4095L185.715 21.6765L186.45 22.6879ZM192.95 23.1379L193.957 22.3974L193.614 21.9308L193.036 21.8908L192.95 23.1379ZM194.838 25.4479L190.563 27.8479L191.787 30.0278L196.062 27.6278L194.838 25.4479ZM191.778 27.8429L190.053 26.8929L188.847 29.0828L190.572 30.0328L191.778 27.8429ZM189.087 26.7919L186.537 27.5669L187.264 29.9588L189.814 29.1838L189.087 26.7919ZM185.748 28.2781L184.223 31.9031L186.527 32.8726L188.052 29.2476L185.748 28.2781ZM184.246 32.9233L185.846 36.2983L188.105 35.2274L186.505 31.8524L184.246 32.9233ZM187.123 37.004L191.723 36.454L191.427 33.9717L186.827 34.5217L187.123 37.004ZM192.816 35.3633L192.916 34.5383L190.434 34.2375L190.334 35.0625L192.816 35.3633ZM191.561 33.1431L188.011 33.4681L188.239 35.9577L191.789 35.6327L191.561 33.1431ZM189.37 34.8244L189.82 29.7994L187.33 29.5764L186.88 34.6014L189.37 34.8244ZM188.558 30.9378L195.958 31.0378L195.992 28.538L188.592 28.438L188.558 30.9378ZM194.725 29.7879V39.6629H197.225V29.7879H194.725ZM195.815 38.4231L183.39 40.0231L183.71 42.5026L196.135 40.9026L195.815 38.4231ZM184.672 40.7112L180.897 33.0362L178.653 34.1396L182.428 41.8146L184.672 40.7112ZM181.002 33.8272L182.377 26.7772L179.923 26.2986L178.548 33.3486L181.002 33.8272ZM181.885 27.5492L187.185 23.6992L185.715 21.6765L180.415 25.5265L181.885 27.5492ZM186.364 23.9349L192.864 24.3849L193.036 21.8908L186.536 21.4408L186.364 23.9349ZM191.943 23.8784L194.443 27.2784L196.457 25.7974L193.957 22.3974L191.943 23.8784ZM209.5 22.9879L210.474 22.2044L210.114 21.7575L209.541 21.7385L209.5 22.9879ZM214.95 29.7629L216.181 29.9768L216.278 29.4198L215.924 28.9794L214.95 29.7629ZM213.4 38.6879L213.715 39.8974L214.494 39.6944L214.631 38.9018L213.4 38.6879ZM203.525 41.2629L202.698 42.2001L203.196 42.6403L203.84 42.4724L203.525 41.2629ZM195.65 34.3129L194.414 34.1272L194.313 34.8L194.823 35.2501L195.65 34.3129ZM196.825 26.4879L196.155 25.4322L195.673 25.7378L195.589 26.3022L196.825 26.4879ZM202.7 22.7629L202.741 21.5135L202.356 21.5008L202.03 21.7072L202.7 22.7629ZM204.175 29.2879L204.448 28.0681L203.451 27.8448L203.034 28.7774L204.175 29.2879ZM202.9 32.1379L201.759 31.6274L201.328 32.5893L202.204 33.1761L202.9 32.1379ZM205.1 33.6129L204.404 34.6511L204.932 35.0052L205.529 34.7869L205.1 33.6129ZM207.425 32.7629L207.854 33.9369L208.715 33.6222L208.674 32.7066L207.425 32.7629ZM207.3 29.9879L208.549 29.9316L208.506 28.977L207.573 28.7681L207.3 29.9879ZM208.526 23.7714L213.976 30.5464L215.924 28.9794L210.474 22.2044L208.526 23.7714ZM213.718 29.549L212.168 38.474L214.631 38.9018L216.181 29.9768L213.718 29.549ZM213.084 37.4783L203.209 40.0533L203.84 42.4724L213.715 39.8974L213.084 37.4783ZM204.352 40.3257L196.477 33.3757L194.823 35.2501L202.698 42.2001L204.352 40.3257ZM196.886 34.4985L198.061 26.6735L195.589 26.3022L194.414 34.1272L196.886 34.4985ZM197.494 27.5436L203.369 23.8186L202.03 21.7072L196.155 25.4322L197.494 27.5436ZM202.658 24.0122L209.458 24.2372L209.541 21.7385L202.741 21.5135L202.658 24.0122ZM203.034 28.7774L201.759 31.6274L204.041 32.6483L205.316 29.7983L203.034 28.7774ZM202.204 33.1761L204.404 34.6511L205.796 32.5746L203.596 31.0996L202.204 33.1761ZM205.529 34.7869L207.854 33.9369L206.996 31.5889L204.671 32.4389L205.529 34.7869ZM208.674 32.7066L208.549 29.9316L206.051 30.0441L206.176 32.8191L208.674 32.7066ZM207.573 28.7681L204.448 28.0681L203.902 30.5076L207.027 31.2076L207.573 28.7681ZM215.42 40.9879L214.19 40.7635L213.932 42.1762L215.367 42.2368L215.42 40.9879ZM218.745 22.7629V21.5129H217.702L217.515 22.5385L218.745 22.7629ZM222.52 22.7629L223.588 22.1137L223.223 21.5129H222.52V22.7629ZM226.045 28.5629L224.976 29.2121L227.083 32.6789L227.293 28.6274L226.045 28.5629ZM226.345 22.7629L226.536 21.5276L225.168 21.3153L225.096 22.6983L226.345 22.7629ZM232.145 23.6629L233.392 23.7499L233.472 22.6038L232.336 22.4276L232.145 23.6629ZM230.92 41.2129L230.842 42.4604L232.08 42.5378L232.167 41.2999L230.92 41.2129ZM226.12 40.9129L225.074 41.5977L225.417 42.1214L226.042 42.1604L226.12 40.9129ZM222.42 35.2629L223.465 34.5781L221.745 31.9515L221.189 35.0415L222.42 35.2629ZM221.345 41.2379L221.292 42.4868L222.382 42.5327L222.575 41.4592L221.345 41.2379ZM216.649 41.2122L219.974 22.9872L217.515 22.5385L214.19 40.7635L216.649 41.2122ZM218.745 24.0129H222.52V21.5129H218.745V24.0129ZM221.451 23.4121L224.976 29.2121L227.113 27.9137L223.588 22.1137L221.451 23.4121ZM227.293 28.6274L227.593 22.8274L225.096 22.6983L224.796 28.4983L227.293 28.6274ZM226.153 23.9981L231.953 24.8981L232.336 22.4276L226.536 21.5276L226.153 23.9981ZM230.898 23.5758L229.673 41.1258L232.167 41.2999L233.392 23.7499L230.898 23.5758ZM230.998 39.9653L226.198 39.6653L226.042 42.1604L230.842 42.4604L230.998 39.9653ZM227.165 40.2281L223.465 34.5781L221.374 35.9477L225.074 41.5977L227.165 40.2281ZM221.189 35.0415L220.114 41.0165L222.575 41.4592L223.65 35.4842L221.189 35.0415ZM221.397 39.989L215.472 39.739L215.367 42.2368L221.292 42.4868L221.397 39.989Z" fill="#353535" mask="url(#path-3-outside-1_292_3265)"/>
</g>
<path d="M25.5001 72.3279L38.4326 72.5554V77.8054L34.0576 77.0879L35.2651 85.3304H29.0001L29.9451 77.0879L25.5001 76.8604V72.3279ZM39.3429 73.0979L43.7529 72.2579L43.9629 77.5954L46.5354 77.2104L46.6929 72.5029L50.2979 72.6604L50.9979 85.2254L46.9379 85.0854L46.9029 81.1479L44.4529 81.6204L44.5404 85.2254H40.7429L39.3429 73.0979ZM51.4446 72.3804L54.8396 72.1704L57.4646 84.5604L51.8996 85.1729L51.4446 72.3804ZM70.4362 75.5829L68.1787 78.3654L65.5362 76.6679L64.8712 77.5079L69.5962 80.9729L67.3037 85.2954H61.6862L57.7662 82.1804L59.4637 79.3279L62.8412 81.2354L63.3487 80.4479L58.3962 77.5079L63.0862 72.2579H67.3037L70.4362 75.5829ZM79.3352 72.3804L82.7302 72.1704L85.3552 84.5604L79.7902 85.1729L79.3352 72.3804ZM98.3268 75.5829L96.0693 78.3654L93.4268 76.6679L92.7618 77.5079L97.4868 80.9729L95.1943 85.2954H89.5768L85.6568 82.1804L87.3543 79.3279L90.7318 81.2354L91.2393 80.4479L86.2868 77.5079L90.9768 72.2579H95.1943L98.3268 75.5829ZM107.138 72.3279L120.071 72.5554V77.8054L115.696 77.0879L116.903 85.3304H110.638L111.583 77.0879L107.138 76.8604V72.3279ZM120.981 73.0979L125.391 72.2579L125.601 77.5954L128.174 77.2104L128.331 72.5029L131.936 72.6604L132.636 85.2254L128.576 85.0854L128.541 81.1479L126.091 81.6204L126.179 85.2254H122.381L120.981 73.0979ZM133.94 72.2754H142.515L141.798 75.8979L137.58 76.5454L137.528 77.4379L141.255 77.7179L141.08 80.5004L137.755 80.7979L138.053 81.7429L142.095 81.7779L143.583 85.2604H133.94L132.995 76.8954L133.94 72.2754ZM152.722 72.2754H161.297L160.579 75.8979L156.362 76.5454L156.309 77.4379L160.037 77.7179L159.862 80.5004L156.537 80.7979L156.834 81.7429L160.877 81.7779L162.364 85.2604H152.722L151.777 76.8954L152.722 72.2754ZM165.309 72.3804L168.056 75.1804L170.086 72.1879L173.411 75.3729L170.996 78.2254L174.986 81.3579L171.661 85.1904L168.791 81.4454L165.151 85.1029L161.809 81.7954L165.676 78.3129L162.736 75.0229L165.309 72.3804ZM182.979 72.3454L188.509 84.4029L183.224 85.2429L182.804 82.1454L178.552 82.0404L177.589 85.3479L172.497 84.4379L179.479 72.6954L182.979 72.3454ZM180.372 76.9304L179.654 78.7154L182.332 78.7854L181.719 76.9829L180.372 76.9304ZM187.7 83.9829L193.947 72.4154H197.64L198.865 75.9154L201.035 72.3979L204.307 72.3279L207.895 84.9104L203.222 85.2954L202.33 82.1104L201.262 79.0304L198.042 81.9004L195.575 78.6279L192.617 84.9104L187.7 83.9829ZM215.669 72.3629L218.749 74.4804L218.994 79.6604L215.879 82.6704L212.012 82.9154V85.3829H207.934L208.582 72.3629H215.669ZM212.729 76.3529L212.607 78.4704L213.762 78.6279L215.232 76.8954L212.729 76.3529ZM223.925 72.7654L223.417 80.6054L228.79 79.9579L229.28 84.0004L219.55 85.1554L219.06 72.2054L223.925 72.7654ZM231.113 72.2754H239.688L238.971 75.8979L234.753 76.5454L234.701 77.4379L238.428 77.7179L238.253 80.5004L234.928 80.7979L235.226 81.7429L239.268 81.7779L240.756 85.2604H231.113L230.168 76.8954L231.113 72.2754ZM38.1876 96.5829L35.9301 99.3654L33.2876 97.6679L32.6226 98.5079L37.3476 101.973L35.0551 106.295H29.4376L25.5176 103.18L27.2151 100.328L30.5926 102.235L31.1001 101.448L26.1476 98.5079L30.8376 93.2579H35.0551L38.1876 96.5829ZM39.1941 93.2754H47.7691L47.0516 96.8979L42.8341 97.5454L42.7816 98.4379L46.5091 98.7179L46.3341 101.5L43.0091 101.798L43.3066 102.743L47.3491 102.778L48.8366 106.26H39.1941L38.2491 97.8954L39.1941 93.2754ZM48.2809 106.085L50.6084 93.3279H53.2509L55.7184 97.3879L55.9284 93.3279L59.9884 93.9579L59.1309 106.243L55.7709 106.033L53.1809 102.078L52.4284 106.26L48.2809 106.085ZM60.295 93.3279L73.2275 93.5554V98.8054L68.8525 98.0879L70.06 106.33H63.795L64.74 98.0879L60.295 97.8604V93.3279ZM75.0828 93.2754H83.6578L82.9403 96.8979L78.7228 97.5454L78.6703 98.4379L82.3978 98.7179L82.2228 101.5L78.8978 101.798L79.1953 102.743L83.2378 102.778L84.7253 106.26H75.0828L74.1378 97.8954L75.0828 93.2754ZM84.1696 106.085L86.4971 93.3279H89.1396L91.6071 97.3879L91.8171 93.3279L95.8771 93.9579L95.0196 106.243L91.6596 106.033L89.0696 102.078L88.3171 106.26L84.1696 106.085ZM101.206 93.2929L106.036 93.6079L105.844 98.2454L102.694 96.7754L99.9462 98.0529L99.8237 101.028L102.239 102.673L105.791 100.818L106.981 105.7L99.9987 106.313L96.5862 103.32L95.5712 99.5579L97.1462 95.5154L101.206 93.2929ZM107.895 93.2754H116.47L115.753 96.8979L111.535 97.5454L111.483 98.4379L115.21 98.7179L115.035 101.5L111.71 101.798L112.008 102.743L116.05 102.778L117.538 106.26H107.895L106.95 97.8954L107.895 93.2754ZM132.172 93.2929L135.847 96.3029L136.6 103.32L132.977 106.278H125.732V94.0804L132.172 93.2929ZM129.74 97.9654V101.78L132.102 100.958V99.0504L129.74 97.9654ZM137.785 93.2754H146.36L145.643 96.8979L141.425 97.5454L141.373 98.4379L145.1 98.7179L144.925 101.5L141.6 101.798L141.898 102.743L145.94 102.778L147.428 106.26H137.785L136.84 97.8954L137.785 93.2754ZM159.56 96.5829L157.302 99.3654L154.66 97.6679L153.995 98.5079L158.72 101.973L156.427 106.295H150.81L146.89 103.18L148.587 100.328L151.965 102.235L152.472 101.448L147.52 98.5079L152.21 93.2579H156.427L159.56 96.5829ZM164.644 93.2929L169.474 93.6079L169.281 98.2454L166.131 96.7754L163.384 98.0529L163.261 101.028L165.676 102.673L169.229 100.818L170.419 105.7L163.436 106.313L160.024 103.32L159.009 99.5579L160.584 95.5154L164.644 93.2929ZM177.65 93.3804L180.888 95.7429L181.185 99.8204L179.365 101.85L182.603 104.703L178.805 106.348L174.833 102.953L175.428 106.33H171.403L170.388 93.9404L177.65 93.3804ZM174.833 97.0029L174.728 99.4879L175.795 99.6279L176.863 98.0879L174.833 97.0029ZM182.319 93.3804L185.714 93.1704L188.339 105.56L182.774 106.173L182.319 93.3804ZM191.038 93.2404L197.11 93.9579L198.51 96.1979L198.405 98.5954L197.495 99.9604L198.773 100.695L199.63 103.198L198.65 105.525L196.62 106.243L188.99 106.295L188.64 93.9929L191.038 93.2404ZM193.12 103.653L194.905 103.268V102.078L193.12 101.465V103.653ZM192.893 98.2279L194.66 97.8604V96.4254L192.893 96.0404V98.2279ZM199.306 93.3804L202.701 93.1704L205.326 105.56L199.761 106.173L199.306 93.3804ZM205.61 106.085L207.937 93.3279H210.58L213.047 97.3879L213.257 93.3279L217.317 93.9579L216.46 106.243L213.1 106.033L210.51 102.078L209.757 106.26L205.61 106.085ZM228.597 95.9704L225.604 97.6504L224.397 96.9854L222.612 97.5279L221.544 100.065L222.664 102.428L225.884 102.043L225.954 101.465L223.469 101.693L223.784 98.1754L228.964 98.2454V105.158L220.267 106.278L217.624 100.905L218.587 95.9704L222.297 93.2754L226.847 93.5904L228.597 95.9704ZM238.047 93.3279L250.979 93.5554V98.8054L246.604 98.0879L247.812 106.33H241.547L242.492 98.0879L238.047 97.8604V93.3279ZM251.889 94.0979L256.299 93.2579L256.509 98.5954L259.082 98.2104L259.239 93.5029L262.844 93.6604L263.544 106.225L259.484 106.085L259.449 102.148L256.999 102.62L257.087 106.225H253.289L251.889 94.0979ZM264.848 93.2754H273.423L272.706 96.8979L268.488 97.5454L268.436 98.4379L272.163 98.7179L271.988 101.5L268.663 101.798L268.961 102.743L273.003 102.778L274.491 106.26H264.848L263.903 97.8954L264.848 93.2754ZM30.3651 114.765L29.8576 122.605L35.2301 121.958L35.7201 126L25.9901 127.155L25.5001 114.205L30.3651 114.765ZM45.7435 114.485L49.5585 119.228L48.4735 125.475L41.561 127.278L36.0485 122.413L36.871 116.935L40.9835 114.328L45.7435 114.485ZM42.016 118.895L41.1235 120.89L42.6635 121.923L44.291 121.328L44.2035 119.385L42.016 118.895ZM54.9098 114.293L59.7398 114.608L59.5473 119.245L56.3973 117.775L53.6498 119.053L53.5273 122.028L55.9423 123.673L59.4948 121.818L60.6848 126.7L53.7023 127.313L50.2898 124.32L49.2748 120.558L50.8498 116.515L54.9098 114.293ZM68.5114 114.345L74.0414 126.403L68.7564 127.243L68.3364 124.145L64.0839 124.04L63.1214 127.348L58.0289 126.438L65.0114 114.695L68.5114 114.345ZM65.9039 118.93L65.1864 120.715L67.8639 120.785L67.2514 118.983L65.9039 118.93ZM73.2321 114.328L86.1646 114.555V119.805L81.7896 119.088L82.9971 127.33H76.7321L77.6771 119.088L73.2321 118.86V114.328ZM87.1623 114.38L90.5573 114.17L93.1823 126.56L87.6173 127.173L87.1623 114.38ZM102.601 114.485L106.416 119.228L105.331 125.475L98.4189 127.278L92.9064 122.413L93.7289 116.935L97.8414 114.328L102.601 114.485ZM98.8739 118.895L97.9814 120.89L99.5214 121.923L101.149 121.328L101.061 119.385L98.8739 118.895ZM106.745 127.085L109.073 114.328H111.715L114.183 118.388L114.393 114.328L118.453 114.958L117.595 127.243L114.235 127.033L111.645 123.078L110.893 127.26L106.745 127.085ZM120.632 124.285H122.014L122.837 125.72L122.259 126.788L120.632 127.155L119.879 125.878L120.632 124.285Z" fill="#77684D"/>
<g clip-path="url(#clip0_292_3265)">
<path d="M272.211 151.955L319.387 148.686L352.669 151.955L360.258 188.083L358.064 203.905L302.032 209.119L266.594 206.197L264.577 165.113L272.211 151.955Z" fill="#353535"/>
<path d="M266.68 166.352L273.81 154.665L319.164 151.676L350.922 154.643L358.155 187.388L356.116 201.37L302.348 206.128L268.596 203.483L266.68 166.352Z" fill="#ED4650" stroke="white" stroke-width="1.25"/>
</g>
<g filter="url(#filter2_d_292_3265)">
<mask id="path-8-outside-2_292_3265" maskUnits="userSpaceOnUse" x="279.5" y="164.563" width="62" height="23" fill="black">
<rect fill="white" x="279.5" y="164.563" width="62" height="23"/>
<path d="M280.828 167.088L285.678 166.788L289.428 184.488L281.478 185.363L280.828 167.088ZM289.834 185.238L293.159 167.013H296.934L300.459 172.813L300.759 167.013L306.559 167.913L305.334 185.463L300.534 185.163L296.834 179.513L295.759 185.488L289.834 185.238ZM308.222 166.913L320.822 167.013L320.122 173.038L313.247 172.263L313.147 174.263L318.972 173.963L318.022 179.463L313.147 178.838L314.197 185.488H307.547L307.022 171.988L308.222 166.913ZM334.378 167.238L339.828 174.013L338.278 182.938L328.403 185.513L320.528 178.563L321.703 170.738L327.578 167.013L334.378 167.238ZM329.053 173.538L327.778 176.388L329.978 177.863L332.303 177.013L332.178 174.238L329.053 173.538Z"/>
</mask>
<path d="M280.828 167.088L285.678 166.788L289.428 184.488L281.478 185.363L280.828 167.088ZM289.834 185.238L293.159 167.013H296.934L300.459 172.813L300.759 167.013L306.559 167.913L305.334 185.463L300.534 185.163L296.834 179.513L295.759 185.488L289.834 185.238ZM308.222 166.913L320.822 167.013L320.122 173.038L313.247 172.263L313.147 174.263L318.972 173.963L318.022 179.463L313.147 178.838L314.197 185.488H307.547L307.022 171.988L308.222 166.913ZM334.378 167.238L339.828 174.013L338.278 182.938L328.403 185.513L320.528 178.563L321.703 170.738L327.578 167.013L334.378 167.238ZM329.053 173.538L327.778 176.388L329.978 177.863L332.303 177.013L332.178 174.238L329.053 173.538Z" fill="white"/>
<path d="M280.828 167.088L280.751 165.84L279.535 165.915L279.579 167.132L280.828 167.088ZM285.678 166.788L286.901 166.529L286.677 165.474L285.601 165.54L285.678 166.788ZM289.428 184.488L289.565 185.73L290.937 185.579L290.651 184.229L289.428 184.488ZM281.478 185.363L280.229 185.407L280.276 186.753L281.615 186.605L281.478 185.363ZM280.905 168.335L285.755 168.035L285.601 165.54L280.751 165.84L280.905 168.335ZM284.455 167.047L288.205 184.747L290.651 184.229L286.901 166.529L284.455 167.047ZM289.291 183.245L281.341 184.12L281.615 186.605L289.565 185.73L289.291 183.245ZM282.727 185.318L282.077 167.043L279.579 167.132L280.229 185.407L282.727 185.318ZM289.834 185.238L288.604 185.014L288.346 186.426L289.781 186.487L289.834 185.238ZM293.159 167.013V165.763H292.116L291.929 166.789L293.159 167.013ZM296.934 167.013L298.002 166.364L297.637 165.763H296.934V167.013ZM300.459 172.813L299.39 173.462L301.497 176.929L301.707 172.877L300.459 172.813ZM300.759 167.013L300.95 165.778L299.582 165.565L299.51 166.948L300.759 167.013ZM306.559 167.913L307.806 168L307.886 166.854L306.75 166.678L306.559 167.913ZM305.334 185.463L305.256 186.71L306.494 186.788L306.581 185.55L305.334 185.463ZM300.534 185.163L299.488 185.848L299.831 186.371L300.456 186.41L300.534 185.163ZM296.834 179.513L297.879 178.828L296.159 176.202L295.603 179.292L296.834 179.513ZM295.759 185.488L295.706 186.737L296.796 186.783L296.989 185.709L295.759 185.488ZM291.063 185.462L294.388 167.237L291.929 166.789L288.604 185.014L291.063 185.462ZM293.159 168.263H296.934V165.763H293.159V168.263ZM295.865 167.662L299.39 173.462L301.527 172.164L298.002 166.364L295.865 167.662ZM301.707 172.877L302.007 167.077L299.51 166.948L299.21 172.748L301.707 172.877ZM300.567 168.248L306.367 169.148L306.75 166.678L300.95 165.778L300.567 168.248ZM305.312 167.826L304.087 185.376L306.581 185.55L307.806 168L305.312 167.826ZM305.412 184.215L300.612 183.915L300.456 186.41L305.256 186.71L305.412 184.215ZM301.579 184.478L297.879 178.828L295.788 180.198L299.488 185.848L301.579 184.478ZM295.603 179.292L294.528 185.267L296.989 185.709L298.064 179.734L295.603 179.292ZM295.811 184.239L289.886 183.989L289.781 186.487L295.706 186.737L295.811 184.239ZM308.222 166.913L308.232 165.663L307.235 165.655L307.005 166.625L308.222 166.913ZM320.822 167.013L322.063 167.157L322.224 165.774L320.832 165.763L320.822 167.013ZM320.122 173.038L319.982 174.28L321.22 174.42L321.363 173.182L320.122 173.038ZM313.247 172.263L313.387 171.021L312.065 170.872L311.998 172.2L313.247 172.263ZM313.147 174.263L311.898 174.2L311.829 175.582L313.211 175.511L313.147 174.263ZM318.972 173.963L320.203 174.176L320.47 172.634L318.907 172.715L318.972 173.963ZM318.022 179.463L317.863 180.703L319.05 180.855L319.253 179.676L318.022 179.463ZM313.147 178.838L313.306 177.598L311.652 177.386L311.912 179.033L313.147 178.838ZM314.197 185.488V186.738H315.66L315.431 185.293L314.197 185.488ZM307.547 185.488L306.298 185.536L306.344 186.738H307.547V185.488ZM307.022 171.988L305.805 171.7L305.766 171.866L305.773 172.036L307.022 171.988ZM308.212 168.163L320.812 168.263L320.832 165.763L308.232 165.663L308.212 168.163ZM319.58 166.869L318.88 172.894L321.363 173.182L322.063 167.157L319.58 166.869ZM320.262 171.796L313.387 171.021L313.107 173.505L319.982 174.28L320.262 171.796ZM311.998 172.2L311.898 174.2L314.395 174.325L314.495 172.325L311.998 172.2ZM313.211 175.511L319.036 175.211L318.907 172.715L313.082 173.015L313.211 175.511ZM317.74 173.75L316.79 179.25L319.253 179.676L320.203 174.176L317.74 173.75ZM318.181 178.223L313.306 177.598L312.988 180.078L317.863 180.703L318.181 178.223ZM311.912 179.033L312.962 185.683L315.431 185.293L314.381 178.643L311.912 179.033ZM314.197 184.238H307.547V186.738H314.197V184.238ZM308.796 185.439L308.271 171.939L305.773 172.036L306.298 185.536L308.796 185.439ZM308.238 172.276L309.438 167.2L307.005 166.625L305.805 171.7L308.238 172.276ZM334.378 167.238L335.352 166.454L334.992 166.008L334.419 165.989L334.378 167.238ZM339.828 174.013L341.059 174.227L341.156 173.67L340.802 173.229L339.828 174.013ZM338.278 182.938L338.593 184.147L339.372 183.944L339.509 183.152L338.278 182.938ZM328.403 185.513L327.576 186.45L328.074 186.89L328.718 186.722L328.403 185.513ZM320.528 178.563L319.292 178.377L319.191 179.05L319.701 179.5L320.528 178.563ZM321.703 170.738L321.033 169.682L320.551 169.988L320.467 170.552L321.703 170.738ZM327.578 167.013L327.619 165.764L327.234 165.751L326.908 165.957L327.578 167.013ZM329.053 173.538L329.326 172.318L328.329 172.095L327.912 173.027L329.053 173.538ZM327.778 176.388L326.637 175.877L326.206 176.839L327.082 177.426L327.778 176.388ZM329.978 177.863L329.282 178.901L329.81 179.255L330.407 179.037L329.978 177.863ZM332.303 177.013L332.732 178.187L333.593 177.872L333.551 176.957L332.303 177.013ZM332.178 174.238L333.426 174.182L333.383 173.227L332.451 173.018L332.178 174.238ZM333.404 168.021L338.854 174.796L340.802 173.229L335.352 166.454L333.404 168.021ZM338.596 173.799L337.046 182.724L339.509 183.152L341.059 174.227L338.596 173.799ZM337.962 181.728L328.087 184.303L328.718 186.722L338.593 184.147L337.962 181.728ZM329.23 184.576L321.355 177.626L319.701 179.5L327.576 186.45L329.23 184.576ZM321.764 178.748L322.939 170.923L320.467 170.552L319.292 178.377L321.764 178.748ZM322.372 171.794L328.247 168.069L326.908 165.957L321.033 169.682L322.372 171.794ZM327.536 168.262L334.336 168.487L334.419 165.989L327.619 165.764L327.536 168.262ZM327.912 173.027L326.637 175.877L328.919 176.898L330.194 174.048L327.912 173.027ZM327.082 177.426L329.282 178.901L330.674 176.825L328.474 175.35L327.082 177.426ZM330.407 179.037L332.732 178.187L331.874 175.839L329.549 176.689L330.407 179.037ZM333.551 176.957L333.426 174.182L330.929 174.294L331.054 177.069L333.551 176.957ZM332.451 173.018L329.326 172.318L328.78 174.758L331.905 175.458L332.451 173.018Z" fill="#353535" mask="url(#path-8-outside-2_292_3265)"/>
</g>
<defs>
<filter id="filter0_dd_292_3265" x="0.614258" y="0.250488" width="359.772" height="225.653" filterUnits="userSpaceOnUse" color-interpolation-filters="sRGB">
<feFlood flood-opacity="0" result="BackgroundImageFix"/>
<feColorMatrix in="SourceAlpha" type="matrix" values="0 0 0 0 0 0 0 0 0 0 0 0 0 0 0 0 0 0 127 0" result="hardAlpha"/>
<feOffset dx="5" dy="5"/>
<feGaussianBlur stdDeviation="5"/>
<feComposite in2="hardAlpha" operator="out"/>
<feColorMatrix type="matrix" values="0 0 0 0 0 0 0 0 0 0 0 0 0 0 0 0 0 0 0.15 0"/>
<feBlend mode="normal" in2="BackgroundImageFix" result="effect1_dropShadow_292_3265"/>
<feColorMatrix in="SourceAlpha" type="matrix" values="0 0 0 0 0 0 0 0 0 0 0 0 0 0 0 0 0 0 127 0" result="hardAlpha"/>
<feOffset dx="5" dy="5"/>
<feComposite in2="hardAlpha" operator="out"/>
<feColorMatrix type="matrix" values="0 0 0 0 0.784948 0 0 0 0 0.738688 0 0 0 0 0.64889 0 0 0 1 0"/>
<feBlend mode="normal" in2="effect1_dropShadow_292_3265" result="effect2_dropShadow_292_3265"/>
<feBlend mode="normal" in="SourceGraphic" in2="effect2_dropShadow_292_3265" result="shape"/>
</filter>
<filter id="filter1_d_292_3265" x="113.418" y="22.4879" width="119.977" height="21.425" filterUnits="userSpaceOnUse" color-interpolation-filters="sRGB">
<feFlood flood-opacity="0" result="BackgroundImageFix"/>
<feColorMatrix in="SourceAlpha" type="matrix" values="0 0 0 0 0 0 0 0 0 0 0 0 0 0 0 0 0 0 127 0" result="hardAlpha"/>
<feOffset dx="1.25" dy="2.5"/>
<feComposite in2="hardAlpha" operator="out"/>
<feColorMatrix type="matrix" values="0 0 0 0 0.208281 0 0 0 0 0.208281 0 0 0 0 0.208281 0 0 0 1 0"/>
<feBlend mode="normal" in2="BackgroundImageFix" result="effect1_dropShadow_292_3265"/>
<feBlend mode="normal" in="SourceGraphic" in2="effect1_dropShadow_292_3265" result="shape"/>
</filter>
<filter id="filter2_d_292_3265" x="280.828" y="166.788" width="60.25" height="21.225" filterUnits="userSpaceOnUse" color-interpolation-filters="sRGB">
<feFlood flood-opacity="0" result="BackgroundImageFix"/>
<feColorMatrix in="SourceAlpha" type="matrix" values="0 0 0 0 0 0 0 0 0 0 0 0 0 0 0 0 0 0 127 0" result="hardAlpha"/>
<feOffset dx="1.25" dy="2.5"/>
<feComposite in2="hardAlpha" operator="out"/>
<feColorMatrix type="matrix" values="0 0 0 0 0.208281 0 0 0 0 0.208281 0 0 0 0 0.208281 0 0 0 1 0"/>
<feBlend mode="normal" in2="BackgroundImageFix" result="effect1_dropShadow_292_3265"/>
<feBlend mode="normal" in="SourceGraphic" in2="effect1_dropShadow_292_3265" result="shape"/>
</filter>
<clipPath id="clip0_292_3265">
<rect width="95.6808" height="60.4328" fill="white" transform="translate(264.577 148.686)"/>
</clipPath>
</defs>
</svg>
