<svg width="360" height="226" viewBox="0 0 360 226" fill="none" xmlns="http://www.w3.org/2000/svg">
<g filter="url(#filter0_dd_235_7084)">
<path d="M18.7666 5.25049H329.696L344.886 144.746L326.162 191.845L175.475 186.323L168.439 210.903L157.873 185.677L24.1616 194.277L5.11426 180.079L5.11426 42.9872L18.7666 5.25049Z" fill="#FFFAE7"/>
<path d="M174.874 186.151L168.328 209.02L158.449 185.436L158.277 185.025L157.833 185.054L24.3508 193.639L5.73926 179.765V43.0968L19.2052 5.87549H329.135L344.248 144.659L325.745 191.205L175.498 185.698L175.009 185.68L174.874 186.151Z" stroke="#C8BCA5" stroke-width="1.25"/>
</g>
<g filter="url(#filter1_d_235_7084)">
<mask id="path-3-outside-1_235_7084" maskUnits="userSpaceOnUse" x="119.5" y="20.3129" width="104" height="23" fill="black">
<rect fill="white" x="119.5" y="20.3129" width="104" height="23"/>
<path d="M140.015 27.4129L136.79 31.3879L133.015 28.9629L132.065 30.1629L138.815 35.1129L135.54 41.2879H127.515L121.915 36.8379L124.34 32.7629L129.165 35.4879L129.89 34.3629L122.815 30.1629L129.515 22.6629H135.54L140.015 27.4129ZM147.278 22.7129L154.178 23.1629L153.903 29.7879L149.403 27.6879L145.478 29.5129L145.303 33.7629L148.753 36.1129L153.828 33.4629L155.528 40.4379L145.553 41.3129L140.678 37.0379L139.228 31.6629L141.478 25.8879L147.278 22.7129ZM165.858 22.8379L170.483 26.2129L170.908 32.0379L168.308 34.9379L172.933 39.0129L167.508 41.3629L161.833 36.5129L162.683 41.3379H156.933L155.483 23.6379L165.858 22.8379ZM161.833 28.0129L161.683 31.5629L163.208 31.7629L164.733 29.5629L161.833 28.0129ZM185.452 22.9879L190.902 29.7629L189.352 38.6879L179.477 41.2629L171.602 34.3129L172.777 26.4879L178.652 22.7629L185.452 22.9879ZM180.127 29.2879L178.852 32.1379L181.052 33.6129L183.377 32.7629L183.252 29.9879L180.127 29.2879ZM198.322 23.3879L197.597 34.5879L205.272 33.6629L205.972 39.4379L192.072 41.0879L191.372 22.5879L198.322 23.3879ZM214.191 23.3879L213.466 34.5879L221.141 33.6629L221.841 39.4379L207.941 41.0879L207.241 22.5879L214.191 23.3879Z"/>
</mask>
<path d="M140.015 27.4129L136.79 31.3879L133.015 28.9629L132.065 30.1629L138.815 35.1129L135.54 41.2879H127.515L121.915 36.8379L124.34 32.7629L129.165 35.4879L129.89 34.3629L122.815 30.1629L129.515 22.6629H135.54L140.015 27.4129ZM147.278 22.7129L154.178 23.1629L153.903 29.7879L149.403 27.6879L145.478 29.5129L145.303 33.7629L148.753 36.1129L153.828 33.4629L155.528 40.4379L145.553 41.3129L140.678 37.0379L139.228 31.6629L141.478 25.8879L147.278 22.7129ZM165.858 22.8379L170.483 26.2129L170.908 32.0379L168.308 34.9379L172.933 39.0129L167.508 41.3629L161.833 36.5129L162.683 41.3379H156.933L155.483 23.6379L165.858 22.8379ZM161.833 28.0129L161.683 31.5629L163.208 31.7629L164.733 29.5629L161.833 28.0129ZM185.452 22.9879L190.902 29.7629L189.352 38.6879L179.477 41.2629L171.602 34.3129L172.777 26.4879L178.652 22.7629L185.452 22.9879ZM180.127 29.2879L178.852 32.1379L181.052 33.6129L183.377 32.7629L183.252 29.9879L180.127 29.2879ZM198.322 23.3879L197.597 34.5879L205.272 33.6629L205.972 39.4379L192.072 41.0879L191.372 22.5879L198.322 23.3879ZM214.191 23.3879L213.466 34.5879L221.141 33.6629L221.841 39.4379L207.941 41.0879L207.241 22.5879L214.191 23.3879Z" fill="white"/>
<path d="M140.015 27.4129L140.985 28.2004L141.674 27.3514L140.924 26.5557L140.015 27.4129ZM136.79 31.3879L136.114 32.4396L137.055 33.0443L137.76 32.1754L136.79 31.3879ZM133.015 28.9629L133.69 27.9112L132.737 27.2991L132.035 28.187L133.015 28.9629ZM132.065 30.1629L131.085 29.387L130.28 30.4039L131.325 31.1709L132.065 30.1629ZM138.815 35.1129L139.919 35.6985L140.425 34.7439L139.554 34.1049L138.815 35.1129ZM135.54 41.2879V42.5379H136.292L136.644 41.8735L135.54 41.2879ZM127.515 41.2879L126.737 42.2665L127.078 42.5379H127.515V41.2879ZM121.915 36.8379L120.84 36.1986L120.282 37.1371L121.137 37.8165L121.915 36.8379ZM124.34 32.7629L124.954 31.6745L123.89 31.0735L123.265 32.1236L124.34 32.7629ZM129.165 35.4879L128.55 36.5763L129.577 37.1561L130.215 36.165L129.165 35.4879ZM129.89 34.3629L130.94 35.04L131.643 33.95L130.528 33.288L129.89 34.3629ZM122.815 30.1629L121.882 29.3301L120.871 30.4626L122.177 31.2377L122.815 30.1629ZM129.515 22.6629V21.4129H128.955L128.582 21.8301L129.515 22.6629ZM135.54 22.6629L136.449 21.8057L136.079 21.4129H135.54V22.6629ZM139.044 26.6253L135.819 30.6003L137.76 32.1754L140.985 28.2004L139.044 26.6253ZM137.465 30.3362L133.69 27.9112L132.339 30.0146L136.114 32.4396L137.465 30.3362ZM132.035 28.187L131.085 29.387L133.045 30.9387L133.995 29.7387L132.035 28.187ZM131.325 31.1709L138.075 36.1209L139.554 34.1049L132.804 29.1549L131.325 31.1709ZM137.71 34.5272L134.435 40.7022L136.644 41.8735L139.919 35.6985L137.71 34.5272ZM135.54 40.0379H127.515V42.5379H135.54V40.0379ZM128.292 40.3092L122.692 35.8592L121.137 37.8165L126.737 42.2665L128.292 40.3092ZM122.989 37.4771L125.414 33.4021L123.265 32.1236L120.84 36.1986L122.989 37.4771ZM123.725 33.8513L128.55 36.5763L129.779 34.3995L124.954 31.6745L123.725 33.8513ZM130.215 36.165L130.94 35.04L128.839 33.6857L128.114 34.8107L130.215 36.165ZM130.528 33.288L123.453 29.088L122.177 31.2377L129.252 35.4377L130.528 33.288ZM123.747 30.9956L130.447 23.4956L128.582 21.8301L121.882 29.3301L123.747 30.9956ZM129.515 23.9129H135.54V21.4129H129.515V23.9129ZM134.63 23.52L139.105 28.27L140.924 26.5557L136.449 21.8057L134.63 23.52ZM147.278 22.7129L147.359 21.4655L146.996 21.4419L146.677 21.6164L147.278 22.7129ZM154.178 23.1629L155.426 23.2147L155.477 21.995L154.259 21.9155L154.178 23.1629ZM153.903 29.7879L153.374 30.9206L155.074 31.7138L155.151 29.8397L153.903 29.7879ZM149.403 27.6879L149.931 26.5551L149.404 26.3089L148.876 26.5544L149.403 27.6879ZM145.478 29.5129L144.951 28.3794L144.26 28.7005L144.229 29.4614L145.478 29.5129ZM145.303 33.7629L144.054 33.7114L144.025 34.4051L144.599 34.796L145.303 33.7629ZM148.753 36.1129L148.049 37.146L148.668 37.5674L149.331 37.2209L148.753 36.1129ZM153.828 33.4629L155.042 33.1669L154.664 31.6159L153.249 32.3548L153.828 33.4629ZM155.528 40.4379L155.637 41.6831L157.087 41.5559L156.742 40.1419L155.528 40.4379ZM145.553 41.3129L144.728 42.2527L145.13 42.6047L145.662 42.5581L145.553 41.3129ZM140.678 37.0379L139.471 37.3634L139.569 37.7284L139.853 37.9777L140.678 37.0379ZM139.228 31.6629L138.063 31.2091L137.914 31.5918L138.021 31.9884L139.228 31.6629ZM141.478 25.8879L140.877 24.7914L140.478 25.01L140.313 25.4341L141.478 25.8879ZM147.196 23.9602L154.096 24.4102L154.259 21.9155L147.359 21.4655L147.196 23.9602ZM152.929 23.111L152.654 29.736L155.151 29.8397L155.426 23.2147L152.929 23.111ZM154.431 28.6551L149.931 26.5551L148.874 28.8206L153.374 30.9206L154.431 28.6551ZM148.876 26.5544L144.951 28.3794L146.005 30.6463L149.93 28.8213L148.876 26.5544ZM144.229 29.4614L144.054 33.7114L146.551 33.8143L146.726 29.5643L144.229 29.4614ZM144.599 34.796L148.049 37.146L149.456 35.0798L146.006 32.7298L144.599 34.796ZM149.331 37.2209L154.406 34.5709L153.249 32.3548L148.174 35.0048L149.331 37.2209ZM152.613 33.7589L154.313 40.7339L156.742 40.1419L155.042 33.1669L152.613 33.7589ZM155.418 39.1926L145.443 40.0676L145.662 42.5581L155.637 41.6831L155.418 39.1926ZM146.377 40.373L141.502 36.098L139.853 37.9777L144.728 42.2527L146.377 40.373ZM141.884 36.7123L140.434 31.3373L138.021 31.9884L139.471 37.3634L141.884 36.7123ZM140.392 32.1167L142.642 26.3417L140.313 25.4341L138.063 31.2091L140.392 32.1167ZM142.078 26.9843L147.878 23.8093L146.677 21.6164L140.877 24.7914L142.078 26.9843ZM165.858 22.8379L166.595 21.8281L166.222 21.5561L165.762 21.5916L165.858 22.8379ZM170.483 26.2129L171.73 26.1219L171.688 25.5444L171.22 25.2031L170.483 26.2129ZM170.908 32.0379L171.839 32.8723L172.194 32.4767L172.155 31.9469L170.908 32.0379ZM168.308 34.9379L167.378 34.1034L166.536 35.0422L167.482 35.8758L168.308 34.9379ZM172.933 39.0129L173.43 40.1599L175.238 39.377L173.76 38.075L172.933 39.0129ZM167.508 41.3629L166.696 42.3131L167.289 42.82L168.005 42.5099L167.508 41.3629ZM161.833 36.5129L162.646 35.5626L159.998 33.3001L160.602 36.7297L161.833 36.5129ZM162.683 41.3379V42.5879H164.173L163.914 41.121L162.683 41.3379ZM156.933 41.3379L155.688 41.4399L155.782 42.5879H156.933V41.3379ZM155.483 23.6379L155.387 22.3916L154.135 22.4881L154.238 23.7399L155.483 23.6379ZM161.833 28.0129L162.423 26.9105L160.668 25.9729L160.585 27.9601L161.833 28.0129ZM161.683 31.5629L160.435 31.5101L160.386 32.6534L161.521 32.8023L161.683 31.5629ZM163.208 31.7629L163.046 33.0023L163.802 33.1014L164.236 32.475L163.208 31.7629ZM164.733 29.5629L165.761 30.275L166.56 29.1218L165.323 28.4605L164.733 29.5629ZM165.122 23.8476L169.747 27.2226L171.22 25.2031L166.595 21.8281L165.122 23.8476ZM169.237 26.3038L169.662 32.1288L172.155 31.9469L171.73 26.1219L169.237 26.3038ZM169.978 31.2034L167.378 34.1034L169.239 35.7723L171.839 32.8723L169.978 31.2034ZM167.482 35.8758L172.107 39.9508L173.76 38.075L169.135 34L167.482 35.8758ZM172.437 37.8659L167.012 40.2159L168.005 42.5099L173.43 40.1599L172.437 37.8659ZM168.321 40.4126L162.646 35.5626L161.021 37.4631L166.696 42.3131L168.321 40.4126ZM160.602 36.7297L161.452 41.5547L163.914 41.121L163.064 36.296L160.602 36.7297ZM162.683 40.0879H156.933V42.5879H162.683V40.0879ZM158.179 41.2358L156.729 23.5358L154.238 23.7399L155.688 41.4399L158.179 41.2358ZM155.579 24.8842L165.954 24.0842L165.762 21.5916L155.387 22.3916L155.579 24.8842ZM160.585 27.9601L160.435 31.5101L162.932 31.6156L163.082 28.0656L160.585 27.9601ZM161.521 32.8023L163.046 33.0023L163.371 30.5235L161.846 30.3235L161.521 32.8023ZM164.236 32.475L165.761 30.275L163.706 28.8507L162.181 31.0507L164.236 32.475ZM165.323 28.4605L162.423 26.9105L161.244 29.1153L164.144 30.6653L165.323 28.4605ZM185.452 22.9879L186.426 22.2044L186.067 21.7575L185.494 21.7385L185.452 22.9879ZM190.902 29.7629L192.134 29.9768L192.231 29.4198L191.876 28.9794L190.902 29.7629ZM189.352 38.6879L189.668 39.8974L190.446 39.6944L190.584 38.9018L189.352 38.6879ZM179.477 41.2629L178.65 42.2001L179.149 42.6403L179.793 42.4724L179.477 41.2629ZM171.602 34.3129L170.366 34.1272L170.265 34.8L170.775 35.2501L171.602 34.3129ZM172.777 26.4879L172.108 25.4322L171.626 25.7378L171.541 26.3022L172.777 26.4879ZM178.652 22.7629L178.694 21.5135L178.308 21.5008L177.983 21.7072L178.652 22.7629ZM180.127 29.2879L180.401 28.0681L179.404 27.8448L178.986 28.7774L180.127 29.2879ZM178.852 32.1379L177.711 31.6274L177.281 32.5893L178.156 33.1761L178.852 32.1379ZM181.052 33.6129L180.356 34.6511L180.884 35.0052L181.482 34.7869L181.052 33.6129ZM183.377 32.7629L183.807 33.9369L184.667 33.6222L184.626 32.7066L183.377 32.7629ZM183.252 29.9879L184.501 29.9316L184.458 28.977L183.526 28.7681L183.252 29.9879ZM184.478 23.7714L189.928 30.5464L191.876 28.9794L186.426 22.2044L184.478 23.7714ZM189.671 29.549L188.121 38.474L190.584 38.9018L192.134 29.9768L189.671 29.549ZM189.037 37.4783L179.162 40.0533L179.793 42.4724L189.668 39.8974L189.037 37.4783ZM180.304 40.3257L172.429 33.3757L170.775 35.2501L178.65 42.2001L180.304 40.3257ZM172.838 34.4985L174.013 26.6735L171.541 26.3022L170.366 34.1272L172.838 34.4985ZM173.447 27.5436L179.322 23.8186L177.983 21.7072L172.108 25.4322L173.447 27.5436ZM178.611 24.0122L185.411 24.2372L185.494 21.7385L178.694 21.5135L178.611 24.0122ZM178.986 28.7774L177.711 31.6274L179.993 32.6483L181.268 29.7983L178.986 28.7774ZM178.156 33.1761L180.356 34.6511L181.748 32.5746L179.548 31.0996L178.156 33.1761ZM181.482 34.7869L183.807 33.9369L182.948 31.5889L180.623 32.4389L181.482 34.7869ZM184.626 32.7066L184.501 29.9316L182.004 30.0441L182.129 32.8191L184.626 32.7066ZM183.526 28.7681L180.401 28.0681L179.854 30.5076L182.979 31.2076L183.526 28.7681ZM198.322 23.3879L199.569 23.4686L199.646 22.282L198.465 22.1461L198.322 23.3879ZM197.597 34.5879L196.35 34.5071L196.252 36.009L197.747 35.8289L197.597 34.5879ZM205.272 33.6629L206.513 33.5125L206.363 32.2724L205.123 32.4218L205.272 33.6629ZM205.972 39.4379L206.119 40.6792L207.364 40.5314L207.213 39.2875L205.972 39.4379ZM192.072 41.0879L190.823 41.1351L190.874 42.4888L192.219 42.3292L192.072 41.0879ZM191.372 22.5879L191.515 21.3461L190.068 21.1795L190.123 22.6351L191.372 22.5879ZM197.075 23.3071L196.35 34.5071L198.844 34.6686L199.569 23.4686L197.075 23.3071ZM197.747 35.8289L205.422 34.9039L205.123 32.4218L197.448 33.3468L197.747 35.8289ZM204.031 33.8133L204.731 39.5883L207.213 39.2875L206.513 33.5125L204.031 33.8133ZM205.825 38.1966L191.925 39.8466L192.219 42.3292L206.119 40.6792L205.825 38.1966ZM193.321 41.0406L192.621 22.5406L190.123 22.6351L190.823 41.1351L193.321 41.0406ZM191.229 23.8297L198.179 24.6297L198.465 22.1461L191.515 21.3461L191.229 23.8297ZM214.191 23.3879L215.439 23.4686L215.515 22.282L214.334 22.1461L214.191 23.3879ZM213.466 34.5879L212.219 34.5071L212.122 36.009L213.616 35.8289L213.466 34.5879ZM221.141 33.6629L222.382 33.5125L222.232 32.2724L220.992 32.4218L221.141 33.6629ZM221.841 39.4379L221.989 40.6792L223.233 40.5314L223.082 39.2875L221.841 39.4379ZM207.941 41.0879L206.692 41.1351L206.743 42.4888L208.089 42.3292L207.941 41.0879ZM207.241 22.5879L207.384 21.3461L205.937 21.1795L205.992 22.6351L207.241 22.5879ZM212.944 23.3071L212.219 34.5071L214.714 34.6686L215.439 23.4686L212.944 23.3071ZM213.616 35.8289L221.291 34.9039L220.992 32.4218L213.317 33.3468L213.616 35.8289ZM219.9 33.8133L220.6 39.5883L223.082 39.2875L222.382 33.5125L219.9 33.8133ZM221.694 38.1966L207.794 39.8466L208.089 42.3292L221.989 40.6792L221.694 38.1966ZM209.19 41.0406L208.49 22.5406L205.992 22.6351L206.692 41.1351L209.19 41.0406ZM207.098 23.8297L214.048 24.6297L214.334 22.1461L207.384 21.3461L207.098 23.8297Z" fill="#353535" mask="url(#path-3-outside-1_235_7084)"/>
</g>
<path d="M25 72.3279L37.9325 72.5554V77.8054L33.5575 77.0879L34.765 85.3304H28.5L29.445 77.0879L25 76.8604V72.3279ZM38.8428 73.0979L43.2528 72.2579L43.4628 77.5954L46.0353 77.2104L46.1928 72.5029L49.7978 72.6604L50.4978 85.2254L46.4378 85.0854L46.4028 81.1479L43.9528 81.6204L44.0403 85.2254H40.2428L38.8428 73.0979ZM50.9444 72.3804L54.3394 72.1704L56.9644 84.5604L51.3994 85.1729L50.9444 72.3804ZM69.936 75.5829L67.6785 78.3654L65.036 76.6679L64.371 77.5079L69.096 80.9729L66.8035 85.2954H61.186L57.266 82.1804L58.9635 79.3279L62.341 81.2354L62.8485 80.4479L57.896 77.5079L62.586 72.2579H66.8035L69.936 75.5829ZM78.8351 72.3804L82.2301 72.1704L84.8551 84.5604L79.2901 85.1729L78.8351 72.3804ZM97.8267 75.5829L95.5692 78.3654L92.9267 76.6679L92.2617 77.5079L96.9867 80.9729L94.6942 85.2954H89.0767L85.1567 82.1804L86.8542 79.3279L90.2317 81.2354L90.7392 80.4479L85.7867 77.5079L90.4767 72.2579H94.6942L97.8267 75.5829ZM106.638 72.3279L119.571 72.5554V77.8054L115.196 77.0879L116.403 85.3304H110.138L111.083 77.0879L106.638 76.8604V72.3279ZM120.481 73.0979L124.891 72.2579L125.101 77.5954L127.673 77.2104L127.831 72.5029L131.436 72.6604L132.136 85.2254L128.076 85.0854L128.041 81.1479L125.591 81.6204L125.678 85.2254H121.881L120.481 73.0979ZM133.44 72.2754H142.015L141.298 75.8979L137.08 76.5454L137.028 77.4379L140.755 77.7179L140.58 80.5004L137.255 80.7979L137.553 81.7429L141.595 81.7779L143.083 85.2604H133.44L132.495 76.8954L133.44 72.2754ZM152.222 72.2754H160.797L160.079 75.8979L155.862 76.5454L155.809 77.4379L159.537 77.7179L159.362 80.5004L156.037 80.7979L156.334 81.7429L160.377 81.7779L161.864 85.2604H152.222L151.277 76.8954L152.222 72.2754ZM164.809 72.3804L167.556 75.1804L169.586 72.1879L172.911 75.3729L170.496 78.2254L174.486 81.3579L171.161 85.1904L168.291 81.4454L164.651 85.1029L161.309 81.7954L165.176 78.3129L162.236 75.0229L164.809 72.3804ZM182.479 72.3454L188.009 84.4029L182.724 85.2429L182.304 82.1454L178.052 82.0404L177.089 85.3479L171.997 84.4379L178.979 72.6954L182.479 72.3454ZM179.872 76.9304L179.154 78.7154L181.832 78.7854L181.219 76.9829L179.872 76.9304ZM187.2 83.9829L193.447 72.4154H197.14L198.365 75.9154L200.535 72.3979L203.807 72.3279L207.395 84.9104L202.722 85.2954L201.83 82.1104L200.762 79.0304L197.542 81.9004L195.075 78.6279L192.117 84.9104L187.2 83.9829ZM215.169 72.3629L218.249 74.4804L218.494 79.6604L215.379 82.6704L211.512 82.9154V85.3829H207.434L208.082 72.3629H215.169ZM212.229 76.3529L212.107 78.4704L213.262 78.6279L214.732 76.8954L212.229 76.3529ZM223.425 72.7654L222.917 80.6054L228.29 79.9579L228.78 84.0004L219.05 85.1554L218.56 72.2054L223.425 72.7654ZM230.613 72.2754H239.188L238.47 75.8979L234.253 76.5454L234.2 77.4379L237.928 77.7179L237.753 80.5004L234.428 80.7979L234.725 81.7429L238.768 81.7779L240.255 85.2604H230.613L229.668 76.8954L230.613 72.2754ZM37.6875 96.5829L35.43 99.3654L32.7875 97.6679L32.1225 98.5079L36.8475 101.973L34.555 106.295H28.9375L25.0175 103.18L26.715 100.328L30.0925 102.235L30.6 101.448L25.6475 98.5079L30.3375 93.2579H34.555L37.6875 96.5829ZM38.694 93.2754H47.269L46.5515 96.8979L42.334 97.5454L42.2815 98.4379L46.009 98.7179L45.834 101.5L42.509 101.798L42.8065 102.743L46.849 102.778L48.3365 106.26H38.694L37.749 97.8954L38.694 93.2754ZM47.7808 106.085L50.1083 93.3279H52.7508L55.2183 97.3879L55.4283 93.3279L59.4883 93.9579L58.6308 106.243L55.2708 106.033L52.6808 102.078L51.9283 106.26L47.7808 106.085ZM59.7949 93.3279L72.7274 93.5554V98.8054L68.3524 98.0879L69.5599 106.33H63.2949L64.2399 98.0879L59.7949 97.8604V93.3279ZM74.5827 93.2754H83.1577L82.4402 96.8979L78.2227 97.5454L78.1702 98.4379L81.8977 98.7179L81.7227 101.5L78.3977 101.798L78.6952 102.743L82.7377 102.778L84.2252 106.26H74.5827L73.6377 97.8954L74.5827 93.2754ZM83.6694 106.085L85.9969 93.3279H88.6394L91.1069 97.3879L91.3169 93.3279L95.3769 93.9579L94.5194 106.243L91.1594 106.033L88.5694 102.078L87.8169 106.26L83.6694 106.085ZM100.706 93.2929L105.536 93.6079L105.344 98.2454L102.194 96.7754L99.4461 98.0529L99.3236 101.028L101.739 102.673L105.291 100.818L106.481 105.7L99.4986 106.313L96.0861 103.32L95.0711 99.5579L96.6461 95.5154L100.706 93.2929ZM107.395 93.2754H115.97L115.253 96.8979L111.035 97.5454L110.983 98.4379L114.71 98.7179L114.535 101.5L111.21 101.798L111.508 102.743L115.55 102.778L117.038 106.26H107.395L106.45 97.8954L107.395 93.2754ZM131.672 93.2929L135.347 96.3029L136.099 103.32L132.477 106.278H125.232V94.0804L131.672 93.2929ZM129.239 97.9654V101.78L131.602 100.958V99.0504L129.239 97.9654ZM137.285 93.2754H145.86L145.143 96.8979L140.925 97.5454L140.873 98.4379L144.6 98.7179L144.425 101.5L141.1 101.798L141.398 102.743L145.44 102.778L146.928 106.26H137.285L136.34 97.8954L137.285 93.2754ZM159.06 96.5829L156.802 99.3654L154.16 97.6679L153.495 98.5079L158.22 101.973L155.927 106.295H150.31L146.39 103.18L148.087 100.328L151.465 102.235L151.972 101.448L147.02 98.5079L151.71 93.2579H155.927L159.06 96.5829ZM164.144 93.2929L168.974 93.6079L168.781 98.2454L165.631 96.7754L162.884 98.0529L162.761 101.028L165.176 102.673L168.729 100.818L169.919 105.7L162.936 106.313L159.524 103.32L158.509 99.5579L160.084 95.5154L164.144 93.2929ZM177.15 93.3804L180.388 95.7429L180.685 99.8204L178.865 101.85L182.103 104.703L178.305 106.348L174.333 102.953L174.928 106.33H170.903L169.888 93.9404L177.15 93.3804ZM174.333 97.0029L174.228 99.4879L175.295 99.6279L176.363 98.0879L174.333 97.0029ZM181.818 93.3804L185.213 93.1704L187.838 105.56L182.273 106.173L181.818 93.3804ZM190.538 93.2404L196.61 93.9579L198.01 96.1979L197.905 98.5954L196.995 99.9604L198.273 100.695L199.13 103.198L198.15 105.525L196.12 106.243L188.49 106.295L188.14 93.9929L190.538 93.2404ZM192.62 103.653L194.405 103.268V102.078L192.62 101.465V103.653ZM192.393 98.2279L194.16 97.8604V96.4254L192.393 96.0404V98.2279ZM198.806 93.3804L202.201 93.1704L204.826 105.56L199.261 106.173L198.806 93.3804ZM205.11 106.085L207.437 93.3279H210.08L212.547 97.3879L212.757 93.3279L216.817 93.9579L215.96 106.243L212.6 106.033L210.01 102.078L209.257 106.26L205.11 106.085ZM228.097 95.9704L225.104 97.6504L223.897 96.9854L222.112 97.5279L221.044 100.065L222.164 102.428L225.384 102.043L225.454 101.465L222.969 101.693L223.284 98.1754L228.464 98.2454V105.158L219.767 106.278L217.124 100.905L218.087 95.9704L221.797 93.2754L226.347 93.5904L228.097 95.9704ZM237.546 93.3279L250.479 93.5554V98.8054L246.104 98.0879L247.311 106.33H241.046L241.991 98.0879L237.546 97.8604V93.3279ZM251.389 94.0979L255.799 93.2579L256.009 98.5954L258.582 98.2104L258.739 93.5029L262.344 93.6604L263.044 106.225L258.984 106.085L258.949 102.148L256.499 102.62L256.587 106.225H252.789L251.389 94.0979ZM264.348 93.2754H272.923L272.206 96.8979L267.988 97.5454L267.936 98.4379L271.663 98.7179L271.488 101.5L268.163 101.798L268.461 102.743L272.503 102.778L273.991 106.26H264.348L263.403 97.8954L264.348 93.2754ZM29.865 114.765L29.3575 122.605L34.73 121.958L35.22 126L25.49 127.155L25 114.205L29.865 114.765ZM45.2434 114.485L49.0584 119.228L47.9734 125.475L41.0609 127.278L35.5484 122.413L36.3709 116.935L40.4834 114.328L45.2434 114.485ZM41.5159 118.895L40.6234 120.89L42.1634 121.923L43.7909 121.328L43.7034 119.385L41.5159 118.895ZM54.4097 114.293L59.2397 114.608L59.0472 119.245L55.8972 117.775L53.1497 119.053L53.0272 122.028L55.4422 123.673L58.9947 121.818L60.1847 126.7L53.2022 127.313L49.7897 124.32L48.7747 120.558L50.3497 116.515L54.4097 114.293ZM68.0113 114.345L73.5413 126.403L68.2563 127.243L67.8363 124.145L63.5838 124.04L62.6213 127.348L57.5288 126.438L64.5113 114.695L68.0113 114.345ZM65.4038 118.93L64.6863 120.715L67.3638 120.785L66.7513 118.983L65.4038 118.93ZM72.7319 114.328L85.6644 114.555V119.805L81.2894 119.088L82.4969 127.33H76.2319L77.1769 119.088L72.7319 118.86V114.328ZM86.6622 114.38L90.0572 114.17L92.6822 126.56L87.1172 127.173L86.6622 114.38ZM102.101 114.485L105.916 119.228L104.831 125.475L97.9188 127.278L92.4063 122.413L93.2288 116.935L97.3413 114.328L102.101 114.485ZM98.3738 118.895L97.4813 120.89L99.0213 121.923L100.649 121.328L100.561 119.385L98.3738 118.895ZM106.245 127.085L108.573 114.328H111.215L113.683 118.388L113.893 114.328L117.953 114.958L117.095 127.243L113.735 127.033L111.145 123.078L110.393 127.26L106.245 127.085ZM120.132 124.285H121.514L122.337 125.72L121.759 126.788L120.132 127.155L119.379 125.878L120.132 124.285Z" fill="#77684D"/>
<g clip-path="url(#clip0_235_7084)">
<path d="M271.711 151.955L318.887 148.686L352.169 151.955L359.758 188.083L357.564 203.905L301.532 209.119L266.094 206.198L264.077 165.113L271.711 151.955Z" fill="#353535"/>
<path d="M266.18 166.352L273.309 154.665L318.664 151.676L350.422 154.643L357.655 187.389L355.616 201.371L301.847 206.129L268.096 203.483L266.18 166.352Z" fill="#ED4650" stroke="white" stroke-width="1.25"/>
</g>
<g filter="url(#filter2_d_235_7084)">
<mask id="path-8-outside-2_235_7084" maskUnits="userSpaceOnUse" x="279" y="164.563" width="62" height="23" fill="black">
<rect fill="white" x="279" y="164.563" width="62" height="23"/>
<path d="M280.328 167.088L285.178 166.788L288.928 184.488L280.978 185.363L280.328 167.088ZM289.333 185.238L292.658 167.013H296.433L299.958 172.813L300.258 167.013L306.058 167.913L304.833 185.463L300.033 185.163L296.333 179.513L295.258 185.488L289.333 185.238ZM307.722 166.913L320.322 167.013L319.622 173.038L312.747 172.263L312.647 174.263L318.472 173.963L317.522 179.463L312.647 178.838L313.697 185.488H307.047L306.522 171.988L307.722 166.913ZM333.878 167.238L339.328 174.013L337.778 182.938L327.903 185.513L320.028 178.563L321.203 170.738L327.078 167.013L333.878 167.238ZM328.553 173.538L327.278 176.388L329.478 177.863L331.803 177.013L331.678 174.238L328.553 173.538Z"/>
</mask>
<path d="M280.328 167.088L285.178 166.788L288.928 184.488L280.978 185.363L280.328 167.088ZM289.333 185.238L292.658 167.013H296.433L299.958 172.813L300.258 167.013L306.058 167.913L304.833 185.463L300.033 185.163L296.333 179.513L295.258 185.488L289.333 185.238ZM307.722 166.913L320.322 167.013L319.622 173.038L312.747 172.263L312.647 174.263L318.472 173.963L317.522 179.463L312.647 178.838L313.697 185.488H307.047L306.522 171.988L307.722 166.913ZM333.878 167.238L339.328 174.013L337.778 182.938L327.903 185.513L320.028 178.563L321.203 170.738L327.078 167.013L333.878 167.238ZM328.553 173.538L327.278 176.388L329.478 177.863L331.803 177.013L331.678 174.238L328.553 173.538Z" fill="white"/>
<path d="M280.328 167.088L280.25 165.84L279.035 165.915L279.078 167.132L280.328 167.088ZM285.178 166.788L286.4 166.529L286.177 165.474L285.1 165.54L285.178 166.788ZM288.928 184.488L289.064 185.73L290.437 185.579L290.15 184.229L288.928 184.488ZM280.978 185.363L279.728 185.407L279.776 186.753L281.114 186.605L280.978 185.363ZM280.405 168.335L285.255 168.035L285.1 165.54L280.25 165.84L280.405 168.335ZM283.955 167.047L287.705 184.747L290.15 184.229L286.4 166.529L283.955 167.047ZM288.791 183.245L280.841 184.12L281.114 186.605L289.064 185.73L288.791 183.245ZM282.227 185.318L281.577 167.043L279.078 167.132L279.728 185.407L282.227 185.318ZM289.333 185.238L288.104 185.014L287.846 186.426L289.281 186.487L289.333 185.238ZM292.658 167.013V165.763H291.616L291.429 166.789L292.658 167.013ZM296.433 167.013L297.502 166.364L297.137 165.763H296.433V167.013ZM299.958 172.813L298.89 173.462L300.997 176.929L301.207 172.877L299.958 172.813ZM300.258 167.013L300.45 165.778L299.082 165.565L299.01 166.948L300.258 167.013ZM306.058 167.913L307.305 168L307.385 166.854L306.25 166.678L306.058 167.913ZM304.833 185.463L304.756 186.71L305.994 186.788L306.08 185.55L304.833 185.463ZM300.033 185.163L298.988 185.848L299.331 186.371L299.956 186.41L300.033 185.163ZM296.333 179.513L297.379 178.828L295.659 176.202L295.103 179.292L296.333 179.513ZM295.258 185.488L295.206 186.737L296.296 186.783L296.489 185.709L295.258 185.488ZM290.563 185.462L293.888 167.237L291.429 166.789L288.104 185.014L290.563 185.462ZM292.658 168.263H296.433V165.763H292.658V168.263ZM295.365 167.662L298.89 173.462L301.027 172.164L297.502 166.364L295.365 167.662ZM301.207 172.877L301.507 167.077L299.01 166.948L298.71 172.748L301.207 172.877ZM300.067 168.248L305.867 169.148L306.25 166.678L300.45 165.778L300.067 168.248ZM304.812 167.826L303.587 185.376L306.08 185.55L307.305 168L304.812 167.826ZM304.911 184.215L300.111 183.915L299.956 186.41L304.756 186.71L304.911 184.215ZM301.079 184.478L297.379 178.828L295.288 180.198L298.988 185.848L301.079 184.478ZM295.103 179.292L294.028 185.267L296.489 185.709L297.564 179.734L295.103 179.292ZM295.311 184.239L289.386 183.989L289.281 186.487L295.206 186.737L295.311 184.239ZM307.722 166.913L307.732 165.663L306.735 165.655L306.505 166.625L307.722 166.913ZM320.322 167.013L321.563 167.157L321.724 165.774L320.332 165.763L320.322 167.013ZM319.622 173.038L319.482 174.28L320.719 174.42L320.863 173.182L319.622 173.038ZM312.747 172.263L312.887 171.021L311.565 170.872L311.498 172.2L312.747 172.263ZM312.647 174.263L311.398 174.2L311.329 175.582L312.711 175.511L312.647 174.263ZM318.472 173.963L319.703 174.176L319.97 172.634L318.407 172.715L318.472 173.963ZM317.522 179.463L317.363 180.703L318.55 180.855L318.753 179.676L317.522 179.463ZM312.647 178.838L312.806 177.598L311.152 177.386L311.412 179.033L312.647 178.838ZM313.697 185.488V186.738H315.159L314.931 185.293L313.697 185.488ZM307.047 185.488L305.798 185.536L305.844 186.738H307.047V185.488ZM306.522 171.988L305.305 171.7L305.266 171.866L305.273 172.036L306.522 171.988ZM307.712 168.163L320.312 168.263L320.332 165.763L307.732 165.663L307.712 168.163ZM319.08 166.869L318.38 172.894L320.863 173.182L321.563 167.157L319.08 166.869ZM319.762 171.796L312.887 171.021L312.607 173.505L319.482 174.28L319.762 171.796ZM311.498 172.2L311.398 174.2L313.895 174.325L313.995 172.325L311.498 172.2ZM312.711 175.511L318.536 175.211L318.407 172.715L312.582 173.015L312.711 175.511ZM317.24 173.75L316.29 179.25L318.753 179.676L319.703 174.176L317.24 173.75ZM317.681 178.223L312.806 177.598L312.488 180.078L317.363 180.703L317.681 178.223ZM311.412 179.033L312.462 185.683L314.931 185.293L313.881 178.643L311.412 179.033ZM313.697 184.238H307.047V186.738H313.697V184.238ZM308.296 185.439L307.771 171.939L305.273 172.036L305.798 185.536L308.296 185.439ZM307.738 172.276L308.938 167.2L306.505 166.625L305.305 171.7L307.738 172.276ZM333.878 167.238L334.852 166.454L334.492 166.008L333.919 165.989L333.878 167.238ZM339.328 174.013L340.559 174.227L340.656 173.67L340.302 173.229L339.328 174.013ZM337.778 182.938L338.093 184.147L338.872 183.944L339.009 183.152L337.778 182.938ZM327.903 185.513L327.076 186.45L327.574 186.89L328.218 186.722L327.903 185.513ZM320.028 178.563L318.791 178.377L318.69 179.05L319.201 179.5L320.028 178.563ZM321.203 170.738L320.533 169.682L320.051 169.988L319.966 170.552L321.203 170.738ZM327.078 167.013L327.119 165.764L326.734 165.751L326.408 165.957L327.078 167.013ZM328.553 173.538L328.826 172.318L327.829 172.095L327.412 173.027L328.553 173.538ZM327.278 176.388L326.137 175.877L325.706 176.839L326.582 177.426L327.278 176.388ZM329.478 177.863L328.782 178.901L329.31 179.255L329.907 179.037L329.478 177.863ZM331.803 177.013L332.232 178.187L333.093 177.872L333.051 176.957L331.803 177.013ZM331.678 174.238L332.926 174.182L332.883 173.227L331.951 173.018L331.678 174.238ZM332.904 168.021L338.354 174.796L340.302 173.229L334.852 166.454L332.904 168.021ZM338.096 173.799L336.546 182.724L339.009 183.152L340.559 174.227L338.096 173.799ZM337.462 181.728L327.587 184.303L328.218 186.722L338.093 184.147L337.462 181.728ZM328.73 184.576L320.855 177.626L319.201 179.5L327.076 186.45L328.73 184.576ZM321.264 178.748L322.439 170.923L319.966 170.552L318.791 178.377L321.264 178.748ZM321.872 171.794L327.747 168.069L326.408 165.957L320.533 169.682L321.872 171.794ZM327.036 168.262L333.836 168.487L333.919 165.989L327.119 165.764L327.036 168.262ZM327.412 173.027L326.137 175.877L328.419 176.898L329.694 174.048L327.412 173.027ZM326.582 177.426L328.782 178.901L330.174 176.825L327.974 175.35L326.582 177.426ZM329.907 179.037L332.232 178.187L331.373 175.839L329.048 176.689L329.907 179.037ZM333.051 176.957L332.926 174.182L330.429 174.294L330.554 177.069L333.051 176.957ZM331.951 173.018L328.826 172.318L328.279 174.758L331.404 175.458L331.951 173.018Z" fill="#353535" mask="url(#path-8-outside-2_235_7084)"/>
</g>
<defs>
<filter id="filter0_dd_235_7084" x="0.114258" y="0.250488" width="359.772" height="225.653" filterUnits="userSpaceOnUse" color-interpolation-filters="sRGB">
<feFlood flood-opacity="0" result="BackgroundImageFix"/>
<feColorMatrix in="SourceAlpha" type="matrix" values="0 0 0 0 0 0 0 0 0 0 0 0 0 0 0 0 0 0 127 0" result="hardAlpha"/>
<feOffset dx="5" dy="5"/>
<feGaussianBlur stdDeviation="5"/>
<feComposite in2="hardAlpha" operator="out"/>
<feColorMatrix type="matrix" values="0 0 0 0 0 0 0 0 0 0 0 0 0 0 0 0 0 0 0.15 0"/>
<feBlend mode="normal" in2="BackgroundImageFix" result="effect1_dropShadow_235_7084"/>
<feColorMatrix in="SourceAlpha" type="matrix" values="0 0 0 0 0 0 0 0 0 0 0 0 0 0 0 0 0 0 127 0" result="hardAlpha"/>
<feOffset dx="5" dy="5"/>
<feComposite in2="hardAlpha" operator="out"/>
<feColorMatrix type="matrix" values="0 0 0 0 0.784948 0 0 0 0 0.738688 0 0 0 0 0.64889 0 0 0 1 0"/>
<feBlend mode="normal" in2="effect1_dropShadow_235_7084" result="effect2_dropShadow_235_7084"/>
<feBlend mode="normal" in="SourceGraphic" in2="effect2_dropShadow_235_7084" result="shape"/>
</filter>
<filter id="filter1_d_235_7084" x="121.915" y="22.5879" width="101.177" height="21.275" filterUnits="userSpaceOnUse" color-interpolation-filters="sRGB">
<feFlood flood-opacity="0" result="BackgroundImageFix"/>
<feColorMatrix in="SourceAlpha" type="matrix" values="0 0 0 0 0 0 0 0 0 0 0 0 0 0 0 0 0 0 127 0" result="hardAlpha"/>
<feOffset dx="1.25" dy="2.5"/>
<feComposite in2="hardAlpha" operator="out"/>
<feColorMatrix type="matrix" values="0 0 0 0 0.208281 0 0 0 0 0.208281 0 0 0 0 0.208281 0 0 0 1 0"/>
<feBlend mode="normal" in2="BackgroundImageFix" result="effect1_dropShadow_235_7084"/>
<feBlend mode="normal" in="SourceGraphic" in2="effect1_dropShadow_235_7084" result="shape"/>
</filter>
<filter id="filter2_d_235_7084" x="280.328" y="166.788" width="60.25" height="21.225" filterUnits="userSpaceOnUse" color-interpolation-filters="sRGB">
<feFlood flood-opacity="0" result="BackgroundImageFix"/>
<feColorMatrix in="SourceAlpha" type="matrix" values="0 0 0 0 0 0 0 0 0 0 0 0 0 0 0 0 0 0 127 0" result="hardAlpha"/>
<feOffset dx="1.25" dy="2.5"/>
<feComposite in2="hardAlpha" operator="out"/>
<feColorMatrix type="matrix" values="0 0 0 0 0.208281 0 0 0 0 0.208281 0 0 0 0 0.208281 0 0 0 1 0"/>
<feBlend mode="normal" in2="BackgroundImageFix" result="effect1_dropShadow_235_7084"/>
<feBlend mode="normal" in="SourceGraphic" in2="effect1_dropShadow_235_7084" result="shape"/>
</filter>
<clipPath id="clip0_235_7084">
<rect width="95.6808" height="60.4328" fill="white" transform="translate(264.077 148.686)"/>
</clipPath>
</defs>
</svg>
